G04 (created by PCBNEW-RS274X (2012-01-19 BZR 3256)-stable) date 10/1/2012 12:47:07 AM*
G01*
G70*
G90*
%MOIN*%
G04 Gerber Fmt 3.4, Leading zero omitted, Abs format*
%FSLAX34Y34*%
G04 APERTURE LIST*
%ADD10C,0.006000*%
%ADD11R,0.040000X0.010000*%
%ADD12R,0.010000X0.040000*%
%ADD13R,0.070000X0.070000*%
%ADD14C,0.070000*%
%ADD15R,0.350000X0.350000*%
%ADD16R,0.020000X0.045000*%
%ADD17R,0.060000X0.080000*%
%ADD18R,0.060000X0.060000*%
%ADD19C,0.060000*%
%ADD20C,0.056000*%
%ADD21R,0.055000X0.055000*%
%ADD22C,0.055000*%
%ADD23C,0.035000*%
%ADD24C,0.007000*%
%ADD25C,0.010000*%
G04 APERTURE END LIST*
G54D10*
G54D11*
X50450Y-31790D03*
X50450Y-36510D03*
X50450Y-36310D03*
X50450Y-36120D03*
X50450Y-35920D03*
X50450Y-35720D03*
X50450Y-35530D03*
X50450Y-35330D03*
X50450Y-35130D03*
X50450Y-34940D03*
X50450Y-34740D03*
X50450Y-34540D03*
X50450Y-34340D03*
X50450Y-34150D03*
X50450Y-33950D03*
X50450Y-33750D03*
X50450Y-33560D03*
X50450Y-33360D03*
X50450Y-33160D03*
X50450Y-32970D03*
X50450Y-32770D03*
X50450Y-32570D03*
X50450Y-32380D03*
X50450Y-32180D03*
X50450Y-31980D03*
G54D12*
X49760Y-37200D03*
X45040Y-37200D03*
X45240Y-37200D03*
X45430Y-37200D03*
X45630Y-37200D03*
X45830Y-37200D03*
X46020Y-37200D03*
X46220Y-37200D03*
X46420Y-37200D03*
X46610Y-37200D03*
X46810Y-37200D03*
X47010Y-37200D03*
X47210Y-37200D03*
X47400Y-37200D03*
X47600Y-37200D03*
X47800Y-37200D03*
X47990Y-37200D03*
X48190Y-37200D03*
X48390Y-37200D03*
X48580Y-37200D03*
X48780Y-37200D03*
X48980Y-37200D03*
X49170Y-37200D03*
X49370Y-37200D03*
X49570Y-37200D03*
X49760Y-31100D03*
X49560Y-31100D03*
X49370Y-31100D03*
X49170Y-31100D03*
X48970Y-31100D03*
X48780Y-31100D03*
X48580Y-31100D03*
X48380Y-31100D03*
X48190Y-31100D03*
X47990Y-31100D03*
X47790Y-31100D03*
X47590Y-31100D03*
X47400Y-31100D03*
X47200Y-31100D03*
X47000Y-31100D03*
X46810Y-31100D03*
X46610Y-31100D03*
X46410Y-31100D03*
X46220Y-31100D03*
X46020Y-31100D03*
X45820Y-31100D03*
X45630Y-31100D03*
X45430Y-31100D03*
X45230Y-31100D03*
X45040Y-31100D03*
G54D11*
X44350Y-31790D03*
X44350Y-31990D03*
X44350Y-32180D03*
X44350Y-32380D03*
X44350Y-32580D03*
X44350Y-32770D03*
X44350Y-32970D03*
X44350Y-33170D03*
X44350Y-33360D03*
X44350Y-33560D03*
X44350Y-33760D03*
X44350Y-33960D03*
X44350Y-34150D03*
X44350Y-34350D03*
X44350Y-34550D03*
X44350Y-34740D03*
X44350Y-34940D03*
X44350Y-35140D03*
X44350Y-35330D03*
X44350Y-35530D03*
X44350Y-35730D03*
X44350Y-35920D03*
X44350Y-36120D03*
X44350Y-36320D03*
X44350Y-36510D03*
G54D13*
X89350Y-34650D03*
G54D14*
X89350Y-32650D03*
X89350Y-33650D03*
G54D15*
X95850Y-33650D03*
G54D16*
X58450Y-34300D03*
X58950Y-34300D03*
X59450Y-34300D03*
X59950Y-34300D03*
X59950Y-36800D03*
X59450Y-36800D03*
X58950Y-36800D03*
X58450Y-36800D03*
G54D17*
X10000Y-15900D03*
X11300Y-15900D03*
X28650Y-29150D03*
X29950Y-29150D03*
X21700Y-21200D03*
X23000Y-21200D03*
X12700Y-19550D03*
X14000Y-19550D03*
X48300Y-45750D03*
X47000Y-45750D03*
X24200Y-41350D03*
X25500Y-41350D03*
X10700Y-06800D03*
X12000Y-06800D03*
X13500Y-06950D03*
X14800Y-06950D03*
X07150Y-05350D03*
X08450Y-05350D03*
X07450Y-08800D03*
X08750Y-08800D03*
X10600Y-08950D03*
X11900Y-08950D03*
X13150Y-09050D03*
X14450Y-09050D03*
X09500Y-11350D03*
X10800Y-11350D03*
X43050Y-42900D03*
X44350Y-42900D03*
X52250Y-42900D03*
X50950Y-42900D03*
X06550Y-16000D03*
X07850Y-16000D03*
G54D18*
X34800Y-20850D03*
G54D19*
X35800Y-20850D03*
X36800Y-20850D03*
X37800Y-20850D03*
X38800Y-20850D03*
X39800Y-20850D03*
G54D15*
X89100Y-07850D03*
G54D14*
X82600Y-06850D03*
G54D13*
X82600Y-07850D03*
G54D14*
X82600Y-08850D03*
G54D15*
X59700Y-10600D03*
G54D14*
X53200Y-09600D03*
G54D13*
X53200Y-10600D03*
G54D14*
X53200Y-11600D03*
G54D20*
X46600Y-43100D03*
X48600Y-43100D03*
G54D21*
X19000Y-33000D03*
G54D22*
X20000Y-33000D03*
X21000Y-33000D03*
X22000Y-33000D03*
X22000Y-30000D03*
X21000Y-30000D03*
X20000Y-30000D03*
X19000Y-30000D03*
G54D14*
X33150Y-11750D03*
G54D13*
X37150Y-11750D03*
G54D21*
X56600Y-39800D03*
G54D22*
X61600Y-39800D03*
G54D21*
X34250Y-15450D03*
G54D22*
X39250Y-15450D03*
G54D21*
X35350Y-25450D03*
G54D22*
X39350Y-25450D03*
G54D21*
X35450Y-28050D03*
G54D22*
X39450Y-28050D03*
G54D21*
X55750Y-20750D03*
G54D22*
X59750Y-20750D03*
G54D21*
X70600Y-12000D03*
G54D22*
X74600Y-12000D03*
G54D21*
X63000Y-16100D03*
G54D22*
X67000Y-16100D03*
G54D21*
X61950Y-23850D03*
G54D22*
X65950Y-23850D03*
G54D21*
X72650Y-52700D03*
G54D22*
X76650Y-52700D03*
G54D21*
X66400Y-42650D03*
G54D22*
X70400Y-42650D03*
G54D21*
X72650Y-56150D03*
G54D22*
X76650Y-56150D03*
G54D21*
X66300Y-39400D03*
G54D22*
X70300Y-39400D03*
G54D21*
X54250Y-15000D03*
G54D22*
X58250Y-15000D03*
G54D21*
X64000Y-06800D03*
G54D22*
X68000Y-06800D03*
G54D21*
X55750Y-18100D03*
G54D22*
X59750Y-18100D03*
G54D21*
X42700Y-06400D03*
G54D22*
X46700Y-06400D03*
G54D21*
X44100Y-09600D03*
G54D22*
X48100Y-09600D03*
G54D23*
X41400Y-45400D03*
X52750Y-47300D03*
X40300Y-43300D03*
G54D24*
X41800Y-45000D02*
X41800Y-44700D01*
X41400Y-45400D02*
X41800Y-45000D01*
X52550Y-47100D02*
X52550Y-46550D01*
X52750Y-47300D02*
X52550Y-47100D01*
X43050Y-42900D02*
X40700Y-42900D01*
X40700Y-42900D02*
X40300Y-43300D01*
X47400Y-36700D02*
X47600Y-36700D01*
X47800Y-36900D02*
X47600Y-36700D01*
X47800Y-36900D02*
X47800Y-37200D01*
X47800Y-37200D02*
X47800Y-37900D01*
X47800Y-37900D02*
X48050Y-38150D01*
X48300Y-45750D02*
X48300Y-43400D01*
X48300Y-43400D02*
X48600Y-43100D01*
X47600Y-37200D02*
X47600Y-42100D01*
X47600Y-42100D02*
X48600Y-43100D01*
X47000Y-45750D02*
X47000Y-43500D01*
X47000Y-43500D02*
X46600Y-43100D01*
X46600Y-43100D02*
X46600Y-42850D01*
X47400Y-42050D02*
X47400Y-37200D01*
X46600Y-42850D02*
X47400Y-42050D01*
G54D10*
G36*
X53497Y-41407D02*
X53453Y-48098D01*
X53417Y-48274D01*
X53320Y-48419D01*
X53175Y-48515D01*
X53175Y-47385D01*
X53175Y-47216D01*
X53111Y-47060D01*
X52991Y-46940D01*
X52835Y-46875D01*
X52835Y-46550D01*
X52813Y-46441D01*
X52800Y-46421D01*
X52800Y-43012D01*
X52800Y-42788D01*
X52799Y-42549D01*
X52799Y-42450D01*
X52761Y-42359D01*
X52691Y-42289D01*
X52599Y-42251D01*
X52362Y-42250D01*
X52300Y-42312D01*
X52300Y-42850D01*
X52738Y-42850D01*
X52800Y-42788D01*
X52800Y-43012D01*
X52738Y-42950D01*
X52300Y-42950D01*
X52300Y-43488D01*
X52362Y-43550D01*
X52599Y-43549D01*
X52691Y-43511D01*
X52761Y-43441D01*
X52799Y-43350D01*
X52799Y-43251D01*
X52800Y-43012D01*
X52800Y-46421D01*
X52752Y-46348D01*
X52659Y-46287D01*
X52550Y-46265D01*
X52441Y-46287D01*
X52348Y-46348D01*
X52287Y-46441D01*
X52265Y-46550D01*
X52265Y-47095D01*
X52264Y-47100D01*
X52287Y-47209D01*
X52325Y-47266D01*
X52325Y-47384D01*
X52389Y-47540D01*
X52509Y-47660D01*
X52665Y-47725D01*
X52834Y-47725D01*
X52990Y-47661D01*
X53110Y-47541D01*
X53175Y-47385D01*
X53175Y-48515D01*
X52998Y-48550D01*
X52200Y-48550D01*
X52200Y-43488D01*
X52200Y-42950D01*
X52200Y-42850D01*
X52200Y-42312D01*
X52138Y-42250D01*
X51901Y-42251D01*
X51809Y-42289D01*
X51739Y-42359D01*
X51701Y-42450D01*
X51701Y-42549D01*
X51700Y-42788D01*
X51762Y-42850D01*
X52200Y-42850D01*
X52200Y-42950D01*
X51762Y-42950D01*
X51700Y-43012D01*
X51701Y-43251D01*
X51701Y-43350D01*
X51739Y-43441D01*
X51809Y-43511D01*
X51901Y-43549D01*
X52138Y-43550D01*
X52200Y-43488D01*
X52200Y-48550D01*
X43600Y-48550D01*
X43600Y-43012D01*
X43600Y-42788D01*
X43599Y-42549D01*
X43599Y-42450D01*
X43561Y-42359D01*
X43491Y-42289D01*
X43399Y-42251D01*
X43162Y-42250D01*
X43100Y-42312D01*
X43100Y-42850D01*
X43538Y-42850D01*
X43600Y-42788D01*
X43600Y-43012D01*
X43538Y-42950D01*
X43100Y-42950D01*
X43100Y-43488D01*
X43162Y-43550D01*
X43399Y-43549D01*
X43491Y-43511D01*
X43561Y-43441D01*
X43599Y-43350D01*
X43599Y-43251D01*
X43600Y-43012D01*
X43600Y-48550D01*
X43000Y-48550D01*
X43000Y-43488D01*
X43000Y-42950D01*
X43000Y-42850D01*
X43000Y-42312D01*
X42938Y-42250D01*
X42701Y-42251D01*
X42609Y-42289D01*
X42539Y-42359D01*
X42501Y-42450D01*
X42501Y-42549D01*
X42500Y-42788D01*
X42562Y-42850D01*
X43000Y-42850D01*
X43000Y-42950D01*
X42562Y-42950D01*
X42500Y-43012D01*
X42501Y-43251D01*
X42501Y-43350D01*
X42539Y-43441D01*
X42609Y-43511D01*
X42701Y-43549D01*
X42938Y-43550D01*
X43000Y-43488D01*
X43000Y-48550D01*
X41455Y-48550D01*
X41278Y-48515D01*
X41132Y-48418D01*
X41035Y-48272D01*
X41000Y-48095D01*
X41000Y-45544D01*
X41039Y-45640D01*
X41159Y-45760D01*
X41315Y-45825D01*
X41484Y-45825D01*
X41640Y-45761D01*
X41760Y-45641D01*
X41825Y-45485D01*
X41825Y-45378D01*
X41999Y-45203D01*
X42001Y-45202D01*
X42002Y-45202D01*
X42063Y-45109D01*
X42085Y-45000D01*
X42085Y-44700D01*
X42063Y-44591D01*
X42002Y-44498D01*
X41909Y-44437D01*
X41800Y-44415D01*
X41691Y-44437D01*
X41598Y-44498D01*
X41537Y-44591D01*
X41515Y-44700D01*
X41515Y-44881D01*
X41421Y-44975D01*
X41316Y-44975D01*
X41160Y-45039D01*
X41040Y-45159D01*
X41000Y-45255D01*
X41000Y-41300D01*
X41035Y-41124D01*
X41131Y-40979D01*
X41275Y-40881D01*
X41450Y-40845D01*
X45601Y-40802D01*
X45804Y-40760D01*
X45976Y-40645D01*
X46943Y-39678D01*
X47059Y-39503D01*
X47100Y-39298D01*
X47100Y-38229D01*
X47115Y-38134D01*
X47115Y-39919D01*
X45840Y-41235D01*
X45714Y-41328D01*
X45564Y-41372D01*
X44243Y-41532D01*
X44088Y-41575D01*
X43954Y-41662D01*
X43835Y-41766D01*
X43736Y-41881D01*
X43672Y-42023D01*
X43650Y-42173D01*
X43650Y-44886D01*
X43679Y-45059D01*
X43764Y-45218D01*
X43892Y-45337D01*
X44196Y-45541D01*
X44306Y-45644D01*
X44375Y-45773D01*
X44400Y-45922D01*
X44400Y-46155D01*
X44441Y-46360D01*
X44560Y-46540D01*
X44740Y-46659D01*
X44945Y-46700D01*
X49955Y-46700D01*
X50160Y-46659D01*
X50340Y-46540D01*
X50459Y-46360D01*
X50500Y-46155D01*
X50500Y-45878D01*
X50526Y-45727D01*
X50598Y-45596D01*
X50712Y-45493D01*
X51353Y-45084D01*
X51485Y-44967D01*
X51573Y-44809D01*
X51605Y-44636D01*
X51645Y-42266D01*
X51619Y-42092D01*
X51537Y-41931D01*
X51410Y-41809D01*
X50798Y-41391D01*
X50658Y-41323D01*
X50505Y-41297D01*
X48447Y-41259D01*
X48272Y-41221D01*
X48129Y-41123D01*
X48034Y-40979D01*
X48000Y-40804D01*
X48000Y-38138D01*
X47987Y-38040D01*
X47948Y-37946D01*
X47885Y-37863D01*
X47885Y-37840D01*
X47999Y-37988D01*
X48036Y-38079D01*
X48050Y-38179D01*
X48050Y-39534D01*
X48070Y-39681D01*
X48131Y-39819D01*
X48225Y-39933D01*
X49176Y-40808D01*
X49345Y-40913D01*
X49540Y-40950D01*
X53043Y-40950D01*
X53186Y-40973D01*
X53312Y-41037D01*
X53411Y-41138D01*
X53475Y-41264D01*
X53497Y-41407D01*
X53497Y-41407D01*
G37*
G54D25*
X53497Y-41407D02*
X53453Y-48098D01*
X53417Y-48274D01*
X53320Y-48419D01*
X53175Y-48515D01*
X53175Y-47385D01*
X53175Y-47216D01*
X53111Y-47060D01*
X52991Y-46940D01*
X52835Y-46875D01*
X52835Y-46550D01*
X52813Y-46441D01*
X52800Y-46421D01*
X52800Y-43012D01*
X52800Y-42788D01*
X52799Y-42549D01*
X52799Y-42450D01*
X52761Y-42359D01*
X52691Y-42289D01*
X52599Y-42251D01*
X52362Y-42250D01*
X52300Y-42312D01*
X52300Y-42850D01*
X52738Y-42850D01*
X52800Y-42788D01*
X52800Y-43012D01*
X52738Y-42950D01*
X52300Y-42950D01*
X52300Y-43488D01*
X52362Y-43550D01*
X52599Y-43549D01*
X52691Y-43511D01*
X52761Y-43441D01*
X52799Y-43350D01*
X52799Y-43251D01*
X52800Y-43012D01*
X52800Y-46421D01*
X52752Y-46348D01*
X52659Y-46287D01*
X52550Y-46265D01*
X52441Y-46287D01*
X52348Y-46348D01*
X52287Y-46441D01*
X52265Y-46550D01*
X52265Y-47095D01*
X52264Y-47100D01*
X52287Y-47209D01*
X52325Y-47266D01*
X52325Y-47384D01*
X52389Y-47540D01*
X52509Y-47660D01*
X52665Y-47725D01*
X52834Y-47725D01*
X52990Y-47661D01*
X53110Y-47541D01*
X53175Y-47385D01*
X53175Y-48515D01*
X52998Y-48550D01*
X52200Y-48550D01*
X52200Y-43488D01*
X52200Y-42950D01*
X52200Y-42850D01*
X52200Y-42312D01*
X52138Y-42250D01*
X51901Y-42251D01*
X51809Y-42289D01*
X51739Y-42359D01*
X51701Y-42450D01*
X51701Y-42549D01*
X51700Y-42788D01*
X51762Y-42850D01*
X52200Y-42850D01*
X52200Y-42950D01*
X51762Y-42950D01*
X51700Y-43012D01*
X51701Y-43251D01*
X51701Y-43350D01*
X51739Y-43441D01*
X51809Y-43511D01*
X51901Y-43549D01*
X52138Y-43550D01*
X52200Y-43488D01*
X52200Y-48550D01*
X43600Y-48550D01*
X43600Y-43012D01*
X43600Y-42788D01*
X43599Y-42549D01*
X43599Y-42450D01*
X43561Y-42359D01*
X43491Y-42289D01*
X43399Y-42251D01*
X43162Y-42250D01*
X43100Y-42312D01*
X43100Y-42850D01*
X43538Y-42850D01*
X43600Y-42788D01*
X43600Y-43012D01*
X43538Y-42950D01*
X43100Y-42950D01*
X43100Y-43488D01*
X43162Y-43550D01*
X43399Y-43549D01*
X43491Y-43511D01*
X43561Y-43441D01*
X43599Y-43350D01*
X43599Y-43251D01*
X43600Y-43012D01*
X43600Y-48550D01*
X43000Y-48550D01*
X43000Y-43488D01*
X43000Y-42950D01*
X43000Y-42850D01*
X43000Y-42312D01*
X42938Y-42250D01*
X42701Y-42251D01*
X42609Y-42289D01*
X42539Y-42359D01*
X42501Y-42450D01*
X42501Y-42549D01*
X42500Y-42788D01*
X42562Y-42850D01*
X43000Y-42850D01*
X43000Y-42950D01*
X42562Y-42950D01*
X42500Y-43012D01*
X42501Y-43251D01*
X42501Y-43350D01*
X42539Y-43441D01*
X42609Y-43511D01*
X42701Y-43549D01*
X42938Y-43550D01*
X43000Y-43488D01*
X43000Y-48550D01*
X41455Y-48550D01*
X41278Y-48515D01*
X41132Y-48418D01*
X41035Y-48272D01*
X41000Y-48095D01*
X41000Y-45544D01*
X41039Y-45640D01*
X41159Y-45760D01*
X41315Y-45825D01*
X41484Y-45825D01*
X41640Y-45761D01*
X41760Y-45641D01*
X41825Y-45485D01*
X41825Y-45378D01*
X41999Y-45203D01*
X42001Y-45202D01*
X42002Y-45202D01*
X42063Y-45109D01*
X42085Y-45000D01*
X42085Y-44700D01*
X42063Y-44591D01*
X42002Y-44498D01*
X41909Y-44437D01*
X41800Y-44415D01*
X41691Y-44437D01*
X41598Y-44498D01*
X41537Y-44591D01*
X41515Y-44700D01*
X41515Y-44881D01*
X41421Y-44975D01*
X41316Y-44975D01*
X41160Y-45039D01*
X41040Y-45159D01*
X41000Y-45255D01*
X41000Y-41300D01*
X41035Y-41124D01*
X41131Y-40979D01*
X41275Y-40881D01*
X41450Y-40845D01*
X45601Y-40802D01*
X45804Y-40760D01*
X45976Y-40645D01*
X46943Y-39678D01*
X47059Y-39503D01*
X47100Y-39298D01*
X47100Y-38229D01*
X47115Y-38134D01*
X47115Y-39919D01*
X45840Y-41235D01*
X45714Y-41328D01*
X45564Y-41372D01*
X44243Y-41532D01*
X44088Y-41575D01*
X43954Y-41662D01*
X43835Y-41766D01*
X43736Y-41881D01*
X43672Y-42023D01*
X43650Y-42173D01*
X43650Y-44886D01*
X43679Y-45059D01*
X43764Y-45218D01*
X43892Y-45337D01*
X44196Y-45541D01*
X44306Y-45644D01*
X44375Y-45773D01*
X44400Y-45922D01*
X44400Y-46155D01*
X44441Y-46360D01*
X44560Y-46540D01*
X44740Y-46659D01*
X44945Y-46700D01*
X49955Y-46700D01*
X50160Y-46659D01*
X50340Y-46540D01*
X50459Y-46360D01*
X50500Y-46155D01*
X50500Y-45878D01*
X50526Y-45727D01*
X50598Y-45596D01*
X50712Y-45493D01*
X51353Y-45084D01*
X51485Y-44967D01*
X51573Y-44809D01*
X51605Y-44636D01*
X51645Y-42266D01*
X51619Y-42092D01*
X51537Y-41931D01*
X51410Y-41809D01*
X50798Y-41391D01*
X50658Y-41323D01*
X50505Y-41297D01*
X48447Y-41259D01*
X48272Y-41221D01*
X48129Y-41123D01*
X48034Y-40979D01*
X48000Y-40804D01*
X48000Y-38138D01*
X47987Y-38040D01*
X47948Y-37946D01*
X47885Y-37863D01*
X47885Y-37840D01*
X47999Y-37988D01*
X48036Y-38079D01*
X48050Y-38179D01*
X48050Y-39534D01*
X48070Y-39681D01*
X48131Y-39819D01*
X48225Y-39933D01*
X49176Y-40808D01*
X49345Y-40913D01*
X49540Y-40950D01*
X53043Y-40950D01*
X53186Y-40973D01*
X53312Y-41037D01*
X53411Y-41138D01*
X53475Y-41264D01*
X53497Y-41407D01*
G54D10*
G36*
X47579Y-36700D02*
X47529Y-36750D01*
X47421Y-36750D01*
X47371Y-36700D01*
X47579Y-36700D01*
X47579Y-36700D01*
G37*
G54D25*
X47579Y-36700D02*
X47529Y-36750D01*
X47421Y-36750D01*
X47371Y-36700D01*
X47579Y-36700D01*
M02*
