G04 (created by PCBNEW-RS274X (2012-01-19 BZR 3256)-stable) date 10/21/2012 10:59:19 AM*
G01*
G70*
G90*
%MOIN*%
G04 Gerber Fmt 3.4, Leading zero omitted, Abs format*
%FSLAX34Y34*%
G04 APERTURE LIST*
%ADD10C,0.006000*%
%ADD11R,0.070000X0.070000*%
%ADD12C,0.070000*%
%ADD13R,0.350000X0.350000*%
%ADD14R,0.060000X0.080000*%
%ADD15R,0.080000X0.060000*%
%ADD16R,0.060000X0.060000*%
%ADD17C,0.060000*%
%ADD18C,0.055000*%
%ADD19C,0.143700*%
%ADD20R,0.059100X0.059100*%
%ADD21C,0.059100*%
%ADD22C,0.035000*%
%ADD23C,0.007000*%
G04 APERTURE END LIST*
G54D10*
G54D11*
X36200Y-45700D03*
G54D12*
X36200Y-43700D03*
X36200Y-44700D03*
G54D13*
X42700Y-44700D03*
G54D14*
X52250Y-35850D03*
X53550Y-35850D03*
X66450Y-46250D03*
X65150Y-46250D03*
G54D15*
X65550Y-42600D03*
X65550Y-41300D03*
G54D14*
X55950Y-36300D03*
X54650Y-36300D03*
X74400Y-43050D03*
X75700Y-43050D03*
X59125Y-37900D03*
X60425Y-37900D03*
G54D15*
X54450Y-35300D03*
X54450Y-34000D03*
G54D14*
X59150Y-40250D03*
X60450Y-40250D03*
X55500Y-42350D03*
X54200Y-42350D03*
X56550Y-42525D03*
X57850Y-42525D03*
X62125Y-41575D03*
X63425Y-41575D03*
G54D15*
X49550Y-42750D03*
X49550Y-44050D03*
X38450Y-40650D03*
X38450Y-39350D03*
G54D16*
X68500Y-32500D03*
G54D17*
X67500Y-32500D03*
G54D16*
X46400Y-37900D03*
G54D17*
X45400Y-37900D03*
G54D16*
X59500Y-32700D03*
G54D17*
X58500Y-32700D03*
X57500Y-32700D03*
X56500Y-32700D03*
X55500Y-32700D03*
X54500Y-32700D03*
G54D13*
X42500Y-33500D03*
G54D12*
X36000Y-32500D03*
G54D11*
X36000Y-33500D03*
G54D12*
X36000Y-34500D03*
G54D13*
X42700Y-39500D03*
G54D12*
X36200Y-38500D03*
G54D11*
X36200Y-39500D03*
G54D12*
X36200Y-40500D03*
G54D18*
X47409Y-36000D03*
X48591Y-36000D03*
X47409Y-33000D03*
X48591Y-33000D03*
G54D17*
X64500Y-38787D03*
X64500Y-38000D03*
X64500Y-39575D03*
X64500Y-37213D03*
X64500Y-36425D03*
X64500Y-40362D03*
X64500Y-35638D03*
X64500Y-41150D03*
X67650Y-38787D03*
X67650Y-38000D03*
X67650Y-39575D03*
X67650Y-37213D03*
X67650Y-36425D03*
X67650Y-40362D03*
X67650Y-35638D03*
X67650Y-41150D03*
G54D19*
X83600Y-41412D03*
X83600Y-46085D03*
G54D20*
X81100Y-45500D03*
G54D21*
X80100Y-45000D03*
X81100Y-44500D03*
X80100Y-44000D03*
X81100Y-43500D03*
X80100Y-43000D03*
X81100Y-42500D03*
X80100Y-42000D03*
G54D22*
X47800Y-43400D03*
X53600Y-34500D03*
X61000Y-37100D03*
X52800Y-35100D03*
X56980Y-40640D03*
X71400Y-38000D03*
X60550Y-34350D03*
X57400Y-39700D03*
X58600Y-33700D03*
X55600Y-40100D03*
X55200Y-35700D03*
X55200Y-37500D03*
X55880Y-40660D03*
X60800Y-38750D03*
X60850Y-45400D03*
X51400Y-36650D03*
X48300Y-43900D03*
X57020Y-33840D03*
X76260Y-35600D03*
X58120Y-40660D03*
X68680Y-41160D03*
X53600Y-35100D03*
X66240Y-44400D03*
X76240Y-36160D03*
X50450Y-44000D03*
X59020Y-39020D03*
X64750Y-42350D03*
X64100Y-32200D03*
X76280Y-32580D03*
X52200Y-38040D03*
X59000Y-39520D03*
X61900Y-40200D03*
X53450Y-42200D03*
X63900Y-46450D03*
X76280Y-33180D03*
X74040Y-37460D03*
X52920Y-37320D03*
X54740Y-38660D03*
X62800Y-41300D03*
X59500Y-33500D03*
X52700Y-33200D03*
X56750Y-34700D03*
X57350Y-34200D03*
X56200Y-40000D03*
X66300Y-35300D03*
X57500Y-41800D03*
X69200Y-36400D03*
X54800Y-40500D03*
X70000Y-36500D03*
X62500Y-37750D03*
X69800Y-35300D03*
X54400Y-40300D03*
X63650Y-33800D03*
X57800Y-34000D03*
X61450Y-41600D03*
X59100Y-36250D03*
X65500Y-37500D03*
X65150Y-34400D03*
X65500Y-38700D03*
X59050Y-36950D03*
X58300Y-36950D03*
X60450Y-36750D03*
X56400Y-38900D03*
X65950Y-38300D03*
X55750Y-37500D03*
X65450Y-40650D03*
X66200Y-45300D03*
X66200Y-43500D03*
X60800Y-44900D03*
X63000Y-38750D03*
X63250Y-39500D03*
X66700Y-42200D03*
X61100Y-42100D03*
X60648Y-42120D03*
X66701Y-42642D03*
X74350Y-43900D03*
X68750Y-35850D03*
X47700Y-42600D03*
X61825Y-42575D03*
X62250Y-32900D03*
X56150Y-35650D03*
X51350Y-42000D03*
X65800Y-45500D03*
X58475Y-40400D03*
X72300Y-44400D03*
X55200Y-34150D03*
X47700Y-41900D03*
X69450Y-32850D03*
X69750Y-37300D03*
X59100Y-38575D03*
X68550Y-36250D03*
X56550Y-40575D03*
X55050Y-43250D03*
X71000Y-39900D03*
X53400Y-33750D03*
X69450Y-32200D03*
X56400Y-33800D03*
X66600Y-43300D03*
G54D23*
X71400Y-34200D02*
X71400Y-38000D01*
X70650Y-33450D02*
X71400Y-34200D01*
X61450Y-33450D02*
X70650Y-33450D01*
X60550Y-34350D02*
X61450Y-33450D01*
X58600Y-37100D02*
X58600Y-33700D01*
X57400Y-38300D02*
X58600Y-37100D01*
X57400Y-39700D02*
X57400Y-38300D01*
X55200Y-39700D02*
X55200Y-37500D01*
X55600Y-35300D02*
X55600Y-34100D01*
X55600Y-40100D02*
X55200Y-39700D01*
X56500Y-33200D02*
X56500Y-32700D01*
X55200Y-35700D02*
X55600Y-35300D01*
X55600Y-34100D02*
X56500Y-33200D01*
X50400Y-44050D02*
X50450Y-44000D01*
X36350Y-39350D02*
X36200Y-39500D01*
X53550Y-35150D02*
X53600Y-35100D01*
X49550Y-44050D02*
X50400Y-44050D01*
X38450Y-39350D02*
X36350Y-39350D01*
X54200Y-35850D02*
X54650Y-36300D01*
X65550Y-42600D02*
X65000Y-42600D01*
X53600Y-42350D02*
X53450Y-42200D01*
X63425Y-41575D02*
X63075Y-41575D01*
X53550Y-35150D02*
X53550Y-35850D01*
X60425Y-37900D02*
X60425Y-38375D01*
X60425Y-38375D02*
X60800Y-38750D01*
X53550Y-35850D02*
X54200Y-35850D01*
X65150Y-46250D02*
X64100Y-46250D01*
X63075Y-41575D02*
X62800Y-41300D01*
X64100Y-46250D02*
X63900Y-46450D01*
X54200Y-42350D02*
X53600Y-42350D01*
X65000Y-42600D02*
X64750Y-42350D01*
X57350Y-34200D02*
X57500Y-34050D01*
X59300Y-33300D02*
X59500Y-33500D01*
X57500Y-34050D02*
X57500Y-33700D01*
X57500Y-33700D02*
X57900Y-33300D01*
X57900Y-33300D02*
X59300Y-33300D01*
X63537Y-38787D02*
X62500Y-37750D01*
X64500Y-38787D02*
X63537Y-38787D01*
X59100Y-36250D02*
X59200Y-36150D01*
X59200Y-36150D02*
X60550Y-36150D01*
X60550Y-36150D02*
X61450Y-37050D01*
X61450Y-39850D02*
X61450Y-41600D01*
X61450Y-37050D02*
X61450Y-39850D01*
X66375Y-39575D02*
X67650Y-39575D01*
X65500Y-38700D02*
X66375Y-39575D01*
X65500Y-34750D02*
X65500Y-37500D01*
X65150Y-34400D02*
X65500Y-34750D01*
X66437Y-38787D02*
X67650Y-38787D01*
X56400Y-38900D02*
X58300Y-37000D01*
X58300Y-37000D02*
X58300Y-36950D01*
X59250Y-36750D02*
X60450Y-36750D01*
X59050Y-36950D02*
X59250Y-36750D01*
X65950Y-38300D02*
X66437Y-38787D01*
X55250Y-37000D02*
X48409Y-37000D01*
X55750Y-37500D02*
X55250Y-37000D01*
X48409Y-37000D02*
X47409Y-36000D01*
X65450Y-40650D02*
X65700Y-40650D01*
X65700Y-40650D02*
X65800Y-40750D01*
X65800Y-40750D02*
X65800Y-41050D01*
X65800Y-41050D02*
X65550Y-41300D01*
X66000Y-44900D02*
X66200Y-44900D01*
X66450Y-45550D02*
X66200Y-45300D01*
X65400Y-45500D02*
X66000Y-44900D01*
X61400Y-45500D02*
X60800Y-44900D01*
X66600Y-44500D02*
X66600Y-44100D01*
X61600Y-45500D02*
X65400Y-45500D01*
X66200Y-44900D02*
X66600Y-44500D01*
X61600Y-45500D02*
X61400Y-45500D01*
X66200Y-44900D02*
X66200Y-45300D01*
X66200Y-43700D02*
X66200Y-43500D01*
X66600Y-44100D02*
X66200Y-43700D01*
X66450Y-46250D02*
X66450Y-45550D01*
X63000Y-38750D02*
X63250Y-39000D01*
X63250Y-39000D02*
X63250Y-39500D01*
X64500Y-38000D02*
X67650Y-38000D01*
X47850Y-42750D02*
X47700Y-42600D01*
X73600Y-43900D02*
X73500Y-43800D01*
X74350Y-43900D02*
X73600Y-43900D01*
X73500Y-43800D02*
X73500Y-43550D01*
X74400Y-43050D02*
X74000Y-43050D01*
X36350Y-40650D02*
X36200Y-40500D01*
X62125Y-41575D02*
X62125Y-42275D01*
X72700Y-44400D02*
X72300Y-44400D01*
X73300Y-43750D02*
X73300Y-43800D01*
X73500Y-43550D02*
X73300Y-43750D01*
X49550Y-42750D02*
X47850Y-42750D01*
X55300Y-42350D02*
X55050Y-42600D01*
X59125Y-38550D02*
X59125Y-37900D01*
X55050Y-42600D02*
X55050Y-43250D01*
X52250Y-34900D02*
X53400Y-33750D01*
X54450Y-34900D02*
X54450Y-35300D01*
X58625Y-40250D02*
X58475Y-40400D01*
X55500Y-42350D02*
X55300Y-42350D01*
X73300Y-43800D02*
X72700Y-44400D01*
X74000Y-43050D02*
X73500Y-43550D01*
X55950Y-36300D02*
X55950Y-35850D01*
X62125Y-42275D02*
X61825Y-42575D01*
X59100Y-38575D02*
X59125Y-38550D01*
X56550Y-42525D02*
X56550Y-40575D01*
X38450Y-40650D02*
X36350Y-40650D01*
X59150Y-40250D02*
X58625Y-40250D01*
X56600Y-34200D02*
X56150Y-34650D01*
X52250Y-35850D02*
X52250Y-34900D01*
X55950Y-35850D02*
X56150Y-35650D01*
X56150Y-34650D02*
X56150Y-35650D01*
X56400Y-33800D02*
X56600Y-34000D01*
X56600Y-34000D02*
X56600Y-34200D01*
X55200Y-34150D02*
X54450Y-34900D01*
M02*
