G04 (created by PCBNEW-RS274X (2012-01-19 BZR 3256)-stable) date 10/21/2012 10:59:19 AM*
G01*
G70*
G90*
%MOIN*%
G04 Gerber Fmt 3.4, Leading zero omitted, Abs format*
%FSLAX34Y34*%
G04 APERTURE LIST*
%ADD10C,0.006000*%
%ADD11R,0.070000X0.070000*%
%ADD12C,0.070000*%
%ADD13R,0.350000X0.350000*%
%ADD14R,0.060000X0.060000*%
%ADD15C,0.060000*%
%ADD16C,0.055000*%
%ADD17C,0.143700*%
%ADD18R,0.059100X0.059100*%
%ADD19C,0.059100*%
%ADD20C,0.035000*%
%ADD21C,0.007000*%
%ADD22C,0.010000*%
G04 APERTURE END LIST*
G54D10*
G54D11*
X36200Y-45700D03*
G54D12*
X36200Y-43700D03*
X36200Y-44700D03*
G54D13*
X42700Y-44700D03*
G54D14*
X68500Y-32500D03*
G54D15*
X67500Y-32500D03*
G54D14*
X46400Y-37900D03*
G54D15*
X45400Y-37900D03*
G54D14*
X59500Y-32700D03*
G54D15*
X58500Y-32700D03*
X57500Y-32700D03*
X56500Y-32700D03*
X55500Y-32700D03*
X54500Y-32700D03*
G54D13*
X42500Y-33500D03*
G54D12*
X36000Y-32500D03*
G54D11*
X36000Y-33500D03*
G54D12*
X36000Y-34500D03*
G54D13*
X42700Y-39500D03*
G54D12*
X36200Y-38500D03*
G54D11*
X36200Y-39500D03*
G54D12*
X36200Y-40500D03*
G54D16*
X47409Y-36000D03*
X48591Y-36000D03*
X47409Y-33000D03*
X48591Y-33000D03*
G54D15*
X64500Y-38787D03*
X64500Y-38000D03*
X64500Y-39575D03*
X64500Y-37213D03*
X64500Y-36425D03*
X64500Y-40362D03*
X64500Y-35638D03*
X64500Y-41150D03*
X67650Y-38787D03*
X67650Y-38000D03*
X67650Y-39575D03*
X67650Y-37213D03*
X67650Y-36425D03*
X67650Y-40362D03*
X67650Y-35638D03*
X67650Y-41150D03*
G54D17*
X83600Y-41412D03*
X83600Y-46085D03*
G54D18*
X81100Y-45500D03*
G54D19*
X80100Y-45000D03*
X81100Y-44500D03*
X80100Y-44000D03*
X81100Y-43500D03*
X80100Y-43000D03*
X81100Y-42500D03*
X80100Y-42000D03*
G54D20*
X47800Y-43400D03*
X53600Y-34500D03*
X61000Y-37100D03*
X52800Y-35100D03*
X56980Y-40640D03*
X71400Y-38000D03*
X60550Y-34350D03*
X57400Y-39700D03*
X58600Y-33700D03*
X55600Y-40100D03*
X55200Y-35700D03*
X55200Y-37500D03*
X55880Y-40660D03*
X60800Y-38750D03*
X60850Y-45400D03*
X51400Y-36650D03*
X48300Y-43900D03*
X57020Y-33840D03*
X76260Y-35600D03*
X58120Y-40660D03*
X68680Y-41160D03*
X53600Y-35100D03*
X66240Y-44400D03*
X76240Y-36160D03*
X50450Y-44000D03*
X59020Y-39020D03*
X64750Y-42350D03*
X64100Y-32200D03*
X76280Y-32580D03*
X52200Y-38040D03*
X59000Y-39520D03*
X61900Y-40200D03*
X53450Y-42200D03*
X63900Y-46450D03*
X76280Y-33180D03*
X74040Y-37460D03*
X52920Y-37320D03*
X54740Y-38660D03*
X62800Y-41300D03*
X59500Y-33500D03*
X52700Y-33200D03*
X56750Y-34700D03*
X57350Y-34200D03*
X56200Y-40000D03*
X66300Y-35300D03*
X57500Y-41800D03*
X69200Y-36400D03*
X54800Y-40500D03*
X70000Y-36500D03*
X62500Y-37750D03*
X69800Y-35300D03*
X54400Y-40300D03*
X63650Y-33800D03*
X57800Y-34000D03*
X61450Y-41600D03*
X59100Y-36250D03*
X65500Y-37500D03*
X65150Y-34400D03*
X65500Y-38700D03*
X59050Y-36950D03*
X58300Y-36950D03*
X60450Y-36750D03*
X56400Y-38900D03*
X65950Y-38300D03*
X55750Y-37500D03*
X65450Y-40650D03*
X66200Y-45300D03*
X66200Y-43500D03*
X60800Y-44900D03*
X63000Y-38750D03*
X63250Y-39500D03*
X66700Y-42200D03*
X61100Y-42100D03*
X60648Y-42120D03*
X66701Y-42642D03*
X74350Y-43900D03*
X68750Y-35850D03*
X47700Y-42600D03*
X61825Y-42575D03*
X62250Y-32900D03*
X56150Y-35650D03*
X51350Y-42000D03*
X65800Y-45500D03*
X58475Y-40400D03*
X72300Y-44400D03*
X55200Y-34150D03*
X47700Y-41900D03*
X69450Y-32850D03*
X69750Y-37300D03*
X59100Y-38575D03*
X68550Y-36250D03*
X56550Y-40575D03*
X55050Y-43250D03*
X71000Y-39900D03*
X53400Y-33750D03*
X69450Y-32200D03*
X56400Y-33800D03*
X66600Y-43300D03*
G54D21*
X53650Y-33200D02*
X52700Y-33200D01*
X53950Y-33500D02*
X53650Y-33200D01*
X55550Y-33500D02*
X53950Y-33500D01*
X56750Y-34700D02*
X55550Y-33500D01*
X58600Y-36100D02*
X59550Y-35150D01*
X56200Y-39500D02*
X58600Y-37100D01*
X65092Y-35042D02*
X65350Y-35300D01*
X62650Y-35150D02*
X62758Y-35042D01*
X62758Y-35042D02*
X65092Y-35042D01*
X58600Y-37100D02*
X58600Y-36100D01*
X59550Y-35150D02*
X62650Y-35150D01*
X56200Y-40000D02*
X56200Y-39500D01*
X65350Y-35300D02*
X66300Y-35300D01*
X60800Y-40900D02*
X62900Y-40900D01*
X68500Y-41800D02*
X69200Y-41100D01*
X63800Y-41800D02*
X65200Y-41800D01*
X59900Y-41800D02*
X60800Y-40900D01*
X62900Y-40900D02*
X63800Y-41800D01*
X65200Y-41800D02*
X68500Y-41800D01*
X69200Y-41100D02*
X69200Y-36400D01*
X57500Y-41800D02*
X59900Y-41800D01*
X55200Y-39100D02*
X59400Y-34900D01*
X55200Y-40100D02*
X55200Y-39100D01*
X68400Y-34900D02*
X70000Y-36500D01*
X59400Y-34900D02*
X68400Y-34900D01*
X54800Y-40500D02*
X55200Y-40100D01*
X58600Y-34700D02*
X68600Y-34700D01*
X68600Y-34700D02*
X69200Y-35300D01*
X69200Y-35300D02*
X69800Y-35300D01*
X57400Y-36700D02*
X58400Y-35700D01*
X54400Y-40300D02*
X55000Y-39700D01*
X58600Y-35500D02*
X58600Y-34700D01*
X55000Y-39700D02*
X55000Y-39100D01*
X58400Y-35700D02*
X58600Y-35500D01*
X55000Y-39100D02*
X57400Y-36700D01*
X60100Y-33800D02*
X63650Y-33800D01*
X59900Y-34000D02*
X60100Y-33800D01*
X57800Y-34000D02*
X59900Y-34000D01*
X61100Y-42500D02*
X61100Y-42100D01*
X61500Y-42900D02*
X61100Y-42500D01*
X66000Y-42900D02*
X61500Y-42900D01*
X66700Y-42200D02*
X66000Y-42900D01*
X60933Y-42405D02*
X60933Y-42573D01*
X61405Y-43045D02*
X66170Y-43045D01*
X66170Y-43045D02*
X66573Y-42642D01*
X66573Y-42642D02*
X66701Y-42642D01*
X60933Y-42573D02*
X61405Y-43045D01*
X60648Y-42120D02*
X60933Y-42405D01*
X51100Y-42250D02*
X51350Y-42000D01*
X50600Y-42250D02*
X51100Y-42250D01*
G54D10*
G36*
X64414Y-42615D02*
X61618Y-42615D01*
X61402Y-42398D01*
X61460Y-42341D01*
X61525Y-42185D01*
X61525Y-42025D01*
X61534Y-42025D01*
X61690Y-41961D01*
X61810Y-41841D01*
X61875Y-41685D01*
X61875Y-41516D01*
X61811Y-41360D01*
X61691Y-41240D01*
X61559Y-41185D01*
X62387Y-41185D01*
X62375Y-41215D01*
X62375Y-41384D01*
X62439Y-41540D01*
X62559Y-41660D01*
X62715Y-41725D01*
X62884Y-41725D01*
X63040Y-41661D01*
X63148Y-41552D01*
X63596Y-41999D01*
X63598Y-42002D01*
X63691Y-42063D01*
X63780Y-42081D01*
X63799Y-42085D01*
X63799Y-42084D01*
X63800Y-42085D01*
X64414Y-42085D01*
X64390Y-42109D01*
X64325Y-42265D01*
X64325Y-42434D01*
X64389Y-42590D01*
X64414Y-42615D01*
X64414Y-42615D01*
G37*
G54D22*
X64414Y-42615D02*
X61618Y-42615D01*
X61402Y-42398D01*
X61460Y-42341D01*
X61525Y-42185D01*
X61525Y-42025D01*
X61534Y-42025D01*
X61690Y-41961D01*
X61810Y-41841D01*
X61875Y-41685D01*
X61875Y-41516D01*
X61811Y-41360D01*
X61691Y-41240D01*
X61559Y-41185D01*
X62387Y-41185D01*
X62375Y-41215D01*
X62375Y-41384D01*
X62439Y-41540D01*
X62559Y-41660D01*
X62715Y-41725D01*
X62884Y-41725D01*
X63040Y-41661D01*
X63148Y-41552D01*
X63596Y-41999D01*
X63598Y-42002D01*
X63691Y-42063D01*
X63780Y-42081D01*
X63799Y-42085D01*
X63799Y-42084D01*
X63800Y-42085D01*
X64414Y-42085D01*
X64390Y-42109D01*
X64325Y-42265D01*
X64325Y-42434D01*
X64389Y-42590D01*
X64414Y-42615D01*
G54D10*
G36*
X69084Y-35987D02*
X68960Y-36039D01*
X68840Y-36159D01*
X68775Y-36315D01*
X68775Y-36484D01*
X68839Y-36640D01*
X68915Y-36716D01*
X68915Y-40797D01*
X68765Y-40735D01*
X68596Y-40735D01*
X68440Y-40799D01*
X68320Y-40919D01*
X68255Y-41075D01*
X68255Y-41244D01*
X68319Y-41400D01*
X68407Y-41488D01*
X68381Y-41515D01*
X68061Y-41515D01*
X68115Y-41461D01*
X68199Y-41259D01*
X68199Y-41041D01*
X68115Y-40839D01*
X68032Y-40756D01*
X68115Y-40673D01*
X68199Y-40471D01*
X68199Y-40253D01*
X68115Y-40051D01*
X68032Y-39968D01*
X68115Y-39886D01*
X68199Y-39684D01*
X68199Y-39466D01*
X68115Y-39264D01*
X68032Y-39181D01*
X68115Y-39098D01*
X68199Y-38896D01*
X68199Y-38678D01*
X68115Y-38476D01*
X68032Y-38393D01*
X68115Y-38311D01*
X68199Y-38109D01*
X68199Y-37891D01*
X68115Y-37689D01*
X68032Y-37606D01*
X68115Y-37524D01*
X68199Y-37322D01*
X68199Y-37104D01*
X68115Y-36902D01*
X68032Y-36819D01*
X68115Y-36736D01*
X68199Y-36534D01*
X68199Y-36316D01*
X68193Y-36301D01*
X68193Y-35717D01*
X68182Y-35504D01*
X68122Y-35357D01*
X68028Y-35330D01*
X67721Y-35638D01*
X68028Y-35946D01*
X68122Y-35919D01*
X68193Y-35717D01*
X68193Y-36301D01*
X68115Y-36114D01*
X67961Y-35960D01*
X67859Y-35917D01*
X67650Y-35709D01*
X67579Y-35779D01*
X67579Y-35638D01*
X67272Y-35330D01*
X67178Y-35357D01*
X67107Y-35559D01*
X67118Y-35772D01*
X67178Y-35919D01*
X67272Y-35946D01*
X67579Y-35638D01*
X67579Y-35779D01*
X67440Y-35917D01*
X67339Y-35960D01*
X67185Y-36114D01*
X67101Y-36316D01*
X67101Y-36534D01*
X67185Y-36736D01*
X67268Y-36819D01*
X67185Y-36902D01*
X67101Y-37104D01*
X67101Y-37322D01*
X67185Y-37524D01*
X67267Y-37606D01*
X67185Y-37689D01*
X67101Y-37891D01*
X67101Y-38109D01*
X67185Y-38311D01*
X67267Y-38393D01*
X67185Y-38476D01*
X67101Y-38678D01*
X67101Y-38896D01*
X67185Y-39098D01*
X67268Y-39181D01*
X67185Y-39264D01*
X67101Y-39466D01*
X67101Y-39684D01*
X67185Y-39886D01*
X67267Y-39968D01*
X67185Y-40051D01*
X67101Y-40253D01*
X67101Y-40471D01*
X67185Y-40673D01*
X67268Y-40756D01*
X67185Y-40839D01*
X67101Y-41041D01*
X67101Y-41259D01*
X67185Y-41461D01*
X67239Y-41515D01*
X66375Y-41515D01*
X66375Y-38385D01*
X66375Y-38216D01*
X66311Y-38060D01*
X66191Y-37940D01*
X66035Y-37875D01*
X65925Y-37875D01*
X65925Y-37585D01*
X65925Y-37416D01*
X65861Y-37260D01*
X65741Y-37140D01*
X65585Y-37075D01*
X65416Y-37075D01*
X65260Y-37139D01*
X65140Y-37259D01*
X65075Y-37415D01*
X65075Y-37584D01*
X65139Y-37740D01*
X65259Y-37860D01*
X65415Y-37925D01*
X65584Y-37925D01*
X65740Y-37861D01*
X65860Y-37741D01*
X65925Y-37585D01*
X65925Y-37875D01*
X65866Y-37875D01*
X65710Y-37939D01*
X65590Y-38059D01*
X65525Y-38215D01*
X65525Y-38275D01*
X65416Y-38275D01*
X65260Y-38339D01*
X65140Y-38459D01*
X65075Y-38615D01*
X65075Y-38784D01*
X65139Y-38940D01*
X65259Y-39060D01*
X65415Y-39125D01*
X65584Y-39125D01*
X65740Y-39061D01*
X65860Y-38941D01*
X65925Y-38785D01*
X65925Y-38725D01*
X66034Y-38725D01*
X66190Y-38661D01*
X66310Y-38541D01*
X66375Y-38385D01*
X66375Y-41515D01*
X65875Y-41515D01*
X65875Y-40735D01*
X65875Y-40566D01*
X65811Y-40410D01*
X65691Y-40290D01*
X65535Y-40225D01*
X65366Y-40225D01*
X65210Y-40289D01*
X65090Y-40409D01*
X65025Y-40565D01*
X65025Y-40734D01*
X65089Y-40890D01*
X65209Y-41010D01*
X65365Y-41075D01*
X65534Y-41075D01*
X65690Y-41011D01*
X65810Y-40891D01*
X65875Y-40735D01*
X65875Y-41515D01*
X65200Y-41515D01*
X64911Y-41515D01*
X64965Y-41461D01*
X65049Y-41259D01*
X65049Y-41041D01*
X64965Y-40839D01*
X64882Y-40756D01*
X64965Y-40673D01*
X65049Y-40471D01*
X65049Y-40253D01*
X64965Y-40051D01*
X64882Y-39968D01*
X64965Y-39886D01*
X65049Y-39684D01*
X65049Y-39466D01*
X64965Y-39264D01*
X64882Y-39181D01*
X64965Y-39098D01*
X65049Y-38896D01*
X65049Y-38678D01*
X64965Y-38476D01*
X64882Y-38393D01*
X64965Y-38311D01*
X65049Y-38109D01*
X65049Y-37891D01*
X64965Y-37689D01*
X64882Y-37606D01*
X64965Y-37524D01*
X65049Y-37322D01*
X65049Y-37104D01*
X64965Y-36902D01*
X64882Y-36819D01*
X64965Y-36736D01*
X65049Y-36534D01*
X65049Y-36316D01*
X64965Y-36114D01*
X64882Y-36031D01*
X64965Y-35949D01*
X65049Y-35747D01*
X65049Y-35529D01*
X64965Y-35327D01*
X64973Y-35327D01*
X65146Y-35499D01*
X65148Y-35502D01*
X65240Y-35562D01*
X65241Y-35563D01*
X65327Y-35580D01*
X65349Y-35585D01*
X65349Y-35584D01*
X65350Y-35585D01*
X65984Y-35585D01*
X66059Y-35660D01*
X66215Y-35725D01*
X66384Y-35725D01*
X66540Y-35661D01*
X66660Y-35541D01*
X66725Y-35385D01*
X66725Y-35216D01*
X66712Y-35185D01*
X67363Y-35185D01*
X67342Y-35260D01*
X67650Y-35567D01*
X67958Y-35260D01*
X67936Y-35185D01*
X68281Y-35185D01*
X69084Y-35987D01*
X69084Y-35987D01*
G37*
G54D22*
X69084Y-35987D02*
X68960Y-36039D01*
X68840Y-36159D01*
X68775Y-36315D01*
X68775Y-36484D01*
X68839Y-36640D01*
X68915Y-36716D01*
X68915Y-40797D01*
X68765Y-40735D01*
X68596Y-40735D01*
X68440Y-40799D01*
X68320Y-40919D01*
X68255Y-41075D01*
X68255Y-41244D01*
X68319Y-41400D01*
X68407Y-41488D01*
X68381Y-41515D01*
X68061Y-41515D01*
X68115Y-41461D01*
X68199Y-41259D01*
X68199Y-41041D01*
X68115Y-40839D01*
X68032Y-40756D01*
X68115Y-40673D01*
X68199Y-40471D01*
X68199Y-40253D01*
X68115Y-40051D01*
X68032Y-39968D01*
X68115Y-39886D01*
X68199Y-39684D01*
X68199Y-39466D01*
X68115Y-39264D01*
X68032Y-39181D01*
X68115Y-39098D01*
X68199Y-38896D01*
X68199Y-38678D01*
X68115Y-38476D01*
X68032Y-38393D01*
X68115Y-38311D01*
X68199Y-38109D01*
X68199Y-37891D01*
X68115Y-37689D01*
X68032Y-37606D01*
X68115Y-37524D01*
X68199Y-37322D01*
X68199Y-37104D01*
X68115Y-36902D01*
X68032Y-36819D01*
X68115Y-36736D01*
X68199Y-36534D01*
X68199Y-36316D01*
X68193Y-36301D01*
X68193Y-35717D01*
X68182Y-35504D01*
X68122Y-35357D01*
X68028Y-35330D01*
X67721Y-35638D01*
X68028Y-35946D01*
X68122Y-35919D01*
X68193Y-35717D01*
X68193Y-36301D01*
X68115Y-36114D01*
X67961Y-35960D01*
X67859Y-35917D01*
X67650Y-35709D01*
X67579Y-35779D01*
X67579Y-35638D01*
X67272Y-35330D01*
X67178Y-35357D01*
X67107Y-35559D01*
X67118Y-35772D01*
X67178Y-35919D01*
X67272Y-35946D01*
X67579Y-35638D01*
X67579Y-35779D01*
X67440Y-35917D01*
X67339Y-35960D01*
X67185Y-36114D01*
X67101Y-36316D01*
X67101Y-36534D01*
X67185Y-36736D01*
X67268Y-36819D01*
X67185Y-36902D01*
X67101Y-37104D01*
X67101Y-37322D01*
X67185Y-37524D01*
X67267Y-37606D01*
X67185Y-37689D01*
X67101Y-37891D01*
X67101Y-38109D01*
X67185Y-38311D01*
X67267Y-38393D01*
X67185Y-38476D01*
X67101Y-38678D01*
X67101Y-38896D01*
X67185Y-39098D01*
X67268Y-39181D01*
X67185Y-39264D01*
X67101Y-39466D01*
X67101Y-39684D01*
X67185Y-39886D01*
X67267Y-39968D01*
X67185Y-40051D01*
X67101Y-40253D01*
X67101Y-40471D01*
X67185Y-40673D01*
X67268Y-40756D01*
X67185Y-40839D01*
X67101Y-41041D01*
X67101Y-41259D01*
X67185Y-41461D01*
X67239Y-41515D01*
X66375Y-41515D01*
X66375Y-38385D01*
X66375Y-38216D01*
X66311Y-38060D01*
X66191Y-37940D01*
X66035Y-37875D01*
X65925Y-37875D01*
X65925Y-37585D01*
X65925Y-37416D01*
X65861Y-37260D01*
X65741Y-37140D01*
X65585Y-37075D01*
X65416Y-37075D01*
X65260Y-37139D01*
X65140Y-37259D01*
X65075Y-37415D01*
X65075Y-37584D01*
X65139Y-37740D01*
X65259Y-37860D01*
X65415Y-37925D01*
X65584Y-37925D01*
X65740Y-37861D01*
X65860Y-37741D01*
X65925Y-37585D01*
X65925Y-37875D01*
X65866Y-37875D01*
X65710Y-37939D01*
X65590Y-38059D01*
X65525Y-38215D01*
X65525Y-38275D01*
X65416Y-38275D01*
X65260Y-38339D01*
X65140Y-38459D01*
X65075Y-38615D01*
X65075Y-38784D01*
X65139Y-38940D01*
X65259Y-39060D01*
X65415Y-39125D01*
X65584Y-39125D01*
X65740Y-39061D01*
X65860Y-38941D01*
X65925Y-38785D01*
X65925Y-38725D01*
X66034Y-38725D01*
X66190Y-38661D01*
X66310Y-38541D01*
X66375Y-38385D01*
X66375Y-41515D01*
X65875Y-41515D01*
X65875Y-40735D01*
X65875Y-40566D01*
X65811Y-40410D01*
X65691Y-40290D01*
X65535Y-40225D01*
X65366Y-40225D01*
X65210Y-40289D01*
X65090Y-40409D01*
X65025Y-40565D01*
X65025Y-40734D01*
X65089Y-40890D01*
X65209Y-41010D01*
X65365Y-41075D01*
X65534Y-41075D01*
X65690Y-41011D01*
X65810Y-40891D01*
X65875Y-40735D01*
X65875Y-41515D01*
X65200Y-41515D01*
X64911Y-41515D01*
X64965Y-41461D01*
X65049Y-41259D01*
X65049Y-41041D01*
X64965Y-40839D01*
X64882Y-40756D01*
X64965Y-40673D01*
X65049Y-40471D01*
X65049Y-40253D01*
X64965Y-40051D01*
X64882Y-39968D01*
X64965Y-39886D01*
X65049Y-39684D01*
X65049Y-39466D01*
X64965Y-39264D01*
X64882Y-39181D01*
X64965Y-39098D01*
X65049Y-38896D01*
X65049Y-38678D01*
X64965Y-38476D01*
X64882Y-38393D01*
X64965Y-38311D01*
X65049Y-38109D01*
X65049Y-37891D01*
X64965Y-37689D01*
X64882Y-37606D01*
X64965Y-37524D01*
X65049Y-37322D01*
X65049Y-37104D01*
X64965Y-36902D01*
X64882Y-36819D01*
X64965Y-36736D01*
X65049Y-36534D01*
X65049Y-36316D01*
X64965Y-36114D01*
X64882Y-36031D01*
X64965Y-35949D01*
X65049Y-35747D01*
X65049Y-35529D01*
X64965Y-35327D01*
X64973Y-35327D01*
X65146Y-35499D01*
X65148Y-35502D01*
X65240Y-35562D01*
X65241Y-35563D01*
X65327Y-35580D01*
X65349Y-35585D01*
X65349Y-35584D01*
X65350Y-35585D01*
X65984Y-35585D01*
X66059Y-35660D01*
X66215Y-35725D01*
X66384Y-35725D01*
X66540Y-35661D01*
X66660Y-35541D01*
X66725Y-35385D01*
X66725Y-35216D01*
X66712Y-35185D01*
X67363Y-35185D01*
X67342Y-35260D01*
X67650Y-35567D01*
X67958Y-35260D01*
X67936Y-35185D01*
X68281Y-35185D01*
X69084Y-35987D01*
G54D10*
G36*
X77398Y-46350D02*
X76705Y-46347D01*
X76705Y-33265D01*
X76705Y-33096D01*
X76641Y-32940D01*
X76581Y-32880D01*
X76640Y-32821D01*
X76705Y-32665D01*
X76705Y-32496D01*
X76641Y-32340D01*
X76521Y-32220D01*
X76365Y-32155D01*
X76196Y-32155D01*
X76040Y-32219D01*
X75920Y-32339D01*
X75855Y-32495D01*
X75855Y-32664D01*
X75919Y-32820D01*
X75979Y-32880D01*
X75920Y-32939D01*
X75855Y-33095D01*
X75855Y-33264D01*
X75919Y-33420D01*
X76039Y-33540D01*
X76195Y-33605D01*
X76364Y-33605D01*
X76520Y-33541D01*
X76640Y-33421D01*
X76705Y-33265D01*
X76705Y-46347D01*
X76685Y-46347D01*
X76685Y-35685D01*
X76685Y-35516D01*
X76621Y-35360D01*
X76501Y-35240D01*
X76345Y-35175D01*
X76176Y-35175D01*
X76020Y-35239D01*
X75900Y-35359D01*
X75835Y-35515D01*
X75835Y-35684D01*
X75899Y-35840D01*
X75929Y-35870D01*
X75880Y-35919D01*
X75815Y-36075D01*
X75815Y-36244D01*
X75879Y-36400D01*
X75999Y-36520D01*
X76155Y-36585D01*
X76324Y-36585D01*
X76480Y-36521D01*
X76600Y-36401D01*
X76665Y-36245D01*
X76665Y-36076D01*
X76601Y-35920D01*
X76571Y-35890D01*
X76620Y-35841D01*
X76685Y-35685D01*
X76685Y-46347D01*
X76291Y-46346D01*
X76291Y-40236D01*
X76291Y-40066D01*
X76226Y-39909D01*
X76107Y-39789D01*
X75950Y-39723D01*
X75780Y-39723D01*
X75623Y-39788D01*
X75503Y-39907D01*
X75437Y-40064D01*
X75437Y-40234D01*
X75502Y-40391D01*
X75621Y-40511D01*
X75778Y-40577D01*
X75948Y-40577D01*
X76105Y-40512D01*
X76225Y-40393D01*
X76291Y-40236D01*
X76291Y-46346D01*
X74465Y-46340D01*
X74465Y-37545D01*
X74465Y-37376D01*
X74401Y-37220D01*
X74281Y-37100D01*
X74125Y-37035D01*
X73956Y-37035D01*
X73800Y-37099D01*
X73680Y-37219D01*
X73615Y-37375D01*
X73615Y-37544D01*
X73679Y-37700D01*
X73799Y-37820D01*
X73955Y-37885D01*
X74124Y-37885D01*
X74280Y-37821D01*
X74400Y-37701D01*
X74465Y-37545D01*
X74465Y-46340D01*
X74086Y-46338D01*
X74086Y-40247D01*
X74086Y-40054D01*
X74012Y-39875D01*
X73876Y-39738D01*
X73697Y-39664D01*
X73504Y-39664D01*
X73325Y-39738D01*
X73188Y-39874D01*
X73114Y-40053D01*
X73114Y-40246D01*
X73188Y-40425D01*
X73324Y-40562D01*
X73503Y-40636D01*
X73696Y-40636D01*
X73875Y-40562D01*
X74012Y-40426D01*
X74086Y-40247D01*
X74086Y-46338D01*
X71825Y-46331D01*
X71825Y-38085D01*
X71825Y-37916D01*
X71761Y-37760D01*
X71641Y-37640D01*
X71485Y-37575D01*
X71316Y-37575D01*
X71160Y-37639D01*
X71040Y-37759D01*
X70975Y-37915D01*
X70975Y-38084D01*
X71039Y-38240D01*
X71159Y-38360D01*
X71315Y-38425D01*
X71484Y-38425D01*
X71640Y-38361D01*
X71760Y-38241D01*
X71825Y-38085D01*
X71825Y-46331D01*
X66665Y-46313D01*
X66665Y-44485D01*
X66665Y-44316D01*
X66601Y-44160D01*
X66481Y-44040D01*
X66325Y-43975D01*
X66156Y-43975D01*
X66000Y-44039D01*
X65880Y-44159D01*
X65815Y-44315D01*
X65815Y-44484D01*
X65879Y-44640D01*
X65999Y-44760D01*
X66155Y-44825D01*
X66324Y-44825D01*
X66480Y-44761D01*
X66600Y-44641D01*
X66665Y-44485D01*
X66665Y-46313D01*
X66625Y-46313D01*
X66625Y-45385D01*
X66625Y-45216D01*
X66561Y-45060D01*
X66441Y-44940D01*
X66285Y-44875D01*
X66116Y-44875D01*
X65960Y-44939D01*
X65840Y-45059D01*
X65775Y-45215D01*
X65775Y-45384D01*
X65839Y-45540D01*
X65959Y-45660D01*
X66115Y-45725D01*
X66284Y-45725D01*
X66440Y-45661D01*
X66560Y-45541D01*
X66625Y-45385D01*
X66625Y-46313D01*
X64300Y-46306D01*
X64261Y-46210D01*
X64141Y-46090D01*
X63985Y-46025D01*
X63816Y-46025D01*
X63660Y-46089D01*
X63540Y-46209D01*
X63500Y-46303D01*
X61275Y-46295D01*
X61275Y-45485D01*
X61275Y-45316D01*
X61211Y-45160D01*
X61169Y-45118D01*
X61225Y-44985D01*
X61225Y-44816D01*
X61161Y-44660D01*
X61041Y-44540D01*
X60885Y-44475D01*
X60716Y-44475D01*
X60560Y-44539D01*
X60440Y-44659D01*
X60375Y-44815D01*
X60375Y-44984D01*
X60439Y-45140D01*
X60480Y-45181D01*
X60425Y-45315D01*
X60425Y-45484D01*
X60489Y-45640D01*
X60609Y-45760D01*
X60765Y-45825D01*
X60934Y-45825D01*
X61090Y-45761D01*
X61210Y-45641D01*
X61275Y-45485D01*
X61275Y-46295D01*
X53875Y-46271D01*
X53875Y-42285D01*
X53875Y-42116D01*
X53811Y-41960D01*
X53691Y-41840D01*
X53535Y-41775D01*
X53366Y-41775D01*
X53345Y-41783D01*
X53345Y-37405D01*
X53345Y-37236D01*
X53281Y-37080D01*
X53161Y-36960D01*
X53005Y-36895D01*
X52836Y-36895D01*
X52680Y-36959D01*
X52560Y-37079D01*
X52495Y-37235D01*
X52495Y-37404D01*
X52559Y-37560D01*
X52679Y-37680D01*
X52835Y-37745D01*
X53004Y-37745D01*
X53160Y-37681D01*
X53280Y-37561D01*
X53345Y-37405D01*
X53345Y-41783D01*
X53210Y-41839D01*
X53090Y-41959D01*
X53025Y-42115D01*
X53025Y-42284D01*
X53089Y-42440D01*
X53209Y-42560D01*
X53365Y-42625D01*
X53534Y-42625D01*
X53690Y-42561D01*
X53810Y-42441D01*
X53875Y-42285D01*
X53875Y-46271D01*
X52625Y-46267D01*
X52625Y-38125D01*
X52625Y-37956D01*
X52561Y-37800D01*
X52441Y-37680D01*
X52285Y-37615D01*
X52116Y-37615D01*
X51960Y-37679D01*
X51840Y-37799D01*
X51825Y-37835D01*
X51825Y-36735D01*
X51825Y-36566D01*
X51761Y-36410D01*
X51641Y-36290D01*
X51485Y-36225D01*
X51316Y-36225D01*
X51160Y-36289D01*
X51040Y-36409D01*
X50975Y-36565D01*
X50975Y-36734D01*
X51039Y-36890D01*
X51159Y-37010D01*
X51315Y-37075D01*
X51484Y-37075D01*
X51640Y-37011D01*
X51760Y-36891D01*
X51825Y-36735D01*
X51825Y-37835D01*
X51775Y-37955D01*
X51775Y-38124D01*
X51839Y-38280D01*
X51959Y-38400D01*
X52115Y-38465D01*
X52284Y-38465D01*
X52440Y-38401D01*
X52560Y-38281D01*
X52625Y-38125D01*
X52625Y-46267D01*
X50875Y-46261D01*
X50875Y-44085D01*
X50875Y-43916D01*
X50811Y-43760D01*
X50691Y-43640D01*
X50535Y-43575D01*
X50366Y-43575D01*
X50210Y-43639D01*
X50090Y-43759D01*
X50025Y-43915D01*
X50025Y-44084D01*
X50089Y-44240D01*
X50209Y-44360D01*
X50365Y-44425D01*
X50534Y-44425D01*
X50690Y-44361D01*
X50810Y-44241D01*
X50875Y-44085D01*
X50875Y-46261D01*
X48725Y-46254D01*
X48725Y-43985D01*
X48725Y-43816D01*
X48661Y-43660D01*
X48541Y-43540D01*
X48385Y-43475D01*
X48225Y-43475D01*
X48225Y-43316D01*
X48161Y-43160D01*
X48041Y-43040D01*
X47885Y-42975D01*
X47716Y-42975D01*
X47560Y-43039D01*
X47440Y-43159D01*
X47375Y-43315D01*
X47375Y-43484D01*
X47439Y-43640D01*
X47559Y-43760D01*
X47715Y-43825D01*
X47875Y-43825D01*
X47875Y-43984D01*
X47939Y-44140D01*
X48059Y-44260D01*
X48215Y-44325D01*
X48384Y-44325D01*
X48540Y-44261D01*
X48660Y-44141D01*
X48725Y-43985D01*
X48725Y-46254D01*
X47398Y-46250D01*
X47251Y-41475D01*
X50399Y-39227D01*
X50549Y-36119D01*
X52651Y-33625D01*
X52784Y-33625D01*
X52940Y-33561D01*
X53016Y-33485D01*
X53531Y-33485D01*
X53746Y-33699D01*
X53748Y-33702D01*
X53841Y-33763D01*
X53950Y-33785D01*
X55431Y-33785D01*
X56325Y-34678D01*
X56325Y-34784D01*
X56389Y-34940D01*
X56509Y-35060D01*
X56665Y-35125D01*
X56834Y-35125D01*
X56990Y-35061D01*
X57110Y-34941D01*
X57175Y-34785D01*
X57175Y-34616D01*
X57160Y-34581D01*
X57265Y-34625D01*
X57434Y-34625D01*
X57590Y-34561D01*
X57710Y-34441D01*
X57716Y-34425D01*
X57884Y-34425D01*
X58040Y-34361D01*
X58116Y-34285D01*
X59895Y-34285D01*
X59900Y-34286D01*
X59900Y-34285D01*
X60009Y-34263D01*
X60102Y-34202D01*
X60186Y-34116D01*
X60125Y-34265D01*
X60125Y-34415D01*
X58600Y-34415D01*
X58491Y-34437D01*
X58398Y-34498D01*
X58337Y-34591D01*
X58315Y-34700D01*
X58315Y-35381D01*
X58198Y-35498D01*
X58196Y-35500D01*
X57198Y-36498D01*
X57196Y-36500D01*
X56175Y-37521D01*
X56175Y-37416D01*
X56111Y-37260D01*
X55991Y-37140D01*
X55835Y-37075D01*
X55666Y-37075D01*
X55625Y-37091D01*
X55625Y-35785D01*
X55625Y-35616D01*
X55561Y-35460D01*
X55441Y-35340D01*
X55285Y-35275D01*
X55116Y-35275D01*
X54960Y-35339D01*
X54840Y-35459D01*
X54775Y-35615D01*
X54775Y-35784D01*
X54839Y-35940D01*
X54959Y-36060D01*
X55115Y-36125D01*
X55284Y-36125D01*
X55440Y-36061D01*
X55560Y-35941D01*
X55625Y-35785D01*
X55625Y-37091D01*
X55510Y-37139D01*
X55475Y-37174D01*
X55441Y-37140D01*
X55285Y-37075D01*
X55116Y-37075D01*
X54960Y-37139D01*
X54840Y-37259D01*
X54775Y-37415D01*
X54775Y-37584D01*
X54839Y-37740D01*
X54959Y-37860D01*
X55115Y-37925D01*
X55284Y-37925D01*
X55440Y-37861D01*
X55475Y-37826D01*
X55509Y-37860D01*
X55665Y-37925D01*
X55771Y-37925D01*
X55151Y-38544D01*
X55101Y-38420D01*
X54981Y-38300D01*
X54825Y-38235D01*
X54656Y-38235D01*
X54500Y-38299D01*
X54380Y-38419D01*
X54315Y-38575D01*
X54315Y-38744D01*
X54379Y-38900D01*
X54499Y-39020D01*
X54655Y-39085D01*
X54717Y-39085D01*
X54714Y-39100D01*
X54715Y-39104D01*
X54715Y-39581D01*
X54421Y-39875D01*
X54316Y-39875D01*
X54160Y-39939D01*
X54040Y-40059D01*
X54025Y-40095D01*
X54025Y-35185D01*
X54025Y-35016D01*
X53961Y-34860D01*
X53901Y-34800D01*
X53960Y-34741D01*
X54025Y-34585D01*
X54025Y-34416D01*
X53961Y-34260D01*
X53841Y-34140D01*
X53685Y-34075D01*
X53516Y-34075D01*
X53360Y-34139D01*
X53240Y-34259D01*
X53175Y-34415D01*
X53175Y-34584D01*
X53239Y-34740D01*
X53299Y-34800D01*
X53240Y-34859D01*
X53199Y-34955D01*
X53161Y-34860D01*
X53041Y-34740D01*
X52885Y-34675D01*
X52716Y-34675D01*
X52560Y-34739D01*
X52440Y-34859D01*
X52375Y-35015D01*
X52375Y-35184D01*
X52439Y-35340D01*
X52559Y-35460D01*
X52715Y-35525D01*
X52884Y-35525D01*
X53040Y-35461D01*
X53160Y-35341D01*
X53200Y-35244D01*
X53239Y-35340D01*
X53359Y-35460D01*
X53515Y-35525D01*
X53684Y-35525D01*
X53840Y-35461D01*
X53960Y-35341D01*
X54025Y-35185D01*
X54025Y-40095D01*
X53975Y-40215D01*
X53975Y-40384D01*
X54039Y-40540D01*
X54159Y-40660D01*
X54315Y-40725D01*
X54432Y-40725D01*
X54439Y-40740D01*
X54559Y-40860D01*
X54715Y-40925D01*
X54884Y-40925D01*
X55040Y-40861D01*
X55160Y-40741D01*
X55225Y-40585D01*
X55225Y-40478D01*
X55301Y-40402D01*
X55359Y-40460D01*
X55481Y-40511D01*
X55455Y-40575D01*
X55455Y-40744D01*
X55519Y-40900D01*
X55639Y-41020D01*
X55795Y-41085D01*
X55964Y-41085D01*
X56120Y-41021D01*
X56240Y-40901D01*
X56305Y-40745D01*
X56305Y-40576D01*
X56243Y-40425D01*
X56284Y-40425D01*
X56440Y-40361D01*
X56560Y-40241D01*
X56625Y-40085D01*
X56625Y-39916D01*
X56561Y-39760D01*
X56485Y-39684D01*
X56485Y-39618D01*
X58799Y-37303D01*
X58801Y-37302D01*
X58809Y-37310D01*
X58965Y-37375D01*
X59134Y-37375D01*
X59290Y-37311D01*
X59410Y-37191D01*
X59475Y-37035D01*
X59475Y-36866D01*
X59411Y-36710D01*
X59320Y-36619D01*
X59340Y-36611D01*
X59460Y-36491D01*
X59525Y-36335D01*
X59525Y-36166D01*
X59461Y-36010D01*
X59341Y-35890D01*
X59251Y-35852D01*
X59668Y-35435D01*
X62645Y-35435D01*
X62650Y-35436D01*
X62650Y-35435D01*
X62759Y-35413D01*
X62852Y-35352D01*
X62876Y-35327D01*
X64035Y-35327D01*
X63951Y-35529D01*
X63951Y-35747D01*
X64035Y-35949D01*
X64117Y-36031D01*
X64035Y-36114D01*
X63951Y-36316D01*
X63951Y-36534D01*
X64035Y-36736D01*
X64118Y-36819D01*
X64035Y-36902D01*
X63951Y-37104D01*
X63951Y-37322D01*
X64035Y-37524D01*
X64117Y-37606D01*
X64035Y-37689D01*
X63951Y-37891D01*
X63951Y-38109D01*
X64035Y-38311D01*
X64117Y-38393D01*
X64035Y-38476D01*
X63951Y-38678D01*
X63951Y-38896D01*
X64035Y-39098D01*
X64118Y-39181D01*
X64035Y-39264D01*
X63951Y-39466D01*
X63951Y-39684D01*
X64035Y-39886D01*
X64117Y-39968D01*
X64035Y-40051D01*
X63951Y-40253D01*
X63951Y-40471D01*
X64035Y-40673D01*
X64118Y-40756D01*
X64035Y-40839D01*
X63951Y-41041D01*
X63951Y-41259D01*
X64035Y-41461D01*
X64089Y-41515D01*
X63918Y-41515D01*
X63675Y-41271D01*
X63675Y-39585D01*
X63675Y-39416D01*
X63611Y-39260D01*
X63491Y-39140D01*
X63335Y-39075D01*
X63276Y-39075D01*
X63360Y-38991D01*
X63425Y-38835D01*
X63425Y-38666D01*
X63361Y-38510D01*
X63241Y-38390D01*
X63085Y-38325D01*
X62925Y-38325D01*
X62925Y-37835D01*
X62925Y-37666D01*
X62861Y-37510D01*
X62741Y-37390D01*
X62585Y-37325D01*
X62416Y-37325D01*
X62260Y-37389D01*
X62140Y-37509D01*
X62075Y-37665D01*
X62075Y-37834D01*
X62139Y-37990D01*
X62259Y-38110D01*
X62415Y-38175D01*
X62584Y-38175D01*
X62740Y-38111D01*
X62860Y-37991D01*
X62925Y-37835D01*
X62925Y-38325D01*
X62916Y-38325D01*
X62760Y-38389D01*
X62640Y-38509D01*
X62575Y-38665D01*
X62575Y-38834D01*
X62639Y-38990D01*
X62759Y-39110D01*
X62915Y-39175D01*
X62974Y-39175D01*
X62890Y-39259D01*
X62825Y-39415D01*
X62825Y-39584D01*
X62889Y-39740D01*
X63009Y-39860D01*
X63165Y-39925D01*
X63334Y-39925D01*
X63490Y-39861D01*
X63610Y-39741D01*
X63675Y-39585D01*
X63675Y-41271D01*
X63102Y-40698D01*
X63009Y-40637D01*
X62900Y-40614D01*
X62895Y-40615D01*
X62008Y-40615D01*
X62140Y-40561D01*
X62260Y-40441D01*
X62325Y-40285D01*
X62325Y-40116D01*
X62261Y-39960D01*
X62141Y-39840D01*
X61985Y-39775D01*
X61816Y-39775D01*
X61660Y-39839D01*
X61540Y-39959D01*
X61475Y-40115D01*
X61475Y-40284D01*
X61539Y-40440D01*
X61659Y-40560D01*
X61791Y-40615D01*
X61425Y-40615D01*
X61425Y-37185D01*
X61425Y-37016D01*
X61361Y-36860D01*
X61241Y-36740D01*
X61085Y-36675D01*
X60916Y-36675D01*
X60875Y-36691D01*
X60875Y-36666D01*
X60811Y-36510D01*
X60691Y-36390D01*
X60535Y-36325D01*
X60366Y-36325D01*
X60210Y-36389D01*
X60090Y-36509D01*
X60025Y-36665D01*
X60025Y-36834D01*
X60089Y-36990D01*
X60209Y-37110D01*
X60365Y-37175D01*
X60534Y-37175D01*
X60575Y-37158D01*
X60575Y-37184D01*
X60639Y-37340D01*
X60759Y-37460D01*
X60915Y-37525D01*
X61084Y-37525D01*
X61240Y-37461D01*
X61360Y-37341D01*
X61425Y-37185D01*
X61425Y-40615D01*
X61225Y-40615D01*
X61225Y-38835D01*
X61225Y-38666D01*
X61161Y-38510D01*
X61041Y-38390D01*
X60885Y-38325D01*
X60716Y-38325D01*
X60560Y-38389D01*
X60440Y-38509D01*
X60375Y-38665D01*
X60375Y-38834D01*
X60439Y-38990D01*
X60559Y-39110D01*
X60715Y-39175D01*
X60884Y-39175D01*
X61040Y-39111D01*
X61160Y-38991D01*
X61225Y-38835D01*
X61225Y-40615D01*
X60800Y-40615D01*
X60799Y-40615D01*
X60780Y-40618D01*
X60691Y-40637D01*
X60598Y-40698D01*
X60596Y-40700D01*
X59781Y-41515D01*
X59445Y-41515D01*
X59445Y-39105D01*
X59445Y-38936D01*
X59381Y-38780D01*
X59261Y-38660D01*
X59105Y-38595D01*
X58936Y-38595D01*
X58780Y-38659D01*
X58660Y-38779D01*
X58595Y-38935D01*
X58595Y-39104D01*
X58659Y-39260D01*
X58640Y-39279D01*
X58575Y-39435D01*
X58575Y-39604D01*
X58639Y-39760D01*
X58759Y-39880D01*
X58915Y-39945D01*
X59084Y-39945D01*
X59240Y-39881D01*
X59360Y-39761D01*
X59425Y-39605D01*
X59425Y-39436D01*
X59361Y-39280D01*
X59380Y-39261D01*
X59445Y-39105D01*
X59445Y-41515D01*
X58545Y-41515D01*
X58545Y-40745D01*
X58545Y-40576D01*
X58481Y-40420D01*
X58361Y-40300D01*
X58205Y-40235D01*
X58036Y-40235D01*
X57880Y-40299D01*
X57825Y-40354D01*
X57825Y-39785D01*
X57825Y-39616D01*
X57761Y-39460D01*
X57641Y-39340D01*
X57485Y-39275D01*
X57316Y-39275D01*
X57160Y-39339D01*
X57040Y-39459D01*
X56975Y-39615D01*
X56975Y-39784D01*
X57039Y-39940D01*
X57159Y-40060D01*
X57315Y-40125D01*
X57484Y-40125D01*
X57640Y-40061D01*
X57760Y-39941D01*
X57825Y-39785D01*
X57825Y-40354D01*
X57760Y-40419D01*
X57695Y-40575D01*
X57695Y-40744D01*
X57759Y-40900D01*
X57879Y-41020D01*
X58035Y-41085D01*
X58204Y-41085D01*
X58360Y-41021D01*
X58480Y-40901D01*
X58545Y-40745D01*
X58545Y-41515D01*
X57816Y-41515D01*
X57741Y-41440D01*
X57585Y-41375D01*
X57416Y-41375D01*
X57405Y-41379D01*
X57405Y-40725D01*
X57405Y-40556D01*
X57341Y-40400D01*
X57221Y-40280D01*
X57065Y-40215D01*
X56896Y-40215D01*
X56740Y-40279D01*
X56620Y-40399D01*
X56555Y-40555D01*
X56555Y-40724D01*
X56619Y-40880D01*
X56739Y-41000D01*
X56895Y-41065D01*
X57064Y-41065D01*
X57220Y-41001D01*
X57340Y-40881D01*
X57405Y-40725D01*
X57405Y-41379D01*
X57260Y-41439D01*
X57140Y-41559D01*
X57075Y-41715D01*
X57075Y-41884D01*
X57139Y-42040D01*
X57259Y-42160D01*
X57415Y-42225D01*
X57584Y-42225D01*
X57740Y-42161D01*
X57816Y-42085D01*
X59895Y-42085D01*
X59900Y-42086D01*
X59900Y-42085D01*
X60009Y-42063D01*
X60102Y-42002D01*
X60918Y-41185D01*
X61341Y-41185D01*
X61210Y-41239D01*
X61090Y-41359D01*
X61025Y-41515D01*
X61025Y-41675D01*
X61016Y-41675D01*
X60860Y-41739D01*
X60853Y-41745D01*
X60733Y-41695D01*
X60564Y-41695D01*
X60408Y-41759D01*
X60288Y-41879D01*
X60223Y-42035D01*
X60223Y-42204D01*
X60287Y-42360D01*
X60407Y-42480D01*
X60563Y-42545D01*
X60648Y-42545D01*
X60648Y-42568D01*
X60647Y-42573D01*
X60670Y-42682D01*
X60731Y-42775D01*
X61201Y-43244D01*
X61203Y-43247D01*
X61296Y-43308D01*
X61405Y-43330D01*
X65810Y-43330D01*
X65775Y-43415D01*
X65775Y-43584D01*
X65839Y-43740D01*
X65959Y-43860D01*
X66115Y-43925D01*
X66284Y-43925D01*
X66440Y-43861D01*
X66560Y-43741D01*
X66625Y-43585D01*
X66625Y-43416D01*
X66561Y-43260D01*
X66459Y-43158D01*
X66570Y-43048D01*
X66616Y-43067D01*
X66785Y-43067D01*
X66941Y-43003D01*
X67061Y-42883D01*
X67126Y-42727D01*
X67126Y-42558D01*
X67069Y-42419D01*
X67125Y-42285D01*
X67125Y-42116D01*
X67112Y-42085D01*
X68495Y-42085D01*
X68500Y-42086D01*
X68500Y-42085D01*
X68609Y-42063D01*
X68702Y-42002D01*
X69399Y-41303D01*
X69401Y-41302D01*
X69402Y-41302D01*
X69462Y-41210D01*
X69463Y-41209D01*
X69480Y-41123D01*
X69485Y-41101D01*
X69484Y-41100D01*
X69485Y-41100D01*
X69485Y-36716D01*
X69560Y-36641D01*
X69579Y-36594D01*
X69639Y-36740D01*
X69759Y-36860D01*
X69915Y-36925D01*
X70084Y-36925D01*
X70240Y-36861D01*
X70360Y-36741D01*
X70425Y-36585D01*
X70425Y-36416D01*
X70361Y-36260D01*
X70241Y-36140D01*
X70085Y-36075D01*
X69978Y-36075D01*
X69566Y-35663D01*
X69715Y-35725D01*
X69884Y-35725D01*
X70040Y-35661D01*
X70160Y-35541D01*
X70225Y-35385D01*
X70225Y-35216D01*
X70161Y-35060D01*
X70041Y-34940D01*
X69885Y-34875D01*
X69716Y-34875D01*
X69560Y-34939D01*
X69484Y-35015D01*
X69318Y-35015D01*
X69050Y-34746D01*
X69050Y-32612D01*
X69050Y-32388D01*
X69049Y-32249D01*
X69049Y-32150D01*
X69011Y-32059D01*
X68941Y-31989D01*
X68849Y-31951D01*
X68612Y-31950D01*
X68550Y-32012D01*
X68550Y-32450D01*
X68988Y-32450D01*
X69050Y-32388D01*
X69050Y-32612D01*
X68988Y-32550D01*
X68550Y-32550D01*
X68550Y-32988D01*
X68612Y-33050D01*
X68849Y-33049D01*
X68941Y-33011D01*
X69011Y-32941D01*
X69049Y-32850D01*
X69049Y-32751D01*
X69050Y-32612D01*
X69050Y-34746D01*
X68802Y-34498D01*
X68709Y-34437D01*
X68600Y-34414D01*
X68595Y-34415D01*
X68450Y-34415D01*
X68450Y-32988D01*
X68450Y-32600D01*
X68450Y-32550D01*
X68450Y-32450D01*
X68450Y-32400D01*
X68450Y-32012D01*
X68388Y-31950D01*
X68151Y-31951D01*
X68059Y-31989D01*
X67989Y-32059D01*
X67951Y-32150D01*
X67951Y-32175D01*
X67811Y-32035D01*
X67609Y-31951D01*
X67391Y-31951D01*
X67189Y-32035D01*
X67035Y-32189D01*
X66951Y-32391D01*
X66951Y-32609D01*
X67035Y-32811D01*
X67189Y-32965D01*
X67391Y-33049D01*
X67609Y-33049D01*
X67811Y-32965D01*
X67951Y-32825D01*
X67951Y-32850D01*
X67989Y-32941D01*
X68059Y-33011D01*
X68151Y-33049D01*
X68388Y-33050D01*
X68450Y-32988D01*
X68450Y-34415D01*
X65575Y-34415D01*
X65575Y-34316D01*
X65511Y-34160D01*
X65391Y-34040D01*
X65235Y-33975D01*
X65066Y-33975D01*
X64910Y-34039D01*
X64790Y-34159D01*
X64725Y-34315D01*
X64725Y-34415D01*
X64525Y-34415D01*
X64525Y-32285D01*
X64525Y-32116D01*
X64461Y-31960D01*
X64341Y-31840D01*
X64185Y-31775D01*
X64016Y-31775D01*
X63860Y-31839D01*
X63740Y-31959D01*
X63675Y-32115D01*
X63675Y-32284D01*
X63739Y-32440D01*
X63859Y-32560D01*
X64015Y-32625D01*
X64184Y-32625D01*
X64340Y-32561D01*
X64460Y-32441D01*
X64525Y-32285D01*
X64525Y-34415D01*
X60975Y-34415D01*
X60975Y-34266D01*
X60911Y-34110D01*
X60886Y-34085D01*
X63334Y-34085D01*
X63409Y-34160D01*
X63565Y-34225D01*
X63734Y-34225D01*
X63890Y-34161D01*
X64010Y-34041D01*
X64075Y-33885D01*
X64075Y-33716D01*
X64011Y-33560D01*
X63891Y-33440D01*
X63735Y-33375D01*
X63566Y-33375D01*
X63410Y-33439D01*
X63334Y-33515D01*
X60100Y-33515D01*
X60099Y-33515D01*
X60080Y-33518D01*
X59991Y-33537D01*
X59925Y-33580D01*
X59925Y-33416D01*
X59861Y-33260D01*
X59849Y-33248D01*
X59941Y-33211D01*
X60011Y-33141D01*
X60049Y-33050D01*
X60049Y-32951D01*
X60049Y-32351D01*
X60011Y-32259D01*
X59941Y-32189D01*
X59850Y-32151D01*
X59751Y-32151D01*
X59151Y-32151D01*
X59059Y-32189D01*
X58989Y-32259D01*
X58951Y-32350D01*
X58951Y-32412D01*
X58878Y-32392D01*
X58808Y-32462D01*
X58808Y-32322D01*
X58781Y-32228D01*
X58579Y-32157D01*
X58366Y-32168D01*
X58219Y-32228D01*
X58192Y-32322D01*
X58500Y-32629D01*
X58808Y-32322D01*
X58808Y-32462D01*
X58571Y-32700D01*
X58878Y-33008D01*
X58951Y-32987D01*
X58951Y-33049D01*
X58989Y-33141D01*
X59059Y-33211D01*
X59150Y-33249D01*
X59140Y-33259D01*
X59075Y-33415D01*
X59075Y-33584D01*
X59128Y-33715D01*
X59025Y-33715D01*
X59025Y-33616D01*
X58961Y-33460D01*
X58841Y-33340D01*
X58808Y-33326D01*
X58808Y-33078D01*
X58500Y-32771D01*
X58192Y-33078D01*
X58219Y-33172D01*
X58421Y-33243D01*
X58634Y-33232D01*
X58781Y-33172D01*
X58808Y-33078D01*
X58808Y-33326D01*
X58685Y-33275D01*
X58516Y-33275D01*
X58360Y-33339D01*
X58240Y-33459D01*
X58175Y-33615D01*
X58175Y-33715D01*
X58116Y-33715D01*
X58041Y-33640D01*
X57885Y-33575D01*
X57716Y-33575D01*
X57560Y-33639D01*
X57444Y-33754D01*
X57381Y-33600D01*
X57261Y-33480D01*
X57105Y-33415D01*
X56936Y-33415D01*
X56780Y-33479D01*
X56660Y-33599D01*
X56595Y-33755D01*
X56595Y-33924D01*
X56659Y-34080D01*
X56779Y-34200D01*
X56925Y-34260D01*
X56925Y-34284D01*
X56939Y-34318D01*
X56835Y-34275D01*
X56728Y-34275D01*
X55752Y-33298D01*
X55659Y-33237D01*
X55644Y-33234D01*
X55811Y-33165D01*
X55965Y-33011D01*
X56000Y-32926D01*
X56035Y-33011D01*
X56189Y-33165D01*
X56391Y-33249D01*
X56609Y-33249D01*
X56811Y-33165D01*
X56965Y-33011D01*
X57000Y-32926D01*
X57035Y-33011D01*
X57189Y-33165D01*
X57391Y-33249D01*
X57609Y-33249D01*
X57811Y-33165D01*
X57965Y-33011D01*
X58002Y-32919D01*
X58028Y-32981D01*
X58122Y-33008D01*
X58429Y-32700D01*
X58122Y-32392D01*
X58028Y-32419D01*
X58004Y-32484D01*
X57965Y-32389D01*
X57811Y-32235D01*
X57609Y-32151D01*
X57391Y-32151D01*
X57189Y-32235D01*
X57035Y-32389D01*
X57000Y-32473D01*
X56965Y-32389D01*
X56811Y-32235D01*
X56609Y-32151D01*
X56391Y-32151D01*
X56189Y-32235D01*
X56035Y-32389D01*
X56000Y-32473D01*
X55965Y-32389D01*
X55811Y-32235D01*
X55609Y-32151D01*
X55391Y-32151D01*
X55189Y-32235D01*
X55035Y-32389D01*
X55000Y-32473D01*
X54965Y-32389D01*
X54811Y-32235D01*
X54609Y-32151D01*
X54391Y-32151D01*
X54189Y-32235D01*
X54035Y-32389D01*
X53951Y-32591D01*
X53951Y-32809D01*
X54035Y-33011D01*
X54189Y-33165D01*
X54309Y-33215D01*
X54068Y-33215D01*
X53852Y-32998D01*
X53759Y-32937D01*
X53650Y-32914D01*
X53645Y-32915D01*
X53016Y-32915D01*
X52941Y-32840D01*
X52785Y-32775D01*
X52700Y-32775D01*
X52700Y-31700D01*
X76902Y-31700D01*
X77398Y-46350D01*
X77398Y-46350D01*
G37*
G54D22*
X77398Y-46350D02*
X76705Y-46347D01*
X76705Y-33265D01*
X76705Y-33096D01*
X76641Y-32940D01*
X76581Y-32880D01*
X76640Y-32821D01*
X76705Y-32665D01*
X76705Y-32496D01*
X76641Y-32340D01*
X76521Y-32220D01*
X76365Y-32155D01*
X76196Y-32155D01*
X76040Y-32219D01*
X75920Y-32339D01*
X75855Y-32495D01*
X75855Y-32664D01*
X75919Y-32820D01*
X75979Y-32880D01*
X75920Y-32939D01*
X75855Y-33095D01*
X75855Y-33264D01*
X75919Y-33420D01*
X76039Y-33540D01*
X76195Y-33605D01*
X76364Y-33605D01*
X76520Y-33541D01*
X76640Y-33421D01*
X76705Y-33265D01*
X76705Y-46347D01*
X76685Y-46347D01*
X76685Y-35685D01*
X76685Y-35516D01*
X76621Y-35360D01*
X76501Y-35240D01*
X76345Y-35175D01*
X76176Y-35175D01*
X76020Y-35239D01*
X75900Y-35359D01*
X75835Y-35515D01*
X75835Y-35684D01*
X75899Y-35840D01*
X75929Y-35870D01*
X75880Y-35919D01*
X75815Y-36075D01*
X75815Y-36244D01*
X75879Y-36400D01*
X75999Y-36520D01*
X76155Y-36585D01*
X76324Y-36585D01*
X76480Y-36521D01*
X76600Y-36401D01*
X76665Y-36245D01*
X76665Y-36076D01*
X76601Y-35920D01*
X76571Y-35890D01*
X76620Y-35841D01*
X76685Y-35685D01*
X76685Y-46347D01*
X76291Y-46346D01*
X76291Y-40236D01*
X76291Y-40066D01*
X76226Y-39909D01*
X76107Y-39789D01*
X75950Y-39723D01*
X75780Y-39723D01*
X75623Y-39788D01*
X75503Y-39907D01*
X75437Y-40064D01*
X75437Y-40234D01*
X75502Y-40391D01*
X75621Y-40511D01*
X75778Y-40577D01*
X75948Y-40577D01*
X76105Y-40512D01*
X76225Y-40393D01*
X76291Y-40236D01*
X76291Y-46346D01*
X74465Y-46340D01*
X74465Y-37545D01*
X74465Y-37376D01*
X74401Y-37220D01*
X74281Y-37100D01*
X74125Y-37035D01*
X73956Y-37035D01*
X73800Y-37099D01*
X73680Y-37219D01*
X73615Y-37375D01*
X73615Y-37544D01*
X73679Y-37700D01*
X73799Y-37820D01*
X73955Y-37885D01*
X74124Y-37885D01*
X74280Y-37821D01*
X74400Y-37701D01*
X74465Y-37545D01*
X74465Y-46340D01*
X74086Y-46338D01*
X74086Y-40247D01*
X74086Y-40054D01*
X74012Y-39875D01*
X73876Y-39738D01*
X73697Y-39664D01*
X73504Y-39664D01*
X73325Y-39738D01*
X73188Y-39874D01*
X73114Y-40053D01*
X73114Y-40246D01*
X73188Y-40425D01*
X73324Y-40562D01*
X73503Y-40636D01*
X73696Y-40636D01*
X73875Y-40562D01*
X74012Y-40426D01*
X74086Y-40247D01*
X74086Y-46338D01*
X71825Y-46331D01*
X71825Y-38085D01*
X71825Y-37916D01*
X71761Y-37760D01*
X71641Y-37640D01*
X71485Y-37575D01*
X71316Y-37575D01*
X71160Y-37639D01*
X71040Y-37759D01*
X70975Y-37915D01*
X70975Y-38084D01*
X71039Y-38240D01*
X71159Y-38360D01*
X71315Y-38425D01*
X71484Y-38425D01*
X71640Y-38361D01*
X71760Y-38241D01*
X71825Y-38085D01*
X71825Y-46331D01*
X66665Y-46313D01*
X66665Y-44485D01*
X66665Y-44316D01*
X66601Y-44160D01*
X66481Y-44040D01*
X66325Y-43975D01*
X66156Y-43975D01*
X66000Y-44039D01*
X65880Y-44159D01*
X65815Y-44315D01*
X65815Y-44484D01*
X65879Y-44640D01*
X65999Y-44760D01*
X66155Y-44825D01*
X66324Y-44825D01*
X66480Y-44761D01*
X66600Y-44641D01*
X66665Y-44485D01*
X66665Y-46313D01*
X66625Y-46313D01*
X66625Y-45385D01*
X66625Y-45216D01*
X66561Y-45060D01*
X66441Y-44940D01*
X66285Y-44875D01*
X66116Y-44875D01*
X65960Y-44939D01*
X65840Y-45059D01*
X65775Y-45215D01*
X65775Y-45384D01*
X65839Y-45540D01*
X65959Y-45660D01*
X66115Y-45725D01*
X66284Y-45725D01*
X66440Y-45661D01*
X66560Y-45541D01*
X66625Y-45385D01*
X66625Y-46313D01*
X64300Y-46306D01*
X64261Y-46210D01*
X64141Y-46090D01*
X63985Y-46025D01*
X63816Y-46025D01*
X63660Y-46089D01*
X63540Y-46209D01*
X63500Y-46303D01*
X61275Y-46295D01*
X61275Y-45485D01*
X61275Y-45316D01*
X61211Y-45160D01*
X61169Y-45118D01*
X61225Y-44985D01*
X61225Y-44816D01*
X61161Y-44660D01*
X61041Y-44540D01*
X60885Y-44475D01*
X60716Y-44475D01*
X60560Y-44539D01*
X60440Y-44659D01*
X60375Y-44815D01*
X60375Y-44984D01*
X60439Y-45140D01*
X60480Y-45181D01*
X60425Y-45315D01*
X60425Y-45484D01*
X60489Y-45640D01*
X60609Y-45760D01*
X60765Y-45825D01*
X60934Y-45825D01*
X61090Y-45761D01*
X61210Y-45641D01*
X61275Y-45485D01*
X61275Y-46295D01*
X53875Y-46271D01*
X53875Y-42285D01*
X53875Y-42116D01*
X53811Y-41960D01*
X53691Y-41840D01*
X53535Y-41775D01*
X53366Y-41775D01*
X53345Y-41783D01*
X53345Y-37405D01*
X53345Y-37236D01*
X53281Y-37080D01*
X53161Y-36960D01*
X53005Y-36895D01*
X52836Y-36895D01*
X52680Y-36959D01*
X52560Y-37079D01*
X52495Y-37235D01*
X52495Y-37404D01*
X52559Y-37560D01*
X52679Y-37680D01*
X52835Y-37745D01*
X53004Y-37745D01*
X53160Y-37681D01*
X53280Y-37561D01*
X53345Y-37405D01*
X53345Y-41783D01*
X53210Y-41839D01*
X53090Y-41959D01*
X53025Y-42115D01*
X53025Y-42284D01*
X53089Y-42440D01*
X53209Y-42560D01*
X53365Y-42625D01*
X53534Y-42625D01*
X53690Y-42561D01*
X53810Y-42441D01*
X53875Y-42285D01*
X53875Y-46271D01*
X52625Y-46267D01*
X52625Y-38125D01*
X52625Y-37956D01*
X52561Y-37800D01*
X52441Y-37680D01*
X52285Y-37615D01*
X52116Y-37615D01*
X51960Y-37679D01*
X51840Y-37799D01*
X51825Y-37835D01*
X51825Y-36735D01*
X51825Y-36566D01*
X51761Y-36410D01*
X51641Y-36290D01*
X51485Y-36225D01*
X51316Y-36225D01*
X51160Y-36289D01*
X51040Y-36409D01*
X50975Y-36565D01*
X50975Y-36734D01*
X51039Y-36890D01*
X51159Y-37010D01*
X51315Y-37075D01*
X51484Y-37075D01*
X51640Y-37011D01*
X51760Y-36891D01*
X51825Y-36735D01*
X51825Y-37835D01*
X51775Y-37955D01*
X51775Y-38124D01*
X51839Y-38280D01*
X51959Y-38400D01*
X52115Y-38465D01*
X52284Y-38465D01*
X52440Y-38401D01*
X52560Y-38281D01*
X52625Y-38125D01*
X52625Y-46267D01*
X50875Y-46261D01*
X50875Y-44085D01*
X50875Y-43916D01*
X50811Y-43760D01*
X50691Y-43640D01*
X50535Y-43575D01*
X50366Y-43575D01*
X50210Y-43639D01*
X50090Y-43759D01*
X50025Y-43915D01*
X50025Y-44084D01*
X50089Y-44240D01*
X50209Y-44360D01*
X50365Y-44425D01*
X50534Y-44425D01*
X50690Y-44361D01*
X50810Y-44241D01*
X50875Y-44085D01*
X50875Y-46261D01*
X48725Y-46254D01*
X48725Y-43985D01*
X48725Y-43816D01*
X48661Y-43660D01*
X48541Y-43540D01*
X48385Y-43475D01*
X48225Y-43475D01*
X48225Y-43316D01*
X48161Y-43160D01*
X48041Y-43040D01*
X47885Y-42975D01*
X47716Y-42975D01*
X47560Y-43039D01*
X47440Y-43159D01*
X47375Y-43315D01*
X47375Y-43484D01*
X47439Y-43640D01*
X47559Y-43760D01*
X47715Y-43825D01*
X47875Y-43825D01*
X47875Y-43984D01*
X47939Y-44140D01*
X48059Y-44260D01*
X48215Y-44325D01*
X48384Y-44325D01*
X48540Y-44261D01*
X48660Y-44141D01*
X48725Y-43985D01*
X48725Y-46254D01*
X47398Y-46250D01*
X47251Y-41475D01*
X50399Y-39227D01*
X50549Y-36119D01*
X52651Y-33625D01*
X52784Y-33625D01*
X52940Y-33561D01*
X53016Y-33485D01*
X53531Y-33485D01*
X53746Y-33699D01*
X53748Y-33702D01*
X53841Y-33763D01*
X53950Y-33785D01*
X55431Y-33785D01*
X56325Y-34678D01*
X56325Y-34784D01*
X56389Y-34940D01*
X56509Y-35060D01*
X56665Y-35125D01*
X56834Y-35125D01*
X56990Y-35061D01*
X57110Y-34941D01*
X57175Y-34785D01*
X57175Y-34616D01*
X57160Y-34581D01*
X57265Y-34625D01*
X57434Y-34625D01*
X57590Y-34561D01*
X57710Y-34441D01*
X57716Y-34425D01*
X57884Y-34425D01*
X58040Y-34361D01*
X58116Y-34285D01*
X59895Y-34285D01*
X59900Y-34286D01*
X59900Y-34285D01*
X60009Y-34263D01*
X60102Y-34202D01*
X60186Y-34116D01*
X60125Y-34265D01*
X60125Y-34415D01*
X58600Y-34415D01*
X58491Y-34437D01*
X58398Y-34498D01*
X58337Y-34591D01*
X58315Y-34700D01*
X58315Y-35381D01*
X58198Y-35498D01*
X58196Y-35500D01*
X57198Y-36498D01*
X57196Y-36500D01*
X56175Y-37521D01*
X56175Y-37416D01*
X56111Y-37260D01*
X55991Y-37140D01*
X55835Y-37075D01*
X55666Y-37075D01*
X55625Y-37091D01*
X55625Y-35785D01*
X55625Y-35616D01*
X55561Y-35460D01*
X55441Y-35340D01*
X55285Y-35275D01*
X55116Y-35275D01*
X54960Y-35339D01*
X54840Y-35459D01*
X54775Y-35615D01*
X54775Y-35784D01*
X54839Y-35940D01*
X54959Y-36060D01*
X55115Y-36125D01*
X55284Y-36125D01*
X55440Y-36061D01*
X55560Y-35941D01*
X55625Y-35785D01*
X55625Y-37091D01*
X55510Y-37139D01*
X55475Y-37174D01*
X55441Y-37140D01*
X55285Y-37075D01*
X55116Y-37075D01*
X54960Y-37139D01*
X54840Y-37259D01*
X54775Y-37415D01*
X54775Y-37584D01*
X54839Y-37740D01*
X54959Y-37860D01*
X55115Y-37925D01*
X55284Y-37925D01*
X55440Y-37861D01*
X55475Y-37826D01*
X55509Y-37860D01*
X55665Y-37925D01*
X55771Y-37925D01*
X55151Y-38544D01*
X55101Y-38420D01*
X54981Y-38300D01*
X54825Y-38235D01*
X54656Y-38235D01*
X54500Y-38299D01*
X54380Y-38419D01*
X54315Y-38575D01*
X54315Y-38744D01*
X54379Y-38900D01*
X54499Y-39020D01*
X54655Y-39085D01*
X54717Y-39085D01*
X54714Y-39100D01*
X54715Y-39104D01*
X54715Y-39581D01*
X54421Y-39875D01*
X54316Y-39875D01*
X54160Y-39939D01*
X54040Y-40059D01*
X54025Y-40095D01*
X54025Y-35185D01*
X54025Y-35016D01*
X53961Y-34860D01*
X53901Y-34800D01*
X53960Y-34741D01*
X54025Y-34585D01*
X54025Y-34416D01*
X53961Y-34260D01*
X53841Y-34140D01*
X53685Y-34075D01*
X53516Y-34075D01*
X53360Y-34139D01*
X53240Y-34259D01*
X53175Y-34415D01*
X53175Y-34584D01*
X53239Y-34740D01*
X53299Y-34800D01*
X53240Y-34859D01*
X53199Y-34955D01*
X53161Y-34860D01*
X53041Y-34740D01*
X52885Y-34675D01*
X52716Y-34675D01*
X52560Y-34739D01*
X52440Y-34859D01*
X52375Y-35015D01*
X52375Y-35184D01*
X52439Y-35340D01*
X52559Y-35460D01*
X52715Y-35525D01*
X52884Y-35525D01*
X53040Y-35461D01*
X53160Y-35341D01*
X53200Y-35244D01*
X53239Y-35340D01*
X53359Y-35460D01*
X53515Y-35525D01*
X53684Y-35525D01*
X53840Y-35461D01*
X53960Y-35341D01*
X54025Y-35185D01*
X54025Y-40095D01*
X53975Y-40215D01*
X53975Y-40384D01*
X54039Y-40540D01*
X54159Y-40660D01*
X54315Y-40725D01*
X54432Y-40725D01*
X54439Y-40740D01*
X54559Y-40860D01*
X54715Y-40925D01*
X54884Y-40925D01*
X55040Y-40861D01*
X55160Y-40741D01*
X55225Y-40585D01*
X55225Y-40478D01*
X55301Y-40402D01*
X55359Y-40460D01*
X55481Y-40511D01*
X55455Y-40575D01*
X55455Y-40744D01*
X55519Y-40900D01*
X55639Y-41020D01*
X55795Y-41085D01*
X55964Y-41085D01*
X56120Y-41021D01*
X56240Y-40901D01*
X56305Y-40745D01*
X56305Y-40576D01*
X56243Y-40425D01*
X56284Y-40425D01*
X56440Y-40361D01*
X56560Y-40241D01*
X56625Y-40085D01*
X56625Y-39916D01*
X56561Y-39760D01*
X56485Y-39684D01*
X56485Y-39618D01*
X58799Y-37303D01*
X58801Y-37302D01*
X58809Y-37310D01*
X58965Y-37375D01*
X59134Y-37375D01*
X59290Y-37311D01*
X59410Y-37191D01*
X59475Y-37035D01*
X59475Y-36866D01*
X59411Y-36710D01*
X59320Y-36619D01*
X59340Y-36611D01*
X59460Y-36491D01*
X59525Y-36335D01*
X59525Y-36166D01*
X59461Y-36010D01*
X59341Y-35890D01*
X59251Y-35852D01*
X59668Y-35435D01*
X62645Y-35435D01*
X62650Y-35436D01*
X62650Y-35435D01*
X62759Y-35413D01*
X62852Y-35352D01*
X62876Y-35327D01*
X64035Y-35327D01*
X63951Y-35529D01*
X63951Y-35747D01*
X64035Y-35949D01*
X64117Y-36031D01*
X64035Y-36114D01*
X63951Y-36316D01*
X63951Y-36534D01*
X64035Y-36736D01*
X64118Y-36819D01*
X64035Y-36902D01*
X63951Y-37104D01*
X63951Y-37322D01*
X64035Y-37524D01*
X64117Y-37606D01*
X64035Y-37689D01*
X63951Y-37891D01*
X63951Y-38109D01*
X64035Y-38311D01*
X64117Y-38393D01*
X64035Y-38476D01*
X63951Y-38678D01*
X63951Y-38896D01*
X64035Y-39098D01*
X64118Y-39181D01*
X64035Y-39264D01*
X63951Y-39466D01*
X63951Y-39684D01*
X64035Y-39886D01*
X64117Y-39968D01*
X64035Y-40051D01*
X63951Y-40253D01*
X63951Y-40471D01*
X64035Y-40673D01*
X64118Y-40756D01*
X64035Y-40839D01*
X63951Y-41041D01*
X63951Y-41259D01*
X64035Y-41461D01*
X64089Y-41515D01*
X63918Y-41515D01*
X63675Y-41271D01*
X63675Y-39585D01*
X63675Y-39416D01*
X63611Y-39260D01*
X63491Y-39140D01*
X63335Y-39075D01*
X63276Y-39075D01*
X63360Y-38991D01*
X63425Y-38835D01*
X63425Y-38666D01*
X63361Y-38510D01*
X63241Y-38390D01*
X63085Y-38325D01*
X62925Y-38325D01*
X62925Y-37835D01*
X62925Y-37666D01*
X62861Y-37510D01*
X62741Y-37390D01*
X62585Y-37325D01*
X62416Y-37325D01*
X62260Y-37389D01*
X62140Y-37509D01*
X62075Y-37665D01*
X62075Y-37834D01*
X62139Y-37990D01*
X62259Y-38110D01*
X62415Y-38175D01*
X62584Y-38175D01*
X62740Y-38111D01*
X62860Y-37991D01*
X62925Y-37835D01*
X62925Y-38325D01*
X62916Y-38325D01*
X62760Y-38389D01*
X62640Y-38509D01*
X62575Y-38665D01*
X62575Y-38834D01*
X62639Y-38990D01*
X62759Y-39110D01*
X62915Y-39175D01*
X62974Y-39175D01*
X62890Y-39259D01*
X62825Y-39415D01*
X62825Y-39584D01*
X62889Y-39740D01*
X63009Y-39860D01*
X63165Y-39925D01*
X63334Y-39925D01*
X63490Y-39861D01*
X63610Y-39741D01*
X63675Y-39585D01*
X63675Y-41271D01*
X63102Y-40698D01*
X63009Y-40637D01*
X62900Y-40614D01*
X62895Y-40615D01*
X62008Y-40615D01*
X62140Y-40561D01*
X62260Y-40441D01*
X62325Y-40285D01*
X62325Y-40116D01*
X62261Y-39960D01*
X62141Y-39840D01*
X61985Y-39775D01*
X61816Y-39775D01*
X61660Y-39839D01*
X61540Y-39959D01*
X61475Y-40115D01*
X61475Y-40284D01*
X61539Y-40440D01*
X61659Y-40560D01*
X61791Y-40615D01*
X61425Y-40615D01*
X61425Y-37185D01*
X61425Y-37016D01*
X61361Y-36860D01*
X61241Y-36740D01*
X61085Y-36675D01*
X60916Y-36675D01*
X60875Y-36691D01*
X60875Y-36666D01*
X60811Y-36510D01*
X60691Y-36390D01*
X60535Y-36325D01*
X60366Y-36325D01*
X60210Y-36389D01*
X60090Y-36509D01*
X60025Y-36665D01*
X60025Y-36834D01*
X60089Y-36990D01*
X60209Y-37110D01*
X60365Y-37175D01*
X60534Y-37175D01*
X60575Y-37158D01*
X60575Y-37184D01*
X60639Y-37340D01*
X60759Y-37460D01*
X60915Y-37525D01*
X61084Y-37525D01*
X61240Y-37461D01*
X61360Y-37341D01*
X61425Y-37185D01*
X61425Y-40615D01*
X61225Y-40615D01*
X61225Y-38835D01*
X61225Y-38666D01*
X61161Y-38510D01*
X61041Y-38390D01*
X60885Y-38325D01*
X60716Y-38325D01*
X60560Y-38389D01*
X60440Y-38509D01*
X60375Y-38665D01*
X60375Y-38834D01*
X60439Y-38990D01*
X60559Y-39110D01*
X60715Y-39175D01*
X60884Y-39175D01*
X61040Y-39111D01*
X61160Y-38991D01*
X61225Y-38835D01*
X61225Y-40615D01*
X60800Y-40615D01*
X60799Y-40615D01*
X60780Y-40618D01*
X60691Y-40637D01*
X60598Y-40698D01*
X60596Y-40700D01*
X59781Y-41515D01*
X59445Y-41515D01*
X59445Y-39105D01*
X59445Y-38936D01*
X59381Y-38780D01*
X59261Y-38660D01*
X59105Y-38595D01*
X58936Y-38595D01*
X58780Y-38659D01*
X58660Y-38779D01*
X58595Y-38935D01*
X58595Y-39104D01*
X58659Y-39260D01*
X58640Y-39279D01*
X58575Y-39435D01*
X58575Y-39604D01*
X58639Y-39760D01*
X58759Y-39880D01*
X58915Y-39945D01*
X59084Y-39945D01*
X59240Y-39881D01*
X59360Y-39761D01*
X59425Y-39605D01*
X59425Y-39436D01*
X59361Y-39280D01*
X59380Y-39261D01*
X59445Y-39105D01*
X59445Y-41515D01*
X58545Y-41515D01*
X58545Y-40745D01*
X58545Y-40576D01*
X58481Y-40420D01*
X58361Y-40300D01*
X58205Y-40235D01*
X58036Y-40235D01*
X57880Y-40299D01*
X57825Y-40354D01*
X57825Y-39785D01*
X57825Y-39616D01*
X57761Y-39460D01*
X57641Y-39340D01*
X57485Y-39275D01*
X57316Y-39275D01*
X57160Y-39339D01*
X57040Y-39459D01*
X56975Y-39615D01*
X56975Y-39784D01*
X57039Y-39940D01*
X57159Y-40060D01*
X57315Y-40125D01*
X57484Y-40125D01*
X57640Y-40061D01*
X57760Y-39941D01*
X57825Y-39785D01*
X57825Y-40354D01*
X57760Y-40419D01*
X57695Y-40575D01*
X57695Y-40744D01*
X57759Y-40900D01*
X57879Y-41020D01*
X58035Y-41085D01*
X58204Y-41085D01*
X58360Y-41021D01*
X58480Y-40901D01*
X58545Y-40745D01*
X58545Y-41515D01*
X57816Y-41515D01*
X57741Y-41440D01*
X57585Y-41375D01*
X57416Y-41375D01*
X57405Y-41379D01*
X57405Y-40725D01*
X57405Y-40556D01*
X57341Y-40400D01*
X57221Y-40280D01*
X57065Y-40215D01*
X56896Y-40215D01*
X56740Y-40279D01*
X56620Y-40399D01*
X56555Y-40555D01*
X56555Y-40724D01*
X56619Y-40880D01*
X56739Y-41000D01*
X56895Y-41065D01*
X57064Y-41065D01*
X57220Y-41001D01*
X57340Y-40881D01*
X57405Y-40725D01*
X57405Y-41379D01*
X57260Y-41439D01*
X57140Y-41559D01*
X57075Y-41715D01*
X57075Y-41884D01*
X57139Y-42040D01*
X57259Y-42160D01*
X57415Y-42225D01*
X57584Y-42225D01*
X57740Y-42161D01*
X57816Y-42085D01*
X59895Y-42085D01*
X59900Y-42086D01*
X59900Y-42085D01*
X60009Y-42063D01*
X60102Y-42002D01*
X60918Y-41185D01*
X61341Y-41185D01*
X61210Y-41239D01*
X61090Y-41359D01*
X61025Y-41515D01*
X61025Y-41675D01*
X61016Y-41675D01*
X60860Y-41739D01*
X60853Y-41745D01*
X60733Y-41695D01*
X60564Y-41695D01*
X60408Y-41759D01*
X60288Y-41879D01*
X60223Y-42035D01*
X60223Y-42204D01*
X60287Y-42360D01*
X60407Y-42480D01*
X60563Y-42545D01*
X60648Y-42545D01*
X60648Y-42568D01*
X60647Y-42573D01*
X60670Y-42682D01*
X60731Y-42775D01*
X61201Y-43244D01*
X61203Y-43247D01*
X61296Y-43308D01*
X61405Y-43330D01*
X65810Y-43330D01*
X65775Y-43415D01*
X65775Y-43584D01*
X65839Y-43740D01*
X65959Y-43860D01*
X66115Y-43925D01*
X66284Y-43925D01*
X66440Y-43861D01*
X66560Y-43741D01*
X66625Y-43585D01*
X66625Y-43416D01*
X66561Y-43260D01*
X66459Y-43158D01*
X66570Y-43048D01*
X66616Y-43067D01*
X66785Y-43067D01*
X66941Y-43003D01*
X67061Y-42883D01*
X67126Y-42727D01*
X67126Y-42558D01*
X67069Y-42419D01*
X67125Y-42285D01*
X67125Y-42116D01*
X67112Y-42085D01*
X68495Y-42085D01*
X68500Y-42086D01*
X68500Y-42085D01*
X68609Y-42063D01*
X68702Y-42002D01*
X69399Y-41303D01*
X69401Y-41302D01*
X69402Y-41302D01*
X69462Y-41210D01*
X69463Y-41209D01*
X69480Y-41123D01*
X69485Y-41101D01*
X69484Y-41100D01*
X69485Y-41100D01*
X69485Y-36716D01*
X69560Y-36641D01*
X69579Y-36594D01*
X69639Y-36740D01*
X69759Y-36860D01*
X69915Y-36925D01*
X70084Y-36925D01*
X70240Y-36861D01*
X70360Y-36741D01*
X70425Y-36585D01*
X70425Y-36416D01*
X70361Y-36260D01*
X70241Y-36140D01*
X70085Y-36075D01*
X69978Y-36075D01*
X69566Y-35663D01*
X69715Y-35725D01*
X69884Y-35725D01*
X70040Y-35661D01*
X70160Y-35541D01*
X70225Y-35385D01*
X70225Y-35216D01*
X70161Y-35060D01*
X70041Y-34940D01*
X69885Y-34875D01*
X69716Y-34875D01*
X69560Y-34939D01*
X69484Y-35015D01*
X69318Y-35015D01*
X69050Y-34746D01*
X69050Y-32612D01*
X69050Y-32388D01*
X69049Y-32249D01*
X69049Y-32150D01*
X69011Y-32059D01*
X68941Y-31989D01*
X68849Y-31951D01*
X68612Y-31950D01*
X68550Y-32012D01*
X68550Y-32450D01*
X68988Y-32450D01*
X69050Y-32388D01*
X69050Y-32612D01*
X68988Y-32550D01*
X68550Y-32550D01*
X68550Y-32988D01*
X68612Y-33050D01*
X68849Y-33049D01*
X68941Y-33011D01*
X69011Y-32941D01*
X69049Y-32850D01*
X69049Y-32751D01*
X69050Y-32612D01*
X69050Y-34746D01*
X68802Y-34498D01*
X68709Y-34437D01*
X68600Y-34414D01*
X68595Y-34415D01*
X68450Y-34415D01*
X68450Y-32988D01*
X68450Y-32600D01*
X68450Y-32550D01*
X68450Y-32450D01*
X68450Y-32400D01*
X68450Y-32012D01*
X68388Y-31950D01*
X68151Y-31951D01*
X68059Y-31989D01*
X67989Y-32059D01*
X67951Y-32150D01*
X67951Y-32175D01*
X67811Y-32035D01*
X67609Y-31951D01*
X67391Y-31951D01*
X67189Y-32035D01*
X67035Y-32189D01*
X66951Y-32391D01*
X66951Y-32609D01*
X67035Y-32811D01*
X67189Y-32965D01*
X67391Y-33049D01*
X67609Y-33049D01*
X67811Y-32965D01*
X67951Y-32825D01*
X67951Y-32850D01*
X67989Y-32941D01*
X68059Y-33011D01*
X68151Y-33049D01*
X68388Y-33050D01*
X68450Y-32988D01*
X68450Y-34415D01*
X65575Y-34415D01*
X65575Y-34316D01*
X65511Y-34160D01*
X65391Y-34040D01*
X65235Y-33975D01*
X65066Y-33975D01*
X64910Y-34039D01*
X64790Y-34159D01*
X64725Y-34315D01*
X64725Y-34415D01*
X64525Y-34415D01*
X64525Y-32285D01*
X64525Y-32116D01*
X64461Y-31960D01*
X64341Y-31840D01*
X64185Y-31775D01*
X64016Y-31775D01*
X63860Y-31839D01*
X63740Y-31959D01*
X63675Y-32115D01*
X63675Y-32284D01*
X63739Y-32440D01*
X63859Y-32560D01*
X64015Y-32625D01*
X64184Y-32625D01*
X64340Y-32561D01*
X64460Y-32441D01*
X64525Y-32285D01*
X64525Y-34415D01*
X60975Y-34415D01*
X60975Y-34266D01*
X60911Y-34110D01*
X60886Y-34085D01*
X63334Y-34085D01*
X63409Y-34160D01*
X63565Y-34225D01*
X63734Y-34225D01*
X63890Y-34161D01*
X64010Y-34041D01*
X64075Y-33885D01*
X64075Y-33716D01*
X64011Y-33560D01*
X63891Y-33440D01*
X63735Y-33375D01*
X63566Y-33375D01*
X63410Y-33439D01*
X63334Y-33515D01*
X60100Y-33515D01*
X60099Y-33515D01*
X60080Y-33518D01*
X59991Y-33537D01*
X59925Y-33580D01*
X59925Y-33416D01*
X59861Y-33260D01*
X59849Y-33248D01*
X59941Y-33211D01*
X60011Y-33141D01*
X60049Y-33050D01*
X60049Y-32951D01*
X60049Y-32351D01*
X60011Y-32259D01*
X59941Y-32189D01*
X59850Y-32151D01*
X59751Y-32151D01*
X59151Y-32151D01*
X59059Y-32189D01*
X58989Y-32259D01*
X58951Y-32350D01*
X58951Y-32412D01*
X58878Y-32392D01*
X58808Y-32462D01*
X58808Y-32322D01*
X58781Y-32228D01*
X58579Y-32157D01*
X58366Y-32168D01*
X58219Y-32228D01*
X58192Y-32322D01*
X58500Y-32629D01*
X58808Y-32322D01*
X58808Y-32462D01*
X58571Y-32700D01*
X58878Y-33008D01*
X58951Y-32987D01*
X58951Y-33049D01*
X58989Y-33141D01*
X59059Y-33211D01*
X59150Y-33249D01*
X59140Y-33259D01*
X59075Y-33415D01*
X59075Y-33584D01*
X59128Y-33715D01*
X59025Y-33715D01*
X59025Y-33616D01*
X58961Y-33460D01*
X58841Y-33340D01*
X58808Y-33326D01*
X58808Y-33078D01*
X58500Y-32771D01*
X58192Y-33078D01*
X58219Y-33172D01*
X58421Y-33243D01*
X58634Y-33232D01*
X58781Y-33172D01*
X58808Y-33078D01*
X58808Y-33326D01*
X58685Y-33275D01*
X58516Y-33275D01*
X58360Y-33339D01*
X58240Y-33459D01*
X58175Y-33615D01*
X58175Y-33715D01*
X58116Y-33715D01*
X58041Y-33640D01*
X57885Y-33575D01*
X57716Y-33575D01*
X57560Y-33639D01*
X57444Y-33754D01*
X57381Y-33600D01*
X57261Y-33480D01*
X57105Y-33415D01*
X56936Y-33415D01*
X56780Y-33479D01*
X56660Y-33599D01*
X56595Y-33755D01*
X56595Y-33924D01*
X56659Y-34080D01*
X56779Y-34200D01*
X56925Y-34260D01*
X56925Y-34284D01*
X56939Y-34318D01*
X56835Y-34275D01*
X56728Y-34275D01*
X55752Y-33298D01*
X55659Y-33237D01*
X55644Y-33234D01*
X55811Y-33165D01*
X55965Y-33011D01*
X56000Y-32926D01*
X56035Y-33011D01*
X56189Y-33165D01*
X56391Y-33249D01*
X56609Y-33249D01*
X56811Y-33165D01*
X56965Y-33011D01*
X57000Y-32926D01*
X57035Y-33011D01*
X57189Y-33165D01*
X57391Y-33249D01*
X57609Y-33249D01*
X57811Y-33165D01*
X57965Y-33011D01*
X58002Y-32919D01*
X58028Y-32981D01*
X58122Y-33008D01*
X58429Y-32700D01*
X58122Y-32392D01*
X58028Y-32419D01*
X58004Y-32484D01*
X57965Y-32389D01*
X57811Y-32235D01*
X57609Y-32151D01*
X57391Y-32151D01*
X57189Y-32235D01*
X57035Y-32389D01*
X57000Y-32473D01*
X56965Y-32389D01*
X56811Y-32235D01*
X56609Y-32151D01*
X56391Y-32151D01*
X56189Y-32235D01*
X56035Y-32389D01*
X56000Y-32473D01*
X55965Y-32389D01*
X55811Y-32235D01*
X55609Y-32151D01*
X55391Y-32151D01*
X55189Y-32235D01*
X55035Y-32389D01*
X55000Y-32473D01*
X54965Y-32389D01*
X54811Y-32235D01*
X54609Y-32151D01*
X54391Y-32151D01*
X54189Y-32235D01*
X54035Y-32389D01*
X53951Y-32591D01*
X53951Y-32809D01*
X54035Y-33011D01*
X54189Y-33165D01*
X54309Y-33215D01*
X54068Y-33215D01*
X53852Y-32998D01*
X53759Y-32937D01*
X53650Y-32914D01*
X53645Y-32915D01*
X53016Y-32915D01*
X52941Y-32840D01*
X52785Y-32775D01*
X52700Y-32775D01*
X52700Y-31700D01*
X76902Y-31700D01*
X77398Y-46350D01*
M02*
