G04 (created by PCBNEW (2012-01-19 BZR 3256)-stable) date 10/22/2012 3:02:09 PM*
G01*
G70*
G90*
%MOIN*%
G04 Gerber Fmt 3.4, Leading zero omitted, Abs format*
%FSLAX34Y34*%
G04 APERTURE LIST*
%ADD10C,0.001000*%
%ADD11C,0.015000*%
%ADD12C,0.008000*%
G04 APERTURE END LIST*
G54D10*
G54D11*
X87000Y-30500D02*
X33000Y-30500D01*
X87000Y-47500D02*
X87000Y-30500D01*
X33000Y-47500D02*
X87000Y-47500D01*
X33000Y-30500D02*
X33000Y-47500D01*
X87000Y-30500D02*
X33000Y-30500D01*
X87000Y-47500D02*
X87000Y-30500D01*
X33000Y-47500D02*
X87000Y-47500D01*
X33000Y-30500D02*
X33000Y-47500D01*
G54D10*
X38775Y-41775D02*
X39025Y-42025D01*
X39025Y-41775D02*
X38775Y-42025D01*
X44875Y-40375D02*
X45125Y-40625D01*
X45125Y-40375D02*
X44875Y-40625D01*
X46375Y-42875D02*
X46625Y-43125D01*
X46625Y-42875D02*
X46375Y-43125D01*
X46675Y-31375D02*
X46925Y-31625D01*
X46925Y-31375D02*
X46675Y-31625D01*
X47375Y-44875D02*
X47625Y-45125D01*
X47625Y-44875D02*
X47375Y-45125D01*
X47575Y-42475D02*
X47825Y-42725D01*
X47825Y-42475D02*
X47575Y-42725D01*
X47675Y-43275D02*
X47925Y-43525D01*
X47925Y-43275D02*
X47675Y-43525D01*
X47875Y-45375D02*
X48125Y-45625D01*
X48125Y-45375D02*
X47875Y-45625D01*
X48175Y-43775D02*
X48425Y-44025D01*
X48425Y-43775D02*
X48175Y-44025D01*
X48775Y-31075D02*
X49025Y-31325D01*
X49025Y-31075D02*
X48775Y-31325D01*
X49475Y-35075D02*
X49725Y-35325D01*
X49725Y-35075D02*
X49475Y-35325D01*
X50325Y-43875D02*
X50575Y-44125D01*
X50575Y-43875D02*
X50325Y-44125D01*
X51075Y-37175D02*
X51325Y-37425D01*
X51325Y-37175D02*
X51075Y-37425D01*
X51075Y-39075D02*
X51325Y-39325D01*
X51325Y-39075D02*
X51075Y-39325D01*
X51225Y-41875D02*
X51475Y-42125D01*
X51475Y-41875D02*
X51225Y-42125D01*
X51275Y-36525D02*
X51525Y-36775D01*
X51525Y-36525D02*
X51275Y-36775D01*
X51775Y-42275D02*
X52025Y-42525D01*
X52025Y-42275D02*
X51775Y-42525D01*
X52075Y-37915D02*
X52325Y-38165D01*
X52325Y-37915D02*
X52075Y-38165D01*
X52175Y-38675D02*
X52425Y-38925D01*
X52425Y-38675D02*
X52175Y-38925D01*
X52275Y-36475D02*
X52525Y-36725D01*
X52525Y-36475D02*
X52275Y-36725D01*
X52375Y-43575D02*
X52625Y-43825D01*
X52625Y-43575D02*
X52375Y-43825D01*
X52575Y-33075D02*
X52825Y-33325D01*
X52825Y-33075D02*
X52575Y-33325D01*
X52675Y-34975D02*
X52925Y-35225D01*
X52925Y-34975D02*
X52675Y-35225D01*
X52775Y-33675D02*
X53025Y-33925D01*
X53025Y-33675D02*
X52775Y-33925D01*
X52795Y-37195D02*
X53045Y-37445D01*
X53045Y-37195D02*
X52795Y-37445D01*
X53275Y-33625D02*
X53525Y-33875D01*
X53525Y-33625D02*
X53275Y-33875D01*
X53325Y-42075D02*
X53575Y-42325D01*
X53575Y-42075D02*
X53325Y-42325D01*
X53475Y-34975D02*
X53725Y-35225D01*
X53725Y-34975D02*
X53475Y-35225D01*
X54175Y-38075D02*
X54425Y-38325D01*
X54425Y-38075D02*
X54175Y-38325D01*
X54275Y-40175D02*
X54525Y-40425D01*
X54525Y-40175D02*
X54275Y-40425D01*
X54475Y-37775D02*
X54725Y-38025D01*
X54725Y-37775D02*
X54475Y-38025D01*
X54615Y-38535D02*
X54865Y-38785D01*
X54865Y-38535D02*
X54615Y-38785D01*
X54675Y-40375D02*
X54925Y-40625D01*
X54925Y-40375D02*
X54675Y-40625D01*
X54925Y-43125D02*
X55175Y-43375D01*
X55175Y-43125D02*
X54925Y-43375D01*
X55075Y-34025D02*
X55325Y-34275D01*
X55325Y-34025D02*
X55075Y-34275D01*
X55075Y-35575D02*
X55325Y-35825D01*
X55325Y-35575D02*
X55075Y-35825D01*
X55075Y-37375D02*
X55325Y-37625D01*
X55325Y-37375D02*
X55075Y-37625D01*
X55475Y-39975D02*
X55725Y-40225D01*
X55725Y-39975D02*
X55475Y-40225D01*
X55625Y-37375D02*
X55875Y-37625D01*
X55875Y-37375D02*
X55625Y-37625D01*
X55755Y-40535D02*
X56005Y-40785D01*
X56005Y-40535D02*
X55755Y-40785D01*
X56025Y-35525D02*
X56275Y-35775D01*
X56275Y-35525D02*
X56025Y-35775D01*
X56075Y-39875D02*
X56325Y-40125D01*
X56325Y-39875D02*
X56075Y-40125D01*
X56275Y-33675D02*
X56525Y-33925D01*
X56525Y-33675D02*
X56275Y-33925D01*
X56275Y-38775D02*
X56525Y-39025D01*
X56525Y-38775D02*
X56275Y-39025D01*
X56425Y-40450D02*
X56675Y-40700D01*
X56675Y-40450D02*
X56425Y-40700D01*
X56625Y-34575D02*
X56875Y-34825D01*
X56875Y-34575D02*
X56625Y-34825D01*
X56895Y-33715D02*
X57145Y-33965D01*
X57145Y-33715D02*
X56895Y-33965D01*
X56975Y-40575D02*
X57225Y-40825D01*
X57225Y-40575D02*
X56975Y-40825D01*
X57225Y-34075D02*
X57475Y-34325D01*
X57475Y-34075D02*
X57225Y-34325D01*
X57275Y-39575D02*
X57525Y-39825D01*
X57525Y-39575D02*
X57275Y-39825D01*
X57375Y-41675D02*
X57625Y-41925D01*
X57625Y-41675D02*
X57375Y-41925D01*
X57675Y-33875D02*
X57925Y-34125D01*
X57925Y-33875D02*
X57675Y-34125D01*
X57995Y-40535D02*
X58245Y-40785D01*
X58245Y-40535D02*
X57995Y-40785D01*
X58175Y-36825D02*
X58425Y-37075D01*
X58425Y-36825D02*
X58175Y-37075D01*
X58350Y-40275D02*
X58600Y-40525D01*
X58600Y-40275D02*
X58350Y-40525D01*
X58475Y-33575D02*
X58725Y-33825D01*
X58725Y-33575D02*
X58475Y-33825D01*
X58575Y-42275D02*
X58825Y-42525D01*
X58825Y-42275D02*
X58575Y-42525D01*
X58875Y-39395D02*
X59125Y-39645D01*
X59125Y-39395D02*
X58875Y-39645D01*
X58895Y-38895D02*
X59145Y-39145D01*
X59145Y-38895D02*
X58895Y-39145D01*
X58925Y-36825D02*
X59175Y-37075D01*
X59175Y-36825D02*
X58925Y-37075D01*
X58975Y-36125D02*
X59225Y-36375D01*
X59225Y-36125D02*
X58975Y-36375D01*
X58975Y-38450D02*
X59225Y-38700D01*
X59225Y-38450D02*
X58975Y-38700D01*
X59375Y-33375D02*
X59625Y-33625D01*
X59625Y-33375D02*
X59375Y-33625D01*
X59675Y-40975D02*
X59925Y-41225D01*
X59925Y-40975D02*
X59675Y-41225D01*
X60275Y-42775D02*
X60525Y-43025D01*
X60525Y-42775D02*
X60275Y-43025D01*
X60325Y-36625D02*
X60575Y-36875D01*
X60575Y-36625D02*
X60325Y-36875D01*
X60425Y-34225D02*
X60675Y-34475D01*
X60675Y-34225D02*
X60425Y-34475D01*
X60523Y-41995D02*
X60773Y-42245D01*
X60773Y-41995D02*
X60523Y-42245D01*
X60675Y-38625D02*
X60925Y-38875D01*
X60925Y-38625D02*
X60675Y-38875D01*
X60675Y-44775D02*
X60925Y-45025D01*
X60925Y-44775D02*
X60675Y-45025D01*
X60725Y-45275D02*
X60975Y-45525D01*
X60975Y-45275D02*
X60725Y-45525D01*
X60875Y-36975D02*
X61125Y-37225D01*
X61125Y-36975D02*
X60875Y-37225D01*
X60975Y-41975D02*
X61225Y-42225D01*
X61225Y-41975D02*
X60975Y-42225D01*
X61325Y-41475D02*
X61575Y-41725D01*
X61575Y-41475D02*
X61325Y-41725D01*
X61700Y-42450D02*
X61950Y-42700D01*
X61950Y-42450D02*
X61700Y-42700D01*
X61775Y-40075D02*
X62025Y-40325D01*
X62025Y-40075D02*
X61775Y-40325D01*
X62125Y-32775D02*
X62375Y-33025D01*
X62375Y-32775D02*
X62125Y-33025D01*
X62375Y-37625D02*
X62625Y-37875D01*
X62625Y-37625D02*
X62375Y-37875D01*
X62675Y-41175D02*
X62925Y-41425D01*
X62925Y-41175D02*
X62675Y-41425D01*
X62875Y-38625D02*
X63125Y-38875D01*
X63125Y-38625D02*
X62875Y-38875D01*
X63075Y-40375D02*
X63325Y-40625D01*
X63325Y-40375D02*
X63075Y-40625D01*
X63125Y-39375D02*
X63375Y-39625D01*
X63375Y-39375D02*
X63125Y-39625D01*
X63525Y-33675D02*
X63775Y-33925D01*
X63775Y-33675D02*
X63525Y-33925D01*
X63775Y-46325D02*
X64025Y-46575D01*
X64025Y-46325D02*
X63775Y-46575D01*
X63975Y-32075D02*
X64225Y-32325D01*
X64225Y-32075D02*
X63975Y-32325D01*
X64625Y-42225D02*
X64875Y-42475D01*
X64875Y-42225D02*
X64625Y-42475D01*
X65025Y-34275D02*
X65275Y-34525D01*
X65275Y-34275D02*
X65025Y-34525D01*
X65325Y-40525D02*
X65575Y-40775D01*
X65575Y-40525D02*
X65325Y-40775D01*
X65375Y-37375D02*
X65625Y-37625D01*
X65625Y-37375D02*
X65375Y-37625D01*
X65375Y-38575D02*
X65625Y-38825D01*
X65625Y-38575D02*
X65375Y-38825D01*
X65675Y-45375D02*
X65925Y-45625D01*
X65925Y-45375D02*
X65675Y-45625D01*
X65825Y-38175D02*
X66075Y-38425D01*
X66075Y-38175D02*
X65825Y-38425D01*
X66075Y-43375D02*
X66325Y-43625D01*
X66325Y-43375D02*
X66075Y-43625D01*
X66075Y-45175D02*
X66325Y-45425D01*
X66325Y-45175D02*
X66075Y-45425D01*
X66115Y-44275D02*
X66365Y-44525D01*
X66365Y-44275D02*
X66115Y-44525D01*
X66175Y-35175D02*
X66425Y-35425D01*
X66425Y-35175D02*
X66175Y-35425D01*
X66475Y-43175D02*
X66725Y-43425D01*
X66725Y-43175D02*
X66475Y-43425D01*
X66575Y-42075D02*
X66825Y-42325D01*
X66825Y-42075D02*
X66575Y-42325D01*
X66576Y-42517D02*
X66826Y-42767D01*
X66826Y-42517D02*
X66576Y-42767D01*
X68425Y-36125D02*
X68675Y-36375D01*
X68675Y-36125D02*
X68425Y-36375D01*
X68555Y-41035D02*
X68805Y-41285D01*
X68805Y-41035D02*
X68555Y-41285D01*
X68625Y-35725D02*
X68875Y-35975D01*
X68875Y-35725D02*
X68625Y-35975D01*
X69075Y-36275D02*
X69325Y-36525D01*
X69325Y-36275D02*
X69075Y-36525D01*
X69325Y-32075D02*
X69575Y-32325D01*
X69575Y-32075D02*
X69325Y-32325D01*
X69325Y-32725D02*
X69575Y-32975D01*
X69575Y-32725D02*
X69325Y-32975D01*
X69625Y-37175D02*
X69875Y-37425D01*
X69875Y-37175D02*
X69625Y-37425D01*
X69675Y-35175D02*
X69925Y-35425D01*
X69925Y-35175D02*
X69675Y-35425D01*
X69875Y-36375D02*
X70125Y-36625D01*
X70125Y-36375D02*
X69875Y-36625D01*
X70875Y-39775D02*
X71125Y-40025D01*
X71125Y-39775D02*
X70875Y-40025D01*
X71275Y-37875D02*
X71525Y-38125D01*
X71525Y-37875D02*
X71275Y-38125D01*
X72175Y-44275D02*
X72425Y-44525D01*
X72425Y-44275D02*
X72175Y-44525D01*
X72175Y-46675D02*
X72425Y-46925D01*
X72425Y-46675D02*
X72175Y-46925D01*
X73915Y-37335D02*
X74165Y-37585D01*
X74165Y-37335D02*
X73915Y-37585D01*
X74225Y-43775D02*
X74475Y-44025D01*
X74475Y-43775D02*
X74225Y-44025D01*
X74975Y-40775D02*
X75225Y-41025D01*
X75225Y-40775D02*
X74975Y-41025D01*
X76075Y-36075D02*
X76325Y-36325D01*
X76325Y-36075D02*
X76075Y-36325D01*
X76175Y-32475D02*
X76425Y-32725D01*
X76425Y-32475D02*
X76175Y-32725D01*
X76175Y-33075D02*
X76425Y-33325D01*
X76425Y-33075D02*
X76175Y-33325D01*
X76175Y-35475D02*
X76425Y-35725D01*
X76425Y-35475D02*
X76175Y-35725D01*
X46298Y-46500D02*
X46294Y-46531D01*
X46285Y-46560D01*
X46271Y-46588D01*
X46251Y-46612D01*
X46227Y-46632D01*
X46200Y-46647D01*
X46170Y-46656D01*
X46139Y-46659D01*
X46109Y-46657D01*
X46079Y-46648D01*
X46051Y-46633D01*
X46027Y-46614D01*
X46006Y-46590D01*
X45991Y-46563D01*
X45982Y-46533D01*
X45979Y-46502D01*
X45981Y-46472D01*
X45990Y-46442D01*
X46004Y-46414D01*
X46023Y-46389D01*
X46047Y-46369D01*
X46074Y-46354D01*
X46104Y-46344D01*
X46135Y-46341D01*
X46165Y-46343D01*
X46195Y-46351D01*
X46223Y-46365D01*
X46248Y-46385D01*
X46268Y-46408D01*
X46284Y-46435D01*
X46294Y-46465D01*
X46297Y-46496D01*
X46298Y-46500D01*
X47085Y-46500D02*
X47081Y-46531D01*
X47072Y-46560D01*
X47058Y-46588D01*
X47038Y-46612D01*
X47014Y-46632D01*
X46987Y-46647D01*
X46957Y-46656D01*
X46926Y-46659D01*
X46896Y-46657D01*
X46866Y-46648D01*
X46838Y-46633D01*
X46814Y-46614D01*
X46793Y-46590D01*
X46778Y-46563D01*
X46769Y-46533D01*
X46766Y-46502D01*
X46768Y-46472D01*
X46777Y-46442D01*
X46791Y-46414D01*
X46810Y-46389D01*
X46834Y-46369D01*
X46861Y-46354D01*
X46891Y-46344D01*
X46922Y-46341D01*
X46952Y-46343D01*
X46982Y-46351D01*
X47010Y-46365D01*
X47035Y-46385D01*
X47055Y-46408D01*
X47071Y-46435D01*
X47081Y-46465D01*
X47084Y-46496D01*
X47085Y-46500D01*
X47569Y-33000D02*
X47565Y-33031D01*
X47556Y-33060D01*
X47542Y-33088D01*
X47522Y-33112D01*
X47498Y-33132D01*
X47471Y-33147D01*
X47441Y-33156D01*
X47410Y-33159D01*
X47380Y-33157D01*
X47350Y-33148D01*
X47322Y-33133D01*
X47298Y-33114D01*
X47277Y-33090D01*
X47262Y-33063D01*
X47253Y-33033D01*
X47250Y-33002D01*
X47252Y-32972D01*
X47261Y-32942D01*
X47275Y-32914D01*
X47294Y-32889D01*
X47318Y-32869D01*
X47345Y-32854D01*
X47375Y-32844D01*
X47406Y-32841D01*
X47436Y-32843D01*
X47466Y-32851D01*
X47494Y-32865D01*
X47519Y-32885D01*
X47539Y-32908D01*
X47555Y-32935D01*
X47565Y-32965D01*
X47568Y-32996D01*
X47569Y-33000D01*
X47569Y-36000D02*
X47565Y-36031D01*
X47556Y-36060D01*
X47542Y-36088D01*
X47522Y-36112D01*
X47498Y-36132D01*
X47471Y-36147D01*
X47441Y-36156D01*
X47410Y-36159D01*
X47380Y-36157D01*
X47350Y-36148D01*
X47322Y-36133D01*
X47298Y-36114D01*
X47277Y-36090D01*
X47262Y-36063D01*
X47253Y-36033D01*
X47250Y-36002D01*
X47252Y-35972D01*
X47261Y-35942D01*
X47275Y-35914D01*
X47294Y-35889D01*
X47318Y-35869D01*
X47345Y-35854D01*
X47375Y-35844D01*
X47406Y-35841D01*
X47436Y-35843D01*
X47466Y-35851D01*
X47494Y-35865D01*
X47519Y-35885D01*
X47539Y-35908D01*
X47555Y-35935D01*
X47565Y-35965D01*
X47568Y-35996D01*
X47569Y-36000D01*
X47873Y-46500D02*
X47869Y-46531D01*
X47860Y-46560D01*
X47846Y-46588D01*
X47826Y-46612D01*
X47802Y-46632D01*
X47775Y-46647D01*
X47745Y-46656D01*
X47714Y-46659D01*
X47684Y-46657D01*
X47654Y-46648D01*
X47626Y-46633D01*
X47602Y-46614D01*
X47581Y-46590D01*
X47566Y-46563D01*
X47557Y-46533D01*
X47554Y-46502D01*
X47556Y-46472D01*
X47565Y-46442D01*
X47579Y-46414D01*
X47598Y-46389D01*
X47622Y-46369D01*
X47649Y-46354D01*
X47679Y-46344D01*
X47710Y-46341D01*
X47740Y-46343D01*
X47770Y-46351D01*
X47798Y-46365D01*
X47823Y-46385D01*
X47843Y-46408D01*
X47859Y-46435D01*
X47869Y-46465D01*
X47872Y-46496D01*
X47873Y-46500D01*
X48660Y-46500D02*
X48656Y-46531D01*
X48647Y-46560D01*
X48633Y-46588D01*
X48613Y-46612D01*
X48589Y-46632D01*
X48562Y-46647D01*
X48532Y-46656D01*
X48501Y-46659D01*
X48471Y-46657D01*
X48441Y-46648D01*
X48413Y-46633D01*
X48389Y-46614D01*
X48368Y-46590D01*
X48353Y-46563D01*
X48344Y-46533D01*
X48341Y-46502D01*
X48343Y-46472D01*
X48352Y-46442D01*
X48366Y-46414D01*
X48385Y-46389D01*
X48409Y-46369D01*
X48436Y-46354D01*
X48466Y-46344D01*
X48497Y-46341D01*
X48527Y-46343D01*
X48557Y-46351D01*
X48585Y-46365D01*
X48610Y-46385D01*
X48630Y-46408D01*
X48646Y-46435D01*
X48656Y-46465D01*
X48659Y-46496D01*
X48660Y-46500D01*
X48751Y-33000D02*
X48747Y-33031D01*
X48738Y-33060D01*
X48724Y-33088D01*
X48704Y-33112D01*
X48680Y-33132D01*
X48653Y-33147D01*
X48623Y-33156D01*
X48592Y-33159D01*
X48562Y-33157D01*
X48532Y-33148D01*
X48504Y-33133D01*
X48480Y-33114D01*
X48459Y-33090D01*
X48444Y-33063D01*
X48435Y-33033D01*
X48432Y-33002D01*
X48434Y-32972D01*
X48443Y-32942D01*
X48457Y-32914D01*
X48476Y-32889D01*
X48500Y-32869D01*
X48527Y-32854D01*
X48557Y-32844D01*
X48588Y-32841D01*
X48618Y-32843D01*
X48648Y-32851D01*
X48676Y-32865D01*
X48701Y-32885D01*
X48721Y-32908D01*
X48737Y-32935D01*
X48747Y-32965D01*
X48750Y-32996D01*
X48751Y-33000D01*
X48751Y-36000D02*
X48747Y-36031D01*
X48738Y-36060D01*
X48724Y-36088D01*
X48704Y-36112D01*
X48680Y-36132D01*
X48653Y-36147D01*
X48623Y-36156D01*
X48592Y-36159D01*
X48562Y-36157D01*
X48532Y-36148D01*
X48504Y-36133D01*
X48480Y-36114D01*
X48459Y-36090D01*
X48444Y-36063D01*
X48435Y-36033D01*
X48432Y-36002D01*
X48434Y-35972D01*
X48443Y-35942D01*
X48457Y-35914D01*
X48476Y-35889D01*
X48500Y-35869D01*
X48527Y-35854D01*
X48557Y-35844D01*
X48588Y-35841D01*
X48618Y-35843D01*
X48648Y-35851D01*
X48676Y-35865D01*
X48701Y-35885D01*
X48721Y-35908D01*
X48737Y-35935D01*
X48747Y-35965D01*
X48750Y-35996D01*
X48751Y-36000D01*
X49447Y-46500D02*
X49443Y-46531D01*
X49434Y-46560D01*
X49420Y-46588D01*
X49400Y-46612D01*
X49376Y-46632D01*
X49349Y-46647D01*
X49319Y-46656D01*
X49288Y-46659D01*
X49258Y-46657D01*
X49228Y-46648D01*
X49200Y-46633D01*
X49176Y-46614D01*
X49155Y-46590D01*
X49140Y-46563D01*
X49131Y-46533D01*
X49128Y-46502D01*
X49130Y-46472D01*
X49139Y-46442D01*
X49153Y-46414D01*
X49172Y-46389D01*
X49196Y-46369D01*
X49223Y-46354D01*
X49253Y-46344D01*
X49284Y-46341D01*
X49314Y-46343D01*
X49344Y-46351D01*
X49372Y-46365D01*
X49397Y-46385D01*
X49417Y-46408D01*
X49433Y-46435D01*
X49443Y-46465D01*
X49446Y-46496D01*
X49447Y-46500D01*
X50235Y-46500D02*
X50231Y-46531D01*
X50222Y-46560D01*
X50208Y-46588D01*
X50188Y-46612D01*
X50164Y-46632D01*
X50137Y-46647D01*
X50107Y-46656D01*
X50076Y-46659D01*
X50046Y-46657D01*
X50016Y-46648D01*
X49988Y-46633D01*
X49964Y-46614D01*
X49943Y-46590D01*
X49928Y-46563D01*
X49919Y-46533D01*
X49916Y-46502D01*
X49918Y-46472D01*
X49927Y-46442D01*
X49941Y-46414D01*
X49960Y-46389D01*
X49984Y-46369D01*
X50011Y-46354D01*
X50041Y-46344D01*
X50072Y-46341D01*
X50102Y-46343D01*
X50132Y-46351D01*
X50160Y-46365D01*
X50185Y-46385D01*
X50205Y-46408D01*
X50221Y-46435D01*
X50231Y-46465D01*
X50234Y-46496D01*
X50235Y-46500D01*
X51022Y-46500D02*
X51018Y-46531D01*
X51009Y-46560D01*
X50995Y-46588D01*
X50975Y-46612D01*
X50951Y-46632D01*
X50924Y-46647D01*
X50894Y-46656D01*
X50863Y-46659D01*
X50833Y-46657D01*
X50803Y-46648D01*
X50775Y-46633D01*
X50751Y-46614D01*
X50730Y-46590D01*
X50715Y-46563D01*
X50706Y-46533D01*
X50703Y-46502D01*
X50705Y-46472D01*
X50714Y-46442D01*
X50728Y-46414D01*
X50747Y-46389D01*
X50771Y-46369D01*
X50798Y-46354D01*
X50828Y-46344D01*
X50859Y-46341D01*
X50889Y-46343D01*
X50919Y-46351D01*
X50947Y-46365D01*
X50972Y-46385D01*
X50992Y-46408D01*
X51008Y-46435D01*
X51018Y-46465D01*
X51021Y-46496D01*
X51022Y-46500D01*
X51810Y-46500D02*
X51806Y-46531D01*
X51797Y-46560D01*
X51783Y-46588D01*
X51763Y-46612D01*
X51739Y-46632D01*
X51712Y-46647D01*
X51682Y-46656D01*
X51651Y-46659D01*
X51621Y-46657D01*
X51591Y-46648D01*
X51563Y-46633D01*
X51539Y-46614D01*
X51518Y-46590D01*
X51503Y-46563D01*
X51494Y-46533D01*
X51491Y-46502D01*
X51493Y-46472D01*
X51502Y-46442D01*
X51516Y-46414D01*
X51535Y-46389D01*
X51559Y-46369D01*
X51586Y-46354D01*
X51616Y-46344D01*
X51647Y-46341D01*
X51677Y-46343D01*
X51707Y-46351D01*
X51735Y-46365D01*
X51760Y-46385D01*
X51780Y-46408D01*
X51796Y-46435D01*
X51806Y-46465D01*
X51809Y-46496D01*
X51810Y-46500D01*
X64660Y-35638D02*
X64656Y-35669D01*
X64647Y-35698D01*
X64633Y-35726D01*
X64613Y-35750D01*
X64589Y-35770D01*
X64562Y-35785D01*
X64532Y-35794D01*
X64501Y-35797D01*
X64471Y-35795D01*
X64441Y-35786D01*
X64413Y-35771D01*
X64389Y-35752D01*
X64368Y-35728D01*
X64353Y-35701D01*
X64344Y-35671D01*
X64341Y-35640D01*
X64343Y-35610D01*
X64352Y-35580D01*
X64366Y-35552D01*
X64385Y-35527D01*
X64409Y-35507D01*
X64436Y-35492D01*
X64466Y-35482D01*
X64497Y-35479D01*
X64527Y-35481D01*
X64557Y-35489D01*
X64585Y-35503D01*
X64610Y-35523D01*
X64630Y-35546D01*
X64646Y-35573D01*
X64656Y-35603D01*
X64659Y-35634D01*
X64660Y-35638D01*
X64660Y-36425D02*
X64656Y-36456D01*
X64647Y-36485D01*
X64633Y-36513D01*
X64613Y-36537D01*
X64589Y-36557D01*
X64562Y-36572D01*
X64532Y-36581D01*
X64501Y-36584D01*
X64471Y-36582D01*
X64441Y-36573D01*
X64413Y-36558D01*
X64389Y-36539D01*
X64368Y-36515D01*
X64353Y-36488D01*
X64344Y-36458D01*
X64341Y-36427D01*
X64343Y-36397D01*
X64352Y-36367D01*
X64366Y-36339D01*
X64385Y-36314D01*
X64409Y-36294D01*
X64436Y-36279D01*
X64466Y-36269D01*
X64497Y-36266D01*
X64527Y-36268D01*
X64557Y-36276D01*
X64585Y-36290D01*
X64610Y-36310D01*
X64630Y-36333D01*
X64646Y-36360D01*
X64656Y-36390D01*
X64659Y-36421D01*
X64660Y-36425D01*
X64660Y-37213D02*
X64656Y-37244D01*
X64647Y-37273D01*
X64633Y-37301D01*
X64613Y-37325D01*
X64589Y-37345D01*
X64562Y-37360D01*
X64532Y-37369D01*
X64501Y-37372D01*
X64471Y-37370D01*
X64441Y-37361D01*
X64413Y-37346D01*
X64389Y-37327D01*
X64368Y-37303D01*
X64353Y-37276D01*
X64344Y-37246D01*
X64341Y-37215D01*
X64343Y-37185D01*
X64352Y-37155D01*
X64366Y-37127D01*
X64385Y-37102D01*
X64409Y-37082D01*
X64436Y-37067D01*
X64466Y-37057D01*
X64497Y-37054D01*
X64527Y-37056D01*
X64557Y-37064D01*
X64585Y-37078D01*
X64610Y-37098D01*
X64630Y-37121D01*
X64646Y-37148D01*
X64656Y-37178D01*
X64659Y-37209D01*
X64660Y-37213D01*
X64660Y-38000D02*
X64656Y-38031D01*
X64647Y-38060D01*
X64633Y-38088D01*
X64613Y-38112D01*
X64589Y-38132D01*
X64562Y-38147D01*
X64532Y-38156D01*
X64501Y-38159D01*
X64471Y-38157D01*
X64441Y-38148D01*
X64413Y-38133D01*
X64389Y-38114D01*
X64368Y-38090D01*
X64353Y-38063D01*
X64344Y-38033D01*
X64341Y-38002D01*
X64343Y-37972D01*
X64352Y-37942D01*
X64366Y-37914D01*
X64385Y-37889D01*
X64409Y-37869D01*
X64436Y-37854D01*
X64466Y-37844D01*
X64497Y-37841D01*
X64527Y-37843D01*
X64557Y-37851D01*
X64585Y-37865D01*
X64610Y-37885D01*
X64630Y-37908D01*
X64646Y-37935D01*
X64656Y-37965D01*
X64659Y-37996D01*
X64660Y-38000D01*
X64660Y-38787D02*
X64656Y-38818D01*
X64647Y-38847D01*
X64633Y-38875D01*
X64613Y-38899D01*
X64589Y-38919D01*
X64562Y-38934D01*
X64532Y-38943D01*
X64501Y-38946D01*
X64471Y-38944D01*
X64441Y-38935D01*
X64413Y-38920D01*
X64389Y-38901D01*
X64368Y-38877D01*
X64353Y-38850D01*
X64344Y-38820D01*
X64341Y-38789D01*
X64343Y-38759D01*
X64352Y-38729D01*
X64366Y-38701D01*
X64385Y-38676D01*
X64409Y-38656D01*
X64436Y-38641D01*
X64466Y-38631D01*
X64497Y-38628D01*
X64527Y-38630D01*
X64557Y-38638D01*
X64585Y-38652D01*
X64610Y-38672D01*
X64630Y-38695D01*
X64646Y-38722D01*
X64656Y-38752D01*
X64659Y-38783D01*
X64660Y-38787D01*
X64660Y-39575D02*
X64656Y-39606D01*
X64647Y-39635D01*
X64633Y-39663D01*
X64613Y-39687D01*
X64589Y-39707D01*
X64562Y-39722D01*
X64532Y-39731D01*
X64501Y-39734D01*
X64471Y-39732D01*
X64441Y-39723D01*
X64413Y-39708D01*
X64389Y-39689D01*
X64368Y-39665D01*
X64353Y-39638D01*
X64344Y-39608D01*
X64341Y-39577D01*
X64343Y-39547D01*
X64352Y-39517D01*
X64366Y-39489D01*
X64385Y-39464D01*
X64409Y-39444D01*
X64436Y-39429D01*
X64466Y-39419D01*
X64497Y-39416D01*
X64527Y-39418D01*
X64557Y-39426D01*
X64585Y-39440D01*
X64610Y-39460D01*
X64630Y-39483D01*
X64646Y-39510D01*
X64656Y-39540D01*
X64659Y-39571D01*
X64660Y-39575D01*
X64660Y-40362D02*
X64656Y-40393D01*
X64647Y-40422D01*
X64633Y-40450D01*
X64613Y-40474D01*
X64589Y-40494D01*
X64562Y-40509D01*
X64532Y-40518D01*
X64501Y-40521D01*
X64471Y-40519D01*
X64441Y-40510D01*
X64413Y-40495D01*
X64389Y-40476D01*
X64368Y-40452D01*
X64353Y-40425D01*
X64344Y-40395D01*
X64341Y-40364D01*
X64343Y-40334D01*
X64352Y-40304D01*
X64366Y-40276D01*
X64385Y-40251D01*
X64409Y-40231D01*
X64436Y-40216D01*
X64466Y-40206D01*
X64497Y-40203D01*
X64527Y-40205D01*
X64557Y-40213D01*
X64585Y-40227D01*
X64610Y-40247D01*
X64630Y-40270D01*
X64646Y-40297D01*
X64656Y-40327D01*
X64659Y-40358D01*
X64660Y-40362D01*
X64660Y-41150D02*
X64656Y-41181D01*
X64647Y-41210D01*
X64633Y-41238D01*
X64613Y-41262D01*
X64589Y-41282D01*
X64562Y-41297D01*
X64532Y-41306D01*
X64501Y-41309D01*
X64471Y-41307D01*
X64441Y-41298D01*
X64413Y-41283D01*
X64389Y-41264D01*
X64368Y-41240D01*
X64353Y-41213D01*
X64344Y-41183D01*
X64341Y-41152D01*
X64343Y-41122D01*
X64352Y-41092D01*
X64366Y-41064D01*
X64385Y-41039D01*
X64409Y-41019D01*
X64436Y-41004D01*
X64466Y-40994D01*
X64497Y-40991D01*
X64527Y-40993D01*
X64557Y-41001D01*
X64585Y-41015D01*
X64610Y-41035D01*
X64630Y-41058D01*
X64646Y-41085D01*
X64656Y-41115D01*
X64659Y-41146D01*
X64660Y-41150D01*
X67810Y-35638D02*
X67806Y-35669D01*
X67797Y-35698D01*
X67783Y-35726D01*
X67763Y-35750D01*
X67739Y-35770D01*
X67712Y-35785D01*
X67682Y-35794D01*
X67651Y-35797D01*
X67621Y-35795D01*
X67591Y-35786D01*
X67563Y-35771D01*
X67539Y-35752D01*
X67518Y-35728D01*
X67503Y-35701D01*
X67494Y-35671D01*
X67491Y-35640D01*
X67493Y-35610D01*
X67502Y-35580D01*
X67516Y-35552D01*
X67535Y-35527D01*
X67559Y-35507D01*
X67586Y-35492D01*
X67616Y-35482D01*
X67647Y-35479D01*
X67677Y-35481D01*
X67707Y-35489D01*
X67735Y-35503D01*
X67760Y-35523D01*
X67780Y-35546D01*
X67796Y-35573D01*
X67806Y-35603D01*
X67809Y-35634D01*
X67810Y-35638D01*
X67810Y-36425D02*
X67806Y-36456D01*
X67797Y-36485D01*
X67783Y-36513D01*
X67763Y-36537D01*
X67739Y-36557D01*
X67712Y-36572D01*
X67682Y-36581D01*
X67651Y-36584D01*
X67621Y-36582D01*
X67591Y-36573D01*
X67563Y-36558D01*
X67539Y-36539D01*
X67518Y-36515D01*
X67503Y-36488D01*
X67494Y-36458D01*
X67491Y-36427D01*
X67493Y-36397D01*
X67502Y-36367D01*
X67516Y-36339D01*
X67535Y-36314D01*
X67559Y-36294D01*
X67586Y-36279D01*
X67616Y-36269D01*
X67647Y-36266D01*
X67677Y-36268D01*
X67707Y-36276D01*
X67735Y-36290D01*
X67760Y-36310D01*
X67780Y-36333D01*
X67796Y-36360D01*
X67806Y-36390D01*
X67809Y-36421D01*
X67810Y-36425D01*
X67810Y-37213D02*
X67806Y-37244D01*
X67797Y-37273D01*
X67783Y-37301D01*
X67763Y-37325D01*
X67739Y-37345D01*
X67712Y-37360D01*
X67682Y-37369D01*
X67651Y-37372D01*
X67621Y-37370D01*
X67591Y-37361D01*
X67563Y-37346D01*
X67539Y-37327D01*
X67518Y-37303D01*
X67503Y-37276D01*
X67494Y-37246D01*
X67491Y-37215D01*
X67493Y-37185D01*
X67502Y-37155D01*
X67516Y-37127D01*
X67535Y-37102D01*
X67559Y-37082D01*
X67586Y-37067D01*
X67616Y-37057D01*
X67647Y-37054D01*
X67677Y-37056D01*
X67707Y-37064D01*
X67735Y-37078D01*
X67760Y-37098D01*
X67780Y-37121D01*
X67796Y-37148D01*
X67806Y-37178D01*
X67809Y-37209D01*
X67810Y-37213D01*
X67810Y-38000D02*
X67806Y-38031D01*
X67797Y-38060D01*
X67783Y-38088D01*
X67763Y-38112D01*
X67739Y-38132D01*
X67712Y-38147D01*
X67682Y-38156D01*
X67651Y-38159D01*
X67621Y-38157D01*
X67591Y-38148D01*
X67563Y-38133D01*
X67539Y-38114D01*
X67518Y-38090D01*
X67503Y-38063D01*
X67494Y-38033D01*
X67491Y-38002D01*
X67493Y-37972D01*
X67502Y-37942D01*
X67516Y-37914D01*
X67535Y-37889D01*
X67559Y-37869D01*
X67586Y-37854D01*
X67616Y-37844D01*
X67647Y-37841D01*
X67677Y-37843D01*
X67707Y-37851D01*
X67735Y-37865D01*
X67760Y-37885D01*
X67780Y-37908D01*
X67796Y-37935D01*
X67806Y-37965D01*
X67809Y-37996D01*
X67810Y-38000D01*
X67810Y-38787D02*
X67806Y-38818D01*
X67797Y-38847D01*
X67783Y-38875D01*
X67763Y-38899D01*
X67739Y-38919D01*
X67712Y-38934D01*
X67682Y-38943D01*
X67651Y-38946D01*
X67621Y-38944D01*
X67591Y-38935D01*
X67563Y-38920D01*
X67539Y-38901D01*
X67518Y-38877D01*
X67503Y-38850D01*
X67494Y-38820D01*
X67491Y-38789D01*
X67493Y-38759D01*
X67502Y-38729D01*
X67516Y-38701D01*
X67535Y-38676D01*
X67559Y-38656D01*
X67586Y-38641D01*
X67616Y-38631D01*
X67647Y-38628D01*
X67677Y-38630D01*
X67707Y-38638D01*
X67735Y-38652D01*
X67760Y-38672D01*
X67780Y-38695D01*
X67796Y-38722D01*
X67806Y-38752D01*
X67809Y-38783D01*
X67810Y-38787D01*
X67810Y-39575D02*
X67806Y-39606D01*
X67797Y-39635D01*
X67783Y-39663D01*
X67763Y-39687D01*
X67739Y-39707D01*
X67712Y-39722D01*
X67682Y-39731D01*
X67651Y-39734D01*
X67621Y-39732D01*
X67591Y-39723D01*
X67563Y-39708D01*
X67539Y-39689D01*
X67518Y-39665D01*
X67503Y-39638D01*
X67494Y-39608D01*
X67491Y-39577D01*
X67493Y-39547D01*
X67502Y-39517D01*
X67516Y-39489D01*
X67535Y-39464D01*
X67559Y-39444D01*
X67586Y-39429D01*
X67616Y-39419D01*
X67647Y-39416D01*
X67677Y-39418D01*
X67707Y-39426D01*
X67735Y-39440D01*
X67760Y-39460D01*
X67780Y-39483D01*
X67796Y-39510D01*
X67806Y-39540D01*
X67809Y-39571D01*
X67810Y-39575D01*
X67810Y-40362D02*
X67806Y-40393D01*
X67797Y-40422D01*
X67783Y-40450D01*
X67763Y-40474D01*
X67739Y-40494D01*
X67712Y-40509D01*
X67682Y-40518D01*
X67651Y-40521D01*
X67621Y-40519D01*
X67591Y-40510D01*
X67563Y-40495D01*
X67539Y-40476D01*
X67518Y-40452D01*
X67503Y-40425D01*
X67494Y-40395D01*
X67491Y-40364D01*
X67493Y-40334D01*
X67502Y-40304D01*
X67516Y-40276D01*
X67535Y-40251D01*
X67559Y-40231D01*
X67586Y-40216D01*
X67616Y-40206D01*
X67647Y-40203D01*
X67677Y-40205D01*
X67707Y-40213D01*
X67735Y-40227D01*
X67760Y-40247D01*
X67780Y-40270D01*
X67796Y-40297D01*
X67806Y-40327D01*
X67809Y-40358D01*
X67810Y-40362D01*
X67810Y-41150D02*
X67806Y-41181D01*
X67797Y-41210D01*
X67783Y-41238D01*
X67763Y-41262D01*
X67739Y-41282D01*
X67712Y-41297D01*
X67682Y-41306D01*
X67651Y-41309D01*
X67621Y-41307D01*
X67591Y-41298D01*
X67563Y-41283D01*
X67539Y-41264D01*
X67518Y-41240D01*
X67503Y-41213D01*
X67494Y-41183D01*
X67491Y-41152D01*
X67493Y-41122D01*
X67502Y-41092D01*
X67516Y-41064D01*
X67535Y-41039D01*
X67559Y-41019D01*
X67586Y-41004D01*
X67616Y-40994D01*
X67647Y-40991D01*
X67677Y-40993D01*
X67707Y-41001D01*
X67735Y-41015D01*
X67760Y-41035D01*
X67780Y-41058D01*
X67796Y-41085D01*
X67806Y-41115D01*
X67809Y-41146D01*
X67810Y-41150D01*
X79370Y-41165D02*
X79370Y-41515D01*
X79545Y-41340D02*
X79195Y-41340D01*
X79370Y-41965D02*
X79370Y-42315D01*
X79545Y-42140D02*
X79195Y-42140D01*
X79370Y-42765D02*
X79370Y-43115D01*
X79545Y-42940D02*
X79195Y-42940D01*
X79370Y-43565D02*
X79370Y-43915D01*
X79545Y-43740D02*
X79195Y-43740D01*
X79370Y-44365D02*
X79370Y-44715D01*
X79545Y-44540D02*
X79195Y-44540D01*
X79370Y-45165D02*
X79370Y-45515D01*
X79545Y-45340D02*
X79195Y-45340D01*
X34500Y-42200D02*
X34496Y-42238D01*
X34484Y-42276D01*
X34466Y-42310D01*
X34441Y-42340D01*
X34411Y-42365D01*
X34377Y-42384D01*
X34340Y-42395D01*
X34301Y-42399D01*
X34263Y-42396D01*
X34226Y-42385D01*
X34191Y-42367D01*
X34161Y-42342D01*
X34135Y-42312D01*
X34117Y-42278D01*
X34105Y-42241D01*
X34101Y-42202D01*
X34104Y-42164D01*
X34115Y-42127D01*
X34132Y-42092D01*
X34157Y-42062D01*
X34186Y-42036D01*
X34220Y-42017D01*
X34258Y-42005D01*
X34296Y-42001D01*
X34334Y-42004D01*
X34372Y-42014D01*
X34407Y-42032D01*
X34437Y-42056D01*
X34463Y-42085D01*
X34482Y-42119D01*
X34495Y-42156D01*
X34499Y-42195D01*
X34500Y-42200D01*
X34100Y-42000D02*
X34500Y-42400D01*
X34500Y-42000D02*
X34100Y-42400D01*
X35500Y-42200D02*
X35496Y-42238D01*
X35484Y-42276D01*
X35466Y-42310D01*
X35441Y-42340D01*
X35411Y-42365D01*
X35377Y-42384D01*
X35340Y-42395D01*
X35301Y-42399D01*
X35263Y-42396D01*
X35226Y-42385D01*
X35191Y-42367D01*
X35161Y-42342D01*
X35135Y-42312D01*
X35117Y-42278D01*
X35105Y-42241D01*
X35101Y-42202D01*
X35104Y-42164D01*
X35115Y-42127D01*
X35132Y-42092D01*
X35157Y-42062D01*
X35186Y-42036D01*
X35220Y-42017D01*
X35258Y-42005D01*
X35296Y-42001D01*
X35334Y-42004D01*
X35372Y-42014D01*
X35407Y-42032D01*
X35437Y-42056D01*
X35463Y-42085D01*
X35482Y-42119D01*
X35495Y-42156D01*
X35499Y-42195D01*
X35500Y-42200D01*
X35100Y-42000D02*
X35500Y-42400D01*
X35500Y-42000D02*
X35100Y-42400D01*
X45600Y-37900D02*
X45596Y-37938D01*
X45584Y-37976D01*
X45566Y-38010D01*
X45541Y-38040D01*
X45511Y-38065D01*
X45477Y-38084D01*
X45440Y-38095D01*
X45401Y-38099D01*
X45363Y-38096D01*
X45326Y-38085D01*
X45291Y-38067D01*
X45261Y-38042D01*
X45235Y-38012D01*
X45217Y-37978D01*
X45205Y-37941D01*
X45201Y-37902D01*
X45204Y-37864D01*
X45215Y-37827D01*
X45232Y-37792D01*
X45257Y-37762D01*
X45286Y-37736D01*
X45320Y-37717D01*
X45358Y-37705D01*
X45396Y-37701D01*
X45434Y-37704D01*
X45472Y-37714D01*
X45507Y-37732D01*
X45537Y-37756D01*
X45563Y-37785D01*
X45582Y-37819D01*
X45595Y-37856D01*
X45599Y-37895D01*
X45600Y-37900D01*
X45200Y-37700D02*
X45600Y-38100D01*
X45600Y-37700D02*
X45200Y-38100D01*
X46600Y-37900D02*
X46596Y-37938D01*
X46584Y-37976D01*
X46566Y-38010D01*
X46541Y-38040D01*
X46511Y-38065D01*
X46477Y-38084D01*
X46440Y-38095D01*
X46401Y-38099D01*
X46363Y-38096D01*
X46326Y-38085D01*
X46291Y-38067D01*
X46261Y-38042D01*
X46235Y-38012D01*
X46217Y-37978D01*
X46205Y-37941D01*
X46201Y-37902D01*
X46204Y-37864D01*
X46215Y-37827D01*
X46232Y-37792D01*
X46257Y-37762D01*
X46286Y-37736D01*
X46320Y-37717D01*
X46358Y-37705D01*
X46396Y-37701D01*
X46434Y-37704D01*
X46472Y-37714D01*
X46507Y-37732D01*
X46537Y-37756D01*
X46563Y-37785D01*
X46582Y-37819D01*
X46595Y-37856D01*
X46599Y-37895D01*
X46600Y-37900D01*
X46200Y-37700D02*
X46600Y-38100D01*
X46600Y-37700D02*
X46200Y-38100D01*
X54700Y-32700D02*
X54696Y-32738D01*
X54684Y-32776D01*
X54666Y-32810D01*
X54641Y-32840D01*
X54611Y-32865D01*
X54577Y-32884D01*
X54540Y-32895D01*
X54501Y-32899D01*
X54463Y-32896D01*
X54426Y-32885D01*
X54391Y-32867D01*
X54361Y-32842D01*
X54335Y-32812D01*
X54317Y-32778D01*
X54305Y-32741D01*
X54301Y-32702D01*
X54304Y-32664D01*
X54315Y-32627D01*
X54332Y-32592D01*
X54357Y-32562D01*
X54386Y-32536D01*
X54420Y-32517D01*
X54458Y-32505D01*
X54496Y-32501D01*
X54534Y-32504D01*
X54572Y-32514D01*
X54607Y-32532D01*
X54637Y-32556D01*
X54663Y-32585D01*
X54682Y-32619D01*
X54695Y-32656D01*
X54699Y-32695D01*
X54700Y-32700D01*
X54300Y-32500D02*
X54700Y-32900D01*
X54700Y-32500D02*
X54300Y-32900D01*
X55700Y-32700D02*
X55696Y-32738D01*
X55684Y-32776D01*
X55666Y-32810D01*
X55641Y-32840D01*
X55611Y-32865D01*
X55577Y-32884D01*
X55540Y-32895D01*
X55501Y-32899D01*
X55463Y-32896D01*
X55426Y-32885D01*
X55391Y-32867D01*
X55361Y-32842D01*
X55335Y-32812D01*
X55317Y-32778D01*
X55305Y-32741D01*
X55301Y-32702D01*
X55304Y-32664D01*
X55315Y-32627D01*
X55332Y-32592D01*
X55357Y-32562D01*
X55386Y-32536D01*
X55420Y-32517D01*
X55458Y-32505D01*
X55496Y-32501D01*
X55534Y-32504D01*
X55572Y-32514D01*
X55607Y-32532D01*
X55637Y-32556D01*
X55663Y-32585D01*
X55682Y-32619D01*
X55695Y-32656D01*
X55699Y-32695D01*
X55700Y-32700D01*
X55300Y-32500D02*
X55700Y-32900D01*
X55700Y-32500D02*
X55300Y-32900D01*
X56700Y-32700D02*
X56696Y-32738D01*
X56684Y-32776D01*
X56666Y-32810D01*
X56641Y-32840D01*
X56611Y-32865D01*
X56577Y-32884D01*
X56540Y-32895D01*
X56501Y-32899D01*
X56463Y-32896D01*
X56426Y-32885D01*
X56391Y-32867D01*
X56361Y-32842D01*
X56335Y-32812D01*
X56317Y-32778D01*
X56305Y-32741D01*
X56301Y-32702D01*
X56304Y-32664D01*
X56315Y-32627D01*
X56332Y-32592D01*
X56357Y-32562D01*
X56386Y-32536D01*
X56420Y-32517D01*
X56458Y-32505D01*
X56496Y-32501D01*
X56534Y-32504D01*
X56572Y-32514D01*
X56607Y-32532D01*
X56637Y-32556D01*
X56663Y-32585D01*
X56682Y-32619D01*
X56695Y-32656D01*
X56699Y-32695D01*
X56700Y-32700D01*
X56300Y-32500D02*
X56700Y-32900D01*
X56700Y-32500D02*
X56300Y-32900D01*
X57700Y-32700D02*
X57696Y-32738D01*
X57684Y-32776D01*
X57666Y-32810D01*
X57641Y-32840D01*
X57611Y-32865D01*
X57577Y-32884D01*
X57540Y-32895D01*
X57501Y-32899D01*
X57463Y-32896D01*
X57426Y-32885D01*
X57391Y-32867D01*
X57361Y-32842D01*
X57335Y-32812D01*
X57317Y-32778D01*
X57305Y-32741D01*
X57301Y-32702D01*
X57304Y-32664D01*
X57315Y-32627D01*
X57332Y-32592D01*
X57357Y-32562D01*
X57386Y-32536D01*
X57420Y-32517D01*
X57458Y-32505D01*
X57496Y-32501D01*
X57534Y-32504D01*
X57572Y-32514D01*
X57607Y-32532D01*
X57637Y-32556D01*
X57663Y-32585D01*
X57682Y-32619D01*
X57695Y-32656D01*
X57699Y-32695D01*
X57700Y-32700D01*
X57300Y-32500D02*
X57700Y-32900D01*
X57700Y-32500D02*
X57300Y-32900D01*
X58700Y-32700D02*
X58696Y-32738D01*
X58684Y-32776D01*
X58666Y-32810D01*
X58641Y-32840D01*
X58611Y-32865D01*
X58577Y-32884D01*
X58540Y-32895D01*
X58501Y-32899D01*
X58463Y-32896D01*
X58426Y-32885D01*
X58391Y-32867D01*
X58361Y-32842D01*
X58335Y-32812D01*
X58317Y-32778D01*
X58305Y-32741D01*
X58301Y-32702D01*
X58304Y-32664D01*
X58315Y-32627D01*
X58332Y-32592D01*
X58357Y-32562D01*
X58386Y-32536D01*
X58420Y-32517D01*
X58458Y-32505D01*
X58496Y-32501D01*
X58534Y-32504D01*
X58572Y-32514D01*
X58607Y-32532D01*
X58637Y-32556D01*
X58663Y-32585D01*
X58682Y-32619D01*
X58695Y-32656D01*
X58699Y-32695D01*
X58700Y-32700D01*
X58300Y-32500D02*
X58700Y-32900D01*
X58700Y-32500D02*
X58300Y-32900D01*
X59700Y-32700D02*
X59696Y-32738D01*
X59684Y-32776D01*
X59666Y-32810D01*
X59641Y-32840D01*
X59611Y-32865D01*
X59577Y-32884D01*
X59540Y-32895D01*
X59501Y-32899D01*
X59463Y-32896D01*
X59426Y-32885D01*
X59391Y-32867D01*
X59361Y-32842D01*
X59335Y-32812D01*
X59317Y-32778D01*
X59305Y-32741D01*
X59301Y-32702D01*
X59304Y-32664D01*
X59315Y-32627D01*
X59332Y-32592D01*
X59357Y-32562D01*
X59386Y-32536D01*
X59420Y-32517D01*
X59458Y-32505D01*
X59496Y-32501D01*
X59534Y-32504D01*
X59572Y-32514D01*
X59607Y-32532D01*
X59637Y-32556D01*
X59663Y-32585D01*
X59682Y-32619D01*
X59695Y-32656D01*
X59699Y-32695D01*
X59700Y-32700D01*
X59300Y-32500D02*
X59700Y-32900D01*
X59700Y-32500D02*
X59300Y-32900D01*
X67700Y-32500D02*
X67696Y-32538D01*
X67684Y-32576D01*
X67666Y-32610D01*
X67641Y-32640D01*
X67611Y-32665D01*
X67577Y-32684D01*
X67540Y-32695D01*
X67501Y-32699D01*
X67463Y-32696D01*
X67426Y-32685D01*
X67391Y-32667D01*
X67361Y-32642D01*
X67335Y-32612D01*
X67317Y-32578D01*
X67305Y-32541D01*
X67301Y-32502D01*
X67304Y-32464D01*
X67315Y-32427D01*
X67332Y-32392D01*
X67357Y-32362D01*
X67386Y-32336D01*
X67420Y-32317D01*
X67458Y-32305D01*
X67496Y-32301D01*
X67534Y-32304D01*
X67572Y-32314D01*
X67607Y-32332D01*
X67637Y-32356D01*
X67663Y-32385D01*
X67682Y-32419D01*
X67695Y-32456D01*
X67699Y-32495D01*
X67700Y-32500D01*
X67300Y-32300D02*
X67700Y-32700D01*
X67700Y-32300D02*
X67300Y-32700D01*
X68700Y-32500D02*
X68696Y-32538D01*
X68684Y-32576D01*
X68666Y-32610D01*
X68641Y-32640D01*
X68611Y-32665D01*
X68577Y-32684D01*
X68540Y-32695D01*
X68501Y-32699D01*
X68463Y-32696D01*
X68426Y-32685D01*
X68391Y-32667D01*
X68361Y-32642D01*
X68335Y-32612D01*
X68317Y-32578D01*
X68305Y-32541D01*
X68301Y-32502D01*
X68304Y-32464D01*
X68315Y-32427D01*
X68332Y-32392D01*
X68357Y-32362D01*
X68386Y-32336D01*
X68420Y-32317D01*
X68458Y-32305D01*
X68496Y-32301D01*
X68534Y-32304D01*
X68572Y-32314D01*
X68607Y-32332D01*
X68637Y-32356D01*
X68663Y-32385D01*
X68682Y-32419D01*
X68695Y-32456D01*
X68699Y-32495D01*
X68700Y-32500D01*
X68300Y-32300D02*
X68700Y-32700D01*
X68700Y-32300D02*
X68300Y-32700D01*
X78600Y-40500D02*
X78596Y-40538D01*
X78584Y-40576D01*
X78566Y-40610D01*
X78541Y-40640D01*
X78511Y-40665D01*
X78477Y-40684D01*
X78440Y-40695D01*
X78401Y-40699D01*
X78363Y-40696D01*
X78326Y-40685D01*
X78291Y-40667D01*
X78261Y-40642D01*
X78235Y-40612D01*
X78217Y-40578D01*
X78205Y-40541D01*
X78201Y-40502D01*
X78204Y-40464D01*
X78215Y-40427D01*
X78232Y-40392D01*
X78257Y-40362D01*
X78286Y-40336D01*
X78320Y-40317D01*
X78358Y-40305D01*
X78396Y-40301D01*
X78434Y-40304D01*
X78472Y-40314D01*
X78507Y-40332D01*
X78537Y-40356D01*
X78563Y-40385D01*
X78582Y-40419D01*
X78595Y-40456D01*
X78599Y-40495D01*
X78600Y-40500D01*
X78200Y-40300D02*
X78600Y-40700D01*
X78600Y-40300D02*
X78200Y-40700D01*
X78600Y-41500D02*
X78596Y-41538D01*
X78584Y-41576D01*
X78566Y-41610D01*
X78541Y-41640D01*
X78511Y-41665D01*
X78477Y-41684D01*
X78440Y-41695D01*
X78401Y-41699D01*
X78363Y-41696D01*
X78326Y-41685D01*
X78291Y-41667D01*
X78261Y-41642D01*
X78235Y-41612D01*
X78217Y-41578D01*
X78205Y-41541D01*
X78201Y-41502D01*
X78204Y-41464D01*
X78215Y-41427D01*
X78232Y-41392D01*
X78257Y-41362D01*
X78286Y-41336D01*
X78320Y-41317D01*
X78358Y-41305D01*
X78396Y-41301D01*
X78434Y-41304D01*
X78472Y-41314D01*
X78507Y-41332D01*
X78537Y-41356D01*
X78563Y-41385D01*
X78582Y-41419D01*
X78595Y-41456D01*
X78599Y-41495D01*
X78600Y-41500D01*
X78200Y-41300D02*
X78600Y-41700D01*
X78600Y-41300D02*
X78200Y-41700D01*
X78600Y-45180D02*
X78596Y-45218D01*
X78584Y-45256D01*
X78566Y-45290D01*
X78541Y-45320D01*
X78511Y-45345D01*
X78477Y-45364D01*
X78440Y-45375D01*
X78401Y-45379D01*
X78363Y-45376D01*
X78326Y-45365D01*
X78291Y-45347D01*
X78261Y-45322D01*
X78235Y-45292D01*
X78217Y-45258D01*
X78205Y-45221D01*
X78201Y-45182D01*
X78204Y-45144D01*
X78215Y-45107D01*
X78232Y-45072D01*
X78257Y-45042D01*
X78286Y-45016D01*
X78320Y-44997D01*
X78358Y-44985D01*
X78396Y-44981D01*
X78434Y-44984D01*
X78472Y-44994D01*
X78507Y-45012D01*
X78537Y-45036D01*
X78563Y-45065D01*
X78582Y-45099D01*
X78595Y-45136D01*
X78599Y-45175D01*
X78600Y-45180D01*
X78200Y-44980D02*
X78600Y-45380D01*
X78600Y-44980D02*
X78200Y-45380D01*
X78600Y-46180D02*
X78596Y-46218D01*
X78584Y-46256D01*
X78566Y-46290D01*
X78541Y-46320D01*
X78511Y-46345D01*
X78477Y-46364D01*
X78440Y-46375D01*
X78401Y-46379D01*
X78363Y-46376D01*
X78326Y-46365D01*
X78291Y-46347D01*
X78261Y-46322D01*
X78235Y-46292D01*
X78217Y-46258D01*
X78205Y-46221D01*
X78201Y-46182D01*
X78204Y-46144D01*
X78215Y-46107D01*
X78232Y-46072D01*
X78257Y-46042D01*
X78286Y-46016D01*
X78320Y-45997D01*
X78358Y-45985D01*
X78396Y-45981D01*
X78434Y-45984D01*
X78472Y-45994D01*
X78507Y-46012D01*
X78537Y-46036D01*
X78563Y-46065D01*
X78582Y-46099D01*
X78595Y-46136D01*
X78599Y-46175D01*
X78600Y-46180D01*
X78200Y-45980D02*
X78600Y-46380D01*
X78600Y-45980D02*
X78200Y-46380D01*
X36225Y-32500D02*
X36220Y-32543D01*
X36208Y-32585D01*
X36187Y-32624D01*
X36159Y-32658D01*
X36125Y-32686D01*
X36087Y-32707D01*
X36045Y-32720D01*
X36001Y-32724D01*
X35958Y-32721D01*
X35916Y-32708D01*
X35877Y-32688D01*
X35843Y-32660D01*
X35815Y-32627D01*
X35794Y-32588D01*
X35780Y-32546D01*
X35776Y-32503D01*
X35779Y-32460D01*
X35791Y-32418D01*
X35811Y-32379D01*
X35839Y-32344D01*
X35872Y-32316D01*
X35910Y-32294D01*
X35952Y-32281D01*
X35996Y-32276D01*
X36039Y-32279D01*
X36081Y-32291D01*
X36120Y-32311D01*
X36155Y-32338D01*
X36183Y-32371D01*
X36205Y-32409D01*
X36219Y-32451D01*
X36224Y-32494D01*
X36225Y-32500D01*
X35775Y-32500D02*
X36225Y-32500D01*
X36225Y-33500D02*
X36220Y-33543D01*
X36208Y-33585D01*
X36187Y-33624D01*
X36159Y-33658D01*
X36125Y-33686D01*
X36087Y-33707D01*
X36045Y-33720D01*
X36001Y-33724D01*
X35958Y-33721D01*
X35916Y-33708D01*
X35877Y-33688D01*
X35843Y-33660D01*
X35815Y-33627D01*
X35794Y-33588D01*
X35780Y-33546D01*
X35776Y-33503D01*
X35779Y-33460D01*
X35791Y-33418D01*
X35811Y-33379D01*
X35839Y-33344D01*
X35872Y-33316D01*
X35910Y-33294D01*
X35952Y-33281D01*
X35996Y-33276D01*
X36039Y-33279D01*
X36081Y-33291D01*
X36120Y-33311D01*
X36155Y-33338D01*
X36183Y-33371D01*
X36205Y-33409D01*
X36219Y-33451D01*
X36224Y-33494D01*
X36225Y-33500D01*
X35775Y-33500D02*
X36225Y-33500D01*
X36225Y-34500D02*
X36220Y-34543D01*
X36208Y-34585D01*
X36187Y-34624D01*
X36159Y-34658D01*
X36125Y-34686D01*
X36087Y-34707D01*
X36045Y-34720D01*
X36001Y-34724D01*
X35958Y-34721D01*
X35916Y-34708D01*
X35877Y-34688D01*
X35843Y-34660D01*
X35815Y-34627D01*
X35794Y-34588D01*
X35780Y-34546D01*
X35776Y-34503D01*
X35779Y-34460D01*
X35791Y-34418D01*
X35811Y-34379D01*
X35839Y-34344D01*
X35872Y-34316D01*
X35910Y-34294D01*
X35952Y-34281D01*
X35996Y-34276D01*
X36039Y-34279D01*
X36081Y-34291D01*
X36120Y-34311D01*
X36155Y-34338D01*
X36183Y-34371D01*
X36205Y-34409D01*
X36219Y-34451D01*
X36224Y-34494D01*
X36225Y-34500D01*
X35775Y-34500D02*
X36225Y-34500D01*
X36425Y-38500D02*
X36420Y-38543D01*
X36408Y-38585D01*
X36387Y-38624D01*
X36359Y-38658D01*
X36325Y-38686D01*
X36287Y-38707D01*
X36245Y-38720D01*
X36201Y-38724D01*
X36158Y-38721D01*
X36116Y-38708D01*
X36077Y-38688D01*
X36043Y-38660D01*
X36015Y-38627D01*
X35994Y-38588D01*
X35980Y-38546D01*
X35976Y-38503D01*
X35979Y-38460D01*
X35991Y-38418D01*
X36011Y-38379D01*
X36039Y-38344D01*
X36072Y-38316D01*
X36110Y-38294D01*
X36152Y-38281D01*
X36196Y-38276D01*
X36239Y-38279D01*
X36281Y-38291D01*
X36320Y-38311D01*
X36355Y-38338D01*
X36383Y-38371D01*
X36405Y-38409D01*
X36419Y-38451D01*
X36424Y-38494D01*
X36425Y-38500D01*
X35975Y-38500D02*
X36425Y-38500D01*
X36425Y-39500D02*
X36420Y-39543D01*
X36408Y-39585D01*
X36387Y-39624D01*
X36359Y-39658D01*
X36325Y-39686D01*
X36287Y-39707D01*
X36245Y-39720D01*
X36201Y-39724D01*
X36158Y-39721D01*
X36116Y-39708D01*
X36077Y-39688D01*
X36043Y-39660D01*
X36015Y-39627D01*
X35994Y-39588D01*
X35980Y-39546D01*
X35976Y-39503D01*
X35979Y-39460D01*
X35991Y-39418D01*
X36011Y-39379D01*
X36039Y-39344D01*
X36072Y-39316D01*
X36110Y-39294D01*
X36152Y-39281D01*
X36196Y-39276D01*
X36239Y-39279D01*
X36281Y-39291D01*
X36320Y-39311D01*
X36355Y-39338D01*
X36383Y-39371D01*
X36405Y-39409D01*
X36419Y-39451D01*
X36424Y-39494D01*
X36425Y-39500D01*
X35975Y-39500D02*
X36425Y-39500D01*
X36425Y-40500D02*
X36420Y-40543D01*
X36408Y-40585D01*
X36387Y-40624D01*
X36359Y-40658D01*
X36325Y-40686D01*
X36287Y-40707D01*
X36245Y-40720D01*
X36201Y-40724D01*
X36158Y-40721D01*
X36116Y-40708D01*
X36077Y-40688D01*
X36043Y-40660D01*
X36015Y-40627D01*
X35994Y-40588D01*
X35980Y-40546D01*
X35976Y-40503D01*
X35979Y-40460D01*
X35991Y-40418D01*
X36011Y-40379D01*
X36039Y-40344D01*
X36072Y-40316D01*
X36110Y-40294D01*
X36152Y-40281D01*
X36196Y-40276D01*
X36239Y-40279D01*
X36281Y-40291D01*
X36320Y-40311D01*
X36355Y-40338D01*
X36383Y-40371D01*
X36405Y-40409D01*
X36419Y-40451D01*
X36424Y-40494D01*
X36425Y-40500D01*
X35975Y-40500D02*
X36425Y-40500D01*
X36425Y-43700D02*
X36420Y-43743D01*
X36408Y-43785D01*
X36387Y-43824D01*
X36359Y-43858D01*
X36325Y-43886D01*
X36287Y-43907D01*
X36245Y-43920D01*
X36201Y-43924D01*
X36158Y-43921D01*
X36116Y-43908D01*
X36077Y-43888D01*
X36043Y-43860D01*
X36015Y-43827D01*
X35994Y-43788D01*
X35980Y-43746D01*
X35976Y-43703D01*
X35979Y-43660D01*
X35991Y-43618D01*
X36011Y-43579D01*
X36039Y-43544D01*
X36072Y-43516D01*
X36110Y-43494D01*
X36152Y-43481D01*
X36196Y-43476D01*
X36239Y-43479D01*
X36281Y-43491D01*
X36320Y-43511D01*
X36355Y-43538D01*
X36383Y-43571D01*
X36405Y-43609D01*
X36419Y-43651D01*
X36424Y-43694D01*
X36425Y-43700D01*
X35975Y-43700D02*
X36425Y-43700D01*
X36425Y-44700D02*
X36420Y-44743D01*
X36408Y-44785D01*
X36387Y-44824D01*
X36359Y-44858D01*
X36325Y-44886D01*
X36287Y-44907D01*
X36245Y-44920D01*
X36201Y-44924D01*
X36158Y-44921D01*
X36116Y-44908D01*
X36077Y-44888D01*
X36043Y-44860D01*
X36015Y-44827D01*
X35994Y-44788D01*
X35980Y-44746D01*
X35976Y-44703D01*
X35979Y-44660D01*
X35991Y-44618D01*
X36011Y-44579D01*
X36039Y-44544D01*
X36072Y-44516D01*
X36110Y-44494D01*
X36152Y-44481D01*
X36196Y-44476D01*
X36239Y-44479D01*
X36281Y-44491D01*
X36320Y-44511D01*
X36355Y-44538D01*
X36383Y-44571D01*
X36405Y-44609D01*
X36419Y-44651D01*
X36424Y-44694D01*
X36425Y-44700D01*
X35975Y-44700D02*
X36425Y-44700D01*
X36425Y-45700D02*
X36420Y-45743D01*
X36408Y-45785D01*
X36387Y-45824D01*
X36359Y-45858D01*
X36325Y-45886D01*
X36287Y-45907D01*
X36245Y-45920D01*
X36201Y-45924D01*
X36158Y-45921D01*
X36116Y-45908D01*
X36077Y-45888D01*
X36043Y-45860D01*
X36015Y-45827D01*
X35994Y-45788D01*
X35980Y-45746D01*
X35976Y-45703D01*
X35979Y-45660D01*
X35991Y-45618D01*
X36011Y-45579D01*
X36039Y-45544D01*
X36072Y-45516D01*
X36110Y-45494D01*
X36152Y-45481D01*
X36196Y-45476D01*
X36239Y-45479D01*
X36281Y-45491D01*
X36320Y-45511D01*
X36355Y-45538D01*
X36383Y-45571D01*
X36405Y-45609D01*
X36419Y-45651D01*
X36424Y-45694D01*
X36425Y-45700D01*
X35975Y-45700D02*
X36425Y-45700D01*
X43100Y-33500D02*
X43088Y-33616D01*
X43054Y-33728D01*
X42999Y-33832D01*
X42925Y-33922D01*
X42835Y-33997D01*
X42732Y-34053D01*
X42620Y-34087D01*
X42504Y-34099D01*
X42388Y-34089D01*
X42276Y-34056D01*
X42172Y-34002D01*
X42081Y-33928D01*
X42005Y-33838D01*
X41949Y-33736D01*
X41914Y-33624D01*
X41901Y-33508D01*
X41910Y-33392D01*
X41943Y-33280D01*
X41996Y-33175D01*
X42069Y-33084D01*
X42158Y-33008D01*
X42260Y-32951D01*
X42372Y-32914D01*
X42488Y-32901D01*
X42604Y-32910D01*
X42716Y-32941D01*
X42821Y-32994D01*
X42913Y-33066D01*
X42990Y-33155D01*
X43048Y-33256D01*
X43085Y-33368D01*
X43099Y-33484D01*
X43100Y-33500D01*
X42500Y-32900D02*
X42500Y-34100D01*
X43300Y-39500D02*
X43288Y-39616D01*
X43254Y-39728D01*
X43199Y-39832D01*
X43125Y-39922D01*
X43035Y-39997D01*
X42932Y-40053D01*
X42820Y-40087D01*
X42704Y-40099D01*
X42588Y-40089D01*
X42476Y-40056D01*
X42372Y-40002D01*
X42281Y-39928D01*
X42205Y-39838D01*
X42149Y-39736D01*
X42114Y-39624D01*
X42101Y-39508D01*
X42110Y-39392D01*
X42143Y-39280D01*
X42196Y-39175D01*
X42269Y-39084D01*
X42358Y-39008D01*
X42460Y-38951D01*
X42572Y-38914D01*
X42688Y-38901D01*
X42804Y-38910D01*
X42916Y-38941D01*
X43021Y-38994D01*
X43113Y-39066D01*
X43190Y-39155D01*
X43248Y-39256D01*
X43285Y-39368D01*
X43299Y-39484D01*
X43300Y-39500D01*
X42700Y-38900D02*
X42700Y-40100D01*
X43300Y-44700D02*
X43288Y-44816D01*
X43254Y-44928D01*
X43199Y-45032D01*
X43125Y-45122D01*
X43035Y-45197D01*
X42932Y-45253D01*
X42820Y-45287D01*
X42704Y-45299D01*
X42588Y-45289D01*
X42476Y-45256D01*
X42372Y-45202D01*
X42281Y-45128D01*
X42205Y-45038D01*
X42149Y-44936D01*
X42114Y-44824D01*
X42101Y-44708D01*
X42110Y-44592D01*
X42143Y-44480D01*
X42196Y-44375D01*
X42269Y-44284D01*
X42358Y-44208D01*
X42460Y-44151D01*
X42572Y-44114D01*
X42688Y-44101D01*
X42804Y-44110D01*
X42916Y-44141D01*
X43021Y-44194D01*
X43113Y-44266D01*
X43190Y-44355D01*
X43248Y-44456D01*
X43285Y-44568D01*
X43299Y-44684D01*
X43300Y-44700D01*
X42700Y-44100D02*
X42700Y-45300D01*
G54D12*
X33239Y-49801D02*
X33239Y-49001D01*
X33430Y-49001D01*
X33544Y-49039D01*
X33620Y-49115D01*
X33659Y-49191D01*
X33697Y-49344D01*
X33697Y-49458D01*
X33659Y-49610D01*
X33620Y-49687D01*
X33544Y-49763D01*
X33430Y-49801D01*
X33239Y-49801D01*
X34039Y-49801D02*
X34039Y-49267D01*
X34039Y-49420D02*
X34078Y-49344D01*
X34116Y-49306D01*
X34192Y-49267D01*
X34268Y-49267D01*
X34534Y-49801D02*
X34534Y-49267D01*
X34534Y-49001D02*
X34496Y-49039D01*
X34534Y-49077D01*
X34573Y-49039D01*
X34534Y-49001D01*
X34534Y-49077D01*
X35030Y-49801D02*
X34954Y-49763D01*
X34915Y-49687D01*
X34915Y-49001D01*
X35449Y-49801D02*
X35373Y-49763D01*
X35334Y-49687D01*
X35334Y-49001D01*
X36363Y-49801D02*
X36363Y-49001D01*
X36630Y-49572D01*
X36897Y-49001D01*
X36897Y-49801D01*
X37620Y-49801D02*
X37620Y-49382D01*
X37582Y-49306D01*
X37506Y-49267D01*
X37354Y-49267D01*
X37277Y-49306D01*
X37620Y-49763D02*
X37544Y-49801D01*
X37354Y-49801D01*
X37277Y-49763D01*
X37239Y-49687D01*
X37239Y-49610D01*
X37277Y-49534D01*
X37354Y-49496D01*
X37544Y-49496D01*
X37620Y-49458D01*
X38001Y-49267D02*
X38001Y-50067D01*
X38001Y-49306D02*
X38078Y-49267D01*
X38230Y-49267D01*
X38306Y-49306D01*
X38344Y-49344D01*
X38382Y-49420D01*
X38382Y-49648D01*
X38344Y-49725D01*
X38306Y-49763D01*
X38230Y-49801D01*
X38078Y-49801D01*
X38001Y-49763D01*
X38725Y-49725D02*
X38764Y-49763D01*
X38725Y-49801D01*
X38687Y-49763D01*
X38725Y-49725D01*
X38725Y-49801D01*
X38725Y-49306D02*
X38764Y-49344D01*
X38725Y-49382D01*
X38687Y-49344D01*
X38725Y-49306D01*
X38725Y-49382D01*
X32599Y-51032D02*
X32849Y-51282D01*
X32849Y-51032D02*
X32599Y-51282D01*
X33392Y-50681D02*
X33468Y-50681D01*
X33544Y-50719D01*
X33582Y-50757D01*
X33620Y-50833D01*
X33659Y-50986D01*
X33659Y-51176D01*
X33620Y-51328D01*
X33582Y-51405D01*
X33544Y-51443D01*
X33468Y-51481D01*
X33392Y-51481D01*
X33316Y-51443D01*
X33278Y-51405D01*
X33239Y-51328D01*
X33201Y-51176D01*
X33201Y-50986D01*
X33239Y-50833D01*
X33278Y-50757D01*
X33316Y-50719D01*
X33392Y-50681D01*
X34001Y-51405D02*
X34040Y-51443D01*
X34001Y-51481D01*
X33963Y-51443D01*
X34001Y-51405D01*
X34001Y-51481D01*
X34535Y-50681D02*
X34611Y-50681D01*
X34687Y-50719D01*
X34725Y-50757D01*
X34763Y-50833D01*
X34802Y-50986D01*
X34802Y-51176D01*
X34763Y-51328D01*
X34725Y-51405D01*
X34687Y-51443D01*
X34611Y-51481D01*
X34535Y-51481D01*
X34459Y-51443D01*
X34421Y-51405D01*
X34382Y-51328D01*
X34344Y-51176D01*
X34344Y-50986D01*
X34382Y-50833D01*
X34421Y-50757D01*
X34459Y-50719D01*
X34535Y-50681D01*
X35106Y-50757D02*
X35144Y-50719D01*
X35221Y-50681D01*
X35411Y-50681D01*
X35487Y-50719D01*
X35525Y-50757D01*
X35564Y-50833D01*
X35564Y-50909D01*
X35525Y-51024D01*
X35068Y-51481D01*
X35564Y-51481D01*
X36287Y-50681D02*
X35906Y-50681D01*
X35868Y-51062D01*
X35906Y-51024D01*
X35983Y-50986D01*
X36173Y-50986D01*
X36249Y-51024D01*
X36287Y-51062D01*
X36326Y-51138D01*
X36326Y-51328D01*
X36287Y-51405D01*
X36249Y-51443D01*
X36173Y-51481D01*
X35983Y-51481D01*
X35906Y-51443D01*
X35868Y-51405D01*
X36630Y-50681D02*
X36630Y-50833D01*
X36935Y-50681D02*
X36935Y-50833D01*
X38460Y-50643D02*
X37774Y-51671D01*
X39489Y-50681D02*
X39565Y-50681D01*
X39641Y-50719D01*
X39679Y-50757D01*
X39717Y-50833D01*
X39756Y-50986D01*
X39756Y-51176D01*
X39717Y-51328D01*
X39679Y-51405D01*
X39641Y-51443D01*
X39565Y-51481D01*
X39489Y-51481D01*
X39413Y-51443D01*
X39375Y-51405D01*
X39336Y-51328D01*
X39298Y-51176D01*
X39298Y-50986D01*
X39336Y-50833D01*
X39375Y-50757D01*
X39413Y-50719D01*
X39489Y-50681D01*
X40098Y-51405D02*
X40137Y-51443D01*
X40098Y-51481D01*
X40060Y-51443D01*
X40098Y-51405D01*
X40098Y-51481D01*
X40822Y-50681D02*
X40670Y-50681D01*
X40594Y-50719D01*
X40556Y-50757D01*
X40479Y-50871D01*
X40441Y-51024D01*
X40441Y-51328D01*
X40479Y-51405D01*
X40518Y-51443D01*
X40594Y-51481D01*
X40746Y-51481D01*
X40822Y-51443D01*
X40860Y-51405D01*
X40899Y-51328D01*
X40899Y-51138D01*
X40860Y-51062D01*
X40822Y-51024D01*
X40746Y-50986D01*
X40594Y-50986D01*
X40518Y-51024D01*
X40479Y-51062D01*
X40441Y-51138D01*
X41584Y-50947D02*
X41584Y-51481D01*
X41394Y-50643D02*
X41203Y-51214D01*
X41699Y-51214D01*
X42003Y-51481D02*
X42003Y-50947D01*
X42003Y-51024D02*
X42042Y-50986D01*
X42118Y-50947D01*
X42232Y-50947D01*
X42308Y-50986D01*
X42346Y-51062D01*
X42346Y-51481D01*
X42346Y-51062D02*
X42384Y-50986D01*
X42461Y-50947D01*
X42575Y-50947D01*
X42651Y-50986D01*
X42689Y-51062D01*
X42689Y-51481D01*
X43070Y-51481D02*
X43070Y-50947D01*
X43070Y-51024D02*
X43109Y-50986D01*
X43185Y-50947D01*
X43299Y-50947D01*
X43375Y-50986D01*
X43413Y-51062D01*
X43413Y-51481D01*
X43413Y-51062D02*
X43451Y-50986D01*
X43528Y-50947D01*
X43642Y-50947D01*
X43718Y-50986D01*
X43756Y-51062D01*
X43756Y-51481D01*
X44976Y-51786D02*
X44938Y-51747D01*
X44862Y-51633D01*
X44824Y-51557D01*
X44786Y-51443D01*
X44747Y-51252D01*
X44747Y-51100D01*
X44786Y-50909D01*
X44824Y-50795D01*
X44862Y-50719D01*
X44938Y-50605D01*
X44976Y-50567D01*
X45700Y-51481D02*
X45242Y-51481D01*
X45471Y-51481D02*
X45471Y-50681D01*
X45395Y-50795D01*
X45319Y-50871D01*
X45242Y-50909D01*
X46462Y-51481D02*
X46004Y-51481D01*
X46233Y-51481D02*
X46233Y-50681D01*
X46157Y-50795D01*
X46081Y-50871D01*
X46004Y-50909D01*
X46843Y-51481D02*
X46995Y-51481D01*
X47071Y-51443D01*
X47109Y-51405D01*
X47185Y-51290D01*
X47224Y-51138D01*
X47224Y-50833D01*
X47185Y-50757D01*
X47147Y-50719D01*
X47071Y-50681D01*
X46919Y-50681D01*
X46843Y-50719D01*
X46804Y-50757D01*
X46766Y-50833D01*
X46766Y-51024D01*
X46804Y-51100D01*
X46843Y-51138D01*
X46919Y-51176D01*
X47071Y-51176D01*
X47147Y-51138D01*
X47185Y-51100D01*
X47224Y-51024D01*
X48176Y-51481D02*
X48176Y-50681D01*
X48519Y-51481D02*
X48519Y-51062D01*
X48481Y-50986D01*
X48405Y-50947D01*
X48291Y-50947D01*
X48215Y-50986D01*
X48176Y-51024D01*
X49015Y-51481D02*
X48939Y-51443D01*
X48900Y-51405D01*
X48862Y-51328D01*
X48862Y-51100D01*
X48900Y-51024D01*
X48939Y-50986D01*
X49015Y-50947D01*
X49129Y-50947D01*
X49205Y-50986D01*
X49243Y-51024D01*
X49281Y-51100D01*
X49281Y-51328D01*
X49243Y-51405D01*
X49205Y-51443D01*
X49129Y-51481D01*
X49015Y-51481D01*
X49739Y-51481D02*
X49663Y-51443D01*
X49624Y-51367D01*
X49624Y-50681D01*
X50348Y-51443D02*
X50272Y-51481D01*
X50120Y-51481D01*
X50043Y-51443D01*
X50005Y-51367D01*
X50005Y-51062D01*
X50043Y-50986D01*
X50120Y-50947D01*
X50272Y-50947D01*
X50348Y-50986D01*
X50386Y-51062D01*
X50386Y-51138D01*
X50005Y-51214D01*
X50691Y-51443D02*
X50768Y-51481D01*
X50920Y-51481D01*
X50996Y-51443D01*
X51034Y-51367D01*
X51034Y-51328D01*
X50996Y-51252D01*
X50920Y-51214D01*
X50806Y-51214D01*
X50729Y-51176D01*
X50691Y-51100D01*
X50691Y-51062D01*
X50729Y-50986D01*
X50806Y-50947D01*
X50920Y-50947D01*
X50996Y-50986D01*
X51301Y-51786D02*
X51339Y-51747D01*
X51416Y-51633D01*
X51454Y-51557D01*
X51492Y-51443D01*
X51530Y-51252D01*
X51530Y-51100D01*
X51492Y-50909D01*
X51454Y-50795D01*
X51416Y-50719D01*
X51339Y-50605D01*
X51301Y-50567D01*
G54D10*
X32849Y-52212D02*
X32845Y-52243D01*
X32836Y-52272D01*
X32822Y-52300D01*
X32802Y-52324D01*
X32778Y-52344D01*
X32751Y-52359D01*
X32721Y-52368D01*
X32690Y-52371D01*
X32660Y-52369D01*
X32630Y-52360D01*
X32602Y-52345D01*
X32578Y-52326D01*
X32557Y-52302D01*
X32542Y-52275D01*
X32533Y-52245D01*
X32530Y-52214D01*
X32532Y-52184D01*
X32541Y-52154D01*
X32555Y-52126D01*
X32574Y-52101D01*
X32598Y-52081D01*
X32625Y-52066D01*
X32655Y-52056D01*
X32686Y-52053D01*
X32716Y-52055D01*
X32746Y-52063D01*
X32774Y-52077D01*
X32799Y-52097D01*
X32819Y-52120D01*
X32835Y-52147D01*
X32845Y-52177D01*
X32848Y-52208D01*
X32849Y-52212D01*
G54D12*
X33392Y-51736D02*
X33468Y-51736D01*
X33544Y-51774D01*
X33582Y-51812D01*
X33620Y-51888D01*
X33659Y-52041D01*
X33659Y-52231D01*
X33620Y-52383D01*
X33582Y-52460D01*
X33544Y-52498D01*
X33468Y-52536D01*
X33392Y-52536D01*
X33316Y-52498D01*
X33278Y-52460D01*
X33239Y-52383D01*
X33201Y-52231D01*
X33201Y-52041D01*
X33239Y-51888D01*
X33278Y-51812D01*
X33316Y-51774D01*
X33392Y-51736D01*
X34001Y-52460D02*
X34040Y-52498D01*
X34001Y-52536D01*
X33963Y-52498D01*
X34001Y-52460D01*
X34001Y-52536D01*
X34535Y-51736D02*
X34611Y-51736D01*
X34687Y-51774D01*
X34725Y-51812D01*
X34763Y-51888D01*
X34802Y-52041D01*
X34802Y-52231D01*
X34763Y-52383D01*
X34725Y-52460D01*
X34687Y-52498D01*
X34611Y-52536D01*
X34535Y-52536D01*
X34459Y-52498D01*
X34421Y-52460D01*
X34382Y-52383D01*
X34344Y-52231D01*
X34344Y-52041D01*
X34382Y-51888D01*
X34421Y-51812D01*
X34459Y-51774D01*
X34535Y-51736D01*
X35068Y-51736D02*
X35564Y-51736D01*
X35297Y-52041D01*
X35411Y-52041D01*
X35487Y-52079D01*
X35525Y-52117D01*
X35564Y-52193D01*
X35564Y-52383D01*
X35525Y-52460D01*
X35487Y-52498D01*
X35411Y-52536D01*
X35183Y-52536D01*
X35106Y-52498D01*
X35068Y-52460D01*
X35868Y-51812D02*
X35906Y-51774D01*
X35983Y-51736D01*
X36173Y-51736D01*
X36249Y-51774D01*
X36287Y-51812D01*
X36326Y-51888D01*
X36326Y-51964D01*
X36287Y-52079D01*
X35830Y-52536D01*
X36326Y-52536D01*
X36630Y-51736D02*
X36630Y-51888D01*
X36935Y-51736D02*
X36935Y-51888D01*
X38460Y-51698D02*
X37774Y-52726D01*
X39489Y-51736D02*
X39565Y-51736D01*
X39641Y-51774D01*
X39679Y-51812D01*
X39717Y-51888D01*
X39756Y-52041D01*
X39756Y-52231D01*
X39717Y-52383D01*
X39679Y-52460D01*
X39641Y-52498D01*
X39565Y-52536D01*
X39489Y-52536D01*
X39413Y-52498D01*
X39375Y-52460D01*
X39336Y-52383D01*
X39298Y-52231D01*
X39298Y-52041D01*
X39336Y-51888D01*
X39375Y-51812D01*
X39413Y-51774D01*
X39489Y-51736D01*
X40098Y-52460D02*
X40137Y-52498D01*
X40098Y-52536D01*
X40060Y-52498D01*
X40098Y-52460D01*
X40098Y-52536D01*
X40594Y-52079D02*
X40518Y-52041D01*
X40479Y-52002D01*
X40441Y-51926D01*
X40441Y-51888D01*
X40479Y-51812D01*
X40518Y-51774D01*
X40594Y-51736D01*
X40746Y-51736D01*
X40822Y-51774D01*
X40860Y-51812D01*
X40899Y-51888D01*
X40899Y-51926D01*
X40860Y-52002D01*
X40822Y-52041D01*
X40746Y-52079D01*
X40594Y-52079D01*
X40518Y-52117D01*
X40479Y-52155D01*
X40441Y-52231D01*
X40441Y-52383D01*
X40479Y-52460D01*
X40518Y-52498D01*
X40594Y-52536D01*
X40746Y-52536D01*
X40822Y-52498D01*
X40860Y-52460D01*
X40899Y-52383D01*
X40899Y-52231D01*
X40860Y-52155D01*
X40822Y-52117D01*
X40746Y-52079D01*
X41661Y-52536D02*
X41203Y-52536D01*
X41432Y-52536D02*
X41432Y-51736D01*
X41356Y-51850D01*
X41280Y-51926D01*
X41203Y-51964D01*
X42003Y-52536D02*
X42003Y-52002D01*
X42003Y-52079D02*
X42042Y-52041D01*
X42118Y-52002D01*
X42232Y-52002D01*
X42308Y-52041D01*
X42346Y-52117D01*
X42346Y-52536D01*
X42346Y-52117D02*
X42384Y-52041D01*
X42461Y-52002D01*
X42575Y-52002D01*
X42651Y-52041D01*
X42689Y-52117D01*
X42689Y-52536D01*
X43070Y-52536D02*
X43070Y-52002D01*
X43070Y-52079D02*
X43109Y-52041D01*
X43185Y-52002D01*
X43299Y-52002D01*
X43375Y-52041D01*
X43413Y-52117D01*
X43413Y-52536D01*
X43413Y-52117D02*
X43451Y-52041D01*
X43528Y-52002D01*
X43642Y-52002D01*
X43718Y-52041D01*
X43756Y-52117D01*
X43756Y-52536D01*
X44976Y-52841D02*
X44938Y-52802D01*
X44862Y-52688D01*
X44824Y-52612D01*
X44786Y-52498D01*
X44747Y-52307D01*
X44747Y-52155D01*
X44786Y-51964D01*
X44824Y-51850D01*
X44862Y-51774D01*
X44938Y-51660D01*
X44976Y-51622D01*
X45242Y-51812D02*
X45280Y-51774D01*
X45357Y-51736D01*
X45547Y-51736D01*
X45623Y-51774D01*
X45661Y-51812D01*
X45700Y-51888D01*
X45700Y-51964D01*
X45661Y-52079D01*
X45204Y-52536D01*
X45700Y-52536D01*
X46157Y-52079D02*
X46081Y-52041D01*
X46042Y-52002D01*
X46004Y-51926D01*
X46004Y-51888D01*
X46042Y-51812D01*
X46081Y-51774D01*
X46157Y-51736D01*
X46309Y-51736D01*
X46385Y-51774D01*
X46423Y-51812D01*
X46462Y-51888D01*
X46462Y-51926D01*
X46423Y-52002D01*
X46385Y-52041D01*
X46309Y-52079D01*
X46157Y-52079D01*
X46081Y-52117D01*
X46042Y-52155D01*
X46004Y-52231D01*
X46004Y-52383D01*
X46042Y-52460D01*
X46081Y-52498D01*
X46157Y-52536D01*
X46309Y-52536D01*
X46385Y-52498D01*
X46423Y-52460D01*
X46462Y-52383D01*
X46462Y-52231D01*
X46423Y-52155D01*
X46385Y-52117D01*
X46309Y-52079D01*
X47414Y-52536D02*
X47414Y-51736D01*
X47757Y-52536D02*
X47757Y-52117D01*
X47719Y-52041D01*
X47643Y-52002D01*
X47529Y-52002D01*
X47453Y-52041D01*
X47414Y-52079D01*
X48253Y-52536D02*
X48177Y-52498D01*
X48138Y-52460D01*
X48100Y-52383D01*
X48100Y-52155D01*
X48138Y-52079D01*
X48177Y-52041D01*
X48253Y-52002D01*
X48367Y-52002D01*
X48443Y-52041D01*
X48481Y-52079D01*
X48519Y-52155D01*
X48519Y-52383D01*
X48481Y-52460D01*
X48443Y-52498D01*
X48367Y-52536D01*
X48253Y-52536D01*
X48977Y-52536D02*
X48901Y-52498D01*
X48862Y-52422D01*
X48862Y-51736D01*
X49586Y-52498D02*
X49510Y-52536D01*
X49358Y-52536D01*
X49281Y-52498D01*
X49243Y-52422D01*
X49243Y-52117D01*
X49281Y-52041D01*
X49358Y-52002D01*
X49510Y-52002D01*
X49586Y-52041D01*
X49624Y-52117D01*
X49624Y-52193D01*
X49243Y-52269D01*
X49929Y-52498D02*
X50006Y-52536D01*
X50158Y-52536D01*
X50234Y-52498D01*
X50272Y-52422D01*
X50272Y-52383D01*
X50234Y-52307D01*
X50158Y-52269D01*
X50044Y-52269D01*
X49967Y-52231D01*
X49929Y-52155D01*
X49929Y-52117D01*
X49967Y-52041D01*
X50044Y-52002D01*
X50158Y-52002D01*
X50234Y-52041D01*
X50539Y-52841D02*
X50577Y-52802D01*
X50654Y-52688D01*
X50692Y-52612D01*
X50730Y-52498D01*
X50768Y-52307D01*
X50768Y-52155D01*
X50730Y-51964D01*
X50692Y-51850D01*
X50654Y-51774D01*
X50577Y-51660D01*
X50539Y-51622D01*
X32674Y-53092D02*
X32674Y-53442D01*
X32849Y-53267D02*
X32499Y-53267D01*
X33392Y-52791D02*
X33468Y-52791D01*
X33544Y-52829D01*
X33582Y-52867D01*
X33620Y-52943D01*
X33659Y-53096D01*
X33659Y-53286D01*
X33620Y-53438D01*
X33582Y-53515D01*
X33544Y-53553D01*
X33468Y-53591D01*
X33392Y-53591D01*
X33316Y-53553D01*
X33278Y-53515D01*
X33239Y-53438D01*
X33201Y-53286D01*
X33201Y-53096D01*
X33239Y-52943D01*
X33278Y-52867D01*
X33316Y-52829D01*
X33392Y-52791D01*
X34001Y-53515D02*
X34040Y-53553D01*
X34001Y-53591D01*
X33963Y-53553D01*
X34001Y-53515D01*
X34001Y-53591D01*
X34535Y-52791D02*
X34611Y-52791D01*
X34687Y-52829D01*
X34725Y-52867D01*
X34763Y-52943D01*
X34802Y-53096D01*
X34802Y-53286D01*
X34763Y-53438D01*
X34725Y-53515D01*
X34687Y-53553D01*
X34611Y-53591D01*
X34535Y-53591D01*
X34459Y-53553D01*
X34421Y-53515D01*
X34382Y-53438D01*
X34344Y-53286D01*
X34344Y-53096D01*
X34382Y-52943D01*
X34421Y-52867D01*
X34459Y-52829D01*
X34535Y-52791D01*
X35068Y-52791D02*
X35564Y-52791D01*
X35297Y-53096D01*
X35411Y-53096D01*
X35487Y-53134D01*
X35525Y-53172D01*
X35564Y-53248D01*
X35564Y-53438D01*
X35525Y-53515D01*
X35487Y-53553D01*
X35411Y-53591D01*
X35183Y-53591D01*
X35106Y-53553D01*
X35068Y-53515D01*
X36287Y-52791D02*
X35906Y-52791D01*
X35868Y-53172D01*
X35906Y-53134D01*
X35983Y-53096D01*
X36173Y-53096D01*
X36249Y-53134D01*
X36287Y-53172D01*
X36326Y-53248D01*
X36326Y-53438D01*
X36287Y-53515D01*
X36249Y-53553D01*
X36173Y-53591D01*
X35983Y-53591D01*
X35906Y-53553D01*
X35868Y-53515D01*
X36630Y-52791D02*
X36630Y-52943D01*
X36935Y-52791D02*
X36935Y-52943D01*
X38460Y-52753D02*
X37774Y-53781D01*
X39489Y-52791D02*
X39565Y-52791D01*
X39641Y-52829D01*
X39679Y-52867D01*
X39717Y-52943D01*
X39756Y-53096D01*
X39756Y-53286D01*
X39717Y-53438D01*
X39679Y-53515D01*
X39641Y-53553D01*
X39565Y-53591D01*
X39489Y-53591D01*
X39413Y-53553D01*
X39375Y-53515D01*
X39336Y-53438D01*
X39298Y-53286D01*
X39298Y-53096D01*
X39336Y-52943D01*
X39375Y-52867D01*
X39413Y-52829D01*
X39489Y-52791D01*
X40098Y-53515D02*
X40137Y-53553D01*
X40098Y-53591D01*
X40060Y-53553D01*
X40098Y-53515D01*
X40098Y-53591D01*
X40594Y-53134D02*
X40518Y-53096D01*
X40479Y-53057D01*
X40441Y-52981D01*
X40441Y-52943D01*
X40479Y-52867D01*
X40518Y-52829D01*
X40594Y-52791D01*
X40746Y-52791D01*
X40822Y-52829D01*
X40860Y-52867D01*
X40899Y-52943D01*
X40899Y-52981D01*
X40860Y-53057D01*
X40822Y-53096D01*
X40746Y-53134D01*
X40594Y-53134D01*
X40518Y-53172D01*
X40479Y-53210D01*
X40441Y-53286D01*
X40441Y-53438D01*
X40479Y-53515D01*
X40518Y-53553D01*
X40594Y-53591D01*
X40746Y-53591D01*
X40822Y-53553D01*
X40860Y-53515D01*
X40899Y-53438D01*
X40899Y-53286D01*
X40860Y-53210D01*
X40822Y-53172D01*
X40746Y-53134D01*
X41280Y-53591D02*
X41432Y-53591D01*
X41508Y-53553D01*
X41546Y-53515D01*
X41622Y-53400D01*
X41661Y-53248D01*
X41661Y-52943D01*
X41622Y-52867D01*
X41584Y-52829D01*
X41508Y-52791D01*
X41356Y-52791D01*
X41280Y-52829D01*
X41241Y-52867D01*
X41203Y-52943D01*
X41203Y-53134D01*
X41241Y-53210D01*
X41280Y-53248D01*
X41356Y-53286D01*
X41508Y-53286D01*
X41584Y-53248D01*
X41622Y-53210D01*
X41661Y-53134D01*
X42003Y-53591D02*
X42003Y-53057D01*
X42003Y-53134D02*
X42042Y-53096D01*
X42118Y-53057D01*
X42232Y-53057D01*
X42308Y-53096D01*
X42346Y-53172D01*
X42346Y-53591D01*
X42346Y-53172D02*
X42384Y-53096D01*
X42461Y-53057D01*
X42575Y-53057D01*
X42651Y-53096D01*
X42689Y-53172D01*
X42689Y-53591D01*
X43070Y-53591D02*
X43070Y-53057D01*
X43070Y-53134D02*
X43109Y-53096D01*
X43185Y-53057D01*
X43299Y-53057D01*
X43375Y-53096D01*
X43413Y-53172D01*
X43413Y-53591D01*
X43413Y-53172D02*
X43451Y-53096D01*
X43528Y-53057D01*
X43642Y-53057D01*
X43718Y-53096D01*
X43756Y-53172D01*
X43756Y-53591D01*
X44976Y-53896D02*
X44938Y-53857D01*
X44862Y-53743D01*
X44824Y-53667D01*
X44786Y-53553D01*
X44747Y-53362D01*
X44747Y-53210D01*
X44786Y-53019D01*
X44824Y-52905D01*
X44862Y-52829D01*
X44938Y-52715D01*
X44976Y-52677D01*
X45623Y-52791D02*
X45471Y-52791D01*
X45395Y-52829D01*
X45357Y-52867D01*
X45280Y-52981D01*
X45242Y-53134D01*
X45242Y-53438D01*
X45280Y-53515D01*
X45319Y-53553D01*
X45395Y-53591D01*
X45547Y-53591D01*
X45623Y-53553D01*
X45661Y-53515D01*
X45700Y-53438D01*
X45700Y-53248D01*
X45661Y-53172D01*
X45623Y-53134D01*
X45547Y-53096D01*
X45395Y-53096D01*
X45319Y-53134D01*
X45280Y-53172D01*
X45242Y-53248D01*
X46652Y-53591D02*
X46652Y-52791D01*
X46995Y-53591D02*
X46995Y-53172D01*
X46957Y-53096D01*
X46881Y-53057D01*
X46767Y-53057D01*
X46691Y-53096D01*
X46652Y-53134D01*
X47491Y-53591D02*
X47415Y-53553D01*
X47376Y-53515D01*
X47338Y-53438D01*
X47338Y-53210D01*
X47376Y-53134D01*
X47415Y-53096D01*
X47491Y-53057D01*
X47605Y-53057D01*
X47681Y-53096D01*
X47719Y-53134D01*
X47757Y-53210D01*
X47757Y-53438D01*
X47719Y-53515D01*
X47681Y-53553D01*
X47605Y-53591D01*
X47491Y-53591D01*
X48215Y-53591D02*
X48139Y-53553D01*
X48100Y-53477D01*
X48100Y-52791D01*
X48824Y-53553D02*
X48748Y-53591D01*
X48596Y-53591D01*
X48519Y-53553D01*
X48481Y-53477D01*
X48481Y-53172D01*
X48519Y-53096D01*
X48596Y-53057D01*
X48748Y-53057D01*
X48824Y-53096D01*
X48862Y-53172D01*
X48862Y-53248D01*
X48481Y-53324D01*
X49167Y-53553D02*
X49244Y-53591D01*
X49396Y-53591D01*
X49472Y-53553D01*
X49510Y-53477D01*
X49510Y-53438D01*
X49472Y-53362D01*
X49396Y-53324D01*
X49282Y-53324D01*
X49205Y-53286D01*
X49167Y-53210D01*
X49167Y-53172D01*
X49205Y-53096D01*
X49282Y-53057D01*
X49396Y-53057D01*
X49472Y-53096D01*
X49777Y-53896D02*
X49815Y-53857D01*
X49892Y-53743D01*
X49930Y-53667D01*
X49968Y-53553D01*
X50006Y-53362D01*
X50006Y-53210D01*
X49968Y-53019D01*
X49930Y-52905D01*
X49892Y-52829D01*
X49815Y-52715D01*
X49777Y-52677D01*
G54D10*
X32849Y-54322D02*
X32845Y-54360D01*
X32833Y-54398D01*
X32815Y-54432D01*
X32790Y-54462D01*
X32760Y-54487D01*
X32726Y-54506D01*
X32689Y-54517D01*
X32650Y-54521D01*
X32612Y-54518D01*
X32575Y-54507D01*
X32540Y-54489D01*
X32510Y-54464D01*
X32484Y-54434D01*
X32466Y-54400D01*
X32454Y-54363D01*
X32450Y-54324D01*
X32453Y-54286D01*
X32464Y-54249D01*
X32481Y-54214D01*
X32506Y-54184D01*
X32535Y-54158D01*
X32569Y-54139D01*
X32607Y-54127D01*
X32645Y-54123D01*
X32683Y-54126D01*
X32721Y-54136D01*
X32756Y-54154D01*
X32786Y-54178D01*
X32812Y-54207D01*
X32831Y-54241D01*
X32844Y-54278D01*
X32848Y-54317D01*
X32849Y-54322D01*
X32449Y-54122D02*
X32849Y-54522D01*
X32849Y-54122D02*
X32449Y-54522D01*
G54D12*
X33392Y-53846D02*
X33468Y-53846D01*
X33544Y-53884D01*
X33582Y-53922D01*
X33620Y-53998D01*
X33659Y-54151D01*
X33659Y-54341D01*
X33620Y-54493D01*
X33582Y-54570D01*
X33544Y-54608D01*
X33468Y-54646D01*
X33392Y-54646D01*
X33316Y-54608D01*
X33278Y-54570D01*
X33239Y-54493D01*
X33201Y-54341D01*
X33201Y-54151D01*
X33239Y-53998D01*
X33278Y-53922D01*
X33316Y-53884D01*
X33392Y-53846D01*
X34001Y-54570D02*
X34040Y-54608D01*
X34001Y-54646D01*
X33963Y-54608D01*
X34001Y-54570D01*
X34001Y-54646D01*
X34535Y-53846D02*
X34611Y-53846D01*
X34687Y-53884D01*
X34725Y-53922D01*
X34763Y-53998D01*
X34802Y-54151D01*
X34802Y-54341D01*
X34763Y-54493D01*
X34725Y-54570D01*
X34687Y-54608D01*
X34611Y-54646D01*
X34535Y-54646D01*
X34459Y-54608D01*
X34421Y-54570D01*
X34382Y-54493D01*
X34344Y-54341D01*
X34344Y-54151D01*
X34382Y-53998D01*
X34421Y-53922D01*
X34459Y-53884D01*
X34535Y-53846D01*
X35487Y-54112D02*
X35487Y-54646D01*
X35297Y-53808D02*
X35106Y-54379D01*
X35602Y-54379D01*
X36059Y-53846D02*
X36135Y-53846D01*
X36211Y-53884D01*
X36249Y-53922D01*
X36287Y-53998D01*
X36326Y-54151D01*
X36326Y-54341D01*
X36287Y-54493D01*
X36249Y-54570D01*
X36211Y-54608D01*
X36135Y-54646D01*
X36059Y-54646D01*
X35983Y-54608D01*
X35945Y-54570D01*
X35906Y-54493D01*
X35868Y-54341D01*
X35868Y-54151D01*
X35906Y-53998D01*
X35945Y-53922D01*
X35983Y-53884D01*
X36059Y-53846D01*
X36630Y-53846D02*
X36630Y-53998D01*
X36935Y-53846D02*
X36935Y-53998D01*
X38460Y-53808D02*
X37774Y-54836D01*
X39756Y-54646D02*
X39298Y-54646D01*
X39527Y-54646D02*
X39527Y-53846D01*
X39451Y-53960D01*
X39375Y-54036D01*
X39298Y-54074D01*
X40098Y-54570D02*
X40137Y-54608D01*
X40098Y-54646D01*
X40060Y-54608D01*
X40098Y-54570D01*
X40098Y-54646D01*
X40632Y-53846D02*
X40708Y-53846D01*
X40784Y-53884D01*
X40822Y-53922D01*
X40860Y-53998D01*
X40899Y-54151D01*
X40899Y-54341D01*
X40860Y-54493D01*
X40822Y-54570D01*
X40784Y-54608D01*
X40708Y-54646D01*
X40632Y-54646D01*
X40556Y-54608D01*
X40518Y-54570D01*
X40479Y-54493D01*
X40441Y-54341D01*
X40441Y-54151D01*
X40479Y-53998D01*
X40518Y-53922D01*
X40556Y-53884D01*
X40632Y-53846D01*
X41203Y-53922D02*
X41241Y-53884D01*
X41318Y-53846D01*
X41508Y-53846D01*
X41584Y-53884D01*
X41622Y-53922D01*
X41661Y-53998D01*
X41661Y-54074D01*
X41622Y-54189D01*
X41165Y-54646D01*
X41661Y-54646D01*
X42003Y-54646D02*
X42003Y-54112D01*
X42003Y-54189D02*
X42042Y-54151D01*
X42118Y-54112D01*
X42232Y-54112D01*
X42308Y-54151D01*
X42346Y-54227D01*
X42346Y-54646D01*
X42346Y-54227D02*
X42384Y-54151D01*
X42461Y-54112D01*
X42575Y-54112D01*
X42651Y-54151D01*
X42689Y-54227D01*
X42689Y-54646D01*
X43070Y-54646D02*
X43070Y-54112D01*
X43070Y-54189D02*
X43109Y-54151D01*
X43185Y-54112D01*
X43299Y-54112D01*
X43375Y-54151D01*
X43413Y-54227D01*
X43413Y-54646D01*
X43413Y-54227D02*
X43451Y-54151D01*
X43528Y-54112D01*
X43642Y-54112D01*
X43718Y-54151D01*
X43756Y-54227D01*
X43756Y-54646D01*
X44976Y-54951D02*
X44938Y-54912D01*
X44862Y-54798D01*
X44824Y-54722D01*
X44786Y-54608D01*
X44747Y-54417D01*
X44747Y-54265D01*
X44786Y-54074D01*
X44824Y-53960D01*
X44862Y-53884D01*
X44938Y-53770D01*
X44976Y-53732D01*
X45700Y-54646D02*
X45242Y-54646D01*
X45471Y-54646D02*
X45471Y-53846D01*
X45395Y-53960D01*
X45319Y-54036D01*
X45242Y-54074D01*
X46385Y-53846D02*
X46233Y-53846D01*
X46157Y-53884D01*
X46119Y-53922D01*
X46042Y-54036D01*
X46004Y-54189D01*
X46004Y-54493D01*
X46042Y-54570D01*
X46081Y-54608D01*
X46157Y-54646D01*
X46309Y-54646D01*
X46385Y-54608D01*
X46423Y-54570D01*
X46462Y-54493D01*
X46462Y-54303D01*
X46423Y-54227D01*
X46385Y-54189D01*
X46309Y-54151D01*
X46157Y-54151D01*
X46081Y-54189D01*
X46042Y-54227D01*
X46004Y-54303D01*
X47414Y-54646D02*
X47414Y-53846D01*
X47757Y-54646D02*
X47757Y-54227D01*
X47719Y-54151D01*
X47643Y-54112D01*
X47529Y-54112D01*
X47453Y-54151D01*
X47414Y-54189D01*
X48253Y-54646D02*
X48177Y-54608D01*
X48138Y-54570D01*
X48100Y-54493D01*
X48100Y-54265D01*
X48138Y-54189D01*
X48177Y-54151D01*
X48253Y-54112D01*
X48367Y-54112D01*
X48443Y-54151D01*
X48481Y-54189D01*
X48519Y-54265D01*
X48519Y-54493D01*
X48481Y-54570D01*
X48443Y-54608D01*
X48367Y-54646D01*
X48253Y-54646D01*
X48977Y-54646D02*
X48901Y-54608D01*
X48862Y-54532D01*
X48862Y-53846D01*
X49586Y-54608D02*
X49510Y-54646D01*
X49358Y-54646D01*
X49281Y-54608D01*
X49243Y-54532D01*
X49243Y-54227D01*
X49281Y-54151D01*
X49358Y-54112D01*
X49510Y-54112D01*
X49586Y-54151D01*
X49624Y-54227D01*
X49624Y-54303D01*
X49243Y-54379D01*
X49929Y-54608D02*
X50006Y-54646D01*
X50158Y-54646D01*
X50234Y-54608D01*
X50272Y-54532D01*
X50272Y-54493D01*
X50234Y-54417D01*
X50158Y-54379D01*
X50044Y-54379D01*
X49967Y-54341D01*
X49929Y-54265D01*
X49929Y-54227D01*
X49967Y-54151D01*
X50044Y-54112D01*
X50158Y-54112D01*
X50234Y-54151D01*
X50539Y-54951D02*
X50577Y-54912D01*
X50654Y-54798D01*
X50692Y-54722D01*
X50730Y-54608D01*
X50768Y-54417D01*
X50768Y-54265D01*
X50730Y-54074D01*
X50692Y-53960D01*
X50654Y-53884D01*
X50577Y-53770D01*
X50539Y-53732D01*
G54D10*
X32849Y-55377D02*
X32844Y-55420D01*
X32832Y-55462D01*
X32811Y-55501D01*
X32783Y-55535D01*
X32749Y-55563D01*
X32711Y-55584D01*
X32669Y-55597D01*
X32625Y-55601D01*
X32582Y-55598D01*
X32540Y-55585D01*
X32501Y-55565D01*
X32467Y-55537D01*
X32439Y-55504D01*
X32418Y-55465D01*
X32404Y-55423D01*
X32400Y-55380D01*
X32403Y-55337D01*
X32415Y-55295D01*
X32435Y-55256D01*
X32463Y-55221D01*
X32496Y-55193D01*
X32534Y-55171D01*
X32576Y-55158D01*
X32620Y-55153D01*
X32663Y-55156D01*
X32705Y-55168D01*
X32744Y-55188D01*
X32779Y-55215D01*
X32807Y-55248D01*
X32829Y-55286D01*
X32843Y-55328D01*
X32848Y-55371D01*
X32849Y-55377D01*
X32399Y-55377D02*
X32849Y-55377D01*
G54D12*
X33392Y-54901D02*
X33468Y-54901D01*
X33544Y-54939D01*
X33582Y-54977D01*
X33620Y-55053D01*
X33659Y-55206D01*
X33659Y-55396D01*
X33620Y-55548D01*
X33582Y-55625D01*
X33544Y-55663D01*
X33468Y-55701D01*
X33392Y-55701D01*
X33316Y-55663D01*
X33278Y-55625D01*
X33239Y-55548D01*
X33201Y-55396D01*
X33201Y-55206D01*
X33239Y-55053D01*
X33278Y-54977D01*
X33316Y-54939D01*
X33392Y-54901D01*
X34001Y-55625D02*
X34040Y-55663D01*
X34001Y-55701D01*
X33963Y-55663D01*
X34001Y-55625D01*
X34001Y-55701D01*
X34535Y-54901D02*
X34611Y-54901D01*
X34687Y-54939D01*
X34725Y-54977D01*
X34763Y-55053D01*
X34802Y-55206D01*
X34802Y-55396D01*
X34763Y-55548D01*
X34725Y-55625D01*
X34687Y-55663D01*
X34611Y-55701D01*
X34535Y-55701D01*
X34459Y-55663D01*
X34421Y-55625D01*
X34382Y-55548D01*
X34344Y-55396D01*
X34344Y-55206D01*
X34382Y-55053D01*
X34421Y-54977D01*
X34459Y-54939D01*
X34535Y-54901D01*
X35487Y-55167D02*
X35487Y-55701D01*
X35297Y-54863D02*
X35106Y-55434D01*
X35602Y-55434D01*
X36287Y-54901D02*
X35906Y-54901D01*
X35868Y-55282D01*
X35906Y-55244D01*
X35983Y-55206D01*
X36173Y-55206D01*
X36249Y-55244D01*
X36287Y-55282D01*
X36326Y-55358D01*
X36326Y-55548D01*
X36287Y-55625D01*
X36249Y-55663D01*
X36173Y-55701D01*
X35983Y-55701D01*
X35906Y-55663D01*
X35868Y-55625D01*
X36630Y-54901D02*
X36630Y-55053D01*
X36935Y-54901D02*
X36935Y-55053D01*
X38460Y-54863D02*
X37774Y-55891D01*
X39756Y-55701D02*
X39298Y-55701D01*
X39527Y-55701D02*
X39527Y-54901D01*
X39451Y-55015D01*
X39375Y-55091D01*
X39298Y-55129D01*
X40098Y-55625D02*
X40137Y-55663D01*
X40098Y-55701D01*
X40060Y-55663D01*
X40098Y-55625D01*
X40098Y-55701D01*
X40899Y-55701D02*
X40441Y-55701D01*
X40670Y-55701D02*
X40670Y-54901D01*
X40594Y-55015D01*
X40518Y-55091D01*
X40441Y-55129D01*
X41584Y-55167D02*
X41584Y-55701D01*
X41394Y-54863D02*
X41203Y-55434D01*
X41699Y-55434D01*
X42003Y-55701D02*
X42003Y-55167D01*
X42003Y-55244D02*
X42042Y-55206D01*
X42118Y-55167D01*
X42232Y-55167D01*
X42308Y-55206D01*
X42346Y-55282D01*
X42346Y-55701D01*
X42346Y-55282D02*
X42384Y-55206D01*
X42461Y-55167D01*
X42575Y-55167D01*
X42651Y-55206D01*
X42689Y-55282D01*
X42689Y-55701D01*
X43070Y-55701D02*
X43070Y-55167D01*
X43070Y-55244D02*
X43109Y-55206D01*
X43185Y-55167D01*
X43299Y-55167D01*
X43375Y-55206D01*
X43413Y-55282D01*
X43413Y-55701D01*
X43413Y-55282D02*
X43451Y-55206D01*
X43528Y-55167D01*
X43642Y-55167D01*
X43718Y-55206D01*
X43756Y-55282D01*
X43756Y-55701D01*
X44976Y-56006D02*
X44938Y-55967D01*
X44862Y-55853D01*
X44824Y-55777D01*
X44786Y-55663D01*
X44747Y-55472D01*
X44747Y-55320D01*
X44786Y-55129D01*
X44824Y-55015D01*
X44862Y-54939D01*
X44938Y-54825D01*
X44976Y-54787D01*
X45319Y-55701D02*
X45471Y-55701D01*
X45547Y-55663D01*
X45585Y-55625D01*
X45661Y-55510D01*
X45700Y-55358D01*
X45700Y-55053D01*
X45661Y-54977D01*
X45623Y-54939D01*
X45547Y-54901D01*
X45395Y-54901D01*
X45319Y-54939D01*
X45280Y-54977D01*
X45242Y-55053D01*
X45242Y-55244D01*
X45280Y-55320D01*
X45319Y-55358D01*
X45395Y-55396D01*
X45547Y-55396D01*
X45623Y-55358D01*
X45661Y-55320D01*
X45700Y-55244D01*
X46652Y-55701D02*
X46652Y-54901D01*
X46995Y-55701D02*
X46995Y-55282D01*
X46957Y-55206D01*
X46881Y-55167D01*
X46767Y-55167D01*
X46691Y-55206D01*
X46652Y-55244D01*
X47491Y-55701D02*
X47415Y-55663D01*
X47376Y-55625D01*
X47338Y-55548D01*
X47338Y-55320D01*
X47376Y-55244D01*
X47415Y-55206D01*
X47491Y-55167D01*
X47605Y-55167D01*
X47681Y-55206D01*
X47719Y-55244D01*
X47757Y-55320D01*
X47757Y-55548D01*
X47719Y-55625D01*
X47681Y-55663D01*
X47605Y-55701D01*
X47491Y-55701D01*
X48215Y-55701D02*
X48139Y-55663D01*
X48100Y-55587D01*
X48100Y-54901D01*
X48824Y-55663D02*
X48748Y-55701D01*
X48596Y-55701D01*
X48519Y-55663D01*
X48481Y-55587D01*
X48481Y-55282D01*
X48519Y-55206D01*
X48596Y-55167D01*
X48748Y-55167D01*
X48824Y-55206D01*
X48862Y-55282D01*
X48862Y-55358D01*
X48481Y-55434D01*
X49167Y-55663D02*
X49244Y-55701D01*
X49396Y-55701D01*
X49472Y-55663D01*
X49510Y-55587D01*
X49510Y-55548D01*
X49472Y-55472D01*
X49396Y-55434D01*
X49282Y-55434D01*
X49205Y-55396D01*
X49167Y-55320D01*
X49167Y-55282D01*
X49205Y-55206D01*
X49282Y-55167D01*
X49396Y-55167D01*
X49472Y-55206D01*
X49777Y-56006D02*
X49815Y-55967D01*
X49892Y-55853D01*
X49930Y-55777D01*
X49968Y-55663D01*
X50006Y-55472D01*
X50006Y-55320D01*
X49968Y-55129D01*
X49930Y-55015D01*
X49892Y-54939D01*
X49815Y-54825D01*
X49777Y-54787D01*
G54D10*
X32849Y-56432D02*
X32837Y-56548D01*
X32803Y-56660D01*
X32748Y-56764D01*
X32674Y-56854D01*
X32584Y-56929D01*
X32481Y-56985D01*
X32369Y-57019D01*
X32253Y-57031D01*
X32137Y-57021D01*
X32025Y-56988D01*
X31921Y-56934D01*
X31830Y-56860D01*
X31754Y-56770D01*
X31698Y-56668D01*
X31663Y-56556D01*
X31650Y-56440D01*
X31659Y-56324D01*
X31692Y-56212D01*
X31745Y-56107D01*
X31818Y-56016D01*
X31907Y-55940D01*
X32009Y-55883D01*
X32121Y-55846D01*
X32237Y-55833D01*
X32353Y-55842D01*
X32465Y-55873D01*
X32570Y-55926D01*
X32662Y-55998D01*
X32739Y-56087D01*
X32797Y-56188D01*
X32834Y-56300D01*
X32848Y-56416D01*
X32849Y-56432D01*
X32249Y-55832D02*
X32249Y-57032D01*
G54D12*
X33392Y-55956D02*
X33468Y-55956D01*
X33544Y-55994D01*
X33582Y-56032D01*
X33620Y-56108D01*
X33659Y-56261D01*
X33659Y-56451D01*
X33620Y-56603D01*
X33582Y-56680D01*
X33544Y-56718D01*
X33468Y-56756D01*
X33392Y-56756D01*
X33316Y-56718D01*
X33278Y-56680D01*
X33239Y-56603D01*
X33201Y-56451D01*
X33201Y-56261D01*
X33239Y-56108D01*
X33278Y-56032D01*
X33316Y-55994D01*
X33392Y-55956D01*
X34001Y-56680D02*
X34040Y-56718D01*
X34001Y-56756D01*
X33963Y-56718D01*
X34001Y-56680D01*
X34001Y-56756D01*
X34802Y-56756D02*
X34344Y-56756D01*
X34573Y-56756D02*
X34573Y-55956D01*
X34497Y-56070D01*
X34421Y-56146D01*
X34344Y-56184D01*
X35106Y-56032D02*
X35144Y-55994D01*
X35221Y-55956D01*
X35411Y-55956D01*
X35487Y-55994D01*
X35525Y-56032D01*
X35564Y-56108D01*
X35564Y-56184D01*
X35525Y-56299D01*
X35068Y-56756D01*
X35564Y-56756D01*
X36059Y-55956D02*
X36135Y-55956D01*
X36211Y-55994D01*
X36249Y-56032D01*
X36287Y-56108D01*
X36326Y-56261D01*
X36326Y-56451D01*
X36287Y-56603D01*
X36249Y-56680D01*
X36211Y-56718D01*
X36135Y-56756D01*
X36059Y-56756D01*
X35983Y-56718D01*
X35945Y-56680D01*
X35906Y-56603D01*
X35868Y-56451D01*
X35868Y-56261D01*
X35906Y-56108D01*
X35945Y-56032D01*
X35983Y-55994D01*
X36059Y-55956D01*
X36630Y-55956D02*
X36630Y-56108D01*
X36935Y-55956D02*
X36935Y-56108D01*
X38460Y-55918D02*
X37774Y-56946D01*
X39260Y-55956D02*
X39756Y-55956D01*
X39489Y-56261D01*
X39603Y-56261D01*
X39679Y-56299D01*
X39717Y-56337D01*
X39756Y-56413D01*
X39756Y-56603D01*
X39717Y-56680D01*
X39679Y-56718D01*
X39603Y-56756D01*
X39375Y-56756D01*
X39298Y-56718D01*
X39260Y-56680D01*
X40098Y-56680D02*
X40137Y-56718D01*
X40098Y-56756D01*
X40060Y-56718D01*
X40098Y-56680D01*
X40098Y-56756D01*
X40632Y-55956D02*
X40708Y-55956D01*
X40784Y-55994D01*
X40822Y-56032D01*
X40860Y-56108D01*
X40899Y-56261D01*
X40899Y-56451D01*
X40860Y-56603D01*
X40822Y-56680D01*
X40784Y-56718D01*
X40708Y-56756D01*
X40632Y-56756D01*
X40556Y-56718D01*
X40518Y-56680D01*
X40479Y-56603D01*
X40441Y-56451D01*
X40441Y-56261D01*
X40479Y-56108D01*
X40518Y-56032D01*
X40556Y-55994D01*
X40632Y-55956D01*
X41622Y-55956D02*
X41241Y-55956D01*
X41203Y-56337D01*
X41241Y-56299D01*
X41318Y-56261D01*
X41508Y-56261D01*
X41584Y-56299D01*
X41622Y-56337D01*
X41661Y-56413D01*
X41661Y-56603D01*
X41622Y-56680D01*
X41584Y-56718D01*
X41508Y-56756D01*
X41318Y-56756D01*
X41241Y-56718D01*
X41203Y-56680D01*
X42003Y-56756D02*
X42003Y-56222D01*
X42003Y-56299D02*
X42042Y-56261D01*
X42118Y-56222D01*
X42232Y-56222D01*
X42308Y-56261D01*
X42346Y-56337D01*
X42346Y-56756D01*
X42346Y-56337D02*
X42384Y-56261D01*
X42461Y-56222D01*
X42575Y-56222D01*
X42651Y-56261D01*
X42689Y-56337D01*
X42689Y-56756D01*
X43070Y-56756D02*
X43070Y-56222D01*
X43070Y-56299D02*
X43109Y-56261D01*
X43185Y-56222D01*
X43299Y-56222D01*
X43375Y-56261D01*
X43413Y-56337D01*
X43413Y-56756D01*
X43413Y-56337D02*
X43451Y-56261D01*
X43528Y-56222D01*
X43642Y-56222D01*
X43718Y-56261D01*
X43756Y-56337D01*
X43756Y-56756D01*
X44976Y-57061D02*
X44938Y-57022D01*
X44862Y-56908D01*
X44824Y-56832D01*
X44786Y-56718D01*
X44747Y-56527D01*
X44747Y-56375D01*
X44786Y-56184D01*
X44824Y-56070D01*
X44862Y-55994D01*
X44938Y-55880D01*
X44976Y-55842D01*
X45204Y-55956D02*
X45700Y-55956D01*
X45433Y-56261D01*
X45547Y-56261D01*
X45623Y-56299D01*
X45661Y-56337D01*
X45700Y-56413D01*
X45700Y-56603D01*
X45661Y-56680D01*
X45623Y-56718D01*
X45547Y-56756D01*
X45319Y-56756D01*
X45242Y-56718D01*
X45204Y-56680D01*
X46652Y-56756D02*
X46652Y-55956D01*
X46995Y-56756D02*
X46995Y-56337D01*
X46957Y-56261D01*
X46881Y-56222D01*
X46767Y-56222D01*
X46691Y-56261D01*
X46652Y-56299D01*
X47491Y-56756D02*
X47415Y-56718D01*
X47376Y-56680D01*
X47338Y-56603D01*
X47338Y-56375D01*
X47376Y-56299D01*
X47415Y-56261D01*
X47491Y-56222D01*
X47605Y-56222D01*
X47681Y-56261D01*
X47719Y-56299D01*
X47757Y-56375D01*
X47757Y-56603D01*
X47719Y-56680D01*
X47681Y-56718D01*
X47605Y-56756D01*
X47491Y-56756D01*
X48215Y-56756D02*
X48139Y-56718D01*
X48100Y-56642D01*
X48100Y-55956D01*
X48824Y-56718D02*
X48748Y-56756D01*
X48596Y-56756D01*
X48519Y-56718D01*
X48481Y-56642D01*
X48481Y-56337D01*
X48519Y-56261D01*
X48596Y-56222D01*
X48748Y-56222D01*
X48824Y-56261D01*
X48862Y-56337D01*
X48862Y-56413D01*
X48481Y-56489D01*
X49167Y-56718D02*
X49244Y-56756D01*
X49396Y-56756D01*
X49472Y-56718D01*
X49510Y-56642D01*
X49510Y-56603D01*
X49472Y-56527D01*
X49396Y-56489D01*
X49282Y-56489D01*
X49205Y-56451D01*
X49167Y-56375D01*
X49167Y-56337D01*
X49205Y-56261D01*
X49282Y-56222D01*
X49396Y-56222D01*
X49472Y-56261D01*
X49777Y-57061D02*
X49815Y-57022D01*
X49892Y-56908D01*
X49930Y-56832D01*
X49968Y-56718D01*
X50006Y-56527D01*
X50006Y-56375D01*
X49968Y-56184D01*
X49930Y-56070D01*
X49892Y-55994D01*
X49815Y-55880D01*
X49777Y-55842D01*
M02*
