G04 (created by PCBNEW-RS274X (2012-01-19 BZR 3256)-stable) date 10/1/2012 12:47:07 AM*
G01*
G70*
G90*
%MOIN*%
G04 Gerber Fmt 3.4, Leading zero omitted, Abs format*
%FSLAX34Y34*%
G04 APERTURE LIST*
%ADD10C,0.006000*%
%ADD11C,0.008000*%
%ADD12C,0.012000*%
%ADD13C,0.005000*%
%ADD14C,0.012500*%
%ADD15C,0.010000*%
G04 APERTURE END LIST*
G54D10*
G54D11*
X50000Y-31600D02*
X49996Y-31638D01*
X49984Y-31676D01*
X49966Y-31710D01*
X49941Y-31740D01*
X49911Y-31765D01*
X49877Y-31784D01*
X49840Y-31795D01*
X49801Y-31799D01*
X49763Y-31796D01*
X49726Y-31785D01*
X49691Y-31767D01*
X49661Y-31742D01*
X49635Y-31712D01*
X49617Y-31678D01*
X49605Y-31641D01*
X49601Y-31602D01*
X49604Y-31564D01*
X49615Y-31527D01*
X49632Y-31492D01*
X49657Y-31462D01*
X49686Y-31436D01*
X49720Y-31417D01*
X49758Y-31405D01*
X49796Y-31401D01*
X49834Y-31404D01*
X49872Y-31414D01*
X49907Y-31432D01*
X49937Y-31456D01*
X49963Y-31485D01*
X49982Y-31519D01*
X49995Y-31556D01*
X49999Y-31595D01*
X50000Y-31600D01*
X50150Y-31650D02*
X49900Y-31400D01*
X44650Y-31500D02*
X44750Y-31400D01*
X44650Y-36800D02*
X44750Y-36900D01*
X50050Y-36900D02*
X50150Y-36800D01*
X49900Y-31400D02*
X44750Y-31400D01*
X44650Y-31500D02*
X44650Y-36800D01*
X44750Y-36900D02*
X50050Y-36900D01*
X50150Y-36800D02*
X50150Y-31650D01*
G54D12*
X89350Y-32650D02*
X91350Y-32650D01*
X89350Y-33650D02*
X91350Y-33650D01*
X89350Y-34650D02*
X91350Y-34650D01*
X91350Y-35650D02*
X97350Y-35650D01*
X97350Y-35650D02*
X97350Y-31650D01*
X97350Y-31650D02*
X91350Y-31650D01*
X91350Y-31650D02*
X91350Y-35650D01*
X94350Y-35150D02*
X94350Y-31650D01*
X94350Y-35150D02*
X94350Y-35650D01*
G54D13*
X58200Y-34650D02*
X60200Y-34650D01*
X60200Y-34650D02*
X60200Y-36450D01*
X60200Y-36450D02*
X58200Y-36450D01*
X58200Y-36450D02*
X58200Y-34650D01*
X58200Y-35250D02*
X58400Y-35250D01*
X58400Y-35250D02*
X58400Y-35750D01*
X58400Y-35750D02*
X58200Y-35750D01*
X09650Y-15450D02*
X09650Y-16350D01*
X09650Y-16350D02*
X10300Y-16350D01*
X11000Y-15450D02*
X11650Y-15450D01*
X11650Y-15450D02*
X11650Y-16350D01*
X11650Y-16350D02*
X11000Y-16350D01*
X10300Y-15450D02*
X09650Y-15450D01*
X28300Y-28700D02*
X28300Y-29600D01*
X28300Y-29600D02*
X28950Y-29600D01*
X29650Y-28700D02*
X30300Y-28700D01*
X30300Y-28700D02*
X30300Y-29600D01*
X30300Y-29600D02*
X29650Y-29600D01*
X28950Y-28700D02*
X28300Y-28700D01*
X21350Y-20750D02*
X21350Y-21650D01*
X21350Y-21650D02*
X22000Y-21650D01*
X22700Y-20750D02*
X23350Y-20750D01*
X23350Y-20750D02*
X23350Y-21650D01*
X23350Y-21650D02*
X22700Y-21650D01*
X22000Y-20750D02*
X21350Y-20750D01*
X12350Y-19100D02*
X12350Y-20000D01*
X12350Y-20000D02*
X13000Y-20000D01*
X13700Y-19100D02*
X14350Y-19100D01*
X14350Y-19100D02*
X14350Y-20000D01*
X14350Y-20000D02*
X13700Y-20000D01*
X13000Y-19100D02*
X12350Y-19100D01*
X48650Y-46200D02*
X48650Y-45300D01*
X48650Y-45300D02*
X48000Y-45300D01*
X47300Y-46200D02*
X46650Y-46200D01*
X46650Y-46200D02*
X46650Y-45300D01*
X46650Y-45300D02*
X47300Y-45300D01*
X48000Y-46200D02*
X48650Y-46200D01*
X23850Y-40900D02*
X23850Y-41800D01*
X23850Y-41800D02*
X24500Y-41800D01*
X25200Y-40900D02*
X25850Y-40900D01*
X25850Y-40900D02*
X25850Y-41800D01*
X25850Y-41800D02*
X25200Y-41800D01*
X24500Y-40900D02*
X23850Y-40900D01*
X10350Y-06350D02*
X10350Y-07250D01*
X10350Y-07250D02*
X11000Y-07250D01*
X11700Y-06350D02*
X12350Y-06350D01*
X12350Y-06350D02*
X12350Y-07250D01*
X12350Y-07250D02*
X11700Y-07250D01*
X11000Y-06350D02*
X10350Y-06350D01*
X13150Y-06500D02*
X13150Y-07400D01*
X13150Y-07400D02*
X13800Y-07400D01*
X14500Y-06500D02*
X15150Y-06500D01*
X15150Y-06500D02*
X15150Y-07400D01*
X15150Y-07400D02*
X14500Y-07400D01*
X13800Y-06500D02*
X13150Y-06500D01*
X06800Y-04900D02*
X06800Y-05800D01*
X06800Y-05800D02*
X07450Y-05800D01*
X08150Y-04900D02*
X08800Y-04900D01*
X08800Y-04900D02*
X08800Y-05800D01*
X08800Y-05800D02*
X08150Y-05800D01*
X07450Y-04900D02*
X06800Y-04900D01*
X07100Y-08350D02*
X07100Y-09250D01*
X07100Y-09250D02*
X07750Y-09250D01*
X08450Y-08350D02*
X09100Y-08350D01*
X09100Y-08350D02*
X09100Y-09250D01*
X09100Y-09250D02*
X08450Y-09250D01*
X07750Y-08350D02*
X07100Y-08350D01*
X10250Y-08500D02*
X10250Y-09400D01*
X10250Y-09400D02*
X10900Y-09400D01*
X11600Y-08500D02*
X12250Y-08500D01*
X12250Y-08500D02*
X12250Y-09400D01*
X12250Y-09400D02*
X11600Y-09400D01*
X10900Y-08500D02*
X10250Y-08500D01*
X12800Y-08600D02*
X12800Y-09500D01*
X12800Y-09500D02*
X13450Y-09500D01*
X14150Y-08600D02*
X14800Y-08600D01*
X14800Y-08600D02*
X14800Y-09500D01*
X14800Y-09500D02*
X14150Y-09500D01*
X13450Y-08600D02*
X12800Y-08600D01*
X09150Y-10900D02*
X09150Y-11800D01*
X09150Y-11800D02*
X09800Y-11800D01*
X10500Y-10900D02*
X11150Y-10900D01*
X11150Y-10900D02*
X11150Y-11800D01*
X11150Y-11800D02*
X10500Y-11800D01*
X09800Y-10900D02*
X09150Y-10900D01*
X42700Y-42450D02*
X42700Y-43350D01*
X42700Y-43350D02*
X43350Y-43350D01*
X44050Y-42450D02*
X44700Y-42450D01*
X44700Y-42450D02*
X44700Y-43350D01*
X44700Y-43350D02*
X44050Y-43350D01*
X43350Y-42450D02*
X42700Y-42450D01*
X52600Y-43350D02*
X52600Y-42450D01*
X52600Y-42450D02*
X51950Y-42450D01*
X51250Y-43350D02*
X50600Y-43350D01*
X50600Y-43350D02*
X50600Y-42450D01*
X50600Y-42450D02*
X51250Y-42450D01*
X51950Y-43350D02*
X52600Y-43350D01*
X06200Y-15550D02*
X06200Y-16450D01*
X06200Y-16450D02*
X06850Y-16450D01*
X07550Y-15550D02*
X08200Y-15550D01*
X08200Y-15550D02*
X08200Y-16450D01*
X08200Y-16450D02*
X07550Y-16450D01*
X06850Y-15550D02*
X06200Y-15550D01*
G54D12*
X34300Y-21350D02*
X34300Y-20350D01*
X34300Y-20350D02*
X40300Y-20350D01*
X40300Y-20350D02*
X40300Y-21350D01*
X40300Y-21350D02*
X34300Y-21350D01*
X35300Y-21350D02*
X35300Y-20350D01*
X82600Y-06850D02*
X84600Y-06850D01*
X82600Y-07850D02*
X84600Y-07850D01*
X82600Y-08850D02*
X84600Y-08850D01*
X84600Y-06350D02*
X84600Y-09850D01*
X84600Y-09850D02*
X90600Y-09850D01*
X90600Y-09850D02*
X90600Y-05850D01*
X84600Y-06350D02*
X84600Y-05850D01*
X87600Y-09350D02*
X87600Y-05850D01*
X87600Y-09350D02*
X87600Y-09850D01*
X84600Y-05850D02*
X90600Y-05850D01*
X53200Y-09600D02*
X55200Y-09600D01*
X53200Y-10600D02*
X55200Y-10600D01*
X53200Y-11600D02*
X55200Y-11600D01*
X55200Y-09100D02*
X55200Y-12600D01*
X55200Y-12600D02*
X61200Y-12600D01*
X61200Y-12600D02*
X61200Y-08600D01*
X55200Y-09100D02*
X55200Y-08600D01*
X58200Y-12100D02*
X58200Y-08600D01*
X58200Y-12100D02*
X58200Y-12600D01*
X55200Y-08600D02*
X61200Y-08600D01*
G54D14*
X46350Y-44100D02*
X48850Y-44100D01*
X46350Y-42100D02*
X48850Y-42100D01*
X49850Y-43100D02*
X49846Y-43013D01*
X49834Y-42927D01*
X49815Y-42842D01*
X49789Y-42758D01*
X49756Y-42678D01*
X49716Y-42601D01*
X49669Y-42527D01*
X49616Y-42458D01*
X49557Y-42393D01*
X49492Y-42334D01*
X49423Y-42281D01*
X49350Y-42234D01*
X49272Y-42194D01*
X49192Y-42161D01*
X49108Y-42135D01*
X49023Y-42116D01*
X48937Y-42104D01*
X48850Y-42100D01*
X48850Y-44100D02*
X48937Y-44096D01*
X49023Y-44084D01*
X49108Y-44065D01*
X49192Y-44039D01*
X49272Y-44006D01*
X49350Y-43966D01*
X49423Y-43919D01*
X49492Y-43866D01*
X49557Y-43807D01*
X49616Y-43742D01*
X49669Y-43673D01*
X49716Y-43599D01*
X49756Y-43522D01*
X49789Y-43442D01*
X49815Y-43358D01*
X49834Y-43273D01*
X49846Y-43187D01*
X49850Y-43100D01*
X46350Y-42100D02*
X46263Y-42104D01*
X46177Y-42116D01*
X46092Y-42135D01*
X46008Y-42161D01*
X45928Y-42194D01*
X45851Y-42234D01*
X45777Y-42281D01*
X45708Y-42334D01*
X45643Y-42393D01*
X45584Y-42458D01*
X45531Y-42527D01*
X45484Y-42601D01*
X45444Y-42678D01*
X45411Y-42758D01*
X45385Y-42842D01*
X45366Y-42927D01*
X45354Y-43013D01*
X45350Y-43100D01*
X45350Y-43100D02*
X45354Y-43187D01*
X45366Y-43273D01*
X45385Y-43358D01*
X45411Y-43442D01*
X45444Y-43522D01*
X45484Y-43599D01*
X45531Y-43673D01*
X45584Y-43742D01*
X45643Y-43807D01*
X45708Y-43866D01*
X45777Y-43919D01*
X45851Y-43966D01*
X45928Y-44006D01*
X46008Y-44039D01*
X46092Y-44065D01*
X46177Y-44084D01*
X46263Y-44096D01*
X46350Y-44100D01*
G54D15*
X18500Y-31000D02*
X19000Y-31000D01*
X19000Y-31000D02*
X19000Y-32000D01*
X19000Y-32000D02*
X18500Y-32000D01*
X18500Y-30500D02*
X22500Y-30500D01*
X22500Y-30500D02*
X22500Y-32500D01*
X22500Y-32500D02*
X18500Y-32500D01*
X18500Y-32500D02*
X18500Y-30500D01*
G54D12*
X33650Y-11250D02*
X36650Y-11250D01*
X36650Y-11250D02*
X36650Y-12250D01*
X36650Y-12250D02*
X33650Y-12250D01*
X33650Y-12250D02*
X33650Y-11250D01*
X36400Y-11250D02*
X36400Y-12250D01*
X36150Y-12250D02*
X36150Y-11250D01*
X33650Y-11750D02*
X33150Y-11750D01*
X36650Y-11750D02*
X37150Y-11750D01*
X57350Y-39300D02*
X57350Y-39300D01*
X57350Y-39300D02*
X57350Y-39300D01*
X57350Y-39300D02*
X57350Y-39300D01*
X57350Y-39300D02*
X61100Y-39300D01*
X61100Y-39300D02*
X61100Y-40300D01*
X61100Y-40300D02*
X57350Y-40300D01*
X57350Y-40300D02*
X57350Y-39300D01*
X57350Y-39550D02*
X57350Y-39550D01*
X57350Y-39550D02*
X57100Y-39550D01*
X57100Y-39550D02*
X57100Y-40050D01*
X57100Y-40050D02*
X57350Y-40050D01*
X56600Y-39800D02*
X56600Y-39800D01*
X56600Y-39800D02*
X57100Y-39800D01*
X57100Y-39800D02*
X57100Y-39800D01*
X57100Y-39800D02*
X57100Y-39800D01*
X61100Y-39800D02*
X61100Y-39800D01*
X61100Y-39800D02*
X61100Y-39800D01*
X61100Y-39800D02*
X61600Y-39800D01*
X61600Y-39800D02*
X61600Y-39800D01*
X61600Y-39800D02*
X61600Y-39800D01*
X61600Y-39800D02*
X61600Y-39800D01*
X35000Y-14950D02*
X35000Y-14950D01*
X35000Y-14950D02*
X35000Y-14950D01*
X35000Y-14950D02*
X35000Y-14950D01*
X35000Y-14950D02*
X38750Y-14950D01*
X38750Y-14950D02*
X38750Y-15950D01*
X38750Y-15950D02*
X35000Y-15950D01*
X35000Y-15950D02*
X35000Y-14950D01*
X35000Y-15200D02*
X35000Y-15200D01*
X35000Y-15200D02*
X34750Y-15200D01*
X34750Y-15200D02*
X34750Y-15700D01*
X34750Y-15700D02*
X35000Y-15700D01*
X34250Y-15450D02*
X34250Y-15450D01*
X34250Y-15450D02*
X34750Y-15450D01*
X34750Y-15450D02*
X34750Y-15450D01*
X34750Y-15450D02*
X34750Y-15450D01*
X38750Y-15450D02*
X38750Y-15450D01*
X38750Y-15450D02*
X38750Y-15450D01*
X38750Y-15450D02*
X39250Y-15450D01*
X39250Y-15450D02*
X39250Y-15450D01*
X39250Y-15450D02*
X39250Y-15450D01*
X39250Y-15450D02*
X39250Y-15450D01*
X39350Y-25450D02*
X38950Y-25450D01*
X38950Y-25450D02*
X38950Y-25850D01*
X38950Y-25850D02*
X35950Y-25850D01*
X35950Y-25850D02*
X35950Y-25050D01*
X35950Y-25050D02*
X38950Y-25050D01*
X38950Y-25050D02*
X38950Y-25450D01*
X35350Y-25450D02*
X35750Y-25450D01*
X35950Y-25650D02*
X35750Y-25650D01*
X35750Y-25650D02*
X35750Y-25250D01*
X35750Y-25250D02*
X35950Y-25250D01*
X39450Y-28050D02*
X39050Y-28050D01*
X39050Y-28050D02*
X39050Y-28450D01*
X39050Y-28450D02*
X36050Y-28450D01*
X36050Y-28450D02*
X36050Y-27650D01*
X36050Y-27650D02*
X39050Y-27650D01*
X39050Y-27650D02*
X39050Y-28050D01*
X35450Y-28050D02*
X35850Y-28050D01*
X36050Y-28250D02*
X35850Y-28250D01*
X35850Y-28250D02*
X35850Y-27850D01*
X35850Y-27850D02*
X36050Y-27850D01*
X59750Y-20750D02*
X59350Y-20750D01*
X59350Y-20750D02*
X59350Y-21150D01*
X59350Y-21150D02*
X56350Y-21150D01*
X56350Y-21150D02*
X56350Y-20350D01*
X56350Y-20350D02*
X59350Y-20350D01*
X59350Y-20350D02*
X59350Y-20750D01*
X55750Y-20750D02*
X56150Y-20750D01*
X56350Y-20950D02*
X56150Y-20950D01*
X56150Y-20950D02*
X56150Y-20550D01*
X56150Y-20550D02*
X56350Y-20550D01*
X74600Y-12000D02*
X74200Y-12000D01*
X74200Y-12000D02*
X74200Y-12400D01*
X74200Y-12400D02*
X71200Y-12400D01*
X71200Y-12400D02*
X71200Y-11600D01*
X71200Y-11600D02*
X74200Y-11600D01*
X74200Y-11600D02*
X74200Y-12000D01*
X70600Y-12000D02*
X71000Y-12000D01*
X71200Y-12200D02*
X71000Y-12200D01*
X71000Y-12200D02*
X71000Y-11800D01*
X71000Y-11800D02*
X71200Y-11800D01*
X67000Y-16100D02*
X66600Y-16100D01*
X66600Y-16100D02*
X66600Y-16500D01*
X66600Y-16500D02*
X63600Y-16500D01*
X63600Y-16500D02*
X63600Y-15700D01*
X63600Y-15700D02*
X66600Y-15700D01*
X66600Y-15700D02*
X66600Y-16100D01*
X63000Y-16100D02*
X63400Y-16100D01*
X63600Y-16300D02*
X63400Y-16300D01*
X63400Y-16300D02*
X63400Y-15900D01*
X63400Y-15900D02*
X63600Y-15900D01*
X65950Y-23850D02*
X65550Y-23850D01*
X65550Y-23850D02*
X65550Y-24250D01*
X65550Y-24250D02*
X62550Y-24250D01*
X62550Y-24250D02*
X62550Y-23450D01*
X62550Y-23450D02*
X65550Y-23450D01*
X65550Y-23450D02*
X65550Y-23850D01*
X61950Y-23850D02*
X62350Y-23850D01*
X62550Y-24050D02*
X62350Y-24050D01*
X62350Y-24050D02*
X62350Y-23650D01*
X62350Y-23650D02*
X62550Y-23650D01*
X76650Y-52700D02*
X76250Y-52700D01*
X76250Y-52700D02*
X76250Y-53100D01*
X76250Y-53100D02*
X73250Y-53100D01*
X73250Y-53100D02*
X73250Y-52300D01*
X73250Y-52300D02*
X76250Y-52300D01*
X76250Y-52300D02*
X76250Y-52700D01*
X72650Y-52700D02*
X73050Y-52700D01*
X73250Y-52900D02*
X73050Y-52900D01*
X73050Y-52900D02*
X73050Y-52500D01*
X73050Y-52500D02*
X73250Y-52500D01*
X70400Y-42650D02*
X70000Y-42650D01*
X70000Y-42650D02*
X70000Y-43050D01*
X70000Y-43050D02*
X67000Y-43050D01*
X67000Y-43050D02*
X67000Y-42250D01*
X67000Y-42250D02*
X70000Y-42250D01*
X70000Y-42250D02*
X70000Y-42650D01*
X66400Y-42650D02*
X66800Y-42650D01*
X67000Y-42850D02*
X66800Y-42850D01*
X66800Y-42850D02*
X66800Y-42450D01*
X66800Y-42450D02*
X67000Y-42450D01*
X76650Y-56150D02*
X76250Y-56150D01*
X76250Y-56150D02*
X76250Y-56550D01*
X76250Y-56550D02*
X73250Y-56550D01*
X73250Y-56550D02*
X73250Y-55750D01*
X73250Y-55750D02*
X76250Y-55750D01*
X76250Y-55750D02*
X76250Y-56150D01*
X72650Y-56150D02*
X73050Y-56150D01*
X73250Y-56350D02*
X73050Y-56350D01*
X73050Y-56350D02*
X73050Y-55950D01*
X73050Y-55950D02*
X73250Y-55950D01*
X70300Y-39400D02*
X69900Y-39400D01*
X69900Y-39400D02*
X69900Y-39800D01*
X69900Y-39800D02*
X66900Y-39800D01*
X66900Y-39800D02*
X66900Y-39000D01*
X66900Y-39000D02*
X69900Y-39000D01*
X69900Y-39000D02*
X69900Y-39400D01*
X66300Y-39400D02*
X66700Y-39400D01*
X66900Y-39600D02*
X66700Y-39600D01*
X66700Y-39600D02*
X66700Y-39200D01*
X66700Y-39200D02*
X66900Y-39200D01*
X58250Y-15000D02*
X57850Y-15000D01*
X57850Y-15000D02*
X57850Y-15400D01*
X57850Y-15400D02*
X54850Y-15400D01*
X54850Y-15400D02*
X54850Y-14600D01*
X54850Y-14600D02*
X57850Y-14600D01*
X57850Y-14600D02*
X57850Y-15000D01*
X54250Y-15000D02*
X54650Y-15000D01*
X54850Y-15200D02*
X54650Y-15200D01*
X54650Y-15200D02*
X54650Y-14800D01*
X54650Y-14800D02*
X54850Y-14800D01*
X68000Y-06800D02*
X67600Y-06800D01*
X67600Y-06800D02*
X67600Y-07200D01*
X67600Y-07200D02*
X64600Y-07200D01*
X64600Y-07200D02*
X64600Y-06400D01*
X64600Y-06400D02*
X67600Y-06400D01*
X67600Y-06400D02*
X67600Y-06800D01*
X64000Y-06800D02*
X64400Y-06800D01*
X64600Y-07000D02*
X64400Y-07000D01*
X64400Y-07000D02*
X64400Y-06600D01*
X64400Y-06600D02*
X64600Y-06600D01*
X59750Y-18100D02*
X59350Y-18100D01*
X59350Y-18100D02*
X59350Y-18500D01*
X59350Y-18500D02*
X56350Y-18500D01*
X56350Y-18500D02*
X56350Y-17700D01*
X56350Y-17700D02*
X59350Y-17700D01*
X59350Y-17700D02*
X59350Y-18100D01*
X55750Y-18100D02*
X56150Y-18100D01*
X56350Y-18300D02*
X56150Y-18300D01*
X56150Y-18300D02*
X56150Y-17900D01*
X56150Y-17900D02*
X56350Y-17900D01*
X46700Y-06400D02*
X46300Y-06400D01*
X46300Y-06400D02*
X46300Y-06800D01*
X46300Y-06800D02*
X43300Y-06800D01*
X43300Y-06800D02*
X43300Y-06000D01*
X43300Y-06000D02*
X46300Y-06000D01*
X46300Y-06000D02*
X46300Y-06400D01*
X42700Y-06400D02*
X43100Y-06400D01*
X43300Y-06600D02*
X43100Y-06600D01*
X43100Y-06600D02*
X43100Y-06200D01*
X43100Y-06200D02*
X43300Y-06200D01*
X48100Y-09600D02*
X47700Y-09600D01*
X47700Y-09600D02*
X47700Y-10000D01*
X47700Y-10000D02*
X44700Y-10000D01*
X44700Y-10000D02*
X44700Y-09200D01*
X44700Y-09200D02*
X47700Y-09200D01*
X47700Y-09200D02*
X47700Y-09600D01*
X44100Y-09600D02*
X44500Y-09600D01*
X44700Y-09800D02*
X44500Y-09800D01*
X44500Y-09800D02*
X44500Y-09400D01*
X44500Y-09400D02*
X44700Y-09400D01*
G54D15*
X47095Y-33043D02*
X47095Y-33529D01*
X47114Y-33586D01*
X47133Y-33614D01*
X47171Y-33643D01*
X47248Y-33643D01*
X47286Y-33614D01*
X47305Y-33586D01*
X47324Y-33529D01*
X47324Y-33043D01*
X47476Y-33043D02*
X47724Y-33043D01*
X47590Y-33271D01*
X47648Y-33271D01*
X47686Y-33300D01*
X47705Y-33329D01*
X47724Y-33386D01*
X47724Y-33529D01*
X47705Y-33586D01*
X47686Y-33614D01*
X47648Y-33643D01*
X47533Y-33643D01*
X47495Y-33614D01*
X47476Y-33586D01*
X45533Y-35393D02*
X45533Y-34793D01*
X45686Y-34793D01*
X45724Y-34821D01*
X45743Y-34850D01*
X45762Y-34907D01*
X45762Y-34993D01*
X45743Y-35050D01*
X45724Y-35079D01*
X45686Y-35107D01*
X45533Y-35107D01*
X45933Y-35393D02*
X45933Y-34793D01*
X46352Y-35336D02*
X46333Y-35364D01*
X46276Y-35393D01*
X46238Y-35393D01*
X46180Y-35364D01*
X46142Y-35307D01*
X46123Y-35250D01*
X46104Y-35136D01*
X46104Y-35050D01*
X46123Y-34936D01*
X46142Y-34879D01*
X46180Y-34821D01*
X46238Y-34793D01*
X46276Y-34793D01*
X46333Y-34821D01*
X46352Y-34850D01*
X46733Y-35393D02*
X46504Y-35393D01*
X46618Y-35393D02*
X46618Y-34793D01*
X46580Y-34879D01*
X46542Y-34936D01*
X46504Y-34964D01*
X46961Y-35050D02*
X46923Y-35021D01*
X46904Y-34993D01*
X46885Y-34936D01*
X46885Y-34907D01*
X46904Y-34850D01*
X46923Y-34821D01*
X46961Y-34793D01*
X47038Y-34793D01*
X47076Y-34821D01*
X47095Y-34850D01*
X47114Y-34907D01*
X47114Y-34936D01*
X47095Y-34993D01*
X47076Y-35021D01*
X47038Y-35050D01*
X46961Y-35050D01*
X46923Y-35079D01*
X46904Y-35107D01*
X46885Y-35164D01*
X46885Y-35279D01*
X46904Y-35336D01*
X46923Y-35364D01*
X46961Y-35393D01*
X47038Y-35393D01*
X47076Y-35364D01*
X47095Y-35336D01*
X47114Y-35279D01*
X47114Y-35164D01*
X47095Y-35107D01*
X47076Y-35079D01*
X47038Y-35050D01*
X47419Y-35079D02*
X47285Y-35079D01*
X47285Y-35393D02*
X47285Y-34793D01*
X47476Y-34793D01*
X47647Y-35393D02*
X47723Y-35393D01*
X47762Y-35364D01*
X47781Y-35336D01*
X47819Y-35250D01*
X47838Y-35136D01*
X47838Y-34907D01*
X47819Y-34850D01*
X47800Y-34821D01*
X47762Y-34793D01*
X47685Y-34793D01*
X47647Y-34821D01*
X47628Y-34850D01*
X47609Y-34907D01*
X47609Y-35050D01*
X47628Y-35107D01*
X47647Y-35136D01*
X47685Y-35164D01*
X47762Y-35164D01*
X47800Y-35136D01*
X47819Y-35107D01*
X47838Y-35050D01*
X47971Y-34793D02*
X48238Y-34793D01*
X48066Y-35393D01*
X48505Y-34793D02*
X48505Y-35221D01*
X48485Y-35307D01*
X48447Y-35364D01*
X48390Y-35393D01*
X48352Y-35393D01*
X48867Y-34793D02*
X48790Y-34793D01*
X48752Y-34821D01*
X48733Y-34850D01*
X48695Y-34936D01*
X48676Y-35050D01*
X48676Y-35279D01*
X48695Y-35336D01*
X48714Y-35364D01*
X48752Y-35393D01*
X48829Y-35393D01*
X48867Y-35364D01*
X48886Y-35336D01*
X48905Y-35279D01*
X48905Y-35136D01*
X48886Y-35079D01*
X48867Y-35050D01*
X48829Y-35021D01*
X48752Y-35021D01*
X48714Y-35050D01*
X48695Y-35079D01*
X48676Y-35136D01*
X49152Y-34793D02*
X49191Y-34793D01*
X49229Y-34821D01*
X49248Y-34850D01*
X49267Y-34907D01*
X49286Y-35021D01*
X49286Y-35164D01*
X49267Y-35279D01*
X49248Y-35336D01*
X49229Y-35364D01*
X49191Y-35393D01*
X49152Y-35393D01*
X49114Y-35364D01*
X49095Y-35336D01*
X49076Y-35279D01*
X49057Y-35164D01*
X49057Y-35021D01*
X49076Y-34907D01*
X49095Y-34850D01*
X49114Y-34821D01*
X49152Y-34793D01*
G54D11*
X92300Y-33688D02*
X92281Y-33726D01*
X92243Y-33764D01*
X92186Y-33821D01*
X92167Y-33860D01*
X92167Y-33898D01*
X92262Y-33879D02*
X92243Y-33917D01*
X92205Y-33955D01*
X92129Y-33974D01*
X91995Y-33974D01*
X91919Y-33955D01*
X91881Y-33917D01*
X91862Y-33879D01*
X91862Y-33802D01*
X91881Y-33764D01*
X91919Y-33726D01*
X91995Y-33707D01*
X92129Y-33707D01*
X92205Y-33726D01*
X92243Y-33764D01*
X92262Y-33802D01*
X92262Y-33879D01*
X92262Y-33326D02*
X92262Y-33555D01*
X92262Y-33441D02*
X91862Y-33441D01*
X91919Y-33479D01*
X91957Y-33517D01*
X91976Y-33555D01*
X93552Y-36765D02*
X93552Y-36631D01*
X93762Y-36574D02*
X93762Y-36765D01*
X93362Y-36765D01*
X93362Y-36574D01*
X93762Y-36403D02*
X93362Y-36403D01*
X93762Y-36174D01*
X93362Y-36174D01*
X93762Y-35984D02*
X93362Y-35984D01*
X93552Y-35984D02*
X93552Y-35755D01*
X93762Y-35755D02*
X93362Y-35755D01*
X93648Y-35584D02*
X93648Y-35393D01*
X93762Y-35622D02*
X93362Y-35489D01*
X93762Y-35355D01*
X93762Y-35222D02*
X93362Y-35222D01*
X93762Y-34993D01*
X93362Y-34993D01*
X93724Y-34574D02*
X93743Y-34593D01*
X93762Y-34650D01*
X93762Y-34688D01*
X93743Y-34746D01*
X93705Y-34784D01*
X93667Y-34803D01*
X93590Y-34822D01*
X93533Y-34822D01*
X93457Y-34803D01*
X93419Y-34784D01*
X93381Y-34746D01*
X93362Y-34688D01*
X93362Y-34650D01*
X93381Y-34593D01*
X93400Y-34574D01*
X93552Y-34403D02*
X93552Y-34269D01*
X93762Y-34212D02*
X93762Y-34403D01*
X93362Y-34403D01*
X93362Y-34212D01*
X93762Y-34041D02*
X93362Y-34041D01*
X93362Y-33946D01*
X93381Y-33888D01*
X93419Y-33850D01*
X93457Y-33831D01*
X93533Y-33812D01*
X93590Y-33812D01*
X93667Y-33831D01*
X93705Y-33850D01*
X93743Y-33888D01*
X93762Y-33946D01*
X93762Y-34041D01*
X93800Y-33736D02*
X93800Y-33431D01*
X93762Y-33336D02*
X93362Y-33336D01*
X93648Y-33202D01*
X93362Y-33069D01*
X93762Y-33069D01*
X93362Y-32803D02*
X93362Y-32726D01*
X93381Y-32688D01*
X93419Y-32650D01*
X93495Y-32631D01*
X93629Y-32631D01*
X93705Y-32650D01*
X93743Y-32688D01*
X93762Y-32726D01*
X93762Y-32803D01*
X93743Y-32841D01*
X93705Y-32879D01*
X93629Y-32898D01*
X93495Y-32898D01*
X93419Y-32879D01*
X93381Y-32841D01*
X93362Y-32803D01*
X93743Y-32479D02*
X93762Y-32422D01*
X93762Y-32326D01*
X93743Y-32288D01*
X93724Y-32269D01*
X93686Y-32250D01*
X93648Y-32250D01*
X93610Y-32269D01*
X93590Y-32288D01*
X93571Y-32326D01*
X93552Y-32403D01*
X93533Y-32441D01*
X93514Y-32460D01*
X93476Y-32479D01*
X93438Y-32479D01*
X93400Y-32460D01*
X93381Y-32441D01*
X93362Y-32403D01*
X93362Y-32307D01*
X93381Y-32250D01*
X93552Y-31945D02*
X93552Y-32079D01*
X93762Y-32079D02*
X93362Y-32079D01*
X93362Y-31888D01*
X93552Y-31736D02*
X93552Y-31602D01*
X93762Y-31545D02*
X93762Y-31736D01*
X93362Y-31736D01*
X93362Y-31545D01*
X93362Y-31431D02*
X93362Y-31202D01*
X93762Y-31317D02*
X93362Y-31317D01*
X93800Y-31164D02*
X93800Y-30859D01*
X93762Y-30764D02*
X93362Y-30764D01*
X93762Y-30535D01*
X93362Y-30535D01*
G54D13*
X58895Y-34782D02*
X58895Y-35146D01*
X58914Y-35189D01*
X58933Y-35211D01*
X58971Y-35232D01*
X59048Y-35232D01*
X59086Y-35211D01*
X59105Y-35189D01*
X59124Y-35146D01*
X59124Y-34782D01*
X59295Y-34825D02*
X59314Y-34804D01*
X59352Y-34782D01*
X59448Y-34782D01*
X59486Y-34804D01*
X59505Y-34825D01*
X59524Y-34868D01*
X59524Y-34911D01*
X59505Y-34975D01*
X59276Y-35232D01*
X59524Y-35232D01*
X57962Y-35850D02*
X57981Y-35831D01*
X58019Y-35812D01*
X58115Y-35812D01*
X58153Y-35831D01*
X58172Y-35850D01*
X58191Y-35888D01*
X58191Y-35926D01*
X58172Y-35983D01*
X57943Y-36212D01*
X58191Y-36212D01*
X58553Y-35812D02*
X58362Y-35812D01*
X58343Y-36002D01*
X58362Y-35983D01*
X58400Y-35964D01*
X58496Y-35964D01*
X58534Y-35983D01*
X58553Y-36002D01*
X58572Y-36040D01*
X58572Y-36136D01*
X58553Y-36174D01*
X58534Y-36193D01*
X58496Y-36212D01*
X58400Y-36212D01*
X58362Y-36193D01*
X58343Y-36174D01*
X58934Y-36212D02*
X58743Y-36212D01*
X58743Y-35812D01*
X59296Y-36174D02*
X59277Y-36193D01*
X59220Y-36212D01*
X59182Y-36212D01*
X59124Y-36193D01*
X59086Y-36155D01*
X59067Y-36117D01*
X59048Y-36040D01*
X59048Y-35983D01*
X59067Y-35907D01*
X59086Y-35869D01*
X59124Y-35831D01*
X59182Y-35812D01*
X59220Y-35812D01*
X59277Y-35831D01*
X59296Y-35850D01*
X59448Y-35850D02*
X59467Y-35831D01*
X59505Y-35812D01*
X59601Y-35812D01*
X59639Y-35831D01*
X59658Y-35850D01*
X59677Y-35888D01*
X59677Y-35926D01*
X59658Y-35983D01*
X59429Y-36212D01*
X59677Y-36212D01*
X60039Y-35812D02*
X59848Y-35812D01*
X59829Y-36002D01*
X59848Y-35983D01*
X59886Y-35964D01*
X59982Y-35964D01*
X60020Y-35983D01*
X60039Y-36002D01*
X60058Y-36040D01*
X60058Y-36136D01*
X60039Y-36174D01*
X60020Y-36193D01*
X59982Y-36212D01*
X59886Y-36212D01*
X59848Y-36193D01*
X59829Y-36174D01*
X60401Y-35812D02*
X60324Y-35812D01*
X60286Y-35831D01*
X60267Y-35850D01*
X60229Y-35907D01*
X60210Y-35983D01*
X60210Y-36136D01*
X60229Y-36174D01*
X60248Y-36193D01*
X60286Y-36212D01*
X60363Y-36212D01*
X60401Y-36193D01*
X60420Y-36174D01*
X60439Y-36136D01*
X60439Y-36040D01*
X60420Y-36002D01*
X60401Y-35983D01*
X60363Y-35964D01*
X60286Y-35964D01*
X60248Y-35983D01*
X60229Y-36002D01*
X60210Y-36040D01*
X10457Y-16021D02*
X10357Y-15879D01*
X10285Y-16021D02*
X10285Y-15721D01*
X10400Y-15721D01*
X10428Y-15736D01*
X10443Y-15750D01*
X10457Y-15779D01*
X10457Y-15821D01*
X10443Y-15850D01*
X10428Y-15864D01*
X10400Y-15879D01*
X10285Y-15879D01*
X10743Y-16021D02*
X10571Y-16021D01*
X10657Y-16021D02*
X10657Y-15721D01*
X10628Y-15764D01*
X10600Y-15793D01*
X10571Y-15807D01*
X11029Y-16021D02*
X10857Y-16021D01*
X10943Y-16021D02*
X10943Y-15721D01*
X10914Y-15764D01*
X10886Y-15793D01*
X10857Y-15807D01*
X29250Y-29271D02*
X29150Y-29129D01*
X29078Y-29271D02*
X29078Y-28971D01*
X29193Y-28971D01*
X29221Y-28986D01*
X29236Y-29000D01*
X29250Y-29029D01*
X29250Y-29071D01*
X29236Y-29100D01*
X29221Y-29114D01*
X29193Y-29129D01*
X29078Y-29129D01*
X29364Y-29000D02*
X29378Y-28986D01*
X29407Y-28971D01*
X29478Y-28971D01*
X29507Y-28986D01*
X29521Y-29000D01*
X29536Y-29029D01*
X29536Y-29057D01*
X29521Y-29100D01*
X29350Y-29271D01*
X29536Y-29271D01*
X22300Y-21321D02*
X22200Y-21179D01*
X22128Y-21321D02*
X22128Y-21021D01*
X22243Y-21021D01*
X22271Y-21036D01*
X22286Y-21050D01*
X22300Y-21079D01*
X22300Y-21121D01*
X22286Y-21150D01*
X22271Y-21164D01*
X22243Y-21179D01*
X22128Y-21179D01*
X22400Y-21021D02*
X22586Y-21021D01*
X22486Y-21136D01*
X22528Y-21136D01*
X22557Y-21150D01*
X22571Y-21164D01*
X22586Y-21193D01*
X22586Y-21264D01*
X22571Y-21293D01*
X22557Y-21307D01*
X22528Y-21321D01*
X22443Y-21321D01*
X22414Y-21307D01*
X22400Y-21293D01*
X13300Y-19671D02*
X13200Y-19529D01*
X13128Y-19671D02*
X13128Y-19371D01*
X13243Y-19371D01*
X13271Y-19386D01*
X13286Y-19400D01*
X13300Y-19429D01*
X13300Y-19471D01*
X13286Y-19500D01*
X13271Y-19514D01*
X13243Y-19529D01*
X13128Y-19529D01*
X13557Y-19471D02*
X13557Y-19671D01*
X13486Y-19357D02*
X13414Y-19571D01*
X13600Y-19571D01*
X47600Y-45871D02*
X47500Y-45729D01*
X47428Y-45871D02*
X47428Y-45571D01*
X47543Y-45571D01*
X47571Y-45586D01*
X47586Y-45600D01*
X47600Y-45629D01*
X47600Y-45671D01*
X47586Y-45700D01*
X47571Y-45714D01*
X47543Y-45729D01*
X47428Y-45729D01*
X47871Y-45571D02*
X47728Y-45571D01*
X47714Y-45714D01*
X47728Y-45700D01*
X47757Y-45686D01*
X47828Y-45686D01*
X47857Y-45700D01*
X47871Y-45714D01*
X47886Y-45743D01*
X47886Y-45814D01*
X47871Y-45843D01*
X47857Y-45857D01*
X47828Y-45871D01*
X47757Y-45871D01*
X47728Y-45857D01*
X47714Y-45843D01*
X24800Y-41471D02*
X24700Y-41329D01*
X24628Y-41471D02*
X24628Y-41171D01*
X24743Y-41171D01*
X24771Y-41186D01*
X24786Y-41200D01*
X24800Y-41229D01*
X24800Y-41271D01*
X24786Y-41300D01*
X24771Y-41314D01*
X24743Y-41329D01*
X24628Y-41329D01*
X25057Y-41171D02*
X25000Y-41171D01*
X24971Y-41186D01*
X24957Y-41200D01*
X24928Y-41243D01*
X24914Y-41300D01*
X24914Y-41414D01*
X24928Y-41443D01*
X24943Y-41457D01*
X24971Y-41471D01*
X25028Y-41471D01*
X25057Y-41457D01*
X25071Y-41443D01*
X25086Y-41414D01*
X25086Y-41343D01*
X25071Y-41314D01*
X25057Y-41300D01*
X25028Y-41286D01*
X24971Y-41286D01*
X24943Y-41300D01*
X24928Y-41314D01*
X24914Y-41343D01*
X11300Y-06921D02*
X11200Y-06779D01*
X11128Y-06921D02*
X11128Y-06621D01*
X11243Y-06621D01*
X11271Y-06636D01*
X11286Y-06650D01*
X11300Y-06679D01*
X11300Y-06721D01*
X11286Y-06750D01*
X11271Y-06764D01*
X11243Y-06779D01*
X11128Y-06779D01*
X11400Y-06621D02*
X11600Y-06621D01*
X11471Y-06921D01*
X14100Y-07071D02*
X14000Y-06929D01*
X13928Y-07071D02*
X13928Y-06771D01*
X14043Y-06771D01*
X14071Y-06786D01*
X14086Y-06800D01*
X14100Y-06829D01*
X14100Y-06871D01*
X14086Y-06900D01*
X14071Y-06914D01*
X14043Y-06929D01*
X13928Y-06929D01*
X14271Y-06900D02*
X14243Y-06886D01*
X14228Y-06871D01*
X14214Y-06843D01*
X14214Y-06829D01*
X14228Y-06800D01*
X14243Y-06786D01*
X14271Y-06771D01*
X14328Y-06771D01*
X14357Y-06786D01*
X14371Y-06800D01*
X14386Y-06829D01*
X14386Y-06843D01*
X14371Y-06871D01*
X14357Y-06886D01*
X14328Y-06900D01*
X14271Y-06900D01*
X14243Y-06914D01*
X14228Y-06929D01*
X14214Y-06957D01*
X14214Y-07014D01*
X14228Y-07043D01*
X14243Y-07057D01*
X14271Y-07071D01*
X14328Y-07071D01*
X14357Y-07057D01*
X14371Y-07043D01*
X14386Y-07014D01*
X14386Y-06957D01*
X14371Y-06929D01*
X14357Y-06914D01*
X14328Y-06900D01*
X07750Y-05471D02*
X07650Y-05329D01*
X07578Y-05471D02*
X07578Y-05171D01*
X07693Y-05171D01*
X07721Y-05186D01*
X07736Y-05200D01*
X07750Y-05229D01*
X07750Y-05271D01*
X07736Y-05300D01*
X07721Y-05314D01*
X07693Y-05329D01*
X07578Y-05329D01*
X07893Y-05471D02*
X07950Y-05471D01*
X07978Y-05457D01*
X07993Y-05443D01*
X08021Y-05400D01*
X08036Y-05343D01*
X08036Y-05229D01*
X08021Y-05200D01*
X08007Y-05186D01*
X07978Y-05171D01*
X07921Y-05171D01*
X07893Y-05186D01*
X07878Y-05200D01*
X07864Y-05229D01*
X07864Y-05300D01*
X07878Y-05329D01*
X07893Y-05343D01*
X07921Y-05357D01*
X07978Y-05357D01*
X08007Y-05343D01*
X08021Y-05329D01*
X08036Y-05300D01*
X07907Y-08921D02*
X07807Y-08779D01*
X07735Y-08921D02*
X07735Y-08621D01*
X07850Y-08621D01*
X07878Y-08636D01*
X07893Y-08650D01*
X07907Y-08679D01*
X07907Y-08721D01*
X07893Y-08750D01*
X07878Y-08764D01*
X07850Y-08779D01*
X07735Y-08779D01*
X08193Y-08921D02*
X08021Y-08921D01*
X08107Y-08921D02*
X08107Y-08621D01*
X08078Y-08664D01*
X08050Y-08693D01*
X08021Y-08707D01*
X08379Y-08621D02*
X08407Y-08621D01*
X08436Y-08636D01*
X08450Y-08650D01*
X08464Y-08679D01*
X08479Y-08736D01*
X08479Y-08807D01*
X08464Y-08864D01*
X08450Y-08893D01*
X08436Y-08907D01*
X08407Y-08921D01*
X08379Y-08921D01*
X08350Y-08907D01*
X08336Y-08893D01*
X08321Y-08864D01*
X08307Y-08807D01*
X08307Y-08736D01*
X08321Y-08679D01*
X08336Y-08650D01*
X08350Y-08636D01*
X08379Y-08621D01*
X11057Y-09071D02*
X10957Y-08929D01*
X10885Y-09071D02*
X10885Y-08771D01*
X11000Y-08771D01*
X11028Y-08786D01*
X11043Y-08800D01*
X11057Y-08829D01*
X11057Y-08871D01*
X11043Y-08900D01*
X11028Y-08914D01*
X11000Y-08929D01*
X10885Y-08929D01*
X11343Y-09071D02*
X11171Y-09071D01*
X11257Y-09071D02*
X11257Y-08771D01*
X11228Y-08814D01*
X11200Y-08843D01*
X11171Y-08857D01*
X11457Y-08800D02*
X11471Y-08786D01*
X11500Y-08771D01*
X11571Y-08771D01*
X11600Y-08786D01*
X11614Y-08800D01*
X11629Y-08829D01*
X11629Y-08857D01*
X11614Y-08900D01*
X11443Y-09071D01*
X11629Y-09071D01*
X13607Y-09171D02*
X13507Y-09029D01*
X13435Y-09171D02*
X13435Y-08871D01*
X13550Y-08871D01*
X13578Y-08886D01*
X13593Y-08900D01*
X13607Y-08929D01*
X13607Y-08971D01*
X13593Y-09000D01*
X13578Y-09014D01*
X13550Y-09029D01*
X13435Y-09029D01*
X13893Y-09171D02*
X13721Y-09171D01*
X13807Y-09171D02*
X13807Y-08871D01*
X13778Y-08914D01*
X13750Y-08943D01*
X13721Y-08957D01*
X13993Y-08871D02*
X14179Y-08871D01*
X14079Y-08986D01*
X14121Y-08986D01*
X14150Y-09000D01*
X14164Y-09014D01*
X14179Y-09043D01*
X14179Y-09114D01*
X14164Y-09143D01*
X14150Y-09157D01*
X14121Y-09171D01*
X14036Y-09171D01*
X14007Y-09157D01*
X13993Y-09143D01*
X09957Y-11471D02*
X09857Y-11329D01*
X09785Y-11471D02*
X09785Y-11171D01*
X09900Y-11171D01*
X09928Y-11186D01*
X09943Y-11200D01*
X09957Y-11229D01*
X09957Y-11271D01*
X09943Y-11300D01*
X09928Y-11314D01*
X09900Y-11329D01*
X09785Y-11329D01*
X10243Y-11471D02*
X10071Y-11471D01*
X10157Y-11471D02*
X10157Y-11171D01*
X10128Y-11214D01*
X10100Y-11243D01*
X10071Y-11257D01*
X10500Y-11271D02*
X10500Y-11471D01*
X10429Y-11157D02*
X10357Y-11371D01*
X10543Y-11371D01*
X43650Y-42993D02*
X43636Y-43007D01*
X43593Y-43021D01*
X43564Y-43021D01*
X43521Y-43007D01*
X43493Y-42979D01*
X43478Y-42950D01*
X43464Y-42893D01*
X43464Y-42850D01*
X43478Y-42793D01*
X43493Y-42764D01*
X43521Y-42736D01*
X43564Y-42721D01*
X43593Y-42721D01*
X43636Y-42736D01*
X43650Y-42750D01*
X43921Y-42721D02*
X43778Y-42721D01*
X43764Y-42864D01*
X43778Y-42850D01*
X43807Y-42836D01*
X43878Y-42836D01*
X43907Y-42850D01*
X43921Y-42864D01*
X43936Y-42893D01*
X43936Y-42964D01*
X43921Y-42993D01*
X43907Y-43007D01*
X43878Y-43021D01*
X43807Y-43021D01*
X43778Y-43007D01*
X43764Y-42993D01*
X51550Y-42993D02*
X51536Y-43007D01*
X51493Y-43021D01*
X51464Y-43021D01*
X51421Y-43007D01*
X51393Y-42979D01*
X51378Y-42950D01*
X51364Y-42893D01*
X51364Y-42850D01*
X51378Y-42793D01*
X51393Y-42764D01*
X51421Y-42736D01*
X51464Y-42721D01*
X51493Y-42721D01*
X51536Y-42736D01*
X51550Y-42750D01*
X51807Y-42821D02*
X51807Y-43021D01*
X51736Y-42707D02*
X51664Y-42921D01*
X51850Y-42921D01*
X07150Y-16121D02*
X07050Y-15979D01*
X06978Y-16121D02*
X06978Y-15821D01*
X07093Y-15821D01*
X07121Y-15836D01*
X07136Y-15850D01*
X07150Y-15879D01*
X07150Y-15921D01*
X07136Y-15950D01*
X07121Y-15964D01*
X07093Y-15979D01*
X06978Y-15979D01*
X07436Y-16121D02*
X07264Y-16121D01*
X07350Y-16121D02*
X07350Y-15821D01*
X07321Y-15864D01*
X07293Y-15893D01*
X07264Y-15907D01*
G54D11*
X37005Y-20162D02*
X37005Y-19762D01*
X37158Y-19762D01*
X37196Y-19781D01*
X37215Y-19800D01*
X37234Y-19838D01*
X37234Y-19895D01*
X37215Y-19933D01*
X37196Y-19952D01*
X37158Y-19971D01*
X37005Y-19971D01*
X37386Y-19800D02*
X37405Y-19781D01*
X37443Y-19762D01*
X37539Y-19762D01*
X37577Y-19781D01*
X37596Y-19800D01*
X37615Y-19838D01*
X37615Y-19876D01*
X37596Y-19933D01*
X37367Y-20162D01*
X37615Y-20162D01*
X85243Y-08155D02*
X85729Y-08155D01*
X85786Y-08136D01*
X85814Y-08117D01*
X85843Y-08079D01*
X85843Y-08002D01*
X85814Y-07964D01*
X85786Y-07945D01*
X85729Y-07926D01*
X85243Y-07926D01*
X85443Y-07564D02*
X85843Y-07564D01*
X85214Y-07660D02*
X85643Y-07755D01*
X85643Y-07507D01*
X87043Y-08766D02*
X87043Y-08957D01*
X86443Y-08957D01*
X87043Y-08633D02*
X86443Y-08633D01*
X86871Y-08499D01*
X86443Y-08366D01*
X87043Y-08366D01*
X86443Y-08214D02*
X86443Y-07947D01*
X87043Y-08119D01*
X86700Y-07738D02*
X86671Y-07776D01*
X86643Y-07795D01*
X86586Y-07814D01*
X86557Y-07814D01*
X86500Y-07795D01*
X86471Y-07776D01*
X86443Y-07738D01*
X86443Y-07661D01*
X86471Y-07623D01*
X86500Y-07604D01*
X86557Y-07585D01*
X86586Y-07585D01*
X86643Y-07604D01*
X86671Y-07623D01*
X86700Y-07661D01*
X86700Y-07738D01*
X86729Y-07776D01*
X86757Y-07795D01*
X86814Y-07814D01*
X86929Y-07814D01*
X86986Y-07795D01*
X87014Y-07776D01*
X87043Y-07738D01*
X87043Y-07661D01*
X87014Y-07623D01*
X86986Y-07604D01*
X86929Y-07585D01*
X86814Y-07585D01*
X86757Y-07604D01*
X86729Y-07623D01*
X86700Y-07661D01*
X86443Y-07338D02*
X86443Y-07299D01*
X86471Y-07261D01*
X86500Y-07242D01*
X86557Y-07223D01*
X86671Y-07204D01*
X86814Y-07204D01*
X86929Y-07223D01*
X86986Y-07242D01*
X87014Y-07261D01*
X87043Y-07299D01*
X87043Y-07338D01*
X87014Y-07376D01*
X86986Y-07395D01*
X86929Y-07414D01*
X86814Y-07433D01*
X86671Y-07433D01*
X86557Y-07414D01*
X86500Y-07395D01*
X86471Y-07376D01*
X86443Y-07338D01*
X86443Y-06842D02*
X86443Y-07033D01*
X86729Y-07052D01*
X86700Y-07033D01*
X86671Y-06995D01*
X86671Y-06899D01*
X86700Y-06861D01*
X86729Y-06842D01*
X86786Y-06823D01*
X86929Y-06823D01*
X86986Y-06842D01*
X87014Y-06861D01*
X87043Y-06899D01*
X87043Y-06995D01*
X87014Y-07033D01*
X86986Y-07052D01*
X55843Y-10905D02*
X56329Y-10905D01*
X56386Y-10886D01*
X56414Y-10867D01*
X56443Y-10829D01*
X56443Y-10752D01*
X56414Y-10714D01*
X56386Y-10695D01*
X56329Y-10676D01*
X55843Y-10676D01*
X55843Y-10295D02*
X55843Y-10486D01*
X56129Y-10505D01*
X56100Y-10486D01*
X56071Y-10448D01*
X56071Y-10352D01*
X56100Y-10314D01*
X56129Y-10295D01*
X56186Y-10276D01*
X56329Y-10276D01*
X56386Y-10295D01*
X56414Y-10314D01*
X56443Y-10352D01*
X56443Y-10448D01*
X56414Y-10486D01*
X56386Y-10505D01*
X57643Y-12240D02*
X57643Y-12431D01*
X57043Y-12431D01*
X57643Y-12107D02*
X57043Y-12107D01*
X57471Y-11973D01*
X57043Y-11840D01*
X57643Y-11840D01*
X57643Y-11440D02*
X57643Y-11669D01*
X57643Y-11555D02*
X57043Y-11555D01*
X57129Y-11593D01*
X57186Y-11631D01*
X57214Y-11669D01*
X57643Y-11059D02*
X57643Y-11288D01*
X57643Y-11174D02*
X57043Y-11174D01*
X57129Y-11212D01*
X57186Y-11250D01*
X57214Y-11288D01*
X57643Y-10678D02*
X57643Y-10907D01*
X57643Y-10793D02*
X57043Y-10793D01*
X57129Y-10831D01*
X57186Y-10869D01*
X57214Y-10907D01*
X57043Y-10545D02*
X57043Y-10278D01*
X57643Y-10450D01*
X57414Y-10126D02*
X57414Y-09821D01*
X57043Y-09669D02*
X57043Y-09421D01*
X57271Y-09555D01*
X57271Y-09497D01*
X57300Y-09459D01*
X57329Y-09440D01*
X57386Y-09421D01*
X57529Y-09421D01*
X57586Y-09440D01*
X57614Y-09459D01*
X57643Y-09497D01*
X57643Y-09612D01*
X57614Y-09650D01*
X57586Y-09669D01*
X57586Y-09250D02*
X57614Y-09231D01*
X57643Y-09250D01*
X57614Y-09269D01*
X57586Y-09250D01*
X57643Y-09250D01*
X57043Y-09098D02*
X57043Y-08850D01*
X57271Y-08984D01*
X57271Y-08926D01*
X57300Y-08888D01*
X57329Y-08869D01*
X57386Y-08850D01*
X57529Y-08850D01*
X57586Y-08869D01*
X57614Y-08888D01*
X57643Y-08926D01*
X57643Y-09041D01*
X57614Y-09079D01*
X57586Y-09098D01*
G54D12*
X47115Y-41243D02*
X47515Y-41843D01*
X47515Y-41243D02*
X47115Y-41843D01*
X48057Y-41843D02*
X47714Y-41843D01*
X47886Y-41843D02*
X47886Y-41243D01*
X47829Y-41329D01*
X47771Y-41386D01*
X47714Y-41414D01*
X46243Y-44300D02*
X46272Y-44271D01*
X46329Y-44243D01*
X46472Y-44243D01*
X46529Y-44271D01*
X46558Y-44300D01*
X46586Y-44357D01*
X46586Y-44414D01*
X46558Y-44500D01*
X46215Y-44843D01*
X46586Y-44843D01*
X47129Y-44243D02*
X46843Y-44243D01*
X46814Y-44529D01*
X46843Y-44500D01*
X46900Y-44471D01*
X47043Y-44471D01*
X47100Y-44500D01*
X47129Y-44529D01*
X47157Y-44586D01*
X47157Y-44729D01*
X47129Y-44786D01*
X47100Y-44814D01*
X47043Y-44843D01*
X46900Y-44843D01*
X46843Y-44814D01*
X46814Y-44786D01*
X47414Y-44843D02*
X47414Y-44243D01*
X47614Y-44671D01*
X47814Y-44243D01*
X47814Y-44843D01*
X48100Y-44843D02*
X48100Y-44243D01*
X48100Y-44529D02*
X48443Y-44529D01*
X48443Y-44843D02*
X48443Y-44243D01*
X48672Y-44443D02*
X48986Y-44443D01*
X48672Y-44843D01*
X48986Y-44843D01*
G54D11*
X17702Y-31843D02*
X18107Y-31843D01*
X18155Y-31821D01*
X18179Y-31800D01*
X18202Y-31757D01*
X18202Y-31671D01*
X18179Y-31629D01*
X18155Y-31607D01*
X18107Y-31586D01*
X17702Y-31586D01*
X18202Y-31136D02*
X18202Y-31393D01*
X18202Y-31265D02*
X17702Y-31265D01*
X17774Y-31308D01*
X17821Y-31350D01*
X17845Y-31393D01*
X19005Y-31702D02*
X19005Y-31202D01*
X19158Y-31202D01*
X19196Y-31226D01*
X19215Y-31250D01*
X19234Y-31298D01*
X19234Y-31369D01*
X19215Y-31417D01*
X19196Y-31440D01*
X19158Y-31464D01*
X19005Y-31464D01*
X19386Y-31679D02*
X19443Y-31702D01*
X19539Y-31702D01*
X19577Y-31679D01*
X19596Y-31655D01*
X19615Y-31607D01*
X19615Y-31560D01*
X19596Y-31512D01*
X19577Y-31488D01*
X19539Y-31464D01*
X19462Y-31440D01*
X19424Y-31417D01*
X19405Y-31393D01*
X19386Y-31345D01*
X19386Y-31298D01*
X19405Y-31250D01*
X19424Y-31226D01*
X19462Y-31202D01*
X19558Y-31202D01*
X19615Y-31226D01*
X19767Y-31250D02*
X19786Y-31226D01*
X19824Y-31202D01*
X19920Y-31202D01*
X19958Y-31226D01*
X19977Y-31250D01*
X19996Y-31298D01*
X19996Y-31345D01*
X19977Y-31417D01*
X19748Y-31702D01*
X19996Y-31702D01*
X20358Y-31202D02*
X20167Y-31202D01*
X20148Y-31440D01*
X20167Y-31417D01*
X20205Y-31393D01*
X20301Y-31393D01*
X20339Y-31417D01*
X20358Y-31440D01*
X20377Y-31488D01*
X20377Y-31607D01*
X20358Y-31655D01*
X20339Y-31679D01*
X20301Y-31702D01*
X20205Y-31702D01*
X20167Y-31679D01*
X20148Y-31655D01*
X20624Y-31202D02*
X20663Y-31202D01*
X20701Y-31226D01*
X20720Y-31250D01*
X20739Y-31298D01*
X20758Y-31393D01*
X20758Y-31512D01*
X20739Y-31607D01*
X20720Y-31655D01*
X20701Y-31679D01*
X20663Y-31702D01*
X20624Y-31702D01*
X20586Y-31679D01*
X20567Y-31655D01*
X20548Y-31607D01*
X20529Y-31512D01*
X20529Y-31393D01*
X20548Y-31298D01*
X20567Y-31250D01*
X20586Y-31226D01*
X20624Y-31202D01*
X21139Y-31702D02*
X20910Y-31702D01*
X21024Y-31702D02*
X21024Y-31202D01*
X20986Y-31274D01*
X20948Y-31321D01*
X20910Y-31345D01*
X21310Y-31512D02*
X21615Y-31512D01*
X21786Y-31250D02*
X21805Y-31226D01*
X21843Y-31202D01*
X21939Y-31202D01*
X21977Y-31226D01*
X21996Y-31250D01*
X22015Y-31298D01*
X22015Y-31345D01*
X21996Y-31417D01*
X21767Y-31702D01*
X22015Y-31702D01*
X34855Y-11952D02*
X34855Y-11452D01*
X34950Y-11452D01*
X35008Y-11476D01*
X35046Y-11524D01*
X35065Y-11571D01*
X35084Y-11667D01*
X35084Y-11738D01*
X35065Y-11833D01*
X35046Y-11881D01*
X35008Y-11929D01*
X34950Y-11952D01*
X34855Y-11952D01*
X35465Y-11952D02*
X35236Y-11952D01*
X35350Y-11952D02*
X35350Y-11452D01*
X35312Y-11524D01*
X35274Y-11571D01*
X35236Y-11595D01*
G54D12*
X59001Y-39986D02*
X58972Y-40014D01*
X58886Y-40043D01*
X58829Y-40043D01*
X58744Y-40014D01*
X58686Y-39957D01*
X58658Y-39900D01*
X58629Y-39786D01*
X58629Y-39700D01*
X58658Y-39586D01*
X58686Y-39529D01*
X58744Y-39471D01*
X58829Y-39443D01*
X58886Y-39443D01*
X58972Y-39471D01*
X59001Y-39500D01*
X59572Y-40043D02*
X59229Y-40043D01*
X59401Y-40043D02*
X59401Y-39443D01*
X59344Y-39529D01*
X59286Y-39586D01*
X59229Y-39614D01*
X36365Y-15636D02*
X36336Y-15664D01*
X36250Y-15693D01*
X36193Y-15693D01*
X36108Y-15664D01*
X36050Y-15607D01*
X36022Y-15550D01*
X35993Y-15436D01*
X35993Y-15350D01*
X36022Y-15236D01*
X36050Y-15179D01*
X36108Y-15121D01*
X36193Y-15093D01*
X36250Y-15093D01*
X36336Y-15121D01*
X36365Y-15150D01*
X36936Y-15693D02*
X36593Y-15693D01*
X36765Y-15693D02*
X36765Y-15093D01*
X36708Y-15179D01*
X36650Y-15236D01*
X36593Y-15264D01*
X37221Y-15693D02*
X37336Y-15693D01*
X37393Y-15664D01*
X37421Y-15636D01*
X37479Y-15550D01*
X37507Y-15436D01*
X37507Y-15207D01*
X37479Y-15150D01*
X37450Y-15121D01*
X37393Y-15093D01*
X37279Y-15093D01*
X37221Y-15121D01*
X37193Y-15150D01*
X37164Y-15207D01*
X37164Y-15350D01*
X37193Y-15407D01*
X37221Y-15436D01*
X37279Y-15464D01*
X37393Y-15464D01*
X37450Y-15436D01*
X37479Y-15407D01*
X37507Y-15350D01*
G54D15*
X37196Y-25605D02*
X37170Y-25629D01*
X37091Y-25652D01*
X37039Y-25652D01*
X36961Y-25629D01*
X36908Y-25581D01*
X36882Y-25533D01*
X36856Y-25438D01*
X36856Y-25367D01*
X36882Y-25271D01*
X36908Y-25224D01*
X36961Y-25176D01*
X37039Y-25152D01*
X37091Y-25152D01*
X37170Y-25176D01*
X37196Y-25200D01*
X37720Y-25652D02*
X37406Y-25652D01*
X37563Y-25652D02*
X37563Y-25152D01*
X37511Y-25224D01*
X37458Y-25271D01*
X37406Y-25295D01*
X37930Y-25200D02*
X37956Y-25176D01*
X38008Y-25152D01*
X38139Y-25152D01*
X38192Y-25176D01*
X38218Y-25200D01*
X38244Y-25248D01*
X38244Y-25295D01*
X38218Y-25367D01*
X37904Y-25652D01*
X38244Y-25652D01*
X37558Y-28205D02*
X37532Y-28229D01*
X37453Y-28252D01*
X37401Y-28252D01*
X37323Y-28229D01*
X37270Y-28181D01*
X37244Y-28133D01*
X37218Y-28038D01*
X37218Y-27967D01*
X37244Y-27871D01*
X37270Y-27824D01*
X37323Y-27776D01*
X37401Y-27752D01*
X37453Y-27752D01*
X37532Y-27776D01*
X37558Y-27800D01*
X37768Y-27800D02*
X37794Y-27776D01*
X37846Y-27752D01*
X37977Y-27752D01*
X38030Y-27776D01*
X38056Y-27800D01*
X38082Y-27848D01*
X38082Y-27895D01*
X38056Y-27967D01*
X37742Y-28252D01*
X38082Y-28252D01*
X57858Y-20905D02*
X57832Y-20929D01*
X57753Y-20952D01*
X57701Y-20952D01*
X57623Y-20929D01*
X57570Y-20881D01*
X57544Y-20833D01*
X57518Y-20738D01*
X57518Y-20667D01*
X57544Y-20571D01*
X57570Y-20524D01*
X57623Y-20476D01*
X57701Y-20452D01*
X57753Y-20452D01*
X57832Y-20476D01*
X57858Y-20500D01*
X58042Y-20452D02*
X58382Y-20452D01*
X58199Y-20643D01*
X58277Y-20643D01*
X58330Y-20667D01*
X58356Y-20690D01*
X58382Y-20738D01*
X58382Y-20857D01*
X58356Y-20905D01*
X58330Y-20929D01*
X58277Y-20952D01*
X58120Y-20952D01*
X58068Y-20929D01*
X58042Y-20905D01*
X72708Y-12155D02*
X72682Y-12179D01*
X72603Y-12202D01*
X72551Y-12202D01*
X72473Y-12179D01*
X72420Y-12131D01*
X72394Y-12083D01*
X72368Y-11988D01*
X72368Y-11917D01*
X72394Y-11821D01*
X72420Y-11774D01*
X72473Y-11726D01*
X72551Y-11702D01*
X72603Y-11702D01*
X72682Y-11726D01*
X72708Y-11750D01*
X73180Y-11702D02*
X73075Y-11702D01*
X73023Y-11726D01*
X72996Y-11750D01*
X72944Y-11821D01*
X72918Y-11917D01*
X72918Y-12107D01*
X72944Y-12155D01*
X72970Y-12179D01*
X73023Y-12202D01*
X73127Y-12202D01*
X73180Y-12179D01*
X73206Y-12155D01*
X73232Y-12107D01*
X73232Y-11988D01*
X73206Y-11940D01*
X73180Y-11917D01*
X73127Y-11893D01*
X73023Y-11893D01*
X72970Y-11917D01*
X72944Y-11940D01*
X72918Y-11988D01*
X65108Y-16255D02*
X65082Y-16279D01*
X65003Y-16302D01*
X64951Y-16302D01*
X64873Y-16279D01*
X64820Y-16231D01*
X64794Y-16183D01*
X64768Y-16088D01*
X64768Y-16017D01*
X64794Y-15921D01*
X64820Y-15874D01*
X64873Y-15826D01*
X64951Y-15802D01*
X65003Y-15802D01*
X65082Y-15826D01*
X65108Y-15850D01*
X65292Y-15802D02*
X65658Y-15802D01*
X65423Y-16302D01*
X64058Y-24005D02*
X64032Y-24029D01*
X63953Y-24052D01*
X63901Y-24052D01*
X63823Y-24029D01*
X63770Y-23981D01*
X63744Y-23933D01*
X63718Y-23838D01*
X63718Y-23767D01*
X63744Y-23671D01*
X63770Y-23624D01*
X63823Y-23576D01*
X63901Y-23552D01*
X63953Y-23552D01*
X64032Y-23576D01*
X64058Y-23600D01*
X64373Y-23767D02*
X64320Y-23743D01*
X64294Y-23719D01*
X64268Y-23671D01*
X64268Y-23648D01*
X64294Y-23600D01*
X64320Y-23576D01*
X64373Y-23552D01*
X64477Y-23552D01*
X64530Y-23576D01*
X64556Y-23600D01*
X64582Y-23648D01*
X64582Y-23671D01*
X64556Y-23719D01*
X64530Y-23743D01*
X64477Y-23767D01*
X64373Y-23767D01*
X64320Y-23790D01*
X64294Y-23814D01*
X64268Y-23862D01*
X64268Y-23957D01*
X64294Y-24005D01*
X64320Y-24029D01*
X64373Y-24052D01*
X64477Y-24052D01*
X64530Y-24029D01*
X64556Y-24005D01*
X64582Y-23957D01*
X64582Y-23862D01*
X64556Y-23814D01*
X64530Y-23790D01*
X64477Y-23767D01*
X74758Y-52855D02*
X74732Y-52879D01*
X74653Y-52902D01*
X74601Y-52902D01*
X74523Y-52879D01*
X74470Y-52831D01*
X74444Y-52783D01*
X74418Y-52688D01*
X74418Y-52617D01*
X74444Y-52521D01*
X74470Y-52474D01*
X74523Y-52426D01*
X74601Y-52402D01*
X74653Y-52402D01*
X74732Y-52426D01*
X74758Y-52450D01*
X75020Y-52902D02*
X75125Y-52902D01*
X75177Y-52879D01*
X75203Y-52855D01*
X75256Y-52783D01*
X75282Y-52688D01*
X75282Y-52498D01*
X75256Y-52450D01*
X75230Y-52426D01*
X75177Y-52402D01*
X75073Y-52402D01*
X75020Y-52426D01*
X74994Y-52450D01*
X74968Y-52498D01*
X74968Y-52617D01*
X74994Y-52664D01*
X75020Y-52688D01*
X75073Y-52712D01*
X75177Y-52712D01*
X75230Y-52688D01*
X75256Y-52664D01*
X75282Y-52617D01*
X68246Y-42805D02*
X68220Y-42829D01*
X68141Y-42852D01*
X68089Y-42852D01*
X68011Y-42829D01*
X67958Y-42781D01*
X67932Y-42733D01*
X67906Y-42638D01*
X67906Y-42567D01*
X67932Y-42471D01*
X67958Y-42424D01*
X68011Y-42376D01*
X68089Y-42352D01*
X68141Y-42352D01*
X68220Y-42376D01*
X68246Y-42400D01*
X68770Y-42852D02*
X68456Y-42852D01*
X68613Y-42852D02*
X68613Y-42352D01*
X68561Y-42424D01*
X68508Y-42471D01*
X68456Y-42495D01*
X69111Y-42352D02*
X69163Y-42352D01*
X69215Y-42376D01*
X69242Y-42400D01*
X69268Y-42448D01*
X69294Y-42543D01*
X69294Y-42662D01*
X69268Y-42757D01*
X69242Y-42805D01*
X69215Y-42829D01*
X69163Y-42852D01*
X69111Y-42852D01*
X69058Y-42829D01*
X69032Y-42805D01*
X69006Y-42757D01*
X68980Y-42662D01*
X68980Y-42543D01*
X69006Y-42448D01*
X69032Y-42400D01*
X69058Y-42376D01*
X69111Y-42352D01*
X74496Y-56305D02*
X74470Y-56329D01*
X74391Y-56352D01*
X74339Y-56352D01*
X74261Y-56329D01*
X74208Y-56281D01*
X74182Y-56233D01*
X74156Y-56138D01*
X74156Y-56067D01*
X74182Y-55971D01*
X74208Y-55924D01*
X74261Y-55876D01*
X74339Y-55852D01*
X74391Y-55852D01*
X74470Y-55876D01*
X74496Y-55900D01*
X75020Y-56352D02*
X74706Y-56352D01*
X74863Y-56352D02*
X74863Y-55852D01*
X74811Y-55924D01*
X74758Y-55971D01*
X74706Y-55995D01*
X75544Y-56352D02*
X75230Y-56352D01*
X75387Y-56352D02*
X75387Y-55852D01*
X75335Y-55924D01*
X75282Y-55971D01*
X75230Y-55995D01*
X68146Y-39555D02*
X68120Y-39579D01*
X68041Y-39602D01*
X67989Y-39602D01*
X67911Y-39579D01*
X67858Y-39531D01*
X67832Y-39483D01*
X67806Y-39388D01*
X67806Y-39317D01*
X67832Y-39221D01*
X67858Y-39174D01*
X67911Y-39126D01*
X67989Y-39102D01*
X68041Y-39102D01*
X68120Y-39126D01*
X68146Y-39150D01*
X68670Y-39602D02*
X68356Y-39602D01*
X68513Y-39602D02*
X68513Y-39102D01*
X68461Y-39174D01*
X68408Y-39221D01*
X68356Y-39245D01*
X68854Y-39102D02*
X69194Y-39102D01*
X69011Y-39293D01*
X69089Y-39293D01*
X69142Y-39317D01*
X69168Y-39340D01*
X69194Y-39388D01*
X69194Y-39507D01*
X69168Y-39555D01*
X69142Y-39579D01*
X69089Y-39602D01*
X68932Y-39602D01*
X68880Y-39579D01*
X68854Y-39555D01*
X56096Y-15155D02*
X56070Y-15179D01*
X55991Y-15202D01*
X55939Y-15202D01*
X55861Y-15179D01*
X55808Y-15131D01*
X55782Y-15083D01*
X55756Y-14988D01*
X55756Y-14917D01*
X55782Y-14821D01*
X55808Y-14774D01*
X55861Y-14726D01*
X55939Y-14702D01*
X55991Y-14702D01*
X56070Y-14726D01*
X56096Y-14750D01*
X56620Y-15202D02*
X56306Y-15202D01*
X56463Y-15202D02*
X56463Y-14702D01*
X56411Y-14774D01*
X56358Y-14821D01*
X56306Y-14845D01*
X57092Y-14869D02*
X57092Y-15202D01*
X56961Y-14679D02*
X56830Y-15036D01*
X57170Y-15036D01*
X65846Y-06955D02*
X65820Y-06979D01*
X65741Y-07002D01*
X65689Y-07002D01*
X65611Y-06979D01*
X65558Y-06931D01*
X65532Y-06883D01*
X65506Y-06788D01*
X65506Y-06717D01*
X65532Y-06621D01*
X65558Y-06574D01*
X65611Y-06526D01*
X65689Y-06502D01*
X65741Y-06502D01*
X65820Y-06526D01*
X65846Y-06550D01*
X66370Y-07002D02*
X66056Y-07002D01*
X66213Y-07002D02*
X66213Y-06502D01*
X66161Y-06574D01*
X66108Y-06621D01*
X66056Y-06645D01*
X66868Y-06502D02*
X66606Y-06502D01*
X66580Y-06740D01*
X66606Y-06717D01*
X66658Y-06693D01*
X66789Y-06693D01*
X66842Y-06717D01*
X66868Y-06740D01*
X66894Y-06788D01*
X66894Y-06907D01*
X66868Y-06955D01*
X66842Y-06979D01*
X66789Y-07002D01*
X66658Y-07002D01*
X66606Y-06979D01*
X66580Y-06955D01*
X57596Y-18255D02*
X57570Y-18279D01*
X57491Y-18302D01*
X57439Y-18302D01*
X57361Y-18279D01*
X57308Y-18231D01*
X57282Y-18183D01*
X57256Y-18088D01*
X57256Y-18017D01*
X57282Y-17921D01*
X57308Y-17874D01*
X57361Y-17826D01*
X57439Y-17802D01*
X57491Y-17802D01*
X57570Y-17826D01*
X57596Y-17850D01*
X58120Y-18302D02*
X57806Y-18302D01*
X57963Y-18302D02*
X57963Y-17802D01*
X57911Y-17874D01*
X57858Y-17921D01*
X57806Y-17945D01*
X58592Y-17802D02*
X58487Y-17802D01*
X58435Y-17826D01*
X58408Y-17850D01*
X58356Y-17921D01*
X58330Y-18017D01*
X58330Y-18207D01*
X58356Y-18255D01*
X58382Y-18279D01*
X58435Y-18302D01*
X58539Y-18302D01*
X58592Y-18279D01*
X58618Y-18255D01*
X58644Y-18207D01*
X58644Y-18088D01*
X58618Y-18040D01*
X58592Y-18017D01*
X58539Y-17993D01*
X58435Y-17993D01*
X58382Y-18017D01*
X58356Y-18040D01*
X58330Y-18088D01*
X44546Y-06555D02*
X44520Y-06579D01*
X44441Y-06602D01*
X44389Y-06602D01*
X44311Y-06579D01*
X44258Y-06531D01*
X44232Y-06483D01*
X44206Y-06388D01*
X44206Y-06317D01*
X44232Y-06221D01*
X44258Y-06174D01*
X44311Y-06126D01*
X44389Y-06102D01*
X44441Y-06102D01*
X44520Y-06126D01*
X44546Y-06150D01*
X45070Y-06602D02*
X44756Y-06602D01*
X44913Y-06602D02*
X44913Y-06102D01*
X44861Y-06174D01*
X44808Y-06221D01*
X44756Y-06245D01*
X45254Y-06102D02*
X45620Y-06102D01*
X45385Y-06602D01*
X45946Y-09755D02*
X45920Y-09779D01*
X45841Y-09802D01*
X45789Y-09802D01*
X45711Y-09779D01*
X45658Y-09731D01*
X45632Y-09683D01*
X45606Y-09588D01*
X45606Y-09517D01*
X45632Y-09421D01*
X45658Y-09374D01*
X45711Y-09326D01*
X45789Y-09302D01*
X45841Y-09302D01*
X45920Y-09326D01*
X45946Y-09350D01*
X46470Y-09802D02*
X46156Y-09802D01*
X46313Y-09802D02*
X46313Y-09302D01*
X46261Y-09374D01*
X46208Y-09421D01*
X46156Y-09445D01*
X46785Y-09517D02*
X46732Y-09493D01*
X46706Y-09469D01*
X46680Y-09421D01*
X46680Y-09398D01*
X46706Y-09350D01*
X46732Y-09326D01*
X46785Y-09302D01*
X46889Y-09302D01*
X46942Y-09326D01*
X46968Y-09350D01*
X46994Y-09398D01*
X46994Y-09421D01*
X46968Y-09469D01*
X46942Y-09493D01*
X46889Y-09517D01*
X46785Y-09517D01*
X46732Y-09540D01*
X46706Y-09564D01*
X46680Y-09612D01*
X46680Y-09707D01*
X46706Y-09755D01*
X46732Y-09779D01*
X46785Y-09802D01*
X46889Y-09802D01*
X46942Y-09779D01*
X46968Y-09755D01*
X46994Y-09707D01*
X46994Y-09612D01*
X46968Y-09564D01*
X46942Y-09540D01*
X46889Y-09517D01*
M02*
