G04 (created by PCBNEW-RS274X (2012-01-19 BZR 3256)-stable) date 10/21/2012 10:59:19 AM*
G01*
G70*
G90*
%MOIN*%
G04 Gerber Fmt 3.4, Leading zero omitted, Abs format*
%FSLAX34Y34*%
G04 APERTURE LIST*
%ADD10C,0.006000*%
%ADD11C,0.012000*%
%ADD12C,0.007500*%
%ADD13C,0.008000*%
%ADD14C,0.005000*%
%ADD15C,0.015000*%
%ADD16C,0.010000*%
%ADD17C,0.003000*%
%ADD18C,0.009900*%
%ADD19C,0.006900*%
%ADD20C,0.005900*%
G04 APERTURE END LIST*
G54D10*
G54D11*
X77885Y-32950D02*
X77828Y-32912D01*
X77771Y-32836D01*
X77685Y-32721D01*
X77628Y-32683D01*
X77571Y-32683D01*
X77599Y-32874D02*
X77542Y-32836D01*
X77485Y-32760D01*
X77456Y-32607D01*
X77456Y-32340D01*
X77485Y-32188D01*
X77542Y-32112D01*
X77599Y-32074D01*
X77713Y-32074D01*
X77771Y-32112D01*
X77828Y-32188D01*
X77856Y-32340D01*
X77856Y-32607D01*
X77828Y-32760D01*
X77771Y-32836D01*
X77713Y-32874D01*
X77599Y-32874D01*
X78114Y-32455D02*
X78314Y-32455D01*
X78400Y-32874D02*
X78114Y-32874D01*
X78114Y-32074D01*
X78400Y-32074D01*
X78943Y-32874D02*
X78657Y-32874D01*
X78657Y-32074D01*
X79143Y-32874D02*
X79143Y-32340D01*
X79143Y-32074D02*
X79114Y-32112D01*
X79143Y-32150D01*
X79171Y-32112D01*
X79143Y-32074D01*
X79143Y-32150D01*
X79429Y-32340D02*
X79429Y-32874D01*
X79429Y-32417D02*
X79457Y-32379D01*
X79515Y-32340D01*
X79600Y-32340D01*
X79657Y-32379D01*
X79686Y-32455D01*
X79686Y-32874D01*
X79972Y-32874D02*
X79972Y-32074D01*
X80029Y-32569D02*
X80200Y-32874D01*
X80200Y-32340D02*
X79972Y-32645D01*
X80886Y-32836D02*
X80943Y-32874D01*
X81058Y-32874D01*
X81115Y-32836D01*
X81143Y-32760D01*
X81143Y-32721D01*
X81115Y-32645D01*
X81058Y-32607D01*
X80972Y-32607D01*
X80915Y-32569D01*
X80886Y-32493D01*
X80886Y-32455D01*
X80915Y-32379D01*
X80972Y-32340D01*
X81058Y-32340D01*
X81115Y-32379D01*
X81344Y-32340D02*
X81487Y-32874D01*
X81629Y-32340D02*
X81487Y-32874D01*
X81429Y-33064D01*
X81401Y-33102D01*
X81344Y-33140D01*
X81829Y-32836D02*
X81886Y-32874D01*
X82001Y-32874D01*
X82058Y-32836D01*
X82086Y-32760D01*
X82086Y-32721D01*
X82058Y-32645D01*
X82001Y-32607D01*
X81915Y-32607D01*
X81858Y-32569D01*
X81829Y-32493D01*
X81829Y-32455D01*
X81858Y-32379D01*
X81915Y-32340D01*
X82001Y-32340D01*
X82058Y-32379D01*
X82258Y-32340D02*
X82487Y-32340D01*
X82344Y-32074D02*
X82344Y-32760D01*
X82372Y-32836D01*
X82430Y-32874D01*
X82487Y-32874D01*
X82915Y-32836D02*
X82858Y-32874D01*
X82744Y-32874D01*
X82687Y-32836D01*
X82658Y-32760D01*
X82658Y-32455D01*
X82687Y-32379D01*
X82744Y-32340D01*
X82858Y-32340D01*
X82915Y-32379D01*
X82944Y-32455D01*
X82944Y-32531D01*
X82658Y-32607D01*
X83201Y-32874D02*
X83201Y-32340D01*
X83201Y-32417D02*
X83229Y-32379D01*
X83287Y-32340D01*
X83372Y-32340D01*
X83429Y-32379D01*
X83458Y-32455D01*
X83458Y-32874D01*
X83458Y-32455D02*
X83487Y-32379D01*
X83544Y-32340D01*
X83629Y-32340D01*
X83687Y-32379D01*
X83715Y-32455D01*
X83715Y-32874D01*
G54D12*
X78821Y-33452D02*
X78864Y-33471D01*
X78879Y-33490D01*
X78893Y-33529D01*
X78893Y-33586D01*
X78879Y-33624D01*
X78864Y-33643D01*
X78836Y-33662D01*
X78721Y-33662D01*
X78721Y-33262D01*
X78821Y-33262D01*
X78850Y-33281D01*
X78864Y-33300D01*
X78879Y-33338D01*
X78879Y-33376D01*
X78864Y-33414D01*
X78850Y-33433D01*
X78821Y-33452D01*
X78721Y-33452D01*
X79021Y-33662D02*
X79021Y-33395D01*
X79021Y-33471D02*
X79036Y-33433D01*
X79050Y-33414D01*
X79079Y-33395D01*
X79107Y-33395D01*
X79250Y-33662D02*
X79222Y-33643D01*
X79207Y-33624D01*
X79193Y-33586D01*
X79193Y-33471D01*
X79207Y-33433D01*
X79222Y-33414D01*
X79250Y-33395D01*
X79293Y-33395D01*
X79322Y-33414D01*
X79336Y-33433D01*
X79350Y-33471D01*
X79350Y-33586D01*
X79336Y-33624D01*
X79322Y-33643D01*
X79293Y-33662D01*
X79250Y-33662D01*
X79607Y-33643D02*
X79578Y-33662D01*
X79521Y-33662D01*
X79493Y-33643D01*
X79478Y-33624D01*
X79464Y-33586D01*
X79464Y-33471D01*
X79478Y-33433D01*
X79493Y-33414D01*
X79521Y-33395D01*
X79578Y-33395D01*
X79607Y-33414D01*
X79735Y-33662D02*
X79735Y-33262D01*
X79764Y-33510D02*
X79850Y-33662D01*
X79850Y-33395D02*
X79735Y-33548D01*
X80193Y-33548D02*
X80336Y-33548D01*
X80165Y-33662D02*
X80265Y-33262D01*
X80365Y-33662D01*
X80464Y-33395D02*
X80464Y-33662D01*
X80464Y-33433D02*
X80479Y-33414D01*
X80507Y-33395D01*
X80550Y-33395D01*
X80579Y-33414D01*
X80593Y-33452D01*
X80593Y-33662D01*
X80864Y-33662D02*
X80864Y-33262D01*
X80864Y-33643D02*
X80835Y-33662D01*
X80778Y-33662D01*
X80750Y-33643D01*
X80735Y-33624D01*
X80721Y-33586D01*
X80721Y-33471D01*
X80735Y-33433D01*
X80750Y-33414D01*
X80778Y-33395D01*
X80835Y-33395D01*
X80864Y-33414D01*
X81121Y-33643D02*
X81092Y-33662D01*
X81035Y-33662D01*
X81006Y-33643D01*
X80992Y-33605D01*
X80992Y-33452D01*
X81006Y-33414D01*
X81035Y-33395D01*
X81092Y-33395D01*
X81121Y-33414D01*
X81135Y-33452D01*
X81135Y-33490D01*
X80992Y-33529D01*
X81263Y-33662D02*
X81263Y-33395D01*
X81263Y-33471D02*
X81278Y-33433D01*
X81292Y-33414D01*
X81321Y-33395D01*
X81349Y-33395D01*
X81435Y-33643D02*
X81464Y-33662D01*
X81521Y-33662D01*
X81549Y-33643D01*
X81564Y-33605D01*
X81564Y-33586D01*
X81549Y-33548D01*
X81521Y-33529D01*
X81478Y-33529D01*
X81449Y-33510D01*
X81435Y-33471D01*
X81435Y-33452D01*
X81449Y-33414D01*
X81478Y-33395D01*
X81521Y-33395D01*
X81549Y-33414D01*
X81735Y-33662D02*
X81707Y-33643D01*
X81692Y-33624D01*
X81678Y-33586D01*
X81678Y-33471D01*
X81692Y-33433D01*
X81707Y-33414D01*
X81735Y-33395D01*
X81778Y-33395D01*
X81807Y-33414D01*
X81821Y-33433D01*
X81835Y-33471D01*
X81835Y-33586D01*
X81821Y-33624D01*
X81807Y-33643D01*
X81778Y-33662D01*
X81735Y-33662D01*
X81963Y-33395D02*
X81963Y-33662D01*
X81963Y-33433D02*
X81978Y-33414D01*
X82006Y-33395D01*
X82049Y-33395D01*
X82078Y-33414D01*
X82092Y-33452D01*
X82092Y-33662D01*
X78779Y-34106D02*
X78779Y-34297D01*
X78679Y-33897D02*
X78779Y-34106D01*
X78879Y-33897D01*
X79107Y-34030D02*
X79107Y-34297D01*
X78978Y-34030D02*
X78978Y-34240D01*
X78993Y-34278D01*
X79021Y-34297D01*
X79064Y-34297D01*
X79093Y-34278D01*
X79107Y-34259D01*
X79249Y-34030D02*
X79249Y-34373D01*
X79235Y-34411D01*
X79207Y-34430D01*
X79192Y-34430D01*
X79249Y-33897D02*
X79235Y-33916D01*
X79249Y-33935D01*
X79264Y-33916D01*
X79249Y-33897D01*
X79249Y-33935D01*
X79392Y-34297D02*
X79392Y-34030D01*
X79392Y-33897D02*
X79378Y-33916D01*
X79392Y-33935D01*
X79407Y-33916D01*
X79392Y-33897D01*
X79392Y-33935D01*
X79650Y-34278D02*
X79621Y-34297D01*
X79564Y-34297D01*
X79535Y-34278D01*
X79521Y-34240D01*
X79521Y-34087D01*
X79535Y-34049D01*
X79564Y-34030D01*
X79621Y-34030D01*
X79650Y-34049D01*
X79664Y-34087D01*
X79664Y-34125D01*
X79521Y-34164D01*
X80179Y-33916D02*
X80150Y-33897D01*
X80107Y-33897D01*
X80064Y-33916D01*
X80036Y-33954D01*
X80021Y-33992D01*
X80007Y-34068D01*
X80007Y-34125D01*
X80021Y-34202D01*
X80036Y-34240D01*
X80064Y-34278D01*
X80107Y-34297D01*
X80136Y-34297D01*
X80179Y-34278D01*
X80193Y-34259D01*
X80193Y-34125D01*
X80136Y-34125D01*
X80450Y-34030D02*
X80450Y-34297D01*
X80321Y-34030D02*
X80321Y-34240D01*
X80336Y-34278D01*
X80364Y-34297D01*
X80407Y-34297D01*
X80436Y-34278D01*
X80450Y-34259D01*
X80635Y-34297D02*
X80607Y-34278D01*
X80592Y-34259D01*
X80578Y-34221D01*
X80578Y-34106D01*
X80592Y-34068D01*
X80607Y-34049D01*
X80635Y-34030D01*
X80678Y-34030D01*
X80707Y-34049D01*
X80721Y-34068D01*
X80735Y-34106D01*
X80735Y-34221D01*
X80721Y-34259D01*
X80707Y-34278D01*
X80678Y-34297D01*
X80635Y-34297D01*
X78707Y-34913D02*
X78750Y-34932D01*
X78821Y-34932D01*
X78850Y-34913D01*
X78864Y-34894D01*
X78879Y-34856D01*
X78879Y-34818D01*
X78864Y-34780D01*
X78850Y-34760D01*
X78821Y-34741D01*
X78764Y-34722D01*
X78736Y-34703D01*
X78721Y-34684D01*
X78707Y-34646D01*
X78707Y-34608D01*
X78721Y-34570D01*
X78736Y-34551D01*
X78764Y-34532D01*
X78836Y-34532D01*
X78879Y-34551D01*
X79007Y-34932D02*
X79007Y-34532D01*
X79136Y-34932D02*
X79136Y-34722D01*
X79122Y-34684D01*
X79093Y-34665D01*
X79050Y-34665D01*
X79022Y-34684D01*
X79007Y-34703D01*
X79278Y-34932D02*
X79278Y-34665D01*
X79278Y-34741D02*
X79293Y-34703D01*
X79307Y-34684D01*
X79336Y-34665D01*
X79364Y-34665D01*
X79579Y-34913D02*
X79550Y-34932D01*
X79493Y-34932D01*
X79464Y-34913D01*
X79450Y-34875D01*
X79450Y-34722D01*
X79464Y-34684D01*
X79493Y-34665D01*
X79550Y-34665D01*
X79579Y-34684D01*
X79593Y-34722D01*
X79593Y-34760D01*
X79450Y-34799D01*
X79693Y-34665D02*
X79764Y-34932D01*
X79836Y-34665D02*
X79764Y-34932D01*
X79736Y-35027D01*
X79721Y-35046D01*
X79693Y-35065D01*
X80079Y-34932D02*
X80079Y-34722D01*
X80065Y-34684D01*
X80036Y-34665D01*
X79979Y-34665D01*
X79950Y-34684D01*
X80079Y-34913D02*
X80050Y-34932D01*
X79979Y-34932D01*
X79950Y-34913D01*
X79936Y-34875D01*
X79936Y-34837D01*
X79950Y-34799D01*
X79979Y-34780D01*
X80050Y-34780D01*
X80079Y-34760D01*
X80207Y-34913D02*
X80236Y-34932D01*
X80293Y-34932D01*
X80321Y-34913D01*
X80336Y-34875D01*
X80336Y-34856D01*
X80321Y-34818D01*
X80293Y-34799D01*
X80250Y-34799D01*
X80221Y-34780D01*
X80207Y-34741D01*
X80207Y-34722D01*
X80221Y-34684D01*
X80250Y-34665D01*
X80293Y-34665D01*
X80321Y-34684D01*
X80651Y-34532D02*
X80751Y-34932D01*
X80851Y-34532D01*
X80950Y-34932D02*
X80950Y-34665D01*
X80950Y-34532D02*
X80936Y-34551D01*
X80950Y-34570D01*
X80965Y-34551D01*
X80950Y-34532D01*
X80950Y-34570D01*
X81079Y-34913D02*
X81108Y-34932D01*
X81165Y-34932D01*
X81193Y-34913D01*
X81208Y-34875D01*
X81208Y-34856D01*
X81193Y-34818D01*
X81165Y-34799D01*
X81122Y-34799D01*
X81093Y-34780D01*
X81079Y-34741D01*
X81079Y-34722D01*
X81093Y-34684D01*
X81122Y-34665D01*
X81165Y-34665D01*
X81193Y-34684D01*
X81336Y-34932D02*
X81336Y-34532D01*
X81465Y-34932D02*
X81465Y-34722D01*
X81451Y-34684D01*
X81422Y-34665D01*
X81379Y-34665D01*
X81351Y-34684D01*
X81336Y-34703D01*
X81579Y-34665D02*
X81636Y-34932D01*
X81693Y-34741D01*
X81750Y-34932D01*
X81807Y-34665D01*
X82050Y-34932D02*
X82050Y-34722D01*
X82036Y-34684D01*
X82007Y-34665D01*
X81950Y-34665D01*
X81921Y-34684D01*
X82050Y-34913D02*
X82021Y-34932D01*
X81950Y-34932D01*
X81921Y-34913D01*
X81907Y-34875D01*
X81907Y-34837D01*
X81921Y-34799D01*
X81950Y-34780D01*
X82021Y-34780D01*
X82050Y-34760D01*
X82178Y-34913D02*
X82207Y-34932D01*
X82264Y-34932D01*
X82292Y-34913D01*
X82307Y-34875D01*
X82307Y-34856D01*
X82292Y-34818D01*
X82264Y-34799D01*
X82221Y-34799D01*
X82192Y-34780D01*
X82178Y-34741D01*
X82178Y-34722D01*
X82192Y-34684D01*
X82221Y-34665D01*
X82264Y-34665D01*
X82292Y-34684D01*
X82664Y-34932D02*
X82664Y-34532D01*
X82779Y-34532D01*
X82807Y-34551D01*
X82822Y-34570D01*
X82836Y-34608D01*
X82836Y-34665D01*
X82822Y-34703D01*
X82807Y-34722D01*
X82779Y-34741D01*
X82664Y-34741D01*
X82964Y-34932D02*
X82964Y-34665D01*
X82964Y-34741D02*
X82979Y-34703D01*
X82993Y-34684D01*
X83022Y-34665D01*
X83050Y-34665D01*
X83279Y-34932D02*
X83279Y-34722D01*
X83265Y-34684D01*
X83236Y-34665D01*
X83179Y-34665D01*
X83150Y-34684D01*
X83279Y-34913D02*
X83250Y-34932D01*
X83179Y-34932D01*
X83150Y-34913D01*
X83136Y-34875D01*
X83136Y-34837D01*
X83150Y-34799D01*
X83179Y-34780D01*
X83250Y-34780D01*
X83279Y-34760D01*
X83421Y-34932D02*
X83421Y-34532D01*
X83421Y-34684D02*
X83450Y-34665D01*
X83507Y-34665D01*
X83536Y-34684D01*
X83550Y-34703D01*
X83564Y-34741D01*
X83564Y-34856D01*
X83550Y-34894D01*
X83536Y-34913D01*
X83507Y-34932D01*
X83450Y-34932D01*
X83421Y-34913D01*
X83692Y-34932D02*
X83692Y-34532D01*
X83821Y-34932D02*
X83821Y-34722D01*
X83807Y-34684D01*
X83778Y-34665D01*
X83735Y-34665D01*
X83707Y-34684D01*
X83692Y-34703D01*
X84092Y-34665D02*
X84092Y-34932D01*
X83963Y-34665D02*
X83963Y-34875D01*
X83978Y-34913D01*
X84006Y-34932D01*
X84049Y-34932D01*
X84078Y-34913D01*
X84092Y-34894D01*
X84192Y-34665D02*
X84306Y-34665D01*
X84234Y-34532D02*
X84234Y-34875D01*
X84249Y-34913D01*
X84277Y-34932D01*
X84306Y-34932D01*
X84520Y-34913D02*
X84491Y-34932D01*
X84434Y-34932D01*
X84405Y-34913D01*
X84391Y-34875D01*
X84391Y-34722D01*
X84405Y-34684D01*
X84434Y-34665D01*
X84491Y-34665D01*
X84520Y-34684D01*
X84534Y-34722D01*
X84534Y-34760D01*
X84391Y-34799D01*
X84662Y-34665D02*
X84662Y-34932D01*
X84662Y-34703D02*
X84677Y-34684D01*
X84705Y-34665D01*
X84748Y-34665D01*
X84777Y-34684D01*
X84791Y-34722D01*
X84791Y-34932D01*
X85062Y-34932D02*
X85062Y-34532D01*
X85062Y-34913D02*
X85033Y-34932D01*
X84976Y-34932D01*
X84948Y-34913D01*
X84933Y-34894D01*
X84919Y-34856D01*
X84919Y-34741D01*
X84933Y-34703D01*
X84948Y-34684D01*
X84976Y-34665D01*
X85033Y-34665D01*
X85062Y-34684D01*
X85333Y-34665D02*
X85333Y-34932D01*
X85204Y-34665D02*
X85204Y-34875D01*
X85219Y-34913D01*
X85247Y-34932D01*
X85290Y-34932D01*
X85319Y-34913D01*
X85333Y-34894D01*
X85518Y-34932D02*
X85490Y-34913D01*
X85475Y-34875D01*
X85475Y-34532D01*
X85632Y-34932D02*
X85632Y-34532D01*
X85661Y-34780D02*
X85747Y-34932D01*
X85747Y-34665D02*
X85632Y-34818D01*
X86004Y-34932D02*
X86004Y-34722D01*
X85990Y-34684D01*
X85961Y-34665D01*
X85904Y-34665D01*
X85875Y-34684D01*
X86004Y-34913D02*
X85975Y-34932D01*
X85904Y-34932D01*
X85875Y-34913D01*
X85861Y-34875D01*
X85861Y-34837D01*
X85875Y-34799D01*
X85904Y-34780D01*
X85975Y-34780D01*
X86004Y-34760D01*
X86146Y-34932D02*
X86146Y-34665D01*
X86146Y-34741D02*
X86161Y-34703D01*
X86175Y-34684D01*
X86204Y-34665D01*
X86232Y-34665D01*
X78707Y-35548D02*
X78750Y-35567D01*
X78821Y-35567D01*
X78850Y-35548D01*
X78864Y-35529D01*
X78879Y-35491D01*
X78879Y-35453D01*
X78864Y-35415D01*
X78850Y-35395D01*
X78821Y-35376D01*
X78764Y-35357D01*
X78736Y-35338D01*
X78721Y-35319D01*
X78707Y-35281D01*
X78707Y-35243D01*
X78721Y-35205D01*
X78736Y-35186D01*
X78764Y-35167D01*
X78836Y-35167D01*
X78879Y-35186D01*
X79136Y-35567D02*
X79136Y-35357D01*
X79122Y-35319D01*
X79093Y-35300D01*
X79036Y-35300D01*
X79007Y-35319D01*
X79136Y-35548D02*
X79107Y-35567D01*
X79036Y-35567D01*
X79007Y-35548D01*
X78993Y-35510D01*
X78993Y-35472D01*
X79007Y-35434D01*
X79036Y-35415D01*
X79107Y-35415D01*
X79136Y-35395D01*
X79278Y-35300D02*
X79278Y-35567D01*
X79278Y-35338D02*
X79293Y-35319D01*
X79321Y-35300D01*
X79364Y-35300D01*
X79393Y-35319D01*
X79407Y-35357D01*
X79407Y-35567D01*
X79549Y-35567D02*
X79549Y-35167D01*
X79578Y-35415D02*
X79664Y-35567D01*
X79664Y-35300D02*
X79549Y-35453D01*
X79921Y-35567D02*
X79921Y-35357D01*
X79907Y-35319D01*
X79878Y-35300D01*
X79821Y-35300D01*
X79792Y-35319D01*
X79921Y-35548D02*
X79892Y-35567D01*
X79821Y-35567D01*
X79792Y-35548D01*
X79778Y-35510D01*
X79778Y-35472D01*
X79792Y-35434D01*
X79821Y-35415D01*
X79892Y-35415D01*
X79921Y-35395D01*
X80106Y-35567D02*
X80078Y-35548D01*
X80063Y-35510D01*
X80063Y-35167D01*
X80220Y-35300D02*
X80220Y-35700D01*
X80220Y-35319D02*
X80249Y-35300D01*
X80306Y-35300D01*
X80335Y-35319D01*
X80349Y-35338D01*
X80363Y-35376D01*
X80363Y-35491D01*
X80349Y-35529D01*
X80335Y-35548D01*
X80306Y-35567D01*
X80249Y-35567D01*
X80220Y-35548D01*
X80878Y-35186D02*
X80849Y-35167D01*
X80806Y-35167D01*
X80763Y-35186D01*
X80735Y-35224D01*
X80720Y-35262D01*
X80706Y-35338D01*
X80706Y-35395D01*
X80720Y-35472D01*
X80735Y-35510D01*
X80763Y-35548D01*
X80806Y-35567D01*
X80835Y-35567D01*
X80878Y-35548D01*
X80892Y-35529D01*
X80892Y-35395D01*
X80835Y-35395D01*
X81249Y-35567D02*
X81249Y-35167D01*
X81364Y-35167D01*
X81392Y-35186D01*
X81407Y-35205D01*
X81421Y-35243D01*
X81421Y-35300D01*
X81407Y-35338D01*
X81392Y-35357D01*
X81364Y-35376D01*
X81249Y-35376D01*
X81549Y-35567D02*
X81549Y-35300D01*
X81549Y-35376D02*
X81564Y-35338D01*
X81578Y-35319D01*
X81607Y-35300D01*
X81635Y-35300D01*
X81864Y-35567D02*
X81864Y-35357D01*
X81850Y-35319D01*
X81821Y-35300D01*
X81764Y-35300D01*
X81735Y-35319D01*
X81864Y-35548D02*
X81835Y-35567D01*
X81764Y-35567D01*
X81735Y-35548D01*
X81721Y-35510D01*
X81721Y-35472D01*
X81735Y-35434D01*
X81764Y-35415D01*
X81835Y-35415D01*
X81864Y-35395D01*
X82006Y-35567D02*
X82006Y-35167D01*
X82035Y-35415D02*
X82121Y-35567D01*
X82121Y-35300D02*
X82006Y-35453D01*
X82378Y-35567D02*
X82378Y-35357D01*
X82364Y-35319D01*
X82335Y-35300D01*
X82278Y-35300D01*
X82249Y-35319D01*
X82378Y-35548D02*
X82349Y-35567D01*
X82278Y-35567D01*
X82249Y-35548D01*
X82235Y-35510D01*
X82235Y-35472D01*
X82249Y-35434D01*
X82278Y-35415D01*
X82349Y-35415D01*
X82378Y-35395D01*
X82506Y-35548D02*
X82535Y-35567D01*
X82592Y-35567D01*
X82620Y-35548D01*
X82635Y-35510D01*
X82635Y-35491D01*
X82620Y-35453D01*
X82592Y-35434D01*
X82549Y-35434D01*
X82520Y-35415D01*
X82506Y-35376D01*
X82506Y-35357D01*
X82520Y-35319D01*
X82549Y-35300D01*
X82592Y-35300D01*
X82620Y-35319D01*
X82763Y-35567D02*
X82763Y-35167D01*
X82892Y-35567D02*
X82892Y-35357D01*
X82878Y-35319D01*
X82849Y-35300D01*
X82806Y-35300D01*
X82778Y-35319D01*
X82763Y-35338D01*
X78821Y-36627D02*
X78721Y-36627D01*
X78721Y-36837D02*
X78721Y-36437D01*
X78864Y-36437D01*
X79107Y-36837D02*
X79107Y-36627D01*
X79093Y-36589D01*
X79064Y-36570D01*
X79007Y-36570D01*
X78978Y-36589D01*
X79107Y-36818D02*
X79078Y-36837D01*
X79007Y-36837D01*
X78978Y-36818D01*
X78964Y-36780D01*
X78964Y-36742D01*
X78978Y-36704D01*
X79007Y-36685D01*
X79078Y-36685D01*
X79107Y-36665D01*
X79292Y-36837D02*
X79264Y-36818D01*
X79249Y-36780D01*
X79249Y-36437D01*
X79449Y-36837D02*
X79421Y-36818D01*
X79406Y-36780D01*
X79406Y-36437D01*
X79778Y-36475D02*
X79792Y-36456D01*
X79821Y-36437D01*
X79892Y-36437D01*
X79921Y-36456D01*
X79935Y-36475D01*
X79950Y-36513D01*
X79950Y-36551D01*
X79935Y-36608D01*
X79764Y-36837D01*
X79950Y-36837D01*
X80136Y-36437D02*
X80164Y-36437D01*
X80193Y-36456D01*
X80207Y-36475D01*
X80221Y-36513D01*
X80236Y-36589D01*
X80236Y-36685D01*
X80221Y-36761D01*
X80207Y-36799D01*
X80193Y-36818D01*
X80164Y-36837D01*
X80136Y-36837D01*
X80107Y-36818D01*
X80093Y-36799D01*
X80078Y-36761D01*
X80064Y-36685D01*
X80064Y-36589D01*
X80078Y-36513D01*
X80093Y-36475D01*
X80107Y-36456D01*
X80136Y-36437D01*
X80522Y-36837D02*
X80350Y-36837D01*
X80436Y-36837D02*
X80436Y-36437D01*
X80407Y-36494D01*
X80379Y-36532D01*
X80350Y-36551D01*
X80636Y-36475D02*
X80650Y-36456D01*
X80679Y-36437D01*
X80750Y-36437D01*
X80779Y-36456D01*
X80793Y-36475D01*
X80808Y-36513D01*
X80808Y-36551D01*
X80793Y-36608D01*
X80622Y-36837D01*
X80808Y-36837D01*
G54D13*
X59350Y-35700D02*
X59346Y-35738D01*
X59334Y-35776D01*
X59316Y-35810D01*
X59291Y-35840D01*
X59261Y-35865D01*
X59227Y-35884D01*
X59190Y-35895D01*
X59151Y-35899D01*
X59113Y-35896D01*
X59076Y-35885D01*
X59041Y-35867D01*
X59011Y-35842D01*
X58985Y-35812D01*
X58967Y-35778D01*
X58955Y-35741D01*
X58951Y-35702D01*
X58954Y-35664D01*
X58965Y-35627D01*
X58982Y-35592D01*
X59007Y-35562D01*
X59036Y-35536D01*
X59070Y-35517D01*
X59108Y-35505D01*
X59146Y-35501D01*
X59184Y-35504D01*
X59222Y-35514D01*
X59257Y-35532D01*
X59287Y-35556D01*
X59313Y-35585D01*
X59332Y-35619D01*
X59345Y-35656D01*
X59349Y-35695D01*
X59350Y-35700D01*
X59500Y-35750D02*
X59250Y-35500D01*
X54000Y-35600D02*
X54100Y-35500D01*
X54000Y-40900D02*
X54100Y-41000D01*
X59400Y-41000D02*
X59500Y-40900D01*
X59250Y-35500D02*
X54100Y-35500D01*
X54000Y-35600D02*
X54000Y-40900D01*
X54100Y-41000D02*
X59400Y-41000D01*
X59500Y-40900D02*
X59500Y-35750D01*
G54D11*
X36200Y-43700D02*
X38200Y-43700D01*
X36200Y-44700D02*
X38200Y-44700D01*
X36200Y-45700D02*
X38200Y-45700D01*
X38200Y-46700D02*
X44200Y-46700D01*
X44200Y-46700D02*
X44200Y-42700D01*
X44200Y-42700D02*
X38200Y-42700D01*
X38200Y-42700D02*
X38200Y-46700D01*
X41200Y-46200D02*
X41200Y-42700D01*
X41200Y-46200D02*
X41200Y-46700D01*
G54D14*
X64800Y-32800D02*
X64500Y-32600D01*
X65500Y-32800D02*
X64475Y-32800D01*
X64475Y-32800D02*
X64475Y-32200D01*
X64475Y-32200D02*
X65500Y-32200D01*
X65500Y-32200D02*
X65500Y-32800D01*
X48800Y-41450D02*
X48750Y-41450D01*
X48750Y-41450D02*
X48750Y-43550D01*
X50250Y-43550D02*
X50250Y-41450D01*
X50250Y-41450D02*
X48800Y-41450D01*
X49700Y-41450D02*
X49700Y-41650D01*
X49700Y-41650D02*
X49300Y-41650D01*
X49300Y-41650D02*
X49300Y-41450D01*
X50250Y-43550D02*
X48750Y-43550D01*
X49900Y-34400D02*
X49900Y-35300D01*
X49900Y-35300D02*
X50550Y-35300D01*
X51250Y-34400D02*
X51900Y-34400D01*
X51900Y-34400D02*
X51900Y-35300D01*
X51900Y-35300D02*
X51250Y-35300D01*
X50550Y-34400D02*
X49900Y-34400D01*
X62250Y-44600D02*
X63150Y-44600D01*
X63150Y-44600D02*
X63150Y-43950D01*
X62250Y-43250D02*
X62250Y-42600D01*
X62250Y-42600D02*
X63150Y-42600D01*
X63150Y-42600D02*
X63150Y-43250D01*
X62250Y-43950D02*
X62250Y-44600D01*
X75600Y-45250D02*
X75600Y-44350D01*
X75600Y-44350D02*
X74950Y-44350D01*
X74250Y-45250D02*
X73600Y-45250D01*
X73600Y-45250D02*
X73600Y-44350D01*
X73600Y-44350D02*
X74250Y-44350D01*
X74950Y-45250D02*
X75600Y-45250D01*
X71200Y-44750D02*
X71200Y-45650D01*
X71200Y-45650D02*
X71850Y-45650D01*
X72550Y-44750D02*
X73200Y-44750D01*
X73200Y-44750D02*
X73200Y-45650D01*
X73200Y-45650D02*
X72550Y-45650D01*
X71850Y-44750D02*
X71200Y-44750D01*
X50600Y-38550D02*
X50600Y-37650D01*
X50600Y-37650D02*
X49950Y-37650D01*
X49250Y-38550D02*
X48600Y-38550D01*
X48600Y-38550D02*
X48600Y-37650D01*
X48600Y-37650D02*
X49250Y-37650D01*
X49950Y-38550D02*
X50600Y-38550D01*
X49500Y-33650D02*
X50400Y-33650D01*
X50400Y-33650D02*
X50400Y-33000D01*
X49500Y-32300D02*
X49500Y-31650D01*
X49500Y-31650D02*
X50400Y-31650D01*
X50400Y-31650D02*
X50400Y-32300D01*
X49500Y-33000D02*
X49500Y-33650D01*
X49200Y-32500D02*
X49200Y-31600D01*
X49200Y-31600D02*
X48550Y-31600D01*
X47850Y-32500D02*
X47200Y-32500D01*
X47200Y-32500D02*
X47200Y-31600D01*
X47200Y-31600D02*
X47850Y-31600D01*
X48550Y-32500D02*
X49200Y-32500D01*
X58000Y-46200D02*
X58000Y-45300D01*
X58000Y-45300D02*
X57350Y-45300D01*
X56650Y-46200D02*
X56000Y-46200D01*
X56000Y-46200D02*
X56000Y-45300D01*
X56000Y-45300D02*
X56650Y-45300D01*
X57350Y-46200D02*
X58000Y-46200D01*
X63400Y-45950D02*
X64300Y-45950D01*
X64300Y-45950D02*
X64300Y-45300D01*
X63400Y-44600D02*
X63400Y-43950D01*
X63400Y-43950D02*
X64300Y-43950D01*
X64300Y-43950D02*
X64300Y-44600D01*
X63400Y-45300D02*
X63400Y-45950D01*
X50500Y-33400D02*
X50500Y-34300D01*
X50500Y-34300D02*
X51150Y-34300D01*
X51850Y-33400D02*
X52500Y-33400D01*
X52500Y-33400D02*
X52500Y-34300D01*
X52500Y-34300D02*
X51850Y-34300D01*
X51150Y-33400D02*
X50500Y-33400D01*
X70400Y-34900D02*
X70400Y-35800D01*
X70400Y-35800D02*
X71050Y-35800D01*
X71750Y-34900D02*
X72400Y-34900D01*
X72400Y-34900D02*
X72400Y-35800D01*
X72400Y-35800D02*
X71750Y-35800D01*
X71050Y-34900D02*
X70400Y-34900D01*
X70400Y-36100D02*
X70400Y-37000D01*
X70400Y-37000D02*
X71050Y-37000D01*
X71750Y-36100D02*
X72400Y-36100D01*
X72400Y-36100D02*
X72400Y-37000D01*
X72400Y-37000D02*
X71750Y-37000D01*
X71050Y-36100D02*
X70400Y-36100D01*
X70400Y-33300D02*
X70400Y-34200D01*
X70400Y-34200D02*
X71050Y-34200D01*
X71750Y-33300D02*
X72400Y-33300D01*
X72400Y-33300D02*
X72400Y-34200D01*
X72400Y-34200D02*
X71750Y-34200D01*
X71050Y-33300D02*
X70400Y-33300D01*
X70400Y-32100D02*
X70400Y-33000D01*
X70400Y-33000D02*
X71050Y-33000D01*
X71750Y-32100D02*
X72400Y-32100D01*
X72400Y-32100D02*
X72400Y-33000D01*
X72400Y-33000D02*
X71750Y-33000D01*
X71050Y-32100D02*
X70400Y-32100D01*
X61050Y-31700D02*
X60150Y-31700D01*
X60150Y-31700D02*
X60150Y-32350D01*
X61050Y-33050D02*
X61050Y-33700D01*
X61050Y-33700D02*
X60150Y-33700D01*
X60150Y-33700D02*
X60150Y-33050D01*
X61050Y-32350D02*
X61050Y-31700D01*
X70400Y-40300D02*
X70400Y-41200D01*
X70400Y-41200D02*
X71050Y-41200D01*
X71750Y-40300D02*
X72400Y-40300D01*
X72400Y-40300D02*
X72400Y-41200D01*
X72400Y-41200D02*
X71750Y-41200D01*
X71050Y-40300D02*
X70400Y-40300D01*
X72400Y-39200D02*
X72400Y-38300D01*
X72400Y-38300D02*
X71750Y-38300D01*
X71050Y-39200D02*
X70400Y-39200D01*
X70400Y-39200D02*
X70400Y-38300D01*
X70400Y-38300D02*
X71050Y-38300D01*
X71750Y-39200D02*
X72400Y-39200D01*
X61300Y-31800D02*
X61300Y-32700D01*
X61300Y-32700D02*
X61950Y-32700D01*
X62650Y-31800D02*
X63300Y-31800D01*
X63300Y-31800D02*
X63300Y-32700D01*
X63300Y-32700D02*
X62650Y-32700D01*
X61950Y-31800D02*
X61300Y-31800D01*
X64150Y-33300D02*
X64150Y-34200D01*
X64150Y-34200D02*
X64800Y-34200D01*
X65500Y-33300D02*
X66150Y-33300D01*
X66150Y-33300D02*
X66150Y-34200D01*
X66150Y-34200D02*
X65500Y-34200D01*
X64800Y-33300D02*
X64150Y-33300D01*
X53150Y-38500D02*
X53150Y-37600D01*
X53150Y-37600D02*
X52500Y-37600D01*
X51800Y-38500D02*
X51150Y-38500D01*
X51150Y-38500D02*
X51150Y-37600D01*
X51150Y-37600D02*
X51800Y-37600D01*
X52500Y-38500D02*
X53150Y-38500D01*
X62925Y-40700D02*
X62925Y-39800D01*
X62925Y-39800D02*
X62275Y-39800D01*
X61575Y-40700D02*
X60925Y-40700D01*
X60925Y-40700D02*
X60925Y-39800D01*
X60925Y-39800D02*
X61575Y-39800D01*
X62275Y-40700D02*
X62925Y-40700D01*
X63300Y-46700D02*
X63300Y-45800D01*
X63300Y-45800D02*
X62650Y-45800D01*
X61950Y-46700D02*
X61300Y-46700D01*
X61300Y-46700D02*
X61300Y-45800D01*
X61300Y-45800D02*
X61950Y-45800D01*
X62650Y-46700D02*
X63300Y-46700D01*
X51225Y-35400D02*
X51225Y-36300D01*
X51225Y-36300D02*
X51875Y-36300D01*
X52575Y-35400D02*
X53225Y-35400D01*
X53225Y-35400D02*
X53225Y-36300D01*
X53225Y-36300D02*
X52575Y-36300D01*
X51875Y-35400D02*
X51225Y-35400D01*
X49100Y-35650D02*
X49100Y-36550D01*
X49100Y-36550D02*
X49750Y-36550D01*
X50450Y-35650D02*
X51100Y-35650D01*
X51100Y-35650D02*
X51100Y-36550D01*
X51100Y-36550D02*
X50450Y-36550D01*
X49750Y-35650D02*
X49100Y-35650D01*
X34950Y-32000D02*
X34050Y-32000D01*
X34050Y-32000D02*
X34050Y-32650D01*
X34950Y-33350D02*
X34950Y-34000D01*
X34950Y-34000D02*
X34050Y-34000D01*
X34050Y-34000D02*
X34050Y-33350D01*
X34950Y-32650D02*
X34950Y-32000D01*
X34800Y-37950D02*
X33900Y-37950D01*
X33900Y-37950D02*
X33900Y-38600D01*
X34800Y-39300D02*
X34800Y-39950D01*
X34800Y-39950D02*
X33900Y-39950D01*
X33900Y-39950D02*
X33900Y-39300D01*
X34800Y-38600D02*
X34800Y-37950D01*
X53850Y-32500D02*
X53850Y-31600D01*
X53850Y-31600D02*
X53200Y-31600D01*
X52500Y-32500D02*
X51850Y-32500D01*
X51850Y-32500D02*
X51850Y-31600D01*
X51850Y-31600D02*
X52500Y-31600D01*
X53200Y-32500D02*
X53850Y-32500D01*
X71400Y-43400D02*
X71399Y-43409D01*
X71396Y-43419D01*
X71391Y-43427D01*
X71385Y-43435D01*
X71377Y-43441D01*
X71369Y-43446D01*
X71360Y-43448D01*
X71350Y-43449D01*
X71341Y-43449D01*
X71332Y-43446D01*
X71323Y-43441D01*
X71316Y-43435D01*
X71309Y-43428D01*
X71305Y-43419D01*
X71302Y-43410D01*
X71301Y-43400D01*
X71301Y-43391D01*
X71304Y-43382D01*
X71308Y-43373D01*
X71315Y-43366D01*
X71322Y-43359D01*
X71330Y-43355D01*
X71340Y-43352D01*
X71349Y-43351D01*
X71358Y-43351D01*
X71368Y-43354D01*
X71376Y-43358D01*
X71384Y-43364D01*
X71390Y-43372D01*
X71395Y-43380D01*
X71398Y-43389D01*
X71399Y-43399D01*
X71400Y-43400D01*
X71800Y-43400D02*
X71400Y-43400D01*
X71400Y-43400D02*
X71400Y-42800D01*
X71400Y-42800D02*
X71800Y-42800D01*
X72200Y-42800D02*
X72600Y-42800D01*
X72600Y-42800D02*
X72600Y-43400D01*
X72600Y-43400D02*
X72200Y-43400D01*
X71400Y-44100D02*
X71399Y-44109D01*
X71396Y-44119D01*
X71391Y-44127D01*
X71385Y-44135D01*
X71377Y-44141D01*
X71369Y-44146D01*
X71360Y-44148D01*
X71350Y-44149D01*
X71341Y-44149D01*
X71332Y-44146D01*
X71323Y-44141D01*
X71316Y-44135D01*
X71309Y-44128D01*
X71305Y-44119D01*
X71302Y-44110D01*
X71301Y-44100D01*
X71301Y-44091D01*
X71304Y-44082D01*
X71308Y-44073D01*
X71315Y-44066D01*
X71322Y-44059D01*
X71330Y-44055D01*
X71340Y-44052D01*
X71349Y-44051D01*
X71358Y-44051D01*
X71368Y-44054D01*
X71376Y-44058D01*
X71384Y-44064D01*
X71390Y-44072D01*
X71395Y-44080D01*
X71398Y-44089D01*
X71399Y-44099D01*
X71400Y-44100D01*
X71800Y-44100D02*
X71400Y-44100D01*
X71400Y-44100D02*
X71400Y-43500D01*
X71400Y-43500D02*
X71800Y-43500D01*
X72200Y-43500D02*
X72600Y-43500D01*
X72600Y-43500D02*
X72600Y-44100D01*
X72600Y-44100D02*
X72200Y-44100D01*
X59700Y-45450D02*
X59699Y-45459D01*
X59696Y-45469D01*
X59691Y-45477D01*
X59685Y-45485D01*
X59677Y-45491D01*
X59669Y-45496D01*
X59660Y-45498D01*
X59650Y-45499D01*
X59641Y-45499D01*
X59632Y-45496D01*
X59623Y-45491D01*
X59616Y-45485D01*
X59609Y-45478D01*
X59605Y-45469D01*
X59602Y-45460D01*
X59601Y-45450D01*
X59601Y-45441D01*
X59604Y-45432D01*
X59608Y-45423D01*
X59615Y-45416D01*
X59622Y-45409D01*
X59630Y-45405D01*
X59640Y-45402D01*
X59649Y-45401D01*
X59658Y-45401D01*
X59668Y-45404D01*
X59676Y-45408D01*
X59684Y-45414D01*
X59690Y-45422D01*
X59695Y-45430D01*
X59698Y-45439D01*
X59699Y-45449D01*
X59700Y-45450D01*
X59200Y-45450D02*
X59600Y-45450D01*
X59600Y-45450D02*
X59600Y-46050D01*
X59600Y-46050D02*
X59200Y-46050D01*
X58800Y-46050D02*
X58400Y-46050D01*
X58400Y-46050D02*
X58400Y-45450D01*
X58400Y-45450D02*
X58800Y-45450D01*
X54400Y-46050D02*
X54399Y-46059D01*
X54396Y-46069D01*
X54391Y-46077D01*
X54385Y-46085D01*
X54377Y-46091D01*
X54369Y-46096D01*
X54360Y-46098D01*
X54350Y-46099D01*
X54341Y-46099D01*
X54332Y-46096D01*
X54323Y-46091D01*
X54316Y-46085D01*
X54309Y-46078D01*
X54305Y-46069D01*
X54302Y-46060D01*
X54301Y-46050D01*
X54301Y-46041D01*
X54304Y-46032D01*
X54308Y-46023D01*
X54315Y-46016D01*
X54322Y-46009D01*
X54330Y-46005D01*
X54340Y-46002D01*
X54349Y-46001D01*
X54358Y-46001D01*
X54368Y-46004D01*
X54376Y-46008D01*
X54384Y-46014D01*
X54390Y-46022D01*
X54395Y-46030D01*
X54398Y-46039D01*
X54399Y-46049D01*
X54400Y-46050D01*
X54800Y-46050D02*
X54400Y-46050D01*
X54400Y-46050D02*
X54400Y-45450D01*
X54400Y-45450D02*
X54800Y-45450D01*
X55200Y-45450D02*
X55600Y-45450D01*
X55600Y-45450D02*
X55600Y-46050D01*
X55600Y-46050D02*
X55200Y-46050D01*
G54D10*
X69000Y-32000D02*
X69000Y-33000D01*
X69000Y-33000D02*
X67000Y-33000D01*
X67000Y-33000D02*
X67000Y-32000D01*
X67000Y-32000D02*
X69000Y-32000D01*
X46900Y-37400D02*
X46900Y-38400D01*
X46900Y-38400D02*
X44900Y-38400D01*
X44900Y-38400D02*
X44900Y-37400D01*
X44900Y-37400D02*
X46900Y-37400D01*
G54D11*
X60000Y-32200D02*
X60000Y-33200D01*
X60000Y-33200D02*
X54000Y-33200D01*
X54000Y-33200D02*
X54000Y-32200D01*
X54000Y-32200D02*
X60000Y-32200D01*
X59000Y-32200D02*
X59000Y-33200D01*
X36000Y-32500D02*
X38000Y-32500D01*
X36000Y-33500D02*
X38000Y-33500D01*
X36000Y-34500D02*
X38000Y-34500D01*
X38000Y-32000D02*
X38000Y-35500D01*
X38000Y-35500D02*
X44000Y-35500D01*
X44000Y-35500D02*
X44000Y-31500D01*
X38000Y-32000D02*
X38000Y-31500D01*
X41000Y-35000D02*
X41000Y-31500D01*
X41000Y-35000D02*
X41000Y-35500D01*
X38000Y-31500D02*
X44000Y-31500D01*
X36200Y-38500D02*
X38200Y-38500D01*
X36200Y-39500D02*
X38200Y-39500D01*
X36200Y-40500D02*
X38200Y-40500D01*
X38200Y-38000D02*
X38200Y-41500D01*
X38200Y-41500D02*
X44200Y-41500D01*
X44200Y-41500D02*
X44200Y-37500D01*
X38200Y-38000D02*
X38200Y-37500D01*
X41200Y-41000D02*
X41200Y-37500D01*
X41200Y-41000D02*
X41200Y-41500D01*
X38200Y-37500D02*
X44200Y-37500D01*
G54D15*
X47146Y-34669D02*
X47409Y-34661D01*
X47409Y-34661D02*
X47417Y-34291D01*
X47417Y-34291D02*
X47193Y-34295D01*
X47102Y-33571D02*
X47098Y-35449D01*
X47098Y-35449D02*
X49201Y-35433D01*
X49201Y-35433D02*
X49217Y-33531D01*
X49217Y-33531D02*
X47071Y-33543D01*
X65091Y-36031D02*
X63909Y-36031D01*
X65091Y-35047D02*
X63909Y-35047D01*
X63909Y-35047D02*
X63909Y-41740D01*
X63909Y-41740D02*
X65091Y-41740D01*
X65091Y-41740D02*
X65091Y-35047D01*
X68241Y-36031D02*
X67059Y-36031D01*
X68241Y-35047D02*
X67059Y-35047D01*
X67059Y-35047D02*
X67059Y-41740D01*
X67059Y-41740D02*
X68241Y-41740D01*
X68241Y-41740D02*
X68241Y-35047D01*
X74741Y-36189D02*
X75096Y-36189D01*
X74702Y-35953D02*
X74702Y-36386D01*
X74426Y-36386D02*
X74623Y-36189D01*
X74623Y-36189D02*
X74426Y-36032D01*
X74426Y-36032D02*
X74426Y-36386D01*
X74072Y-36189D02*
X74348Y-36189D01*
X74663Y-35559D02*
X74466Y-35402D01*
X74426Y-35756D02*
X74663Y-35559D01*
X74426Y-35402D02*
X74426Y-35756D01*
X74781Y-35362D02*
X74781Y-35756D01*
X74033Y-35559D02*
X74308Y-35559D01*
X74859Y-35559D02*
X75135Y-35559D01*
X74859Y-35559D02*
X75135Y-35559D01*
X74033Y-35559D02*
X74308Y-35559D01*
X74781Y-35362D02*
X74781Y-35756D01*
X74426Y-35402D02*
X74426Y-35756D01*
X74426Y-35756D02*
X74663Y-35559D01*
X74663Y-35559D02*
X74466Y-35402D01*
X74663Y-35559D02*
X74466Y-35402D01*
X74426Y-35756D02*
X74663Y-35559D01*
X74426Y-35402D02*
X74426Y-35756D01*
X74781Y-35362D02*
X74781Y-35756D01*
X74033Y-35559D02*
X74308Y-35559D01*
X74859Y-35559D02*
X75135Y-35559D01*
X74859Y-35559D02*
X75135Y-35559D01*
X74033Y-35559D02*
X74308Y-35559D01*
X74781Y-35362D02*
X74781Y-35756D01*
X74426Y-35402D02*
X74426Y-35756D01*
X74426Y-35756D02*
X74663Y-35559D01*
X74663Y-35559D02*
X74466Y-35402D01*
X74741Y-33189D02*
X75096Y-33189D01*
X74702Y-32953D02*
X74702Y-33386D01*
X74426Y-33386D02*
X74623Y-33189D01*
X74623Y-33189D02*
X74426Y-33032D01*
X74426Y-33032D02*
X74426Y-33386D01*
X74072Y-33189D02*
X74348Y-33189D01*
X74663Y-32559D02*
X74466Y-32402D01*
X74426Y-32756D02*
X74663Y-32559D01*
X74426Y-32402D02*
X74426Y-32756D01*
X74781Y-32362D02*
X74781Y-32756D01*
X74033Y-32559D02*
X74308Y-32559D01*
X74859Y-32559D02*
X75135Y-32559D01*
X74859Y-32559D02*
X75135Y-32559D01*
X74033Y-32559D02*
X74308Y-32559D01*
X74781Y-32362D02*
X74781Y-32756D01*
X74426Y-32402D02*
X74426Y-32756D01*
X74426Y-32756D02*
X74663Y-32559D01*
X74663Y-32559D02*
X74466Y-32402D01*
X74663Y-32559D02*
X74466Y-32402D01*
X74426Y-32756D02*
X74663Y-32559D01*
X74426Y-32402D02*
X74426Y-32756D01*
X74781Y-32362D02*
X74781Y-32756D01*
X74033Y-32559D02*
X74308Y-32559D01*
X74859Y-32559D02*
X75135Y-32559D01*
X74859Y-32559D02*
X75135Y-32559D01*
X74033Y-32559D02*
X74308Y-32559D01*
X74781Y-32362D02*
X74781Y-32756D01*
X74426Y-32402D02*
X74426Y-32756D01*
X74426Y-32756D02*
X74663Y-32559D01*
X74663Y-32559D02*
X74466Y-32402D01*
X45512Y-32500D02*
X45748Y-32264D01*
X45748Y-32264D02*
X45748Y-32697D01*
X45748Y-32697D02*
X45512Y-32539D01*
X45472Y-32264D02*
X45472Y-32736D01*
X45984Y-32500D02*
X45354Y-32500D01*
G54D14*
X86700Y-46750D02*
X86700Y-40750D01*
X86700Y-40750D02*
X79600Y-40750D01*
X79600Y-40750D02*
X79600Y-46750D01*
X79600Y-46750D02*
X86700Y-46750D01*
G54D16*
X56445Y-37143D02*
X56445Y-37629D01*
X56464Y-37686D01*
X56483Y-37714D01*
X56521Y-37743D01*
X56598Y-37743D01*
X56636Y-37714D01*
X56655Y-37686D01*
X56674Y-37629D01*
X56674Y-37143D01*
X57055Y-37143D02*
X56864Y-37143D01*
X56845Y-37429D01*
X56864Y-37400D01*
X56902Y-37371D01*
X56998Y-37371D01*
X57036Y-37400D01*
X57055Y-37429D01*
X57074Y-37486D01*
X57074Y-37629D01*
X57055Y-37686D01*
X57036Y-37714D01*
X56998Y-37743D01*
X56902Y-37743D01*
X56864Y-37714D01*
X56845Y-37686D01*
X54883Y-39493D02*
X54883Y-38893D01*
X55036Y-38893D01*
X55074Y-38921D01*
X55093Y-38950D01*
X55112Y-39007D01*
X55112Y-39093D01*
X55093Y-39150D01*
X55074Y-39179D01*
X55036Y-39207D01*
X54883Y-39207D01*
X55283Y-39493D02*
X55283Y-38893D01*
X55702Y-39436D02*
X55683Y-39464D01*
X55626Y-39493D01*
X55588Y-39493D01*
X55530Y-39464D01*
X55492Y-39407D01*
X55473Y-39350D01*
X55454Y-39236D01*
X55454Y-39150D01*
X55473Y-39036D01*
X55492Y-38979D01*
X55530Y-38921D01*
X55588Y-38893D01*
X55626Y-38893D01*
X55683Y-38921D01*
X55702Y-38950D01*
X56083Y-39493D02*
X55854Y-39493D01*
X55968Y-39493D02*
X55968Y-38893D01*
X55930Y-38979D01*
X55892Y-39036D01*
X55854Y-39064D01*
X56311Y-39150D02*
X56273Y-39121D01*
X56254Y-39093D01*
X56235Y-39036D01*
X56235Y-39007D01*
X56254Y-38950D01*
X56273Y-38921D01*
X56311Y-38893D01*
X56388Y-38893D01*
X56426Y-38921D01*
X56445Y-38950D01*
X56464Y-39007D01*
X56464Y-39036D01*
X56445Y-39093D01*
X56426Y-39121D01*
X56388Y-39150D01*
X56311Y-39150D01*
X56273Y-39179D01*
X56254Y-39207D01*
X56235Y-39264D01*
X56235Y-39379D01*
X56254Y-39436D01*
X56273Y-39464D01*
X56311Y-39493D01*
X56388Y-39493D01*
X56426Y-39464D01*
X56445Y-39436D01*
X56464Y-39379D01*
X56464Y-39264D01*
X56445Y-39207D01*
X56426Y-39179D01*
X56388Y-39150D01*
X56769Y-39179D02*
X56635Y-39179D01*
X56635Y-39493D02*
X56635Y-38893D01*
X56826Y-38893D01*
X56997Y-39493D02*
X57073Y-39493D01*
X57112Y-39464D01*
X57131Y-39436D01*
X57169Y-39350D01*
X57188Y-39236D01*
X57188Y-39007D01*
X57169Y-38950D01*
X57150Y-38921D01*
X57112Y-38893D01*
X57035Y-38893D01*
X56997Y-38921D01*
X56978Y-38950D01*
X56959Y-39007D01*
X56959Y-39150D01*
X56978Y-39207D01*
X56997Y-39236D01*
X57035Y-39264D01*
X57112Y-39264D01*
X57150Y-39236D01*
X57169Y-39207D01*
X57188Y-39150D01*
X57321Y-38893D02*
X57588Y-38893D01*
X57416Y-39493D01*
X57855Y-38893D02*
X57855Y-39321D01*
X57835Y-39407D01*
X57797Y-39464D01*
X57740Y-39493D01*
X57702Y-39493D01*
X58217Y-38893D02*
X58140Y-38893D01*
X58102Y-38921D01*
X58083Y-38950D01*
X58045Y-39036D01*
X58026Y-39150D01*
X58026Y-39379D01*
X58045Y-39436D01*
X58064Y-39464D01*
X58102Y-39493D01*
X58179Y-39493D01*
X58217Y-39464D01*
X58236Y-39436D01*
X58255Y-39379D01*
X58255Y-39236D01*
X58236Y-39179D01*
X58217Y-39150D01*
X58179Y-39121D01*
X58102Y-39121D01*
X58064Y-39150D01*
X58045Y-39179D01*
X58026Y-39236D01*
X58502Y-38893D02*
X58541Y-38893D01*
X58579Y-38921D01*
X58598Y-38950D01*
X58617Y-39007D01*
X58636Y-39121D01*
X58636Y-39264D01*
X58617Y-39379D01*
X58598Y-39436D01*
X58579Y-39464D01*
X58541Y-39493D01*
X58502Y-39493D01*
X58464Y-39464D01*
X58445Y-39436D01*
X58426Y-39379D01*
X58407Y-39264D01*
X58407Y-39121D01*
X58426Y-39007D01*
X58445Y-38950D01*
X58464Y-38921D01*
X58502Y-38893D01*
G54D13*
X39150Y-44738D02*
X39131Y-44776D01*
X39093Y-44814D01*
X39036Y-44871D01*
X39017Y-44910D01*
X39017Y-44948D01*
X39112Y-44929D02*
X39093Y-44967D01*
X39055Y-45005D01*
X38979Y-45024D01*
X38845Y-45024D01*
X38769Y-45005D01*
X38731Y-44967D01*
X38712Y-44929D01*
X38712Y-44852D01*
X38731Y-44814D01*
X38769Y-44776D01*
X38845Y-44757D01*
X38979Y-44757D01*
X39055Y-44776D01*
X39093Y-44814D01*
X39112Y-44852D01*
X39112Y-44929D01*
X39112Y-44376D02*
X39112Y-44605D01*
X39112Y-44491D02*
X38712Y-44491D01*
X38769Y-44529D01*
X38807Y-44567D01*
X38826Y-44605D01*
X40402Y-47815D02*
X40402Y-47681D01*
X40612Y-47624D02*
X40612Y-47815D01*
X40212Y-47815D01*
X40212Y-47624D01*
X40612Y-47453D02*
X40212Y-47453D01*
X40612Y-47224D01*
X40212Y-47224D01*
X40612Y-47034D02*
X40212Y-47034D01*
X40402Y-47034D02*
X40402Y-46805D01*
X40612Y-46805D02*
X40212Y-46805D01*
X40498Y-46634D02*
X40498Y-46443D01*
X40612Y-46672D02*
X40212Y-46539D01*
X40612Y-46405D01*
X40612Y-46272D02*
X40212Y-46272D01*
X40612Y-46043D01*
X40212Y-46043D01*
X40574Y-45624D02*
X40593Y-45643D01*
X40612Y-45700D01*
X40612Y-45738D01*
X40593Y-45796D01*
X40555Y-45834D01*
X40517Y-45853D01*
X40440Y-45872D01*
X40383Y-45872D01*
X40307Y-45853D01*
X40269Y-45834D01*
X40231Y-45796D01*
X40212Y-45738D01*
X40212Y-45700D01*
X40231Y-45643D01*
X40250Y-45624D01*
X40402Y-45453D02*
X40402Y-45319D01*
X40612Y-45262D02*
X40612Y-45453D01*
X40212Y-45453D01*
X40212Y-45262D01*
X40612Y-45091D02*
X40212Y-45091D01*
X40212Y-44996D01*
X40231Y-44938D01*
X40269Y-44900D01*
X40307Y-44881D01*
X40383Y-44862D01*
X40440Y-44862D01*
X40517Y-44881D01*
X40555Y-44900D01*
X40593Y-44938D01*
X40612Y-44996D01*
X40612Y-45091D01*
X40650Y-44786D02*
X40650Y-44481D01*
X40612Y-44386D02*
X40212Y-44386D01*
X40498Y-44252D01*
X40212Y-44119D01*
X40612Y-44119D01*
X40212Y-43853D02*
X40212Y-43776D01*
X40231Y-43738D01*
X40269Y-43700D01*
X40345Y-43681D01*
X40479Y-43681D01*
X40555Y-43700D01*
X40593Y-43738D01*
X40612Y-43776D01*
X40612Y-43853D01*
X40593Y-43891D01*
X40555Y-43929D01*
X40479Y-43948D01*
X40345Y-43948D01*
X40269Y-43929D01*
X40231Y-43891D01*
X40212Y-43853D01*
X40593Y-43529D02*
X40612Y-43472D01*
X40612Y-43376D01*
X40593Y-43338D01*
X40574Y-43319D01*
X40536Y-43300D01*
X40498Y-43300D01*
X40460Y-43319D01*
X40440Y-43338D01*
X40421Y-43376D01*
X40402Y-43453D01*
X40383Y-43491D01*
X40364Y-43510D01*
X40326Y-43529D01*
X40288Y-43529D01*
X40250Y-43510D01*
X40231Y-43491D01*
X40212Y-43453D01*
X40212Y-43357D01*
X40231Y-43300D01*
X40402Y-42995D02*
X40402Y-43129D01*
X40612Y-43129D02*
X40212Y-43129D01*
X40212Y-42938D01*
X40402Y-42786D02*
X40402Y-42652D01*
X40612Y-42595D02*
X40612Y-42786D01*
X40212Y-42786D01*
X40212Y-42595D01*
X40212Y-42481D02*
X40212Y-42252D01*
X40612Y-42367D02*
X40212Y-42367D01*
X40650Y-42214D02*
X40650Y-41909D01*
X40612Y-41814D02*
X40212Y-41814D01*
X40612Y-41585D01*
X40212Y-41585D01*
G54D17*
X65937Y-32490D02*
X65923Y-32518D01*
X65894Y-32547D01*
X65851Y-32590D01*
X65837Y-32618D01*
X65837Y-32647D01*
X65908Y-32632D02*
X65894Y-32661D01*
X65866Y-32690D01*
X65808Y-32704D01*
X65708Y-32704D01*
X65651Y-32690D01*
X65623Y-32661D01*
X65608Y-32632D01*
X65608Y-32575D01*
X65623Y-32547D01*
X65651Y-32518D01*
X65708Y-32504D01*
X65808Y-32504D01*
X65866Y-32518D01*
X65894Y-32547D01*
X65908Y-32575D01*
X65908Y-32632D01*
X65637Y-32390D02*
X65623Y-32376D01*
X65608Y-32347D01*
X65608Y-32276D01*
X65623Y-32247D01*
X65637Y-32233D01*
X65666Y-32218D01*
X65694Y-32218D01*
X65737Y-32233D01*
X65908Y-32404D01*
X65908Y-32218D01*
X64768Y-32579D02*
X64768Y-32382D01*
X64880Y-32579D01*
X64880Y-32382D01*
X64974Y-32579D02*
X64974Y-32382D01*
X65049Y-32382D01*
X65068Y-32392D01*
X65077Y-32401D01*
X65086Y-32420D01*
X65086Y-32448D01*
X65077Y-32467D01*
X65068Y-32476D01*
X65049Y-32485D01*
X64974Y-32485D01*
X65171Y-32579D02*
X65171Y-32382D01*
X65283Y-32579D01*
X65283Y-32382D01*
G54D10*
X49582Y-42843D02*
X49946Y-42843D01*
X49989Y-42821D01*
X50011Y-42800D01*
X50032Y-42757D01*
X50032Y-42671D01*
X50011Y-42629D01*
X49989Y-42607D01*
X49946Y-42586D01*
X49582Y-42586D01*
X49732Y-42179D02*
X50032Y-42179D01*
X49561Y-42286D02*
X49882Y-42393D01*
X49882Y-42115D01*
X48925Y-43582D02*
X48908Y-43566D01*
X48892Y-43532D01*
X48892Y-43449D01*
X48908Y-43416D01*
X48925Y-43399D01*
X48958Y-43382D01*
X48992Y-43382D01*
X49042Y-43399D01*
X49242Y-43599D01*
X49242Y-43382D01*
X48892Y-43066D02*
X48892Y-43233D01*
X49058Y-43249D01*
X49042Y-43233D01*
X49025Y-43199D01*
X49025Y-43116D01*
X49042Y-43083D01*
X49058Y-43066D01*
X49092Y-43049D01*
X49175Y-43049D01*
X49208Y-43066D01*
X49225Y-43083D01*
X49242Y-43116D01*
X49242Y-43199D01*
X49225Y-43233D01*
X49208Y-43249D01*
X49242Y-42733D02*
X49242Y-42900D01*
X48892Y-42900D01*
X49208Y-42417D02*
X49225Y-42433D01*
X49242Y-42483D01*
X49242Y-42517D01*
X49225Y-42567D01*
X49192Y-42600D01*
X49158Y-42617D01*
X49092Y-42633D01*
X49042Y-42633D01*
X48975Y-42617D01*
X48942Y-42600D01*
X48908Y-42567D01*
X48892Y-42517D01*
X48892Y-42483D01*
X48908Y-42433D01*
X48925Y-42417D01*
X48925Y-42283D02*
X48908Y-42267D01*
X48892Y-42233D01*
X48892Y-42150D01*
X48908Y-42117D01*
X48925Y-42100D01*
X48958Y-42083D01*
X48992Y-42083D01*
X49042Y-42100D01*
X49242Y-42300D01*
X49242Y-42083D01*
X48892Y-41767D02*
X48892Y-41934D01*
X49058Y-41950D01*
X49042Y-41934D01*
X49025Y-41900D01*
X49025Y-41817D01*
X49042Y-41784D01*
X49058Y-41767D01*
X49092Y-41750D01*
X49175Y-41750D01*
X49208Y-41767D01*
X49225Y-41784D01*
X49242Y-41817D01*
X49242Y-41900D01*
X49225Y-41934D01*
X49208Y-41950D01*
X48892Y-41451D02*
X48892Y-41517D01*
X48908Y-41551D01*
X48925Y-41567D01*
X48975Y-41601D01*
X49042Y-41617D01*
X49175Y-41617D01*
X49208Y-41601D01*
X49225Y-41584D01*
X49242Y-41551D01*
X49242Y-41484D01*
X49225Y-41451D01*
X49208Y-41434D01*
X49175Y-41417D01*
X49092Y-41417D01*
X49058Y-41434D01*
X49042Y-41451D01*
X49025Y-41484D01*
X49025Y-41551D01*
X49042Y-41584D01*
X49058Y-41601D01*
X49092Y-41617D01*
G54D14*
X50707Y-34971D02*
X50607Y-34829D01*
X50535Y-34971D02*
X50535Y-34671D01*
X50650Y-34671D01*
X50678Y-34686D01*
X50693Y-34700D01*
X50707Y-34729D01*
X50707Y-34771D01*
X50693Y-34800D01*
X50678Y-34814D01*
X50650Y-34829D01*
X50535Y-34829D01*
X50993Y-34971D02*
X50821Y-34971D01*
X50907Y-34971D02*
X50907Y-34671D01*
X50878Y-34714D01*
X50850Y-34743D01*
X50821Y-34757D01*
X51279Y-34971D02*
X51107Y-34971D01*
X51193Y-34971D02*
X51193Y-34671D01*
X51164Y-34714D01*
X51136Y-34743D01*
X51107Y-34757D01*
X62821Y-43650D02*
X62679Y-43750D01*
X62821Y-43822D02*
X62521Y-43822D01*
X62521Y-43707D01*
X62536Y-43679D01*
X62550Y-43664D01*
X62579Y-43650D01*
X62621Y-43650D01*
X62650Y-43664D01*
X62664Y-43679D01*
X62679Y-43707D01*
X62679Y-43822D01*
X62550Y-43536D02*
X62536Y-43522D01*
X62521Y-43493D01*
X62521Y-43422D01*
X62536Y-43393D01*
X62550Y-43379D01*
X62579Y-43364D01*
X62607Y-43364D01*
X62650Y-43379D01*
X62821Y-43550D01*
X62821Y-43364D01*
X74550Y-44921D02*
X74450Y-44779D01*
X74378Y-44921D02*
X74378Y-44621D01*
X74493Y-44621D01*
X74521Y-44636D01*
X74536Y-44650D01*
X74550Y-44679D01*
X74550Y-44721D01*
X74536Y-44750D01*
X74521Y-44764D01*
X74493Y-44779D01*
X74378Y-44779D01*
X74807Y-44721D02*
X74807Y-44921D01*
X74736Y-44607D02*
X74664Y-44821D01*
X74850Y-44821D01*
X72150Y-45321D02*
X72050Y-45179D01*
X71978Y-45321D02*
X71978Y-45021D01*
X72093Y-45021D01*
X72121Y-45036D01*
X72136Y-45050D01*
X72150Y-45079D01*
X72150Y-45121D01*
X72136Y-45150D01*
X72121Y-45164D01*
X72093Y-45179D01*
X71978Y-45179D01*
X72421Y-45021D02*
X72278Y-45021D01*
X72264Y-45164D01*
X72278Y-45150D01*
X72307Y-45136D01*
X72378Y-45136D01*
X72407Y-45150D01*
X72421Y-45164D01*
X72436Y-45193D01*
X72436Y-45264D01*
X72421Y-45293D01*
X72407Y-45307D01*
X72378Y-45321D01*
X72307Y-45321D01*
X72278Y-45307D01*
X72264Y-45293D01*
X49550Y-38221D02*
X49450Y-38079D01*
X49378Y-38221D02*
X49378Y-37921D01*
X49493Y-37921D01*
X49521Y-37936D01*
X49536Y-37950D01*
X49550Y-37979D01*
X49550Y-38021D01*
X49536Y-38050D01*
X49521Y-38064D01*
X49493Y-38079D01*
X49378Y-38079D01*
X49807Y-37921D02*
X49750Y-37921D01*
X49721Y-37936D01*
X49707Y-37950D01*
X49678Y-37993D01*
X49664Y-38050D01*
X49664Y-38164D01*
X49678Y-38193D01*
X49693Y-38207D01*
X49721Y-38221D01*
X49778Y-38221D01*
X49807Y-38207D01*
X49821Y-38193D01*
X49836Y-38164D01*
X49836Y-38093D01*
X49821Y-38064D01*
X49807Y-38050D01*
X49778Y-38036D01*
X49721Y-38036D01*
X49693Y-38050D01*
X49678Y-38064D01*
X49664Y-38093D01*
X50071Y-32700D02*
X49929Y-32800D01*
X50071Y-32872D02*
X49771Y-32872D01*
X49771Y-32757D01*
X49786Y-32729D01*
X49800Y-32714D01*
X49829Y-32700D01*
X49871Y-32700D01*
X49900Y-32714D01*
X49914Y-32729D01*
X49929Y-32757D01*
X49929Y-32872D01*
X49771Y-32600D02*
X49771Y-32400D01*
X50071Y-32529D01*
X48150Y-32171D02*
X48050Y-32029D01*
X47978Y-32171D02*
X47978Y-31871D01*
X48093Y-31871D01*
X48121Y-31886D01*
X48136Y-31900D01*
X48150Y-31929D01*
X48150Y-31971D01*
X48136Y-32000D01*
X48121Y-32014D01*
X48093Y-32029D01*
X47978Y-32029D01*
X48321Y-32000D02*
X48293Y-31986D01*
X48278Y-31971D01*
X48264Y-31943D01*
X48264Y-31929D01*
X48278Y-31900D01*
X48293Y-31886D01*
X48321Y-31871D01*
X48378Y-31871D01*
X48407Y-31886D01*
X48421Y-31900D01*
X48436Y-31929D01*
X48436Y-31943D01*
X48421Y-31971D01*
X48407Y-31986D01*
X48378Y-32000D01*
X48321Y-32000D01*
X48293Y-32014D01*
X48278Y-32029D01*
X48264Y-32057D01*
X48264Y-32114D01*
X48278Y-32143D01*
X48293Y-32157D01*
X48321Y-32171D01*
X48378Y-32171D01*
X48407Y-32157D01*
X48421Y-32143D01*
X48436Y-32114D01*
X48436Y-32057D01*
X48421Y-32029D01*
X48407Y-32014D01*
X48378Y-32000D01*
X56807Y-45871D02*
X56707Y-45729D01*
X56635Y-45871D02*
X56635Y-45571D01*
X56750Y-45571D01*
X56778Y-45586D01*
X56793Y-45600D01*
X56807Y-45629D01*
X56807Y-45671D01*
X56793Y-45700D01*
X56778Y-45714D01*
X56750Y-45729D01*
X56635Y-45729D01*
X57093Y-45871D02*
X56921Y-45871D01*
X57007Y-45871D02*
X57007Y-45571D01*
X56978Y-45614D01*
X56950Y-45643D01*
X56921Y-45657D01*
X57279Y-45571D02*
X57307Y-45571D01*
X57336Y-45586D01*
X57350Y-45600D01*
X57364Y-45629D01*
X57379Y-45686D01*
X57379Y-45757D01*
X57364Y-45814D01*
X57350Y-45843D01*
X57336Y-45857D01*
X57307Y-45871D01*
X57279Y-45871D01*
X57250Y-45857D01*
X57236Y-45843D01*
X57221Y-45814D01*
X57207Y-45757D01*
X57207Y-45686D01*
X57221Y-45629D01*
X57236Y-45600D01*
X57250Y-45586D01*
X57279Y-45571D01*
X63971Y-45000D02*
X63829Y-45100D01*
X63971Y-45172D02*
X63671Y-45172D01*
X63671Y-45057D01*
X63686Y-45029D01*
X63700Y-45014D01*
X63729Y-45000D01*
X63771Y-45000D01*
X63800Y-45014D01*
X63814Y-45029D01*
X63829Y-45057D01*
X63829Y-45172D01*
X63971Y-44714D02*
X63971Y-44886D01*
X63971Y-44800D02*
X63671Y-44800D01*
X63714Y-44829D01*
X63743Y-44857D01*
X63757Y-44886D01*
X51307Y-33971D02*
X51207Y-33829D01*
X51135Y-33971D02*
X51135Y-33671D01*
X51250Y-33671D01*
X51278Y-33686D01*
X51293Y-33700D01*
X51307Y-33729D01*
X51307Y-33771D01*
X51293Y-33800D01*
X51278Y-33814D01*
X51250Y-33829D01*
X51135Y-33829D01*
X51593Y-33971D02*
X51421Y-33971D01*
X51507Y-33971D02*
X51507Y-33671D01*
X51478Y-33714D01*
X51450Y-33743D01*
X51421Y-33757D01*
X51707Y-33700D02*
X51721Y-33686D01*
X51750Y-33671D01*
X51821Y-33671D01*
X51850Y-33686D01*
X51864Y-33700D01*
X51879Y-33729D01*
X51879Y-33757D01*
X51864Y-33800D01*
X51693Y-33971D01*
X51879Y-33971D01*
X71207Y-35471D02*
X71107Y-35329D01*
X71035Y-35471D02*
X71035Y-35171D01*
X71150Y-35171D01*
X71178Y-35186D01*
X71193Y-35200D01*
X71207Y-35229D01*
X71207Y-35271D01*
X71193Y-35300D01*
X71178Y-35314D01*
X71150Y-35329D01*
X71035Y-35329D01*
X71493Y-35471D02*
X71321Y-35471D01*
X71407Y-35471D02*
X71407Y-35171D01*
X71378Y-35214D01*
X71350Y-35243D01*
X71321Y-35257D01*
X71593Y-35171D02*
X71779Y-35171D01*
X71679Y-35286D01*
X71721Y-35286D01*
X71750Y-35300D01*
X71764Y-35314D01*
X71779Y-35343D01*
X71779Y-35414D01*
X71764Y-35443D01*
X71750Y-35457D01*
X71721Y-35471D01*
X71636Y-35471D01*
X71607Y-35457D01*
X71593Y-35443D01*
X71207Y-36671D02*
X71107Y-36529D01*
X71035Y-36671D02*
X71035Y-36371D01*
X71150Y-36371D01*
X71178Y-36386D01*
X71193Y-36400D01*
X71207Y-36429D01*
X71207Y-36471D01*
X71193Y-36500D01*
X71178Y-36514D01*
X71150Y-36529D01*
X71035Y-36529D01*
X71493Y-36671D02*
X71321Y-36671D01*
X71407Y-36671D02*
X71407Y-36371D01*
X71378Y-36414D01*
X71350Y-36443D01*
X71321Y-36457D01*
X71750Y-36471D02*
X71750Y-36671D01*
X71679Y-36357D02*
X71607Y-36571D01*
X71793Y-36571D01*
X71207Y-33871D02*
X71107Y-33729D01*
X71035Y-33871D02*
X71035Y-33571D01*
X71150Y-33571D01*
X71178Y-33586D01*
X71193Y-33600D01*
X71207Y-33629D01*
X71207Y-33671D01*
X71193Y-33700D01*
X71178Y-33714D01*
X71150Y-33729D01*
X71035Y-33729D01*
X71493Y-33871D02*
X71321Y-33871D01*
X71407Y-33871D02*
X71407Y-33571D01*
X71378Y-33614D01*
X71350Y-33643D01*
X71321Y-33657D01*
X71764Y-33571D02*
X71621Y-33571D01*
X71607Y-33714D01*
X71621Y-33700D01*
X71650Y-33686D01*
X71721Y-33686D01*
X71750Y-33700D01*
X71764Y-33714D01*
X71779Y-33743D01*
X71779Y-33814D01*
X71764Y-33843D01*
X71750Y-33857D01*
X71721Y-33871D01*
X71650Y-33871D01*
X71621Y-33857D01*
X71607Y-33843D01*
X71207Y-32671D02*
X71107Y-32529D01*
X71035Y-32671D02*
X71035Y-32371D01*
X71150Y-32371D01*
X71178Y-32386D01*
X71193Y-32400D01*
X71207Y-32429D01*
X71207Y-32471D01*
X71193Y-32500D01*
X71178Y-32514D01*
X71150Y-32529D01*
X71035Y-32529D01*
X71493Y-32671D02*
X71321Y-32671D01*
X71407Y-32671D02*
X71407Y-32371D01*
X71378Y-32414D01*
X71350Y-32443D01*
X71321Y-32457D01*
X71750Y-32371D02*
X71693Y-32371D01*
X71664Y-32386D01*
X71650Y-32400D01*
X71621Y-32443D01*
X71607Y-32500D01*
X71607Y-32614D01*
X71621Y-32643D01*
X71636Y-32657D01*
X71664Y-32671D01*
X71721Y-32671D01*
X71750Y-32657D01*
X71764Y-32643D01*
X71779Y-32614D01*
X71779Y-32543D01*
X71764Y-32514D01*
X71750Y-32500D01*
X71721Y-32486D01*
X71664Y-32486D01*
X71636Y-32500D01*
X71621Y-32514D01*
X71607Y-32543D01*
X60721Y-32893D02*
X60579Y-32993D01*
X60721Y-33065D02*
X60421Y-33065D01*
X60421Y-32950D01*
X60436Y-32922D01*
X60450Y-32907D01*
X60479Y-32893D01*
X60521Y-32893D01*
X60550Y-32907D01*
X60564Y-32922D01*
X60579Y-32950D01*
X60579Y-33065D01*
X60721Y-32607D02*
X60721Y-32779D01*
X60721Y-32693D02*
X60421Y-32693D01*
X60464Y-32722D01*
X60493Y-32750D01*
X60507Y-32779D01*
X60421Y-32507D02*
X60421Y-32307D01*
X60721Y-32436D01*
X71207Y-40871D02*
X71107Y-40729D01*
X71035Y-40871D02*
X71035Y-40571D01*
X71150Y-40571D01*
X71178Y-40586D01*
X71193Y-40600D01*
X71207Y-40629D01*
X71207Y-40671D01*
X71193Y-40700D01*
X71178Y-40714D01*
X71150Y-40729D01*
X71035Y-40729D01*
X71493Y-40871D02*
X71321Y-40871D01*
X71407Y-40871D02*
X71407Y-40571D01*
X71378Y-40614D01*
X71350Y-40643D01*
X71321Y-40657D01*
X71664Y-40700D02*
X71636Y-40686D01*
X71621Y-40671D01*
X71607Y-40643D01*
X71607Y-40629D01*
X71621Y-40600D01*
X71636Y-40586D01*
X71664Y-40571D01*
X71721Y-40571D01*
X71750Y-40586D01*
X71764Y-40600D01*
X71779Y-40629D01*
X71779Y-40643D01*
X71764Y-40671D01*
X71750Y-40686D01*
X71721Y-40700D01*
X71664Y-40700D01*
X71636Y-40714D01*
X71621Y-40729D01*
X71607Y-40757D01*
X71607Y-40814D01*
X71621Y-40843D01*
X71636Y-40857D01*
X71664Y-40871D01*
X71721Y-40871D01*
X71750Y-40857D01*
X71764Y-40843D01*
X71779Y-40814D01*
X71779Y-40757D01*
X71764Y-40729D01*
X71750Y-40714D01*
X71721Y-40700D01*
X71207Y-38871D02*
X71107Y-38729D01*
X71035Y-38871D02*
X71035Y-38571D01*
X71150Y-38571D01*
X71178Y-38586D01*
X71193Y-38600D01*
X71207Y-38629D01*
X71207Y-38671D01*
X71193Y-38700D01*
X71178Y-38714D01*
X71150Y-38729D01*
X71035Y-38729D01*
X71493Y-38871D02*
X71321Y-38871D01*
X71407Y-38871D02*
X71407Y-38571D01*
X71378Y-38614D01*
X71350Y-38643D01*
X71321Y-38657D01*
X71636Y-38871D02*
X71693Y-38871D01*
X71721Y-38857D01*
X71736Y-38843D01*
X71764Y-38800D01*
X71779Y-38743D01*
X71779Y-38629D01*
X71764Y-38600D01*
X71750Y-38586D01*
X71721Y-38571D01*
X71664Y-38571D01*
X71636Y-38586D01*
X71621Y-38600D01*
X71607Y-38629D01*
X71607Y-38700D01*
X71621Y-38729D01*
X71636Y-38743D01*
X71664Y-38757D01*
X71721Y-38757D01*
X71750Y-38743D01*
X71764Y-38729D01*
X71779Y-38700D01*
X62107Y-32371D02*
X62007Y-32229D01*
X61935Y-32371D02*
X61935Y-32071D01*
X62050Y-32071D01*
X62078Y-32086D01*
X62093Y-32100D01*
X62107Y-32129D01*
X62107Y-32171D01*
X62093Y-32200D01*
X62078Y-32214D01*
X62050Y-32229D01*
X61935Y-32229D01*
X62221Y-32100D02*
X62235Y-32086D01*
X62264Y-32071D01*
X62335Y-32071D01*
X62364Y-32086D01*
X62378Y-32100D01*
X62393Y-32129D01*
X62393Y-32157D01*
X62378Y-32200D01*
X62207Y-32371D01*
X62393Y-32371D01*
X62579Y-32071D02*
X62607Y-32071D01*
X62636Y-32086D01*
X62650Y-32100D01*
X62664Y-32129D01*
X62679Y-32186D01*
X62679Y-32257D01*
X62664Y-32314D01*
X62650Y-32343D01*
X62636Y-32357D01*
X62607Y-32371D01*
X62579Y-32371D01*
X62550Y-32357D01*
X62536Y-32343D01*
X62521Y-32314D01*
X62507Y-32257D01*
X62507Y-32186D01*
X62521Y-32129D01*
X62536Y-32100D01*
X62550Y-32086D01*
X62579Y-32071D01*
X64957Y-33871D02*
X64857Y-33729D01*
X64785Y-33871D02*
X64785Y-33571D01*
X64900Y-33571D01*
X64928Y-33586D01*
X64943Y-33600D01*
X64957Y-33629D01*
X64957Y-33671D01*
X64943Y-33700D01*
X64928Y-33714D01*
X64900Y-33729D01*
X64785Y-33729D01*
X65071Y-33600D02*
X65085Y-33586D01*
X65114Y-33571D01*
X65185Y-33571D01*
X65214Y-33586D01*
X65228Y-33600D01*
X65243Y-33629D01*
X65243Y-33657D01*
X65228Y-33700D01*
X65057Y-33871D01*
X65243Y-33871D01*
X65529Y-33871D02*
X65357Y-33871D01*
X65443Y-33871D02*
X65443Y-33571D01*
X65414Y-33614D01*
X65386Y-33643D01*
X65357Y-33657D01*
X52100Y-38143D02*
X52086Y-38157D01*
X52043Y-38171D01*
X52014Y-38171D01*
X51971Y-38157D01*
X51943Y-38129D01*
X51928Y-38100D01*
X51914Y-38043D01*
X51914Y-38000D01*
X51928Y-37943D01*
X51943Y-37914D01*
X51971Y-37886D01*
X52014Y-37871D01*
X52043Y-37871D01*
X52086Y-37886D01*
X52100Y-37900D01*
X52271Y-38000D02*
X52243Y-37986D01*
X52228Y-37971D01*
X52214Y-37943D01*
X52214Y-37929D01*
X52228Y-37900D01*
X52243Y-37886D01*
X52271Y-37871D01*
X52328Y-37871D01*
X52357Y-37886D01*
X52371Y-37900D01*
X52386Y-37929D01*
X52386Y-37943D01*
X52371Y-37971D01*
X52357Y-37986D01*
X52328Y-38000D01*
X52271Y-38000D01*
X52243Y-38014D01*
X52228Y-38029D01*
X52214Y-38057D01*
X52214Y-38114D01*
X52228Y-38143D01*
X52243Y-38157D01*
X52271Y-38171D01*
X52328Y-38171D01*
X52357Y-38157D01*
X52371Y-38143D01*
X52386Y-38114D01*
X52386Y-38057D01*
X52371Y-38029D01*
X52357Y-38014D01*
X52328Y-38000D01*
X61732Y-40343D02*
X61718Y-40357D01*
X61675Y-40371D01*
X61646Y-40371D01*
X61603Y-40357D01*
X61575Y-40329D01*
X61560Y-40300D01*
X61546Y-40243D01*
X61546Y-40200D01*
X61560Y-40143D01*
X61575Y-40114D01*
X61603Y-40086D01*
X61646Y-40071D01*
X61675Y-40071D01*
X61718Y-40086D01*
X61732Y-40100D01*
X62018Y-40371D02*
X61846Y-40371D01*
X61932Y-40371D02*
X61932Y-40071D01*
X61903Y-40114D01*
X61875Y-40143D01*
X61846Y-40157D01*
X62118Y-40071D02*
X62304Y-40071D01*
X62204Y-40186D01*
X62246Y-40186D01*
X62275Y-40200D01*
X62289Y-40214D01*
X62304Y-40243D01*
X62304Y-40314D01*
X62289Y-40343D01*
X62275Y-40357D01*
X62246Y-40371D01*
X62161Y-40371D01*
X62132Y-40357D01*
X62118Y-40343D01*
X62250Y-46343D02*
X62236Y-46357D01*
X62193Y-46371D01*
X62164Y-46371D01*
X62121Y-46357D01*
X62093Y-46329D01*
X62078Y-46300D01*
X62064Y-46243D01*
X62064Y-46200D01*
X62078Y-46143D01*
X62093Y-46114D01*
X62121Y-46086D01*
X62164Y-46071D01*
X62193Y-46071D01*
X62236Y-46086D01*
X62250Y-46100D01*
X62536Y-46371D02*
X62364Y-46371D01*
X62450Y-46371D02*
X62450Y-46071D01*
X62421Y-46114D01*
X62393Y-46143D01*
X62364Y-46157D01*
X52032Y-35943D02*
X52018Y-35957D01*
X51975Y-35971D01*
X51946Y-35971D01*
X51903Y-35957D01*
X51875Y-35929D01*
X51860Y-35900D01*
X51846Y-35843D01*
X51846Y-35800D01*
X51860Y-35743D01*
X51875Y-35714D01*
X51903Y-35686D01*
X51946Y-35671D01*
X51975Y-35671D01*
X52018Y-35686D01*
X52032Y-35700D01*
X52318Y-35971D02*
X52146Y-35971D01*
X52232Y-35971D02*
X52232Y-35671D01*
X52203Y-35714D01*
X52175Y-35743D01*
X52146Y-35757D01*
X52589Y-35671D02*
X52446Y-35671D01*
X52432Y-35814D01*
X52446Y-35800D01*
X52475Y-35786D01*
X52546Y-35786D01*
X52575Y-35800D01*
X52589Y-35814D01*
X52604Y-35843D01*
X52604Y-35914D01*
X52589Y-35943D01*
X52575Y-35957D01*
X52546Y-35971D01*
X52475Y-35971D01*
X52446Y-35957D01*
X52432Y-35943D01*
X49907Y-36193D02*
X49893Y-36207D01*
X49850Y-36221D01*
X49821Y-36221D01*
X49778Y-36207D01*
X49750Y-36179D01*
X49735Y-36150D01*
X49721Y-36093D01*
X49721Y-36050D01*
X49735Y-35993D01*
X49750Y-35964D01*
X49778Y-35936D01*
X49821Y-35921D01*
X49850Y-35921D01*
X49893Y-35936D01*
X49907Y-35950D01*
X50193Y-36221D02*
X50021Y-36221D01*
X50107Y-36221D02*
X50107Y-35921D01*
X50078Y-35964D01*
X50050Y-35993D01*
X50021Y-36007D01*
X50293Y-35921D02*
X50493Y-35921D01*
X50364Y-36221D01*
X34593Y-33193D02*
X34607Y-33207D01*
X34621Y-33250D01*
X34621Y-33279D01*
X34607Y-33322D01*
X34579Y-33350D01*
X34550Y-33365D01*
X34493Y-33379D01*
X34450Y-33379D01*
X34393Y-33365D01*
X34364Y-33350D01*
X34336Y-33322D01*
X34321Y-33279D01*
X34321Y-33250D01*
X34336Y-33207D01*
X34350Y-33193D01*
X34621Y-32907D02*
X34621Y-33079D01*
X34621Y-32993D02*
X34321Y-32993D01*
X34364Y-33022D01*
X34393Y-33050D01*
X34407Y-33079D01*
X34621Y-32764D02*
X34621Y-32707D01*
X34607Y-32679D01*
X34593Y-32664D01*
X34550Y-32636D01*
X34493Y-32621D01*
X34379Y-32621D01*
X34350Y-32636D01*
X34336Y-32650D01*
X34321Y-32679D01*
X34321Y-32736D01*
X34336Y-32764D01*
X34350Y-32779D01*
X34379Y-32793D01*
X34450Y-32793D01*
X34479Y-32779D01*
X34493Y-32764D01*
X34507Y-32736D01*
X34507Y-32679D01*
X34493Y-32650D01*
X34479Y-32636D01*
X34450Y-32621D01*
X34443Y-39143D02*
X34457Y-39157D01*
X34471Y-39200D01*
X34471Y-39229D01*
X34457Y-39272D01*
X34429Y-39300D01*
X34400Y-39315D01*
X34343Y-39329D01*
X34300Y-39329D01*
X34243Y-39315D01*
X34214Y-39300D01*
X34186Y-39272D01*
X34171Y-39229D01*
X34171Y-39200D01*
X34186Y-39157D01*
X34200Y-39143D01*
X34200Y-39029D02*
X34186Y-39015D01*
X34171Y-38986D01*
X34171Y-38915D01*
X34186Y-38886D01*
X34200Y-38872D01*
X34229Y-38857D01*
X34257Y-38857D01*
X34300Y-38872D01*
X34471Y-39043D01*
X34471Y-38857D01*
X34171Y-38671D02*
X34171Y-38643D01*
X34186Y-38614D01*
X34200Y-38600D01*
X34229Y-38586D01*
X34286Y-38571D01*
X34357Y-38571D01*
X34414Y-38586D01*
X34443Y-38600D01*
X34457Y-38614D01*
X34471Y-38643D01*
X34471Y-38671D01*
X34457Y-38700D01*
X34443Y-38714D01*
X34414Y-38729D01*
X34357Y-38743D01*
X34286Y-38743D01*
X34229Y-38729D01*
X34200Y-38714D01*
X34186Y-38700D01*
X34171Y-38671D01*
X52657Y-32143D02*
X52643Y-32157D01*
X52600Y-32171D01*
X52571Y-32171D01*
X52528Y-32157D01*
X52500Y-32129D01*
X52485Y-32100D01*
X52471Y-32043D01*
X52471Y-32000D01*
X52485Y-31943D01*
X52500Y-31914D01*
X52528Y-31886D01*
X52571Y-31871D01*
X52600Y-31871D01*
X52643Y-31886D01*
X52657Y-31900D01*
X52943Y-32171D02*
X52771Y-32171D01*
X52857Y-32171D02*
X52857Y-31871D01*
X52828Y-31914D01*
X52800Y-31943D01*
X52771Y-31957D01*
X53114Y-32000D02*
X53086Y-31986D01*
X53071Y-31971D01*
X53057Y-31943D01*
X53057Y-31929D01*
X53071Y-31900D01*
X53086Y-31886D01*
X53114Y-31871D01*
X53171Y-31871D01*
X53200Y-31886D01*
X53214Y-31900D01*
X53229Y-31929D01*
X53229Y-31943D01*
X53214Y-31971D01*
X53200Y-31986D01*
X53171Y-32000D01*
X53114Y-32000D01*
X53086Y-32014D01*
X53071Y-32029D01*
X53057Y-32057D01*
X53057Y-32114D01*
X53071Y-32143D01*
X53086Y-32157D01*
X53114Y-32171D01*
X53171Y-32171D01*
X53200Y-32157D01*
X53214Y-32143D01*
X53229Y-32114D01*
X53229Y-32057D01*
X53214Y-32029D01*
X53200Y-32014D01*
X53171Y-32000D01*
X71792Y-43070D02*
X71709Y-43070D01*
X71709Y-43201D02*
X71709Y-42951D01*
X71828Y-42951D01*
X72006Y-43070D02*
X72042Y-43082D01*
X72053Y-43094D01*
X72065Y-43118D01*
X72065Y-43154D01*
X72053Y-43177D01*
X72042Y-43189D01*
X72018Y-43201D01*
X71923Y-43201D01*
X71923Y-42951D01*
X72006Y-42951D01*
X72030Y-42963D01*
X72042Y-42975D01*
X72053Y-42999D01*
X72053Y-43023D01*
X72042Y-43046D01*
X72030Y-43058D01*
X72006Y-43070D01*
X71923Y-43070D01*
X72303Y-43201D02*
X72161Y-43201D01*
X72232Y-43201D02*
X72232Y-42951D01*
X72208Y-42987D01*
X72184Y-43011D01*
X72161Y-43023D01*
X71792Y-43770D02*
X71709Y-43770D01*
X71709Y-43901D02*
X71709Y-43651D01*
X71828Y-43651D01*
X72006Y-43770D02*
X72042Y-43782D01*
X72053Y-43794D01*
X72065Y-43818D01*
X72065Y-43854D01*
X72053Y-43877D01*
X72042Y-43889D01*
X72018Y-43901D01*
X71923Y-43901D01*
X71923Y-43651D01*
X72006Y-43651D01*
X72030Y-43663D01*
X72042Y-43675D01*
X72053Y-43699D01*
X72053Y-43723D01*
X72042Y-43746D01*
X72030Y-43758D01*
X72006Y-43770D01*
X71923Y-43770D01*
X72161Y-43675D02*
X72173Y-43663D01*
X72196Y-43651D01*
X72256Y-43651D01*
X72280Y-43663D01*
X72292Y-43675D01*
X72303Y-43699D01*
X72303Y-43723D01*
X72292Y-43758D01*
X72149Y-43901D01*
X72303Y-43901D01*
X58958Y-45827D02*
X58946Y-45839D01*
X58911Y-45851D01*
X58887Y-45851D01*
X58851Y-45839D01*
X58827Y-45815D01*
X58816Y-45792D01*
X58804Y-45744D01*
X58804Y-45708D01*
X58816Y-45661D01*
X58827Y-45637D01*
X58851Y-45613D01*
X58887Y-45601D01*
X58911Y-45601D01*
X58946Y-45613D01*
X58958Y-45625D01*
X59173Y-45601D02*
X59125Y-45601D01*
X59101Y-45613D01*
X59089Y-45625D01*
X59066Y-45661D01*
X59054Y-45708D01*
X59054Y-45804D01*
X59066Y-45827D01*
X59077Y-45839D01*
X59101Y-45851D01*
X59149Y-45851D01*
X59173Y-45839D01*
X59185Y-45827D01*
X59196Y-45804D01*
X59196Y-45744D01*
X59185Y-45720D01*
X59173Y-45708D01*
X59149Y-45696D01*
X59101Y-45696D01*
X59077Y-45708D01*
X59066Y-45720D01*
X59054Y-45744D01*
X53858Y-44877D02*
X53846Y-44889D01*
X53811Y-44901D01*
X53787Y-44901D01*
X53751Y-44889D01*
X53727Y-44865D01*
X53716Y-44842D01*
X53704Y-44794D01*
X53704Y-44758D01*
X53716Y-44711D01*
X53727Y-44687D01*
X53751Y-44663D01*
X53787Y-44651D01*
X53811Y-44651D01*
X53846Y-44663D01*
X53858Y-44675D01*
X53942Y-44651D02*
X54108Y-44651D01*
X54001Y-44901D01*
G54D10*
X67778Y-33371D02*
X67778Y-33071D01*
X67893Y-33071D01*
X67921Y-33086D01*
X67936Y-33100D01*
X67950Y-33129D01*
X67950Y-33171D01*
X67936Y-33200D01*
X67921Y-33214D01*
X67893Y-33229D01*
X67778Y-33229D01*
X68221Y-33071D02*
X68078Y-33071D01*
X68064Y-33214D01*
X68078Y-33200D01*
X68107Y-33186D01*
X68178Y-33186D01*
X68207Y-33200D01*
X68221Y-33214D01*
X68236Y-33243D01*
X68236Y-33314D01*
X68221Y-33343D01*
X68207Y-33357D01*
X68178Y-33371D01*
X68107Y-33371D01*
X68078Y-33357D01*
X68064Y-33343D01*
X45678Y-38771D02*
X45678Y-38471D01*
X45793Y-38471D01*
X45821Y-38486D01*
X45836Y-38500D01*
X45850Y-38529D01*
X45850Y-38571D01*
X45836Y-38600D01*
X45821Y-38614D01*
X45793Y-38629D01*
X45678Y-38629D01*
X46136Y-38771D02*
X45964Y-38771D01*
X46050Y-38771D02*
X46050Y-38471D01*
X46021Y-38514D01*
X45993Y-38543D01*
X45964Y-38557D01*
G54D13*
X56705Y-33712D02*
X56705Y-33312D01*
X56858Y-33312D01*
X56896Y-33331D01*
X56915Y-33350D01*
X56934Y-33388D01*
X56934Y-33445D01*
X56915Y-33483D01*
X56896Y-33502D01*
X56858Y-33521D01*
X56705Y-33521D01*
X57067Y-33312D02*
X57315Y-33312D01*
X57181Y-33464D01*
X57239Y-33464D01*
X57277Y-33483D01*
X57296Y-33502D01*
X57315Y-33540D01*
X57315Y-33636D01*
X57296Y-33674D01*
X57277Y-33693D01*
X57239Y-33712D01*
X57124Y-33712D01*
X57086Y-33693D01*
X57067Y-33674D01*
X38643Y-33805D02*
X39129Y-33805D01*
X39186Y-33786D01*
X39214Y-33767D01*
X39243Y-33729D01*
X39243Y-33652D01*
X39214Y-33614D01*
X39186Y-33595D01*
X39129Y-33576D01*
X38643Y-33576D01*
X38643Y-33214D02*
X38643Y-33291D01*
X38671Y-33329D01*
X38700Y-33348D01*
X38786Y-33386D01*
X38900Y-33405D01*
X39129Y-33405D01*
X39186Y-33386D01*
X39214Y-33367D01*
X39243Y-33329D01*
X39243Y-33252D01*
X39214Y-33214D01*
X39186Y-33195D01*
X39129Y-33176D01*
X38986Y-33176D01*
X38929Y-33195D01*
X38900Y-33214D01*
X38871Y-33252D01*
X38871Y-33329D01*
X38900Y-33367D01*
X38929Y-33386D01*
X38986Y-33405D01*
X40443Y-34416D02*
X40443Y-34607D01*
X39843Y-34607D01*
X40443Y-34283D02*
X39843Y-34283D01*
X40271Y-34149D01*
X39843Y-34016D01*
X40443Y-34016D01*
X39843Y-33864D02*
X39843Y-33597D01*
X40443Y-33769D01*
X40100Y-33388D02*
X40071Y-33426D01*
X40043Y-33445D01*
X39986Y-33464D01*
X39957Y-33464D01*
X39900Y-33445D01*
X39871Y-33426D01*
X39843Y-33388D01*
X39843Y-33311D01*
X39871Y-33273D01*
X39900Y-33254D01*
X39957Y-33235D01*
X39986Y-33235D01*
X40043Y-33254D01*
X40071Y-33273D01*
X40100Y-33311D01*
X40100Y-33388D01*
X40129Y-33426D01*
X40157Y-33445D01*
X40214Y-33464D01*
X40329Y-33464D01*
X40386Y-33445D01*
X40414Y-33426D01*
X40443Y-33388D01*
X40443Y-33311D01*
X40414Y-33273D01*
X40386Y-33254D01*
X40329Y-33235D01*
X40214Y-33235D01*
X40157Y-33254D01*
X40129Y-33273D01*
X40100Y-33311D01*
X39843Y-32988D02*
X39843Y-32949D01*
X39871Y-32911D01*
X39900Y-32892D01*
X39957Y-32873D01*
X40071Y-32854D01*
X40214Y-32854D01*
X40329Y-32873D01*
X40386Y-32892D01*
X40414Y-32911D01*
X40443Y-32949D01*
X40443Y-32988D01*
X40414Y-33026D01*
X40386Y-33045D01*
X40329Y-33064D01*
X40214Y-33083D01*
X40071Y-33083D01*
X39957Y-33064D01*
X39900Y-33045D01*
X39871Y-33026D01*
X39843Y-32988D01*
X39843Y-32492D02*
X39843Y-32683D01*
X40129Y-32702D01*
X40100Y-32683D01*
X40071Y-32645D01*
X40071Y-32549D01*
X40100Y-32511D01*
X40129Y-32492D01*
X40186Y-32473D01*
X40329Y-32473D01*
X40386Y-32492D01*
X40414Y-32511D01*
X40443Y-32549D01*
X40443Y-32645D01*
X40414Y-32683D01*
X40386Y-32702D01*
X38843Y-39805D02*
X39329Y-39805D01*
X39386Y-39786D01*
X39414Y-39767D01*
X39443Y-39729D01*
X39443Y-39652D01*
X39414Y-39614D01*
X39386Y-39595D01*
X39329Y-39576D01*
X38843Y-39576D01*
X38843Y-39424D02*
X38843Y-39157D01*
X39443Y-39329D01*
X40643Y-41140D02*
X40643Y-41331D01*
X40043Y-41331D01*
X40643Y-41007D02*
X40043Y-41007D01*
X40471Y-40873D01*
X40043Y-40740D01*
X40643Y-40740D01*
X40643Y-40340D02*
X40643Y-40569D01*
X40643Y-40455D02*
X40043Y-40455D01*
X40129Y-40493D01*
X40186Y-40531D01*
X40214Y-40569D01*
X40643Y-39959D02*
X40643Y-40188D01*
X40643Y-40074D02*
X40043Y-40074D01*
X40129Y-40112D01*
X40186Y-40150D01*
X40214Y-40188D01*
X40643Y-39578D02*
X40643Y-39807D01*
X40643Y-39693D02*
X40043Y-39693D01*
X40129Y-39731D01*
X40186Y-39769D01*
X40214Y-39807D01*
X40043Y-39445D02*
X40043Y-39178D01*
X40643Y-39350D01*
X40414Y-39026D02*
X40414Y-38721D01*
X40043Y-38569D02*
X40043Y-38321D01*
X40271Y-38455D01*
X40271Y-38397D01*
X40300Y-38359D01*
X40329Y-38340D01*
X40386Y-38321D01*
X40529Y-38321D01*
X40586Y-38340D01*
X40614Y-38359D01*
X40643Y-38397D01*
X40643Y-38512D01*
X40614Y-38550D01*
X40586Y-38569D01*
X40586Y-38150D02*
X40614Y-38131D01*
X40643Y-38150D01*
X40614Y-38169D01*
X40586Y-38150D01*
X40643Y-38150D01*
X40043Y-37998D02*
X40043Y-37750D01*
X40271Y-37884D01*
X40271Y-37826D01*
X40300Y-37788D01*
X40329Y-37769D01*
X40386Y-37750D01*
X40529Y-37750D01*
X40586Y-37769D01*
X40614Y-37788D01*
X40643Y-37826D01*
X40643Y-37941D01*
X40614Y-37979D01*
X40586Y-37998D01*
G54D11*
X56397Y-45442D02*
X56797Y-46042D01*
X56797Y-45442D02*
X56397Y-46042D01*
X57339Y-46042D02*
X56996Y-46042D01*
X57168Y-46042D02*
X57168Y-45442D01*
X57111Y-45528D01*
X57053Y-45585D01*
X56996Y-45613D01*
X55643Y-42980D02*
X55672Y-42951D01*
X55729Y-42923D01*
X55872Y-42923D01*
X55929Y-42951D01*
X55958Y-42980D01*
X55986Y-43037D01*
X55986Y-43094D01*
X55958Y-43180D01*
X55615Y-43523D01*
X55986Y-43523D01*
X56529Y-42923D02*
X56243Y-42923D01*
X56214Y-43209D01*
X56243Y-43180D01*
X56300Y-43151D01*
X56443Y-43151D01*
X56500Y-43180D01*
X56529Y-43209D01*
X56557Y-43266D01*
X56557Y-43409D01*
X56529Y-43466D01*
X56500Y-43494D01*
X56443Y-43523D01*
X56300Y-43523D01*
X56243Y-43494D01*
X56214Y-43466D01*
X56814Y-43523D02*
X56814Y-42923D01*
X57014Y-43351D01*
X57214Y-42923D01*
X57214Y-43523D01*
X57500Y-43523D02*
X57500Y-42923D01*
X57500Y-43209D02*
X57843Y-43209D01*
X57843Y-43523D02*
X57843Y-42923D01*
X58072Y-43123D02*
X58386Y-43123D01*
X58072Y-43523D01*
X58386Y-43523D01*
G54D17*
X67399Y-43727D02*
X67399Y-43822D01*
X67405Y-43834D01*
X67410Y-43839D01*
X67422Y-43845D01*
X67444Y-43845D01*
X67455Y-43839D01*
X67461Y-43834D01*
X67467Y-43822D01*
X67467Y-43727D01*
X67585Y-43845D02*
X67517Y-43845D01*
X67551Y-43845D02*
X67551Y-43727D01*
X67540Y-43744D01*
X67529Y-43755D01*
X67517Y-43760D01*
X66954Y-44823D02*
X66971Y-44829D01*
X66999Y-44829D01*
X67011Y-44823D01*
X67016Y-44818D01*
X67022Y-44806D01*
X67022Y-44795D01*
X67016Y-44784D01*
X67011Y-44778D01*
X66999Y-44773D01*
X66977Y-44767D01*
X66966Y-44761D01*
X66960Y-44756D01*
X66954Y-44744D01*
X66954Y-44733D01*
X66960Y-44722D01*
X66966Y-44716D01*
X66977Y-44711D01*
X67005Y-44711D01*
X67022Y-44716D01*
X67072Y-44829D02*
X67072Y-44711D01*
X67117Y-44711D01*
X67128Y-44716D01*
X67134Y-44722D01*
X67140Y-44733D01*
X67140Y-44750D01*
X67134Y-44761D01*
X67128Y-44767D01*
X67117Y-44773D01*
X67072Y-44773D01*
X67190Y-44829D02*
X67190Y-44711D01*
X67218Y-44711D01*
X67235Y-44716D01*
X67246Y-44728D01*
X67252Y-44739D01*
X67258Y-44761D01*
X67258Y-44778D01*
X67252Y-44801D01*
X67246Y-44812D01*
X67235Y-44823D01*
X67218Y-44829D01*
X67190Y-44829D01*
X67291Y-44711D02*
X67359Y-44711D01*
X67325Y-44829D02*
X67325Y-44711D01*
X67370Y-44840D02*
X67460Y-44840D01*
X67482Y-44795D02*
X67539Y-44795D01*
X67471Y-44829D02*
X67511Y-44711D01*
X67550Y-44829D01*
X67589Y-44829D02*
X67589Y-44711D01*
X67657Y-44829D01*
X67657Y-44711D01*
X67707Y-44795D02*
X67764Y-44795D01*
X67696Y-44829D02*
X67736Y-44711D01*
X67775Y-44829D01*
X67870Y-44829D02*
X67814Y-44829D01*
X67814Y-44711D01*
X67933Y-44711D02*
X67955Y-44711D01*
X67966Y-44716D01*
X67978Y-44728D01*
X67983Y-44750D01*
X67983Y-44789D01*
X67978Y-44812D01*
X67966Y-44823D01*
X67955Y-44829D01*
X67933Y-44829D01*
X67921Y-44823D01*
X67910Y-44812D01*
X67904Y-44789D01*
X67904Y-44750D01*
X67910Y-44728D01*
X67921Y-44716D01*
X67933Y-44711D01*
X68096Y-44716D02*
X68085Y-44711D01*
X68068Y-44711D01*
X68051Y-44716D01*
X68040Y-44728D01*
X68034Y-44739D01*
X68028Y-44761D01*
X68028Y-44778D01*
X68034Y-44801D01*
X68040Y-44812D01*
X68051Y-44823D01*
X68068Y-44829D01*
X68079Y-44829D01*
X68096Y-44823D01*
X68102Y-44818D01*
X68102Y-44778D01*
X68079Y-44778D01*
X64721Y-44633D02*
X64721Y-44728D01*
X64727Y-44740D01*
X64732Y-44745D01*
X64744Y-44751D01*
X64766Y-44751D01*
X64777Y-44745D01*
X64783Y-44740D01*
X64789Y-44728D01*
X64789Y-44633D01*
X64839Y-44644D02*
X64845Y-44638D01*
X64856Y-44633D01*
X64884Y-44633D01*
X64896Y-44638D01*
X64901Y-44644D01*
X64907Y-44655D01*
X64907Y-44666D01*
X64901Y-44683D01*
X64834Y-44751D01*
X64907Y-44751D01*
X64198Y-43761D02*
X64215Y-43767D01*
X64243Y-43767D01*
X64255Y-43761D01*
X64260Y-43756D01*
X64266Y-43744D01*
X64266Y-43733D01*
X64260Y-43722D01*
X64255Y-43716D01*
X64243Y-43711D01*
X64221Y-43705D01*
X64210Y-43699D01*
X64204Y-43694D01*
X64198Y-43682D01*
X64198Y-43671D01*
X64204Y-43660D01*
X64210Y-43654D01*
X64221Y-43649D01*
X64249Y-43649D01*
X64266Y-43654D01*
X64316Y-43767D02*
X64316Y-43649D01*
X64361Y-43649D01*
X64372Y-43654D01*
X64378Y-43660D01*
X64384Y-43671D01*
X64384Y-43688D01*
X64378Y-43699D01*
X64372Y-43705D01*
X64361Y-43711D01*
X64316Y-43711D01*
X64434Y-43767D02*
X64434Y-43649D01*
X64462Y-43649D01*
X64479Y-43654D01*
X64490Y-43666D01*
X64496Y-43677D01*
X64502Y-43699D01*
X64502Y-43716D01*
X64496Y-43739D01*
X64490Y-43750D01*
X64479Y-43761D01*
X64462Y-43767D01*
X64434Y-43767D01*
X64535Y-43649D02*
X64603Y-43649D01*
X64569Y-43767D02*
X64569Y-43649D01*
X64614Y-43778D02*
X64704Y-43778D01*
X64726Y-43733D02*
X64783Y-43733D01*
X64715Y-43767D02*
X64755Y-43649D01*
X64794Y-43767D01*
X64833Y-43767D02*
X64833Y-43649D01*
X64901Y-43767D01*
X64901Y-43649D01*
X64951Y-43733D02*
X65008Y-43733D01*
X64940Y-43767D02*
X64980Y-43649D01*
X65019Y-43767D01*
X65114Y-43767D02*
X65058Y-43767D01*
X65058Y-43649D01*
X65177Y-43649D02*
X65199Y-43649D01*
X65210Y-43654D01*
X65222Y-43666D01*
X65227Y-43688D01*
X65227Y-43727D01*
X65222Y-43750D01*
X65210Y-43761D01*
X65199Y-43767D01*
X65177Y-43767D01*
X65165Y-43761D01*
X65154Y-43750D01*
X65148Y-43727D01*
X65148Y-43688D01*
X65154Y-43666D01*
X65165Y-43654D01*
X65177Y-43649D01*
X65340Y-43654D02*
X65329Y-43649D01*
X65312Y-43649D01*
X65295Y-43654D01*
X65284Y-43666D01*
X65278Y-43677D01*
X65272Y-43699D01*
X65272Y-43716D01*
X65278Y-43739D01*
X65284Y-43750D01*
X65295Y-43761D01*
X65312Y-43767D01*
X65323Y-43767D01*
X65340Y-43761D01*
X65346Y-43756D01*
X65346Y-43716D01*
X65323Y-43716D01*
G54D18*
X47716Y-34974D02*
X47716Y-35293D01*
X47735Y-35331D01*
X47753Y-35350D01*
X47791Y-35368D01*
X47866Y-35368D01*
X47903Y-35350D01*
X47922Y-35331D01*
X47941Y-35293D01*
X47941Y-34974D01*
X48091Y-34974D02*
X48335Y-34974D01*
X48204Y-35125D01*
X48260Y-35125D01*
X48298Y-35143D01*
X48316Y-35162D01*
X48335Y-35200D01*
X48335Y-35293D01*
X48316Y-35331D01*
X48298Y-35350D01*
X48260Y-35368D01*
X48148Y-35368D01*
X48110Y-35350D01*
X48091Y-35331D01*
X46662Y-34214D02*
X46662Y-33820D01*
X46812Y-33820D01*
X46849Y-33839D01*
X46868Y-33858D01*
X46887Y-33896D01*
X46887Y-33952D01*
X46868Y-33989D01*
X46849Y-34008D01*
X46812Y-34027D01*
X46662Y-34027D01*
X47037Y-34196D02*
X47093Y-34214D01*
X47187Y-34214D01*
X47225Y-34196D01*
X47243Y-34177D01*
X47262Y-34139D01*
X47262Y-34102D01*
X47243Y-34064D01*
X47225Y-34046D01*
X47187Y-34027D01*
X47112Y-34008D01*
X47075Y-33989D01*
X47056Y-33971D01*
X47037Y-33933D01*
X47037Y-33896D01*
X47056Y-33858D01*
X47075Y-33839D01*
X47112Y-33820D01*
X47206Y-33820D01*
X47262Y-33839D01*
X47412Y-33858D02*
X47431Y-33839D01*
X47468Y-33820D01*
X47562Y-33820D01*
X47600Y-33839D01*
X47618Y-33858D01*
X47637Y-33896D01*
X47637Y-33933D01*
X47618Y-33989D01*
X47393Y-34214D01*
X47637Y-34214D01*
X47993Y-33820D02*
X47806Y-33820D01*
X47787Y-34008D01*
X47806Y-33989D01*
X47843Y-33971D01*
X47937Y-33971D01*
X47975Y-33989D01*
X47993Y-34008D01*
X48012Y-34046D01*
X48012Y-34139D01*
X47993Y-34177D01*
X47975Y-34196D01*
X47937Y-34214D01*
X47843Y-34214D01*
X47806Y-34196D01*
X47787Y-34177D01*
X48256Y-33820D02*
X48293Y-33820D01*
X48331Y-33839D01*
X48350Y-33858D01*
X48368Y-33896D01*
X48387Y-33971D01*
X48387Y-34064D01*
X48368Y-34139D01*
X48350Y-34177D01*
X48331Y-34196D01*
X48293Y-34214D01*
X48256Y-34214D01*
X48218Y-34196D01*
X48200Y-34177D01*
X48181Y-34139D01*
X48162Y-34064D01*
X48162Y-33971D01*
X48181Y-33896D01*
X48200Y-33858D01*
X48218Y-33839D01*
X48256Y-33820D01*
X48762Y-34214D02*
X48537Y-34214D01*
X48650Y-34214D02*
X48650Y-33820D01*
X48612Y-33877D01*
X48575Y-33914D01*
X48537Y-33933D01*
X48931Y-34064D02*
X49231Y-34064D01*
X49625Y-34214D02*
X49400Y-34214D01*
X49513Y-34214D02*
X49513Y-33820D01*
X49475Y-33877D01*
X49438Y-33914D01*
X49400Y-33933D01*
G54D11*
X65924Y-39033D02*
X65324Y-39033D01*
X65324Y-38805D01*
X65352Y-38747D01*
X65381Y-38719D01*
X65438Y-38690D01*
X65524Y-38690D01*
X65581Y-38719D01*
X65610Y-38747D01*
X65638Y-38805D01*
X65638Y-39033D01*
X65381Y-38462D02*
X65352Y-38433D01*
X65324Y-38376D01*
X65324Y-38233D01*
X65352Y-38176D01*
X65381Y-38147D01*
X65438Y-38119D01*
X65495Y-38119D01*
X65581Y-38147D01*
X65924Y-38490D01*
X65924Y-38119D01*
X63505Y-38460D02*
X63533Y-38489D01*
X63562Y-38575D01*
X63562Y-38632D01*
X63533Y-38717D01*
X63476Y-38775D01*
X63419Y-38803D01*
X63305Y-38832D01*
X63219Y-38832D01*
X63105Y-38803D01*
X63048Y-38775D01*
X62990Y-38717D01*
X62962Y-38632D01*
X62962Y-38575D01*
X62990Y-38489D01*
X63019Y-38460D01*
X62962Y-38089D02*
X62962Y-37975D01*
X62990Y-37917D01*
X63048Y-37860D01*
X63162Y-37832D01*
X63362Y-37832D01*
X63476Y-37860D01*
X63533Y-37917D01*
X63562Y-37975D01*
X63562Y-38089D01*
X63533Y-38146D01*
X63476Y-38203D01*
X63362Y-38232D01*
X63162Y-38232D01*
X63048Y-38203D01*
X62990Y-38146D01*
X62962Y-38089D01*
X63562Y-37574D02*
X62962Y-37574D01*
X63562Y-37231D01*
X62962Y-37231D01*
X63562Y-36945D02*
X62962Y-36945D01*
X63562Y-36602D01*
X62962Y-36602D01*
X63619Y-36459D02*
X63619Y-36002D01*
X63562Y-35859D02*
X62962Y-35859D01*
X62962Y-35631D01*
X62990Y-35573D01*
X63019Y-35545D01*
X63076Y-35516D01*
X63162Y-35516D01*
X63219Y-35545D01*
X63248Y-35573D01*
X63276Y-35631D01*
X63276Y-35859D01*
X62962Y-35145D02*
X62962Y-35031D01*
X62990Y-34973D01*
X63048Y-34916D01*
X63162Y-34888D01*
X63362Y-34888D01*
X63476Y-34916D01*
X63533Y-34973D01*
X63562Y-35031D01*
X63562Y-35145D01*
X63533Y-35202D01*
X63476Y-35259D01*
X63362Y-35288D01*
X63162Y-35288D01*
X63048Y-35259D01*
X62990Y-35202D01*
X62962Y-35145D01*
X63562Y-34287D02*
X63276Y-34487D01*
X63562Y-34630D02*
X62962Y-34630D01*
X62962Y-34402D01*
X62990Y-34344D01*
X63019Y-34316D01*
X63076Y-34287D01*
X63162Y-34287D01*
X63219Y-34316D01*
X63248Y-34344D01*
X63276Y-34402D01*
X63276Y-34630D01*
X62962Y-34116D02*
X62962Y-33773D01*
X63562Y-33944D02*
X62962Y-33944D01*
X63562Y-33573D02*
X62962Y-33573D01*
X62962Y-33430D01*
X62990Y-33345D01*
X63048Y-33287D01*
X63105Y-33259D01*
X63219Y-33230D01*
X63305Y-33230D01*
X63419Y-33259D01*
X63476Y-33287D01*
X63533Y-33345D01*
X63562Y-33430D01*
X63562Y-33573D01*
X69074Y-39033D02*
X68474Y-39033D01*
X68474Y-38805D01*
X68502Y-38747D01*
X68531Y-38719D01*
X68588Y-38690D01*
X68674Y-38690D01*
X68731Y-38719D01*
X68760Y-38747D01*
X68788Y-38805D01*
X68788Y-39033D01*
X68674Y-38176D02*
X69074Y-38176D01*
X68445Y-38319D02*
X68874Y-38462D01*
X68874Y-38090D01*
X66655Y-37888D02*
X66683Y-37917D01*
X66712Y-38003D01*
X66712Y-38060D01*
X66683Y-38145D01*
X66626Y-38203D01*
X66569Y-38231D01*
X66455Y-38260D01*
X66369Y-38260D01*
X66255Y-38231D01*
X66198Y-38203D01*
X66140Y-38145D01*
X66112Y-38060D01*
X66112Y-38003D01*
X66140Y-37917D01*
X66169Y-37888D01*
X66112Y-37517D02*
X66112Y-37403D01*
X66140Y-37345D01*
X66198Y-37288D01*
X66312Y-37260D01*
X66512Y-37260D01*
X66626Y-37288D01*
X66683Y-37345D01*
X66712Y-37403D01*
X66712Y-37517D01*
X66683Y-37574D01*
X66626Y-37631D01*
X66512Y-37660D01*
X66312Y-37660D01*
X66198Y-37631D01*
X66140Y-37574D01*
X66112Y-37517D01*
X66712Y-37002D02*
X66112Y-37002D01*
X66712Y-36659D01*
X66112Y-36659D01*
X66712Y-36373D02*
X66112Y-36373D01*
X66712Y-36030D01*
X66112Y-36030D01*
X66769Y-35887D02*
X66769Y-35430D01*
X66712Y-35287D02*
X66112Y-35287D01*
X66712Y-34944D01*
X66112Y-34944D01*
X66398Y-34458D02*
X66398Y-34658D01*
X66712Y-34658D02*
X66112Y-34658D01*
X66112Y-34372D01*
X66655Y-33801D02*
X66683Y-33830D01*
X66712Y-33916D01*
X66712Y-33973D01*
X66683Y-34058D01*
X66626Y-34116D01*
X66569Y-34144D01*
X66455Y-34173D01*
X66369Y-34173D01*
X66255Y-34144D01*
X66198Y-34116D01*
X66140Y-34058D01*
X66112Y-33973D01*
X66112Y-33916D01*
X66140Y-33830D01*
X66169Y-33801D01*
G54D19*
X74375Y-39737D02*
X74414Y-39750D01*
X74480Y-39750D01*
X74506Y-39737D01*
X74519Y-39723D01*
X74532Y-39697D01*
X74532Y-39671D01*
X74519Y-39645D01*
X74506Y-39631D01*
X74480Y-39618D01*
X74427Y-39605D01*
X74401Y-39592D01*
X74388Y-39579D01*
X74375Y-39553D01*
X74375Y-39526D01*
X74388Y-39500D01*
X74401Y-39487D01*
X74427Y-39474D01*
X74493Y-39474D01*
X74532Y-39487D01*
X74624Y-39474D02*
X74690Y-39750D01*
X74743Y-39553D01*
X74795Y-39750D01*
X74861Y-39474D01*
X75110Y-39750D02*
X74953Y-39750D01*
X75031Y-39750D02*
X75031Y-39474D01*
X75005Y-39513D01*
X74979Y-39539D01*
X74953Y-39553D01*
G54D20*
X73560Y-41179D02*
X73594Y-41191D01*
X73650Y-41191D01*
X73672Y-41179D01*
X73684Y-41168D01*
X73695Y-41146D01*
X73695Y-41123D01*
X73684Y-41101D01*
X73672Y-41089D01*
X73650Y-41078D01*
X73605Y-41067D01*
X73582Y-41056D01*
X73571Y-41044D01*
X73560Y-41022D01*
X73560Y-40999D01*
X73571Y-40977D01*
X73582Y-40966D01*
X73605Y-40955D01*
X73661Y-40955D01*
X73695Y-40966D01*
X73774Y-40955D02*
X73830Y-41191D01*
X73875Y-41022D01*
X73920Y-41191D01*
X73976Y-40955D01*
X74010Y-41213D02*
X74190Y-41213D01*
X74381Y-41191D02*
X74302Y-41078D01*
X74246Y-41191D02*
X74246Y-40955D01*
X74336Y-40955D01*
X74359Y-40966D01*
X74370Y-40977D01*
X74381Y-40999D01*
X74381Y-41033D01*
X74370Y-41056D01*
X74359Y-41067D01*
X74336Y-41078D01*
X74246Y-41078D01*
X74482Y-41067D02*
X74561Y-41067D01*
X74595Y-41191D02*
X74482Y-41191D01*
X74482Y-40955D01*
X74595Y-40955D01*
X74685Y-41179D02*
X74719Y-41191D01*
X74775Y-41191D01*
X74797Y-41179D01*
X74809Y-41168D01*
X74820Y-41146D01*
X74820Y-41123D01*
X74809Y-41101D01*
X74797Y-41089D01*
X74775Y-41078D01*
X74730Y-41067D01*
X74707Y-41056D01*
X74696Y-41044D01*
X74685Y-41022D01*
X74685Y-40999D01*
X74696Y-40977D01*
X74707Y-40966D01*
X74730Y-40955D01*
X74786Y-40955D01*
X74820Y-40966D01*
X74921Y-41067D02*
X75000Y-41067D01*
X75034Y-41191D02*
X74921Y-41191D01*
X74921Y-40955D01*
X75034Y-40955D01*
X75101Y-40955D02*
X75236Y-40955D01*
X75169Y-41191D02*
X75169Y-40955D01*
X74410Y-34868D02*
X74410Y-34632D01*
X74466Y-34632D01*
X74500Y-34643D01*
X74523Y-34665D01*
X74534Y-34688D01*
X74545Y-34733D01*
X74545Y-34766D01*
X74534Y-34811D01*
X74523Y-34834D01*
X74500Y-34856D01*
X74466Y-34868D01*
X74410Y-34868D01*
X74635Y-34654D02*
X74646Y-34643D01*
X74669Y-34632D01*
X74725Y-34632D01*
X74747Y-34643D01*
X74759Y-34654D01*
X74770Y-34676D01*
X74770Y-34699D01*
X74759Y-34733D01*
X74624Y-34868D01*
X74770Y-34868D01*
X72982Y-36903D02*
X73016Y-36915D01*
X73072Y-36915D01*
X73094Y-36903D01*
X73106Y-36892D01*
X73117Y-36870D01*
X73117Y-36847D01*
X73106Y-36825D01*
X73094Y-36813D01*
X73072Y-36802D01*
X73027Y-36791D01*
X73004Y-36780D01*
X72993Y-36768D01*
X72982Y-36746D01*
X72982Y-36723D01*
X72993Y-36701D01*
X73004Y-36690D01*
X73027Y-36679D01*
X73083Y-36679D01*
X73117Y-36690D01*
X73184Y-36679D02*
X73319Y-36679D01*
X73252Y-36915D02*
X73252Y-36679D01*
X73387Y-36847D02*
X73499Y-36847D01*
X73364Y-36915D02*
X73443Y-36679D01*
X73522Y-36915D01*
X73566Y-36679D02*
X73701Y-36679D01*
X73634Y-36915D02*
X73634Y-36679D01*
X73780Y-36679D02*
X73780Y-36870D01*
X73791Y-36892D01*
X73803Y-36903D01*
X73825Y-36915D01*
X73870Y-36915D01*
X73893Y-36903D01*
X73904Y-36892D01*
X73915Y-36870D01*
X73915Y-36679D01*
X74016Y-36903D02*
X74050Y-36915D01*
X74106Y-36915D01*
X74128Y-36903D01*
X74140Y-36892D01*
X74151Y-36870D01*
X74151Y-36847D01*
X74140Y-36825D01*
X74128Y-36813D01*
X74106Y-36802D01*
X74061Y-36791D01*
X74038Y-36780D01*
X74027Y-36768D01*
X74016Y-36746D01*
X74016Y-36723D01*
X74027Y-36701D01*
X74038Y-36690D01*
X74061Y-36679D01*
X74117Y-36679D01*
X74151Y-36690D01*
X74196Y-36937D02*
X74376Y-36937D01*
X74567Y-36915D02*
X74488Y-36802D01*
X74432Y-36915D02*
X74432Y-36679D01*
X74522Y-36679D01*
X74545Y-36690D01*
X74556Y-36701D01*
X74567Y-36723D01*
X74567Y-36757D01*
X74556Y-36780D01*
X74545Y-36791D01*
X74522Y-36802D01*
X74432Y-36802D01*
X74668Y-36791D02*
X74747Y-36791D01*
X74781Y-36915D02*
X74668Y-36915D01*
X74668Y-36679D01*
X74781Y-36679D01*
X74882Y-36915D02*
X74882Y-36679D01*
X74938Y-36679D01*
X74972Y-36690D01*
X74995Y-36712D01*
X75006Y-36735D01*
X75017Y-36780D01*
X75017Y-36813D01*
X75006Y-36858D01*
X74995Y-36881D01*
X74972Y-36903D01*
X74938Y-36915D01*
X74882Y-36915D01*
X75062Y-36937D02*
X75242Y-36937D01*
X75422Y-36690D02*
X75399Y-36679D01*
X75366Y-36679D01*
X75332Y-36690D01*
X75309Y-36712D01*
X75298Y-36735D01*
X75287Y-36780D01*
X75287Y-36813D01*
X75298Y-36858D01*
X75309Y-36881D01*
X75332Y-36903D01*
X75366Y-36915D01*
X75388Y-36915D01*
X75422Y-36903D01*
X75433Y-36892D01*
X75433Y-36813D01*
X75388Y-36813D01*
X75669Y-36915D02*
X75590Y-36802D01*
X75534Y-36915D02*
X75534Y-36679D01*
X75624Y-36679D01*
X75647Y-36690D01*
X75658Y-36701D01*
X75669Y-36723D01*
X75669Y-36757D01*
X75658Y-36780D01*
X75647Y-36791D01*
X75624Y-36802D01*
X75534Y-36802D01*
X75770Y-36791D02*
X75849Y-36791D01*
X75883Y-36915D02*
X75770Y-36915D01*
X75770Y-36679D01*
X75883Y-36679D01*
X75984Y-36791D02*
X76063Y-36791D01*
X76097Y-36915D02*
X75984Y-36915D01*
X75984Y-36679D01*
X76097Y-36679D01*
X76198Y-36915D02*
X76198Y-36679D01*
X76333Y-36915D01*
X76333Y-36679D01*
X74410Y-31868D02*
X74410Y-31632D01*
X74466Y-31632D01*
X74500Y-31643D01*
X74523Y-31665D01*
X74534Y-31688D01*
X74545Y-31733D01*
X74545Y-31766D01*
X74534Y-31811D01*
X74523Y-31834D01*
X74500Y-31856D01*
X74466Y-31868D01*
X74410Y-31868D01*
X74624Y-31632D02*
X74770Y-31632D01*
X74691Y-31721D01*
X74725Y-31721D01*
X74747Y-31733D01*
X74759Y-31744D01*
X74770Y-31766D01*
X74770Y-31823D01*
X74759Y-31845D01*
X74747Y-31856D01*
X74725Y-31868D01*
X74657Y-31868D01*
X74635Y-31856D01*
X74624Y-31845D01*
X72808Y-33915D02*
X72808Y-33679D01*
X72943Y-33915D01*
X72943Y-33679D01*
X73055Y-33791D02*
X73134Y-33791D01*
X73168Y-33915D02*
X73055Y-33915D01*
X73055Y-33679D01*
X73168Y-33679D01*
X73235Y-33679D02*
X73370Y-33679D01*
X73303Y-33915D02*
X73303Y-33679D01*
X73427Y-33679D02*
X73483Y-33915D01*
X73528Y-33746D01*
X73573Y-33915D01*
X73629Y-33679D01*
X73764Y-33679D02*
X73809Y-33679D01*
X73832Y-33690D01*
X73854Y-33712D01*
X73865Y-33757D01*
X73865Y-33836D01*
X73854Y-33881D01*
X73832Y-33903D01*
X73809Y-33915D01*
X73764Y-33915D01*
X73742Y-33903D01*
X73719Y-33881D01*
X73708Y-33836D01*
X73708Y-33757D01*
X73719Y-33712D01*
X73742Y-33690D01*
X73764Y-33679D01*
X74101Y-33915D02*
X74022Y-33802D01*
X73966Y-33915D02*
X73966Y-33679D01*
X74056Y-33679D01*
X74079Y-33690D01*
X74090Y-33701D01*
X74101Y-33723D01*
X74101Y-33757D01*
X74090Y-33780D01*
X74079Y-33791D01*
X74056Y-33802D01*
X73966Y-33802D01*
X74202Y-33915D02*
X74202Y-33679D01*
X74337Y-33915D02*
X74236Y-33780D01*
X74337Y-33679D02*
X74202Y-33813D01*
X74382Y-33937D02*
X74562Y-33937D01*
X74753Y-33915D02*
X74674Y-33802D01*
X74618Y-33915D02*
X74618Y-33679D01*
X74708Y-33679D01*
X74731Y-33690D01*
X74742Y-33701D01*
X74753Y-33723D01*
X74753Y-33757D01*
X74742Y-33780D01*
X74731Y-33791D01*
X74708Y-33802D01*
X74618Y-33802D01*
X74854Y-33791D02*
X74933Y-33791D01*
X74967Y-33915D02*
X74854Y-33915D01*
X74854Y-33679D01*
X74967Y-33679D01*
X75068Y-33915D02*
X75068Y-33679D01*
X75124Y-33679D01*
X75158Y-33690D01*
X75181Y-33712D01*
X75192Y-33735D01*
X75203Y-33780D01*
X75203Y-33813D01*
X75192Y-33858D01*
X75181Y-33881D01*
X75158Y-33903D01*
X75124Y-33915D01*
X75068Y-33915D01*
X75248Y-33937D02*
X75428Y-33937D01*
X75608Y-33690D02*
X75585Y-33679D01*
X75552Y-33679D01*
X75518Y-33690D01*
X75495Y-33712D01*
X75484Y-33735D01*
X75473Y-33780D01*
X75473Y-33813D01*
X75484Y-33858D01*
X75495Y-33881D01*
X75518Y-33903D01*
X75552Y-33915D01*
X75574Y-33915D01*
X75608Y-33903D01*
X75619Y-33892D01*
X75619Y-33813D01*
X75574Y-33813D01*
X75855Y-33915D02*
X75776Y-33802D01*
X75720Y-33915D02*
X75720Y-33679D01*
X75810Y-33679D01*
X75833Y-33690D01*
X75844Y-33701D01*
X75855Y-33723D01*
X75855Y-33757D01*
X75844Y-33780D01*
X75833Y-33791D01*
X75810Y-33802D01*
X75720Y-33802D01*
X75956Y-33791D02*
X76035Y-33791D01*
X76069Y-33915D02*
X75956Y-33915D01*
X75956Y-33679D01*
X76069Y-33679D01*
X76170Y-33791D02*
X76249Y-33791D01*
X76283Y-33915D02*
X76170Y-33915D01*
X76170Y-33679D01*
X76283Y-33679D01*
X76384Y-33915D02*
X76384Y-33679D01*
X76519Y-33915D01*
X76519Y-33679D01*
G54D11*
X44834Y-35499D02*
X44834Y-34899D01*
X44977Y-34899D01*
X45062Y-34927D01*
X45120Y-34985D01*
X45148Y-35042D01*
X45177Y-35156D01*
X45177Y-35242D01*
X45148Y-35356D01*
X45120Y-35413D01*
X45062Y-35470D01*
X44977Y-35499D01*
X44834Y-35499D01*
X45748Y-35499D02*
X45405Y-35499D01*
X45577Y-35499D02*
X45577Y-34899D01*
X45520Y-34985D01*
X45462Y-35042D01*
X45405Y-35070D01*
X43971Y-36680D02*
X43971Y-36080D01*
X44114Y-36080D01*
X44199Y-36108D01*
X44257Y-36166D01*
X44285Y-36223D01*
X44314Y-36337D01*
X44314Y-36423D01*
X44285Y-36537D01*
X44257Y-36594D01*
X44199Y-36651D01*
X44114Y-36680D01*
X43971Y-36680D01*
X44571Y-36680D02*
X44571Y-36080D01*
X44971Y-36080D02*
X45085Y-36080D01*
X45143Y-36108D01*
X45200Y-36166D01*
X45228Y-36280D01*
X45228Y-36480D01*
X45200Y-36594D01*
X45143Y-36651D01*
X45085Y-36680D01*
X44971Y-36680D01*
X44914Y-36651D01*
X44857Y-36594D01*
X44828Y-36480D01*
X44828Y-36280D01*
X44857Y-36166D01*
X44914Y-36108D01*
X44971Y-36080D01*
X45486Y-36680D02*
X45486Y-36080D01*
X45629Y-36080D01*
X45714Y-36108D01*
X45772Y-36166D01*
X45800Y-36223D01*
X45829Y-36337D01*
X45829Y-36423D01*
X45800Y-36537D01*
X45772Y-36594D01*
X45714Y-36651D01*
X45629Y-36680D01*
X45486Y-36680D01*
X46086Y-36366D02*
X46286Y-36366D01*
X46372Y-36680D02*
X46086Y-36680D01*
X46086Y-36080D01*
X46372Y-36080D01*
X85743Y-44777D02*
X85457Y-44977D01*
X85743Y-45120D02*
X85143Y-45120D01*
X85143Y-44892D01*
X85171Y-44834D01*
X85200Y-44806D01*
X85257Y-44777D01*
X85343Y-44777D01*
X85400Y-44806D01*
X85429Y-44834D01*
X85457Y-44892D01*
X85457Y-45120D01*
X85143Y-44349D02*
X85571Y-44349D01*
X85657Y-44377D01*
X85714Y-44434D01*
X85743Y-44520D01*
X85743Y-44577D01*
X85343Y-43806D02*
X85743Y-43806D01*
X85114Y-43949D02*
X85543Y-44092D01*
X85543Y-43720D01*
X85143Y-43206D02*
X85143Y-43492D01*
X85429Y-43521D01*
X85400Y-43492D01*
X85371Y-43435D01*
X85371Y-43292D01*
X85400Y-43235D01*
X85429Y-43206D01*
X85486Y-43178D01*
X85629Y-43178D01*
X85686Y-43206D01*
X85714Y-43235D01*
X85743Y-43292D01*
X85743Y-43435D01*
X85714Y-43492D01*
X85686Y-43521D01*
X85800Y-43064D02*
X85800Y-42607D01*
X85400Y-42378D02*
X85371Y-42436D01*
X85343Y-42464D01*
X85286Y-42493D01*
X85257Y-42493D01*
X85200Y-42464D01*
X85171Y-42436D01*
X85143Y-42378D01*
X85143Y-42264D01*
X85171Y-42207D01*
X85200Y-42178D01*
X85257Y-42150D01*
X85286Y-42150D01*
X85343Y-42178D01*
X85371Y-42207D01*
X85400Y-42264D01*
X85400Y-42378D01*
X85429Y-42436D01*
X85457Y-42464D01*
X85514Y-42493D01*
X85629Y-42493D01*
X85686Y-42464D01*
X85714Y-42436D01*
X85743Y-42378D01*
X85743Y-42264D01*
X85714Y-42207D01*
X85686Y-42178D01*
X85629Y-42150D01*
X85514Y-42150D01*
X85457Y-42178D01*
X85429Y-42207D01*
X85400Y-42264D01*
G54D13*
X83325Y-44453D02*
X83719Y-44322D01*
X83325Y-44191D01*
X83607Y-44078D02*
X83607Y-43890D01*
X83719Y-44115D02*
X83325Y-43984D01*
X83719Y-43853D01*
X83719Y-43534D02*
X83719Y-43721D01*
X83325Y-43721D01*
X83325Y-43346D02*
X83419Y-43346D01*
X83382Y-43440D02*
X83419Y-43346D01*
X83382Y-43252D01*
X83494Y-43402D02*
X83419Y-43346D01*
X83494Y-43290D01*
X83325Y-43046D02*
X83419Y-43046D01*
X83382Y-43140D02*
X83419Y-43046D01*
X83382Y-42952D01*
X83494Y-43102D02*
X83419Y-43046D01*
X83494Y-42990D01*
M02*
