G04 (created by PCBNEW-RS274X (2012-01-19 BZR 3256)-stable) date 10/27/2012 3:32:48 PM*
G01*
G70*
G90*
%MOIN*%
G04 Gerber Fmt 3.4, Leading zero omitted, Abs format*
%FSLAX34Y34*%
G04 APERTURE LIST*
%ADD10C,0.006000*%
%ADD11R,0.070000X0.070000*%
%ADD12C,0.070000*%
%ADD13R,0.350000X0.350000*%
%ADD14R,0.060000X0.060000*%
%ADD15C,0.060000*%
%ADD16C,0.055000*%
%ADD17R,0.100000X0.100000*%
%ADD18C,0.100000*%
%ADD19C,0.054000*%
%ADD20C,0.049000*%
%ADD21C,0.036000*%
%ADD22C,0.035000*%
%ADD23C,0.007000*%
%ADD24C,0.034000*%
%ADD25C,0.010000*%
G04 APERTURE END LIST*
G54D10*
G54D11*
X36200Y-45700D03*
G54D12*
X36200Y-43700D03*
X36200Y-44700D03*
G54D13*
X42700Y-44700D03*
G54D14*
X68500Y-32500D03*
G54D15*
X67500Y-32500D03*
G54D14*
X59500Y-32700D03*
G54D15*
X58500Y-32700D03*
X57500Y-32700D03*
X56500Y-32700D03*
X55500Y-32700D03*
X54500Y-32700D03*
G54D13*
X42500Y-33500D03*
G54D12*
X36000Y-32500D03*
G54D11*
X36000Y-33500D03*
G54D12*
X36000Y-34500D03*
G54D13*
X42700Y-39500D03*
G54D12*
X36200Y-38500D03*
G54D11*
X36200Y-39500D03*
G54D12*
X36200Y-40500D03*
G54D16*
X47409Y-36000D03*
X48591Y-36000D03*
X47409Y-33000D03*
X48591Y-33000D03*
G54D15*
X64500Y-38787D03*
X64500Y-38000D03*
X64500Y-39575D03*
X64500Y-37213D03*
X64500Y-36425D03*
X64500Y-40362D03*
X64500Y-35638D03*
X64500Y-41150D03*
X67650Y-38787D03*
X67650Y-38000D03*
X67650Y-39575D03*
X67650Y-37213D03*
X67650Y-36425D03*
X67650Y-40362D03*
X67650Y-35638D03*
X67650Y-41150D03*
X49287Y-46500D03*
X48500Y-46500D03*
X50075Y-46500D03*
X47713Y-46500D03*
X46925Y-46500D03*
X50862Y-46500D03*
X46138Y-46500D03*
X51650Y-46500D03*
G54D17*
X31600Y-43550D03*
G54D18*
X31600Y-45550D03*
G54D17*
X31650Y-32400D03*
G54D18*
X31650Y-34400D03*
G54D17*
X31550Y-37900D03*
G54D18*
X31550Y-39900D03*
G54D19*
X78400Y-40500D03*
X78400Y-41500D03*
X78400Y-45180D03*
X78400Y-46180D03*
G54D20*
X79370Y-41340D03*
X79370Y-42140D03*
X79370Y-42940D03*
X79370Y-43740D03*
X79370Y-44540D03*
X79370Y-45340D03*
G54D21*
X52800Y-35100D03*
X68550Y-36250D03*
X47800Y-43400D03*
X61000Y-37100D03*
X69750Y-37300D03*
X66600Y-32600D03*
X66750Y-33850D03*
X66250Y-31050D03*
X71400Y-38000D03*
X60550Y-34350D03*
X58600Y-33700D03*
X57400Y-39700D03*
X55600Y-40100D03*
X55200Y-37500D03*
X55200Y-35700D03*
X45000Y-40500D03*
X53450Y-42200D03*
X34300Y-42200D03*
X57020Y-33840D03*
X60850Y-45400D03*
X48000Y-45500D03*
X59000Y-39520D03*
X64750Y-42350D03*
X76200Y-36200D03*
X54740Y-38660D03*
X76300Y-35600D03*
X64100Y-32200D03*
X74040Y-37460D03*
X60800Y-38750D03*
X59020Y-39020D03*
X68680Y-41160D03*
X52200Y-38040D03*
X57100Y-40700D03*
X51400Y-36650D03*
X52920Y-37320D03*
X55880Y-40660D03*
X62800Y-41300D03*
X76300Y-33200D03*
X63900Y-46450D03*
X51200Y-39200D03*
X48300Y-43900D03*
X59800Y-41100D03*
X52400Y-36600D03*
X76300Y-32600D03*
X46800Y-31500D03*
X53600Y-35100D03*
X61900Y-40200D03*
X58120Y-40660D03*
G54D22*
X66240Y-44400D03*
G54D21*
X75100Y-40900D03*
X58700Y-42400D03*
X50450Y-44000D03*
X56750Y-34700D03*
X59500Y-33500D03*
X52700Y-33200D03*
X57350Y-34200D03*
X69800Y-35300D03*
X54400Y-40300D03*
X66300Y-35300D03*
X56200Y-40000D03*
X54800Y-40500D03*
X70000Y-36500D03*
X62500Y-37750D03*
X57500Y-41800D03*
X69200Y-36400D03*
X38800Y-32900D03*
X33050Y-41100D03*
X48900Y-31200D03*
G54D22*
X54300Y-38200D03*
X54600Y-37900D03*
G54D21*
X72300Y-46800D03*
X57800Y-34000D03*
X63650Y-33800D03*
X59100Y-36250D03*
X61450Y-41600D03*
X65500Y-37500D03*
X65150Y-34400D03*
X65500Y-38700D03*
X59050Y-36950D03*
X58300Y-36950D03*
G54D22*
X56400Y-38900D03*
G54D21*
X65950Y-38300D03*
X60450Y-36750D03*
X55750Y-37500D03*
X65450Y-40650D03*
X66200Y-45300D03*
X60800Y-44900D03*
X66200Y-43500D03*
X52500Y-43700D03*
X51900Y-42400D03*
X46500Y-43000D03*
X63250Y-39500D03*
X63000Y-38750D03*
X61100Y-42100D03*
X66700Y-42200D03*
X66701Y-42642D03*
X60648Y-42120D03*
X63200Y-40500D03*
X52300Y-38800D03*
X52900Y-33800D03*
X47500Y-45000D03*
X66600Y-43300D03*
X51350Y-42000D03*
X62250Y-32900D03*
X72300Y-44400D03*
X74350Y-43900D03*
X69450Y-32850D03*
X71000Y-39900D03*
X56550Y-40575D03*
G54D22*
X65800Y-45500D03*
G54D21*
X47700Y-42600D03*
X55200Y-34150D03*
X58475Y-40400D03*
X51200Y-37300D03*
X49600Y-35200D03*
X69450Y-32200D03*
X56150Y-35650D03*
X62000Y-42400D03*
X38900Y-41900D03*
X58300Y-38500D03*
X53400Y-33750D03*
X56400Y-33800D03*
X55050Y-43250D03*
X60400Y-42900D03*
G54D23*
X47960Y-43240D02*
X47800Y-43400D01*
X60400Y-37900D02*
X60400Y-37700D01*
X53000Y-35900D02*
X53000Y-35300D01*
X48460Y-43240D02*
X47960Y-43240D01*
X60400Y-37700D02*
X61000Y-37100D01*
X53000Y-35300D02*
X52800Y-35100D01*
X53200Y-35100D02*
X53600Y-35100D01*
X57400Y-33840D02*
X57020Y-33840D01*
X57500Y-33740D02*
X57400Y-33840D01*
G54D24*
X38200Y-42600D02*
X40200Y-42600D01*
X47200Y-43900D02*
X48300Y-43900D01*
X47000Y-42900D02*
X47000Y-43700D01*
X46600Y-42500D02*
X47000Y-42900D01*
X40300Y-42500D02*
X46600Y-42500D01*
X40200Y-42600D02*
X40300Y-42500D01*
X37800Y-42200D02*
X38200Y-42600D01*
X47000Y-43700D02*
X47200Y-43900D01*
X34300Y-42200D02*
X37800Y-42200D01*
G54D23*
X57500Y-32700D02*
X57500Y-33740D01*
X60800Y-38750D02*
X61000Y-38750D01*
X79370Y-42140D02*
X78360Y-42140D01*
X78360Y-42140D02*
X78200Y-42300D01*
X69100Y-32500D02*
X69450Y-32850D01*
X68500Y-32500D02*
X69100Y-32500D01*
G54D10*
G36*
X86550Y-31650D02*
X86500Y-46700D01*
X85548Y-46700D01*
X85579Y-46626D01*
X85579Y-46404D01*
X85579Y-40276D01*
X85579Y-40054D01*
X85494Y-39849D01*
X85337Y-39691D01*
X85131Y-39606D01*
X84909Y-39606D01*
X84704Y-39691D01*
X84546Y-39848D01*
X84461Y-40054D01*
X84461Y-40272D01*
X84275Y-40086D01*
X83948Y-39950D01*
X83594Y-39950D01*
X83267Y-40085D01*
X83016Y-40335D01*
X82880Y-40662D01*
X82880Y-41016D01*
X83015Y-41343D01*
X83265Y-41594D01*
X83592Y-41730D01*
X83946Y-41730D01*
X84273Y-41595D01*
X84524Y-41345D01*
X84660Y-41018D01*
X84660Y-40664D01*
X84611Y-40547D01*
X84703Y-40639D01*
X84909Y-40724D01*
X85131Y-40724D01*
X85336Y-40639D01*
X85494Y-40482D01*
X85579Y-40276D01*
X85579Y-46404D01*
X85494Y-46199D01*
X85337Y-46041D01*
X85131Y-45956D01*
X84909Y-45956D01*
X84704Y-46041D01*
X84612Y-46131D01*
X84660Y-46018D01*
X84660Y-45664D01*
X84525Y-45337D01*
X84275Y-45086D01*
X83948Y-44950D01*
X83594Y-44950D01*
X83267Y-45085D01*
X83016Y-45335D01*
X82880Y-45662D01*
X82880Y-46016D01*
X83015Y-46343D01*
X83265Y-46594D01*
X83519Y-46700D01*
X79864Y-46700D01*
X79864Y-45439D01*
X79864Y-45242D01*
X79789Y-45060D01*
X79669Y-44940D01*
X79789Y-44820D01*
X79864Y-44639D01*
X79864Y-44442D01*
X79789Y-44260D01*
X79669Y-44140D01*
X79789Y-44020D01*
X79864Y-43839D01*
X79864Y-43642D01*
X79789Y-43460D01*
X79669Y-43340D01*
X79789Y-43220D01*
X79864Y-43039D01*
X79864Y-42842D01*
X79789Y-42660D01*
X79669Y-42540D01*
X79789Y-42420D01*
X79864Y-42239D01*
X79864Y-42042D01*
X79789Y-41860D01*
X79669Y-41740D01*
X79789Y-41620D01*
X79864Y-41439D01*
X79864Y-41242D01*
X79789Y-41060D01*
X79650Y-40921D01*
X79469Y-40846D01*
X79272Y-40846D01*
X79090Y-40921D01*
X78951Y-41060D01*
X78915Y-41146D01*
X78915Y-40572D01*
X78903Y-40370D01*
X78848Y-40236D01*
X78757Y-40214D01*
X78686Y-40285D01*
X78686Y-40143D01*
X78664Y-40052D01*
X78472Y-39985D01*
X78270Y-39997D01*
X78136Y-40052D01*
X78114Y-40143D01*
X78400Y-40429D01*
X78686Y-40143D01*
X78686Y-40285D01*
X78471Y-40500D01*
X78757Y-40786D01*
X78848Y-40764D01*
X78915Y-40572D01*
X78915Y-41146D01*
X78876Y-41241D01*
X78876Y-41290D01*
X78841Y-41206D01*
X78695Y-41059D01*
X78544Y-40996D01*
X78664Y-40948D01*
X78686Y-40857D01*
X78400Y-40571D01*
X78329Y-40642D01*
X78329Y-40500D01*
X78043Y-40214D01*
X77952Y-40236D01*
X77885Y-40428D01*
X77897Y-40630D01*
X77952Y-40764D01*
X78043Y-40786D01*
X78329Y-40500D01*
X78329Y-40642D01*
X78114Y-40857D01*
X78136Y-40948D01*
X78265Y-40993D01*
X78106Y-41059D01*
X77959Y-41205D01*
X77880Y-41396D01*
X77880Y-41603D01*
X77959Y-41794D01*
X78105Y-41941D01*
X78141Y-41955D01*
X77998Y-42098D01*
X77937Y-42191D01*
X77914Y-42300D01*
X77937Y-42409D01*
X77998Y-42502D01*
X78091Y-42563D01*
X78200Y-42586D01*
X78309Y-42563D01*
X78402Y-42502D01*
X78478Y-42425D01*
X78956Y-42425D01*
X79071Y-42540D01*
X78951Y-42660D01*
X78876Y-42841D01*
X78876Y-43038D01*
X78951Y-43220D01*
X79071Y-43340D01*
X78951Y-43460D01*
X78876Y-43641D01*
X78876Y-43838D01*
X78951Y-44020D01*
X79071Y-44140D01*
X78951Y-44260D01*
X78876Y-44441D01*
X78876Y-44638D01*
X78951Y-44820D01*
X79071Y-44940D01*
X78951Y-45060D01*
X78909Y-45160D01*
X78903Y-45050D01*
X78848Y-44916D01*
X78757Y-44894D01*
X78686Y-44965D01*
X78686Y-44823D01*
X78664Y-44732D01*
X78472Y-44665D01*
X78270Y-44677D01*
X78136Y-44732D01*
X78114Y-44823D01*
X78400Y-45109D01*
X78686Y-44823D01*
X78686Y-44965D01*
X78471Y-45180D01*
X78757Y-45466D01*
X78848Y-45444D01*
X78876Y-45363D01*
X78876Y-45438D01*
X78951Y-45620D01*
X79090Y-45759D01*
X79271Y-45834D01*
X79468Y-45834D01*
X79650Y-45759D01*
X79789Y-45620D01*
X79864Y-45439D01*
X79864Y-46700D01*
X78503Y-46700D01*
X78694Y-46621D01*
X78841Y-46475D01*
X78920Y-46284D01*
X78920Y-46077D01*
X78841Y-45886D01*
X78695Y-45739D01*
X78544Y-45676D01*
X78664Y-45628D01*
X78686Y-45537D01*
X78400Y-45251D01*
X78329Y-45322D01*
X78329Y-45180D01*
X78043Y-44894D01*
X77952Y-44916D01*
X77885Y-45108D01*
X77897Y-45310D01*
X77952Y-45444D01*
X78043Y-45466D01*
X78329Y-45180D01*
X78329Y-45322D01*
X78114Y-45537D01*
X78136Y-45628D01*
X78265Y-45673D01*
X78106Y-45739D01*
X77959Y-45885D01*
X77880Y-46076D01*
X77880Y-46283D01*
X77959Y-46474D01*
X78105Y-46621D01*
X78296Y-46700D01*
X76291Y-46700D01*
X76291Y-40236D01*
X76291Y-40066D01*
X76226Y-39909D01*
X76107Y-39789D01*
X75950Y-39723D01*
X75780Y-39723D01*
X75623Y-39788D01*
X75503Y-39907D01*
X75437Y-40064D01*
X75437Y-40234D01*
X75502Y-40391D01*
X75621Y-40511D01*
X75778Y-40577D01*
X75948Y-40577D01*
X76105Y-40512D01*
X76225Y-40393D01*
X76291Y-40236D01*
X76291Y-46700D01*
X74780Y-46700D01*
X74780Y-43986D01*
X74780Y-43815D01*
X74715Y-43657D01*
X74594Y-43536D01*
X74436Y-43470D01*
X74265Y-43470D01*
X74107Y-43535D01*
X74086Y-43556D01*
X74086Y-40247D01*
X74086Y-40054D01*
X74012Y-39875D01*
X73876Y-39738D01*
X73697Y-39664D01*
X73504Y-39664D01*
X73325Y-39738D01*
X73188Y-39874D01*
X73114Y-40053D01*
X73114Y-40246D01*
X73188Y-40425D01*
X73324Y-40562D01*
X73503Y-40636D01*
X73696Y-40636D01*
X73875Y-40562D01*
X74012Y-40426D01*
X74086Y-40247D01*
X74086Y-43556D01*
X73986Y-43656D01*
X73920Y-43814D01*
X73920Y-43985D01*
X73985Y-44143D01*
X74106Y-44264D01*
X74264Y-44330D01*
X74435Y-44330D01*
X74593Y-44265D01*
X74714Y-44144D01*
X74780Y-43986D01*
X74780Y-46700D01*
X72730Y-46700D01*
X72730Y-44486D01*
X72730Y-44315D01*
X72665Y-44157D01*
X72544Y-44036D01*
X72386Y-43970D01*
X72215Y-43970D01*
X72057Y-44035D01*
X71936Y-44156D01*
X71870Y-44314D01*
X71870Y-44485D01*
X71935Y-44643D01*
X72056Y-44764D01*
X72214Y-44830D01*
X72385Y-44830D01*
X72543Y-44765D01*
X72664Y-44644D01*
X72730Y-44486D01*
X72730Y-46700D01*
X72723Y-46700D01*
X72665Y-46557D01*
X72544Y-46436D01*
X72386Y-46370D01*
X72215Y-46370D01*
X72057Y-46435D01*
X71936Y-46556D01*
X71875Y-46700D01*
X71830Y-46700D01*
X71830Y-38086D01*
X71830Y-37915D01*
X71765Y-37757D01*
X71644Y-37636D01*
X71486Y-37570D01*
X71315Y-37570D01*
X71157Y-37635D01*
X71036Y-37756D01*
X70970Y-37914D01*
X70970Y-38085D01*
X71035Y-38243D01*
X71156Y-38364D01*
X71314Y-38430D01*
X71485Y-38430D01*
X71643Y-38365D01*
X71764Y-38244D01*
X71830Y-38086D01*
X71830Y-46700D01*
X71430Y-46700D01*
X71430Y-39986D01*
X71430Y-39815D01*
X71365Y-39657D01*
X71244Y-39536D01*
X71086Y-39470D01*
X70915Y-39470D01*
X70757Y-39535D01*
X70636Y-39656D01*
X70570Y-39814D01*
X70570Y-39985D01*
X70635Y-40143D01*
X70756Y-40264D01*
X70914Y-40330D01*
X71085Y-40330D01*
X71243Y-40265D01*
X71364Y-40144D01*
X71430Y-39986D01*
X71430Y-46700D01*
X70430Y-46700D01*
X70430Y-36586D01*
X70430Y-36415D01*
X70365Y-36257D01*
X70244Y-36136D01*
X70230Y-36130D01*
X70230Y-35386D01*
X70230Y-35215D01*
X70165Y-35057D01*
X70044Y-34936D01*
X69886Y-34870D01*
X69880Y-34870D01*
X69880Y-32936D01*
X69880Y-32765D01*
X69815Y-32607D01*
X69733Y-32525D01*
X69814Y-32444D01*
X69880Y-32286D01*
X69880Y-32115D01*
X69815Y-31957D01*
X69694Y-31836D01*
X69536Y-31770D01*
X69365Y-31770D01*
X69207Y-31835D01*
X69086Y-31956D01*
X69026Y-32097D01*
X69011Y-32059D01*
X68941Y-31989D01*
X68850Y-31951D01*
X68751Y-31951D01*
X68151Y-31951D01*
X68059Y-31989D01*
X67989Y-32059D01*
X67951Y-32150D01*
X67951Y-32175D01*
X67811Y-32035D01*
X67609Y-31951D01*
X67391Y-31951D01*
X67189Y-32035D01*
X67035Y-32189D01*
X66965Y-32357D01*
X66844Y-32236D01*
X66686Y-32170D01*
X66515Y-32170D01*
X66357Y-32235D01*
X66236Y-32356D01*
X66170Y-32514D01*
X66170Y-32685D01*
X66235Y-32843D01*
X66356Y-32964D01*
X66514Y-33030D01*
X66685Y-33030D01*
X66843Y-32965D01*
X66964Y-32844D01*
X67006Y-32742D01*
X67035Y-32811D01*
X67189Y-32965D01*
X67391Y-33049D01*
X67609Y-33049D01*
X67811Y-32965D01*
X67951Y-32825D01*
X67951Y-32849D01*
X67989Y-32941D01*
X68059Y-33011D01*
X68150Y-33049D01*
X68249Y-33049D01*
X68849Y-33049D01*
X68941Y-33011D01*
X69011Y-32941D01*
X69020Y-32919D01*
X69020Y-32935D01*
X69085Y-33093D01*
X69206Y-33214D01*
X69364Y-33280D01*
X69535Y-33280D01*
X69693Y-33215D01*
X69814Y-33094D01*
X69880Y-32936D01*
X69880Y-34870D01*
X69715Y-34870D01*
X69557Y-34935D01*
X69436Y-35056D01*
X69370Y-35214D01*
X69370Y-35385D01*
X69435Y-35543D01*
X69556Y-35664D01*
X69714Y-35730D01*
X69885Y-35730D01*
X70043Y-35665D01*
X70164Y-35544D01*
X70230Y-35386D01*
X70230Y-36130D01*
X70086Y-36070D01*
X69915Y-36070D01*
X69757Y-36135D01*
X69636Y-36256D01*
X69620Y-36292D01*
X69565Y-36157D01*
X69444Y-36036D01*
X69286Y-35970D01*
X69115Y-35970D01*
X68957Y-36035D01*
X68935Y-36056D01*
X68915Y-36007D01*
X68794Y-35886D01*
X68636Y-35820D01*
X68465Y-35820D01*
X68307Y-35885D01*
X68186Y-36006D01*
X68127Y-36145D01*
X68115Y-36114D01*
X68032Y-36031D01*
X68115Y-35949D01*
X68199Y-35747D01*
X68199Y-35529D01*
X68115Y-35327D01*
X67961Y-35173D01*
X67759Y-35089D01*
X67541Y-35089D01*
X67339Y-35173D01*
X67185Y-35327D01*
X67180Y-35339D01*
X67180Y-33936D01*
X67180Y-33765D01*
X67115Y-33607D01*
X66994Y-33486D01*
X66836Y-33420D01*
X66665Y-33420D01*
X66507Y-33485D01*
X66386Y-33606D01*
X66320Y-33764D01*
X66320Y-33935D01*
X66385Y-34093D01*
X66506Y-34214D01*
X66664Y-34280D01*
X66835Y-34280D01*
X66993Y-34215D01*
X67114Y-34094D01*
X67180Y-33936D01*
X67180Y-35339D01*
X67101Y-35529D01*
X67101Y-35747D01*
X67185Y-35949D01*
X67267Y-36031D01*
X67185Y-36114D01*
X67101Y-36316D01*
X67101Y-36534D01*
X67185Y-36736D01*
X67268Y-36819D01*
X67185Y-36902D01*
X67101Y-37104D01*
X67101Y-37322D01*
X67185Y-37524D01*
X67267Y-37606D01*
X67185Y-37689D01*
X67101Y-37891D01*
X67101Y-38109D01*
X67185Y-38311D01*
X67267Y-38393D01*
X67185Y-38476D01*
X67101Y-38678D01*
X67101Y-38896D01*
X67185Y-39098D01*
X67268Y-39181D01*
X67185Y-39264D01*
X67101Y-39466D01*
X67101Y-39684D01*
X67185Y-39886D01*
X67267Y-39968D01*
X67185Y-40051D01*
X67101Y-40253D01*
X67101Y-40471D01*
X67185Y-40673D01*
X67339Y-40827D01*
X67438Y-40868D01*
X67650Y-41079D01*
X67861Y-40868D01*
X67961Y-40827D01*
X68115Y-40673D01*
X68199Y-40471D01*
X68199Y-40253D01*
X68115Y-40051D01*
X68032Y-39968D01*
X68115Y-39886D01*
X68199Y-39684D01*
X68199Y-39466D01*
X68115Y-39264D01*
X68032Y-39181D01*
X68115Y-39098D01*
X68199Y-38896D01*
X68199Y-38678D01*
X68115Y-38476D01*
X68032Y-38393D01*
X68115Y-38311D01*
X68199Y-38109D01*
X68199Y-37891D01*
X68115Y-37689D01*
X68032Y-37606D01*
X68115Y-37524D01*
X68199Y-37322D01*
X68199Y-37104D01*
X68115Y-36902D01*
X68032Y-36819D01*
X68115Y-36736D01*
X68199Y-36534D01*
X68199Y-36507D01*
X68306Y-36614D01*
X68464Y-36680D01*
X68635Y-36680D01*
X68793Y-36615D01*
X68814Y-36593D01*
X68835Y-36643D01*
X68956Y-36764D01*
X69114Y-36830D01*
X69285Y-36830D01*
X69443Y-36765D01*
X69564Y-36644D01*
X69579Y-36607D01*
X69635Y-36743D01*
X69756Y-36864D01*
X69770Y-36870D01*
X69665Y-36870D01*
X69507Y-36935D01*
X69386Y-37056D01*
X69320Y-37214D01*
X69320Y-37385D01*
X69385Y-37543D01*
X69506Y-37664D01*
X69664Y-37730D01*
X69835Y-37730D01*
X69993Y-37665D01*
X70114Y-37544D01*
X70180Y-37386D01*
X70180Y-37215D01*
X70115Y-37057D01*
X69994Y-36936D01*
X69979Y-36930D01*
X70085Y-36930D01*
X70243Y-36865D01*
X70364Y-36744D01*
X70430Y-36586D01*
X70430Y-46700D01*
X68193Y-46700D01*
X68193Y-41229D01*
X68182Y-41016D01*
X68122Y-40869D01*
X68028Y-40842D01*
X67721Y-41150D01*
X68028Y-41458D01*
X68122Y-41431D01*
X68193Y-41229D01*
X68193Y-46700D01*
X67958Y-46700D01*
X67958Y-41528D01*
X67650Y-41221D01*
X67579Y-41291D01*
X67579Y-41150D01*
X67272Y-40842D01*
X67178Y-40869D01*
X67107Y-41071D01*
X67118Y-41284D01*
X67178Y-41431D01*
X67272Y-41458D01*
X67579Y-41150D01*
X67579Y-41291D01*
X67342Y-41528D01*
X67369Y-41622D01*
X67571Y-41693D01*
X67784Y-41682D01*
X67931Y-41622D01*
X67958Y-41528D01*
X67958Y-46700D01*
X67131Y-46700D01*
X67131Y-42728D01*
X67131Y-42557D01*
X67074Y-42419D01*
X67130Y-42286D01*
X67130Y-42115D01*
X67065Y-41957D01*
X66944Y-41836D01*
X66786Y-41770D01*
X66730Y-41770D01*
X66730Y-35386D01*
X66730Y-35215D01*
X66665Y-35057D01*
X66544Y-34936D01*
X66386Y-34870D01*
X66215Y-34870D01*
X66057Y-34935D01*
X65936Y-35056D01*
X65870Y-35214D01*
X65870Y-35385D01*
X65935Y-35543D01*
X66056Y-35664D01*
X66214Y-35730D01*
X66385Y-35730D01*
X66543Y-35665D01*
X66664Y-35544D01*
X66730Y-35386D01*
X66730Y-41770D01*
X66615Y-41770D01*
X66457Y-41835D01*
X66380Y-41912D01*
X66380Y-38386D01*
X66380Y-38215D01*
X66315Y-38057D01*
X66194Y-37936D01*
X66036Y-37870D01*
X65930Y-37870D01*
X65930Y-37586D01*
X65930Y-37415D01*
X65865Y-37257D01*
X65744Y-37136D01*
X65586Y-37070D01*
X65580Y-37070D01*
X65580Y-34486D01*
X65580Y-34315D01*
X65515Y-34157D01*
X65394Y-34036D01*
X65236Y-33970D01*
X65065Y-33970D01*
X64907Y-34035D01*
X64786Y-34156D01*
X64720Y-34314D01*
X64720Y-34485D01*
X64785Y-34643D01*
X64906Y-34764D01*
X65064Y-34830D01*
X65235Y-34830D01*
X65393Y-34765D01*
X65514Y-34644D01*
X65580Y-34486D01*
X65580Y-37070D01*
X65415Y-37070D01*
X65257Y-37135D01*
X65136Y-37256D01*
X65070Y-37414D01*
X65070Y-37585D01*
X65135Y-37743D01*
X65256Y-37864D01*
X65414Y-37930D01*
X65585Y-37930D01*
X65743Y-37865D01*
X65864Y-37744D01*
X65930Y-37586D01*
X65930Y-37870D01*
X65865Y-37870D01*
X65707Y-37935D01*
X65586Y-38056D01*
X65520Y-38214D01*
X65520Y-38270D01*
X65415Y-38270D01*
X65257Y-38335D01*
X65136Y-38456D01*
X65070Y-38614D01*
X65070Y-38785D01*
X65135Y-38943D01*
X65256Y-39064D01*
X65414Y-39130D01*
X65585Y-39130D01*
X65743Y-39065D01*
X65864Y-38944D01*
X65930Y-38786D01*
X65930Y-38730D01*
X66035Y-38730D01*
X66193Y-38665D01*
X66314Y-38544D01*
X66380Y-38386D01*
X66380Y-41912D01*
X66336Y-41956D01*
X66270Y-42114D01*
X66270Y-42285D01*
X66326Y-42422D01*
X66271Y-42556D01*
X66271Y-42727D01*
X66336Y-42885D01*
X66377Y-42926D01*
X66357Y-42935D01*
X66236Y-43056D01*
X66230Y-43070D01*
X66115Y-43070D01*
X65957Y-43135D01*
X65880Y-43212D01*
X65880Y-40736D01*
X65880Y-40565D01*
X65815Y-40407D01*
X65694Y-40286D01*
X65536Y-40220D01*
X65365Y-40220D01*
X65207Y-40285D01*
X65086Y-40406D01*
X65020Y-40564D01*
X65020Y-40735D01*
X65085Y-40893D01*
X65206Y-41014D01*
X65364Y-41080D01*
X65535Y-41080D01*
X65693Y-41015D01*
X65814Y-40894D01*
X65880Y-40736D01*
X65880Y-43212D01*
X65836Y-43256D01*
X65770Y-43414D01*
X65770Y-43585D01*
X65835Y-43743D01*
X65956Y-43864D01*
X66114Y-43930D01*
X66285Y-43930D01*
X66443Y-43865D01*
X66564Y-43744D01*
X66569Y-43730D01*
X66685Y-43730D01*
X66843Y-43665D01*
X66964Y-43544D01*
X67030Y-43386D01*
X67030Y-43215D01*
X66965Y-43057D01*
X66923Y-43015D01*
X66944Y-43007D01*
X67065Y-42886D01*
X67131Y-42728D01*
X67131Y-46700D01*
X66630Y-46700D01*
X66630Y-45386D01*
X66630Y-45215D01*
X66565Y-45057D01*
X66444Y-44936D01*
X66286Y-44870D01*
X66115Y-44870D01*
X65957Y-44935D01*
X65836Y-45056D01*
X65828Y-45075D01*
X65716Y-45075D01*
X65560Y-45139D01*
X65440Y-45259D01*
X65375Y-45415D01*
X65375Y-45584D01*
X65439Y-45740D01*
X65559Y-45860D01*
X65715Y-45925D01*
X65884Y-45925D01*
X66040Y-45861D01*
X66160Y-45741D01*
X66164Y-45730D01*
X66285Y-45730D01*
X66443Y-45665D01*
X66564Y-45544D01*
X66630Y-45386D01*
X66630Y-46700D01*
X65049Y-46700D01*
X65049Y-41259D01*
X65049Y-41041D01*
X64965Y-40839D01*
X64882Y-40756D01*
X64965Y-40673D01*
X65049Y-40471D01*
X65049Y-40253D01*
X64965Y-40051D01*
X64882Y-39968D01*
X64965Y-39886D01*
X65049Y-39684D01*
X65049Y-39466D01*
X64965Y-39264D01*
X64882Y-39181D01*
X64965Y-39098D01*
X65049Y-38896D01*
X65049Y-38678D01*
X64965Y-38476D01*
X64882Y-38393D01*
X64965Y-38311D01*
X65049Y-38109D01*
X65049Y-37891D01*
X64965Y-37689D01*
X64882Y-37606D01*
X64965Y-37524D01*
X65049Y-37322D01*
X65049Y-37104D01*
X64965Y-36902D01*
X64882Y-36819D01*
X64965Y-36736D01*
X65049Y-36534D01*
X65049Y-36316D01*
X64965Y-36114D01*
X64882Y-36031D01*
X64965Y-35949D01*
X65049Y-35747D01*
X65049Y-35529D01*
X64965Y-35327D01*
X64811Y-35173D01*
X64609Y-35089D01*
X64391Y-35089D01*
X64189Y-35173D01*
X64080Y-35282D01*
X64080Y-33886D01*
X64080Y-33715D01*
X64015Y-33557D01*
X63894Y-33436D01*
X63736Y-33370D01*
X63565Y-33370D01*
X63407Y-33435D01*
X63286Y-33556D01*
X63220Y-33714D01*
X63220Y-33885D01*
X63285Y-34043D01*
X63406Y-34164D01*
X63564Y-34230D01*
X63735Y-34230D01*
X63893Y-34165D01*
X64014Y-34044D01*
X64080Y-33886D01*
X64080Y-35282D01*
X64035Y-35327D01*
X63951Y-35529D01*
X63951Y-35747D01*
X64035Y-35949D01*
X64117Y-36031D01*
X64035Y-36114D01*
X63951Y-36316D01*
X63951Y-36534D01*
X64035Y-36736D01*
X64118Y-36819D01*
X64035Y-36902D01*
X63951Y-37104D01*
X63951Y-37322D01*
X64035Y-37524D01*
X64117Y-37606D01*
X64035Y-37689D01*
X63951Y-37891D01*
X63951Y-38109D01*
X64035Y-38311D01*
X64117Y-38393D01*
X64035Y-38476D01*
X63951Y-38678D01*
X63951Y-38896D01*
X64035Y-39098D01*
X64118Y-39181D01*
X64035Y-39264D01*
X63951Y-39466D01*
X63951Y-39684D01*
X64035Y-39886D01*
X64117Y-39968D01*
X64035Y-40051D01*
X63951Y-40253D01*
X63951Y-40471D01*
X64035Y-40673D01*
X64118Y-40756D01*
X64035Y-40839D01*
X63951Y-41041D01*
X63951Y-41259D01*
X64035Y-41461D01*
X64189Y-41615D01*
X64391Y-41699D01*
X64609Y-41699D01*
X64811Y-41615D01*
X64965Y-41461D01*
X65049Y-41259D01*
X65049Y-46700D01*
X63680Y-46700D01*
X63680Y-39586D01*
X63680Y-39415D01*
X63615Y-39257D01*
X63494Y-39136D01*
X63336Y-39070D01*
X63288Y-39070D01*
X63364Y-38994D01*
X63430Y-38836D01*
X63430Y-38665D01*
X63365Y-38507D01*
X63244Y-38386D01*
X63086Y-38320D01*
X62930Y-38320D01*
X62930Y-37836D01*
X62930Y-37665D01*
X62865Y-37507D01*
X62744Y-37386D01*
X62680Y-37359D01*
X62680Y-32986D01*
X62680Y-32815D01*
X62615Y-32657D01*
X62494Y-32536D01*
X62336Y-32470D01*
X62165Y-32470D01*
X62007Y-32535D01*
X61886Y-32656D01*
X61820Y-32814D01*
X61820Y-32985D01*
X61885Y-33143D01*
X62006Y-33264D01*
X62164Y-33330D01*
X62335Y-33330D01*
X62493Y-33265D01*
X62614Y-33144D01*
X62680Y-32986D01*
X62680Y-37359D01*
X62586Y-37320D01*
X62415Y-37320D01*
X62257Y-37385D01*
X62136Y-37506D01*
X62070Y-37664D01*
X62070Y-37835D01*
X62135Y-37993D01*
X62256Y-38114D01*
X62414Y-38180D01*
X62585Y-38180D01*
X62743Y-38115D01*
X62864Y-37994D01*
X62930Y-37836D01*
X62930Y-38320D01*
X62915Y-38320D01*
X62757Y-38385D01*
X62636Y-38506D01*
X62570Y-38664D01*
X62570Y-38835D01*
X62635Y-38993D01*
X62756Y-39114D01*
X62914Y-39180D01*
X62962Y-39180D01*
X62886Y-39256D01*
X62820Y-39414D01*
X62820Y-39585D01*
X62885Y-39743D01*
X63006Y-39864D01*
X63164Y-39930D01*
X63335Y-39930D01*
X63493Y-39865D01*
X63614Y-39744D01*
X63680Y-39586D01*
X63680Y-46700D01*
X63630Y-46700D01*
X63630Y-40586D01*
X63630Y-40415D01*
X63565Y-40257D01*
X63444Y-40136D01*
X63286Y-40070D01*
X63115Y-40070D01*
X62957Y-40135D01*
X62836Y-40256D01*
X62770Y-40414D01*
X62770Y-40585D01*
X62835Y-40743D01*
X62956Y-40864D01*
X63114Y-40930D01*
X63285Y-40930D01*
X63443Y-40865D01*
X63564Y-40744D01*
X63630Y-40586D01*
X63630Y-46700D01*
X62430Y-46700D01*
X62430Y-42486D01*
X62430Y-42315D01*
X62365Y-42157D01*
X62244Y-42036D01*
X62086Y-41970D01*
X61915Y-41970D01*
X61880Y-41984D01*
X61880Y-41686D01*
X61880Y-41515D01*
X61815Y-41357D01*
X61694Y-41236D01*
X61536Y-41170D01*
X61430Y-41170D01*
X61430Y-37186D01*
X61430Y-37015D01*
X61365Y-36857D01*
X61244Y-36736D01*
X61086Y-36670D01*
X60980Y-36670D01*
X60980Y-34436D01*
X60980Y-34265D01*
X60915Y-34107D01*
X60794Y-33986D01*
X60636Y-33920D01*
X60465Y-33920D01*
X60307Y-33985D01*
X60186Y-34106D01*
X60120Y-34264D01*
X60120Y-34435D01*
X60185Y-34593D01*
X60306Y-34714D01*
X60464Y-34780D01*
X60635Y-34780D01*
X60793Y-34715D01*
X60914Y-34594D01*
X60980Y-34436D01*
X60980Y-36670D01*
X60915Y-36670D01*
X60880Y-36684D01*
X60880Y-36665D01*
X60815Y-36507D01*
X60694Y-36386D01*
X60536Y-36320D01*
X60365Y-36320D01*
X60207Y-36385D01*
X60086Y-36506D01*
X60049Y-36594D01*
X60049Y-33050D01*
X60049Y-32951D01*
X60049Y-32351D01*
X60011Y-32259D01*
X59941Y-32189D01*
X59850Y-32151D01*
X59751Y-32151D01*
X59151Y-32151D01*
X59059Y-32189D01*
X58989Y-32259D01*
X58951Y-32350D01*
X58951Y-32375D01*
X58811Y-32235D01*
X58609Y-32151D01*
X58391Y-32151D01*
X58189Y-32235D01*
X58035Y-32389D01*
X57997Y-32480D01*
X57972Y-32419D01*
X57878Y-32392D01*
X57808Y-32462D01*
X57808Y-32322D01*
X57781Y-32228D01*
X57579Y-32157D01*
X57366Y-32168D01*
X57219Y-32228D01*
X57192Y-32322D01*
X57500Y-32629D01*
X57808Y-32322D01*
X57808Y-32462D01*
X57571Y-32700D01*
X57878Y-33008D01*
X57972Y-32981D01*
X57995Y-32915D01*
X58035Y-33011D01*
X58189Y-33165D01*
X58391Y-33249D01*
X58609Y-33249D01*
X58811Y-33165D01*
X58951Y-33025D01*
X58951Y-33049D01*
X58989Y-33141D01*
X59059Y-33211D01*
X59145Y-33246D01*
X59136Y-33256D01*
X59070Y-33414D01*
X59070Y-33585D01*
X59135Y-33743D01*
X59256Y-33864D01*
X59414Y-33930D01*
X59585Y-33930D01*
X59743Y-33865D01*
X59864Y-33744D01*
X59930Y-33586D01*
X59930Y-33415D01*
X59865Y-33257D01*
X59854Y-33246D01*
X59941Y-33211D01*
X60011Y-33141D01*
X60049Y-33050D01*
X60049Y-36594D01*
X60020Y-36664D01*
X60020Y-36835D01*
X60085Y-36993D01*
X60206Y-37114D01*
X60364Y-37180D01*
X60516Y-37180D01*
X60198Y-37498D01*
X60137Y-37591D01*
X60114Y-37700D01*
X60115Y-37704D01*
X60115Y-37900D01*
X60137Y-38009D01*
X60198Y-38102D01*
X60291Y-38163D01*
X60400Y-38185D01*
X60509Y-38163D01*
X60602Y-38102D01*
X60663Y-38009D01*
X60685Y-37900D01*
X60685Y-37818D01*
X60973Y-37530D01*
X61085Y-37530D01*
X61243Y-37465D01*
X61364Y-37344D01*
X61430Y-37186D01*
X61430Y-41170D01*
X61365Y-41170D01*
X61207Y-41235D01*
X61086Y-41356D01*
X61020Y-41514D01*
X61020Y-41670D01*
X61015Y-41670D01*
X60857Y-41735D01*
X60852Y-41739D01*
X60734Y-41690D01*
X60563Y-41690D01*
X60405Y-41755D01*
X60284Y-41876D01*
X60218Y-42034D01*
X60218Y-42205D01*
X60283Y-42363D01*
X60390Y-42470D01*
X60315Y-42470D01*
X60157Y-42535D01*
X60036Y-42656D01*
X59970Y-42814D01*
X59970Y-42985D01*
X60035Y-43143D01*
X60156Y-43264D01*
X60314Y-43330D01*
X60485Y-43330D01*
X60643Y-43265D01*
X60764Y-43144D01*
X60830Y-42986D01*
X60830Y-42815D01*
X60765Y-42657D01*
X60658Y-42550D01*
X60733Y-42550D01*
X60891Y-42485D01*
X60895Y-42480D01*
X61014Y-42530D01*
X61185Y-42530D01*
X61343Y-42465D01*
X61464Y-42344D01*
X61530Y-42186D01*
X61530Y-42030D01*
X61535Y-42030D01*
X61693Y-41965D01*
X61814Y-41844D01*
X61880Y-41686D01*
X61880Y-41984D01*
X61757Y-42035D01*
X61636Y-42156D01*
X61570Y-42314D01*
X61570Y-42485D01*
X61635Y-42643D01*
X61756Y-42764D01*
X61914Y-42830D01*
X62085Y-42830D01*
X62243Y-42765D01*
X62364Y-42644D01*
X62430Y-42486D01*
X62430Y-46700D01*
X61230Y-46700D01*
X61230Y-44986D01*
X61230Y-44815D01*
X61165Y-44657D01*
X61044Y-44536D01*
X60886Y-44470D01*
X60715Y-44470D01*
X60557Y-44535D01*
X60436Y-44656D01*
X60370Y-44814D01*
X60370Y-44985D01*
X60435Y-45143D01*
X60556Y-45264D01*
X60714Y-45330D01*
X60885Y-45330D01*
X61043Y-45265D01*
X61164Y-45144D01*
X61230Y-44986D01*
X61230Y-46700D01*
X59530Y-46700D01*
X59530Y-36336D01*
X59530Y-36165D01*
X59465Y-36007D01*
X59344Y-35886D01*
X59186Y-35820D01*
X59030Y-35820D01*
X59030Y-33786D01*
X59030Y-33615D01*
X58965Y-33457D01*
X58844Y-33336D01*
X58686Y-33270D01*
X58515Y-33270D01*
X58357Y-33335D01*
X58236Y-33456D01*
X58170Y-33614D01*
X58170Y-33769D01*
X58165Y-33757D01*
X58044Y-33636D01*
X57886Y-33570D01*
X57808Y-33570D01*
X57808Y-33078D01*
X57500Y-32771D01*
X57429Y-32841D01*
X57429Y-32700D01*
X57122Y-32392D01*
X57028Y-32419D01*
X57004Y-32484D01*
X56965Y-32389D01*
X56811Y-32235D01*
X56609Y-32151D01*
X56391Y-32151D01*
X56189Y-32235D01*
X56035Y-32389D01*
X56000Y-32473D01*
X55965Y-32389D01*
X55811Y-32235D01*
X55609Y-32151D01*
X55391Y-32151D01*
X55189Y-32235D01*
X55035Y-32389D01*
X55000Y-32473D01*
X54965Y-32389D01*
X54811Y-32235D01*
X54609Y-32151D01*
X54391Y-32151D01*
X54189Y-32235D01*
X54035Y-32389D01*
X53951Y-32591D01*
X53951Y-32809D01*
X54035Y-33011D01*
X54189Y-33165D01*
X54391Y-33249D01*
X54609Y-33249D01*
X54811Y-33165D01*
X54965Y-33011D01*
X55000Y-32926D01*
X55035Y-33011D01*
X55189Y-33165D01*
X55391Y-33249D01*
X55609Y-33249D01*
X55811Y-33165D01*
X55965Y-33011D01*
X56000Y-32926D01*
X56035Y-33011D01*
X56189Y-33165D01*
X56391Y-33249D01*
X56609Y-33249D01*
X56811Y-33165D01*
X56965Y-33011D01*
X57002Y-32919D01*
X57028Y-32981D01*
X57122Y-33008D01*
X57429Y-32700D01*
X57429Y-32841D01*
X57192Y-33078D01*
X57219Y-33172D01*
X57421Y-33243D01*
X57634Y-33232D01*
X57781Y-33172D01*
X57808Y-33078D01*
X57808Y-33570D01*
X57715Y-33570D01*
X57557Y-33635D01*
X57436Y-33756D01*
X57430Y-33770D01*
X57265Y-33770D01*
X57107Y-33835D01*
X56986Y-33956D01*
X56920Y-34114D01*
X56920Y-34285D01*
X56929Y-34309D01*
X56836Y-34270D01*
X56830Y-34270D01*
X56830Y-33886D01*
X56830Y-33715D01*
X56765Y-33557D01*
X56644Y-33436D01*
X56486Y-33370D01*
X56315Y-33370D01*
X56157Y-33435D01*
X56036Y-33556D01*
X55970Y-33714D01*
X55970Y-33885D01*
X56035Y-34043D01*
X56156Y-34164D01*
X56314Y-34230D01*
X56485Y-34230D01*
X56643Y-34165D01*
X56764Y-34044D01*
X56830Y-33886D01*
X56830Y-34270D01*
X56665Y-34270D01*
X56507Y-34335D01*
X56386Y-34456D01*
X56320Y-34614D01*
X56320Y-34785D01*
X56385Y-34943D01*
X56506Y-35064D01*
X56664Y-35130D01*
X56835Y-35130D01*
X56993Y-35065D01*
X57114Y-34944D01*
X57180Y-34786D01*
X57180Y-34615D01*
X57170Y-34590D01*
X57264Y-34630D01*
X57435Y-34630D01*
X57593Y-34565D01*
X57714Y-34444D01*
X57719Y-34430D01*
X57885Y-34430D01*
X58043Y-34365D01*
X58164Y-34244D01*
X58230Y-34086D01*
X58230Y-33930D01*
X58235Y-33943D01*
X58356Y-34064D01*
X58514Y-34130D01*
X58685Y-34130D01*
X58843Y-34065D01*
X58964Y-33944D01*
X59030Y-33786D01*
X59030Y-35820D01*
X59015Y-35820D01*
X58857Y-35885D01*
X58736Y-36006D01*
X58670Y-36164D01*
X58670Y-36335D01*
X58735Y-36493D01*
X58821Y-36579D01*
X58807Y-36585D01*
X58686Y-36706D01*
X58675Y-36731D01*
X58665Y-36707D01*
X58544Y-36586D01*
X58386Y-36520D01*
X58215Y-36520D01*
X58057Y-36585D01*
X57936Y-36706D01*
X57870Y-36864D01*
X57870Y-37035D01*
X57935Y-37193D01*
X58056Y-37314D01*
X58214Y-37380D01*
X58385Y-37380D01*
X58543Y-37315D01*
X58664Y-37194D01*
X58674Y-37168D01*
X58685Y-37193D01*
X58806Y-37314D01*
X58964Y-37380D01*
X59135Y-37380D01*
X59293Y-37315D01*
X59414Y-37194D01*
X59480Y-37036D01*
X59480Y-36865D01*
X59415Y-36707D01*
X59328Y-36620D01*
X59343Y-36615D01*
X59464Y-36494D01*
X59530Y-36336D01*
X59530Y-46700D01*
X58905Y-46700D01*
X58905Y-40486D01*
X58905Y-40315D01*
X58840Y-40157D01*
X58730Y-40047D01*
X58730Y-38586D01*
X58730Y-38415D01*
X58665Y-38257D01*
X58544Y-38136D01*
X58386Y-38070D01*
X58215Y-38070D01*
X58057Y-38135D01*
X57936Y-38256D01*
X57870Y-38414D01*
X57870Y-38585D01*
X57935Y-38743D01*
X58056Y-38864D01*
X58214Y-38930D01*
X58385Y-38930D01*
X58543Y-38865D01*
X58664Y-38744D01*
X58730Y-38586D01*
X58730Y-40047D01*
X58719Y-40036D01*
X58561Y-39970D01*
X58390Y-39970D01*
X58232Y-40035D01*
X58111Y-40156D01*
X58045Y-40314D01*
X58045Y-40485D01*
X58110Y-40643D01*
X58231Y-40764D01*
X58389Y-40830D01*
X58560Y-40830D01*
X58718Y-40765D01*
X58839Y-40644D01*
X58905Y-40486D01*
X58905Y-46700D01*
X57930Y-46700D01*
X57930Y-41886D01*
X57930Y-41715D01*
X57865Y-41557D01*
X57830Y-41522D01*
X57830Y-39786D01*
X57830Y-39615D01*
X57765Y-39457D01*
X57644Y-39336D01*
X57486Y-39270D01*
X57315Y-39270D01*
X57157Y-39335D01*
X57036Y-39456D01*
X56970Y-39614D01*
X56970Y-39785D01*
X57035Y-39943D01*
X57156Y-40064D01*
X57314Y-40130D01*
X57485Y-40130D01*
X57643Y-40065D01*
X57764Y-39944D01*
X57830Y-39786D01*
X57830Y-41522D01*
X57744Y-41436D01*
X57586Y-41370D01*
X57415Y-41370D01*
X57257Y-41435D01*
X57136Y-41556D01*
X57070Y-41714D01*
X57070Y-41885D01*
X57135Y-42043D01*
X57256Y-42164D01*
X57414Y-42230D01*
X57585Y-42230D01*
X57743Y-42165D01*
X57864Y-42044D01*
X57930Y-41886D01*
X57930Y-46700D01*
X56980Y-46700D01*
X56980Y-40661D01*
X56980Y-40490D01*
X56915Y-40332D01*
X56825Y-40242D01*
X56825Y-38985D01*
X56825Y-38816D01*
X56761Y-38660D01*
X56641Y-38540D01*
X56580Y-38514D01*
X56580Y-35736D01*
X56580Y-35565D01*
X56515Y-35407D01*
X56394Y-35286D01*
X56236Y-35220D01*
X56065Y-35220D01*
X55907Y-35285D01*
X55786Y-35406D01*
X55720Y-35564D01*
X55720Y-35735D01*
X55785Y-35893D01*
X55906Y-36014D01*
X56064Y-36080D01*
X56235Y-36080D01*
X56393Y-36015D01*
X56514Y-35894D01*
X56580Y-35736D01*
X56580Y-38514D01*
X56485Y-38475D01*
X56316Y-38475D01*
X56180Y-38530D01*
X56180Y-37586D01*
X56180Y-37415D01*
X56115Y-37257D01*
X55994Y-37136D01*
X55836Y-37070D01*
X55665Y-37070D01*
X55630Y-37084D01*
X55630Y-35786D01*
X55630Y-35615D01*
X55630Y-34236D01*
X55630Y-34065D01*
X55565Y-33907D01*
X55444Y-33786D01*
X55286Y-33720D01*
X55115Y-33720D01*
X54957Y-33785D01*
X54836Y-33906D01*
X54770Y-34064D01*
X54770Y-34235D01*
X54835Y-34393D01*
X54956Y-34514D01*
X55114Y-34580D01*
X55285Y-34580D01*
X55443Y-34515D01*
X55564Y-34394D01*
X55630Y-34236D01*
X55630Y-35615D01*
X55565Y-35457D01*
X55444Y-35336D01*
X55286Y-35270D01*
X55115Y-35270D01*
X54957Y-35335D01*
X54836Y-35456D01*
X54770Y-35614D01*
X54770Y-35785D01*
X54835Y-35943D01*
X54956Y-36064D01*
X55114Y-36130D01*
X55285Y-36130D01*
X55443Y-36065D01*
X55564Y-35944D01*
X55630Y-35786D01*
X55630Y-37084D01*
X55507Y-37135D01*
X55475Y-37167D01*
X55444Y-37136D01*
X55286Y-37070D01*
X55115Y-37070D01*
X54957Y-37135D01*
X54836Y-37256D01*
X54770Y-37414D01*
X54770Y-37510D01*
X54685Y-37475D01*
X54516Y-37475D01*
X54360Y-37539D01*
X54240Y-37659D01*
X54186Y-37787D01*
X54060Y-37839D01*
X53940Y-37959D01*
X53875Y-38115D01*
X53875Y-38284D01*
X53939Y-38440D01*
X54059Y-38560D01*
X54215Y-38625D01*
X54384Y-38625D01*
X54540Y-38561D01*
X54660Y-38441D01*
X54713Y-38312D01*
X54840Y-38261D01*
X54960Y-38141D01*
X55025Y-37985D01*
X55025Y-37892D01*
X55114Y-37930D01*
X55285Y-37930D01*
X55443Y-37865D01*
X55475Y-37833D01*
X55506Y-37864D01*
X55664Y-37930D01*
X55835Y-37930D01*
X55993Y-37865D01*
X56114Y-37744D01*
X56180Y-37586D01*
X56180Y-38530D01*
X56160Y-38539D01*
X56040Y-38659D01*
X55975Y-38815D01*
X55975Y-38984D01*
X56039Y-39140D01*
X56159Y-39260D01*
X56315Y-39325D01*
X56484Y-39325D01*
X56640Y-39261D01*
X56760Y-39141D01*
X56825Y-38985D01*
X56825Y-40242D01*
X56794Y-40211D01*
X56636Y-40145D01*
X56605Y-40145D01*
X56630Y-40086D01*
X56630Y-39915D01*
X56565Y-39757D01*
X56444Y-39636D01*
X56286Y-39570D01*
X56115Y-39570D01*
X55957Y-39635D01*
X55850Y-39742D01*
X55844Y-39736D01*
X55686Y-39670D01*
X55515Y-39670D01*
X55357Y-39735D01*
X55236Y-39856D01*
X55170Y-40014D01*
X55170Y-40185D01*
X55235Y-40343D01*
X55356Y-40464D01*
X55514Y-40530D01*
X55685Y-40530D01*
X55843Y-40465D01*
X55950Y-40358D01*
X55956Y-40364D01*
X56114Y-40430D01*
X56144Y-40430D01*
X56120Y-40489D01*
X56120Y-40660D01*
X56185Y-40818D01*
X56306Y-40939D01*
X56464Y-41005D01*
X56635Y-41005D01*
X56793Y-40940D01*
X56914Y-40819D01*
X56980Y-40661D01*
X56980Y-46700D01*
X55480Y-46700D01*
X55480Y-43336D01*
X55480Y-43165D01*
X55415Y-43007D01*
X55294Y-42886D01*
X55230Y-42859D01*
X55230Y-40586D01*
X55230Y-40415D01*
X55165Y-40257D01*
X55044Y-40136D01*
X54886Y-40070D01*
X54770Y-40070D01*
X54765Y-40057D01*
X54644Y-39936D01*
X54486Y-39870D01*
X54315Y-39870D01*
X54157Y-39935D01*
X54036Y-40056D01*
X53970Y-40214D01*
X53970Y-40385D01*
X54035Y-40543D01*
X54156Y-40664D01*
X54314Y-40730D01*
X54429Y-40730D01*
X54435Y-40743D01*
X54556Y-40864D01*
X54714Y-40930D01*
X54885Y-40930D01*
X55043Y-40865D01*
X55164Y-40744D01*
X55230Y-40586D01*
X55230Y-42859D01*
X55136Y-42820D01*
X54965Y-42820D01*
X54807Y-42885D01*
X54686Y-43006D01*
X54620Y-43164D01*
X54620Y-43335D01*
X54685Y-43493D01*
X54806Y-43614D01*
X54964Y-43680D01*
X55135Y-43680D01*
X55293Y-43615D01*
X55414Y-43494D01*
X55480Y-43336D01*
X55480Y-46700D01*
X53285Y-46700D01*
X53285Y-35900D01*
X53285Y-35300D01*
X53284Y-35299D01*
X53285Y-35299D01*
X53281Y-35280D01*
X53263Y-35191D01*
X53230Y-35142D01*
X53230Y-35140D01*
X53230Y-35015D01*
X53165Y-34857D01*
X53044Y-34736D01*
X52886Y-34670D01*
X52715Y-34670D01*
X52557Y-34735D01*
X52436Y-34856D01*
X52370Y-35014D01*
X52370Y-35185D01*
X52435Y-35343D01*
X52556Y-35464D01*
X52714Y-35530D01*
X52715Y-35530D01*
X52715Y-35900D01*
X52737Y-36009D01*
X52798Y-36102D01*
X52891Y-36163D01*
X53000Y-36185D01*
X53109Y-36163D01*
X53202Y-36102D01*
X53263Y-36009D01*
X53285Y-35900D01*
X53285Y-46700D01*
X52930Y-46700D01*
X52930Y-43786D01*
X52930Y-43615D01*
X52865Y-43457D01*
X52744Y-43336D01*
X52730Y-43330D01*
X52730Y-38886D01*
X52730Y-38715D01*
X52665Y-38557D01*
X52544Y-38436D01*
X52386Y-38370D01*
X52215Y-38370D01*
X52057Y-38435D01*
X51936Y-38556D01*
X51870Y-38714D01*
X51870Y-38885D01*
X51935Y-39043D01*
X52056Y-39164D01*
X52214Y-39230D01*
X52385Y-39230D01*
X52543Y-39165D01*
X52664Y-39044D01*
X52730Y-38886D01*
X52730Y-43330D01*
X52586Y-43270D01*
X52415Y-43270D01*
X52330Y-43304D01*
X52330Y-42486D01*
X52330Y-42315D01*
X52265Y-42157D01*
X52144Y-42036D01*
X51986Y-41970D01*
X51815Y-41970D01*
X51780Y-41984D01*
X51780Y-41915D01*
X51715Y-41757D01*
X51594Y-41636D01*
X51436Y-41570D01*
X51265Y-41570D01*
X51107Y-41635D01*
X50986Y-41756D01*
X50920Y-41914D01*
X50920Y-42085D01*
X50985Y-42243D01*
X51106Y-42364D01*
X51264Y-42430D01*
X51435Y-42430D01*
X51470Y-42415D01*
X51470Y-42485D01*
X51535Y-42643D01*
X51656Y-42764D01*
X51814Y-42830D01*
X51985Y-42830D01*
X52143Y-42765D01*
X52264Y-42644D01*
X52330Y-42486D01*
X52330Y-43304D01*
X52257Y-43335D01*
X52136Y-43456D01*
X52070Y-43614D01*
X52070Y-43785D01*
X52135Y-43943D01*
X52256Y-44064D01*
X52414Y-44130D01*
X52585Y-44130D01*
X52743Y-44065D01*
X52864Y-43944D01*
X52930Y-43786D01*
X52930Y-46700D01*
X52161Y-46700D01*
X52199Y-46609D01*
X52199Y-46391D01*
X52115Y-46189D01*
X51961Y-46035D01*
X51759Y-45951D01*
X51541Y-45951D01*
X51339Y-46035D01*
X51256Y-46118D01*
X51173Y-46035D01*
X50971Y-45951D01*
X50753Y-45951D01*
X50551Y-46035D01*
X50468Y-46117D01*
X50386Y-46035D01*
X50184Y-45951D01*
X49966Y-45951D01*
X49764Y-46035D01*
X49681Y-46118D01*
X49598Y-46035D01*
X49396Y-45951D01*
X49178Y-45951D01*
X48976Y-46035D01*
X48822Y-46189D01*
X48808Y-46221D01*
X48808Y-46122D01*
X48781Y-46028D01*
X48579Y-45957D01*
X48366Y-45968D01*
X48219Y-46028D01*
X48192Y-46122D01*
X48500Y-46429D01*
X48808Y-46122D01*
X48808Y-46221D01*
X48779Y-46290D01*
X48571Y-46500D01*
X48500Y-46571D01*
X48429Y-46500D01*
X48394Y-46465D01*
X48220Y-46290D01*
X48178Y-46189D01*
X48024Y-46035D01*
X47822Y-45951D01*
X47604Y-45951D01*
X47402Y-46035D01*
X47342Y-46094D01*
X47333Y-45396D01*
X47414Y-45430D01*
X47585Y-45430D01*
X47743Y-45365D01*
X47864Y-45244D01*
X47930Y-45086D01*
X47930Y-44915D01*
X47865Y-44757D01*
X47744Y-44636D01*
X47586Y-44570D01*
X47415Y-44570D01*
X47324Y-44607D01*
X47303Y-42766D01*
X47335Y-42843D01*
X47456Y-42964D01*
X47591Y-43020D01*
X47557Y-43035D01*
X47436Y-43156D01*
X47370Y-43314D01*
X47370Y-43485D01*
X47435Y-43643D01*
X47556Y-43764D01*
X47714Y-43830D01*
X47885Y-43830D01*
X48043Y-43765D01*
X48164Y-43644D01*
X48213Y-43525D01*
X48460Y-43525D01*
X48569Y-43503D01*
X48662Y-43442D01*
X48723Y-43349D01*
X48745Y-43240D01*
X48723Y-43131D01*
X48662Y-43038D01*
X48569Y-42977D01*
X48460Y-42955D01*
X47960Y-42955D01*
X47951Y-42956D01*
X48064Y-42844D01*
X48130Y-42686D01*
X48130Y-42515D01*
X48065Y-42357D01*
X47944Y-42236D01*
X47786Y-42170D01*
X47615Y-42170D01*
X47457Y-42235D01*
X47336Y-42356D01*
X47303Y-42432D01*
X47743Y-40041D01*
X50900Y-39289D01*
X50900Y-37608D01*
X50956Y-37664D01*
X51114Y-37730D01*
X51285Y-37730D01*
X51443Y-37665D01*
X51564Y-37544D01*
X51630Y-37386D01*
X51630Y-37215D01*
X51565Y-37057D01*
X51444Y-36936D01*
X51286Y-36870D01*
X51115Y-36870D01*
X50957Y-36935D01*
X50900Y-36992D01*
X50900Y-35968D01*
X52511Y-33985D01*
X52535Y-34043D01*
X52656Y-34164D01*
X52814Y-34230D01*
X52985Y-34230D01*
X53143Y-34165D01*
X53182Y-34125D01*
X53314Y-34180D01*
X53485Y-34180D01*
X53643Y-34115D01*
X53764Y-33994D01*
X53830Y-33836D01*
X53830Y-33665D01*
X53765Y-33507D01*
X53644Y-33386D01*
X53486Y-33320D01*
X53315Y-33320D01*
X53157Y-33385D01*
X53117Y-33424D01*
X53078Y-33408D01*
X53130Y-33286D01*
X53130Y-33115D01*
X53065Y-32957D01*
X52944Y-32836D01*
X52850Y-32796D01*
X52850Y-31650D01*
X86550Y-31650D01*
X86550Y-31650D01*
G37*
G54D25*
X86550Y-31650D02*
X86500Y-46700D01*
X85548Y-46700D01*
X85579Y-46626D01*
X85579Y-46404D01*
X85579Y-40276D01*
X85579Y-40054D01*
X85494Y-39849D01*
X85337Y-39691D01*
X85131Y-39606D01*
X84909Y-39606D01*
X84704Y-39691D01*
X84546Y-39848D01*
X84461Y-40054D01*
X84461Y-40272D01*
X84275Y-40086D01*
X83948Y-39950D01*
X83594Y-39950D01*
X83267Y-40085D01*
X83016Y-40335D01*
X82880Y-40662D01*
X82880Y-41016D01*
X83015Y-41343D01*
X83265Y-41594D01*
X83592Y-41730D01*
X83946Y-41730D01*
X84273Y-41595D01*
X84524Y-41345D01*
X84660Y-41018D01*
X84660Y-40664D01*
X84611Y-40547D01*
X84703Y-40639D01*
X84909Y-40724D01*
X85131Y-40724D01*
X85336Y-40639D01*
X85494Y-40482D01*
X85579Y-40276D01*
X85579Y-46404D01*
X85494Y-46199D01*
X85337Y-46041D01*
X85131Y-45956D01*
X84909Y-45956D01*
X84704Y-46041D01*
X84612Y-46131D01*
X84660Y-46018D01*
X84660Y-45664D01*
X84525Y-45337D01*
X84275Y-45086D01*
X83948Y-44950D01*
X83594Y-44950D01*
X83267Y-45085D01*
X83016Y-45335D01*
X82880Y-45662D01*
X82880Y-46016D01*
X83015Y-46343D01*
X83265Y-46594D01*
X83519Y-46700D01*
X79864Y-46700D01*
X79864Y-45439D01*
X79864Y-45242D01*
X79789Y-45060D01*
X79669Y-44940D01*
X79789Y-44820D01*
X79864Y-44639D01*
X79864Y-44442D01*
X79789Y-44260D01*
X79669Y-44140D01*
X79789Y-44020D01*
X79864Y-43839D01*
X79864Y-43642D01*
X79789Y-43460D01*
X79669Y-43340D01*
X79789Y-43220D01*
X79864Y-43039D01*
X79864Y-42842D01*
X79789Y-42660D01*
X79669Y-42540D01*
X79789Y-42420D01*
X79864Y-42239D01*
X79864Y-42042D01*
X79789Y-41860D01*
X79669Y-41740D01*
X79789Y-41620D01*
X79864Y-41439D01*
X79864Y-41242D01*
X79789Y-41060D01*
X79650Y-40921D01*
X79469Y-40846D01*
X79272Y-40846D01*
X79090Y-40921D01*
X78951Y-41060D01*
X78915Y-41146D01*
X78915Y-40572D01*
X78903Y-40370D01*
X78848Y-40236D01*
X78757Y-40214D01*
X78686Y-40285D01*
X78686Y-40143D01*
X78664Y-40052D01*
X78472Y-39985D01*
X78270Y-39997D01*
X78136Y-40052D01*
X78114Y-40143D01*
X78400Y-40429D01*
X78686Y-40143D01*
X78686Y-40285D01*
X78471Y-40500D01*
X78757Y-40786D01*
X78848Y-40764D01*
X78915Y-40572D01*
X78915Y-41146D01*
X78876Y-41241D01*
X78876Y-41290D01*
X78841Y-41206D01*
X78695Y-41059D01*
X78544Y-40996D01*
X78664Y-40948D01*
X78686Y-40857D01*
X78400Y-40571D01*
X78329Y-40642D01*
X78329Y-40500D01*
X78043Y-40214D01*
X77952Y-40236D01*
X77885Y-40428D01*
X77897Y-40630D01*
X77952Y-40764D01*
X78043Y-40786D01*
X78329Y-40500D01*
X78329Y-40642D01*
X78114Y-40857D01*
X78136Y-40948D01*
X78265Y-40993D01*
X78106Y-41059D01*
X77959Y-41205D01*
X77880Y-41396D01*
X77880Y-41603D01*
X77959Y-41794D01*
X78105Y-41941D01*
X78141Y-41955D01*
X77998Y-42098D01*
X77937Y-42191D01*
X77914Y-42300D01*
X77937Y-42409D01*
X77998Y-42502D01*
X78091Y-42563D01*
X78200Y-42586D01*
X78309Y-42563D01*
X78402Y-42502D01*
X78478Y-42425D01*
X78956Y-42425D01*
X79071Y-42540D01*
X78951Y-42660D01*
X78876Y-42841D01*
X78876Y-43038D01*
X78951Y-43220D01*
X79071Y-43340D01*
X78951Y-43460D01*
X78876Y-43641D01*
X78876Y-43838D01*
X78951Y-44020D01*
X79071Y-44140D01*
X78951Y-44260D01*
X78876Y-44441D01*
X78876Y-44638D01*
X78951Y-44820D01*
X79071Y-44940D01*
X78951Y-45060D01*
X78909Y-45160D01*
X78903Y-45050D01*
X78848Y-44916D01*
X78757Y-44894D01*
X78686Y-44965D01*
X78686Y-44823D01*
X78664Y-44732D01*
X78472Y-44665D01*
X78270Y-44677D01*
X78136Y-44732D01*
X78114Y-44823D01*
X78400Y-45109D01*
X78686Y-44823D01*
X78686Y-44965D01*
X78471Y-45180D01*
X78757Y-45466D01*
X78848Y-45444D01*
X78876Y-45363D01*
X78876Y-45438D01*
X78951Y-45620D01*
X79090Y-45759D01*
X79271Y-45834D01*
X79468Y-45834D01*
X79650Y-45759D01*
X79789Y-45620D01*
X79864Y-45439D01*
X79864Y-46700D01*
X78503Y-46700D01*
X78694Y-46621D01*
X78841Y-46475D01*
X78920Y-46284D01*
X78920Y-46077D01*
X78841Y-45886D01*
X78695Y-45739D01*
X78544Y-45676D01*
X78664Y-45628D01*
X78686Y-45537D01*
X78400Y-45251D01*
X78329Y-45322D01*
X78329Y-45180D01*
X78043Y-44894D01*
X77952Y-44916D01*
X77885Y-45108D01*
X77897Y-45310D01*
X77952Y-45444D01*
X78043Y-45466D01*
X78329Y-45180D01*
X78329Y-45322D01*
X78114Y-45537D01*
X78136Y-45628D01*
X78265Y-45673D01*
X78106Y-45739D01*
X77959Y-45885D01*
X77880Y-46076D01*
X77880Y-46283D01*
X77959Y-46474D01*
X78105Y-46621D01*
X78296Y-46700D01*
X76291Y-46700D01*
X76291Y-40236D01*
X76291Y-40066D01*
X76226Y-39909D01*
X76107Y-39789D01*
X75950Y-39723D01*
X75780Y-39723D01*
X75623Y-39788D01*
X75503Y-39907D01*
X75437Y-40064D01*
X75437Y-40234D01*
X75502Y-40391D01*
X75621Y-40511D01*
X75778Y-40577D01*
X75948Y-40577D01*
X76105Y-40512D01*
X76225Y-40393D01*
X76291Y-40236D01*
X76291Y-46700D01*
X74780Y-46700D01*
X74780Y-43986D01*
X74780Y-43815D01*
X74715Y-43657D01*
X74594Y-43536D01*
X74436Y-43470D01*
X74265Y-43470D01*
X74107Y-43535D01*
X74086Y-43556D01*
X74086Y-40247D01*
X74086Y-40054D01*
X74012Y-39875D01*
X73876Y-39738D01*
X73697Y-39664D01*
X73504Y-39664D01*
X73325Y-39738D01*
X73188Y-39874D01*
X73114Y-40053D01*
X73114Y-40246D01*
X73188Y-40425D01*
X73324Y-40562D01*
X73503Y-40636D01*
X73696Y-40636D01*
X73875Y-40562D01*
X74012Y-40426D01*
X74086Y-40247D01*
X74086Y-43556D01*
X73986Y-43656D01*
X73920Y-43814D01*
X73920Y-43985D01*
X73985Y-44143D01*
X74106Y-44264D01*
X74264Y-44330D01*
X74435Y-44330D01*
X74593Y-44265D01*
X74714Y-44144D01*
X74780Y-43986D01*
X74780Y-46700D01*
X72730Y-46700D01*
X72730Y-44486D01*
X72730Y-44315D01*
X72665Y-44157D01*
X72544Y-44036D01*
X72386Y-43970D01*
X72215Y-43970D01*
X72057Y-44035D01*
X71936Y-44156D01*
X71870Y-44314D01*
X71870Y-44485D01*
X71935Y-44643D01*
X72056Y-44764D01*
X72214Y-44830D01*
X72385Y-44830D01*
X72543Y-44765D01*
X72664Y-44644D01*
X72730Y-44486D01*
X72730Y-46700D01*
X72723Y-46700D01*
X72665Y-46557D01*
X72544Y-46436D01*
X72386Y-46370D01*
X72215Y-46370D01*
X72057Y-46435D01*
X71936Y-46556D01*
X71875Y-46700D01*
X71830Y-46700D01*
X71830Y-38086D01*
X71830Y-37915D01*
X71765Y-37757D01*
X71644Y-37636D01*
X71486Y-37570D01*
X71315Y-37570D01*
X71157Y-37635D01*
X71036Y-37756D01*
X70970Y-37914D01*
X70970Y-38085D01*
X71035Y-38243D01*
X71156Y-38364D01*
X71314Y-38430D01*
X71485Y-38430D01*
X71643Y-38365D01*
X71764Y-38244D01*
X71830Y-38086D01*
X71830Y-46700D01*
X71430Y-46700D01*
X71430Y-39986D01*
X71430Y-39815D01*
X71365Y-39657D01*
X71244Y-39536D01*
X71086Y-39470D01*
X70915Y-39470D01*
X70757Y-39535D01*
X70636Y-39656D01*
X70570Y-39814D01*
X70570Y-39985D01*
X70635Y-40143D01*
X70756Y-40264D01*
X70914Y-40330D01*
X71085Y-40330D01*
X71243Y-40265D01*
X71364Y-40144D01*
X71430Y-39986D01*
X71430Y-46700D01*
X70430Y-46700D01*
X70430Y-36586D01*
X70430Y-36415D01*
X70365Y-36257D01*
X70244Y-36136D01*
X70230Y-36130D01*
X70230Y-35386D01*
X70230Y-35215D01*
X70165Y-35057D01*
X70044Y-34936D01*
X69886Y-34870D01*
X69880Y-34870D01*
X69880Y-32936D01*
X69880Y-32765D01*
X69815Y-32607D01*
X69733Y-32525D01*
X69814Y-32444D01*
X69880Y-32286D01*
X69880Y-32115D01*
X69815Y-31957D01*
X69694Y-31836D01*
X69536Y-31770D01*
X69365Y-31770D01*
X69207Y-31835D01*
X69086Y-31956D01*
X69026Y-32097D01*
X69011Y-32059D01*
X68941Y-31989D01*
X68850Y-31951D01*
X68751Y-31951D01*
X68151Y-31951D01*
X68059Y-31989D01*
X67989Y-32059D01*
X67951Y-32150D01*
X67951Y-32175D01*
X67811Y-32035D01*
X67609Y-31951D01*
X67391Y-31951D01*
X67189Y-32035D01*
X67035Y-32189D01*
X66965Y-32357D01*
X66844Y-32236D01*
X66686Y-32170D01*
X66515Y-32170D01*
X66357Y-32235D01*
X66236Y-32356D01*
X66170Y-32514D01*
X66170Y-32685D01*
X66235Y-32843D01*
X66356Y-32964D01*
X66514Y-33030D01*
X66685Y-33030D01*
X66843Y-32965D01*
X66964Y-32844D01*
X67006Y-32742D01*
X67035Y-32811D01*
X67189Y-32965D01*
X67391Y-33049D01*
X67609Y-33049D01*
X67811Y-32965D01*
X67951Y-32825D01*
X67951Y-32849D01*
X67989Y-32941D01*
X68059Y-33011D01*
X68150Y-33049D01*
X68249Y-33049D01*
X68849Y-33049D01*
X68941Y-33011D01*
X69011Y-32941D01*
X69020Y-32919D01*
X69020Y-32935D01*
X69085Y-33093D01*
X69206Y-33214D01*
X69364Y-33280D01*
X69535Y-33280D01*
X69693Y-33215D01*
X69814Y-33094D01*
X69880Y-32936D01*
X69880Y-34870D01*
X69715Y-34870D01*
X69557Y-34935D01*
X69436Y-35056D01*
X69370Y-35214D01*
X69370Y-35385D01*
X69435Y-35543D01*
X69556Y-35664D01*
X69714Y-35730D01*
X69885Y-35730D01*
X70043Y-35665D01*
X70164Y-35544D01*
X70230Y-35386D01*
X70230Y-36130D01*
X70086Y-36070D01*
X69915Y-36070D01*
X69757Y-36135D01*
X69636Y-36256D01*
X69620Y-36292D01*
X69565Y-36157D01*
X69444Y-36036D01*
X69286Y-35970D01*
X69115Y-35970D01*
X68957Y-36035D01*
X68935Y-36056D01*
X68915Y-36007D01*
X68794Y-35886D01*
X68636Y-35820D01*
X68465Y-35820D01*
X68307Y-35885D01*
X68186Y-36006D01*
X68127Y-36145D01*
X68115Y-36114D01*
X68032Y-36031D01*
X68115Y-35949D01*
X68199Y-35747D01*
X68199Y-35529D01*
X68115Y-35327D01*
X67961Y-35173D01*
X67759Y-35089D01*
X67541Y-35089D01*
X67339Y-35173D01*
X67185Y-35327D01*
X67180Y-35339D01*
X67180Y-33936D01*
X67180Y-33765D01*
X67115Y-33607D01*
X66994Y-33486D01*
X66836Y-33420D01*
X66665Y-33420D01*
X66507Y-33485D01*
X66386Y-33606D01*
X66320Y-33764D01*
X66320Y-33935D01*
X66385Y-34093D01*
X66506Y-34214D01*
X66664Y-34280D01*
X66835Y-34280D01*
X66993Y-34215D01*
X67114Y-34094D01*
X67180Y-33936D01*
X67180Y-35339D01*
X67101Y-35529D01*
X67101Y-35747D01*
X67185Y-35949D01*
X67267Y-36031D01*
X67185Y-36114D01*
X67101Y-36316D01*
X67101Y-36534D01*
X67185Y-36736D01*
X67268Y-36819D01*
X67185Y-36902D01*
X67101Y-37104D01*
X67101Y-37322D01*
X67185Y-37524D01*
X67267Y-37606D01*
X67185Y-37689D01*
X67101Y-37891D01*
X67101Y-38109D01*
X67185Y-38311D01*
X67267Y-38393D01*
X67185Y-38476D01*
X67101Y-38678D01*
X67101Y-38896D01*
X67185Y-39098D01*
X67268Y-39181D01*
X67185Y-39264D01*
X67101Y-39466D01*
X67101Y-39684D01*
X67185Y-39886D01*
X67267Y-39968D01*
X67185Y-40051D01*
X67101Y-40253D01*
X67101Y-40471D01*
X67185Y-40673D01*
X67339Y-40827D01*
X67438Y-40868D01*
X67650Y-41079D01*
X67861Y-40868D01*
X67961Y-40827D01*
X68115Y-40673D01*
X68199Y-40471D01*
X68199Y-40253D01*
X68115Y-40051D01*
X68032Y-39968D01*
X68115Y-39886D01*
X68199Y-39684D01*
X68199Y-39466D01*
X68115Y-39264D01*
X68032Y-39181D01*
X68115Y-39098D01*
X68199Y-38896D01*
X68199Y-38678D01*
X68115Y-38476D01*
X68032Y-38393D01*
X68115Y-38311D01*
X68199Y-38109D01*
X68199Y-37891D01*
X68115Y-37689D01*
X68032Y-37606D01*
X68115Y-37524D01*
X68199Y-37322D01*
X68199Y-37104D01*
X68115Y-36902D01*
X68032Y-36819D01*
X68115Y-36736D01*
X68199Y-36534D01*
X68199Y-36507D01*
X68306Y-36614D01*
X68464Y-36680D01*
X68635Y-36680D01*
X68793Y-36615D01*
X68814Y-36593D01*
X68835Y-36643D01*
X68956Y-36764D01*
X69114Y-36830D01*
X69285Y-36830D01*
X69443Y-36765D01*
X69564Y-36644D01*
X69579Y-36607D01*
X69635Y-36743D01*
X69756Y-36864D01*
X69770Y-36870D01*
X69665Y-36870D01*
X69507Y-36935D01*
X69386Y-37056D01*
X69320Y-37214D01*
X69320Y-37385D01*
X69385Y-37543D01*
X69506Y-37664D01*
X69664Y-37730D01*
X69835Y-37730D01*
X69993Y-37665D01*
X70114Y-37544D01*
X70180Y-37386D01*
X70180Y-37215D01*
X70115Y-37057D01*
X69994Y-36936D01*
X69979Y-36930D01*
X70085Y-36930D01*
X70243Y-36865D01*
X70364Y-36744D01*
X70430Y-36586D01*
X70430Y-46700D01*
X68193Y-46700D01*
X68193Y-41229D01*
X68182Y-41016D01*
X68122Y-40869D01*
X68028Y-40842D01*
X67721Y-41150D01*
X68028Y-41458D01*
X68122Y-41431D01*
X68193Y-41229D01*
X68193Y-46700D01*
X67958Y-46700D01*
X67958Y-41528D01*
X67650Y-41221D01*
X67579Y-41291D01*
X67579Y-41150D01*
X67272Y-40842D01*
X67178Y-40869D01*
X67107Y-41071D01*
X67118Y-41284D01*
X67178Y-41431D01*
X67272Y-41458D01*
X67579Y-41150D01*
X67579Y-41291D01*
X67342Y-41528D01*
X67369Y-41622D01*
X67571Y-41693D01*
X67784Y-41682D01*
X67931Y-41622D01*
X67958Y-41528D01*
X67958Y-46700D01*
X67131Y-46700D01*
X67131Y-42728D01*
X67131Y-42557D01*
X67074Y-42419D01*
X67130Y-42286D01*
X67130Y-42115D01*
X67065Y-41957D01*
X66944Y-41836D01*
X66786Y-41770D01*
X66730Y-41770D01*
X66730Y-35386D01*
X66730Y-35215D01*
X66665Y-35057D01*
X66544Y-34936D01*
X66386Y-34870D01*
X66215Y-34870D01*
X66057Y-34935D01*
X65936Y-35056D01*
X65870Y-35214D01*
X65870Y-35385D01*
X65935Y-35543D01*
X66056Y-35664D01*
X66214Y-35730D01*
X66385Y-35730D01*
X66543Y-35665D01*
X66664Y-35544D01*
X66730Y-35386D01*
X66730Y-41770D01*
X66615Y-41770D01*
X66457Y-41835D01*
X66380Y-41912D01*
X66380Y-38386D01*
X66380Y-38215D01*
X66315Y-38057D01*
X66194Y-37936D01*
X66036Y-37870D01*
X65930Y-37870D01*
X65930Y-37586D01*
X65930Y-37415D01*
X65865Y-37257D01*
X65744Y-37136D01*
X65586Y-37070D01*
X65580Y-37070D01*
X65580Y-34486D01*
X65580Y-34315D01*
X65515Y-34157D01*
X65394Y-34036D01*
X65236Y-33970D01*
X65065Y-33970D01*
X64907Y-34035D01*
X64786Y-34156D01*
X64720Y-34314D01*
X64720Y-34485D01*
X64785Y-34643D01*
X64906Y-34764D01*
X65064Y-34830D01*
X65235Y-34830D01*
X65393Y-34765D01*
X65514Y-34644D01*
X65580Y-34486D01*
X65580Y-37070D01*
X65415Y-37070D01*
X65257Y-37135D01*
X65136Y-37256D01*
X65070Y-37414D01*
X65070Y-37585D01*
X65135Y-37743D01*
X65256Y-37864D01*
X65414Y-37930D01*
X65585Y-37930D01*
X65743Y-37865D01*
X65864Y-37744D01*
X65930Y-37586D01*
X65930Y-37870D01*
X65865Y-37870D01*
X65707Y-37935D01*
X65586Y-38056D01*
X65520Y-38214D01*
X65520Y-38270D01*
X65415Y-38270D01*
X65257Y-38335D01*
X65136Y-38456D01*
X65070Y-38614D01*
X65070Y-38785D01*
X65135Y-38943D01*
X65256Y-39064D01*
X65414Y-39130D01*
X65585Y-39130D01*
X65743Y-39065D01*
X65864Y-38944D01*
X65930Y-38786D01*
X65930Y-38730D01*
X66035Y-38730D01*
X66193Y-38665D01*
X66314Y-38544D01*
X66380Y-38386D01*
X66380Y-41912D01*
X66336Y-41956D01*
X66270Y-42114D01*
X66270Y-42285D01*
X66326Y-42422D01*
X66271Y-42556D01*
X66271Y-42727D01*
X66336Y-42885D01*
X66377Y-42926D01*
X66357Y-42935D01*
X66236Y-43056D01*
X66230Y-43070D01*
X66115Y-43070D01*
X65957Y-43135D01*
X65880Y-43212D01*
X65880Y-40736D01*
X65880Y-40565D01*
X65815Y-40407D01*
X65694Y-40286D01*
X65536Y-40220D01*
X65365Y-40220D01*
X65207Y-40285D01*
X65086Y-40406D01*
X65020Y-40564D01*
X65020Y-40735D01*
X65085Y-40893D01*
X65206Y-41014D01*
X65364Y-41080D01*
X65535Y-41080D01*
X65693Y-41015D01*
X65814Y-40894D01*
X65880Y-40736D01*
X65880Y-43212D01*
X65836Y-43256D01*
X65770Y-43414D01*
X65770Y-43585D01*
X65835Y-43743D01*
X65956Y-43864D01*
X66114Y-43930D01*
X66285Y-43930D01*
X66443Y-43865D01*
X66564Y-43744D01*
X66569Y-43730D01*
X66685Y-43730D01*
X66843Y-43665D01*
X66964Y-43544D01*
X67030Y-43386D01*
X67030Y-43215D01*
X66965Y-43057D01*
X66923Y-43015D01*
X66944Y-43007D01*
X67065Y-42886D01*
X67131Y-42728D01*
X67131Y-46700D01*
X66630Y-46700D01*
X66630Y-45386D01*
X66630Y-45215D01*
X66565Y-45057D01*
X66444Y-44936D01*
X66286Y-44870D01*
X66115Y-44870D01*
X65957Y-44935D01*
X65836Y-45056D01*
X65828Y-45075D01*
X65716Y-45075D01*
X65560Y-45139D01*
X65440Y-45259D01*
X65375Y-45415D01*
X65375Y-45584D01*
X65439Y-45740D01*
X65559Y-45860D01*
X65715Y-45925D01*
X65884Y-45925D01*
X66040Y-45861D01*
X66160Y-45741D01*
X66164Y-45730D01*
X66285Y-45730D01*
X66443Y-45665D01*
X66564Y-45544D01*
X66630Y-45386D01*
X66630Y-46700D01*
X65049Y-46700D01*
X65049Y-41259D01*
X65049Y-41041D01*
X64965Y-40839D01*
X64882Y-40756D01*
X64965Y-40673D01*
X65049Y-40471D01*
X65049Y-40253D01*
X64965Y-40051D01*
X64882Y-39968D01*
X64965Y-39886D01*
X65049Y-39684D01*
X65049Y-39466D01*
X64965Y-39264D01*
X64882Y-39181D01*
X64965Y-39098D01*
X65049Y-38896D01*
X65049Y-38678D01*
X64965Y-38476D01*
X64882Y-38393D01*
X64965Y-38311D01*
X65049Y-38109D01*
X65049Y-37891D01*
X64965Y-37689D01*
X64882Y-37606D01*
X64965Y-37524D01*
X65049Y-37322D01*
X65049Y-37104D01*
X64965Y-36902D01*
X64882Y-36819D01*
X64965Y-36736D01*
X65049Y-36534D01*
X65049Y-36316D01*
X64965Y-36114D01*
X64882Y-36031D01*
X64965Y-35949D01*
X65049Y-35747D01*
X65049Y-35529D01*
X64965Y-35327D01*
X64811Y-35173D01*
X64609Y-35089D01*
X64391Y-35089D01*
X64189Y-35173D01*
X64080Y-35282D01*
X64080Y-33886D01*
X64080Y-33715D01*
X64015Y-33557D01*
X63894Y-33436D01*
X63736Y-33370D01*
X63565Y-33370D01*
X63407Y-33435D01*
X63286Y-33556D01*
X63220Y-33714D01*
X63220Y-33885D01*
X63285Y-34043D01*
X63406Y-34164D01*
X63564Y-34230D01*
X63735Y-34230D01*
X63893Y-34165D01*
X64014Y-34044D01*
X64080Y-33886D01*
X64080Y-35282D01*
X64035Y-35327D01*
X63951Y-35529D01*
X63951Y-35747D01*
X64035Y-35949D01*
X64117Y-36031D01*
X64035Y-36114D01*
X63951Y-36316D01*
X63951Y-36534D01*
X64035Y-36736D01*
X64118Y-36819D01*
X64035Y-36902D01*
X63951Y-37104D01*
X63951Y-37322D01*
X64035Y-37524D01*
X64117Y-37606D01*
X64035Y-37689D01*
X63951Y-37891D01*
X63951Y-38109D01*
X64035Y-38311D01*
X64117Y-38393D01*
X64035Y-38476D01*
X63951Y-38678D01*
X63951Y-38896D01*
X64035Y-39098D01*
X64118Y-39181D01*
X64035Y-39264D01*
X63951Y-39466D01*
X63951Y-39684D01*
X64035Y-39886D01*
X64117Y-39968D01*
X64035Y-40051D01*
X63951Y-40253D01*
X63951Y-40471D01*
X64035Y-40673D01*
X64118Y-40756D01*
X64035Y-40839D01*
X63951Y-41041D01*
X63951Y-41259D01*
X64035Y-41461D01*
X64189Y-41615D01*
X64391Y-41699D01*
X64609Y-41699D01*
X64811Y-41615D01*
X64965Y-41461D01*
X65049Y-41259D01*
X65049Y-46700D01*
X63680Y-46700D01*
X63680Y-39586D01*
X63680Y-39415D01*
X63615Y-39257D01*
X63494Y-39136D01*
X63336Y-39070D01*
X63288Y-39070D01*
X63364Y-38994D01*
X63430Y-38836D01*
X63430Y-38665D01*
X63365Y-38507D01*
X63244Y-38386D01*
X63086Y-38320D01*
X62930Y-38320D01*
X62930Y-37836D01*
X62930Y-37665D01*
X62865Y-37507D01*
X62744Y-37386D01*
X62680Y-37359D01*
X62680Y-32986D01*
X62680Y-32815D01*
X62615Y-32657D01*
X62494Y-32536D01*
X62336Y-32470D01*
X62165Y-32470D01*
X62007Y-32535D01*
X61886Y-32656D01*
X61820Y-32814D01*
X61820Y-32985D01*
X61885Y-33143D01*
X62006Y-33264D01*
X62164Y-33330D01*
X62335Y-33330D01*
X62493Y-33265D01*
X62614Y-33144D01*
X62680Y-32986D01*
X62680Y-37359D01*
X62586Y-37320D01*
X62415Y-37320D01*
X62257Y-37385D01*
X62136Y-37506D01*
X62070Y-37664D01*
X62070Y-37835D01*
X62135Y-37993D01*
X62256Y-38114D01*
X62414Y-38180D01*
X62585Y-38180D01*
X62743Y-38115D01*
X62864Y-37994D01*
X62930Y-37836D01*
X62930Y-38320D01*
X62915Y-38320D01*
X62757Y-38385D01*
X62636Y-38506D01*
X62570Y-38664D01*
X62570Y-38835D01*
X62635Y-38993D01*
X62756Y-39114D01*
X62914Y-39180D01*
X62962Y-39180D01*
X62886Y-39256D01*
X62820Y-39414D01*
X62820Y-39585D01*
X62885Y-39743D01*
X63006Y-39864D01*
X63164Y-39930D01*
X63335Y-39930D01*
X63493Y-39865D01*
X63614Y-39744D01*
X63680Y-39586D01*
X63680Y-46700D01*
X63630Y-46700D01*
X63630Y-40586D01*
X63630Y-40415D01*
X63565Y-40257D01*
X63444Y-40136D01*
X63286Y-40070D01*
X63115Y-40070D01*
X62957Y-40135D01*
X62836Y-40256D01*
X62770Y-40414D01*
X62770Y-40585D01*
X62835Y-40743D01*
X62956Y-40864D01*
X63114Y-40930D01*
X63285Y-40930D01*
X63443Y-40865D01*
X63564Y-40744D01*
X63630Y-40586D01*
X63630Y-46700D01*
X62430Y-46700D01*
X62430Y-42486D01*
X62430Y-42315D01*
X62365Y-42157D01*
X62244Y-42036D01*
X62086Y-41970D01*
X61915Y-41970D01*
X61880Y-41984D01*
X61880Y-41686D01*
X61880Y-41515D01*
X61815Y-41357D01*
X61694Y-41236D01*
X61536Y-41170D01*
X61430Y-41170D01*
X61430Y-37186D01*
X61430Y-37015D01*
X61365Y-36857D01*
X61244Y-36736D01*
X61086Y-36670D01*
X60980Y-36670D01*
X60980Y-34436D01*
X60980Y-34265D01*
X60915Y-34107D01*
X60794Y-33986D01*
X60636Y-33920D01*
X60465Y-33920D01*
X60307Y-33985D01*
X60186Y-34106D01*
X60120Y-34264D01*
X60120Y-34435D01*
X60185Y-34593D01*
X60306Y-34714D01*
X60464Y-34780D01*
X60635Y-34780D01*
X60793Y-34715D01*
X60914Y-34594D01*
X60980Y-34436D01*
X60980Y-36670D01*
X60915Y-36670D01*
X60880Y-36684D01*
X60880Y-36665D01*
X60815Y-36507D01*
X60694Y-36386D01*
X60536Y-36320D01*
X60365Y-36320D01*
X60207Y-36385D01*
X60086Y-36506D01*
X60049Y-36594D01*
X60049Y-33050D01*
X60049Y-32951D01*
X60049Y-32351D01*
X60011Y-32259D01*
X59941Y-32189D01*
X59850Y-32151D01*
X59751Y-32151D01*
X59151Y-32151D01*
X59059Y-32189D01*
X58989Y-32259D01*
X58951Y-32350D01*
X58951Y-32375D01*
X58811Y-32235D01*
X58609Y-32151D01*
X58391Y-32151D01*
X58189Y-32235D01*
X58035Y-32389D01*
X57997Y-32480D01*
X57972Y-32419D01*
X57878Y-32392D01*
X57808Y-32462D01*
X57808Y-32322D01*
X57781Y-32228D01*
X57579Y-32157D01*
X57366Y-32168D01*
X57219Y-32228D01*
X57192Y-32322D01*
X57500Y-32629D01*
X57808Y-32322D01*
X57808Y-32462D01*
X57571Y-32700D01*
X57878Y-33008D01*
X57972Y-32981D01*
X57995Y-32915D01*
X58035Y-33011D01*
X58189Y-33165D01*
X58391Y-33249D01*
X58609Y-33249D01*
X58811Y-33165D01*
X58951Y-33025D01*
X58951Y-33049D01*
X58989Y-33141D01*
X59059Y-33211D01*
X59145Y-33246D01*
X59136Y-33256D01*
X59070Y-33414D01*
X59070Y-33585D01*
X59135Y-33743D01*
X59256Y-33864D01*
X59414Y-33930D01*
X59585Y-33930D01*
X59743Y-33865D01*
X59864Y-33744D01*
X59930Y-33586D01*
X59930Y-33415D01*
X59865Y-33257D01*
X59854Y-33246D01*
X59941Y-33211D01*
X60011Y-33141D01*
X60049Y-33050D01*
X60049Y-36594D01*
X60020Y-36664D01*
X60020Y-36835D01*
X60085Y-36993D01*
X60206Y-37114D01*
X60364Y-37180D01*
X60516Y-37180D01*
X60198Y-37498D01*
X60137Y-37591D01*
X60114Y-37700D01*
X60115Y-37704D01*
X60115Y-37900D01*
X60137Y-38009D01*
X60198Y-38102D01*
X60291Y-38163D01*
X60400Y-38185D01*
X60509Y-38163D01*
X60602Y-38102D01*
X60663Y-38009D01*
X60685Y-37900D01*
X60685Y-37818D01*
X60973Y-37530D01*
X61085Y-37530D01*
X61243Y-37465D01*
X61364Y-37344D01*
X61430Y-37186D01*
X61430Y-41170D01*
X61365Y-41170D01*
X61207Y-41235D01*
X61086Y-41356D01*
X61020Y-41514D01*
X61020Y-41670D01*
X61015Y-41670D01*
X60857Y-41735D01*
X60852Y-41739D01*
X60734Y-41690D01*
X60563Y-41690D01*
X60405Y-41755D01*
X60284Y-41876D01*
X60218Y-42034D01*
X60218Y-42205D01*
X60283Y-42363D01*
X60390Y-42470D01*
X60315Y-42470D01*
X60157Y-42535D01*
X60036Y-42656D01*
X59970Y-42814D01*
X59970Y-42985D01*
X60035Y-43143D01*
X60156Y-43264D01*
X60314Y-43330D01*
X60485Y-43330D01*
X60643Y-43265D01*
X60764Y-43144D01*
X60830Y-42986D01*
X60830Y-42815D01*
X60765Y-42657D01*
X60658Y-42550D01*
X60733Y-42550D01*
X60891Y-42485D01*
X60895Y-42480D01*
X61014Y-42530D01*
X61185Y-42530D01*
X61343Y-42465D01*
X61464Y-42344D01*
X61530Y-42186D01*
X61530Y-42030D01*
X61535Y-42030D01*
X61693Y-41965D01*
X61814Y-41844D01*
X61880Y-41686D01*
X61880Y-41984D01*
X61757Y-42035D01*
X61636Y-42156D01*
X61570Y-42314D01*
X61570Y-42485D01*
X61635Y-42643D01*
X61756Y-42764D01*
X61914Y-42830D01*
X62085Y-42830D01*
X62243Y-42765D01*
X62364Y-42644D01*
X62430Y-42486D01*
X62430Y-46700D01*
X61230Y-46700D01*
X61230Y-44986D01*
X61230Y-44815D01*
X61165Y-44657D01*
X61044Y-44536D01*
X60886Y-44470D01*
X60715Y-44470D01*
X60557Y-44535D01*
X60436Y-44656D01*
X60370Y-44814D01*
X60370Y-44985D01*
X60435Y-45143D01*
X60556Y-45264D01*
X60714Y-45330D01*
X60885Y-45330D01*
X61043Y-45265D01*
X61164Y-45144D01*
X61230Y-44986D01*
X61230Y-46700D01*
X59530Y-46700D01*
X59530Y-36336D01*
X59530Y-36165D01*
X59465Y-36007D01*
X59344Y-35886D01*
X59186Y-35820D01*
X59030Y-35820D01*
X59030Y-33786D01*
X59030Y-33615D01*
X58965Y-33457D01*
X58844Y-33336D01*
X58686Y-33270D01*
X58515Y-33270D01*
X58357Y-33335D01*
X58236Y-33456D01*
X58170Y-33614D01*
X58170Y-33769D01*
X58165Y-33757D01*
X58044Y-33636D01*
X57886Y-33570D01*
X57808Y-33570D01*
X57808Y-33078D01*
X57500Y-32771D01*
X57429Y-32841D01*
X57429Y-32700D01*
X57122Y-32392D01*
X57028Y-32419D01*
X57004Y-32484D01*
X56965Y-32389D01*
X56811Y-32235D01*
X56609Y-32151D01*
X56391Y-32151D01*
X56189Y-32235D01*
X56035Y-32389D01*
X56000Y-32473D01*
X55965Y-32389D01*
X55811Y-32235D01*
X55609Y-32151D01*
X55391Y-32151D01*
X55189Y-32235D01*
X55035Y-32389D01*
X55000Y-32473D01*
X54965Y-32389D01*
X54811Y-32235D01*
X54609Y-32151D01*
X54391Y-32151D01*
X54189Y-32235D01*
X54035Y-32389D01*
X53951Y-32591D01*
X53951Y-32809D01*
X54035Y-33011D01*
X54189Y-33165D01*
X54391Y-33249D01*
X54609Y-33249D01*
X54811Y-33165D01*
X54965Y-33011D01*
X55000Y-32926D01*
X55035Y-33011D01*
X55189Y-33165D01*
X55391Y-33249D01*
X55609Y-33249D01*
X55811Y-33165D01*
X55965Y-33011D01*
X56000Y-32926D01*
X56035Y-33011D01*
X56189Y-33165D01*
X56391Y-33249D01*
X56609Y-33249D01*
X56811Y-33165D01*
X56965Y-33011D01*
X57002Y-32919D01*
X57028Y-32981D01*
X57122Y-33008D01*
X57429Y-32700D01*
X57429Y-32841D01*
X57192Y-33078D01*
X57219Y-33172D01*
X57421Y-33243D01*
X57634Y-33232D01*
X57781Y-33172D01*
X57808Y-33078D01*
X57808Y-33570D01*
X57715Y-33570D01*
X57557Y-33635D01*
X57436Y-33756D01*
X57430Y-33770D01*
X57265Y-33770D01*
X57107Y-33835D01*
X56986Y-33956D01*
X56920Y-34114D01*
X56920Y-34285D01*
X56929Y-34309D01*
X56836Y-34270D01*
X56830Y-34270D01*
X56830Y-33886D01*
X56830Y-33715D01*
X56765Y-33557D01*
X56644Y-33436D01*
X56486Y-33370D01*
X56315Y-33370D01*
X56157Y-33435D01*
X56036Y-33556D01*
X55970Y-33714D01*
X55970Y-33885D01*
X56035Y-34043D01*
X56156Y-34164D01*
X56314Y-34230D01*
X56485Y-34230D01*
X56643Y-34165D01*
X56764Y-34044D01*
X56830Y-33886D01*
X56830Y-34270D01*
X56665Y-34270D01*
X56507Y-34335D01*
X56386Y-34456D01*
X56320Y-34614D01*
X56320Y-34785D01*
X56385Y-34943D01*
X56506Y-35064D01*
X56664Y-35130D01*
X56835Y-35130D01*
X56993Y-35065D01*
X57114Y-34944D01*
X57180Y-34786D01*
X57180Y-34615D01*
X57170Y-34590D01*
X57264Y-34630D01*
X57435Y-34630D01*
X57593Y-34565D01*
X57714Y-34444D01*
X57719Y-34430D01*
X57885Y-34430D01*
X58043Y-34365D01*
X58164Y-34244D01*
X58230Y-34086D01*
X58230Y-33930D01*
X58235Y-33943D01*
X58356Y-34064D01*
X58514Y-34130D01*
X58685Y-34130D01*
X58843Y-34065D01*
X58964Y-33944D01*
X59030Y-33786D01*
X59030Y-35820D01*
X59015Y-35820D01*
X58857Y-35885D01*
X58736Y-36006D01*
X58670Y-36164D01*
X58670Y-36335D01*
X58735Y-36493D01*
X58821Y-36579D01*
X58807Y-36585D01*
X58686Y-36706D01*
X58675Y-36731D01*
X58665Y-36707D01*
X58544Y-36586D01*
X58386Y-36520D01*
X58215Y-36520D01*
X58057Y-36585D01*
X57936Y-36706D01*
X57870Y-36864D01*
X57870Y-37035D01*
X57935Y-37193D01*
X58056Y-37314D01*
X58214Y-37380D01*
X58385Y-37380D01*
X58543Y-37315D01*
X58664Y-37194D01*
X58674Y-37168D01*
X58685Y-37193D01*
X58806Y-37314D01*
X58964Y-37380D01*
X59135Y-37380D01*
X59293Y-37315D01*
X59414Y-37194D01*
X59480Y-37036D01*
X59480Y-36865D01*
X59415Y-36707D01*
X59328Y-36620D01*
X59343Y-36615D01*
X59464Y-36494D01*
X59530Y-36336D01*
X59530Y-46700D01*
X58905Y-46700D01*
X58905Y-40486D01*
X58905Y-40315D01*
X58840Y-40157D01*
X58730Y-40047D01*
X58730Y-38586D01*
X58730Y-38415D01*
X58665Y-38257D01*
X58544Y-38136D01*
X58386Y-38070D01*
X58215Y-38070D01*
X58057Y-38135D01*
X57936Y-38256D01*
X57870Y-38414D01*
X57870Y-38585D01*
X57935Y-38743D01*
X58056Y-38864D01*
X58214Y-38930D01*
X58385Y-38930D01*
X58543Y-38865D01*
X58664Y-38744D01*
X58730Y-38586D01*
X58730Y-40047D01*
X58719Y-40036D01*
X58561Y-39970D01*
X58390Y-39970D01*
X58232Y-40035D01*
X58111Y-40156D01*
X58045Y-40314D01*
X58045Y-40485D01*
X58110Y-40643D01*
X58231Y-40764D01*
X58389Y-40830D01*
X58560Y-40830D01*
X58718Y-40765D01*
X58839Y-40644D01*
X58905Y-40486D01*
X58905Y-46700D01*
X57930Y-46700D01*
X57930Y-41886D01*
X57930Y-41715D01*
X57865Y-41557D01*
X57830Y-41522D01*
X57830Y-39786D01*
X57830Y-39615D01*
X57765Y-39457D01*
X57644Y-39336D01*
X57486Y-39270D01*
X57315Y-39270D01*
X57157Y-39335D01*
X57036Y-39456D01*
X56970Y-39614D01*
X56970Y-39785D01*
X57035Y-39943D01*
X57156Y-40064D01*
X57314Y-40130D01*
X57485Y-40130D01*
X57643Y-40065D01*
X57764Y-39944D01*
X57830Y-39786D01*
X57830Y-41522D01*
X57744Y-41436D01*
X57586Y-41370D01*
X57415Y-41370D01*
X57257Y-41435D01*
X57136Y-41556D01*
X57070Y-41714D01*
X57070Y-41885D01*
X57135Y-42043D01*
X57256Y-42164D01*
X57414Y-42230D01*
X57585Y-42230D01*
X57743Y-42165D01*
X57864Y-42044D01*
X57930Y-41886D01*
X57930Y-46700D01*
X56980Y-46700D01*
X56980Y-40661D01*
X56980Y-40490D01*
X56915Y-40332D01*
X56825Y-40242D01*
X56825Y-38985D01*
X56825Y-38816D01*
X56761Y-38660D01*
X56641Y-38540D01*
X56580Y-38514D01*
X56580Y-35736D01*
X56580Y-35565D01*
X56515Y-35407D01*
X56394Y-35286D01*
X56236Y-35220D01*
X56065Y-35220D01*
X55907Y-35285D01*
X55786Y-35406D01*
X55720Y-35564D01*
X55720Y-35735D01*
X55785Y-35893D01*
X55906Y-36014D01*
X56064Y-36080D01*
X56235Y-36080D01*
X56393Y-36015D01*
X56514Y-35894D01*
X56580Y-35736D01*
X56580Y-38514D01*
X56485Y-38475D01*
X56316Y-38475D01*
X56180Y-38530D01*
X56180Y-37586D01*
X56180Y-37415D01*
X56115Y-37257D01*
X55994Y-37136D01*
X55836Y-37070D01*
X55665Y-37070D01*
X55630Y-37084D01*
X55630Y-35786D01*
X55630Y-35615D01*
X55630Y-34236D01*
X55630Y-34065D01*
X55565Y-33907D01*
X55444Y-33786D01*
X55286Y-33720D01*
X55115Y-33720D01*
X54957Y-33785D01*
X54836Y-33906D01*
X54770Y-34064D01*
X54770Y-34235D01*
X54835Y-34393D01*
X54956Y-34514D01*
X55114Y-34580D01*
X55285Y-34580D01*
X55443Y-34515D01*
X55564Y-34394D01*
X55630Y-34236D01*
X55630Y-35615D01*
X55565Y-35457D01*
X55444Y-35336D01*
X55286Y-35270D01*
X55115Y-35270D01*
X54957Y-35335D01*
X54836Y-35456D01*
X54770Y-35614D01*
X54770Y-35785D01*
X54835Y-35943D01*
X54956Y-36064D01*
X55114Y-36130D01*
X55285Y-36130D01*
X55443Y-36065D01*
X55564Y-35944D01*
X55630Y-35786D01*
X55630Y-37084D01*
X55507Y-37135D01*
X55475Y-37167D01*
X55444Y-37136D01*
X55286Y-37070D01*
X55115Y-37070D01*
X54957Y-37135D01*
X54836Y-37256D01*
X54770Y-37414D01*
X54770Y-37510D01*
X54685Y-37475D01*
X54516Y-37475D01*
X54360Y-37539D01*
X54240Y-37659D01*
X54186Y-37787D01*
X54060Y-37839D01*
X53940Y-37959D01*
X53875Y-38115D01*
X53875Y-38284D01*
X53939Y-38440D01*
X54059Y-38560D01*
X54215Y-38625D01*
X54384Y-38625D01*
X54540Y-38561D01*
X54660Y-38441D01*
X54713Y-38312D01*
X54840Y-38261D01*
X54960Y-38141D01*
X55025Y-37985D01*
X55025Y-37892D01*
X55114Y-37930D01*
X55285Y-37930D01*
X55443Y-37865D01*
X55475Y-37833D01*
X55506Y-37864D01*
X55664Y-37930D01*
X55835Y-37930D01*
X55993Y-37865D01*
X56114Y-37744D01*
X56180Y-37586D01*
X56180Y-38530D01*
X56160Y-38539D01*
X56040Y-38659D01*
X55975Y-38815D01*
X55975Y-38984D01*
X56039Y-39140D01*
X56159Y-39260D01*
X56315Y-39325D01*
X56484Y-39325D01*
X56640Y-39261D01*
X56760Y-39141D01*
X56825Y-38985D01*
X56825Y-40242D01*
X56794Y-40211D01*
X56636Y-40145D01*
X56605Y-40145D01*
X56630Y-40086D01*
X56630Y-39915D01*
X56565Y-39757D01*
X56444Y-39636D01*
X56286Y-39570D01*
X56115Y-39570D01*
X55957Y-39635D01*
X55850Y-39742D01*
X55844Y-39736D01*
X55686Y-39670D01*
X55515Y-39670D01*
X55357Y-39735D01*
X55236Y-39856D01*
X55170Y-40014D01*
X55170Y-40185D01*
X55235Y-40343D01*
X55356Y-40464D01*
X55514Y-40530D01*
X55685Y-40530D01*
X55843Y-40465D01*
X55950Y-40358D01*
X55956Y-40364D01*
X56114Y-40430D01*
X56144Y-40430D01*
X56120Y-40489D01*
X56120Y-40660D01*
X56185Y-40818D01*
X56306Y-40939D01*
X56464Y-41005D01*
X56635Y-41005D01*
X56793Y-40940D01*
X56914Y-40819D01*
X56980Y-40661D01*
X56980Y-46700D01*
X55480Y-46700D01*
X55480Y-43336D01*
X55480Y-43165D01*
X55415Y-43007D01*
X55294Y-42886D01*
X55230Y-42859D01*
X55230Y-40586D01*
X55230Y-40415D01*
X55165Y-40257D01*
X55044Y-40136D01*
X54886Y-40070D01*
X54770Y-40070D01*
X54765Y-40057D01*
X54644Y-39936D01*
X54486Y-39870D01*
X54315Y-39870D01*
X54157Y-39935D01*
X54036Y-40056D01*
X53970Y-40214D01*
X53970Y-40385D01*
X54035Y-40543D01*
X54156Y-40664D01*
X54314Y-40730D01*
X54429Y-40730D01*
X54435Y-40743D01*
X54556Y-40864D01*
X54714Y-40930D01*
X54885Y-40930D01*
X55043Y-40865D01*
X55164Y-40744D01*
X55230Y-40586D01*
X55230Y-42859D01*
X55136Y-42820D01*
X54965Y-42820D01*
X54807Y-42885D01*
X54686Y-43006D01*
X54620Y-43164D01*
X54620Y-43335D01*
X54685Y-43493D01*
X54806Y-43614D01*
X54964Y-43680D01*
X55135Y-43680D01*
X55293Y-43615D01*
X55414Y-43494D01*
X55480Y-43336D01*
X55480Y-46700D01*
X53285Y-46700D01*
X53285Y-35900D01*
X53285Y-35300D01*
X53284Y-35299D01*
X53285Y-35299D01*
X53281Y-35280D01*
X53263Y-35191D01*
X53230Y-35142D01*
X53230Y-35140D01*
X53230Y-35015D01*
X53165Y-34857D01*
X53044Y-34736D01*
X52886Y-34670D01*
X52715Y-34670D01*
X52557Y-34735D01*
X52436Y-34856D01*
X52370Y-35014D01*
X52370Y-35185D01*
X52435Y-35343D01*
X52556Y-35464D01*
X52714Y-35530D01*
X52715Y-35530D01*
X52715Y-35900D01*
X52737Y-36009D01*
X52798Y-36102D01*
X52891Y-36163D01*
X53000Y-36185D01*
X53109Y-36163D01*
X53202Y-36102D01*
X53263Y-36009D01*
X53285Y-35900D01*
X53285Y-46700D01*
X52930Y-46700D01*
X52930Y-43786D01*
X52930Y-43615D01*
X52865Y-43457D01*
X52744Y-43336D01*
X52730Y-43330D01*
X52730Y-38886D01*
X52730Y-38715D01*
X52665Y-38557D01*
X52544Y-38436D01*
X52386Y-38370D01*
X52215Y-38370D01*
X52057Y-38435D01*
X51936Y-38556D01*
X51870Y-38714D01*
X51870Y-38885D01*
X51935Y-39043D01*
X52056Y-39164D01*
X52214Y-39230D01*
X52385Y-39230D01*
X52543Y-39165D01*
X52664Y-39044D01*
X52730Y-38886D01*
X52730Y-43330D01*
X52586Y-43270D01*
X52415Y-43270D01*
X52330Y-43304D01*
X52330Y-42486D01*
X52330Y-42315D01*
X52265Y-42157D01*
X52144Y-42036D01*
X51986Y-41970D01*
X51815Y-41970D01*
X51780Y-41984D01*
X51780Y-41915D01*
X51715Y-41757D01*
X51594Y-41636D01*
X51436Y-41570D01*
X51265Y-41570D01*
X51107Y-41635D01*
X50986Y-41756D01*
X50920Y-41914D01*
X50920Y-42085D01*
X50985Y-42243D01*
X51106Y-42364D01*
X51264Y-42430D01*
X51435Y-42430D01*
X51470Y-42415D01*
X51470Y-42485D01*
X51535Y-42643D01*
X51656Y-42764D01*
X51814Y-42830D01*
X51985Y-42830D01*
X52143Y-42765D01*
X52264Y-42644D01*
X52330Y-42486D01*
X52330Y-43304D01*
X52257Y-43335D01*
X52136Y-43456D01*
X52070Y-43614D01*
X52070Y-43785D01*
X52135Y-43943D01*
X52256Y-44064D01*
X52414Y-44130D01*
X52585Y-44130D01*
X52743Y-44065D01*
X52864Y-43944D01*
X52930Y-43786D01*
X52930Y-46700D01*
X52161Y-46700D01*
X52199Y-46609D01*
X52199Y-46391D01*
X52115Y-46189D01*
X51961Y-46035D01*
X51759Y-45951D01*
X51541Y-45951D01*
X51339Y-46035D01*
X51256Y-46118D01*
X51173Y-46035D01*
X50971Y-45951D01*
X50753Y-45951D01*
X50551Y-46035D01*
X50468Y-46117D01*
X50386Y-46035D01*
X50184Y-45951D01*
X49966Y-45951D01*
X49764Y-46035D01*
X49681Y-46118D01*
X49598Y-46035D01*
X49396Y-45951D01*
X49178Y-45951D01*
X48976Y-46035D01*
X48822Y-46189D01*
X48808Y-46221D01*
X48808Y-46122D01*
X48781Y-46028D01*
X48579Y-45957D01*
X48366Y-45968D01*
X48219Y-46028D01*
X48192Y-46122D01*
X48500Y-46429D01*
X48808Y-46122D01*
X48808Y-46221D01*
X48779Y-46290D01*
X48571Y-46500D01*
X48500Y-46571D01*
X48429Y-46500D01*
X48394Y-46465D01*
X48220Y-46290D01*
X48178Y-46189D01*
X48024Y-46035D01*
X47822Y-45951D01*
X47604Y-45951D01*
X47402Y-46035D01*
X47342Y-46094D01*
X47333Y-45396D01*
X47414Y-45430D01*
X47585Y-45430D01*
X47743Y-45365D01*
X47864Y-45244D01*
X47930Y-45086D01*
X47930Y-44915D01*
X47865Y-44757D01*
X47744Y-44636D01*
X47586Y-44570D01*
X47415Y-44570D01*
X47324Y-44607D01*
X47303Y-42766D01*
X47335Y-42843D01*
X47456Y-42964D01*
X47591Y-43020D01*
X47557Y-43035D01*
X47436Y-43156D01*
X47370Y-43314D01*
X47370Y-43485D01*
X47435Y-43643D01*
X47556Y-43764D01*
X47714Y-43830D01*
X47885Y-43830D01*
X48043Y-43765D01*
X48164Y-43644D01*
X48213Y-43525D01*
X48460Y-43525D01*
X48569Y-43503D01*
X48662Y-43442D01*
X48723Y-43349D01*
X48745Y-43240D01*
X48723Y-43131D01*
X48662Y-43038D01*
X48569Y-42977D01*
X48460Y-42955D01*
X47960Y-42955D01*
X47951Y-42956D01*
X48064Y-42844D01*
X48130Y-42686D01*
X48130Y-42515D01*
X48065Y-42357D01*
X47944Y-42236D01*
X47786Y-42170D01*
X47615Y-42170D01*
X47457Y-42235D01*
X47336Y-42356D01*
X47303Y-42432D01*
X47743Y-40041D01*
X50900Y-39289D01*
X50900Y-37608D01*
X50956Y-37664D01*
X51114Y-37730D01*
X51285Y-37730D01*
X51443Y-37665D01*
X51564Y-37544D01*
X51630Y-37386D01*
X51630Y-37215D01*
X51565Y-37057D01*
X51444Y-36936D01*
X51286Y-36870D01*
X51115Y-36870D01*
X50957Y-36935D01*
X50900Y-36992D01*
X50900Y-35968D01*
X52511Y-33985D01*
X52535Y-34043D01*
X52656Y-34164D01*
X52814Y-34230D01*
X52985Y-34230D01*
X53143Y-34165D01*
X53182Y-34125D01*
X53314Y-34180D01*
X53485Y-34180D01*
X53643Y-34115D01*
X53764Y-33994D01*
X53830Y-33836D01*
X53830Y-33665D01*
X53765Y-33507D01*
X53644Y-33386D01*
X53486Y-33320D01*
X53315Y-33320D01*
X53157Y-33385D01*
X53117Y-33424D01*
X53078Y-33408D01*
X53130Y-33286D01*
X53130Y-33115D01*
X53065Y-32957D01*
X52944Y-32836D01*
X52850Y-32796D01*
X52850Y-31650D01*
X86550Y-31650D01*
G54D10*
G36*
X44950Y-46950D02*
X44699Y-46950D01*
X44699Y-46500D01*
X44699Y-46401D01*
X44699Y-42901D01*
X44661Y-42809D01*
X44591Y-42739D01*
X44500Y-42701D01*
X44401Y-42701D01*
X40901Y-42701D01*
X40809Y-42739D01*
X40739Y-42809D01*
X40701Y-42900D01*
X40701Y-42999D01*
X40701Y-46499D01*
X40739Y-46591D01*
X40809Y-46661D01*
X40900Y-46699D01*
X40999Y-46699D01*
X44499Y-46699D01*
X44591Y-46661D01*
X44661Y-46591D01*
X44699Y-46500D01*
X44699Y-46950D01*
X39330Y-46950D01*
X39330Y-41986D01*
X39330Y-41815D01*
X39265Y-41657D01*
X39230Y-41622D01*
X39230Y-32986D01*
X39230Y-32815D01*
X39165Y-32657D01*
X39044Y-32536D01*
X38886Y-32470D01*
X38715Y-32470D01*
X38557Y-32535D01*
X38436Y-32656D01*
X38370Y-32814D01*
X38370Y-32985D01*
X38435Y-33143D01*
X38556Y-33264D01*
X38714Y-33330D01*
X38885Y-33330D01*
X39043Y-33265D01*
X39164Y-33144D01*
X39230Y-32986D01*
X39230Y-41622D01*
X39144Y-41536D01*
X38986Y-41470D01*
X38815Y-41470D01*
X38657Y-41535D01*
X38536Y-41656D01*
X38470Y-41814D01*
X38470Y-41985D01*
X38535Y-42143D01*
X38656Y-42264D01*
X38814Y-42330D01*
X38985Y-42330D01*
X39143Y-42265D01*
X39264Y-42144D01*
X39330Y-41986D01*
X39330Y-46950D01*
X36800Y-46950D01*
X36800Y-45812D01*
X36800Y-45588D01*
X36799Y-45399D01*
X36799Y-45300D01*
X36761Y-45209D01*
X36691Y-45139D01*
X36632Y-45114D01*
X36708Y-45039D01*
X36799Y-44819D01*
X36799Y-44581D01*
X36708Y-44361D01*
X36547Y-44200D01*
X36708Y-44039D01*
X36799Y-43819D01*
X36799Y-43581D01*
X36799Y-40619D01*
X36799Y-40381D01*
X36708Y-40161D01*
X36632Y-40085D01*
X36691Y-40061D01*
X36761Y-39991D01*
X36799Y-39900D01*
X36799Y-39801D01*
X36799Y-39101D01*
X36793Y-39086D01*
X36761Y-39009D01*
X36691Y-38939D01*
X36643Y-38919D01*
X36702Y-38861D01*
X36666Y-38825D01*
X36713Y-38810D01*
X36793Y-38591D01*
X36782Y-38356D01*
X36713Y-38190D01*
X36614Y-38157D01*
X36600Y-38171D01*
X36600Y-33612D01*
X36600Y-33388D01*
X36599Y-33199D01*
X36599Y-33100D01*
X36561Y-33009D01*
X36491Y-32939D01*
X36432Y-32914D01*
X36508Y-32839D01*
X36599Y-32619D01*
X36599Y-32381D01*
X36508Y-32161D01*
X36339Y-31992D01*
X36119Y-31901D01*
X35881Y-31901D01*
X35661Y-31992D01*
X35492Y-32161D01*
X35401Y-32381D01*
X35401Y-32619D01*
X35492Y-32839D01*
X35567Y-32914D01*
X35509Y-32939D01*
X35439Y-33009D01*
X35401Y-33100D01*
X35401Y-33199D01*
X35400Y-33388D01*
X35462Y-33450D01*
X35900Y-33450D01*
X35950Y-33450D01*
X36050Y-33450D01*
X36100Y-33450D01*
X36538Y-33450D01*
X36600Y-33388D01*
X36600Y-33612D01*
X36538Y-33550D01*
X36100Y-33550D01*
X36050Y-33550D01*
X35950Y-33550D01*
X35900Y-33550D01*
X35462Y-33550D01*
X35400Y-33612D01*
X35401Y-33801D01*
X35401Y-33900D01*
X35439Y-33991D01*
X35509Y-34061D01*
X35567Y-34085D01*
X35492Y-34161D01*
X35401Y-34381D01*
X35401Y-34619D01*
X35492Y-34839D01*
X35661Y-35008D01*
X35881Y-35099D01*
X36119Y-35099D01*
X36339Y-35008D01*
X36508Y-34839D01*
X36599Y-34619D01*
X36599Y-34381D01*
X36508Y-34161D01*
X36432Y-34085D01*
X36491Y-34061D01*
X36561Y-33991D01*
X36599Y-33900D01*
X36599Y-33801D01*
X36600Y-33612D01*
X36600Y-38171D01*
X36543Y-38228D01*
X36543Y-38086D01*
X36510Y-37987D01*
X36291Y-37907D01*
X36056Y-37918D01*
X35890Y-37987D01*
X35857Y-38086D01*
X36200Y-38429D01*
X36543Y-38086D01*
X36543Y-38228D01*
X36306Y-38465D01*
X36271Y-38500D01*
X36200Y-38571D01*
X36129Y-38500D01*
X36094Y-38465D01*
X35786Y-38157D01*
X35687Y-38190D01*
X35607Y-38409D01*
X35618Y-38644D01*
X35687Y-38810D01*
X35733Y-38825D01*
X35698Y-38861D01*
X35756Y-38919D01*
X35709Y-38939D01*
X35639Y-39009D01*
X35601Y-39100D01*
X35601Y-39199D01*
X35601Y-39899D01*
X35639Y-39991D01*
X35709Y-40061D01*
X35767Y-40085D01*
X35692Y-40161D01*
X35601Y-40381D01*
X35601Y-40619D01*
X35692Y-40839D01*
X35861Y-41008D01*
X36081Y-41099D01*
X36319Y-41099D01*
X36539Y-41008D01*
X36708Y-40839D01*
X36799Y-40619D01*
X36799Y-43581D01*
X36708Y-43361D01*
X36539Y-43192D01*
X36319Y-43101D01*
X36081Y-43101D01*
X35861Y-43192D01*
X35692Y-43361D01*
X35601Y-43581D01*
X35601Y-43819D01*
X35692Y-44039D01*
X35853Y-44200D01*
X35692Y-44361D01*
X35601Y-44581D01*
X35601Y-44819D01*
X35692Y-45039D01*
X35767Y-45114D01*
X35709Y-45139D01*
X35639Y-45209D01*
X35601Y-45300D01*
X35601Y-45399D01*
X35600Y-45588D01*
X35662Y-45650D01*
X36100Y-45650D01*
X36150Y-45650D01*
X36250Y-45650D01*
X36300Y-45650D01*
X36738Y-45650D01*
X36800Y-45588D01*
X36800Y-45812D01*
X36738Y-45750D01*
X36250Y-45750D01*
X36250Y-46238D01*
X36312Y-46300D01*
X36599Y-46299D01*
X36691Y-46261D01*
X36761Y-46191D01*
X36799Y-46100D01*
X36799Y-46001D01*
X36800Y-45812D01*
X36800Y-46950D01*
X36150Y-46950D01*
X36150Y-46238D01*
X36150Y-45750D01*
X35662Y-45750D01*
X35600Y-45812D01*
X35601Y-46001D01*
X35601Y-46100D01*
X35639Y-46191D01*
X35709Y-46261D01*
X35801Y-46299D01*
X36088Y-46300D01*
X36150Y-46238D01*
X36150Y-46950D01*
X33550Y-46950D01*
X33550Y-31050D01*
X44950Y-31050D01*
X44950Y-40070D01*
X44915Y-40070D01*
X44757Y-40135D01*
X44699Y-40193D01*
X44699Y-37701D01*
X44661Y-37609D01*
X44591Y-37539D01*
X44500Y-37501D01*
X44499Y-37501D01*
X44499Y-35300D01*
X44499Y-35201D01*
X44499Y-31701D01*
X44461Y-31609D01*
X44391Y-31539D01*
X44300Y-31501D01*
X44201Y-31501D01*
X40701Y-31501D01*
X40609Y-31539D01*
X40539Y-31609D01*
X40501Y-31700D01*
X40501Y-31799D01*
X40501Y-35299D01*
X40539Y-35391D01*
X40609Y-35461D01*
X40700Y-35499D01*
X40799Y-35499D01*
X44299Y-35499D01*
X44391Y-35461D01*
X44461Y-35391D01*
X44499Y-35300D01*
X44499Y-37501D01*
X44401Y-37501D01*
X40901Y-37501D01*
X40809Y-37539D01*
X40739Y-37609D01*
X40701Y-37700D01*
X40701Y-37799D01*
X40701Y-41299D01*
X40739Y-41391D01*
X40809Y-41461D01*
X40900Y-41499D01*
X40999Y-41499D01*
X44499Y-41499D01*
X44591Y-41461D01*
X44661Y-41391D01*
X44699Y-41300D01*
X44699Y-41201D01*
X44699Y-40807D01*
X44756Y-40864D01*
X44914Y-40930D01*
X44950Y-40930D01*
X44950Y-46950D01*
X44950Y-46950D01*
G37*
G54D25*
X44950Y-46950D02*
X44699Y-46950D01*
X44699Y-46500D01*
X44699Y-46401D01*
X44699Y-42901D01*
X44661Y-42809D01*
X44591Y-42739D01*
X44500Y-42701D01*
X44401Y-42701D01*
X40901Y-42701D01*
X40809Y-42739D01*
X40739Y-42809D01*
X40701Y-42900D01*
X40701Y-42999D01*
X40701Y-46499D01*
X40739Y-46591D01*
X40809Y-46661D01*
X40900Y-46699D01*
X40999Y-46699D01*
X44499Y-46699D01*
X44591Y-46661D01*
X44661Y-46591D01*
X44699Y-46500D01*
X44699Y-46950D01*
X39330Y-46950D01*
X39330Y-41986D01*
X39330Y-41815D01*
X39265Y-41657D01*
X39230Y-41622D01*
X39230Y-32986D01*
X39230Y-32815D01*
X39165Y-32657D01*
X39044Y-32536D01*
X38886Y-32470D01*
X38715Y-32470D01*
X38557Y-32535D01*
X38436Y-32656D01*
X38370Y-32814D01*
X38370Y-32985D01*
X38435Y-33143D01*
X38556Y-33264D01*
X38714Y-33330D01*
X38885Y-33330D01*
X39043Y-33265D01*
X39164Y-33144D01*
X39230Y-32986D01*
X39230Y-41622D01*
X39144Y-41536D01*
X38986Y-41470D01*
X38815Y-41470D01*
X38657Y-41535D01*
X38536Y-41656D01*
X38470Y-41814D01*
X38470Y-41985D01*
X38535Y-42143D01*
X38656Y-42264D01*
X38814Y-42330D01*
X38985Y-42330D01*
X39143Y-42265D01*
X39264Y-42144D01*
X39330Y-41986D01*
X39330Y-46950D01*
X36800Y-46950D01*
X36800Y-45812D01*
X36800Y-45588D01*
X36799Y-45399D01*
X36799Y-45300D01*
X36761Y-45209D01*
X36691Y-45139D01*
X36632Y-45114D01*
X36708Y-45039D01*
X36799Y-44819D01*
X36799Y-44581D01*
X36708Y-44361D01*
X36547Y-44200D01*
X36708Y-44039D01*
X36799Y-43819D01*
X36799Y-43581D01*
X36799Y-40619D01*
X36799Y-40381D01*
X36708Y-40161D01*
X36632Y-40085D01*
X36691Y-40061D01*
X36761Y-39991D01*
X36799Y-39900D01*
X36799Y-39801D01*
X36799Y-39101D01*
X36793Y-39086D01*
X36761Y-39009D01*
X36691Y-38939D01*
X36643Y-38919D01*
X36702Y-38861D01*
X36666Y-38825D01*
X36713Y-38810D01*
X36793Y-38591D01*
X36782Y-38356D01*
X36713Y-38190D01*
X36614Y-38157D01*
X36600Y-38171D01*
X36600Y-33612D01*
X36600Y-33388D01*
X36599Y-33199D01*
X36599Y-33100D01*
X36561Y-33009D01*
X36491Y-32939D01*
X36432Y-32914D01*
X36508Y-32839D01*
X36599Y-32619D01*
X36599Y-32381D01*
X36508Y-32161D01*
X36339Y-31992D01*
X36119Y-31901D01*
X35881Y-31901D01*
X35661Y-31992D01*
X35492Y-32161D01*
X35401Y-32381D01*
X35401Y-32619D01*
X35492Y-32839D01*
X35567Y-32914D01*
X35509Y-32939D01*
X35439Y-33009D01*
X35401Y-33100D01*
X35401Y-33199D01*
X35400Y-33388D01*
X35462Y-33450D01*
X35900Y-33450D01*
X35950Y-33450D01*
X36050Y-33450D01*
X36100Y-33450D01*
X36538Y-33450D01*
X36600Y-33388D01*
X36600Y-33612D01*
X36538Y-33550D01*
X36100Y-33550D01*
X36050Y-33550D01*
X35950Y-33550D01*
X35900Y-33550D01*
X35462Y-33550D01*
X35400Y-33612D01*
X35401Y-33801D01*
X35401Y-33900D01*
X35439Y-33991D01*
X35509Y-34061D01*
X35567Y-34085D01*
X35492Y-34161D01*
X35401Y-34381D01*
X35401Y-34619D01*
X35492Y-34839D01*
X35661Y-35008D01*
X35881Y-35099D01*
X36119Y-35099D01*
X36339Y-35008D01*
X36508Y-34839D01*
X36599Y-34619D01*
X36599Y-34381D01*
X36508Y-34161D01*
X36432Y-34085D01*
X36491Y-34061D01*
X36561Y-33991D01*
X36599Y-33900D01*
X36599Y-33801D01*
X36600Y-33612D01*
X36600Y-38171D01*
X36543Y-38228D01*
X36543Y-38086D01*
X36510Y-37987D01*
X36291Y-37907D01*
X36056Y-37918D01*
X35890Y-37987D01*
X35857Y-38086D01*
X36200Y-38429D01*
X36543Y-38086D01*
X36543Y-38228D01*
X36306Y-38465D01*
X36271Y-38500D01*
X36200Y-38571D01*
X36129Y-38500D01*
X36094Y-38465D01*
X35786Y-38157D01*
X35687Y-38190D01*
X35607Y-38409D01*
X35618Y-38644D01*
X35687Y-38810D01*
X35733Y-38825D01*
X35698Y-38861D01*
X35756Y-38919D01*
X35709Y-38939D01*
X35639Y-39009D01*
X35601Y-39100D01*
X35601Y-39199D01*
X35601Y-39899D01*
X35639Y-39991D01*
X35709Y-40061D01*
X35767Y-40085D01*
X35692Y-40161D01*
X35601Y-40381D01*
X35601Y-40619D01*
X35692Y-40839D01*
X35861Y-41008D01*
X36081Y-41099D01*
X36319Y-41099D01*
X36539Y-41008D01*
X36708Y-40839D01*
X36799Y-40619D01*
X36799Y-43581D01*
X36708Y-43361D01*
X36539Y-43192D01*
X36319Y-43101D01*
X36081Y-43101D01*
X35861Y-43192D01*
X35692Y-43361D01*
X35601Y-43581D01*
X35601Y-43819D01*
X35692Y-44039D01*
X35853Y-44200D01*
X35692Y-44361D01*
X35601Y-44581D01*
X35601Y-44819D01*
X35692Y-45039D01*
X35767Y-45114D01*
X35709Y-45139D01*
X35639Y-45209D01*
X35601Y-45300D01*
X35601Y-45399D01*
X35600Y-45588D01*
X35662Y-45650D01*
X36100Y-45650D01*
X36150Y-45650D01*
X36250Y-45650D01*
X36300Y-45650D01*
X36738Y-45650D01*
X36800Y-45588D01*
X36800Y-45812D01*
X36738Y-45750D01*
X36250Y-45750D01*
X36250Y-46238D01*
X36312Y-46300D01*
X36599Y-46299D01*
X36691Y-46261D01*
X36761Y-46191D01*
X36799Y-46100D01*
X36799Y-46001D01*
X36800Y-45812D01*
X36800Y-46950D01*
X36150Y-46950D01*
X36150Y-46238D01*
X36150Y-45750D01*
X35662Y-45750D01*
X35600Y-45812D01*
X35601Y-46001D01*
X35601Y-46100D01*
X35639Y-46191D01*
X35709Y-46261D01*
X35801Y-46299D01*
X36088Y-46300D01*
X36150Y-46238D01*
X36150Y-46950D01*
X33550Y-46950D01*
X33550Y-31050D01*
X44950Y-31050D01*
X44950Y-40070D01*
X44915Y-40070D01*
X44757Y-40135D01*
X44699Y-40193D01*
X44699Y-37701D01*
X44661Y-37609D01*
X44591Y-37539D01*
X44500Y-37501D01*
X44499Y-37501D01*
X44499Y-35300D01*
X44499Y-35201D01*
X44499Y-31701D01*
X44461Y-31609D01*
X44391Y-31539D01*
X44300Y-31501D01*
X44201Y-31501D01*
X40701Y-31501D01*
X40609Y-31539D01*
X40539Y-31609D01*
X40501Y-31700D01*
X40501Y-31799D01*
X40501Y-35299D01*
X40539Y-35391D01*
X40609Y-35461D01*
X40700Y-35499D01*
X40799Y-35499D01*
X44299Y-35499D01*
X44391Y-35461D01*
X44461Y-35391D01*
X44499Y-35300D01*
X44499Y-37501D01*
X44401Y-37501D01*
X40901Y-37501D01*
X40809Y-37539D01*
X40739Y-37609D01*
X40701Y-37700D01*
X40701Y-37799D01*
X40701Y-41299D01*
X40739Y-41391D01*
X40809Y-41461D01*
X40900Y-41499D01*
X40999Y-41499D01*
X44499Y-41499D01*
X44591Y-41461D01*
X44661Y-41391D01*
X44699Y-41300D01*
X44699Y-41201D01*
X44699Y-40807D01*
X44756Y-40864D01*
X44914Y-40930D01*
X44950Y-40930D01*
X44950Y-46950D01*
M02*
