G04 (created by PCBNEW-RS274X (2012-01-19 BZR 3256)-stable) date 10/22/2012 3:06:11 PM*
G01*
G70*
G90*
%MOIN*%
G04 Gerber Fmt 3.4, Leading zero omitted, Abs format*
%FSLAX34Y34*%
G04 APERTURE LIST*
%ADD10C,0.006000*%
%ADD11C,0.015000*%
%ADD12R,0.090000X0.090000*%
%ADD13C,0.090000*%
%ADD14R,0.370000X0.370000*%
%ADD15R,0.080000X0.100000*%
%ADD16R,0.100000X0.080000*%
%ADD17R,0.080000X0.080000*%
%ADD18C,0.080000*%
%ADD19C,0.075000*%
%ADD20C,0.067200*%
%ADD21C,0.055400*%
%ADD22C,0.067000*%
%ADD23C,0.148000*%
%ADD24C,0.082000*%
G04 APERTURE END LIST*
G54D10*
G54D11*
X87000Y-30500D02*
X33000Y-30500D01*
X87000Y-47500D02*
X87000Y-30500D01*
X33000Y-47500D02*
X87000Y-47500D01*
X33000Y-30500D02*
X33000Y-47500D01*
X87000Y-30500D02*
X33000Y-30500D01*
X87000Y-47500D02*
X87000Y-30500D01*
X33000Y-47500D02*
X87000Y-47500D01*
X33000Y-30500D02*
X33000Y-47500D01*
G54D12*
X36200Y-45700D03*
G54D13*
X36200Y-43700D03*
X36200Y-44700D03*
G54D14*
X42700Y-44700D03*
G54D15*
X52250Y-35850D03*
X53550Y-35850D03*
X66450Y-46250D03*
X65150Y-46250D03*
G54D16*
X65550Y-42600D03*
X65550Y-41300D03*
G54D15*
X55950Y-36300D03*
X54650Y-36300D03*
X74400Y-43050D03*
X75700Y-43050D03*
X59125Y-37900D03*
X60425Y-37900D03*
G54D16*
X54450Y-35300D03*
X54450Y-34000D03*
G54D15*
X59150Y-40250D03*
X60450Y-40250D03*
X55500Y-42350D03*
X54200Y-42350D03*
X56550Y-42525D03*
X57850Y-42525D03*
X62125Y-41575D03*
X63425Y-41575D03*
G54D16*
X49550Y-42750D03*
X49550Y-44050D03*
X38450Y-40650D03*
X38450Y-39350D03*
G54D17*
X68500Y-32500D03*
G54D18*
X67500Y-32500D03*
G54D17*
X46400Y-37900D03*
G54D18*
X45400Y-37900D03*
G54D17*
X59500Y-32700D03*
G54D18*
X58500Y-32700D03*
X57500Y-32700D03*
X56500Y-32700D03*
X55500Y-32700D03*
X54500Y-32700D03*
G54D14*
X42500Y-33500D03*
G54D13*
X36000Y-32500D03*
G54D12*
X36000Y-33500D03*
G54D13*
X36000Y-34500D03*
G54D14*
X42700Y-39500D03*
G54D13*
X36200Y-38500D03*
G54D12*
X36200Y-39500D03*
G54D13*
X36200Y-40500D03*
G54D19*
X47409Y-36000D03*
X48591Y-36000D03*
X47409Y-33000D03*
X48591Y-33000D03*
G54D18*
X64500Y-38787D03*
X64500Y-38000D03*
X64500Y-39575D03*
X64500Y-37213D03*
X64500Y-36425D03*
X64500Y-40362D03*
X64500Y-35638D03*
X64500Y-41150D03*
X67650Y-38787D03*
X67650Y-38000D03*
X67650Y-39575D03*
X67650Y-37213D03*
X67650Y-36425D03*
X67650Y-40362D03*
X67650Y-35638D03*
X67650Y-41150D03*
G54D20*
X73600Y-40150D03*
G54D21*
X75864Y-40150D03*
G54D15*
X75850Y-46900D03*
X77150Y-46900D03*
G54D17*
X35300Y-42200D03*
G54D18*
X34300Y-42200D03*
X49287Y-46500D03*
X48500Y-46500D03*
X50075Y-46500D03*
X47713Y-46500D03*
X46925Y-46500D03*
X50862Y-46500D03*
X46138Y-46500D03*
X51650Y-46500D03*
G54D22*
X78400Y-40500D03*
X78400Y-41500D03*
X78400Y-45180D03*
X78400Y-46180D03*
X79370Y-41340D03*
X79370Y-42140D03*
X79370Y-42940D03*
X79370Y-43740D03*
X79370Y-44540D03*
X79370Y-45340D03*
G54D23*
X83770Y-40840D03*
X83770Y-45840D03*
G54D24*
X85020Y-40165D03*
X85020Y-46515D03*
M02*
