G04 (created by PCBNEW-RS274X (2012-01-19 BZR 3256)-stable) date 10/27/2012 3:32:48 PM*
G01*
G70*
G90*
%MOIN*%
G04 Gerber Fmt 3.4, Leading zero omitted, Abs format*
%FSLAX34Y34*%
G04 APERTURE LIST*
%ADD10C,0.006000*%
%ADD11R,0.090000X0.090000*%
%ADD12C,0.090000*%
%ADD13R,0.370000X0.370000*%
%ADD14R,0.080000X0.100000*%
%ADD15R,0.100000X0.080000*%
%ADD16R,0.080000X0.080000*%
%ADD17C,0.080000*%
%ADD18C,0.075000*%
%ADD19C,0.067200*%
%ADD20C,0.055400*%
%ADD21R,0.120000X0.120000*%
%ADD22C,0.120000*%
%ADD23C,0.074000*%
%ADD24C,0.069000*%
%ADD25C,0.148000*%
%ADD26C,0.082000*%
G04 APERTURE END LIST*
G54D10*
G54D11*
X36200Y-45700D03*
G54D12*
X36200Y-43700D03*
X36200Y-44700D03*
G54D13*
X42700Y-44700D03*
G54D14*
X52250Y-35850D03*
X53550Y-35850D03*
X66450Y-46250D03*
X65150Y-46250D03*
G54D15*
X65550Y-42600D03*
X65550Y-41300D03*
G54D14*
X55950Y-36300D03*
X54650Y-36300D03*
X74400Y-43050D03*
X75700Y-43050D03*
X59125Y-37900D03*
X60425Y-37900D03*
G54D15*
X54450Y-35300D03*
X54450Y-34000D03*
G54D14*
X59150Y-40250D03*
X60450Y-40250D03*
X55500Y-42350D03*
X54200Y-42350D03*
X56550Y-42525D03*
X57850Y-42525D03*
X62125Y-41575D03*
X63425Y-41575D03*
G54D15*
X49550Y-42750D03*
X49550Y-44050D03*
X38450Y-40650D03*
X38450Y-39350D03*
G54D16*
X68500Y-32500D03*
G54D17*
X67500Y-32500D03*
G54D16*
X59500Y-32700D03*
G54D17*
X58500Y-32700D03*
X57500Y-32700D03*
X56500Y-32700D03*
X55500Y-32700D03*
X54500Y-32700D03*
G54D13*
X42500Y-33500D03*
G54D12*
X36000Y-32500D03*
G54D11*
X36000Y-33500D03*
G54D12*
X36000Y-34500D03*
G54D13*
X42700Y-39500D03*
G54D12*
X36200Y-38500D03*
G54D11*
X36200Y-39500D03*
G54D12*
X36200Y-40500D03*
G54D18*
X47409Y-36000D03*
X48591Y-36000D03*
X47409Y-33000D03*
X48591Y-33000D03*
G54D17*
X64500Y-38787D03*
X64500Y-38000D03*
X64500Y-39575D03*
X64500Y-37213D03*
X64500Y-36425D03*
X64500Y-40362D03*
X64500Y-35638D03*
X64500Y-41150D03*
X67650Y-38787D03*
X67650Y-38000D03*
X67650Y-39575D03*
X67650Y-37213D03*
X67650Y-36425D03*
X67650Y-40362D03*
X67650Y-35638D03*
X67650Y-41150D03*
G54D19*
X73600Y-40150D03*
G54D20*
X75864Y-40150D03*
G54D14*
X75850Y-46900D03*
X77150Y-46900D03*
G54D17*
X49287Y-46500D03*
X48500Y-46500D03*
X50075Y-46500D03*
X47713Y-46500D03*
X46925Y-46500D03*
X50862Y-46500D03*
X46138Y-46500D03*
X51650Y-46500D03*
G54D21*
X31600Y-43550D03*
G54D22*
X31600Y-45550D03*
G54D21*
X31650Y-32400D03*
G54D22*
X31650Y-34400D03*
G54D21*
X31550Y-37900D03*
G54D22*
X31550Y-39900D03*
G54D23*
X78400Y-40500D03*
X78400Y-41500D03*
X78400Y-45180D03*
X78400Y-46180D03*
G54D24*
X79370Y-41340D03*
X79370Y-42140D03*
X79370Y-42940D03*
X79370Y-43740D03*
X79370Y-44540D03*
X79370Y-45340D03*
G54D25*
X83770Y-40840D03*
X83770Y-45840D03*
G54D26*
X85020Y-40165D03*
X85020Y-46515D03*
M02*
