G04 (created by PCBNEW-RS274X (2012-01-19 BZR 3256)-stable) date 10/21/2012 10:59:19 AM*
G01*
G70*
G90*
%MOIN*%
G04 Gerber Fmt 3.4, Leading zero omitted, Abs format*
%FSLAX34Y34*%
G04 APERTURE LIST*
%ADD10C,0.006000*%
%ADD11R,0.070000X0.070000*%
%ADD12C,0.070000*%
%ADD13R,0.350000X0.350000*%
%ADD14R,0.060000X0.060000*%
%ADD15C,0.060000*%
%ADD16C,0.055000*%
%ADD17C,0.143700*%
%ADD18R,0.059100X0.059100*%
%ADD19C,0.059100*%
%ADD20C,0.035000*%
%ADD21C,0.007000*%
%ADD22C,0.010000*%
G04 APERTURE END LIST*
G54D10*
G54D11*
X36200Y-45700D03*
G54D12*
X36200Y-43700D03*
X36200Y-44700D03*
G54D13*
X42700Y-44700D03*
G54D14*
X68500Y-32500D03*
G54D15*
X67500Y-32500D03*
G54D14*
X46400Y-37900D03*
G54D15*
X45400Y-37900D03*
G54D14*
X59500Y-32700D03*
G54D15*
X58500Y-32700D03*
X57500Y-32700D03*
X56500Y-32700D03*
X55500Y-32700D03*
X54500Y-32700D03*
G54D13*
X42500Y-33500D03*
G54D12*
X36000Y-32500D03*
G54D11*
X36000Y-33500D03*
G54D12*
X36000Y-34500D03*
G54D13*
X42700Y-39500D03*
G54D12*
X36200Y-38500D03*
G54D11*
X36200Y-39500D03*
G54D12*
X36200Y-40500D03*
G54D16*
X47409Y-36000D03*
X48591Y-36000D03*
X47409Y-33000D03*
X48591Y-33000D03*
G54D15*
X64500Y-38787D03*
X64500Y-38000D03*
X64500Y-39575D03*
X64500Y-37213D03*
X64500Y-36425D03*
X64500Y-40362D03*
X64500Y-35638D03*
X64500Y-41150D03*
X67650Y-38787D03*
X67650Y-38000D03*
X67650Y-39575D03*
X67650Y-37213D03*
X67650Y-36425D03*
X67650Y-40362D03*
X67650Y-35638D03*
X67650Y-41150D03*
G54D17*
X83600Y-41412D03*
X83600Y-46085D03*
G54D18*
X81100Y-45500D03*
G54D19*
X80100Y-45000D03*
X81100Y-44500D03*
X80100Y-44000D03*
X81100Y-43500D03*
X80100Y-43000D03*
X81100Y-42500D03*
X80100Y-42000D03*
G54D20*
X47800Y-43400D03*
X53600Y-34500D03*
X61000Y-37100D03*
X52800Y-35100D03*
X56980Y-40640D03*
X71400Y-38000D03*
X60550Y-34350D03*
X57400Y-39700D03*
X58600Y-33700D03*
X55600Y-40100D03*
X55200Y-35700D03*
X55200Y-37500D03*
X55880Y-40660D03*
X60800Y-38750D03*
X60850Y-45400D03*
X51400Y-36650D03*
X48300Y-43900D03*
X57020Y-33840D03*
X76260Y-35600D03*
X58120Y-40660D03*
X68680Y-41160D03*
X53600Y-35100D03*
X66240Y-44400D03*
X76240Y-36160D03*
X50450Y-44000D03*
X59020Y-39020D03*
X64750Y-42350D03*
X64100Y-32200D03*
X76280Y-32580D03*
X52200Y-38040D03*
X59000Y-39520D03*
X61900Y-40200D03*
X53450Y-42200D03*
X63900Y-46450D03*
X76280Y-33180D03*
X74040Y-37460D03*
X52920Y-37320D03*
X54740Y-38660D03*
X62800Y-41300D03*
X59500Y-33500D03*
X52700Y-33200D03*
X56750Y-34700D03*
X57350Y-34200D03*
X56200Y-40000D03*
X66300Y-35300D03*
X57500Y-41800D03*
X69200Y-36400D03*
X54800Y-40500D03*
X70000Y-36500D03*
X62500Y-37750D03*
X69800Y-35300D03*
X54400Y-40300D03*
X63650Y-33800D03*
X57800Y-34000D03*
X61450Y-41600D03*
X59100Y-36250D03*
X65500Y-37500D03*
X65150Y-34400D03*
X65500Y-38700D03*
X59050Y-36950D03*
X58300Y-36950D03*
X60450Y-36750D03*
X56400Y-38900D03*
X65950Y-38300D03*
X55750Y-37500D03*
X65450Y-40650D03*
X66200Y-45300D03*
X66200Y-43500D03*
X60800Y-44900D03*
X63000Y-38750D03*
X63250Y-39500D03*
X66700Y-42200D03*
X61100Y-42100D03*
X60648Y-42120D03*
X66701Y-42642D03*
X74350Y-43900D03*
X68750Y-35850D03*
X47700Y-42600D03*
X61825Y-42575D03*
X62250Y-32900D03*
X56150Y-35650D03*
X51350Y-42000D03*
X65800Y-45500D03*
X58475Y-40400D03*
X72300Y-44400D03*
X55200Y-34150D03*
X47700Y-41900D03*
X69450Y-32850D03*
X69750Y-37300D03*
X59100Y-38575D03*
X68550Y-36250D03*
X56550Y-40575D03*
X55050Y-43250D03*
X71000Y-39900D03*
X53400Y-33750D03*
X69450Y-32200D03*
X56400Y-33800D03*
X66600Y-43300D03*
G54D21*
X60400Y-37700D02*
X61000Y-37100D01*
X54000Y-34100D02*
X54400Y-34100D01*
X53000Y-35300D02*
X52800Y-35100D01*
X54000Y-34100D02*
X53600Y-34500D01*
X53000Y-35900D02*
X53000Y-35300D01*
X53200Y-34500D02*
X53600Y-34500D01*
X48460Y-43240D02*
X47960Y-43240D01*
X57180Y-41300D02*
X57180Y-40840D01*
X47960Y-43240D02*
X47800Y-43400D01*
X60400Y-37900D02*
X60400Y-37700D01*
X57180Y-40840D02*
X56980Y-40640D01*
X57500Y-33740D02*
X57400Y-33840D01*
X60800Y-38750D02*
X61000Y-38750D01*
X57500Y-32700D02*
X57500Y-33740D01*
X53200Y-35100D02*
X53600Y-35100D01*
X57400Y-33840D02*
X57020Y-33840D01*
X69100Y-32500D02*
X69450Y-32850D01*
X68500Y-32500D02*
X69100Y-32500D01*
G54D10*
G36*
X86550Y-31650D02*
X86500Y-46700D01*
X84352Y-46700D01*
X84420Y-46633D01*
X84567Y-46278D01*
X84567Y-45893D01*
X84567Y-41605D01*
X84567Y-41220D01*
X84420Y-40865D01*
X84148Y-40592D01*
X83793Y-40445D01*
X83408Y-40445D01*
X83053Y-40592D01*
X82780Y-40864D01*
X82633Y-41219D01*
X82633Y-41604D01*
X82780Y-41959D01*
X83052Y-42232D01*
X83407Y-42379D01*
X83792Y-42379D01*
X84147Y-42232D01*
X84420Y-41960D01*
X84567Y-41605D01*
X84567Y-45893D01*
X84420Y-45538D01*
X84148Y-45265D01*
X83793Y-45118D01*
X83408Y-45118D01*
X83053Y-45265D01*
X82780Y-45537D01*
X82633Y-45892D01*
X82633Y-46277D01*
X82780Y-46632D01*
X82847Y-46700D01*
X81644Y-46700D01*
X81644Y-45845D01*
X81644Y-45746D01*
X81644Y-45156D01*
X81606Y-45064D01*
X81536Y-44994D01*
X81445Y-44956D01*
X81413Y-44956D01*
X81561Y-44808D01*
X81644Y-44608D01*
X81644Y-44392D01*
X81561Y-44192D01*
X81408Y-44039D01*
X81314Y-44000D01*
X81408Y-43961D01*
X81561Y-43808D01*
X81644Y-43608D01*
X81644Y-43392D01*
X81561Y-43192D01*
X81408Y-43039D01*
X81314Y-43000D01*
X81408Y-42961D01*
X81561Y-42808D01*
X81644Y-42608D01*
X81644Y-42392D01*
X81561Y-42192D01*
X81408Y-42039D01*
X81208Y-41956D01*
X80992Y-41956D01*
X80792Y-42039D01*
X80639Y-42192D01*
X80556Y-42392D01*
X80556Y-42608D01*
X80639Y-42808D01*
X80792Y-42961D01*
X80885Y-43000D01*
X80792Y-43039D01*
X80639Y-43192D01*
X80556Y-43392D01*
X80556Y-43608D01*
X80639Y-43808D01*
X80792Y-43961D01*
X80885Y-44000D01*
X80792Y-44039D01*
X80639Y-44192D01*
X80556Y-44392D01*
X80556Y-44608D01*
X80639Y-44808D01*
X80787Y-44956D01*
X80756Y-44956D01*
X80664Y-44994D01*
X80644Y-45014D01*
X80644Y-44892D01*
X80561Y-44692D01*
X80408Y-44539D01*
X80314Y-44500D01*
X80408Y-44461D01*
X80561Y-44308D01*
X80644Y-44108D01*
X80644Y-43892D01*
X80561Y-43692D01*
X80408Y-43539D01*
X80314Y-43500D01*
X80408Y-43461D01*
X80561Y-43308D01*
X80644Y-43108D01*
X80644Y-42892D01*
X80561Y-42692D01*
X80408Y-42539D01*
X80314Y-42500D01*
X80408Y-42461D01*
X80561Y-42308D01*
X80644Y-42108D01*
X80644Y-41892D01*
X80561Y-41692D01*
X80408Y-41539D01*
X80208Y-41456D01*
X79992Y-41456D01*
X79792Y-41539D01*
X79639Y-41692D01*
X79556Y-41892D01*
X79556Y-42108D01*
X79639Y-42308D01*
X79792Y-42461D01*
X79885Y-42500D01*
X79792Y-42539D01*
X79639Y-42692D01*
X79556Y-42892D01*
X79556Y-43108D01*
X79639Y-43308D01*
X79792Y-43461D01*
X79885Y-43500D01*
X79792Y-43539D01*
X79639Y-43692D01*
X79556Y-43892D01*
X79556Y-44108D01*
X79639Y-44308D01*
X79792Y-44461D01*
X79885Y-44500D01*
X79792Y-44539D01*
X79639Y-44692D01*
X79556Y-44892D01*
X79556Y-45108D01*
X79639Y-45308D01*
X79792Y-45461D01*
X79992Y-45544D01*
X80208Y-45544D01*
X80408Y-45461D01*
X80556Y-45313D01*
X80556Y-45844D01*
X80594Y-45936D01*
X80664Y-46006D01*
X80755Y-46044D01*
X80854Y-46044D01*
X81444Y-46044D01*
X81536Y-46006D01*
X81606Y-45936D01*
X81644Y-45845D01*
X81644Y-46700D01*
X76291Y-46700D01*
X76291Y-40236D01*
X76291Y-40066D01*
X76226Y-39909D01*
X76107Y-39789D01*
X75950Y-39723D01*
X75780Y-39723D01*
X75623Y-39788D01*
X75503Y-39907D01*
X75437Y-40064D01*
X75437Y-40234D01*
X75502Y-40391D01*
X75621Y-40511D01*
X75778Y-40577D01*
X75948Y-40577D01*
X76105Y-40512D01*
X76225Y-40393D01*
X76291Y-40236D01*
X76291Y-46700D01*
X74775Y-46700D01*
X74775Y-43985D01*
X74775Y-43816D01*
X74711Y-43660D01*
X74591Y-43540D01*
X74435Y-43475D01*
X74266Y-43475D01*
X74110Y-43539D01*
X74086Y-43563D01*
X74086Y-40247D01*
X74086Y-40054D01*
X74012Y-39875D01*
X73876Y-39738D01*
X73697Y-39664D01*
X73504Y-39664D01*
X73325Y-39738D01*
X73188Y-39874D01*
X73114Y-40053D01*
X73114Y-40246D01*
X73188Y-40425D01*
X73324Y-40562D01*
X73503Y-40636D01*
X73696Y-40636D01*
X73875Y-40562D01*
X74012Y-40426D01*
X74086Y-40247D01*
X74086Y-43563D01*
X73990Y-43659D01*
X73925Y-43815D01*
X73925Y-43984D01*
X73989Y-44140D01*
X74109Y-44260D01*
X74265Y-44325D01*
X74434Y-44325D01*
X74590Y-44261D01*
X74710Y-44141D01*
X74775Y-43985D01*
X74775Y-46700D01*
X72725Y-46700D01*
X72725Y-44485D01*
X72725Y-44316D01*
X72661Y-44160D01*
X72541Y-44040D01*
X72385Y-43975D01*
X72216Y-43975D01*
X72060Y-44039D01*
X71940Y-44159D01*
X71875Y-44315D01*
X71875Y-44484D01*
X71939Y-44640D01*
X72059Y-44760D01*
X72215Y-44825D01*
X72384Y-44825D01*
X72540Y-44761D01*
X72660Y-44641D01*
X72725Y-44485D01*
X72725Y-46700D01*
X71825Y-46700D01*
X71825Y-38085D01*
X71825Y-37916D01*
X71761Y-37760D01*
X71641Y-37640D01*
X71485Y-37575D01*
X71316Y-37575D01*
X71160Y-37639D01*
X71040Y-37759D01*
X70975Y-37915D01*
X70975Y-38084D01*
X71039Y-38240D01*
X71159Y-38360D01*
X71315Y-38425D01*
X71484Y-38425D01*
X71640Y-38361D01*
X71760Y-38241D01*
X71825Y-38085D01*
X71825Y-46700D01*
X71425Y-46700D01*
X71425Y-39985D01*
X71425Y-39816D01*
X71361Y-39660D01*
X71241Y-39540D01*
X71085Y-39475D01*
X70916Y-39475D01*
X70760Y-39539D01*
X70640Y-39659D01*
X70575Y-39815D01*
X70575Y-39984D01*
X70639Y-40140D01*
X70759Y-40260D01*
X70915Y-40325D01*
X71084Y-40325D01*
X71240Y-40261D01*
X71360Y-40141D01*
X71425Y-39985D01*
X71425Y-46700D01*
X70425Y-46700D01*
X70425Y-36585D01*
X70425Y-36416D01*
X70361Y-36260D01*
X70241Y-36140D01*
X70225Y-36133D01*
X70225Y-35385D01*
X70225Y-35216D01*
X70161Y-35060D01*
X70041Y-34940D01*
X69885Y-34875D01*
X69875Y-34875D01*
X69875Y-32935D01*
X69875Y-32766D01*
X69811Y-32610D01*
X69726Y-32525D01*
X69810Y-32441D01*
X69875Y-32285D01*
X69875Y-32116D01*
X69811Y-31960D01*
X69691Y-31840D01*
X69535Y-31775D01*
X69366Y-31775D01*
X69210Y-31839D01*
X69090Y-31959D01*
X69029Y-32103D01*
X69011Y-32059D01*
X68941Y-31989D01*
X68850Y-31951D01*
X68751Y-31951D01*
X68151Y-31951D01*
X68059Y-31989D01*
X67989Y-32059D01*
X67951Y-32150D01*
X67951Y-32175D01*
X67811Y-32035D01*
X67609Y-31951D01*
X67391Y-31951D01*
X67189Y-32035D01*
X67035Y-32189D01*
X66951Y-32391D01*
X66951Y-32609D01*
X67035Y-32811D01*
X67189Y-32965D01*
X67391Y-33049D01*
X67609Y-33049D01*
X67811Y-32965D01*
X67951Y-32825D01*
X67951Y-32849D01*
X67989Y-32941D01*
X68059Y-33011D01*
X68150Y-33049D01*
X68249Y-33049D01*
X68849Y-33049D01*
X68941Y-33011D01*
X69011Y-32941D01*
X69025Y-32907D01*
X69025Y-32934D01*
X69089Y-33090D01*
X69209Y-33210D01*
X69365Y-33275D01*
X69534Y-33275D01*
X69690Y-33211D01*
X69810Y-33091D01*
X69875Y-32935D01*
X69875Y-34875D01*
X69716Y-34875D01*
X69560Y-34939D01*
X69440Y-35059D01*
X69375Y-35215D01*
X69375Y-35384D01*
X69439Y-35540D01*
X69559Y-35660D01*
X69715Y-35725D01*
X69884Y-35725D01*
X70040Y-35661D01*
X70160Y-35541D01*
X70225Y-35385D01*
X70225Y-36133D01*
X70085Y-36075D01*
X69916Y-36075D01*
X69760Y-36139D01*
X69640Y-36259D01*
X69620Y-36305D01*
X69561Y-36160D01*
X69441Y-36040D01*
X69285Y-35975D01*
X69158Y-35975D01*
X69175Y-35935D01*
X69175Y-35766D01*
X69111Y-35610D01*
X68991Y-35490D01*
X68835Y-35425D01*
X68666Y-35425D01*
X68510Y-35489D01*
X68390Y-35609D01*
X68325Y-35765D01*
X68325Y-35882D01*
X68310Y-35889D01*
X68190Y-36009D01*
X68130Y-36151D01*
X68115Y-36114D01*
X68032Y-36031D01*
X68115Y-35949D01*
X68199Y-35747D01*
X68199Y-35529D01*
X68115Y-35327D01*
X67961Y-35173D01*
X67759Y-35089D01*
X67541Y-35089D01*
X67339Y-35173D01*
X67185Y-35327D01*
X67101Y-35529D01*
X67101Y-35747D01*
X67185Y-35949D01*
X67267Y-36031D01*
X67185Y-36114D01*
X67101Y-36316D01*
X67101Y-36534D01*
X67185Y-36736D01*
X67268Y-36819D01*
X67185Y-36902D01*
X67101Y-37104D01*
X67101Y-37322D01*
X67185Y-37524D01*
X67267Y-37606D01*
X67185Y-37689D01*
X67101Y-37891D01*
X67101Y-38109D01*
X67185Y-38311D01*
X67267Y-38393D01*
X67185Y-38476D01*
X67101Y-38678D01*
X67101Y-38896D01*
X67185Y-39098D01*
X67268Y-39181D01*
X67185Y-39264D01*
X67101Y-39466D01*
X67101Y-39684D01*
X67185Y-39886D01*
X67267Y-39968D01*
X67185Y-40051D01*
X67101Y-40253D01*
X67101Y-40471D01*
X67185Y-40673D01*
X67339Y-40827D01*
X67438Y-40868D01*
X67650Y-41079D01*
X67861Y-40868D01*
X67961Y-40827D01*
X68115Y-40673D01*
X68199Y-40471D01*
X68199Y-40253D01*
X68115Y-40051D01*
X68032Y-39968D01*
X68115Y-39886D01*
X68199Y-39684D01*
X68199Y-39466D01*
X68115Y-39264D01*
X68032Y-39181D01*
X68115Y-39098D01*
X68199Y-38896D01*
X68199Y-38678D01*
X68115Y-38476D01*
X68032Y-38393D01*
X68115Y-38311D01*
X68199Y-38109D01*
X68199Y-37891D01*
X68115Y-37689D01*
X68032Y-37606D01*
X68115Y-37524D01*
X68199Y-37322D01*
X68199Y-37104D01*
X68115Y-36902D01*
X68032Y-36819D01*
X68115Y-36736D01*
X68199Y-36534D01*
X68199Y-36500D01*
X68309Y-36610D01*
X68465Y-36675D01*
X68634Y-36675D01*
X68790Y-36611D01*
X68816Y-36584D01*
X68839Y-36640D01*
X68959Y-36760D01*
X69115Y-36825D01*
X69284Y-36825D01*
X69440Y-36761D01*
X69560Y-36641D01*
X69579Y-36594D01*
X69639Y-36740D01*
X69759Y-36860D01*
X69795Y-36875D01*
X69666Y-36875D01*
X69510Y-36939D01*
X69390Y-37059D01*
X69325Y-37215D01*
X69325Y-37384D01*
X69389Y-37540D01*
X69509Y-37660D01*
X69665Y-37725D01*
X69834Y-37725D01*
X69990Y-37661D01*
X70110Y-37541D01*
X70175Y-37385D01*
X70175Y-37216D01*
X70111Y-37060D01*
X69991Y-36940D01*
X69955Y-36925D01*
X70084Y-36925D01*
X70240Y-36861D01*
X70360Y-36741D01*
X70425Y-36585D01*
X70425Y-46700D01*
X68193Y-46700D01*
X68193Y-41229D01*
X68182Y-41016D01*
X68122Y-40869D01*
X68028Y-40842D01*
X67721Y-41150D01*
X68028Y-41458D01*
X68122Y-41431D01*
X68193Y-41229D01*
X68193Y-46700D01*
X67958Y-46700D01*
X67958Y-41528D01*
X67650Y-41221D01*
X67579Y-41291D01*
X67579Y-41150D01*
X67272Y-40842D01*
X67178Y-40869D01*
X67107Y-41071D01*
X67118Y-41284D01*
X67178Y-41431D01*
X67272Y-41458D01*
X67579Y-41150D01*
X67579Y-41291D01*
X67342Y-41528D01*
X67369Y-41622D01*
X67571Y-41693D01*
X67784Y-41682D01*
X67931Y-41622D01*
X67958Y-41528D01*
X67958Y-46700D01*
X67126Y-46700D01*
X67126Y-42727D01*
X67126Y-42558D01*
X67069Y-42419D01*
X67125Y-42285D01*
X67125Y-42116D01*
X67061Y-41960D01*
X66941Y-41840D01*
X66785Y-41775D01*
X66725Y-41775D01*
X66725Y-35385D01*
X66725Y-35216D01*
X66661Y-35060D01*
X66541Y-34940D01*
X66385Y-34875D01*
X66216Y-34875D01*
X66060Y-34939D01*
X65940Y-35059D01*
X65875Y-35215D01*
X65875Y-35384D01*
X65939Y-35540D01*
X66059Y-35660D01*
X66215Y-35725D01*
X66384Y-35725D01*
X66540Y-35661D01*
X66660Y-35541D01*
X66725Y-35385D01*
X66725Y-41775D01*
X66616Y-41775D01*
X66460Y-41839D01*
X66375Y-41924D01*
X66375Y-38385D01*
X66375Y-38216D01*
X66311Y-38060D01*
X66191Y-37940D01*
X66035Y-37875D01*
X65925Y-37875D01*
X65925Y-37585D01*
X65925Y-37416D01*
X65861Y-37260D01*
X65741Y-37140D01*
X65585Y-37075D01*
X65575Y-37075D01*
X65575Y-34485D01*
X65575Y-34316D01*
X65511Y-34160D01*
X65391Y-34040D01*
X65235Y-33975D01*
X65066Y-33975D01*
X64910Y-34039D01*
X64790Y-34159D01*
X64725Y-34315D01*
X64725Y-34484D01*
X64789Y-34640D01*
X64909Y-34760D01*
X65065Y-34825D01*
X65234Y-34825D01*
X65390Y-34761D01*
X65510Y-34641D01*
X65575Y-34485D01*
X65575Y-37075D01*
X65416Y-37075D01*
X65260Y-37139D01*
X65140Y-37259D01*
X65075Y-37415D01*
X65075Y-37584D01*
X65139Y-37740D01*
X65259Y-37860D01*
X65415Y-37925D01*
X65584Y-37925D01*
X65740Y-37861D01*
X65860Y-37741D01*
X65925Y-37585D01*
X65925Y-37875D01*
X65866Y-37875D01*
X65710Y-37939D01*
X65590Y-38059D01*
X65525Y-38215D01*
X65525Y-38275D01*
X65416Y-38275D01*
X65260Y-38339D01*
X65140Y-38459D01*
X65075Y-38615D01*
X65075Y-38784D01*
X65139Y-38940D01*
X65259Y-39060D01*
X65415Y-39125D01*
X65584Y-39125D01*
X65740Y-39061D01*
X65860Y-38941D01*
X65925Y-38785D01*
X65925Y-38725D01*
X66034Y-38725D01*
X66190Y-38661D01*
X66310Y-38541D01*
X66375Y-38385D01*
X66375Y-41924D01*
X66340Y-41959D01*
X66275Y-42115D01*
X66275Y-42284D01*
X66331Y-42422D01*
X66276Y-42557D01*
X66276Y-42726D01*
X66340Y-42882D01*
X66386Y-42928D01*
X66360Y-42939D01*
X66240Y-43059D01*
X66233Y-43075D01*
X66116Y-43075D01*
X65960Y-43139D01*
X65875Y-43224D01*
X65875Y-40735D01*
X65875Y-40566D01*
X65811Y-40410D01*
X65691Y-40290D01*
X65535Y-40225D01*
X65366Y-40225D01*
X65210Y-40289D01*
X65090Y-40409D01*
X65025Y-40565D01*
X65025Y-40734D01*
X65089Y-40890D01*
X65209Y-41010D01*
X65365Y-41075D01*
X65534Y-41075D01*
X65690Y-41011D01*
X65810Y-40891D01*
X65875Y-40735D01*
X65875Y-43224D01*
X65840Y-43259D01*
X65775Y-43415D01*
X65775Y-43584D01*
X65839Y-43740D01*
X65959Y-43860D01*
X66115Y-43925D01*
X66284Y-43925D01*
X66440Y-43861D01*
X66560Y-43741D01*
X66566Y-43725D01*
X66684Y-43725D01*
X66840Y-43661D01*
X66960Y-43541D01*
X67025Y-43385D01*
X67025Y-43216D01*
X66961Y-43060D01*
X66914Y-43013D01*
X66941Y-43003D01*
X67061Y-42883D01*
X67126Y-42727D01*
X67126Y-46700D01*
X66625Y-46700D01*
X66625Y-45385D01*
X66625Y-45216D01*
X66561Y-45060D01*
X66441Y-44940D01*
X66285Y-44875D01*
X66116Y-44875D01*
X65960Y-44939D01*
X65840Y-45059D01*
X65833Y-45075D01*
X65716Y-45075D01*
X65560Y-45139D01*
X65440Y-45259D01*
X65375Y-45415D01*
X65375Y-45584D01*
X65439Y-45740D01*
X65559Y-45860D01*
X65715Y-45925D01*
X65884Y-45925D01*
X66040Y-45861D01*
X66160Y-45741D01*
X66166Y-45725D01*
X66284Y-45725D01*
X66440Y-45661D01*
X66560Y-45541D01*
X66625Y-45385D01*
X66625Y-46700D01*
X65049Y-46700D01*
X65049Y-41259D01*
X65049Y-41041D01*
X64965Y-40839D01*
X64882Y-40756D01*
X64965Y-40673D01*
X65049Y-40471D01*
X65049Y-40253D01*
X64965Y-40051D01*
X64882Y-39968D01*
X64965Y-39886D01*
X65049Y-39684D01*
X65049Y-39466D01*
X64965Y-39264D01*
X64882Y-39181D01*
X64965Y-39098D01*
X65049Y-38896D01*
X65049Y-38678D01*
X64965Y-38476D01*
X64882Y-38393D01*
X64965Y-38311D01*
X65049Y-38109D01*
X65049Y-37891D01*
X64965Y-37689D01*
X64882Y-37606D01*
X64965Y-37524D01*
X65049Y-37322D01*
X65049Y-37104D01*
X64965Y-36902D01*
X64882Y-36819D01*
X64965Y-36736D01*
X65049Y-36534D01*
X65049Y-36316D01*
X64965Y-36114D01*
X64882Y-36031D01*
X64965Y-35949D01*
X65049Y-35747D01*
X65049Y-35529D01*
X64965Y-35327D01*
X64811Y-35173D01*
X64609Y-35089D01*
X64391Y-35089D01*
X64189Y-35173D01*
X64075Y-35287D01*
X64075Y-33885D01*
X64075Y-33716D01*
X64011Y-33560D01*
X63891Y-33440D01*
X63735Y-33375D01*
X63566Y-33375D01*
X63410Y-33439D01*
X63290Y-33559D01*
X63225Y-33715D01*
X63225Y-33884D01*
X63289Y-34040D01*
X63409Y-34160D01*
X63565Y-34225D01*
X63734Y-34225D01*
X63890Y-34161D01*
X64010Y-34041D01*
X64075Y-33885D01*
X64075Y-35287D01*
X64035Y-35327D01*
X63951Y-35529D01*
X63951Y-35747D01*
X64035Y-35949D01*
X64117Y-36031D01*
X64035Y-36114D01*
X63951Y-36316D01*
X63951Y-36534D01*
X64035Y-36736D01*
X64118Y-36819D01*
X64035Y-36902D01*
X63951Y-37104D01*
X63951Y-37322D01*
X64035Y-37524D01*
X64117Y-37606D01*
X64035Y-37689D01*
X63951Y-37891D01*
X63951Y-38109D01*
X64035Y-38311D01*
X64117Y-38393D01*
X64035Y-38476D01*
X63951Y-38678D01*
X63951Y-38896D01*
X64035Y-39098D01*
X64118Y-39181D01*
X64035Y-39264D01*
X63951Y-39466D01*
X63951Y-39684D01*
X64035Y-39886D01*
X64117Y-39968D01*
X64035Y-40051D01*
X63951Y-40253D01*
X63951Y-40471D01*
X64035Y-40673D01*
X64118Y-40756D01*
X64035Y-40839D01*
X63951Y-41041D01*
X63951Y-41259D01*
X64035Y-41461D01*
X64189Y-41615D01*
X64391Y-41699D01*
X64609Y-41699D01*
X64811Y-41615D01*
X64965Y-41461D01*
X65049Y-41259D01*
X65049Y-46700D01*
X63675Y-46700D01*
X63675Y-39585D01*
X63675Y-39416D01*
X63611Y-39260D01*
X63491Y-39140D01*
X63335Y-39075D01*
X63276Y-39075D01*
X63360Y-38991D01*
X63425Y-38835D01*
X63425Y-38666D01*
X63361Y-38510D01*
X63241Y-38390D01*
X63085Y-38325D01*
X62925Y-38325D01*
X62925Y-37835D01*
X62925Y-37666D01*
X62861Y-37510D01*
X62741Y-37390D01*
X62675Y-37362D01*
X62675Y-32985D01*
X62675Y-32816D01*
X62611Y-32660D01*
X62491Y-32540D01*
X62335Y-32475D01*
X62166Y-32475D01*
X62010Y-32539D01*
X61890Y-32659D01*
X61825Y-32815D01*
X61825Y-32984D01*
X61889Y-33140D01*
X62009Y-33260D01*
X62165Y-33325D01*
X62334Y-33325D01*
X62490Y-33261D01*
X62610Y-33141D01*
X62675Y-32985D01*
X62675Y-37362D01*
X62585Y-37325D01*
X62416Y-37325D01*
X62260Y-37389D01*
X62140Y-37509D01*
X62075Y-37665D01*
X62075Y-37834D01*
X62139Y-37990D01*
X62259Y-38110D01*
X62415Y-38175D01*
X62584Y-38175D01*
X62740Y-38111D01*
X62860Y-37991D01*
X62925Y-37835D01*
X62925Y-38325D01*
X62916Y-38325D01*
X62760Y-38389D01*
X62640Y-38509D01*
X62575Y-38665D01*
X62575Y-38834D01*
X62639Y-38990D01*
X62759Y-39110D01*
X62915Y-39175D01*
X62974Y-39175D01*
X62890Y-39259D01*
X62825Y-39415D01*
X62825Y-39584D01*
X62889Y-39740D01*
X63009Y-39860D01*
X63165Y-39925D01*
X63334Y-39925D01*
X63490Y-39861D01*
X63610Y-39741D01*
X63675Y-39585D01*
X63675Y-46700D01*
X62250Y-46700D01*
X62250Y-42660D01*
X62250Y-42491D01*
X62186Y-42335D01*
X62066Y-42215D01*
X61910Y-42150D01*
X61875Y-42150D01*
X61875Y-41685D01*
X61875Y-41516D01*
X61811Y-41360D01*
X61691Y-41240D01*
X61535Y-41175D01*
X61425Y-41175D01*
X61425Y-37185D01*
X61425Y-37016D01*
X61361Y-36860D01*
X61241Y-36740D01*
X61085Y-36675D01*
X60975Y-36675D01*
X60975Y-34435D01*
X60975Y-34266D01*
X60911Y-34110D01*
X60791Y-33990D01*
X60635Y-33925D01*
X60466Y-33925D01*
X60310Y-33989D01*
X60190Y-34109D01*
X60125Y-34265D01*
X60125Y-34434D01*
X60189Y-34590D01*
X60309Y-34710D01*
X60465Y-34775D01*
X60634Y-34775D01*
X60790Y-34711D01*
X60910Y-34591D01*
X60975Y-34435D01*
X60975Y-36675D01*
X60916Y-36675D01*
X60875Y-36691D01*
X60875Y-36666D01*
X60811Y-36510D01*
X60691Y-36390D01*
X60535Y-36325D01*
X60366Y-36325D01*
X60210Y-36389D01*
X60090Y-36509D01*
X60049Y-36607D01*
X60049Y-33050D01*
X60049Y-32951D01*
X60049Y-32351D01*
X60011Y-32259D01*
X59941Y-32189D01*
X59850Y-32151D01*
X59751Y-32151D01*
X59151Y-32151D01*
X59059Y-32189D01*
X58989Y-32259D01*
X58951Y-32350D01*
X58951Y-32375D01*
X58811Y-32235D01*
X58609Y-32151D01*
X58391Y-32151D01*
X58189Y-32235D01*
X58035Y-32389D01*
X57997Y-32480D01*
X57972Y-32419D01*
X57878Y-32392D01*
X57808Y-32462D01*
X57808Y-32322D01*
X57781Y-32228D01*
X57579Y-32157D01*
X57366Y-32168D01*
X57219Y-32228D01*
X57192Y-32322D01*
X57500Y-32629D01*
X57808Y-32322D01*
X57808Y-32462D01*
X57571Y-32700D01*
X57878Y-33008D01*
X57972Y-32981D01*
X57995Y-32915D01*
X58035Y-33011D01*
X58189Y-33165D01*
X58391Y-33249D01*
X58609Y-33249D01*
X58811Y-33165D01*
X58951Y-33025D01*
X58951Y-33049D01*
X58989Y-33141D01*
X59059Y-33211D01*
X59150Y-33249D01*
X59140Y-33259D01*
X59075Y-33415D01*
X59075Y-33584D01*
X59139Y-33740D01*
X59259Y-33860D01*
X59415Y-33925D01*
X59584Y-33925D01*
X59740Y-33861D01*
X59860Y-33741D01*
X59925Y-33585D01*
X59925Y-33416D01*
X59861Y-33260D01*
X59849Y-33248D01*
X59941Y-33211D01*
X60011Y-33141D01*
X60049Y-33050D01*
X60049Y-36607D01*
X60025Y-36665D01*
X60025Y-36834D01*
X60089Y-36990D01*
X60209Y-37110D01*
X60365Y-37175D01*
X60521Y-37175D01*
X60198Y-37498D01*
X60137Y-37591D01*
X60114Y-37700D01*
X60115Y-37704D01*
X60115Y-37900D01*
X60137Y-38009D01*
X60198Y-38102D01*
X60291Y-38163D01*
X60400Y-38185D01*
X60509Y-38163D01*
X60602Y-38102D01*
X60663Y-38009D01*
X60685Y-37900D01*
X60685Y-37818D01*
X60978Y-37525D01*
X61084Y-37525D01*
X61240Y-37461D01*
X61360Y-37341D01*
X61425Y-37185D01*
X61425Y-41175D01*
X61366Y-41175D01*
X61210Y-41239D01*
X61090Y-41359D01*
X61025Y-41515D01*
X61025Y-41675D01*
X61016Y-41675D01*
X60860Y-41739D01*
X60853Y-41745D01*
X60733Y-41695D01*
X60564Y-41695D01*
X60408Y-41759D01*
X60288Y-41879D01*
X60223Y-42035D01*
X60223Y-42204D01*
X60287Y-42360D01*
X60407Y-42480D01*
X60563Y-42545D01*
X60732Y-42545D01*
X60888Y-42481D01*
X60894Y-42474D01*
X61015Y-42525D01*
X61184Y-42525D01*
X61340Y-42461D01*
X61460Y-42341D01*
X61525Y-42185D01*
X61525Y-42025D01*
X61534Y-42025D01*
X61690Y-41961D01*
X61810Y-41841D01*
X61875Y-41685D01*
X61875Y-42150D01*
X61741Y-42150D01*
X61585Y-42214D01*
X61465Y-42334D01*
X61400Y-42490D01*
X61400Y-42659D01*
X61464Y-42815D01*
X61584Y-42935D01*
X61740Y-43000D01*
X61909Y-43000D01*
X62065Y-42936D01*
X62185Y-42816D01*
X62250Y-42660D01*
X62250Y-46700D01*
X61225Y-46700D01*
X61225Y-44985D01*
X61225Y-44816D01*
X61161Y-44660D01*
X61041Y-44540D01*
X60885Y-44475D01*
X60716Y-44475D01*
X60560Y-44539D01*
X60440Y-44659D01*
X60375Y-44815D01*
X60375Y-44984D01*
X60439Y-45140D01*
X60559Y-45260D01*
X60715Y-45325D01*
X60884Y-45325D01*
X61040Y-45261D01*
X61160Y-45141D01*
X61225Y-44985D01*
X61225Y-46700D01*
X59525Y-46700D01*
X59525Y-38660D01*
X59525Y-38491D01*
X59525Y-36335D01*
X59525Y-36166D01*
X59461Y-36010D01*
X59341Y-35890D01*
X59185Y-35825D01*
X59025Y-35825D01*
X59025Y-33785D01*
X59025Y-33616D01*
X58961Y-33460D01*
X58841Y-33340D01*
X58685Y-33275D01*
X58516Y-33275D01*
X58360Y-33339D01*
X58240Y-33459D01*
X58175Y-33615D01*
X58175Y-33784D01*
X58239Y-33940D01*
X58359Y-34060D01*
X58515Y-34125D01*
X58684Y-34125D01*
X58840Y-34061D01*
X58960Y-33941D01*
X59025Y-33785D01*
X59025Y-35825D01*
X59016Y-35825D01*
X58860Y-35889D01*
X58740Y-36009D01*
X58675Y-36165D01*
X58675Y-36334D01*
X58739Y-36490D01*
X58829Y-36580D01*
X58810Y-36589D01*
X58690Y-36709D01*
X58675Y-36744D01*
X58661Y-36710D01*
X58541Y-36590D01*
X58385Y-36525D01*
X58225Y-36525D01*
X58225Y-34085D01*
X58225Y-33916D01*
X58161Y-33760D01*
X58041Y-33640D01*
X57885Y-33575D01*
X57808Y-33575D01*
X57808Y-33078D01*
X57500Y-32771D01*
X57429Y-32841D01*
X57429Y-32700D01*
X57122Y-32392D01*
X57028Y-32419D01*
X57004Y-32484D01*
X56965Y-32389D01*
X56811Y-32235D01*
X56609Y-32151D01*
X56391Y-32151D01*
X56189Y-32235D01*
X56035Y-32389D01*
X56000Y-32473D01*
X55965Y-32389D01*
X55811Y-32235D01*
X55609Y-32151D01*
X55391Y-32151D01*
X55189Y-32235D01*
X55035Y-32389D01*
X55000Y-32473D01*
X54965Y-32389D01*
X54811Y-32235D01*
X54609Y-32151D01*
X54391Y-32151D01*
X54189Y-32235D01*
X54035Y-32389D01*
X53951Y-32591D01*
X53951Y-32809D01*
X54035Y-33011D01*
X54189Y-33165D01*
X54391Y-33249D01*
X54609Y-33249D01*
X54811Y-33165D01*
X54965Y-33011D01*
X55000Y-32926D01*
X55035Y-33011D01*
X55189Y-33165D01*
X55391Y-33249D01*
X55609Y-33249D01*
X55811Y-33165D01*
X55965Y-33011D01*
X56000Y-32926D01*
X56035Y-33011D01*
X56189Y-33165D01*
X56391Y-33249D01*
X56609Y-33249D01*
X56811Y-33165D01*
X56965Y-33011D01*
X57002Y-32919D01*
X57028Y-32981D01*
X57122Y-33008D01*
X57429Y-32700D01*
X57429Y-32841D01*
X57192Y-33078D01*
X57219Y-33172D01*
X57421Y-33243D01*
X57634Y-33232D01*
X57781Y-33172D01*
X57808Y-33078D01*
X57808Y-33575D01*
X57716Y-33575D01*
X57560Y-33639D01*
X57440Y-33759D01*
X57433Y-33775D01*
X57266Y-33775D01*
X57110Y-33839D01*
X56990Y-33959D01*
X56925Y-34115D01*
X56925Y-34284D01*
X56939Y-34318D01*
X56835Y-34275D01*
X56825Y-34275D01*
X56825Y-33885D01*
X56825Y-33716D01*
X56761Y-33560D01*
X56641Y-33440D01*
X56485Y-33375D01*
X56316Y-33375D01*
X56160Y-33439D01*
X56040Y-33559D01*
X55975Y-33715D01*
X55975Y-33884D01*
X56039Y-34040D01*
X56159Y-34160D01*
X56315Y-34225D01*
X56484Y-34225D01*
X56640Y-34161D01*
X56760Y-34041D01*
X56825Y-33885D01*
X56825Y-34275D01*
X56666Y-34275D01*
X56510Y-34339D01*
X56390Y-34459D01*
X56325Y-34615D01*
X56325Y-34784D01*
X56389Y-34940D01*
X56509Y-35060D01*
X56665Y-35125D01*
X56834Y-35125D01*
X56990Y-35061D01*
X57110Y-34941D01*
X57175Y-34785D01*
X57175Y-34616D01*
X57160Y-34581D01*
X57265Y-34625D01*
X57434Y-34625D01*
X57590Y-34561D01*
X57710Y-34441D01*
X57716Y-34425D01*
X57884Y-34425D01*
X58040Y-34361D01*
X58160Y-34241D01*
X58225Y-34085D01*
X58225Y-36525D01*
X58216Y-36525D01*
X58060Y-36589D01*
X57940Y-36709D01*
X57875Y-36865D01*
X57875Y-37034D01*
X57939Y-37190D01*
X58059Y-37310D01*
X58215Y-37375D01*
X58384Y-37375D01*
X58540Y-37311D01*
X58660Y-37191D01*
X58674Y-37155D01*
X58689Y-37190D01*
X58809Y-37310D01*
X58965Y-37375D01*
X59134Y-37375D01*
X59290Y-37311D01*
X59410Y-37191D01*
X59475Y-37035D01*
X59475Y-36866D01*
X59411Y-36710D01*
X59320Y-36619D01*
X59340Y-36611D01*
X59460Y-36491D01*
X59525Y-36335D01*
X59525Y-38491D01*
X59461Y-38335D01*
X59341Y-38215D01*
X59185Y-38150D01*
X59016Y-38150D01*
X58860Y-38214D01*
X58740Y-38334D01*
X58675Y-38490D01*
X58675Y-38659D01*
X58739Y-38815D01*
X58859Y-38935D01*
X59015Y-39000D01*
X59184Y-39000D01*
X59340Y-38936D01*
X59460Y-38816D01*
X59525Y-38660D01*
X59525Y-46700D01*
X58900Y-46700D01*
X58900Y-40485D01*
X58900Y-40316D01*
X58836Y-40160D01*
X58716Y-40040D01*
X58560Y-39975D01*
X58391Y-39975D01*
X58235Y-40039D01*
X58115Y-40159D01*
X58050Y-40315D01*
X58050Y-40484D01*
X58114Y-40640D01*
X58234Y-40760D01*
X58390Y-40825D01*
X58559Y-40825D01*
X58715Y-40761D01*
X58835Y-40641D01*
X58900Y-40485D01*
X58900Y-46700D01*
X57925Y-46700D01*
X57925Y-41885D01*
X57925Y-41716D01*
X57861Y-41560D01*
X57825Y-41524D01*
X57825Y-39785D01*
X57825Y-39616D01*
X57761Y-39460D01*
X57641Y-39340D01*
X57485Y-39275D01*
X57316Y-39275D01*
X57160Y-39339D01*
X57040Y-39459D01*
X56975Y-39615D01*
X56975Y-39784D01*
X57039Y-39940D01*
X57159Y-40060D01*
X57315Y-40125D01*
X57484Y-40125D01*
X57640Y-40061D01*
X57760Y-39941D01*
X57825Y-39785D01*
X57825Y-41524D01*
X57741Y-41440D01*
X57585Y-41375D01*
X57449Y-41375D01*
X57465Y-41300D01*
X57465Y-40840D01*
X57464Y-40839D01*
X57465Y-40839D01*
X57461Y-40820D01*
X57443Y-40731D01*
X57405Y-40674D01*
X57405Y-40673D01*
X57405Y-40556D01*
X57341Y-40400D01*
X57221Y-40280D01*
X57065Y-40215D01*
X56896Y-40215D01*
X56825Y-40243D01*
X56825Y-38985D01*
X56825Y-38816D01*
X56761Y-38660D01*
X56641Y-38540D01*
X56575Y-38512D01*
X56575Y-35735D01*
X56575Y-35566D01*
X56511Y-35410D01*
X56391Y-35290D01*
X56235Y-35225D01*
X56066Y-35225D01*
X55910Y-35289D01*
X55790Y-35409D01*
X55725Y-35565D01*
X55725Y-35734D01*
X55789Y-35890D01*
X55909Y-36010D01*
X56065Y-36075D01*
X56234Y-36075D01*
X56390Y-36011D01*
X56510Y-35891D01*
X56575Y-35735D01*
X56575Y-38512D01*
X56485Y-38475D01*
X56316Y-38475D01*
X56175Y-38532D01*
X56175Y-37585D01*
X56175Y-37416D01*
X56111Y-37260D01*
X55991Y-37140D01*
X55835Y-37075D01*
X55666Y-37075D01*
X55625Y-37091D01*
X55625Y-35785D01*
X55625Y-35616D01*
X55625Y-34235D01*
X55625Y-34066D01*
X55561Y-33910D01*
X55441Y-33790D01*
X55285Y-33725D01*
X55116Y-33725D01*
X54960Y-33789D01*
X54840Y-33909D01*
X54775Y-34065D01*
X54775Y-34234D01*
X54839Y-34390D01*
X54959Y-34510D01*
X55115Y-34575D01*
X55284Y-34575D01*
X55440Y-34511D01*
X55560Y-34391D01*
X55625Y-34235D01*
X55625Y-35616D01*
X55561Y-35460D01*
X55441Y-35340D01*
X55285Y-35275D01*
X55116Y-35275D01*
X54960Y-35339D01*
X54840Y-35459D01*
X54775Y-35615D01*
X54775Y-35784D01*
X54839Y-35940D01*
X54959Y-36060D01*
X55115Y-36125D01*
X55284Y-36125D01*
X55440Y-36061D01*
X55560Y-35941D01*
X55625Y-35785D01*
X55625Y-37091D01*
X55510Y-37139D01*
X55475Y-37174D01*
X55441Y-37140D01*
X55285Y-37075D01*
X55116Y-37075D01*
X54960Y-37139D01*
X54840Y-37259D01*
X54775Y-37415D01*
X54775Y-37584D01*
X54839Y-37740D01*
X54959Y-37860D01*
X55115Y-37925D01*
X55284Y-37925D01*
X55440Y-37861D01*
X55475Y-37826D01*
X55509Y-37860D01*
X55665Y-37925D01*
X55834Y-37925D01*
X55990Y-37861D01*
X56110Y-37741D01*
X56175Y-37585D01*
X56175Y-38532D01*
X56160Y-38539D01*
X56040Y-38659D01*
X55975Y-38815D01*
X55975Y-38984D01*
X56039Y-39140D01*
X56159Y-39260D01*
X56315Y-39325D01*
X56484Y-39325D01*
X56640Y-39261D01*
X56760Y-39141D01*
X56825Y-38985D01*
X56825Y-40243D01*
X56821Y-40245D01*
X56791Y-40215D01*
X56635Y-40150D01*
X56597Y-40150D01*
X56625Y-40085D01*
X56625Y-39916D01*
X56561Y-39760D01*
X56441Y-39640D01*
X56285Y-39575D01*
X56116Y-39575D01*
X55960Y-39639D01*
X55850Y-39749D01*
X55841Y-39740D01*
X55685Y-39675D01*
X55516Y-39675D01*
X55360Y-39739D01*
X55240Y-39859D01*
X55175Y-40015D01*
X55175Y-40184D01*
X55239Y-40340D01*
X55359Y-40460D01*
X55515Y-40525D01*
X55684Y-40525D01*
X55840Y-40461D01*
X55950Y-40351D01*
X55959Y-40360D01*
X56115Y-40425D01*
X56152Y-40425D01*
X56125Y-40490D01*
X56125Y-40659D01*
X56189Y-40815D01*
X56309Y-40935D01*
X56465Y-41000D01*
X56634Y-41000D01*
X56708Y-40969D01*
X56739Y-41000D01*
X56895Y-41065D01*
X56895Y-41300D01*
X56917Y-41409D01*
X56978Y-41502D01*
X57071Y-41563D01*
X57133Y-41575D01*
X57075Y-41715D01*
X57075Y-41884D01*
X57139Y-42040D01*
X57259Y-42160D01*
X57415Y-42225D01*
X57584Y-42225D01*
X57740Y-42161D01*
X57860Y-42041D01*
X57925Y-41885D01*
X57925Y-46700D01*
X55475Y-46700D01*
X55475Y-43335D01*
X55475Y-43166D01*
X55411Y-43010D01*
X55291Y-42890D01*
X55225Y-42862D01*
X55225Y-40585D01*
X55225Y-40416D01*
X55161Y-40260D01*
X55041Y-40140D01*
X54885Y-40075D01*
X54767Y-40075D01*
X54761Y-40060D01*
X54685Y-39984D01*
X54685Y-34100D01*
X54663Y-33991D01*
X54602Y-33898D01*
X54509Y-33837D01*
X54400Y-33815D01*
X54000Y-33815D01*
X53891Y-33837D01*
X53799Y-33897D01*
X53825Y-33835D01*
X53825Y-33666D01*
X53761Y-33510D01*
X53641Y-33390D01*
X53485Y-33325D01*
X53316Y-33325D01*
X53160Y-33389D01*
X53040Y-33509D01*
X52975Y-33665D01*
X52975Y-33834D01*
X53039Y-33990D01*
X53159Y-34110D01*
X53315Y-34175D01*
X53324Y-34175D01*
X53284Y-34215D01*
X53200Y-34215D01*
X53091Y-34237D01*
X52998Y-34298D01*
X52937Y-34391D01*
X52915Y-34500D01*
X52937Y-34609D01*
X52998Y-34702D01*
X53091Y-34763D01*
X53200Y-34785D01*
X53284Y-34785D01*
X53359Y-34860D01*
X53515Y-34925D01*
X53684Y-34925D01*
X53840Y-34861D01*
X53960Y-34741D01*
X54025Y-34585D01*
X54025Y-34478D01*
X54118Y-34385D01*
X54400Y-34385D01*
X54509Y-34363D01*
X54602Y-34302D01*
X54663Y-34209D01*
X54685Y-34100D01*
X54685Y-39984D01*
X54641Y-39940D01*
X54485Y-39875D01*
X54316Y-39875D01*
X54160Y-39939D01*
X54040Y-40059D01*
X53975Y-40215D01*
X53975Y-40384D01*
X54039Y-40540D01*
X54159Y-40660D01*
X54315Y-40725D01*
X54432Y-40725D01*
X54439Y-40740D01*
X54559Y-40860D01*
X54715Y-40925D01*
X54884Y-40925D01*
X55040Y-40861D01*
X55160Y-40741D01*
X55225Y-40585D01*
X55225Y-42862D01*
X55135Y-42825D01*
X54966Y-42825D01*
X54810Y-42889D01*
X54690Y-43009D01*
X54625Y-43165D01*
X54625Y-43334D01*
X54689Y-43490D01*
X54809Y-43610D01*
X54965Y-43675D01*
X55134Y-43675D01*
X55290Y-43611D01*
X55410Y-43491D01*
X55475Y-43335D01*
X55475Y-46700D01*
X53285Y-46700D01*
X53285Y-35900D01*
X53285Y-35300D01*
X53284Y-35299D01*
X53285Y-35299D01*
X53281Y-35280D01*
X53263Y-35191D01*
X53225Y-35134D01*
X53225Y-35133D01*
X53225Y-35016D01*
X53161Y-34860D01*
X53041Y-34740D01*
X52885Y-34675D01*
X52716Y-34675D01*
X52560Y-34739D01*
X52440Y-34859D01*
X52375Y-35015D01*
X52375Y-35184D01*
X52439Y-35340D01*
X52559Y-35460D01*
X52715Y-35525D01*
X52715Y-35900D01*
X52737Y-36009D01*
X52798Y-36102D01*
X52891Y-36163D01*
X53000Y-36185D01*
X53109Y-36163D01*
X53202Y-36102D01*
X53263Y-36009D01*
X53285Y-35900D01*
X53285Y-46700D01*
X51775Y-46700D01*
X51775Y-42085D01*
X51775Y-41916D01*
X51711Y-41760D01*
X51591Y-41640D01*
X51435Y-41575D01*
X51266Y-41575D01*
X51110Y-41639D01*
X50990Y-41759D01*
X50925Y-41915D01*
X50925Y-42084D01*
X50989Y-42240D01*
X51109Y-42360D01*
X51265Y-42425D01*
X51434Y-42425D01*
X51590Y-42361D01*
X51710Y-42241D01*
X51775Y-42085D01*
X51775Y-46700D01*
X47349Y-46700D01*
X47303Y-42753D01*
X47339Y-42840D01*
X47459Y-42960D01*
X47604Y-43020D01*
X47560Y-43039D01*
X47440Y-43159D01*
X47375Y-43315D01*
X47375Y-43484D01*
X47439Y-43640D01*
X47559Y-43760D01*
X47715Y-43825D01*
X47884Y-43825D01*
X48040Y-43761D01*
X48160Y-43641D01*
X48208Y-43525D01*
X48460Y-43525D01*
X48569Y-43503D01*
X48662Y-43442D01*
X48723Y-43349D01*
X48745Y-43240D01*
X48723Y-43131D01*
X48662Y-43038D01*
X48569Y-42977D01*
X48460Y-42955D01*
X47960Y-42955D01*
X47942Y-42958D01*
X48060Y-42841D01*
X48125Y-42685D01*
X48125Y-42516D01*
X48061Y-42360D01*
X47951Y-42250D01*
X48060Y-42141D01*
X48125Y-41985D01*
X48125Y-41816D01*
X48061Y-41660D01*
X47941Y-41540D01*
X47785Y-41475D01*
X47616Y-41475D01*
X47468Y-41535D01*
X47743Y-40041D01*
X50900Y-39289D01*
X50900Y-35968D01*
X52813Y-33612D01*
X52940Y-33561D01*
X53060Y-33441D01*
X53125Y-33285D01*
X53125Y-33116D01*
X53061Y-32960D01*
X52941Y-32840D01*
X52850Y-32802D01*
X52850Y-31650D01*
X86550Y-31650D01*
X86550Y-31650D01*
G37*
G54D22*
X86550Y-31650D02*
X86500Y-46700D01*
X84352Y-46700D01*
X84420Y-46633D01*
X84567Y-46278D01*
X84567Y-45893D01*
X84567Y-41605D01*
X84567Y-41220D01*
X84420Y-40865D01*
X84148Y-40592D01*
X83793Y-40445D01*
X83408Y-40445D01*
X83053Y-40592D01*
X82780Y-40864D01*
X82633Y-41219D01*
X82633Y-41604D01*
X82780Y-41959D01*
X83052Y-42232D01*
X83407Y-42379D01*
X83792Y-42379D01*
X84147Y-42232D01*
X84420Y-41960D01*
X84567Y-41605D01*
X84567Y-45893D01*
X84420Y-45538D01*
X84148Y-45265D01*
X83793Y-45118D01*
X83408Y-45118D01*
X83053Y-45265D01*
X82780Y-45537D01*
X82633Y-45892D01*
X82633Y-46277D01*
X82780Y-46632D01*
X82847Y-46700D01*
X81644Y-46700D01*
X81644Y-45845D01*
X81644Y-45746D01*
X81644Y-45156D01*
X81606Y-45064D01*
X81536Y-44994D01*
X81445Y-44956D01*
X81413Y-44956D01*
X81561Y-44808D01*
X81644Y-44608D01*
X81644Y-44392D01*
X81561Y-44192D01*
X81408Y-44039D01*
X81314Y-44000D01*
X81408Y-43961D01*
X81561Y-43808D01*
X81644Y-43608D01*
X81644Y-43392D01*
X81561Y-43192D01*
X81408Y-43039D01*
X81314Y-43000D01*
X81408Y-42961D01*
X81561Y-42808D01*
X81644Y-42608D01*
X81644Y-42392D01*
X81561Y-42192D01*
X81408Y-42039D01*
X81208Y-41956D01*
X80992Y-41956D01*
X80792Y-42039D01*
X80639Y-42192D01*
X80556Y-42392D01*
X80556Y-42608D01*
X80639Y-42808D01*
X80792Y-42961D01*
X80885Y-43000D01*
X80792Y-43039D01*
X80639Y-43192D01*
X80556Y-43392D01*
X80556Y-43608D01*
X80639Y-43808D01*
X80792Y-43961D01*
X80885Y-44000D01*
X80792Y-44039D01*
X80639Y-44192D01*
X80556Y-44392D01*
X80556Y-44608D01*
X80639Y-44808D01*
X80787Y-44956D01*
X80756Y-44956D01*
X80664Y-44994D01*
X80644Y-45014D01*
X80644Y-44892D01*
X80561Y-44692D01*
X80408Y-44539D01*
X80314Y-44500D01*
X80408Y-44461D01*
X80561Y-44308D01*
X80644Y-44108D01*
X80644Y-43892D01*
X80561Y-43692D01*
X80408Y-43539D01*
X80314Y-43500D01*
X80408Y-43461D01*
X80561Y-43308D01*
X80644Y-43108D01*
X80644Y-42892D01*
X80561Y-42692D01*
X80408Y-42539D01*
X80314Y-42500D01*
X80408Y-42461D01*
X80561Y-42308D01*
X80644Y-42108D01*
X80644Y-41892D01*
X80561Y-41692D01*
X80408Y-41539D01*
X80208Y-41456D01*
X79992Y-41456D01*
X79792Y-41539D01*
X79639Y-41692D01*
X79556Y-41892D01*
X79556Y-42108D01*
X79639Y-42308D01*
X79792Y-42461D01*
X79885Y-42500D01*
X79792Y-42539D01*
X79639Y-42692D01*
X79556Y-42892D01*
X79556Y-43108D01*
X79639Y-43308D01*
X79792Y-43461D01*
X79885Y-43500D01*
X79792Y-43539D01*
X79639Y-43692D01*
X79556Y-43892D01*
X79556Y-44108D01*
X79639Y-44308D01*
X79792Y-44461D01*
X79885Y-44500D01*
X79792Y-44539D01*
X79639Y-44692D01*
X79556Y-44892D01*
X79556Y-45108D01*
X79639Y-45308D01*
X79792Y-45461D01*
X79992Y-45544D01*
X80208Y-45544D01*
X80408Y-45461D01*
X80556Y-45313D01*
X80556Y-45844D01*
X80594Y-45936D01*
X80664Y-46006D01*
X80755Y-46044D01*
X80854Y-46044D01*
X81444Y-46044D01*
X81536Y-46006D01*
X81606Y-45936D01*
X81644Y-45845D01*
X81644Y-46700D01*
X76291Y-46700D01*
X76291Y-40236D01*
X76291Y-40066D01*
X76226Y-39909D01*
X76107Y-39789D01*
X75950Y-39723D01*
X75780Y-39723D01*
X75623Y-39788D01*
X75503Y-39907D01*
X75437Y-40064D01*
X75437Y-40234D01*
X75502Y-40391D01*
X75621Y-40511D01*
X75778Y-40577D01*
X75948Y-40577D01*
X76105Y-40512D01*
X76225Y-40393D01*
X76291Y-40236D01*
X76291Y-46700D01*
X74775Y-46700D01*
X74775Y-43985D01*
X74775Y-43816D01*
X74711Y-43660D01*
X74591Y-43540D01*
X74435Y-43475D01*
X74266Y-43475D01*
X74110Y-43539D01*
X74086Y-43563D01*
X74086Y-40247D01*
X74086Y-40054D01*
X74012Y-39875D01*
X73876Y-39738D01*
X73697Y-39664D01*
X73504Y-39664D01*
X73325Y-39738D01*
X73188Y-39874D01*
X73114Y-40053D01*
X73114Y-40246D01*
X73188Y-40425D01*
X73324Y-40562D01*
X73503Y-40636D01*
X73696Y-40636D01*
X73875Y-40562D01*
X74012Y-40426D01*
X74086Y-40247D01*
X74086Y-43563D01*
X73990Y-43659D01*
X73925Y-43815D01*
X73925Y-43984D01*
X73989Y-44140D01*
X74109Y-44260D01*
X74265Y-44325D01*
X74434Y-44325D01*
X74590Y-44261D01*
X74710Y-44141D01*
X74775Y-43985D01*
X74775Y-46700D01*
X72725Y-46700D01*
X72725Y-44485D01*
X72725Y-44316D01*
X72661Y-44160D01*
X72541Y-44040D01*
X72385Y-43975D01*
X72216Y-43975D01*
X72060Y-44039D01*
X71940Y-44159D01*
X71875Y-44315D01*
X71875Y-44484D01*
X71939Y-44640D01*
X72059Y-44760D01*
X72215Y-44825D01*
X72384Y-44825D01*
X72540Y-44761D01*
X72660Y-44641D01*
X72725Y-44485D01*
X72725Y-46700D01*
X71825Y-46700D01*
X71825Y-38085D01*
X71825Y-37916D01*
X71761Y-37760D01*
X71641Y-37640D01*
X71485Y-37575D01*
X71316Y-37575D01*
X71160Y-37639D01*
X71040Y-37759D01*
X70975Y-37915D01*
X70975Y-38084D01*
X71039Y-38240D01*
X71159Y-38360D01*
X71315Y-38425D01*
X71484Y-38425D01*
X71640Y-38361D01*
X71760Y-38241D01*
X71825Y-38085D01*
X71825Y-46700D01*
X71425Y-46700D01*
X71425Y-39985D01*
X71425Y-39816D01*
X71361Y-39660D01*
X71241Y-39540D01*
X71085Y-39475D01*
X70916Y-39475D01*
X70760Y-39539D01*
X70640Y-39659D01*
X70575Y-39815D01*
X70575Y-39984D01*
X70639Y-40140D01*
X70759Y-40260D01*
X70915Y-40325D01*
X71084Y-40325D01*
X71240Y-40261D01*
X71360Y-40141D01*
X71425Y-39985D01*
X71425Y-46700D01*
X70425Y-46700D01*
X70425Y-36585D01*
X70425Y-36416D01*
X70361Y-36260D01*
X70241Y-36140D01*
X70225Y-36133D01*
X70225Y-35385D01*
X70225Y-35216D01*
X70161Y-35060D01*
X70041Y-34940D01*
X69885Y-34875D01*
X69875Y-34875D01*
X69875Y-32935D01*
X69875Y-32766D01*
X69811Y-32610D01*
X69726Y-32525D01*
X69810Y-32441D01*
X69875Y-32285D01*
X69875Y-32116D01*
X69811Y-31960D01*
X69691Y-31840D01*
X69535Y-31775D01*
X69366Y-31775D01*
X69210Y-31839D01*
X69090Y-31959D01*
X69029Y-32103D01*
X69011Y-32059D01*
X68941Y-31989D01*
X68850Y-31951D01*
X68751Y-31951D01*
X68151Y-31951D01*
X68059Y-31989D01*
X67989Y-32059D01*
X67951Y-32150D01*
X67951Y-32175D01*
X67811Y-32035D01*
X67609Y-31951D01*
X67391Y-31951D01*
X67189Y-32035D01*
X67035Y-32189D01*
X66951Y-32391D01*
X66951Y-32609D01*
X67035Y-32811D01*
X67189Y-32965D01*
X67391Y-33049D01*
X67609Y-33049D01*
X67811Y-32965D01*
X67951Y-32825D01*
X67951Y-32849D01*
X67989Y-32941D01*
X68059Y-33011D01*
X68150Y-33049D01*
X68249Y-33049D01*
X68849Y-33049D01*
X68941Y-33011D01*
X69011Y-32941D01*
X69025Y-32907D01*
X69025Y-32934D01*
X69089Y-33090D01*
X69209Y-33210D01*
X69365Y-33275D01*
X69534Y-33275D01*
X69690Y-33211D01*
X69810Y-33091D01*
X69875Y-32935D01*
X69875Y-34875D01*
X69716Y-34875D01*
X69560Y-34939D01*
X69440Y-35059D01*
X69375Y-35215D01*
X69375Y-35384D01*
X69439Y-35540D01*
X69559Y-35660D01*
X69715Y-35725D01*
X69884Y-35725D01*
X70040Y-35661D01*
X70160Y-35541D01*
X70225Y-35385D01*
X70225Y-36133D01*
X70085Y-36075D01*
X69916Y-36075D01*
X69760Y-36139D01*
X69640Y-36259D01*
X69620Y-36305D01*
X69561Y-36160D01*
X69441Y-36040D01*
X69285Y-35975D01*
X69158Y-35975D01*
X69175Y-35935D01*
X69175Y-35766D01*
X69111Y-35610D01*
X68991Y-35490D01*
X68835Y-35425D01*
X68666Y-35425D01*
X68510Y-35489D01*
X68390Y-35609D01*
X68325Y-35765D01*
X68325Y-35882D01*
X68310Y-35889D01*
X68190Y-36009D01*
X68130Y-36151D01*
X68115Y-36114D01*
X68032Y-36031D01*
X68115Y-35949D01*
X68199Y-35747D01*
X68199Y-35529D01*
X68115Y-35327D01*
X67961Y-35173D01*
X67759Y-35089D01*
X67541Y-35089D01*
X67339Y-35173D01*
X67185Y-35327D01*
X67101Y-35529D01*
X67101Y-35747D01*
X67185Y-35949D01*
X67267Y-36031D01*
X67185Y-36114D01*
X67101Y-36316D01*
X67101Y-36534D01*
X67185Y-36736D01*
X67268Y-36819D01*
X67185Y-36902D01*
X67101Y-37104D01*
X67101Y-37322D01*
X67185Y-37524D01*
X67267Y-37606D01*
X67185Y-37689D01*
X67101Y-37891D01*
X67101Y-38109D01*
X67185Y-38311D01*
X67267Y-38393D01*
X67185Y-38476D01*
X67101Y-38678D01*
X67101Y-38896D01*
X67185Y-39098D01*
X67268Y-39181D01*
X67185Y-39264D01*
X67101Y-39466D01*
X67101Y-39684D01*
X67185Y-39886D01*
X67267Y-39968D01*
X67185Y-40051D01*
X67101Y-40253D01*
X67101Y-40471D01*
X67185Y-40673D01*
X67339Y-40827D01*
X67438Y-40868D01*
X67650Y-41079D01*
X67861Y-40868D01*
X67961Y-40827D01*
X68115Y-40673D01*
X68199Y-40471D01*
X68199Y-40253D01*
X68115Y-40051D01*
X68032Y-39968D01*
X68115Y-39886D01*
X68199Y-39684D01*
X68199Y-39466D01*
X68115Y-39264D01*
X68032Y-39181D01*
X68115Y-39098D01*
X68199Y-38896D01*
X68199Y-38678D01*
X68115Y-38476D01*
X68032Y-38393D01*
X68115Y-38311D01*
X68199Y-38109D01*
X68199Y-37891D01*
X68115Y-37689D01*
X68032Y-37606D01*
X68115Y-37524D01*
X68199Y-37322D01*
X68199Y-37104D01*
X68115Y-36902D01*
X68032Y-36819D01*
X68115Y-36736D01*
X68199Y-36534D01*
X68199Y-36500D01*
X68309Y-36610D01*
X68465Y-36675D01*
X68634Y-36675D01*
X68790Y-36611D01*
X68816Y-36584D01*
X68839Y-36640D01*
X68959Y-36760D01*
X69115Y-36825D01*
X69284Y-36825D01*
X69440Y-36761D01*
X69560Y-36641D01*
X69579Y-36594D01*
X69639Y-36740D01*
X69759Y-36860D01*
X69795Y-36875D01*
X69666Y-36875D01*
X69510Y-36939D01*
X69390Y-37059D01*
X69325Y-37215D01*
X69325Y-37384D01*
X69389Y-37540D01*
X69509Y-37660D01*
X69665Y-37725D01*
X69834Y-37725D01*
X69990Y-37661D01*
X70110Y-37541D01*
X70175Y-37385D01*
X70175Y-37216D01*
X70111Y-37060D01*
X69991Y-36940D01*
X69955Y-36925D01*
X70084Y-36925D01*
X70240Y-36861D01*
X70360Y-36741D01*
X70425Y-36585D01*
X70425Y-46700D01*
X68193Y-46700D01*
X68193Y-41229D01*
X68182Y-41016D01*
X68122Y-40869D01*
X68028Y-40842D01*
X67721Y-41150D01*
X68028Y-41458D01*
X68122Y-41431D01*
X68193Y-41229D01*
X68193Y-46700D01*
X67958Y-46700D01*
X67958Y-41528D01*
X67650Y-41221D01*
X67579Y-41291D01*
X67579Y-41150D01*
X67272Y-40842D01*
X67178Y-40869D01*
X67107Y-41071D01*
X67118Y-41284D01*
X67178Y-41431D01*
X67272Y-41458D01*
X67579Y-41150D01*
X67579Y-41291D01*
X67342Y-41528D01*
X67369Y-41622D01*
X67571Y-41693D01*
X67784Y-41682D01*
X67931Y-41622D01*
X67958Y-41528D01*
X67958Y-46700D01*
X67126Y-46700D01*
X67126Y-42727D01*
X67126Y-42558D01*
X67069Y-42419D01*
X67125Y-42285D01*
X67125Y-42116D01*
X67061Y-41960D01*
X66941Y-41840D01*
X66785Y-41775D01*
X66725Y-41775D01*
X66725Y-35385D01*
X66725Y-35216D01*
X66661Y-35060D01*
X66541Y-34940D01*
X66385Y-34875D01*
X66216Y-34875D01*
X66060Y-34939D01*
X65940Y-35059D01*
X65875Y-35215D01*
X65875Y-35384D01*
X65939Y-35540D01*
X66059Y-35660D01*
X66215Y-35725D01*
X66384Y-35725D01*
X66540Y-35661D01*
X66660Y-35541D01*
X66725Y-35385D01*
X66725Y-41775D01*
X66616Y-41775D01*
X66460Y-41839D01*
X66375Y-41924D01*
X66375Y-38385D01*
X66375Y-38216D01*
X66311Y-38060D01*
X66191Y-37940D01*
X66035Y-37875D01*
X65925Y-37875D01*
X65925Y-37585D01*
X65925Y-37416D01*
X65861Y-37260D01*
X65741Y-37140D01*
X65585Y-37075D01*
X65575Y-37075D01*
X65575Y-34485D01*
X65575Y-34316D01*
X65511Y-34160D01*
X65391Y-34040D01*
X65235Y-33975D01*
X65066Y-33975D01*
X64910Y-34039D01*
X64790Y-34159D01*
X64725Y-34315D01*
X64725Y-34484D01*
X64789Y-34640D01*
X64909Y-34760D01*
X65065Y-34825D01*
X65234Y-34825D01*
X65390Y-34761D01*
X65510Y-34641D01*
X65575Y-34485D01*
X65575Y-37075D01*
X65416Y-37075D01*
X65260Y-37139D01*
X65140Y-37259D01*
X65075Y-37415D01*
X65075Y-37584D01*
X65139Y-37740D01*
X65259Y-37860D01*
X65415Y-37925D01*
X65584Y-37925D01*
X65740Y-37861D01*
X65860Y-37741D01*
X65925Y-37585D01*
X65925Y-37875D01*
X65866Y-37875D01*
X65710Y-37939D01*
X65590Y-38059D01*
X65525Y-38215D01*
X65525Y-38275D01*
X65416Y-38275D01*
X65260Y-38339D01*
X65140Y-38459D01*
X65075Y-38615D01*
X65075Y-38784D01*
X65139Y-38940D01*
X65259Y-39060D01*
X65415Y-39125D01*
X65584Y-39125D01*
X65740Y-39061D01*
X65860Y-38941D01*
X65925Y-38785D01*
X65925Y-38725D01*
X66034Y-38725D01*
X66190Y-38661D01*
X66310Y-38541D01*
X66375Y-38385D01*
X66375Y-41924D01*
X66340Y-41959D01*
X66275Y-42115D01*
X66275Y-42284D01*
X66331Y-42422D01*
X66276Y-42557D01*
X66276Y-42726D01*
X66340Y-42882D01*
X66386Y-42928D01*
X66360Y-42939D01*
X66240Y-43059D01*
X66233Y-43075D01*
X66116Y-43075D01*
X65960Y-43139D01*
X65875Y-43224D01*
X65875Y-40735D01*
X65875Y-40566D01*
X65811Y-40410D01*
X65691Y-40290D01*
X65535Y-40225D01*
X65366Y-40225D01*
X65210Y-40289D01*
X65090Y-40409D01*
X65025Y-40565D01*
X65025Y-40734D01*
X65089Y-40890D01*
X65209Y-41010D01*
X65365Y-41075D01*
X65534Y-41075D01*
X65690Y-41011D01*
X65810Y-40891D01*
X65875Y-40735D01*
X65875Y-43224D01*
X65840Y-43259D01*
X65775Y-43415D01*
X65775Y-43584D01*
X65839Y-43740D01*
X65959Y-43860D01*
X66115Y-43925D01*
X66284Y-43925D01*
X66440Y-43861D01*
X66560Y-43741D01*
X66566Y-43725D01*
X66684Y-43725D01*
X66840Y-43661D01*
X66960Y-43541D01*
X67025Y-43385D01*
X67025Y-43216D01*
X66961Y-43060D01*
X66914Y-43013D01*
X66941Y-43003D01*
X67061Y-42883D01*
X67126Y-42727D01*
X67126Y-46700D01*
X66625Y-46700D01*
X66625Y-45385D01*
X66625Y-45216D01*
X66561Y-45060D01*
X66441Y-44940D01*
X66285Y-44875D01*
X66116Y-44875D01*
X65960Y-44939D01*
X65840Y-45059D01*
X65833Y-45075D01*
X65716Y-45075D01*
X65560Y-45139D01*
X65440Y-45259D01*
X65375Y-45415D01*
X65375Y-45584D01*
X65439Y-45740D01*
X65559Y-45860D01*
X65715Y-45925D01*
X65884Y-45925D01*
X66040Y-45861D01*
X66160Y-45741D01*
X66166Y-45725D01*
X66284Y-45725D01*
X66440Y-45661D01*
X66560Y-45541D01*
X66625Y-45385D01*
X66625Y-46700D01*
X65049Y-46700D01*
X65049Y-41259D01*
X65049Y-41041D01*
X64965Y-40839D01*
X64882Y-40756D01*
X64965Y-40673D01*
X65049Y-40471D01*
X65049Y-40253D01*
X64965Y-40051D01*
X64882Y-39968D01*
X64965Y-39886D01*
X65049Y-39684D01*
X65049Y-39466D01*
X64965Y-39264D01*
X64882Y-39181D01*
X64965Y-39098D01*
X65049Y-38896D01*
X65049Y-38678D01*
X64965Y-38476D01*
X64882Y-38393D01*
X64965Y-38311D01*
X65049Y-38109D01*
X65049Y-37891D01*
X64965Y-37689D01*
X64882Y-37606D01*
X64965Y-37524D01*
X65049Y-37322D01*
X65049Y-37104D01*
X64965Y-36902D01*
X64882Y-36819D01*
X64965Y-36736D01*
X65049Y-36534D01*
X65049Y-36316D01*
X64965Y-36114D01*
X64882Y-36031D01*
X64965Y-35949D01*
X65049Y-35747D01*
X65049Y-35529D01*
X64965Y-35327D01*
X64811Y-35173D01*
X64609Y-35089D01*
X64391Y-35089D01*
X64189Y-35173D01*
X64075Y-35287D01*
X64075Y-33885D01*
X64075Y-33716D01*
X64011Y-33560D01*
X63891Y-33440D01*
X63735Y-33375D01*
X63566Y-33375D01*
X63410Y-33439D01*
X63290Y-33559D01*
X63225Y-33715D01*
X63225Y-33884D01*
X63289Y-34040D01*
X63409Y-34160D01*
X63565Y-34225D01*
X63734Y-34225D01*
X63890Y-34161D01*
X64010Y-34041D01*
X64075Y-33885D01*
X64075Y-35287D01*
X64035Y-35327D01*
X63951Y-35529D01*
X63951Y-35747D01*
X64035Y-35949D01*
X64117Y-36031D01*
X64035Y-36114D01*
X63951Y-36316D01*
X63951Y-36534D01*
X64035Y-36736D01*
X64118Y-36819D01*
X64035Y-36902D01*
X63951Y-37104D01*
X63951Y-37322D01*
X64035Y-37524D01*
X64117Y-37606D01*
X64035Y-37689D01*
X63951Y-37891D01*
X63951Y-38109D01*
X64035Y-38311D01*
X64117Y-38393D01*
X64035Y-38476D01*
X63951Y-38678D01*
X63951Y-38896D01*
X64035Y-39098D01*
X64118Y-39181D01*
X64035Y-39264D01*
X63951Y-39466D01*
X63951Y-39684D01*
X64035Y-39886D01*
X64117Y-39968D01*
X64035Y-40051D01*
X63951Y-40253D01*
X63951Y-40471D01*
X64035Y-40673D01*
X64118Y-40756D01*
X64035Y-40839D01*
X63951Y-41041D01*
X63951Y-41259D01*
X64035Y-41461D01*
X64189Y-41615D01*
X64391Y-41699D01*
X64609Y-41699D01*
X64811Y-41615D01*
X64965Y-41461D01*
X65049Y-41259D01*
X65049Y-46700D01*
X63675Y-46700D01*
X63675Y-39585D01*
X63675Y-39416D01*
X63611Y-39260D01*
X63491Y-39140D01*
X63335Y-39075D01*
X63276Y-39075D01*
X63360Y-38991D01*
X63425Y-38835D01*
X63425Y-38666D01*
X63361Y-38510D01*
X63241Y-38390D01*
X63085Y-38325D01*
X62925Y-38325D01*
X62925Y-37835D01*
X62925Y-37666D01*
X62861Y-37510D01*
X62741Y-37390D01*
X62675Y-37362D01*
X62675Y-32985D01*
X62675Y-32816D01*
X62611Y-32660D01*
X62491Y-32540D01*
X62335Y-32475D01*
X62166Y-32475D01*
X62010Y-32539D01*
X61890Y-32659D01*
X61825Y-32815D01*
X61825Y-32984D01*
X61889Y-33140D01*
X62009Y-33260D01*
X62165Y-33325D01*
X62334Y-33325D01*
X62490Y-33261D01*
X62610Y-33141D01*
X62675Y-32985D01*
X62675Y-37362D01*
X62585Y-37325D01*
X62416Y-37325D01*
X62260Y-37389D01*
X62140Y-37509D01*
X62075Y-37665D01*
X62075Y-37834D01*
X62139Y-37990D01*
X62259Y-38110D01*
X62415Y-38175D01*
X62584Y-38175D01*
X62740Y-38111D01*
X62860Y-37991D01*
X62925Y-37835D01*
X62925Y-38325D01*
X62916Y-38325D01*
X62760Y-38389D01*
X62640Y-38509D01*
X62575Y-38665D01*
X62575Y-38834D01*
X62639Y-38990D01*
X62759Y-39110D01*
X62915Y-39175D01*
X62974Y-39175D01*
X62890Y-39259D01*
X62825Y-39415D01*
X62825Y-39584D01*
X62889Y-39740D01*
X63009Y-39860D01*
X63165Y-39925D01*
X63334Y-39925D01*
X63490Y-39861D01*
X63610Y-39741D01*
X63675Y-39585D01*
X63675Y-46700D01*
X62250Y-46700D01*
X62250Y-42660D01*
X62250Y-42491D01*
X62186Y-42335D01*
X62066Y-42215D01*
X61910Y-42150D01*
X61875Y-42150D01*
X61875Y-41685D01*
X61875Y-41516D01*
X61811Y-41360D01*
X61691Y-41240D01*
X61535Y-41175D01*
X61425Y-41175D01*
X61425Y-37185D01*
X61425Y-37016D01*
X61361Y-36860D01*
X61241Y-36740D01*
X61085Y-36675D01*
X60975Y-36675D01*
X60975Y-34435D01*
X60975Y-34266D01*
X60911Y-34110D01*
X60791Y-33990D01*
X60635Y-33925D01*
X60466Y-33925D01*
X60310Y-33989D01*
X60190Y-34109D01*
X60125Y-34265D01*
X60125Y-34434D01*
X60189Y-34590D01*
X60309Y-34710D01*
X60465Y-34775D01*
X60634Y-34775D01*
X60790Y-34711D01*
X60910Y-34591D01*
X60975Y-34435D01*
X60975Y-36675D01*
X60916Y-36675D01*
X60875Y-36691D01*
X60875Y-36666D01*
X60811Y-36510D01*
X60691Y-36390D01*
X60535Y-36325D01*
X60366Y-36325D01*
X60210Y-36389D01*
X60090Y-36509D01*
X60049Y-36607D01*
X60049Y-33050D01*
X60049Y-32951D01*
X60049Y-32351D01*
X60011Y-32259D01*
X59941Y-32189D01*
X59850Y-32151D01*
X59751Y-32151D01*
X59151Y-32151D01*
X59059Y-32189D01*
X58989Y-32259D01*
X58951Y-32350D01*
X58951Y-32375D01*
X58811Y-32235D01*
X58609Y-32151D01*
X58391Y-32151D01*
X58189Y-32235D01*
X58035Y-32389D01*
X57997Y-32480D01*
X57972Y-32419D01*
X57878Y-32392D01*
X57808Y-32462D01*
X57808Y-32322D01*
X57781Y-32228D01*
X57579Y-32157D01*
X57366Y-32168D01*
X57219Y-32228D01*
X57192Y-32322D01*
X57500Y-32629D01*
X57808Y-32322D01*
X57808Y-32462D01*
X57571Y-32700D01*
X57878Y-33008D01*
X57972Y-32981D01*
X57995Y-32915D01*
X58035Y-33011D01*
X58189Y-33165D01*
X58391Y-33249D01*
X58609Y-33249D01*
X58811Y-33165D01*
X58951Y-33025D01*
X58951Y-33049D01*
X58989Y-33141D01*
X59059Y-33211D01*
X59150Y-33249D01*
X59140Y-33259D01*
X59075Y-33415D01*
X59075Y-33584D01*
X59139Y-33740D01*
X59259Y-33860D01*
X59415Y-33925D01*
X59584Y-33925D01*
X59740Y-33861D01*
X59860Y-33741D01*
X59925Y-33585D01*
X59925Y-33416D01*
X59861Y-33260D01*
X59849Y-33248D01*
X59941Y-33211D01*
X60011Y-33141D01*
X60049Y-33050D01*
X60049Y-36607D01*
X60025Y-36665D01*
X60025Y-36834D01*
X60089Y-36990D01*
X60209Y-37110D01*
X60365Y-37175D01*
X60521Y-37175D01*
X60198Y-37498D01*
X60137Y-37591D01*
X60114Y-37700D01*
X60115Y-37704D01*
X60115Y-37900D01*
X60137Y-38009D01*
X60198Y-38102D01*
X60291Y-38163D01*
X60400Y-38185D01*
X60509Y-38163D01*
X60602Y-38102D01*
X60663Y-38009D01*
X60685Y-37900D01*
X60685Y-37818D01*
X60978Y-37525D01*
X61084Y-37525D01*
X61240Y-37461D01*
X61360Y-37341D01*
X61425Y-37185D01*
X61425Y-41175D01*
X61366Y-41175D01*
X61210Y-41239D01*
X61090Y-41359D01*
X61025Y-41515D01*
X61025Y-41675D01*
X61016Y-41675D01*
X60860Y-41739D01*
X60853Y-41745D01*
X60733Y-41695D01*
X60564Y-41695D01*
X60408Y-41759D01*
X60288Y-41879D01*
X60223Y-42035D01*
X60223Y-42204D01*
X60287Y-42360D01*
X60407Y-42480D01*
X60563Y-42545D01*
X60732Y-42545D01*
X60888Y-42481D01*
X60894Y-42474D01*
X61015Y-42525D01*
X61184Y-42525D01*
X61340Y-42461D01*
X61460Y-42341D01*
X61525Y-42185D01*
X61525Y-42025D01*
X61534Y-42025D01*
X61690Y-41961D01*
X61810Y-41841D01*
X61875Y-41685D01*
X61875Y-42150D01*
X61741Y-42150D01*
X61585Y-42214D01*
X61465Y-42334D01*
X61400Y-42490D01*
X61400Y-42659D01*
X61464Y-42815D01*
X61584Y-42935D01*
X61740Y-43000D01*
X61909Y-43000D01*
X62065Y-42936D01*
X62185Y-42816D01*
X62250Y-42660D01*
X62250Y-46700D01*
X61225Y-46700D01*
X61225Y-44985D01*
X61225Y-44816D01*
X61161Y-44660D01*
X61041Y-44540D01*
X60885Y-44475D01*
X60716Y-44475D01*
X60560Y-44539D01*
X60440Y-44659D01*
X60375Y-44815D01*
X60375Y-44984D01*
X60439Y-45140D01*
X60559Y-45260D01*
X60715Y-45325D01*
X60884Y-45325D01*
X61040Y-45261D01*
X61160Y-45141D01*
X61225Y-44985D01*
X61225Y-46700D01*
X59525Y-46700D01*
X59525Y-38660D01*
X59525Y-38491D01*
X59525Y-36335D01*
X59525Y-36166D01*
X59461Y-36010D01*
X59341Y-35890D01*
X59185Y-35825D01*
X59025Y-35825D01*
X59025Y-33785D01*
X59025Y-33616D01*
X58961Y-33460D01*
X58841Y-33340D01*
X58685Y-33275D01*
X58516Y-33275D01*
X58360Y-33339D01*
X58240Y-33459D01*
X58175Y-33615D01*
X58175Y-33784D01*
X58239Y-33940D01*
X58359Y-34060D01*
X58515Y-34125D01*
X58684Y-34125D01*
X58840Y-34061D01*
X58960Y-33941D01*
X59025Y-33785D01*
X59025Y-35825D01*
X59016Y-35825D01*
X58860Y-35889D01*
X58740Y-36009D01*
X58675Y-36165D01*
X58675Y-36334D01*
X58739Y-36490D01*
X58829Y-36580D01*
X58810Y-36589D01*
X58690Y-36709D01*
X58675Y-36744D01*
X58661Y-36710D01*
X58541Y-36590D01*
X58385Y-36525D01*
X58225Y-36525D01*
X58225Y-34085D01*
X58225Y-33916D01*
X58161Y-33760D01*
X58041Y-33640D01*
X57885Y-33575D01*
X57808Y-33575D01*
X57808Y-33078D01*
X57500Y-32771D01*
X57429Y-32841D01*
X57429Y-32700D01*
X57122Y-32392D01*
X57028Y-32419D01*
X57004Y-32484D01*
X56965Y-32389D01*
X56811Y-32235D01*
X56609Y-32151D01*
X56391Y-32151D01*
X56189Y-32235D01*
X56035Y-32389D01*
X56000Y-32473D01*
X55965Y-32389D01*
X55811Y-32235D01*
X55609Y-32151D01*
X55391Y-32151D01*
X55189Y-32235D01*
X55035Y-32389D01*
X55000Y-32473D01*
X54965Y-32389D01*
X54811Y-32235D01*
X54609Y-32151D01*
X54391Y-32151D01*
X54189Y-32235D01*
X54035Y-32389D01*
X53951Y-32591D01*
X53951Y-32809D01*
X54035Y-33011D01*
X54189Y-33165D01*
X54391Y-33249D01*
X54609Y-33249D01*
X54811Y-33165D01*
X54965Y-33011D01*
X55000Y-32926D01*
X55035Y-33011D01*
X55189Y-33165D01*
X55391Y-33249D01*
X55609Y-33249D01*
X55811Y-33165D01*
X55965Y-33011D01*
X56000Y-32926D01*
X56035Y-33011D01*
X56189Y-33165D01*
X56391Y-33249D01*
X56609Y-33249D01*
X56811Y-33165D01*
X56965Y-33011D01*
X57002Y-32919D01*
X57028Y-32981D01*
X57122Y-33008D01*
X57429Y-32700D01*
X57429Y-32841D01*
X57192Y-33078D01*
X57219Y-33172D01*
X57421Y-33243D01*
X57634Y-33232D01*
X57781Y-33172D01*
X57808Y-33078D01*
X57808Y-33575D01*
X57716Y-33575D01*
X57560Y-33639D01*
X57440Y-33759D01*
X57433Y-33775D01*
X57266Y-33775D01*
X57110Y-33839D01*
X56990Y-33959D01*
X56925Y-34115D01*
X56925Y-34284D01*
X56939Y-34318D01*
X56835Y-34275D01*
X56825Y-34275D01*
X56825Y-33885D01*
X56825Y-33716D01*
X56761Y-33560D01*
X56641Y-33440D01*
X56485Y-33375D01*
X56316Y-33375D01*
X56160Y-33439D01*
X56040Y-33559D01*
X55975Y-33715D01*
X55975Y-33884D01*
X56039Y-34040D01*
X56159Y-34160D01*
X56315Y-34225D01*
X56484Y-34225D01*
X56640Y-34161D01*
X56760Y-34041D01*
X56825Y-33885D01*
X56825Y-34275D01*
X56666Y-34275D01*
X56510Y-34339D01*
X56390Y-34459D01*
X56325Y-34615D01*
X56325Y-34784D01*
X56389Y-34940D01*
X56509Y-35060D01*
X56665Y-35125D01*
X56834Y-35125D01*
X56990Y-35061D01*
X57110Y-34941D01*
X57175Y-34785D01*
X57175Y-34616D01*
X57160Y-34581D01*
X57265Y-34625D01*
X57434Y-34625D01*
X57590Y-34561D01*
X57710Y-34441D01*
X57716Y-34425D01*
X57884Y-34425D01*
X58040Y-34361D01*
X58160Y-34241D01*
X58225Y-34085D01*
X58225Y-36525D01*
X58216Y-36525D01*
X58060Y-36589D01*
X57940Y-36709D01*
X57875Y-36865D01*
X57875Y-37034D01*
X57939Y-37190D01*
X58059Y-37310D01*
X58215Y-37375D01*
X58384Y-37375D01*
X58540Y-37311D01*
X58660Y-37191D01*
X58674Y-37155D01*
X58689Y-37190D01*
X58809Y-37310D01*
X58965Y-37375D01*
X59134Y-37375D01*
X59290Y-37311D01*
X59410Y-37191D01*
X59475Y-37035D01*
X59475Y-36866D01*
X59411Y-36710D01*
X59320Y-36619D01*
X59340Y-36611D01*
X59460Y-36491D01*
X59525Y-36335D01*
X59525Y-38491D01*
X59461Y-38335D01*
X59341Y-38215D01*
X59185Y-38150D01*
X59016Y-38150D01*
X58860Y-38214D01*
X58740Y-38334D01*
X58675Y-38490D01*
X58675Y-38659D01*
X58739Y-38815D01*
X58859Y-38935D01*
X59015Y-39000D01*
X59184Y-39000D01*
X59340Y-38936D01*
X59460Y-38816D01*
X59525Y-38660D01*
X59525Y-46700D01*
X58900Y-46700D01*
X58900Y-40485D01*
X58900Y-40316D01*
X58836Y-40160D01*
X58716Y-40040D01*
X58560Y-39975D01*
X58391Y-39975D01*
X58235Y-40039D01*
X58115Y-40159D01*
X58050Y-40315D01*
X58050Y-40484D01*
X58114Y-40640D01*
X58234Y-40760D01*
X58390Y-40825D01*
X58559Y-40825D01*
X58715Y-40761D01*
X58835Y-40641D01*
X58900Y-40485D01*
X58900Y-46700D01*
X57925Y-46700D01*
X57925Y-41885D01*
X57925Y-41716D01*
X57861Y-41560D01*
X57825Y-41524D01*
X57825Y-39785D01*
X57825Y-39616D01*
X57761Y-39460D01*
X57641Y-39340D01*
X57485Y-39275D01*
X57316Y-39275D01*
X57160Y-39339D01*
X57040Y-39459D01*
X56975Y-39615D01*
X56975Y-39784D01*
X57039Y-39940D01*
X57159Y-40060D01*
X57315Y-40125D01*
X57484Y-40125D01*
X57640Y-40061D01*
X57760Y-39941D01*
X57825Y-39785D01*
X57825Y-41524D01*
X57741Y-41440D01*
X57585Y-41375D01*
X57449Y-41375D01*
X57465Y-41300D01*
X57465Y-40840D01*
X57464Y-40839D01*
X57465Y-40839D01*
X57461Y-40820D01*
X57443Y-40731D01*
X57405Y-40674D01*
X57405Y-40673D01*
X57405Y-40556D01*
X57341Y-40400D01*
X57221Y-40280D01*
X57065Y-40215D01*
X56896Y-40215D01*
X56825Y-40243D01*
X56825Y-38985D01*
X56825Y-38816D01*
X56761Y-38660D01*
X56641Y-38540D01*
X56575Y-38512D01*
X56575Y-35735D01*
X56575Y-35566D01*
X56511Y-35410D01*
X56391Y-35290D01*
X56235Y-35225D01*
X56066Y-35225D01*
X55910Y-35289D01*
X55790Y-35409D01*
X55725Y-35565D01*
X55725Y-35734D01*
X55789Y-35890D01*
X55909Y-36010D01*
X56065Y-36075D01*
X56234Y-36075D01*
X56390Y-36011D01*
X56510Y-35891D01*
X56575Y-35735D01*
X56575Y-38512D01*
X56485Y-38475D01*
X56316Y-38475D01*
X56175Y-38532D01*
X56175Y-37585D01*
X56175Y-37416D01*
X56111Y-37260D01*
X55991Y-37140D01*
X55835Y-37075D01*
X55666Y-37075D01*
X55625Y-37091D01*
X55625Y-35785D01*
X55625Y-35616D01*
X55625Y-34235D01*
X55625Y-34066D01*
X55561Y-33910D01*
X55441Y-33790D01*
X55285Y-33725D01*
X55116Y-33725D01*
X54960Y-33789D01*
X54840Y-33909D01*
X54775Y-34065D01*
X54775Y-34234D01*
X54839Y-34390D01*
X54959Y-34510D01*
X55115Y-34575D01*
X55284Y-34575D01*
X55440Y-34511D01*
X55560Y-34391D01*
X55625Y-34235D01*
X55625Y-35616D01*
X55561Y-35460D01*
X55441Y-35340D01*
X55285Y-35275D01*
X55116Y-35275D01*
X54960Y-35339D01*
X54840Y-35459D01*
X54775Y-35615D01*
X54775Y-35784D01*
X54839Y-35940D01*
X54959Y-36060D01*
X55115Y-36125D01*
X55284Y-36125D01*
X55440Y-36061D01*
X55560Y-35941D01*
X55625Y-35785D01*
X55625Y-37091D01*
X55510Y-37139D01*
X55475Y-37174D01*
X55441Y-37140D01*
X55285Y-37075D01*
X55116Y-37075D01*
X54960Y-37139D01*
X54840Y-37259D01*
X54775Y-37415D01*
X54775Y-37584D01*
X54839Y-37740D01*
X54959Y-37860D01*
X55115Y-37925D01*
X55284Y-37925D01*
X55440Y-37861D01*
X55475Y-37826D01*
X55509Y-37860D01*
X55665Y-37925D01*
X55834Y-37925D01*
X55990Y-37861D01*
X56110Y-37741D01*
X56175Y-37585D01*
X56175Y-38532D01*
X56160Y-38539D01*
X56040Y-38659D01*
X55975Y-38815D01*
X55975Y-38984D01*
X56039Y-39140D01*
X56159Y-39260D01*
X56315Y-39325D01*
X56484Y-39325D01*
X56640Y-39261D01*
X56760Y-39141D01*
X56825Y-38985D01*
X56825Y-40243D01*
X56821Y-40245D01*
X56791Y-40215D01*
X56635Y-40150D01*
X56597Y-40150D01*
X56625Y-40085D01*
X56625Y-39916D01*
X56561Y-39760D01*
X56441Y-39640D01*
X56285Y-39575D01*
X56116Y-39575D01*
X55960Y-39639D01*
X55850Y-39749D01*
X55841Y-39740D01*
X55685Y-39675D01*
X55516Y-39675D01*
X55360Y-39739D01*
X55240Y-39859D01*
X55175Y-40015D01*
X55175Y-40184D01*
X55239Y-40340D01*
X55359Y-40460D01*
X55515Y-40525D01*
X55684Y-40525D01*
X55840Y-40461D01*
X55950Y-40351D01*
X55959Y-40360D01*
X56115Y-40425D01*
X56152Y-40425D01*
X56125Y-40490D01*
X56125Y-40659D01*
X56189Y-40815D01*
X56309Y-40935D01*
X56465Y-41000D01*
X56634Y-41000D01*
X56708Y-40969D01*
X56739Y-41000D01*
X56895Y-41065D01*
X56895Y-41300D01*
X56917Y-41409D01*
X56978Y-41502D01*
X57071Y-41563D01*
X57133Y-41575D01*
X57075Y-41715D01*
X57075Y-41884D01*
X57139Y-42040D01*
X57259Y-42160D01*
X57415Y-42225D01*
X57584Y-42225D01*
X57740Y-42161D01*
X57860Y-42041D01*
X57925Y-41885D01*
X57925Y-46700D01*
X55475Y-46700D01*
X55475Y-43335D01*
X55475Y-43166D01*
X55411Y-43010D01*
X55291Y-42890D01*
X55225Y-42862D01*
X55225Y-40585D01*
X55225Y-40416D01*
X55161Y-40260D01*
X55041Y-40140D01*
X54885Y-40075D01*
X54767Y-40075D01*
X54761Y-40060D01*
X54685Y-39984D01*
X54685Y-34100D01*
X54663Y-33991D01*
X54602Y-33898D01*
X54509Y-33837D01*
X54400Y-33815D01*
X54000Y-33815D01*
X53891Y-33837D01*
X53799Y-33897D01*
X53825Y-33835D01*
X53825Y-33666D01*
X53761Y-33510D01*
X53641Y-33390D01*
X53485Y-33325D01*
X53316Y-33325D01*
X53160Y-33389D01*
X53040Y-33509D01*
X52975Y-33665D01*
X52975Y-33834D01*
X53039Y-33990D01*
X53159Y-34110D01*
X53315Y-34175D01*
X53324Y-34175D01*
X53284Y-34215D01*
X53200Y-34215D01*
X53091Y-34237D01*
X52998Y-34298D01*
X52937Y-34391D01*
X52915Y-34500D01*
X52937Y-34609D01*
X52998Y-34702D01*
X53091Y-34763D01*
X53200Y-34785D01*
X53284Y-34785D01*
X53359Y-34860D01*
X53515Y-34925D01*
X53684Y-34925D01*
X53840Y-34861D01*
X53960Y-34741D01*
X54025Y-34585D01*
X54025Y-34478D01*
X54118Y-34385D01*
X54400Y-34385D01*
X54509Y-34363D01*
X54602Y-34302D01*
X54663Y-34209D01*
X54685Y-34100D01*
X54685Y-39984D01*
X54641Y-39940D01*
X54485Y-39875D01*
X54316Y-39875D01*
X54160Y-39939D01*
X54040Y-40059D01*
X53975Y-40215D01*
X53975Y-40384D01*
X54039Y-40540D01*
X54159Y-40660D01*
X54315Y-40725D01*
X54432Y-40725D01*
X54439Y-40740D01*
X54559Y-40860D01*
X54715Y-40925D01*
X54884Y-40925D01*
X55040Y-40861D01*
X55160Y-40741D01*
X55225Y-40585D01*
X55225Y-42862D01*
X55135Y-42825D01*
X54966Y-42825D01*
X54810Y-42889D01*
X54690Y-43009D01*
X54625Y-43165D01*
X54625Y-43334D01*
X54689Y-43490D01*
X54809Y-43610D01*
X54965Y-43675D01*
X55134Y-43675D01*
X55290Y-43611D01*
X55410Y-43491D01*
X55475Y-43335D01*
X55475Y-46700D01*
X53285Y-46700D01*
X53285Y-35900D01*
X53285Y-35300D01*
X53284Y-35299D01*
X53285Y-35299D01*
X53281Y-35280D01*
X53263Y-35191D01*
X53225Y-35134D01*
X53225Y-35133D01*
X53225Y-35016D01*
X53161Y-34860D01*
X53041Y-34740D01*
X52885Y-34675D01*
X52716Y-34675D01*
X52560Y-34739D01*
X52440Y-34859D01*
X52375Y-35015D01*
X52375Y-35184D01*
X52439Y-35340D01*
X52559Y-35460D01*
X52715Y-35525D01*
X52715Y-35900D01*
X52737Y-36009D01*
X52798Y-36102D01*
X52891Y-36163D01*
X53000Y-36185D01*
X53109Y-36163D01*
X53202Y-36102D01*
X53263Y-36009D01*
X53285Y-35900D01*
X53285Y-46700D01*
X51775Y-46700D01*
X51775Y-42085D01*
X51775Y-41916D01*
X51711Y-41760D01*
X51591Y-41640D01*
X51435Y-41575D01*
X51266Y-41575D01*
X51110Y-41639D01*
X50990Y-41759D01*
X50925Y-41915D01*
X50925Y-42084D01*
X50989Y-42240D01*
X51109Y-42360D01*
X51265Y-42425D01*
X51434Y-42425D01*
X51590Y-42361D01*
X51710Y-42241D01*
X51775Y-42085D01*
X51775Y-46700D01*
X47349Y-46700D01*
X47303Y-42753D01*
X47339Y-42840D01*
X47459Y-42960D01*
X47604Y-43020D01*
X47560Y-43039D01*
X47440Y-43159D01*
X47375Y-43315D01*
X47375Y-43484D01*
X47439Y-43640D01*
X47559Y-43760D01*
X47715Y-43825D01*
X47884Y-43825D01*
X48040Y-43761D01*
X48160Y-43641D01*
X48208Y-43525D01*
X48460Y-43525D01*
X48569Y-43503D01*
X48662Y-43442D01*
X48723Y-43349D01*
X48745Y-43240D01*
X48723Y-43131D01*
X48662Y-43038D01*
X48569Y-42977D01*
X48460Y-42955D01*
X47960Y-42955D01*
X47942Y-42958D01*
X48060Y-42841D01*
X48125Y-42685D01*
X48125Y-42516D01*
X48061Y-42360D01*
X47951Y-42250D01*
X48060Y-42141D01*
X48125Y-41985D01*
X48125Y-41816D01*
X48061Y-41660D01*
X47941Y-41540D01*
X47785Y-41475D01*
X47616Y-41475D01*
X47468Y-41535D01*
X47743Y-40041D01*
X50900Y-39289D01*
X50900Y-35968D01*
X52813Y-33612D01*
X52940Y-33561D01*
X53060Y-33441D01*
X53125Y-33285D01*
X53125Y-33116D01*
X53061Y-32960D01*
X52941Y-32840D01*
X52850Y-32802D01*
X52850Y-31650D01*
X86550Y-31650D01*
M02*
