G04 (created by PCBNEW-RS274X (2012-01-19 BZR 3256)-stable) date 10/1/2012 12:47:07 AM*
G01*
G70*
G90*
%MOIN*%
G04 Gerber Fmt 3.4, Leading zero omitted, Abs format*
%FSLAX34Y34*%
G04 APERTURE LIST*
%ADD10C,0.006000*%
%ADD11R,0.070000X0.070000*%
%ADD12C,0.070000*%
%ADD13R,0.350000X0.350000*%
%ADD14R,0.060000X0.060000*%
%ADD15C,0.060000*%
%ADD16C,0.056000*%
%ADD17R,0.055000X0.055000*%
%ADD18C,0.055000*%
%ADD19C,0.035000*%
%ADD20C,0.007000*%
%ADD21C,0.010000*%
G04 APERTURE END LIST*
G54D10*
G54D11*
X89350Y-34650D03*
G54D12*
X89350Y-32650D03*
X89350Y-33650D03*
G54D13*
X95850Y-33650D03*
G54D14*
X34800Y-20850D03*
G54D15*
X35800Y-20850D03*
X36800Y-20850D03*
X37800Y-20850D03*
X38800Y-20850D03*
X39800Y-20850D03*
G54D13*
X89100Y-07850D03*
G54D12*
X82600Y-06850D03*
G54D11*
X82600Y-07850D03*
G54D12*
X82600Y-08850D03*
G54D13*
X59700Y-10600D03*
G54D12*
X53200Y-09600D03*
G54D11*
X53200Y-10600D03*
G54D12*
X53200Y-11600D03*
G54D16*
X46600Y-43100D03*
X48600Y-43100D03*
G54D17*
X19000Y-33000D03*
G54D18*
X20000Y-33000D03*
X21000Y-33000D03*
X22000Y-33000D03*
X22000Y-30000D03*
X21000Y-30000D03*
X20000Y-30000D03*
X19000Y-30000D03*
G54D12*
X33150Y-11750D03*
G54D11*
X37150Y-11750D03*
G54D17*
X56600Y-39800D03*
G54D18*
X61600Y-39800D03*
G54D17*
X34250Y-15450D03*
G54D18*
X39250Y-15450D03*
G54D17*
X35350Y-25450D03*
G54D18*
X39350Y-25450D03*
G54D17*
X35450Y-28050D03*
G54D18*
X39450Y-28050D03*
G54D17*
X55750Y-20750D03*
G54D18*
X59750Y-20750D03*
G54D17*
X70600Y-12000D03*
G54D18*
X74600Y-12000D03*
G54D17*
X63000Y-16100D03*
G54D18*
X67000Y-16100D03*
G54D17*
X61950Y-23850D03*
G54D18*
X65950Y-23850D03*
G54D17*
X72650Y-52700D03*
G54D18*
X76650Y-52700D03*
G54D17*
X66400Y-42650D03*
G54D18*
X70400Y-42650D03*
G54D17*
X72650Y-56150D03*
G54D18*
X76650Y-56150D03*
G54D17*
X66300Y-39400D03*
G54D18*
X70300Y-39400D03*
G54D17*
X54250Y-15000D03*
G54D18*
X58250Y-15000D03*
G54D17*
X64000Y-06800D03*
G54D18*
X68000Y-06800D03*
G54D17*
X55750Y-18100D03*
G54D18*
X59750Y-18100D03*
G54D17*
X42700Y-06400D03*
G54D18*
X46700Y-06400D03*
G54D17*
X44100Y-09600D03*
G54D18*
X48100Y-09600D03*
G54D19*
X41400Y-45400D03*
X52750Y-47300D03*
X40300Y-43300D03*
G54D20*
X40350Y-45750D02*
X41050Y-45750D01*
X41050Y-45750D02*
X41400Y-45400D01*
X54100Y-48000D02*
X53450Y-48000D01*
X53450Y-48000D02*
X52750Y-47300D01*
X40150Y-43450D02*
X40150Y-44100D01*
X40300Y-43300D02*
X40150Y-43450D01*
G54D10*
G36*
X54449Y-49650D02*
X54385Y-49650D01*
X54385Y-48000D01*
X54363Y-47891D01*
X54302Y-47798D01*
X54209Y-47737D01*
X54100Y-47715D01*
X53568Y-47715D01*
X53175Y-47321D01*
X53175Y-47216D01*
X53111Y-47060D01*
X52991Y-46940D01*
X52835Y-46875D01*
X52666Y-46875D01*
X52510Y-46939D01*
X52390Y-47059D01*
X52325Y-47215D01*
X52325Y-47384D01*
X52389Y-47540D01*
X52509Y-47660D01*
X52665Y-47725D01*
X52771Y-47725D01*
X53246Y-48199D01*
X53248Y-48202D01*
X53340Y-48262D01*
X53341Y-48263D01*
X53427Y-48280D01*
X53449Y-48285D01*
X53449Y-48284D01*
X53450Y-48285D01*
X54100Y-48285D01*
X54209Y-48263D01*
X54302Y-48202D01*
X54363Y-48109D01*
X54385Y-48000D01*
X54385Y-49650D01*
X49130Y-49650D01*
X49130Y-43206D01*
X49130Y-42995D01*
X49049Y-42800D01*
X48901Y-42651D01*
X48706Y-42570D01*
X48495Y-42570D01*
X48300Y-42651D01*
X48151Y-42799D01*
X48070Y-42994D01*
X48070Y-43205D01*
X48151Y-43400D01*
X48299Y-43549D01*
X48494Y-43630D01*
X48705Y-43630D01*
X48900Y-43549D01*
X49049Y-43401D01*
X49130Y-43206D01*
X49130Y-49650D01*
X47130Y-49650D01*
X47130Y-43206D01*
X47130Y-42995D01*
X47049Y-42800D01*
X46901Y-42651D01*
X46706Y-42570D01*
X46495Y-42570D01*
X46300Y-42651D01*
X46151Y-42799D01*
X46070Y-42994D01*
X46070Y-43205D01*
X46151Y-43400D01*
X46299Y-43549D01*
X46494Y-43630D01*
X46705Y-43630D01*
X46900Y-43549D01*
X47049Y-43401D01*
X47130Y-43206D01*
X47130Y-49650D01*
X41825Y-49650D01*
X41825Y-45485D01*
X41825Y-45316D01*
X41761Y-45160D01*
X41641Y-45040D01*
X41485Y-44975D01*
X41316Y-44975D01*
X41160Y-45039D01*
X41040Y-45159D01*
X40975Y-45315D01*
X40975Y-45421D01*
X40931Y-45465D01*
X40350Y-45465D01*
X40241Y-45487D01*
X40148Y-45548D01*
X40087Y-45641D01*
X40065Y-45750D01*
X40087Y-45859D01*
X40148Y-45952D01*
X40241Y-46013D01*
X40350Y-46035D01*
X41045Y-46035D01*
X41050Y-46036D01*
X41050Y-46035D01*
X41159Y-46013D01*
X41252Y-45952D01*
X41378Y-45825D01*
X41484Y-45825D01*
X41640Y-45761D01*
X41760Y-45641D01*
X41825Y-45485D01*
X41825Y-49650D01*
X39200Y-49650D01*
X39200Y-40500D01*
X45696Y-40550D01*
X45718Y-40547D01*
X45736Y-40535D01*
X46977Y-39493D01*
X46991Y-39479D01*
X46997Y-39459D01*
X47000Y-39446D01*
X47000Y-38173D01*
X47327Y-37893D01*
X47341Y-37879D01*
X47347Y-37859D01*
X47350Y-37846D01*
X47350Y-36900D01*
X47348Y-36889D01*
X47345Y-36879D01*
X47300Y-36790D01*
X47300Y-36789D01*
X47300Y-36650D01*
X47697Y-36650D01*
X47650Y-37643D01*
X47652Y-37658D01*
X47659Y-37679D01*
X47673Y-37693D01*
X48050Y-38023D01*
X48050Y-39244D01*
X48053Y-39262D01*
X48063Y-39282D01*
X48075Y-39294D01*
X49267Y-40188D01*
X49283Y-40197D01*
X49304Y-40200D01*
X53671Y-40150D01*
X54400Y-41363D01*
X54449Y-49650D01*
X54449Y-49650D01*
G37*
G54D21*
X54449Y-49650D02*
X54385Y-49650D01*
X54385Y-48000D01*
X54363Y-47891D01*
X54302Y-47798D01*
X54209Y-47737D01*
X54100Y-47715D01*
X53568Y-47715D01*
X53175Y-47321D01*
X53175Y-47216D01*
X53111Y-47060D01*
X52991Y-46940D01*
X52835Y-46875D01*
X52666Y-46875D01*
X52510Y-46939D01*
X52390Y-47059D01*
X52325Y-47215D01*
X52325Y-47384D01*
X52389Y-47540D01*
X52509Y-47660D01*
X52665Y-47725D01*
X52771Y-47725D01*
X53246Y-48199D01*
X53248Y-48202D01*
X53340Y-48262D01*
X53341Y-48263D01*
X53427Y-48280D01*
X53449Y-48285D01*
X53449Y-48284D01*
X53450Y-48285D01*
X54100Y-48285D01*
X54209Y-48263D01*
X54302Y-48202D01*
X54363Y-48109D01*
X54385Y-48000D01*
X54385Y-49650D01*
X49130Y-49650D01*
X49130Y-43206D01*
X49130Y-42995D01*
X49049Y-42800D01*
X48901Y-42651D01*
X48706Y-42570D01*
X48495Y-42570D01*
X48300Y-42651D01*
X48151Y-42799D01*
X48070Y-42994D01*
X48070Y-43205D01*
X48151Y-43400D01*
X48299Y-43549D01*
X48494Y-43630D01*
X48705Y-43630D01*
X48900Y-43549D01*
X49049Y-43401D01*
X49130Y-43206D01*
X49130Y-49650D01*
X47130Y-49650D01*
X47130Y-43206D01*
X47130Y-42995D01*
X47049Y-42800D01*
X46901Y-42651D01*
X46706Y-42570D01*
X46495Y-42570D01*
X46300Y-42651D01*
X46151Y-42799D01*
X46070Y-42994D01*
X46070Y-43205D01*
X46151Y-43400D01*
X46299Y-43549D01*
X46494Y-43630D01*
X46705Y-43630D01*
X46900Y-43549D01*
X47049Y-43401D01*
X47130Y-43206D01*
X47130Y-49650D01*
X41825Y-49650D01*
X41825Y-45485D01*
X41825Y-45316D01*
X41761Y-45160D01*
X41641Y-45040D01*
X41485Y-44975D01*
X41316Y-44975D01*
X41160Y-45039D01*
X41040Y-45159D01*
X40975Y-45315D01*
X40975Y-45421D01*
X40931Y-45465D01*
X40350Y-45465D01*
X40241Y-45487D01*
X40148Y-45548D01*
X40087Y-45641D01*
X40065Y-45750D01*
X40087Y-45859D01*
X40148Y-45952D01*
X40241Y-46013D01*
X40350Y-46035D01*
X41045Y-46035D01*
X41050Y-46036D01*
X41050Y-46035D01*
X41159Y-46013D01*
X41252Y-45952D01*
X41378Y-45825D01*
X41484Y-45825D01*
X41640Y-45761D01*
X41760Y-45641D01*
X41825Y-45485D01*
X41825Y-49650D01*
X39200Y-49650D01*
X39200Y-40500D01*
X45696Y-40550D01*
X45718Y-40547D01*
X45736Y-40535D01*
X46977Y-39493D01*
X46991Y-39479D01*
X46997Y-39459D01*
X47000Y-39446D01*
X47000Y-38173D01*
X47327Y-37893D01*
X47341Y-37879D01*
X47347Y-37859D01*
X47350Y-37846D01*
X47350Y-36900D01*
X47348Y-36889D01*
X47345Y-36879D01*
X47300Y-36790D01*
X47300Y-36789D01*
X47300Y-36650D01*
X47697Y-36650D01*
X47650Y-37643D01*
X47652Y-37658D01*
X47659Y-37679D01*
X47673Y-37693D01*
X48050Y-38023D01*
X48050Y-39244D01*
X48053Y-39262D01*
X48063Y-39282D01*
X48075Y-39294D01*
X49267Y-40188D01*
X49283Y-40197D01*
X49304Y-40200D01*
X53671Y-40150D01*
X54400Y-41363D01*
X54449Y-49650D01*
M02*
