G04 (created by PCBNEW-RS274X (2012-01-19 BZR 3256)-stable) date 10/21/2012 10:59:19 AM*
G01*
G70*
G90*
%MOIN*%
G04 Gerber Fmt 3.4, Leading zero omitted, Abs format*
%FSLAX34Y34*%
G04 APERTURE LIST*
%ADD10C,0.006000*%
%ADD11R,0.090000X0.090000*%
%ADD12C,0.090000*%
%ADD13R,0.370000X0.370000*%
%ADD14R,0.080000X0.100000*%
%ADD15R,0.100000X0.080000*%
%ADD16R,0.080000X0.080000*%
%ADD17C,0.080000*%
%ADD18C,0.075000*%
%ADD19C,0.067200*%
%ADD20C,0.055400*%
%ADD21C,0.163700*%
%ADD22R,0.079100X0.079100*%
%ADD23C,0.079100*%
G04 APERTURE END LIST*
G54D10*
G54D11*
X36200Y-45700D03*
G54D12*
X36200Y-43700D03*
X36200Y-44700D03*
G54D13*
X42700Y-44700D03*
G54D14*
X52250Y-35850D03*
X53550Y-35850D03*
X66450Y-46250D03*
X65150Y-46250D03*
G54D15*
X65550Y-42600D03*
X65550Y-41300D03*
G54D14*
X55950Y-36300D03*
X54650Y-36300D03*
X74400Y-43050D03*
X75700Y-43050D03*
X59125Y-37900D03*
X60425Y-37900D03*
G54D15*
X54450Y-35300D03*
X54450Y-34000D03*
G54D14*
X59150Y-40250D03*
X60450Y-40250D03*
X55500Y-42350D03*
X54200Y-42350D03*
X56550Y-42525D03*
X57850Y-42525D03*
X62125Y-41575D03*
X63425Y-41575D03*
G54D15*
X49550Y-42750D03*
X49550Y-44050D03*
X38450Y-40650D03*
X38450Y-39350D03*
G54D16*
X68500Y-32500D03*
G54D17*
X67500Y-32500D03*
G54D16*
X46400Y-37900D03*
G54D17*
X45400Y-37900D03*
G54D16*
X59500Y-32700D03*
G54D17*
X58500Y-32700D03*
X57500Y-32700D03*
X56500Y-32700D03*
X55500Y-32700D03*
X54500Y-32700D03*
G54D13*
X42500Y-33500D03*
G54D12*
X36000Y-32500D03*
G54D11*
X36000Y-33500D03*
G54D12*
X36000Y-34500D03*
G54D13*
X42700Y-39500D03*
G54D12*
X36200Y-38500D03*
G54D11*
X36200Y-39500D03*
G54D12*
X36200Y-40500D03*
G54D18*
X47409Y-36000D03*
X48591Y-36000D03*
X47409Y-33000D03*
X48591Y-33000D03*
G54D17*
X64500Y-38787D03*
X64500Y-38000D03*
X64500Y-39575D03*
X64500Y-37213D03*
X64500Y-36425D03*
X64500Y-40362D03*
X64500Y-35638D03*
X64500Y-41150D03*
X67650Y-38787D03*
X67650Y-38000D03*
X67650Y-39575D03*
X67650Y-37213D03*
X67650Y-36425D03*
X67650Y-40362D03*
X67650Y-35638D03*
X67650Y-41150D03*
G54D19*
X73600Y-40150D03*
G54D20*
X75864Y-40150D03*
G54D21*
X83600Y-41412D03*
X83600Y-46085D03*
G54D22*
X81100Y-45500D03*
G54D23*
X80100Y-45000D03*
X81100Y-44500D03*
X80100Y-44000D03*
X81100Y-43500D03*
X80100Y-43000D03*
X81100Y-42500D03*
X80100Y-42000D03*
M02*
