G04 (created by PCBNEW-RS274X (2012-01-19 BZR 3256)-stable) date 10/27/2012 3:32:48 PM*
G01*
G70*
G90*
%MOIN*%
G04 Gerber Fmt 3.4, Leading zero omitted, Abs format*
%FSLAX34Y34*%
G04 APERTURE LIST*
%ADD10C,0.006000*%
%ADD11R,0.070000X0.070000*%
%ADD12C,0.070000*%
%ADD13R,0.350000X0.350000*%
%ADD14R,0.060000X0.080000*%
%ADD15R,0.080000X0.060000*%
%ADD16R,0.060000X0.060000*%
%ADD17C,0.060000*%
%ADD18C,0.055000*%
%ADD19R,0.100000X0.100000*%
%ADD20C,0.100000*%
%ADD21C,0.054000*%
%ADD22C,0.049000*%
%ADD23C,0.036000*%
%ADD24C,0.035000*%
%ADD25C,0.034000*%
%ADD26C,0.007000*%
G04 APERTURE END LIST*
G54D10*
G54D11*
X36200Y-45700D03*
G54D12*
X36200Y-43700D03*
X36200Y-44700D03*
G54D13*
X42700Y-44700D03*
G54D14*
X52250Y-35850D03*
X53550Y-35850D03*
X66450Y-46250D03*
X65150Y-46250D03*
G54D15*
X65550Y-42600D03*
X65550Y-41300D03*
G54D14*
X55950Y-36300D03*
X54650Y-36300D03*
X74400Y-43050D03*
X75700Y-43050D03*
X59125Y-37900D03*
X60425Y-37900D03*
G54D15*
X54450Y-35300D03*
X54450Y-34000D03*
G54D14*
X59150Y-40250D03*
X60450Y-40250D03*
X55500Y-42350D03*
X54200Y-42350D03*
X56550Y-42525D03*
X57850Y-42525D03*
X62125Y-41575D03*
X63425Y-41575D03*
G54D15*
X49550Y-42750D03*
X49550Y-44050D03*
X38450Y-40650D03*
X38450Y-39350D03*
G54D16*
X68500Y-32500D03*
G54D17*
X67500Y-32500D03*
G54D16*
X59500Y-32700D03*
G54D17*
X58500Y-32700D03*
X57500Y-32700D03*
X56500Y-32700D03*
X55500Y-32700D03*
X54500Y-32700D03*
G54D13*
X42500Y-33500D03*
G54D12*
X36000Y-32500D03*
G54D11*
X36000Y-33500D03*
G54D12*
X36000Y-34500D03*
G54D13*
X42700Y-39500D03*
G54D12*
X36200Y-38500D03*
G54D11*
X36200Y-39500D03*
G54D12*
X36200Y-40500D03*
G54D18*
X47409Y-36000D03*
X48591Y-36000D03*
X47409Y-33000D03*
X48591Y-33000D03*
G54D17*
X64500Y-38787D03*
X64500Y-38000D03*
X64500Y-39575D03*
X64500Y-37213D03*
X64500Y-36425D03*
X64500Y-40362D03*
X64500Y-35638D03*
X64500Y-41150D03*
X67650Y-38787D03*
X67650Y-38000D03*
X67650Y-39575D03*
X67650Y-37213D03*
X67650Y-36425D03*
X67650Y-40362D03*
X67650Y-35638D03*
X67650Y-41150D03*
G54D14*
X75850Y-46900D03*
X77150Y-46900D03*
G54D17*
X49287Y-46500D03*
X48500Y-46500D03*
X50075Y-46500D03*
X47713Y-46500D03*
X46925Y-46500D03*
X50862Y-46500D03*
X46138Y-46500D03*
X51650Y-46500D03*
G54D19*
X31600Y-43550D03*
G54D20*
X31600Y-45550D03*
G54D19*
X31650Y-32400D03*
G54D20*
X31650Y-34400D03*
G54D19*
X31550Y-37900D03*
G54D20*
X31550Y-39900D03*
G54D21*
X78400Y-40500D03*
X78400Y-41500D03*
X78400Y-45180D03*
X78400Y-46180D03*
G54D22*
X79370Y-41340D03*
X79370Y-42140D03*
X79370Y-42940D03*
X79370Y-43740D03*
X79370Y-44540D03*
X79370Y-45340D03*
G54D23*
X52800Y-35100D03*
X68550Y-36250D03*
X47800Y-43400D03*
X61000Y-37100D03*
X69750Y-37300D03*
X66600Y-32600D03*
X66750Y-33850D03*
X66250Y-31050D03*
X71400Y-38000D03*
X60550Y-34350D03*
X58600Y-33700D03*
X57400Y-39700D03*
X55600Y-40100D03*
X55200Y-37500D03*
X55200Y-35700D03*
X45000Y-40500D03*
X53450Y-42200D03*
X34300Y-42200D03*
X57020Y-33840D03*
X60850Y-45400D03*
X48000Y-45500D03*
X59000Y-39520D03*
X64750Y-42350D03*
X76200Y-36200D03*
X54740Y-38660D03*
X76300Y-35600D03*
X64100Y-32200D03*
X74040Y-37460D03*
X60800Y-38750D03*
X59020Y-39020D03*
X68680Y-41160D03*
X52200Y-38040D03*
X57100Y-40700D03*
X51400Y-36650D03*
X52920Y-37320D03*
X55880Y-40660D03*
X62800Y-41300D03*
X76300Y-33200D03*
X63900Y-46450D03*
X51200Y-39200D03*
X48300Y-43900D03*
X59800Y-41100D03*
X52400Y-36600D03*
X76300Y-32600D03*
X46800Y-31500D03*
X53600Y-35100D03*
X61900Y-40200D03*
X58120Y-40660D03*
G54D24*
X66240Y-44400D03*
G54D23*
X75100Y-40900D03*
X58700Y-42400D03*
X50450Y-44000D03*
X56750Y-34700D03*
X59500Y-33500D03*
X52700Y-33200D03*
X57350Y-34200D03*
X69800Y-35300D03*
X54400Y-40300D03*
X66300Y-35300D03*
X56200Y-40000D03*
X54800Y-40500D03*
X70000Y-36500D03*
X62500Y-37750D03*
X57500Y-41800D03*
X69200Y-36400D03*
X38800Y-32900D03*
X33050Y-41100D03*
X48900Y-31200D03*
G54D24*
X54300Y-38200D03*
X54600Y-37900D03*
G54D23*
X72300Y-46800D03*
X57800Y-34000D03*
X63650Y-33800D03*
X59100Y-36250D03*
X61450Y-41600D03*
X65500Y-37500D03*
X65150Y-34400D03*
X65500Y-38700D03*
X59050Y-36950D03*
X58300Y-36950D03*
G54D24*
X56400Y-38900D03*
G54D23*
X65950Y-38300D03*
X60450Y-36750D03*
X55750Y-37500D03*
X65450Y-40650D03*
X66200Y-45300D03*
X60800Y-44900D03*
X66200Y-43500D03*
X52500Y-43700D03*
X51900Y-42400D03*
X46500Y-43000D03*
X63250Y-39500D03*
X63000Y-38750D03*
X61100Y-42100D03*
X66700Y-42200D03*
X66701Y-42642D03*
X60648Y-42120D03*
X63200Y-40500D03*
X52300Y-38800D03*
X52900Y-33800D03*
X47500Y-45000D03*
X66600Y-43300D03*
X51350Y-42000D03*
X62250Y-32900D03*
X72300Y-44400D03*
X74350Y-43900D03*
X69450Y-32850D03*
X71000Y-39900D03*
X56550Y-40575D03*
G54D24*
X65800Y-45500D03*
G54D23*
X47700Y-42600D03*
X55200Y-34150D03*
X58475Y-40400D03*
X51200Y-37300D03*
X49600Y-35200D03*
X69450Y-32200D03*
X56150Y-35650D03*
X62000Y-42400D03*
X38900Y-41900D03*
X58300Y-38500D03*
X53400Y-33750D03*
X56400Y-33800D03*
X55050Y-43250D03*
X60400Y-42900D03*
G54D25*
X66550Y-31350D02*
X66250Y-31050D01*
X66600Y-32600D02*
X66600Y-31350D01*
X66600Y-31350D02*
X66550Y-31350D01*
X67650Y-34750D02*
X66750Y-33850D01*
X67650Y-35638D02*
X67650Y-34750D01*
G54D26*
X61450Y-33450D02*
X70650Y-33450D01*
X70650Y-33450D02*
X71400Y-34200D01*
X71400Y-34200D02*
X71400Y-38000D01*
X60550Y-34350D02*
X61450Y-33450D01*
X57400Y-38300D02*
X58600Y-37100D01*
X58600Y-37100D02*
X58600Y-33700D01*
X57400Y-39700D02*
X57400Y-38300D01*
X56500Y-33200D02*
X56500Y-32700D01*
X55600Y-34100D02*
X56500Y-33200D01*
X55200Y-39700D02*
X55200Y-37500D01*
X55600Y-40100D02*
X55200Y-39700D01*
X55200Y-35700D02*
X55600Y-35300D01*
X55600Y-35300D02*
X55600Y-34100D01*
X45500Y-46500D02*
X45000Y-46000D01*
X46138Y-46500D02*
X45500Y-46500D01*
X45000Y-46000D02*
X45000Y-40500D01*
G54D25*
X35800Y-33500D02*
X36000Y-33500D01*
G54D26*
X53550Y-35150D02*
X53550Y-35850D01*
G54D25*
X35300Y-39050D02*
X35300Y-41000D01*
X34300Y-42200D02*
X34300Y-38100D01*
X34300Y-42000D02*
X34300Y-42200D01*
G54D26*
X54200Y-34000D02*
X53600Y-34600D01*
X60450Y-40250D02*
X60450Y-40450D01*
G54D25*
X37600Y-38500D02*
X38450Y-39350D01*
X36200Y-38500D02*
X35850Y-38500D01*
G54D26*
X36000Y-33500D02*
X39100Y-33500D01*
X64100Y-46250D02*
X63900Y-46450D01*
G54D25*
X36200Y-38500D02*
X37600Y-38500D01*
G54D26*
X63075Y-41575D02*
X62800Y-41300D01*
X40700Y-31400D02*
X46700Y-31400D01*
X53550Y-35150D02*
X53600Y-35100D01*
X54200Y-42350D02*
X53600Y-42350D01*
X54450Y-34000D02*
X54200Y-34000D01*
X65550Y-42600D02*
X65000Y-42600D01*
X58575Y-42525D02*
X58700Y-42400D01*
G54D25*
X35300Y-41000D02*
X34300Y-42000D01*
G54D26*
X60425Y-37900D02*
X60425Y-38375D01*
G54D25*
X35850Y-38500D02*
X35300Y-39050D01*
G54D26*
X60425Y-38375D02*
X60800Y-38750D01*
G54D25*
X36050Y-45550D02*
X36200Y-45700D01*
X33300Y-42200D02*
X34300Y-42200D01*
G54D26*
X53550Y-35850D02*
X54200Y-35850D01*
X75700Y-41500D02*
X75100Y-40900D01*
X53600Y-34600D02*
X53600Y-35100D01*
X54200Y-35850D02*
X54650Y-36300D01*
X63425Y-41575D02*
X63075Y-41575D01*
G54D25*
X34300Y-38100D02*
X34300Y-35000D01*
X31600Y-45550D02*
X36050Y-45550D01*
G54D26*
X57850Y-42525D02*
X58575Y-42525D01*
X40400Y-32200D02*
X40400Y-31700D01*
G54D25*
X31550Y-40450D02*
X33300Y-42200D01*
X31550Y-39900D02*
X31550Y-40450D01*
G54D26*
X46700Y-31400D02*
X46800Y-31500D01*
X50400Y-44050D02*
X50450Y-44000D01*
X53600Y-42350D02*
X53450Y-42200D01*
X49550Y-44050D02*
X50400Y-44050D01*
X39100Y-33500D02*
X40400Y-32200D01*
G54D25*
X34300Y-42200D02*
X34300Y-41200D01*
G54D26*
X60450Y-40450D02*
X59800Y-41100D01*
X75700Y-43050D02*
X75700Y-41500D01*
X65150Y-46250D02*
X64100Y-46250D01*
G54D25*
X34300Y-35000D02*
X35800Y-33500D01*
G54D26*
X40400Y-31700D02*
X40700Y-31400D01*
X65000Y-42600D02*
X64750Y-42350D01*
X57500Y-34050D02*
X57500Y-33700D01*
X57500Y-33700D02*
X57900Y-33300D01*
X59300Y-33300D02*
X59500Y-33500D01*
X57350Y-34200D02*
X57500Y-34050D01*
X57900Y-33300D02*
X59300Y-33300D01*
X64500Y-38787D02*
X63537Y-38787D01*
X63537Y-38787D02*
X62500Y-37750D01*
G54D25*
X36800Y-30900D02*
X38800Y-32900D01*
X31650Y-34400D02*
X31900Y-34400D01*
X33600Y-31250D02*
X33950Y-30900D01*
X33950Y-30900D02*
X36800Y-30900D01*
X33900Y-43550D02*
X35050Y-44700D01*
X35050Y-44700D02*
X36200Y-44700D01*
X33600Y-32700D02*
X33600Y-31250D01*
X31900Y-34400D02*
X33600Y-32700D01*
X31650Y-34400D02*
X32050Y-34400D01*
X33050Y-35400D02*
X33050Y-41100D01*
X31600Y-43550D02*
X33900Y-43550D01*
X32050Y-34400D02*
X33050Y-35400D01*
G54D26*
X36200Y-43700D02*
X38000Y-43700D01*
X38000Y-43700D02*
X39400Y-42300D01*
X48700Y-31200D02*
X48900Y-31200D01*
X39400Y-42300D02*
X39400Y-37400D01*
X47700Y-32200D02*
X48700Y-31200D01*
X45800Y-33300D02*
X46900Y-32200D01*
X40900Y-35900D02*
X44600Y-35900D01*
X45800Y-34700D02*
X45800Y-33300D01*
X39400Y-37400D02*
X40900Y-35900D01*
X46900Y-32200D02*
X47700Y-32200D01*
X44600Y-35900D02*
X45800Y-34700D01*
X82200Y-40300D02*
X81800Y-39900D01*
X79800Y-39900D02*
X78400Y-41300D01*
X77150Y-46900D02*
X81600Y-46900D01*
X81600Y-46900D02*
X82200Y-46300D01*
X81800Y-39900D02*
X79800Y-39900D01*
X82200Y-46300D02*
X82200Y-40300D01*
X78400Y-41300D02*
X78400Y-41500D01*
X75850Y-46900D02*
X75700Y-46900D01*
X52942Y-44058D02*
X52500Y-44500D01*
X52600Y-47100D02*
X75400Y-47100D01*
X75500Y-47100D02*
X75400Y-47100D01*
X52500Y-44500D02*
X52500Y-47000D01*
X75700Y-46900D02*
X75500Y-47100D01*
X52600Y-41600D02*
X52600Y-42300D01*
X53800Y-38700D02*
X53500Y-38700D01*
X52600Y-42300D02*
X52942Y-42642D01*
X53000Y-41200D02*
X52600Y-41600D01*
X52942Y-42642D02*
X52942Y-44058D01*
X54300Y-38200D02*
X53800Y-38700D01*
X53000Y-39200D02*
X53000Y-41200D01*
X52500Y-47000D02*
X52600Y-47100D01*
X53500Y-38700D02*
X53000Y-39200D01*
X53200Y-40100D02*
X53200Y-41300D01*
X54600Y-38300D02*
X54300Y-38600D01*
X72000Y-46900D02*
X72200Y-46900D01*
X53100Y-42600D02*
X53100Y-44100D01*
X52800Y-41700D02*
X52800Y-42300D01*
X72200Y-46900D02*
X72300Y-46800D01*
X53242Y-46900D02*
X72000Y-46900D01*
X52700Y-44500D02*
X52700Y-46358D01*
X52800Y-42300D02*
X53100Y-42600D01*
X53600Y-39700D02*
X53200Y-40100D01*
X53200Y-41300D02*
X52800Y-41700D01*
X53100Y-44100D02*
X52700Y-44500D01*
X54300Y-38900D02*
X53600Y-39600D01*
X52700Y-46358D02*
X53242Y-46900D01*
X54300Y-38600D02*
X54300Y-38900D01*
X53600Y-39600D02*
X53600Y-39700D01*
X54600Y-37900D02*
X54600Y-38300D01*
X59100Y-36250D02*
X59200Y-36150D01*
X59200Y-36150D02*
X60550Y-36150D01*
X61450Y-39850D02*
X61450Y-41600D01*
X61450Y-37050D02*
X61450Y-39850D01*
X60550Y-36150D02*
X61450Y-37050D01*
X66375Y-39575D02*
X67650Y-39575D01*
X65500Y-34750D02*
X65500Y-37500D01*
X65500Y-38700D02*
X66375Y-39575D01*
X65150Y-34400D02*
X65500Y-34750D01*
X65950Y-38300D02*
X66437Y-38787D01*
X58300Y-37000D02*
X58300Y-36950D01*
X59050Y-36950D02*
X59250Y-36750D01*
X66437Y-38787D02*
X67650Y-38787D01*
X56400Y-38900D02*
X58300Y-37000D01*
X59250Y-36750D02*
X60450Y-36750D01*
X55250Y-37000D02*
X48409Y-37000D01*
X55750Y-37500D02*
X55250Y-37000D01*
X48409Y-37000D02*
X47409Y-36000D01*
X65800Y-41050D02*
X65550Y-41300D01*
X65700Y-40650D02*
X65800Y-40750D01*
X65800Y-40750D02*
X65800Y-41050D01*
X65450Y-40650D02*
X65700Y-40650D01*
X61600Y-45500D02*
X61400Y-45500D01*
X66600Y-44100D02*
X66200Y-43700D01*
X61400Y-45500D02*
X60800Y-44900D01*
X65400Y-45500D02*
X66000Y-44900D01*
X66450Y-45550D02*
X66200Y-45300D01*
X61600Y-45500D02*
X65400Y-45500D01*
X66200Y-44900D02*
X66600Y-44500D01*
X66450Y-46250D02*
X66450Y-45550D01*
X66000Y-44900D02*
X66200Y-44900D01*
X66200Y-44900D02*
X66200Y-45300D01*
X66600Y-44500D02*
X66600Y-44100D01*
X66200Y-43700D02*
X66200Y-43500D01*
X52500Y-42400D02*
X52800Y-42700D01*
X52800Y-43400D02*
X52500Y-43700D01*
X51900Y-42400D02*
X52500Y-42400D01*
X52800Y-42700D02*
X52800Y-43400D01*
X46925Y-46500D02*
X46925Y-45925D01*
X46500Y-45500D02*
X46500Y-43000D01*
X46925Y-45925D02*
X46500Y-45500D01*
X63000Y-38750D02*
X63250Y-39000D01*
X63250Y-39000D02*
X63250Y-39500D01*
X64500Y-38000D02*
X67650Y-38000D01*
X75900Y-40800D02*
X77100Y-40800D01*
X78710Y-42000D02*
X79370Y-41340D01*
X75600Y-40500D02*
X75900Y-40800D01*
G54D25*
X36000Y-39500D02*
X36200Y-39500D01*
G54D26*
X74450Y-43050D02*
X74800Y-42700D01*
X58625Y-40250D02*
X58475Y-40400D01*
X75000Y-40500D02*
X75600Y-40500D01*
X74800Y-40700D02*
X75000Y-40500D01*
X77100Y-40800D02*
X77700Y-41400D01*
X73300Y-43750D02*
X73300Y-43800D01*
X77700Y-41400D02*
X77700Y-41600D01*
X55050Y-42600D02*
X55050Y-43250D01*
X78100Y-42000D02*
X78710Y-42000D01*
X56600Y-34000D02*
X56600Y-34200D01*
X52250Y-35850D02*
X52250Y-34900D01*
X74400Y-43050D02*
X74450Y-43050D01*
X72700Y-44400D02*
X72300Y-44400D01*
X73500Y-43550D02*
X73300Y-43750D01*
X55500Y-42350D02*
X55300Y-42350D01*
X50862Y-45862D02*
X49900Y-44900D01*
X74800Y-42700D02*
X74800Y-40700D01*
X56400Y-33800D02*
X56600Y-34000D01*
X74400Y-43050D02*
X74000Y-43050D01*
X74000Y-43050D02*
X73500Y-43550D01*
X55300Y-42350D02*
X55050Y-42600D01*
X77700Y-41600D02*
X78100Y-42000D01*
X74350Y-43900D02*
X73600Y-43900D01*
X73600Y-43900D02*
X73500Y-43800D01*
G54D25*
X36200Y-39500D02*
X37300Y-39500D01*
G54D26*
X55950Y-36300D02*
X55950Y-35850D01*
G54D25*
X38450Y-40650D02*
X38450Y-41450D01*
G54D26*
X48900Y-44700D02*
X48900Y-43400D01*
X54450Y-34900D02*
X54450Y-35300D01*
X49100Y-44900D02*
X48900Y-44700D01*
X62125Y-41575D02*
X62125Y-42275D01*
X62125Y-42275D02*
X62000Y-42400D01*
X58900Y-37900D02*
X58300Y-38500D01*
G54D25*
X38450Y-41450D02*
X38900Y-41900D01*
G54D26*
X51650Y-46500D02*
X50862Y-46500D01*
X59125Y-37900D02*
X58900Y-37900D01*
X48900Y-43400D02*
X49550Y-42750D01*
X59150Y-40250D02*
X58625Y-40250D01*
G54D25*
X37300Y-39500D02*
X38450Y-40650D01*
G54D26*
X56600Y-34200D02*
X56150Y-34650D01*
X56150Y-34650D02*
X56150Y-35650D01*
X49900Y-44900D02*
X49100Y-44900D01*
X55200Y-34150D02*
X54450Y-34900D01*
X49550Y-42750D02*
X47850Y-42750D01*
X56550Y-42525D02*
X56550Y-40575D01*
X73300Y-43800D02*
X72700Y-44400D01*
X55950Y-35850D02*
X56150Y-35650D01*
X50862Y-46500D02*
X50862Y-45862D01*
X73500Y-43800D02*
X73500Y-43550D01*
X52250Y-34900D02*
X53400Y-33750D01*
X47850Y-42750D02*
X47700Y-42600D01*
M02*
