G04 (created by PCBNEW (2012-01-19 BZR 3256)-stable) date 10/22/2012 3:02:11 PM*
G01*
G70*
G90*
%MOIN*%
G04 Gerber Fmt 3.4, Leading zero omitted, Abs format*
%FSLAX34Y34*%
G04 APERTURE LIST*
%ADD10C,0.001000*%
%ADD11C,0.015000*%
%ADD12C,0.008000*%
G04 APERTURE END LIST*
G54D10*
G54D11*
X87000Y-30500D02*
X33000Y-30500D01*
X87000Y-47500D02*
X87000Y-30500D01*
X33000Y-47500D02*
X87000Y-47500D01*
X33000Y-30500D02*
X33000Y-47500D01*
X87000Y-30500D02*
X33000Y-30500D01*
X87000Y-47500D02*
X87000Y-30500D01*
X33000Y-47500D02*
X87000Y-47500D01*
X33000Y-30500D02*
X33000Y-47500D01*
G54D10*
X75687Y-39973D02*
X76041Y-40327D01*
X76041Y-39973D02*
X75687Y-40327D01*
X73836Y-40150D02*
X73831Y-40195D01*
X73818Y-40239D01*
X73796Y-40280D01*
X73767Y-40316D01*
X73731Y-40345D01*
X73691Y-40367D01*
X73647Y-40381D01*
X73601Y-40385D01*
X73556Y-40381D01*
X73512Y-40368D01*
X73471Y-40347D01*
X73435Y-40318D01*
X73406Y-40283D01*
X73384Y-40242D01*
X73370Y-40199D01*
X73365Y-40153D01*
X73368Y-40108D01*
X73381Y-40064D01*
X73402Y-40023D01*
X73431Y-39987D01*
X73466Y-39957D01*
X73506Y-39934D01*
X73550Y-39920D01*
X73596Y-39915D01*
X73640Y-39918D01*
X73685Y-39930D01*
X73726Y-39951D01*
X73762Y-39980D01*
X73792Y-40014D01*
X73815Y-40055D01*
X73830Y-40098D01*
X73835Y-40144D01*
X73836Y-40150D01*
X85020Y-39855D02*
X85020Y-40475D01*
X85330Y-40165D02*
X84710Y-40165D01*
X85020Y-46205D02*
X85020Y-46825D01*
X85330Y-46515D02*
X84710Y-46515D01*
X84410Y-40840D02*
X84397Y-40964D01*
X84361Y-41083D01*
X84303Y-41194D01*
X84224Y-41290D01*
X84127Y-41370D01*
X84018Y-41429D01*
X83898Y-41466D01*
X83774Y-41479D01*
X83651Y-41468D01*
X83531Y-41433D01*
X83420Y-41375D01*
X83323Y-41297D01*
X83242Y-41201D01*
X83182Y-41092D01*
X83144Y-40973D01*
X83131Y-40848D01*
X83141Y-40725D01*
X83175Y-40605D01*
X83233Y-40494D01*
X83310Y-40396D01*
X83405Y-40315D01*
X83514Y-40254D01*
X83633Y-40215D01*
X83757Y-40201D01*
X83881Y-40210D01*
X84001Y-40244D01*
X84112Y-40300D01*
X84211Y-40377D01*
X84292Y-40472D01*
X84354Y-40580D01*
X84394Y-40699D01*
X84409Y-40823D01*
X84410Y-40840D01*
X83130Y-40200D02*
X84410Y-41480D01*
X84410Y-40200D02*
X83130Y-41480D01*
X84410Y-45840D02*
X84397Y-45964D01*
X84361Y-46083D01*
X84303Y-46194D01*
X84224Y-46290D01*
X84127Y-46370D01*
X84018Y-46429D01*
X83898Y-46466D01*
X83774Y-46479D01*
X83651Y-46468D01*
X83531Y-46433D01*
X83420Y-46375D01*
X83323Y-46297D01*
X83242Y-46201D01*
X83182Y-46092D01*
X83144Y-45973D01*
X83131Y-45848D01*
X83141Y-45725D01*
X83175Y-45605D01*
X83233Y-45494D01*
X83310Y-45396D01*
X83405Y-45315D01*
X83514Y-45254D01*
X83633Y-45215D01*
X83757Y-45201D01*
X83881Y-45210D01*
X84001Y-45244D01*
X84112Y-45300D01*
X84211Y-45377D01*
X84292Y-45472D01*
X84354Y-45580D01*
X84394Y-45699D01*
X84409Y-45823D01*
X84410Y-45840D01*
X83130Y-45200D02*
X84410Y-46480D01*
X84410Y-45200D02*
X83130Y-46480D01*
G54D12*
X33239Y-49801D02*
X33239Y-49001D01*
X33430Y-49001D01*
X33544Y-49039D01*
X33620Y-49115D01*
X33659Y-49191D01*
X33697Y-49344D01*
X33697Y-49458D01*
X33659Y-49610D01*
X33620Y-49687D01*
X33544Y-49763D01*
X33430Y-49801D01*
X33239Y-49801D01*
X34039Y-49801D02*
X34039Y-49267D01*
X34039Y-49420D02*
X34078Y-49344D01*
X34116Y-49306D01*
X34192Y-49267D01*
X34268Y-49267D01*
X34534Y-49801D02*
X34534Y-49267D01*
X34534Y-49001D02*
X34496Y-49039D01*
X34534Y-49077D01*
X34573Y-49039D01*
X34534Y-49001D01*
X34534Y-49077D01*
X35030Y-49801D02*
X34954Y-49763D01*
X34915Y-49687D01*
X34915Y-49001D01*
X35449Y-49801D02*
X35373Y-49763D01*
X35334Y-49687D01*
X35334Y-49001D01*
X36363Y-49801D02*
X36363Y-49001D01*
X36630Y-49572D01*
X36897Y-49001D01*
X36897Y-49801D01*
X37620Y-49801D02*
X37620Y-49382D01*
X37582Y-49306D01*
X37506Y-49267D01*
X37354Y-49267D01*
X37277Y-49306D01*
X37620Y-49763D02*
X37544Y-49801D01*
X37354Y-49801D01*
X37277Y-49763D01*
X37239Y-49687D01*
X37239Y-49610D01*
X37277Y-49534D01*
X37354Y-49496D01*
X37544Y-49496D01*
X37620Y-49458D01*
X38001Y-49267D02*
X38001Y-50067D01*
X38001Y-49306D02*
X38078Y-49267D01*
X38230Y-49267D01*
X38306Y-49306D01*
X38344Y-49344D01*
X38382Y-49420D01*
X38382Y-49648D01*
X38344Y-49725D01*
X38306Y-49763D01*
X38230Y-49801D01*
X38078Y-49801D01*
X38001Y-49763D01*
X38725Y-49725D02*
X38764Y-49763D01*
X38725Y-49801D01*
X38687Y-49763D01*
X38725Y-49725D01*
X38725Y-49801D01*
X38725Y-49306D02*
X38764Y-49344D01*
X38725Y-49382D01*
X38687Y-49344D01*
X38725Y-49306D01*
X38725Y-49382D01*
X32495Y-50980D02*
X32849Y-51334D01*
X32849Y-50980D02*
X32495Y-51334D01*
X33392Y-50681D02*
X33468Y-50681D01*
X33544Y-50719D01*
X33582Y-50757D01*
X33620Y-50833D01*
X33659Y-50986D01*
X33659Y-51176D01*
X33620Y-51328D01*
X33582Y-51405D01*
X33544Y-51443D01*
X33468Y-51481D01*
X33392Y-51481D01*
X33316Y-51443D01*
X33278Y-51405D01*
X33239Y-51328D01*
X33201Y-51176D01*
X33201Y-50986D01*
X33239Y-50833D01*
X33278Y-50757D01*
X33316Y-50719D01*
X33392Y-50681D01*
X34001Y-51405D02*
X34040Y-51443D01*
X34001Y-51481D01*
X33963Y-51443D01*
X34001Y-51405D01*
X34001Y-51481D01*
X34535Y-50681D02*
X34611Y-50681D01*
X34687Y-50719D01*
X34725Y-50757D01*
X34763Y-50833D01*
X34802Y-50986D01*
X34802Y-51176D01*
X34763Y-51328D01*
X34725Y-51405D01*
X34687Y-51443D01*
X34611Y-51481D01*
X34535Y-51481D01*
X34459Y-51443D01*
X34421Y-51405D01*
X34382Y-51328D01*
X34344Y-51176D01*
X34344Y-50986D01*
X34382Y-50833D01*
X34421Y-50757D01*
X34459Y-50719D01*
X34535Y-50681D01*
X35068Y-50681D02*
X35564Y-50681D01*
X35297Y-50986D01*
X35411Y-50986D01*
X35487Y-51024D01*
X35525Y-51062D01*
X35564Y-51138D01*
X35564Y-51328D01*
X35525Y-51405D01*
X35487Y-51443D01*
X35411Y-51481D01*
X35183Y-51481D01*
X35106Y-51443D01*
X35068Y-51405D01*
X36287Y-50681D02*
X35906Y-50681D01*
X35868Y-51062D01*
X35906Y-51024D01*
X35983Y-50986D01*
X36173Y-50986D01*
X36249Y-51024D01*
X36287Y-51062D01*
X36326Y-51138D01*
X36326Y-51328D01*
X36287Y-51405D01*
X36249Y-51443D01*
X36173Y-51481D01*
X35983Y-51481D01*
X35906Y-51443D01*
X35868Y-51405D01*
X36630Y-50681D02*
X36630Y-50833D01*
X36935Y-50681D02*
X36935Y-50833D01*
X38460Y-50643D02*
X37774Y-51671D01*
X39489Y-50681D02*
X39565Y-50681D01*
X39641Y-50719D01*
X39679Y-50757D01*
X39717Y-50833D01*
X39756Y-50986D01*
X39756Y-51176D01*
X39717Y-51328D01*
X39679Y-51405D01*
X39641Y-51443D01*
X39565Y-51481D01*
X39489Y-51481D01*
X39413Y-51443D01*
X39375Y-51405D01*
X39336Y-51328D01*
X39298Y-51176D01*
X39298Y-50986D01*
X39336Y-50833D01*
X39375Y-50757D01*
X39413Y-50719D01*
X39489Y-50681D01*
X40098Y-51405D02*
X40137Y-51443D01*
X40098Y-51481D01*
X40060Y-51443D01*
X40098Y-51405D01*
X40098Y-51481D01*
X40518Y-51481D02*
X40670Y-51481D01*
X40746Y-51443D01*
X40784Y-51405D01*
X40860Y-51290D01*
X40899Y-51138D01*
X40899Y-50833D01*
X40860Y-50757D01*
X40822Y-50719D01*
X40746Y-50681D01*
X40594Y-50681D01*
X40518Y-50719D01*
X40479Y-50757D01*
X40441Y-50833D01*
X40441Y-51024D01*
X40479Y-51100D01*
X40518Y-51138D01*
X40594Y-51176D01*
X40746Y-51176D01*
X40822Y-51138D01*
X40860Y-51100D01*
X40899Y-51024D01*
X41394Y-50681D02*
X41470Y-50681D01*
X41546Y-50719D01*
X41584Y-50757D01*
X41622Y-50833D01*
X41661Y-50986D01*
X41661Y-51176D01*
X41622Y-51328D01*
X41584Y-51405D01*
X41546Y-51443D01*
X41470Y-51481D01*
X41394Y-51481D01*
X41318Y-51443D01*
X41280Y-51405D01*
X41241Y-51328D01*
X41203Y-51176D01*
X41203Y-50986D01*
X41241Y-50833D01*
X41280Y-50757D01*
X41318Y-50719D01*
X41394Y-50681D01*
X42003Y-51481D02*
X42003Y-50947D01*
X42003Y-51024D02*
X42042Y-50986D01*
X42118Y-50947D01*
X42232Y-50947D01*
X42308Y-50986D01*
X42346Y-51062D01*
X42346Y-51481D01*
X42346Y-51062D02*
X42384Y-50986D01*
X42461Y-50947D01*
X42575Y-50947D01*
X42651Y-50986D01*
X42689Y-51062D01*
X42689Y-51481D01*
X43070Y-51481D02*
X43070Y-50947D01*
X43070Y-51024D02*
X43109Y-50986D01*
X43185Y-50947D01*
X43299Y-50947D01*
X43375Y-50986D01*
X43413Y-51062D01*
X43413Y-51481D01*
X43413Y-51062D02*
X43451Y-50986D01*
X43528Y-50947D01*
X43642Y-50947D01*
X43718Y-50986D01*
X43756Y-51062D01*
X43756Y-51481D01*
X44976Y-51786D02*
X44938Y-51747D01*
X44862Y-51633D01*
X44824Y-51557D01*
X44786Y-51443D01*
X44747Y-51252D01*
X44747Y-51100D01*
X44786Y-50909D01*
X44824Y-50795D01*
X44862Y-50719D01*
X44938Y-50605D01*
X44976Y-50567D01*
X45700Y-51481D02*
X45242Y-51481D01*
X45471Y-51481D02*
X45471Y-50681D01*
X45395Y-50795D01*
X45319Y-50871D01*
X45242Y-50909D01*
X46652Y-51481D02*
X46652Y-50681D01*
X46995Y-51481D02*
X46995Y-51062D01*
X46957Y-50986D01*
X46881Y-50947D01*
X46767Y-50947D01*
X46691Y-50986D01*
X46652Y-51024D01*
X47491Y-51481D02*
X47415Y-51443D01*
X47376Y-51405D01*
X47338Y-51328D01*
X47338Y-51100D01*
X47376Y-51024D01*
X47415Y-50986D01*
X47491Y-50947D01*
X47605Y-50947D01*
X47681Y-50986D01*
X47719Y-51024D01*
X47757Y-51100D01*
X47757Y-51328D01*
X47719Y-51405D01*
X47681Y-51443D01*
X47605Y-51481D01*
X47491Y-51481D01*
X48215Y-51481D02*
X48139Y-51443D01*
X48100Y-51367D01*
X48100Y-50681D01*
X48824Y-51443D02*
X48748Y-51481D01*
X48596Y-51481D01*
X48519Y-51443D01*
X48481Y-51367D01*
X48481Y-51062D01*
X48519Y-50986D01*
X48596Y-50947D01*
X48748Y-50947D01*
X48824Y-50986D01*
X48862Y-51062D01*
X48862Y-51138D01*
X48481Y-51214D01*
X49129Y-51786D02*
X49167Y-51747D01*
X49244Y-51633D01*
X49282Y-51557D01*
X49320Y-51443D01*
X49358Y-51252D01*
X49358Y-51100D01*
X49320Y-50909D01*
X49282Y-50795D01*
X49244Y-50719D01*
X49167Y-50605D01*
X49129Y-50567D01*
G54D10*
X32849Y-52212D02*
X32844Y-52257D01*
X32831Y-52301D01*
X32809Y-52342D01*
X32780Y-52378D01*
X32744Y-52407D01*
X32704Y-52429D01*
X32660Y-52443D01*
X32614Y-52447D01*
X32569Y-52443D01*
X32525Y-52430D01*
X32484Y-52409D01*
X32448Y-52380D01*
X32419Y-52345D01*
X32397Y-52304D01*
X32383Y-52261D01*
X32378Y-52215D01*
X32381Y-52170D01*
X32394Y-52126D01*
X32415Y-52085D01*
X32444Y-52049D01*
X32479Y-52019D01*
X32519Y-51996D01*
X32563Y-51982D01*
X32609Y-51977D01*
X32653Y-51980D01*
X32698Y-51992D01*
X32739Y-52013D01*
X32775Y-52042D01*
X32805Y-52076D01*
X32828Y-52117D01*
X32843Y-52160D01*
X32848Y-52206D01*
X32849Y-52212D01*
G54D12*
X33392Y-51736D02*
X33468Y-51736D01*
X33544Y-51774D01*
X33582Y-51812D01*
X33620Y-51888D01*
X33659Y-52041D01*
X33659Y-52231D01*
X33620Y-52383D01*
X33582Y-52460D01*
X33544Y-52498D01*
X33468Y-52536D01*
X33392Y-52536D01*
X33316Y-52498D01*
X33278Y-52460D01*
X33239Y-52383D01*
X33201Y-52231D01*
X33201Y-52041D01*
X33239Y-51888D01*
X33278Y-51812D01*
X33316Y-51774D01*
X33392Y-51736D01*
X34001Y-52460D02*
X34040Y-52498D01*
X34001Y-52536D01*
X33963Y-52498D01*
X34001Y-52460D01*
X34001Y-52536D01*
X34535Y-51736D02*
X34611Y-51736D01*
X34687Y-51774D01*
X34725Y-51812D01*
X34763Y-51888D01*
X34802Y-52041D01*
X34802Y-52231D01*
X34763Y-52383D01*
X34725Y-52460D01*
X34687Y-52498D01*
X34611Y-52536D01*
X34535Y-52536D01*
X34459Y-52498D01*
X34421Y-52460D01*
X34382Y-52383D01*
X34344Y-52231D01*
X34344Y-52041D01*
X34382Y-51888D01*
X34421Y-51812D01*
X34459Y-51774D01*
X34535Y-51736D01*
X35487Y-52002D02*
X35487Y-52536D01*
X35297Y-51698D02*
X35106Y-52269D01*
X35602Y-52269D01*
X35830Y-51736D02*
X36364Y-51736D01*
X36021Y-52536D01*
X36630Y-51736D02*
X36630Y-51888D01*
X36935Y-51736D02*
X36935Y-51888D01*
X38460Y-51698D02*
X37774Y-52726D01*
X39756Y-52536D02*
X39298Y-52536D01*
X39527Y-52536D02*
X39527Y-51736D01*
X39451Y-51850D01*
X39375Y-51926D01*
X39298Y-51964D01*
X40098Y-52460D02*
X40137Y-52498D01*
X40098Y-52536D01*
X40060Y-52498D01*
X40098Y-52460D01*
X40098Y-52536D01*
X40441Y-51812D02*
X40479Y-51774D01*
X40556Y-51736D01*
X40746Y-51736D01*
X40822Y-51774D01*
X40860Y-51812D01*
X40899Y-51888D01*
X40899Y-51964D01*
X40860Y-52079D01*
X40403Y-52536D01*
X40899Y-52536D01*
X41394Y-51736D02*
X41470Y-51736D01*
X41546Y-51774D01*
X41584Y-51812D01*
X41622Y-51888D01*
X41661Y-52041D01*
X41661Y-52231D01*
X41622Y-52383D01*
X41584Y-52460D01*
X41546Y-52498D01*
X41470Y-52536D01*
X41394Y-52536D01*
X41318Y-52498D01*
X41280Y-52460D01*
X41241Y-52383D01*
X41203Y-52231D01*
X41203Y-52041D01*
X41241Y-51888D01*
X41280Y-51812D01*
X41318Y-51774D01*
X41394Y-51736D01*
X42003Y-52536D02*
X42003Y-52002D01*
X42003Y-52079D02*
X42042Y-52041D01*
X42118Y-52002D01*
X42232Y-52002D01*
X42308Y-52041D01*
X42346Y-52117D01*
X42346Y-52536D01*
X42346Y-52117D02*
X42384Y-52041D01*
X42461Y-52002D01*
X42575Y-52002D01*
X42651Y-52041D01*
X42689Y-52117D01*
X42689Y-52536D01*
X43070Y-52536D02*
X43070Y-52002D01*
X43070Y-52079D02*
X43109Y-52041D01*
X43185Y-52002D01*
X43299Y-52002D01*
X43375Y-52041D01*
X43413Y-52117D01*
X43413Y-52536D01*
X43413Y-52117D02*
X43451Y-52041D01*
X43528Y-52002D01*
X43642Y-52002D01*
X43718Y-52041D01*
X43756Y-52117D01*
X43756Y-52536D01*
X44976Y-52841D02*
X44938Y-52802D01*
X44862Y-52688D01*
X44824Y-52612D01*
X44786Y-52498D01*
X44747Y-52307D01*
X44747Y-52155D01*
X44786Y-51964D01*
X44824Y-51850D01*
X44862Y-51774D01*
X44938Y-51660D01*
X44976Y-51622D01*
X45700Y-52536D02*
X45242Y-52536D01*
X45471Y-52536D02*
X45471Y-51736D01*
X45395Y-51850D01*
X45319Y-51926D01*
X45242Y-51964D01*
X46652Y-52536D02*
X46652Y-51736D01*
X46995Y-52536D02*
X46995Y-52117D01*
X46957Y-52041D01*
X46881Y-52002D01*
X46767Y-52002D01*
X46691Y-52041D01*
X46652Y-52079D01*
X47491Y-52536D02*
X47415Y-52498D01*
X47376Y-52460D01*
X47338Y-52383D01*
X47338Y-52155D01*
X47376Y-52079D01*
X47415Y-52041D01*
X47491Y-52002D01*
X47605Y-52002D01*
X47681Y-52041D01*
X47719Y-52079D01*
X47757Y-52155D01*
X47757Y-52383D01*
X47719Y-52460D01*
X47681Y-52498D01*
X47605Y-52536D01*
X47491Y-52536D01*
X48215Y-52536D02*
X48139Y-52498D01*
X48100Y-52422D01*
X48100Y-51736D01*
X48824Y-52498D02*
X48748Y-52536D01*
X48596Y-52536D01*
X48519Y-52498D01*
X48481Y-52422D01*
X48481Y-52117D01*
X48519Y-52041D01*
X48596Y-52002D01*
X48748Y-52002D01*
X48824Y-52041D01*
X48862Y-52117D01*
X48862Y-52193D01*
X48481Y-52269D01*
X49129Y-52841D02*
X49167Y-52802D01*
X49244Y-52688D01*
X49282Y-52612D01*
X49320Y-52498D01*
X49358Y-52307D01*
X49358Y-52155D01*
X49320Y-51964D01*
X49282Y-51850D01*
X49244Y-51774D01*
X49167Y-51660D01*
X49129Y-51622D01*
X32539Y-52957D02*
X32539Y-53577D01*
X32849Y-53267D02*
X32229Y-53267D01*
X33392Y-52791D02*
X33468Y-52791D01*
X33544Y-52829D01*
X33582Y-52867D01*
X33620Y-52943D01*
X33659Y-53096D01*
X33659Y-53286D01*
X33620Y-53438D01*
X33582Y-53515D01*
X33544Y-53553D01*
X33468Y-53591D01*
X33392Y-53591D01*
X33316Y-53553D01*
X33278Y-53515D01*
X33239Y-53438D01*
X33201Y-53286D01*
X33201Y-53096D01*
X33239Y-52943D01*
X33278Y-52867D01*
X33316Y-52829D01*
X33392Y-52791D01*
X34001Y-53515D02*
X34040Y-53553D01*
X34001Y-53591D01*
X33963Y-53553D01*
X34001Y-53515D01*
X34001Y-53591D01*
X34535Y-52791D02*
X34611Y-52791D01*
X34687Y-52829D01*
X34725Y-52867D01*
X34763Y-52943D01*
X34802Y-53096D01*
X34802Y-53286D01*
X34763Y-53438D01*
X34725Y-53515D01*
X34687Y-53553D01*
X34611Y-53591D01*
X34535Y-53591D01*
X34459Y-53553D01*
X34421Y-53515D01*
X34382Y-53438D01*
X34344Y-53286D01*
X34344Y-53096D01*
X34382Y-52943D01*
X34421Y-52867D01*
X34459Y-52829D01*
X34535Y-52791D01*
X35487Y-52791D02*
X35335Y-52791D01*
X35259Y-52829D01*
X35221Y-52867D01*
X35144Y-52981D01*
X35106Y-53134D01*
X35106Y-53438D01*
X35144Y-53515D01*
X35183Y-53553D01*
X35259Y-53591D01*
X35411Y-53591D01*
X35487Y-53553D01*
X35525Y-53515D01*
X35564Y-53438D01*
X35564Y-53248D01*
X35525Y-53172D01*
X35487Y-53134D01*
X35411Y-53096D01*
X35259Y-53096D01*
X35183Y-53134D01*
X35144Y-53172D01*
X35106Y-53248D01*
X35868Y-52867D02*
X35906Y-52829D01*
X35983Y-52791D01*
X36173Y-52791D01*
X36249Y-52829D01*
X36287Y-52867D01*
X36326Y-52943D01*
X36326Y-53019D01*
X36287Y-53134D01*
X35830Y-53591D01*
X36326Y-53591D01*
X36630Y-52791D02*
X36630Y-52943D01*
X36935Y-52791D02*
X36935Y-52943D01*
X38460Y-52753D02*
X37774Y-53781D01*
X39756Y-53591D02*
X39298Y-53591D01*
X39527Y-53591D02*
X39527Y-52791D01*
X39451Y-52905D01*
X39375Y-52981D01*
X39298Y-53019D01*
X40098Y-53515D02*
X40137Y-53553D01*
X40098Y-53591D01*
X40060Y-53553D01*
X40098Y-53515D01*
X40098Y-53591D01*
X40860Y-52791D02*
X40479Y-52791D01*
X40441Y-53172D01*
X40479Y-53134D01*
X40556Y-53096D01*
X40746Y-53096D01*
X40822Y-53134D01*
X40860Y-53172D01*
X40899Y-53248D01*
X40899Y-53438D01*
X40860Y-53515D01*
X40822Y-53553D01*
X40746Y-53591D01*
X40556Y-53591D01*
X40479Y-53553D01*
X40441Y-53515D01*
X41165Y-52791D02*
X41699Y-52791D01*
X41356Y-53591D01*
X42003Y-53591D02*
X42003Y-53057D01*
X42003Y-53134D02*
X42042Y-53096D01*
X42118Y-53057D01*
X42232Y-53057D01*
X42308Y-53096D01*
X42346Y-53172D01*
X42346Y-53591D01*
X42346Y-53172D02*
X42384Y-53096D01*
X42461Y-53057D01*
X42575Y-53057D01*
X42651Y-53096D01*
X42689Y-53172D01*
X42689Y-53591D01*
X43070Y-53591D02*
X43070Y-53057D01*
X43070Y-53134D02*
X43109Y-53096D01*
X43185Y-53057D01*
X43299Y-53057D01*
X43375Y-53096D01*
X43413Y-53172D01*
X43413Y-53591D01*
X43413Y-53172D02*
X43451Y-53096D01*
X43528Y-53057D01*
X43642Y-53057D01*
X43718Y-53096D01*
X43756Y-53172D01*
X43756Y-53591D01*
X44976Y-53896D02*
X44938Y-53857D01*
X44862Y-53743D01*
X44824Y-53667D01*
X44786Y-53553D01*
X44747Y-53362D01*
X44747Y-53210D01*
X44786Y-53019D01*
X44824Y-52905D01*
X44862Y-52829D01*
X44938Y-52715D01*
X44976Y-52677D01*
X45242Y-52867D02*
X45280Y-52829D01*
X45357Y-52791D01*
X45547Y-52791D01*
X45623Y-52829D01*
X45661Y-52867D01*
X45700Y-52943D01*
X45700Y-53019D01*
X45661Y-53134D01*
X45204Y-53591D01*
X45700Y-53591D01*
X46652Y-53591D02*
X46652Y-52791D01*
X46995Y-53591D02*
X46995Y-53172D01*
X46957Y-53096D01*
X46881Y-53057D01*
X46767Y-53057D01*
X46691Y-53096D01*
X46652Y-53134D01*
X47491Y-53591D02*
X47415Y-53553D01*
X47376Y-53515D01*
X47338Y-53438D01*
X47338Y-53210D01*
X47376Y-53134D01*
X47415Y-53096D01*
X47491Y-53057D01*
X47605Y-53057D01*
X47681Y-53096D01*
X47719Y-53134D01*
X47757Y-53210D01*
X47757Y-53438D01*
X47719Y-53515D01*
X47681Y-53553D01*
X47605Y-53591D01*
X47491Y-53591D01*
X48215Y-53591D02*
X48139Y-53553D01*
X48100Y-53477D01*
X48100Y-52791D01*
X48824Y-53553D02*
X48748Y-53591D01*
X48596Y-53591D01*
X48519Y-53553D01*
X48481Y-53477D01*
X48481Y-53172D01*
X48519Y-53096D01*
X48596Y-53057D01*
X48748Y-53057D01*
X48824Y-53096D01*
X48862Y-53172D01*
X48862Y-53248D01*
X48481Y-53324D01*
X49167Y-53553D02*
X49244Y-53591D01*
X49396Y-53591D01*
X49472Y-53553D01*
X49510Y-53477D01*
X49510Y-53438D01*
X49472Y-53362D01*
X49396Y-53324D01*
X49282Y-53324D01*
X49205Y-53286D01*
X49167Y-53210D01*
X49167Y-53172D01*
X49205Y-53096D01*
X49282Y-53057D01*
X49396Y-53057D01*
X49472Y-53096D01*
X49777Y-53896D02*
X49815Y-53857D01*
X49892Y-53743D01*
X49930Y-53667D01*
X49968Y-53553D01*
X50006Y-53362D01*
X50006Y-53210D01*
X49968Y-53019D01*
X49930Y-52905D01*
X49892Y-52829D01*
X49815Y-52715D01*
X49777Y-52677D01*
G54D10*
X32849Y-54322D02*
X32836Y-54446D01*
X32800Y-54565D01*
X32742Y-54676D01*
X32663Y-54772D01*
X32566Y-54852D01*
X32457Y-54911D01*
X32337Y-54948D01*
X32213Y-54961D01*
X32090Y-54950D01*
X31970Y-54915D01*
X31859Y-54857D01*
X31762Y-54779D01*
X31681Y-54683D01*
X31621Y-54574D01*
X31583Y-54455D01*
X31570Y-54330D01*
X31580Y-54207D01*
X31614Y-54087D01*
X31672Y-53976D01*
X31749Y-53878D01*
X31844Y-53797D01*
X31953Y-53736D01*
X32072Y-53697D01*
X32196Y-53683D01*
X32320Y-53692D01*
X32440Y-53726D01*
X32551Y-53782D01*
X32650Y-53859D01*
X32731Y-53954D01*
X32793Y-54062D01*
X32833Y-54181D01*
X32848Y-54305D01*
X32849Y-54322D01*
X31569Y-53682D02*
X32849Y-54962D01*
X32849Y-53682D02*
X31569Y-54962D01*
G54D12*
X33392Y-53846D02*
X33468Y-53846D01*
X33544Y-53884D01*
X33582Y-53922D01*
X33620Y-53998D01*
X33659Y-54151D01*
X33659Y-54341D01*
X33620Y-54493D01*
X33582Y-54570D01*
X33544Y-54608D01*
X33468Y-54646D01*
X33392Y-54646D01*
X33316Y-54608D01*
X33278Y-54570D01*
X33239Y-54493D01*
X33201Y-54341D01*
X33201Y-54151D01*
X33239Y-53998D01*
X33278Y-53922D01*
X33316Y-53884D01*
X33392Y-53846D01*
X34001Y-54570D02*
X34040Y-54608D01*
X34001Y-54646D01*
X33963Y-54608D01*
X34001Y-54570D01*
X34001Y-54646D01*
X34802Y-54646D02*
X34344Y-54646D01*
X34573Y-54646D02*
X34573Y-53846D01*
X34497Y-53960D01*
X34421Y-54036D01*
X34344Y-54074D01*
X35106Y-53922D02*
X35144Y-53884D01*
X35221Y-53846D01*
X35411Y-53846D01*
X35487Y-53884D01*
X35525Y-53922D01*
X35564Y-53998D01*
X35564Y-54074D01*
X35525Y-54189D01*
X35068Y-54646D01*
X35564Y-54646D01*
X36021Y-54189D02*
X35945Y-54151D01*
X35906Y-54112D01*
X35868Y-54036D01*
X35868Y-53998D01*
X35906Y-53922D01*
X35945Y-53884D01*
X36021Y-53846D01*
X36173Y-53846D01*
X36249Y-53884D01*
X36287Y-53922D01*
X36326Y-53998D01*
X36326Y-54036D01*
X36287Y-54112D01*
X36249Y-54151D01*
X36173Y-54189D01*
X36021Y-54189D01*
X35945Y-54227D01*
X35906Y-54265D01*
X35868Y-54341D01*
X35868Y-54493D01*
X35906Y-54570D01*
X35945Y-54608D01*
X36021Y-54646D01*
X36173Y-54646D01*
X36249Y-54608D01*
X36287Y-54570D01*
X36326Y-54493D01*
X36326Y-54341D01*
X36287Y-54265D01*
X36249Y-54227D01*
X36173Y-54189D01*
X36630Y-53846D02*
X36630Y-53998D01*
X36935Y-53846D02*
X36935Y-53998D01*
X38460Y-53808D02*
X37774Y-54836D01*
X39260Y-53846D02*
X39756Y-53846D01*
X39489Y-54151D01*
X39603Y-54151D01*
X39679Y-54189D01*
X39717Y-54227D01*
X39756Y-54303D01*
X39756Y-54493D01*
X39717Y-54570D01*
X39679Y-54608D01*
X39603Y-54646D01*
X39375Y-54646D01*
X39298Y-54608D01*
X39260Y-54570D01*
X40098Y-54570D02*
X40137Y-54608D01*
X40098Y-54646D01*
X40060Y-54608D01*
X40098Y-54570D01*
X40098Y-54646D01*
X40441Y-53922D02*
X40479Y-53884D01*
X40556Y-53846D01*
X40746Y-53846D01*
X40822Y-53884D01*
X40860Y-53922D01*
X40899Y-53998D01*
X40899Y-54074D01*
X40860Y-54189D01*
X40403Y-54646D01*
X40899Y-54646D01*
X41622Y-53846D02*
X41241Y-53846D01*
X41203Y-54227D01*
X41241Y-54189D01*
X41318Y-54151D01*
X41508Y-54151D01*
X41584Y-54189D01*
X41622Y-54227D01*
X41661Y-54303D01*
X41661Y-54493D01*
X41622Y-54570D01*
X41584Y-54608D01*
X41508Y-54646D01*
X41318Y-54646D01*
X41241Y-54608D01*
X41203Y-54570D01*
X42003Y-54646D02*
X42003Y-54112D01*
X42003Y-54189D02*
X42042Y-54151D01*
X42118Y-54112D01*
X42232Y-54112D01*
X42308Y-54151D01*
X42346Y-54227D01*
X42346Y-54646D01*
X42346Y-54227D02*
X42384Y-54151D01*
X42461Y-54112D01*
X42575Y-54112D01*
X42651Y-54151D01*
X42689Y-54227D01*
X42689Y-54646D01*
X43070Y-54646D02*
X43070Y-54112D01*
X43070Y-54189D02*
X43109Y-54151D01*
X43185Y-54112D01*
X43299Y-54112D01*
X43375Y-54151D01*
X43413Y-54227D01*
X43413Y-54646D01*
X43413Y-54227D02*
X43451Y-54151D01*
X43528Y-54112D01*
X43642Y-54112D01*
X43718Y-54151D01*
X43756Y-54227D01*
X43756Y-54646D01*
X44976Y-54951D02*
X44938Y-54912D01*
X44862Y-54798D01*
X44824Y-54722D01*
X44786Y-54608D01*
X44747Y-54417D01*
X44747Y-54265D01*
X44786Y-54074D01*
X44824Y-53960D01*
X44862Y-53884D01*
X44938Y-53770D01*
X44976Y-53732D01*
X45242Y-53922D02*
X45280Y-53884D01*
X45357Y-53846D01*
X45547Y-53846D01*
X45623Y-53884D01*
X45661Y-53922D01*
X45700Y-53998D01*
X45700Y-54074D01*
X45661Y-54189D01*
X45204Y-54646D01*
X45700Y-54646D01*
X46652Y-54646D02*
X46652Y-53846D01*
X46995Y-54646D02*
X46995Y-54227D01*
X46957Y-54151D01*
X46881Y-54112D01*
X46767Y-54112D01*
X46691Y-54151D01*
X46652Y-54189D01*
X47491Y-54646D02*
X47415Y-54608D01*
X47376Y-54570D01*
X47338Y-54493D01*
X47338Y-54265D01*
X47376Y-54189D01*
X47415Y-54151D01*
X47491Y-54112D01*
X47605Y-54112D01*
X47681Y-54151D01*
X47719Y-54189D01*
X47757Y-54265D01*
X47757Y-54493D01*
X47719Y-54570D01*
X47681Y-54608D01*
X47605Y-54646D01*
X47491Y-54646D01*
X48215Y-54646D02*
X48139Y-54608D01*
X48100Y-54532D01*
X48100Y-53846D01*
X48824Y-54608D02*
X48748Y-54646D01*
X48596Y-54646D01*
X48519Y-54608D01*
X48481Y-54532D01*
X48481Y-54227D01*
X48519Y-54151D01*
X48596Y-54112D01*
X48748Y-54112D01*
X48824Y-54151D01*
X48862Y-54227D01*
X48862Y-54303D01*
X48481Y-54379D01*
X49167Y-54608D02*
X49244Y-54646D01*
X49396Y-54646D01*
X49472Y-54608D01*
X49510Y-54532D01*
X49510Y-54493D01*
X49472Y-54417D01*
X49396Y-54379D01*
X49282Y-54379D01*
X49205Y-54341D01*
X49167Y-54265D01*
X49167Y-54227D01*
X49205Y-54151D01*
X49282Y-54112D01*
X49396Y-54112D01*
X49472Y-54151D01*
X49777Y-54951D02*
X49815Y-54912D01*
X49892Y-54798D01*
X49930Y-54722D01*
X49968Y-54608D01*
X50006Y-54417D01*
X50006Y-54265D01*
X49968Y-54074D01*
X49930Y-53960D01*
X49892Y-53884D01*
X49815Y-53770D01*
X49777Y-53732D01*
M02*
