G04 (created by PCBNEW-RS274X (2012-01-19 BZR 3256)-stable) date 10/21/2012 10:59:19 AM*
G01*
G70*
G90*
%MOIN*%
G04 Gerber Fmt 3.4, Leading zero omitted, Abs format*
%FSLAX34Y34*%
G04 APERTURE LIST*
%ADD10C,0.006000*%
%ADD11R,0.060000X0.030000*%
%ADD12R,0.030000X0.060000*%
%ADD13R,0.090000X0.090000*%
%ADD14C,0.090000*%
%ADD15R,0.370000X0.370000*%
%ADD16R,0.047600X0.059400*%
%ADD17R,0.065000X0.040000*%
%ADD18R,0.080000X0.100000*%
%ADD19R,0.100000X0.080000*%
%ADD20R,0.055000X0.075000*%
%ADD21R,0.080000X0.080000*%
%ADD22C,0.080000*%
%ADD23R,0.094800X0.114500*%
%ADD24R,0.035700X0.043600*%
%ADD25C,0.075000*%
%ADD26C,0.067200*%
%ADD27C,0.055400*%
%ADD28R,0.048000X0.056700*%
%ADD29R,0.067200X0.098700*%
%ADD30R,0.079100X0.059400*%
%ADD31R,0.068800X0.077900*%
%ADD32C,0.163700*%
%ADD33R,0.079100X0.079100*%
%ADD34C,0.079100*%
G04 APERTURE END LIST*
G54D10*
G54D11*
X59800Y-35890D03*
X59800Y-40610D03*
X59800Y-40410D03*
X59800Y-40220D03*
X59800Y-40020D03*
X59800Y-39820D03*
X59800Y-39630D03*
X59800Y-39430D03*
X59800Y-39230D03*
X59800Y-39040D03*
X59800Y-38840D03*
X59800Y-38640D03*
X59800Y-38440D03*
X59800Y-38250D03*
X59800Y-38050D03*
X59800Y-37850D03*
X59800Y-37660D03*
X59800Y-37460D03*
X59800Y-37260D03*
X59800Y-37070D03*
X59800Y-36870D03*
X59800Y-36670D03*
X59800Y-36480D03*
X59800Y-36280D03*
X59800Y-36080D03*
G54D12*
X59110Y-41300D03*
X54390Y-41300D03*
X54590Y-41300D03*
X54780Y-41300D03*
X54980Y-41300D03*
X55180Y-41300D03*
X55370Y-41300D03*
X55570Y-41300D03*
X55770Y-41300D03*
X55960Y-41300D03*
X56160Y-41300D03*
X56360Y-41300D03*
X56560Y-41300D03*
X56750Y-41300D03*
X56950Y-41300D03*
X57150Y-41300D03*
X57340Y-41300D03*
X57540Y-41300D03*
X57740Y-41300D03*
X57930Y-41300D03*
X58130Y-41300D03*
X58330Y-41300D03*
X58520Y-41300D03*
X58720Y-41300D03*
X58920Y-41300D03*
X59110Y-35200D03*
X58910Y-35200D03*
X58720Y-35200D03*
X58520Y-35200D03*
X58320Y-35200D03*
X58130Y-35200D03*
X57930Y-35200D03*
X57730Y-35200D03*
X57540Y-35200D03*
X57340Y-35200D03*
X57140Y-35200D03*
X56940Y-35200D03*
X56750Y-35200D03*
X56550Y-35200D03*
X56350Y-35200D03*
X56160Y-35200D03*
X55960Y-35200D03*
X55760Y-35200D03*
X55570Y-35200D03*
X55370Y-35200D03*
X55170Y-35200D03*
X54980Y-35200D03*
X54780Y-35200D03*
X54580Y-35200D03*
X54390Y-35200D03*
G54D11*
X53700Y-35890D03*
X53700Y-36090D03*
X53700Y-36280D03*
X53700Y-36480D03*
X53700Y-36680D03*
X53700Y-36870D03*
X53700Y-37070D03*
X53700Y-37270D03*
X53700Y-37460D03*
X53700Y-37660D03*
X53700Y-37860D03*
X53700Y-38060D03*
X53700Y-38250D03*
X53700Y-38450D03*
X53700Y-38650D03*
X53700Y-38840D03*
X53700Y-39040D03*
X53700Y-39240D03*
X53700Y-39430D03*
X53700Y-39630D03*
X53700Y-39830D03*
X53700Y-40020D03*
X53700Y-40220D03*
X53700Y-40420D03*
X53700Y-40610D03*
G54D13*
X36200Y-45700D03*
G54D14*
X36200Y-43700D03*
X36200Y-44700D03*
G54D15*
X42700Y-44700D03*
G54D16*
X65000Y-32000D03*
X65375Y-33000D03*
X64625Y-33000D03*
G54D17*
X50550Y-41750D03*
X48450Y-41750D03*
X50550Y-42250D03*
X50550Y-42750D03*
X50550Y-43250D03*
X48450Y-42250D03*
X48450Y-42750D03*
X48450Y-43250D03*
G54D18*
X50250Y-34850D03*
X51550Y-34850D03*
G54D19*
X62700Y-44250D03*
X62700Y-42950D03*
G54D18*
X75250Y-44800D03*
X73950Y-44800D03*
X71550Y-45200D03*
X72850Y-45200D03*
X50250Y-38100D03*
X48950Y-38100D03*
G54D19*
X49950Y-33300D03*
X49950Y-32000D03*
G54D18*
X48850Y-32050D03*
X47550Y-32050D03*
X57650Y-45750D03*
X56350Y-45750D03*
G54D19*
X63850Y-45600D03*
X63850Y-44300D03*
G54D18*
X50850Y-33850D03*
X52150Y-33850D03*
X70750Y-35350D03*
X72050Y-35350D03*
X70750Y-36550D03*
X72050Y-36550D03*
X70750Y-33750D03*
X72050Y-33750D03*
X70750Y-32550D03*
X72050Y-32550D03*
G54D19*
X60600Y-32050D03*
X60600Y-33350D03*
G54D18*
X70750Y-40750D03*
X72050Y-40750D03*
X72050Y-38750D03*
X70750Y-38750D03*
X61650Y-32250D03*
X62950Y-32250D03*
X64500Y-33750D03*
X65800Y-33750D03*
X52800Y-38050D03*
X51500Y-38050D03*
X62575Y-40250D03*
X61275Y-40250D03*
X62950Y-46250D03*
X61650Y-46250D03*
X51575Y-35850D03*
X52875Y-35850D03*
X49450Y-36100D03*
X50750Y-36100D03*
G54D19*
X34500Y-32350D03*
X34500Y-33650D03*
X34350Y-38300D03*
X34350Y-39600D03*
G54D18*
X53500Y-32050D03*
X52200Y-32050D03*
G54D20*
X71625Y-43100D03*
X72375Y-43100D03*
X71625Y-43800D03*
X72375Y-43800D03*
X59375Y-45750D03*
X58625Y-45750D03*
X54625Y-45750D03*
X55375Y-45750D03*
G54D21*
X68500Y-32500D03*
G54D22*
X67500Y-32500D03*
G54D21*
X46400Y-37900D03*
G54D22*
X45400Y-37900D03*
G54D21*
X59500Y-32700D03*
G54D22*
X58500Y-32700D03*
X57500Y-32700D03*
X56500Y-32700D03*
X55500Y-32700D03*
X54500Y-32700D03*
G54D15*
X42500Y-33500D03*
G54D14*
X36000Y-32500D03*
G54D13*
X36000Y-33500D03*
G54D14*
X36000Y-34500D03*
G54D15*
X42700Y-39500D03*
G54D14*
X36200Y-38500D03*
G54D13*
X36200Y-39500D03*
G54D14*
X36200Y-40500D03*
G54D23*
X56094Y-44500D03*
X57866Y-44500D03*
G54D24*
X66800Y-44624D03*
X67056Y-44624D03*
X66544Y-44624D03*
X66544Y-43876D03*
X66800Y-43876D03*
X67056Y-43876D03*
X65500Y-43876D03*
X65244Y-43876D03*
X65756Y-43876D03*
X65756Y-44624D03*
X65500Y-44624D03*
X65244Y-44624D03*
G54D25*
X47409Y-36000D03*
X48591Y-36000D03*
X47409Y-33000D03*
X48591Y-33000D03*
G54D22*
X64500Y-38787D03*
X64500Y-38000D03*
X64500Y-39575D03*
X64500Y-37213D03*
X64500Y-36425D03*
X64500Y-40362D03*
X64500Y-35638D03*
X64500Y-41150D03*
X67650Y-38787D03*
X67650Y-38000D03*
X67650Y-39575D03*
X67650Y-37213D03*
X67650Y-36425D03*
X67650Y-40362D03*
X67650Y-35638D03*
X67650Y-41150D03*
G54D26*
X73600Y-40150D03*
G54D27*
X75864Y-40150D03*
G54D28*
X73393Y-39044D03*
X73393Y-41256D03*
X76070Y-41256D03*
X76070Y-39044D03*
G54D29*
X74732Y-41922D03*
X74023Y-41922D03*
X75441Y-41922D03*
X75441Y-38378D03*
X74732Y-38378D03*
X74023Y-38378D03*
G54D30*
X73600Y-36150D03*
X75569Y-36150D03*
X75569Y-35599D03*
X73600Y-35599D03*
X73600Y-33150D03*
X75569Y-33150D03*
X75569Y-32599D03*
X73600Y-32599D03*
G54D31*
X45000Y-32500D03*
X46327Y-32500D03*
G54D32*
X83600Y-41412D03*
X83600Y-46085D03*
G54D33*
X81100Y-45500D03*
G54D34*
X80100Y-45000D03*
X81100Y-44500D03*
X80100Y-44000D03*
X81100Y-43500D03*
X80100Y-43000D03*
X81100Y-42500D03*
X80100Y-42000D03*
M02*
