G04 (created by PCBNEW-RS274X (2012-01-19 BZR 3256)-stable) date 11/1/2012 8:28:19 AM*
G01*
G70*
G90*
%MOIN*%
G04 Gerber Fmt 3.4, Leading zero omitted, Abs format*
%FSLAX34Y34*%
G04 APERTURE LIST*
%ADD10C,0.006000*%
%ADD11C,0.012000*%
%ADD12C,0.005000*%
G04 APERTURE END LIST*
G54D10*
G54D11*
X43426Y-47302D02*
X43426Y-46802D01*
X43426Y-46993D02*
X43378Y-46969D01*
X43283Y-46969D01*
X43235Y-46993D01*
X43212Y-47017D01*
X43188Y-47064D01*
X43188Y-47207D01*
X43212Y-47255D01*
X43235Y-47279D01*
X43283Y-47302D01*
X43378Y-47302D01*
X43426Y-47279D01*
X42974Y-47302D02*
X42974Y-46969D01*
X42974Y-47064D02*
X42950Y-47017D01*
X42926Y-46993D01*
X42879Y-46969D01*
X42831Y-46969D01*
X42593Y-47302D02*
X42640Y-47279D01*
X42664Y-47255D01*
X42688Y-47207D01*
X42688Y-47064D01*
X42664Y-47017D01*
X42640Y-46993D01*
X42593Y-46969D01*
X42521Y-46969D01*
X42473Y-46993D01*
X42450Y-47017D01*
X42426Y-47064D01*
X42426Y-47207D01*
X42450Y-47255D01*
X42473Y-47279D01*
X42521Y-47302D01*
X42593Y-47302D01*
X41998Y-47279D02*
X42045Y-47302D01*
X42141Y-47302D01*
X42188Y-47279D01*
X42212Y-47255D01*
X42236Y-47207D01*
X42236Y-47064D01*
X42212Y-47017D01*
X42188Y-46993D01*
X42141Y-46969D01*
X42045Y-46969D01*
X41998Y-46993D01*
X41783Y-47302D02*
X41783Y-46802D01*
X41735Y-47112D02*
X41592Y-47302D01*
X41592Y-46969D02*
X41783Y-47160D01*
X41378Y-47255D02*
X41354Y-47279D01*
X41378Y-47302D01*
X41402Y-47279D01*
X41378Y-47255D01*
X41378Y-47302D01*
X41188Y-46969D02*
X41092Y-47302D01*
X40997Y-47064D01*
X40902Y-47302D01*
X40807Y-46969D01*
X40616Y-47302D02*
X40616Y-46969D01*
X40616Y-47064D02*
X40592Y-47017D01*
X40568Y-46993D01*
X40521Y-46969D01*
X40473Y-46969D01*
X40306Y-47302D02*
X40306Y-46969D01*
X40306Y-46802D02*
X40330Y-46826D01*
X40306Y-46850D01*
X40282Y-46826D01*
X40306Y-46802D01*
X40306Y-46850D01*
X39854Y-46969D02*
X39854Y-47374D01*
X39877Y-47421D01*
X39901Y-47445D01*
X39949Y-47469D01*
X40020Y-47469D01*
X40068Y-47445D01*
X39854Y-47279D02*
X39901Y-47302D01*
X39997Y-47302D01*
X40044Y-47279D01*
X40068Y-47255D01*
X40092Y-47207D01*
X40092Y-47064D01*
X40068Y-47017D01*
X40044Y-46993D01*
X39997Y-46969D01*
X39901Y-46969D01*
X39854Y-46993D01*
X39616Y-47302D02*
X39616Y-46802D01*
X39402Y-47302D02*
X39402Y-47040D01*
X39425Y-46993D01*
X39473Y-46969D01*
X39545Y-46969D01*
X39592Y-46993D01*
X39616Y-47017D01*
X39235Y-46969D02*
X39045Y-46969D01*
X39164Y-46802D02*
X39164Y-47231D01*
X39140Y-47279D01*
X39093Y-47302D01*
X39045Y-47302D01*
X38878Y-47255D02*
X38854Y-47279D01*
X38878Y-47302D01*
X38902Y-47279D01*
X38878Y-47255D01*
X38878Y-47302D01*
X38426Y-47302D02*
X38426Y-47040D01*
X38449Y-46993D01*
X38497Y-46969D01*
X38592Y-46969D01*
X38640Y-46993D01*
X38426Y-47279D02*
X38473Y-47302D01*
X38592Y-47302D01*
X38640Y-47279D01*
X38664Y-47231D01*
X38664Y-47183D01*
X38640Y-47136D01*
X38592Y-47112D01*
X38473Y-47112D01*
X38426Y-47088D01*
X38188Y-46969D02*
X38188Y-47302D01*
X38188Y-47017D02*
X38164Y-46993D01*
X38117Y-46969D01*
X38045Y-46969D01*
X37997Y-46993D01*
X37974Y-47040D01*
X37974Y-47302D01*
X37522Y-47302D02*
X37522Y-46802D01*
X37522Y-47279D02*
X37569Y-47302D01*
X37665Y-47302D01*
X37712Y-47279D01*
X37736Y-47255D01*
X37760Y-47207D01*
X37760Y-47064D01*
X37736Y-47017D01*
X37712Y-46993D01*
X37665Y-46969D01*
X37569Y-46969D01*
X37522Y-46993D01*
X37093Y-47279D02*
X37141Y-47302D01*
X37236Y-47302D01*
X37284Y-47279D01*
X37308Y-47231D01*
X37308Y-47040D01*
X37284Y-46993D01*
X37236Y-46969D01*
X37141Y-46969D01*
X37093Y-46993D01*
X37070Y-47040D01*
X37070Y-47088D01*
X37308Y-47136D01*
X36855Y-47302D02*
X36855Y-46969D01*
X36855Y-47064D02*
X36831Y-47017D01*
X36807Y-46993D01*
X36760Y-46969D01*
X36712Y-46969D01*
X36569Y-47279D02*
X36521Y-47302D01*
X36426Y-47302D01*
X36378Y-47279D01*
X36354Y-47231D01*
X36354Y-47207D01*
X36378Y-47160D01*
X36426Y-47136D01*
X36497Y-47136D01*
X36545Y-47112D01*
X36569Y-47064D01*
X36569Y-47040D01*
X36545Y-46993D01*
X36497Y-46969D01*
X36426Y-46969D01*
X36378Y-46993D01*
X36069Y-47302D02*
X36116Y-47279D01*
X36140Y-47255D01*
X36164Y-47207D01*
X36164Y-47064D01*
X36140Y-47017D01*
X36116Y-46993D01*
X36069Y-46969D01*
X35997Y-46969D01*
X35949Y-46993D01*
X35926Y-47017D01*
X35902Y-47064D01*
X35902Y-47207D01*
X35926Y-47255D01*
X35949Y-47279D01*
X35997Y-47302D01*
X36069Y-47302D01*
X35688Y-46969D02*
X35688Y-47302D01*
X35688Y-47017D02*
X35664Y-46993D01*
X35617Y-46969D01*
X35545Y-46969D01*
X35497Y-46993D01*
X35474Y-47040D01*
X35474Y-47302D01*
X34926Y-47064D02*
X34950Y-47040D01*
X34998Y-47017D01*
X35045Y-47017D01*
X35093Y-47040D01*
X35117Y-47064D01*
X35141Y-47112D01*
X35141Y-47160D01*
X35117Y-47207D01*
X35093Y-47231D01*
X35045Y-47255D01*
X34998Y-47255D01*
X34950Y-47231D01*
X34926Y-47207D01*
X34926Y-47017D02*
X34926Y-47207D01*
X34903Y-47231D01*
X34879Y-47231D01*
X34831Y-47207D01*
X34807Y-47160D01*
X34807Y-47040D01*
X34855Y-46969D01*
X34926Y-46921D01*
X35022Y-46898D01*
X35117Y-46921D01*
X35188Y-46969D01*
X35236Y-47040D01*
X35260Y-47136D01*
X35236Y-47231D01*
X35188Y-47302D01*
X35117Y-47350D01*
X35022Y-47374D01*
X34926Y-47350D01*
X34855Y-47302D01*
X34379Y-46969D02*
X34379Y-47374D01*
X34402Y-47421D01*
X34426Y-47445D01*
X34474Y-47469D01*
X34545Y-47469D01*
X34593Y-47445D01*
X34379Y-47279D02*
X34426Y-47302D01*
X34522Y-47302D01*
X34569Y-47279D01*
X34593Y-47255D01*
X34617Y-47207D01*
X34617Y-47064D01*
X34593Y-47017D01*
X34569Y-46993D01*
X34522Y-46969D01*
X34426Y-46969D01*
X34379Y-46993D01*
X34141Y-47302D02*
X34141Y-46969D01*
X34141Y-47017D02*
X34117Y-46993D01*
X34070Y-46969D01*
X33998Y-46969D01*
X33950Y-46993D01*
X33927Y-47040D01*
X33927Y-47302D01*
X33927Y-47040D02*
X33903Y-46993D01*
X33855Y-46969D01*
X33784Y-46969D01*
X33736Y-46993D01*
X33712Y-47040D01*
X33712Y-47302D01*
X33260Y-47302D02*
X33260Y-47040D01*
X33283Y-46993D01*
X33331Y-46969D01*
X33426Y-46969D01*
X33474Y-46993D01*
X33260Y-47279D02*
X33307Y-47302D01*
X33426Y-47302D01*
X33474Y-47279D01*
X33498Y-47231D01*
X33498Y-47183D01*
X33474Y-47136D01*
X33426Y-47112D01*
X33307Y-47112D01*
X33260Y-47088D01*
X33022Y-47302D02*
X33022Y-46969D01*
X33022Y-46802D02*
X33046Y-46826D01*
X33022Y-46850D01*
X32998Y-46826D01*
X33022Y-46802D01*
X33022Y-46850D01*
X32713Y-47302D02*
X32760Y-47279D01*
X32784Y-47231D01*
X32784Y-46802D01*
X32522Y-47255D02*
X32498Y-47279D01*
X32522Y-47302D01*
X32546Y-47279D01*
X32522Y-47255D01*
X32522Y-47302D01*
X32070Y-47279D02*
X32117Y-47302D01*
X32213Y-47302D01*
X32260Y-47279D01*
X32284Y-47255D01*
X32308Y-47207D01*
X32308Y-47064D01*
X32284Y-47017D01*
X32260Y-46993D01*
X32213Y-46969D01*
X32117Y-46969D01*
X32070Y-46993D01*
X31784Y-47302D02*
X31831Y-47279D01*
X31855Y-47255D01*
X31879Y-47207D01*
X31879Y-47064D01*
X31855Y-47017D01*
X31831Y-46993D01*
X31784Y-46969D01*
X31712Y-46969D01*
X31664Y-46993D01*
X31641Y-47017D01*
X31617Y-47064D01*
X31617Y-47207D01*
X31641Y-47255D01*
X31664Y-47279D01*
X31712Y-47302D01*
X31784Y-47302D01*
X31403Y-47302D02*
X31403Y-46969D01*
X31403Y-47017D02*
X31379Y-46993D01*
X31332Y-46969D01*
X31260Y-46969D01*
X31212Y-46993D01*
X31189Y-47040D01*
X31189Y-47302D01*
X31189Y-47040D02*
X31165Y-46993D01*
X31117Y-46969D01*
X31046Y-46969D01*
X30998Y-46993D01*
X30974Y-47040D01*
X30974Y-47302D01*
G54D12*
X51900Y-36300D02*
X51900Y-35400D01*
X51900Y-35400D02*
X52550Y-35400D01*
X53250Y-36300D02*
X53900Y-36300D01*
X53900Y-36300D02*
X53900Y-35400D01*
X53900Y-35400D02*
X53250Y-35400D01*
X52550Y-36300D02*
X51900Y-36300D01*
X66800Y-45800D02*
X66800Y-46700D01*
X66800Y-46700D02*
X66150Y-46700D01*
X65450Y-45800D02*
X64800Y-45800D01*
X64800Y-45800D02*
X64800Y-46700D01*
X64800Y-46700D02*
X65450Y-46700D01*
X66150Y-45800D02*
X66800Y-45800D01*
X66000Y-42950D02*
X65100Y-42950D01*
X65100Y-42950D02*
X65100Y-42300D01*
X66000Y-41600D02*
X66000Y-40950D01*
X66000Y-40950D02*
X65100Y-40950D01*
X65100Y-40950D02*
X65100Y-41600D01*
X66000Y-42300D02*
X66000Y-42950D01*
X56300Y-35850D02*
X56300Y-36750D01*
X56300Y-36750D02*
X55650Y-36750D01*
X54950Y-35850D02*
X54300Y-35850D01*
X54300Y-35850D02*
X54300Y-36750D01*
X54300Y-36750D02*
X54950Y-36750D01*
X55650Y-35850D02*
X56300Y-35850D01*
X74050Y-43500D02*
X74050Y-42600D01*
X74050Y-42600D02*
X74700Y-42600D01*
X75400Y-43500D02*
X76050Y-43500D01*
X76050Y-43500D02*
X76050Y-42600D01*
X76050Y-42600D02*
X75400Y-42600D01*
X74700Y-43500D02*
X74050Y-43500D01*
X58775Y-38350D02*
X58775Y-37450D01*
X58775Y-37450D02*
X59425Y-37450D01*
X60125Y-38350D02*
X60775Y-38350D01*
X60775Y-38350D02*
X60775Y-37450D01*
X60775Y-37450D02*
X60125Y-37450D01*
X59425Y-38350D02*
X58775Y-38350D01*
X54900Y-35650D02*
X54000Y-35650D01*
X54000Y-35650D02*
X54000Y-35000D01*
X54900Y-34300D02*
X54900Y-33650D01*
X54900Y-33650D02*
X54000Y-33650D01*
X54000Y-33650D02*
X54000Y-34300D01*
X54900Y-35000D02*
X54900Y-35650D01*
X58800Y-40700D02*
X58800Y-39800D01*
X58800Y-39800D02*
X59450Y-39800D01*
X60150Y-40700D02*
X60800Y-40700D01*
X60800Y-40700D02*
X60800Y-39800D01*
X60800Y-39800D02*
X60150Y-39800D01*
X59450Y-40700D02*
X58800Y-40700D01*
X55850Y-41900D02*
X55850Y-42800D01*
X55850Y-42800D02*
X55200Y-42800D01*
X54500Y-41900D02*
X53850Y-41900D01*
X53850Y-41900D02*
X53850Y-42800D01*
X53850Y-42800D02*
X54500Y-42800D01*
X55200Y-41900D02*
X55850Y-41900D01*
X56200Y-42975D02*
X56200Y-42075D01*
X56200Y-42075D02*
X56850Y-42075D01*
X57550Y-42975D02*
X58200Y-42975D01*
X58200Y-42975D02*
X58200Y-42075D01*
X58200Y-42075D02*
X57550Y-42075D01*
X56850Y-42975D02*
X56200Y-42975D01*
X61775Y-42025D02*
X61775Y-41125D01*
X61775Y-41125D02*
X62425Y-41125D01*
X63125Y-42025D02*
X63775Y-42025D01*
X63775Y-42025D02*
X63775Y-41125D01*
X63775Y-41125D02*
X63125Y-41125D01*
X62425Y-42025D02*
X61775Y-42025D01*
X49100Y-42400D02*
X50000Y-42400D01*
X50000Y-42400D02*
X50000Y-43050D01*
X49100Y-43750D02*
X49100Y-44400D01*
X49100Y-44400D02*
X50000Y-44400D01*
X50000Y-44400D02*
X50000Y-43750D01*
X49100Y-43050D02*
X49100Y-42400D01*
X38900Y-41000D02*
X38000Y-41000D01*
X38000Y-41000D02*
X38000Y-40350D01*
X38900Y-39650D02*
X38900Y-39000D01*
X38900Y-39000D02*
X38000Y-39000D01*
X38000Y-39000D02*
X38000Y-39650D01*
X38900Y-40350D02*
X38900Y-41000D01*
X75500Y-47350D02*
X75500Y-46450D01*
X75500Y-46450D02*
X76150Y-46450D01*
X76850Y-47350D02*
X77500Y-47350D01*
X77500Y-47350D02*
X77500Y-46450D01*
X77500Y-46450D02*
X76850Y-46450D01*
X76150Y-47350D02*
X75500Y-47350D01*
X52950Y-35943D02*
X52964Y-35957D01*
X53007Y-35971D01*
X53036Y-35971D01*
X53079Y-35957D01*
X53107Y-35929D01*
X53122Y-35900D01*
X53136Y-35843D01*
X53136Y-35800D01*
X53122Y-35743D01*
X53107Y-35714D01*
X53079Y-35686D01*
X53036Y-35671D01*
X53007Y-35671D01*
X52964Y-35686D01*
X52950Y-35700D01*
X52693Y-35771D02*
X52693Y-35971D01*
X52764Y-35657D02*
X52836Y-35871D01*
X52650Y-35871D01*
X65850Y-46371D02*
X65950Y-46229D01*
X66022Y-46371D02*
X66022Y-46071D01*
X65907Y-46071D01*
X65879Y-46086D01*
X65864Y-46100D01*
X65850Y-46129D01*
X65850Y-46171D01*
X65864Y-46200D01*
X65879Y-46214D01*
X65907Y-46229D01*
X66022Y-46229D01*
X65750Y-46071D02*
X65564Y-46071D01*
X65664Y-46186D01*
X65622Y-46186D01*
X65593Y-46200D01*
X65579Y-46214D01*
X65564Y-46243D01*
X65564Y-46314D01*
X65579Y-46343D01*
X65593Y-46357D01*
X65622Y-46371D01*
X65707Y-46371D01*
X65736Y-46357D01*
X65750Y-46343D01*
X65671Y-41900D02*
X65529Y-41800D01*
X65671Y-41728D02*
X65371Y-41728D01*
X65371Y-41843D01*
X65386Y-41871D01*
X65400Y-41886D01*
X65429Y-41900D01*
X65471Y-41900D01*
X65500Y-41886D01*
X65514Y-41871D01*
X65529Y-41843D01*
X65529Y-41728D01*
X65671Y-42043D02*
X65671Y-42100D01*
X65657Y-42128D01*
X65643Y-42143D01*
X65600Y-42171D01*
X65543Y-42186D01*
X65429Y-42186D01*
X65400Y-42171D01*
X65386Y-42157D01*
X65371Y-42128D01*
X65371Y-42071D01*
X65386Y-42043D01*
X65400Y-42028D01*
X65429Y-42014D01*
X65500Y-42014D01*
X65529Y-42028D01*
X65543Y-42043D01*
X65557Y-42071D01*
X65557Y-42128D01*
X65543Y-42157D01*
X65529Y-42171D01*
X65500Y-42186D01*
X55350Y-36393D02*
X55364Y-36407D01*
X55407Y-36421D01*
X55436Y-36421D01*
X55479Y-36407D01*
X55507Y-36379D01*
X55522Y-36350D01*
X55536Y-36293D01*
X55536Y-36250D01*
X55522Y-36193D01*
X55507Y-36164D01*
X55479Y-36136D01*
X55436Y-36121D01*
X55407Y-36121D01*
X55364Y-36136D01*
X55350Y-36150D01*
X55250Y-36121D02*
X55064Y-36121D01*
X55164Y-36236D01*
X55122Y-36236D01*
X55093Y-36250D01*
X55079Y-36264D01*
X55064Y-36293D01*
X55064Y-36364D01*
X55079Y-36393D01*
X55093Y-36407D01*
X55122Y-36421D01*
X55207Y-36421D01*
X55236Y-36407D01*
X55250Y-36393D01*
X75100Y-43143D02*
X75114Y-43157D01*
X75157Y-43171D01*
X75186Y-43171D01*
X75229Y-43157D01*
X75257Y-43129D01*
X75272Y-43100D01*
X75286Y-43043D01*
X75286Y-43000D01*
X75272Y-42943D01*
X75257Y-42914D01*
X75229Y-42886D01*
X75186Y-42871D01*
X75157Y-42871D01*
X75114Y-42886D01*
X75100Y-42900D01*
X74986Y-42900D02*
X74972Y-42886D01*
X74943Y-42871D01*
X74872Y-42871D01*
X74843Y-42886D01*
X74829Y-42900D01*
X74814Y-42929D01*
X74814Y-42957D01*
X74829Y-43000D01*
X75000Y-43171D01*
X74814Y-43171D01*
X59968Y-37993D02*
X59982Y-38007D01*
X60025Y-38021D01*
X60054Y-38021D01*
X60097Y-38007D01*
X60125Y-37979D01*
X60140Y-37950D01*
X60154Y-37893D01*
X60154Y-37850D01*
X60140Y-37793D01*
X60125Y-37764D01*
X60097Y-37736D01*
X60054Y-37721D01*
X60025Y-37721D01*
X59982Y-37736D01*
X59968Y-37750D01*
X59682Y-38021D02*
X59854Y-38021D01*
X59768Y-38021D02*
X59768Y-37721D01*
X59797Y-37764D01*
X59825Y-37793D01*
X59854Y-37807D01*
X59425Y-37821D02*
X59425Y-38021D01*
X59496Y-37707D02*
X59568Y-37921D01*
X59382Y-37921D01*
X54543Y-34600D02*
X54557Y-34586D01*
X54571Y-34543D01*
X54571Y-34514D01*
X54557Y-34471D01*
X54529Y-34443D01*
X54500Y-34428D01*
X54443Y-34414D01*
X54400Y-34414D01*
X54343Y-34428D01*
X54314Y-34443D01*
X54286Y-34471D01*
X54271Y-34514D01*
X54271Y-34543D01*
X54286Y-34586D01*
X54300Y-34600D01*
X54271Y-34871D02*
X54271Y-34728D01*
X54414Y-34714D01*
X54400Y-34728D01*
X54386Y-34757D01*
X54386Y-34828D01*
X54400Y-34857D01*
X54414Y-34871D01*
X54443Y-34886D01*
X54514Y-34886D01*
X54543Y-34871D01*
X54557Y-34857D01*
X54571Y-34828D01*
X54571Y-34757D01*
X54557Y-34728D01*
X54543Y-34714D01*
X59850Y-40343D02*
X59864Y-40357D01*
X59907Y-40371D01*
X59936Y-40371D01*
X59979Y-40357D01*
X60007Y-40329D01*
X60022Y-40300D01*
X60036Y-40243D01*
X60036Y-40200D01*
X60022Y-40143D01*
X60007Y-40114D01*
X59979Y-40086D01*
X59936Y-40071D01*
X59907Y-40071D01*
X59864Y-40086D01*
X59850Y-40100D01*
X59707Y-40371D02*
X59650Y-40371D01*
X59622Y-40357D01*
X59607Y-40343D01*
X59579Y-40300D01*
X59564Y-40243D01*
X59564Y-40129D01*
X59579Y-40100D01*
X59593Y-40086D01*
X59622Y-40071D01*
X59679Y-40071D01*
X59707Y-40086D01*
X59722Y-40100D01*
X59736Y-40129D01*
X59736Y-40200D01*
X59722Y-40229D01*
X59707Y-40243D01*
X59679Y-40257D01*
X59622Y-40257D01*
X59593Y-40243D01*
X59579Y-40229D01*
X59564Y-40200D01*
X55043Y-42443D02*
X55057Y-42457D01*
X55100Y-42471D01*
X55129Y-42471D01*
X55172Y-42457D01*
X55200Y-42429D01*
X55215Y-42400D01*
X55229Y-42343D01*
X55229Y-42300D01*
X55215Y-42243D01*
X55200Y-42214D01*
X55172Y-42186D01*
X55129Y-42171D01*
X55100Y-42171D01*
X55057Y-42186D01*
X55043Y-42200D01*
X54757Y-42471D02*
X54929Y-42471D01*
X54843Y-42471D02*
X54843Y-42171D01*
X54872Y-42214D01*
X54900Y-42243D01*
X54929Y-42257D01*
X54571Y-42171D02*
X54543Y-42171D01*
X54514Y-42186D01*
X54500Y-42200D01*
X54486Y-42229D01*
X54471Y-42286D01*
X54471Y-42357D01*
X54486Y-42414D01*
X54500Y-42443D01*
X54514Y-42457D01*
X54543Y-42471D01*
X54571Y-42471D01*
X54600Y-42457D01*
X54614Y-42443D01*
X54629Y-42414D01*
X54643Y-42357D01*
X54643Y-42286D01*
X54629Y-42229D01*
X54614Y-42200D01*
X54600Y-42186D01*
X54571Y-42171D01*
X57393Y-42618D02*
X57407Y-42632D01*
X57450Y-42646D01*
X57479Y-42646D01*
X57522Y-42632D01*
X57550Y-42604D01*
X57565Y-42575D01*
X57579Y-42518D01*
X57579Y-42475D01*
X57565Y-42418D01*
X57550Y-42389D01*
X57522Y-42361D01*
X57479Y-42346D01*
X57450Y-42346D01*
X57407Y-42361D01*
X57393Y-42375D01*
X57107Y-42646D02*
X57279Y-42646D01*
X57193Y-42646D02*
X57193Y-42346D01*
X57222Y-42389D01*
X57250Y-42418D01*
X57279Y-42432D01*
X56821Y-42646D02*
X56993Y-42646D01*
X56907Y-42646D02*
X56907Y-42346D01*
X56936Y-42389D01*
X56964Y-42418D01*
X56993Y-42432D01*
X62968Y-41668D02*
X62982Y-41682D01*
X63025Y-41696D01*
X63054Y-41696D01*
X63097Y-41682D01*
X63125Y-41654D01*
X63140Y-41625D01*
X63154Y-41568D01*
X63154Y-41525D01*
X63140Y-41468D01*
X63125Y-41439D01*
X63097Y-41411D01*
X63054Y-41396D01*
X63025Y-41396D01*
X62982Y-41411D01*
X62968Y-41425D01*
X62682Y-41696D02*
X62854Y-41696D01*
X62768Y-41696D02*
X62768Y-41396D01*
X62797Y-41439D01*
X62825Y-41468D01*
X62854Y-41482D01*
X62568Y-41425D02*
X62554Y-41411D01*
X62525Y-41396D01*
X62454Y-41396D01*
X62425Y-41411D01*
X62411Y-41425D01*
X62396Y-41454D01*
X62396Y-41482D01*
X62411Y-41525D01*
X62582Y-41696D01*
X62396Y-41696D01*
X49643Y-43207D02*
X49657Y-43193D01*
X49671Y-43150D01*
X49671Y-43121D01*
X49657Y-43078D01*
X49629Y-43050D01*
X49600Y-43035D01*
X49543Y-43021D01*
X49500Y-43021D01*
X49443Y-43035D01*
X49414Y-43050D01*
X49386Y-43078D01*
X49371Y-43121D01*
X49371Y-43150D01*
X49386Y-43193D01*
X49400Y-43207D01*
X49671Y-43493D02*
X49671Y-43321D01*
X49671Y-43407D02*
X49371Y-43407D01*
X49414Y-43378D01*
X49443Y-43350D01*
X49457Y-43321D01*
X49371Y-43750D02*
X49371Y-43693D01*
X49386Y-43664D01*
X49400Y-43650D01*
X49443Y-43621D01*
X49500Y-43607D01*
X49614Y-43607D01*
X49643Y-43621D01*
X49657Y-43636D01*
X49671Y-43664D01*
X49671Y-43721D01*
X49657Y-43750D01*
X49643Y-43764D01*
X49614Y-43779D01*
X49543Y-43779D01*
X49514Y-43764D01*
X49500Y-43750D01*
X49486Y-43721D01*
X49486Y-43664D01*
X49500Y-43636D01*
X49514Y-43621D01*
X49543Y-43607D01*
X38543Y-39807D02*
X38557Y-39793D01*
X38571Y-39750D01*
X38571Y-39721D01*
X38557Y-39678D01*
X38529Y-39650D01*
X38500Y-39635D01*
X38443Y-39621D01*
X38400Y-39621D01*
X38343Y-39635D01*
X38314Y-39650D01*
X38286Y-39678D01*
X38271Y-39721D01*
X38271Y-39750D01*
X38286Y-39793D01*
X38300Y-39807D01*
X38300Y-39921D02*
X38286Y-39935D01*
X38271Y-39964D01*
X38271Y-40035D01*
X38286Y-40064D01*
X38300Y-40078D01*
X38329Y-40093D01*
X38357Y-40093D01*
X38400Y-40078D01*
X38571Y-39907D01*
X38571Y-40093D01*
X38571Y-40379D02*
X38571Y-40207D01*
X38571Y-40293D02*
X38271Y-40293D01*
X38314Y-40264D01*
X38343Y-40236D01*
X38357Y-40207D01*
X76693Y-47021D02*
X76793Y-46879D01*
X76865Y-47021D02*
X76865Y-46721D01*
X76750Y-46721D01*
X76722Y-46736D01*
X76707Y-46750D01*
X76693Y-46779D01*
X76693Y-46821D01*
X76707Y-46850D01*
X76722Y-46864D01*
X76750Y-46879D01*
X76865Y-46879D01*
X76579Y-46750D02*
X76565Y-46736D01*
X76536Y-46721D01*
X76465Y-46721D01*
X76436Y-46736D01*
X76422Y-46750D01*
X76407Y-46779D01*
X76407Y-46807D01*
X76422Y-46850D01*
X76593Y-47021D01*
X76407Y-47021D01*
X76293Y-46750D02*
X76279Y-46736D01*
X76250Y-46721D01*
X76179Y-46721D01*
X76150Y-46736D01*
X76136Y-46750D01*
X76121Y-46779D01*
X76121Y-46807D01*
X76136Y-46850D01*
X76307Y-47021D01*
X76121Y-47021D01*
M02*
