G04 (created by PCBNEW-RS274X (2012-01-19 BZR 3256)-stable) date 10/27/2012 3:32:48 PM*
G01*
G70*
G90*
%MOIN*%
G04 Gerber Fmt 3.4, Leading zero omitted, Abs format*
%FSLAX34Y34*%
G04 APERTURE LIST*
%ADD10C,0.006000*%
%ADD11R,0.040000X0.010000*%
%ADD12R,0.010000X0.040000*%
%ADD13R,0.070000X0.070000*%
%ADD14C,0.070000*%
%ADD15R,0.350000X0.350000*%
%ADD16R,0.027600X0.039400*%
%ADD17R,0.045000X0.020000*%
%ADD18R,0.060000X0.080000*%
%ADD19R,0.080000X0.060000*%
%ADD20R,0.035000X0.055000*%
%ADD21R,0.060000X0.060000*%
%ADD22C,0.060000*%
%ADD23R,0.074800X0.094500*%
%ADD24R,0.015700X0.023600*%
%ADD25C,0.055000*%
%ADD26R,0.047200X0.055900*%
%ADD27R,0.047200X0.078700*%
%ADD28R,0.048800X0.057900*%
%ADD29R,0.059100X0.039400*%
%ADD30R,0.100000X0.100000*%
%ADD31C,0.100000*%
%ADD32C,0.054000*%
%ADD33C,0.049000*%
%ADD34C,0.036000*%
%ADD35C,0.035000*%
%ADD36C,0.007000*%
%ADD37C,0.034000*%
%ADD38C,0.010000*%
G04 APERTURE END LIST*
G54D10*
G54D11*
X59800Y-35890D03*
X59800Y-40610D03*
X59800Y-40410D03*
X59800Y-40220D03*
X59800Y-40020D03*
X59800Y-39820D03*
X59800Y-39630D03*
X59800Y-39430D03*
X59800Y-39230D03*
X59800Y-39040D03*
X59800Y-38840D03*
X59800Y-38640D03*
X59800Y-38440D03*
X59800Y-38250D03*
X59800Y-38050D03*
X59800Y-37850D03*
X59800Y-37660D03*
X59800Y-37460D03*
X59800Y-37260D03*
X59800Y-37070D03*
X59800Y-36870D03*
X59800Y-36670D03*
X59800Y-36480D03*
X59800Y-36280D03*
X59800Y-36080D03*
G54D12*
X59110Y-41300D03*
X54390Y-41300D03*
X54590Y-41300D03*
X54780Y-41300D03*
X54980Y-41300D03*
X55180Y-41300D03*
X55370Y-41300D03*
X55570Y-41300D03*
X55770Y-41300D03*
X55960Y-41300D03*
X56160Y-41300D03*
X56360Y-41300D03*
X56560Y-41300D03*
X56750Y-41300D03*
X56950Y-41300D03*
X57150Y-41300D03*
X57340Y-41300D03*
X57540Y-41300D03*
X57740Y-41300D03*
X57930Y-41300D03*
X58130Y-41300D03*
X58330Y-41300D03*
X58520Y-41300D03*
X58720Y-41300D03*
X58920Y-41300D03*
X59110Y-35200D03*
X58910Y-35200D03*
X58720Y-35200D03*
X58520Y-35200D03*
X58320Y-35200D03*
X58130Y-35200D03*
X57930Y-35200D03*
X57730Y-35200D03*
X57540Y-35200D03*
X57340Y-35200D03*
X57140Y-35200D03*
X56940Y-35200D03*
X56750Y-35200D03*
X56550Y-35200D03*
X56350Y-35200D03*
X56160Y-35200D03*
X55960Y-35200D03*
X55760Y-35200D03*
X55570Y-35200D03*
X55370Y-35200D03*
X55170Y-35200D03*
X54980Y-35200D03*
X54780Y-35200D03*
X54580Y-35200D03*
X54390Y-35200D03*
G54D11*
X53700Y-35890D03*
X53700Y-36090D03*
X53700Y-36280D03*
X53700Y-36480D03*
X53700Y-36680D03*
X53700Y-36870D03*
X53700Y-37070D03*
X53700Y-37270D03*
X53700Y-37460D03*
X53700Y-37660D03*
X53700Y-37860D03*
X53700Y-38060D03*
X53700Y-38250D03*
X53700Y-38450D03*
X53700Y-38650D03*
X53700Y-38840D03*
X53700Y-39040D03*
X53700Y-39240D03*
X53700Y-39430D03*
X53700Y-39630D03*
X53700Y-39830D03*
X53700Y-40020D03*
X53700Y-40220D03*
X53700Y-40420D03*
X53700Y-40610D03*
G54D13*
X36200Y-45700D03*
G54D14*
X36200Y-43700D03*
X36200Y-44700D03*
G54D15*
X42700Y-44700D03*
G54D16*
X65000Y-32000D03*
X65375Y-33000D03*
X64625Y-33000D03*
G54D17*
X50550Y-41750D03*
X48450Y-41750D03*
X50550Y-42250D03*
X50550Y-42750D03*
X50550Y-43250D03*
X48450Y-42250D03*
X48450Y-42750D03*
X48450Y-43250D03*
G54D18*
X50250Y-34850D03*
X51550Y-34850D03*
G54D19*
X62700Y-44250D03*
X62700Y-42950D03*
G54D18*
X75250Y-44800D03*
X73950Y-44800D03*
X71550Y-45200D03*
X72850Y-45200D03*
X50250Y-38100D03*
X48950Y-38100D03*
G54D19*
X49950Y-33300D03*
X49950Y-32000D03*
G54D18*
X48850Y-32050D03*
X47550Y-32050D03*
X57650Y-45750D03*
X56350Y-45750D03*
G54D19*
X63850Y-45600D03*
X63850Y-44300D03*
G54D18*
X50850Y-33850D03*
X52150Y-33850D03*
X70750Y-35350D03*
X72050Y-35350D03*
X70750Y-36550D03*
X72050Y-36550D03*
X70750Y-33750D03*
X72050Y-33750D03*
X70750Y-32550D03*
X72050Y-32550D03*
G54D19*
X60600Y-32050D03*
X60600Y-33350D03*
G54D18*
X70750Y-40750D03*
X72050Y-40750D03*
X72050Y-38750D03*
X70750Y-38750D03*
X61650Y-32250D03*
X62950Y-32250D03*
X64500Y-33750D03*
X65800Y-33750D03*
X52800Y-38050D03*
X51500Y-38050D03*
X62575Y-40250D03*
X61275Y-40250D03*
X62950Y-46250D03*
X61650Y-46250D03*
X51575Y-35850D03*
X52875Y-35850D03*
X49450Y-36100D03*
X50750Y-36100D03*
G54D19*
X34500Y-32350D03*
X34500Y-33650D03*
X34350Y-39600D03*
X34350Y-38300D03*
G54D18*
X53500Y-32050D03*
X52200Y-32050D03*
G54D20*
X71625Y-43100D03*
X72375Y-43100D03*
X71625Y-43800D03*
X72375Y-43800D03*
X59375Y-45750D03*
X58625Y-45750D03*
X54625Y-45750D03*
X55375Y-45750D03*
G54D21*
X68500Y-32500D03*
G54D22*
X67500Y-32500D03*
G54D21*
X59500Y-32700D03*
G54D22*
X58500Y-32700D03*
X57500Y-32700D03*
X56500Y-32700D03*
X55500Y-32700D03*
X54500Y-32700D03*
G54D15*
X42500Y-33500D03*
G54D14*
X36000Y-32500D03*
G54D13*
X36000Y-33500D03*
G54D14*
X36000Y-34500D03*
G54D15*
X42700Y-39500D03*
G54D14*
X36200Y-38500D03*
G54D13*
X36200Y-39500D03*
G54D14*
X36200Y-40500D03*
G54D23*
X56094Y-44500D03*
X57866Y-44500D03*
G54D24*
X66800Y-44624D03*
X67056Y-44624D03*
X66544Y-44624D03*
X66544Y-43876D03*
X66800Y-43876D03*
X67056Y-43876D03*
X65500Y-43876D03*
X65244Y-43876D03*
X65756Y-43876D03*
X65756Y-44624D03*
X65500Y-44624D03*
X65244Y-44624D03*
G54D25*
X47409Y-36000D03*
X48591Y-36000D03*
X47409Y-33000D03*
X48591Y-33000D03*
G54D22*
X64500Y-38787D03*
X64500Y-38000D03*
X64500Y-39575D03*
X64500Y-37213D03*
X64500Y-36425D03*
X64500Y-40362D03*
X64500Y-35638D03*
X64500Y-41150D03*
X67650Y-38787D03*
X67650Y-38000D03*
X67650Y-39575D03*
X67650Y-37213D03*
X67650Y-36425D03*
X67650Y-40362D03*
X67650Y-35638D03*
X67650Y-41150D03*
G54D26*
X73393Y-39044D03*
X73393Y-41256D03*
X76070Y-41256D03*
X76070Y-39044D03*
G54D27*
X74732Y-41922D03*
X74023Y-41922D03*
X75441Y-41922D03*
X75441Y-38378D03*
X74732Y-38378D03*
X74023Y-38378D03*
G54D28*
X45000Y-32500D03*
X46327Y-32500D03*
G54D29*
X73600Y-33150D03*
X75450Y-33150D03*
X75450Y-32599D03*
X73600Y-32599D03*
X73600Y-36150D03*
X75450Y-36150D03*
X75450Y-35599D03*
X73600Y-35599D03*
G54D18*
X73150Y-46900D03*
X74450Y-46900D03*
G54D22*
X49287Y-46500D03*
X48500Y-46500D03*
X50075Y-46500D03*
X47713Y-46500D03*
X46925Y-46500D03*
X50862Y-46500D03*
X46138Y-46500D03*
X51650Y-46500D03*
G54D30*
X31600Y-43550D03*
G54D31*
X31600Y-45550D03*
G54D30*
X31650Y-32400D03*
G54D31*
X31650Y-34400D03*
G54D30*
X31550Y-37900D03*
G54D31*
X31550Y-39900D03*
G54D32*
X78400Y-40500D03*
X78400Y-41500D03*
X78400Y-45180D03*
X78400Y-46180D03*
G54D33*
X79370Y-41340D03*
X79370Y-42140D03*
X79370Y-42940D03*
X79370Y-43740D03*
X79370Y-44540D03*
X79370Y-45340D03*
G54D34*
X52800Y-35100D03*
X68550Y-36250D03*
X47800Y-43400D03*
X61000Y-37100D03*
X69750Y-37300D03*
X66600Y-32600D03*
X66750Y-33850D03*
X66250Y-31050D03*
X71400Y-38000D03*
X60550Y-34350D03*
X58600Y-33700D03*
X57400Y-39700D03*
X55600Y-40100D03*
X55200Y-37500D03*
X55200Y-35700D03*
X45000Y-40500D03*
X53450Y-42200D03*
X34300Y-42200D03*
X57020Y-33840D03*
X60850Y-45400D03*
X48000Y-45500D03*
X59000Y-39520D03*
X64750Y-42350D03*
X76200Y-36200D03*
X54740Y-38660D03*
X76300Y-35600D03*
X64100Y-32200D03*
X74040Y-37460D03*
X60800Y-38750D03*
X59020Y-39020D03*
X68680Y-41160D03*
X52200Y-38040D03*
X57100Y-40700D03*
X51400Y-36650D03*
X52920Y-37320D03*
X55880Y-40660D03*
X62800Y-41300D03*
X76300Y-33200D03*
X63900Y-46450D03*
X51200Y-39200D03*
X48300Y-43900D03*
X59800Y-41100D03*
X52400Y-36600D03*
X76300Y-32600D03*
X46800Y-31500D03*
X53600Y-35100D03*
X61900Y-40200D03*
X58120Y-40660D03*
G54D35*
X66240Y-44400D03*
G54D34*
X75100Y-40900D03*
X58700Y-42400D03*
X50450Y-44000D03*
X56750Y-34700D03*
X59500Y-33500D03*
X52700Y-33200D03*
X57350Y-34200D03*
X69800Y-35300D03*
X54400Y-40300D03*
X66300Y-35300D03*
X56200Y-40000D03*
X54800Y-40500D03*
X70000Y-36500D03*
X62500Y-37750D03*
X57500Y-41800D03*
X69200Y-36400D03*
X38800Y-32900D03*
X33050Y-41100D03*
X48900Y-31200D03*
G54D35*
X54300Y-38200D03*
X54600Y-37900D03*
G54D34*
X72300Y-46800D03*
X57800Y-34000D03*
X63650Y-33800D03*
X59100Y-36250D03*
X61450Y-41600D03*
X65500Y-37500D03*
X65150Y-34400D03*
X65500Y-38700D03*
X59050Y-36950D03*
X58300Y-36950D03*
G54D35*
X56400Y-38900D03*
G54D34*
X65950Y-38300D03*
X60450Y-36750D03*
X55750Y-37500D03*
X65450Y-40650D03*
X66200Y-45300D03*
X60800Y-44900D03*
X66200Y-43500D03*
X52500Y-43700D03*
X51900Y-42400D03*
X46500Y-43000D03*
X63250Y-39500D03*
X63000Y-38750D03*
X61100Y-42100D03*
X66700Y-42200D03*
X66701Y-42642D03*
X60648Y-42120D03*
X63200Y-40500D03*
X52300Y-38800D03*
X52900Y-33800D03*
X47500Y-45000D03*
X66600Y-43300D03*
X51350Y-42000D03*
X62250Y-32900D03*
X72300Y-44400D03*
X74350Y-43900D03*
X69450Y-32850D03*
X71000Y-39900D03*
X56550Y-40575D03*
G54D35*
X65800Y-45500D03*
G54D34*
X47700Y-42600D03*
X55200Y-34150D03*
X58475Y-40400D03*
X51200Y-37300D03*
X49600Y-35200D03*
X69450Y-32200D03*
X56150Y-35650D03*
X62000Y-42400D03*
X38900Y-41900D03*
X58300Y-38500D03*
X53400Y-33750D03*
X56400Y-33800D03*
X55050Y-43250D03*
X60400Y-42900D03*
G54D36*
X56400Y-43300D02*
X56400Y-41700D01*
X55800Y-43600D02*
X56100Y-43600D01*
X56100Y-43600D02*
X56400Y-43300D01*
X68550Y-37050D02*
X68800Y-37300D01*
X68800Y-37300D02*
X69750Y-37300D01*
X68550Y-36250D02*
X68550Y-37050D01*
G54D37*
X35500Y-31300D02*
X37500Y-31300D01*
X46400Y-32573D02*
X46327Y-32500D01*
X34500Y-32350D02*
X35850Y-32350D01*
X37800Y-31000D02*
X45700Y-31000D01*
X45700Y-31000D02*
X46327Y-31627D01*
X31900Y-37900D02*
X31550Y-37900D01*
X32800Y-37900D02*
X33500Y-37200D01*
X46327Y-31627D02*
X46327Y-32500D01*
X33000Y-33200D02*
X33000Y-36800D01*
X33000Y-36800D02*
X31900Y-37900D01*
X33500Y-37200D02*
X33500Y-31800D01*
X31650Y-32400D02*
X32200Y-32400D01*
X35500Y-31300D02*
X36000Y-31800D01*
X36000Y-31800D02*
X36000Y-32500D01*
X47050Y-33000D02*
X46400Y-33000D01*
X46400Y-33000D02*
X46400Y-32573D01*
X35850Y-32350D02*
X36000Y-32500D01*
X37500Y-31300D02*
X37800Y-31000D01*
X33500Y-37400D02*
X33500Y-37200D01*
X33500Y-31800D02*
X34000Y-31300D01*
X47409Y-33000D02*
X47050Y-33000D01*
X34000Y-31300D02*
X35500Y-31300D01*
X32200Y-32400D02*
X33000Y-33200D01*
X31550Y-37900D02*
X32800Y-37900D01*
X37200Y-40000D02*
X36700Y-40500D01*
X36700Y-40500D02*
X36200Y-40500D01*
X36000Y-34500D02*
X36900Y-34500D01*
X66750Y-33850D02*
X66600Y-33700D01*
G54D36*
X67650Y-35638D02*
X67938Y-35638D01*
G54D37*
X36200Y-40500D02*
X35250Y-40500D01*
X35250Y-40500D02*
X34350Y-39600D01*
X36900Y-34500D02*
X37200Y-34800D01*
X37200Y-34800D02*
X37200Y-40000D01*
X66600Y-33700D02*
X66600Y-32600D01*
G54D36*
X58600Y-34350D02*
X60550Y-34350D01*
X70750Y-38650D02*
X70750Y-38750D01*
X71400Y-38000D02*
X70750Y-38650D01*
X58320Y-34630D02*
X58600Y-34350D01*
X58320Y-35200D02*
X58320Y-34630D01*
X58600Y-33700D02*
X58400Y-33500D01*
X57540Y-39840D02*
X57400Y-39700D01*
X56300Y-33500D02*
X55500Y-32700D01*
X58400Y-33500D02*
X56300Y-33500D01*
X57540Y-41300D02*
X57540Y-39840D01*
X55570Y-40130D02*
X55600Y-40100D01*
X55570Y-41300D02*
X55570Y-40130D01*
X55200Y-37500D02*
X55200Y-35700D01*
X48960Y-40000D02*
X48980Y-40020D01*
X48980Y-40020D02*
X53700Y-40020D01*
X45500Y-40000D02*
X48960Y-40000D01*
X45000Y-40500D02*
X45500Y-40000D01*
X48450Y-41750D02*
X48450Y-40550D01*
X48450Y-40550D02*
X48980Y-40020D01*
X65100Y-32400D02*
X64300Y-32400D01*
X57100Y-40700D02*
X56902Y-40700D01*
X50850Y-36100D02*
X51400Y-36650D01*
X75450Y-33150D02*
X76250Y-33150D01*
X58520Y-41060D02*
X58120Y-40660D01*
X66400Y-44300D02*
X66300Y-44400D01*
X75450Y-32599D02*
X76299Y-32599D01*
X56350Y-34690D02*
X56350Y-35200D01*
X54400Y-32000D02*
X54000Y-32400D01*
G54D37*
X34300Y-42200D02*
X34300Y-45300D01*
G54D36*
X56350Y-34690D02*
X57020Y-34020D01*
X59500Y-40020D02*
X59000Y-39520D01*
X48500Y-46500D02*
X48500Y-46000D01*
X64300Y-32400D02*
X64100Y-32200D01*
X57000Y-32000D02*
X54400Y-32000D01*
X59090Y-39430D02*
X59800Y-39430D01*
G54D37*
X34500Y-33650D02*
X35850Y-33650D01*
G54D36*
X53460Y-37860D02*
X53300Y-37700D01*
X56902Y-40700D02*
X56702Y-40900D01*
X65375Y-32675D02*
X65100Y-32400D01*
G54D37*
X34700Y-45700D02*
X36200Y-45700D01*
G54D36*
X65375Y-33000D02*
X65375Y-32675D01*
G54D37*
X36000Y-38300D02*
X36200Y-38500D01*
G54D36*
X59090Y-39430D02*
X59000Y-39520D01*
X65662Y-44242D02*
X66082Y-44242D01*
X53300Y-37700D02*
X53300Y-37500D01*
X66300Y-44400D02*
X66240Y-44400D01*
X59800Y-40020D02*
X59500Y-40020D01*
G54D37*
X34550Y-38500D02*
X34350Y-38300D01*
G54D36*
X75450Y-36150D02*
X76150Y-36150D01*
X57020Y-34020D02*
X57020Y-33840D01*
X57150Y-41300D02*
X57150Y-40750D01*
G54D37*
X35850Y-33650D02*
X36000Y-33500D01*
G54D36*
X52950Y-32800D02*
X52200Y-32050D01*
X66800Y-44624D02*
X66800Y-44300D01*
X66082Y-44242D02*
X66240Y-44400D01*
G54D37*
X36000Y-38300D02*
X36200Y-38500D01*
G54D36*
X75450Y-35599D02*
X76299Y-35599D01*
X76250Y-33150D02*
X76300Y-33200D01*
X59200Y-38840D02*
X59020Y-39020D01*
X65500Y-44080D02*
X65662Y-44242D01*
X56160Y-40940D02*
X55880Y-40660D01*
X52875Y-36125D02*
X52400Y-36600D01*
X61275Y-40250D02*
X61850Y-40250D01*
X53700Y-38650D02*
X54730Y-38650D01*
X57150Y-40750D02*
X57100Y-40700D01*
X58520Y-41300D02*
X58520Y-41060D01*
X65500Y-44080D02*
X65500Y-43876D01*
G54D37*
X34300Y-45300D02*
X34700Y-45700D01*
G54D36*
X76299Y-35599D02*
X76300Y-35600D01*
X56160Y-41300D02*
X56160Y-40940D01*
X51500Y-38050D02*
X52190Y-38050D01*
X54730Y-38650D02*
X54740Y-38660D01*
X50750Y-36100D02*
X50850Y-36100D01*
X53370Y-36870D02*
X53700Y-36870D01*
X76150Y-36150D02*
X76200Y-36200D01*
X50250Y-38100D02*
X50250Y-38250D01*
X57500Y-32500D02*
X57000Y-32000D01*
X53700Y-37860D02*
X53460Y-37860D01*
X48450Y-43750D02*
X48300Y-43900D01*
X48450Y-43750D02*
X48450Y-43250D01*
X60500Y-45750D02*
X60850Y-45400D01*
X54000Y-32550D02*
X53750Y-32800D01*
X52190Y-38050D02*
X52200Y-38040D01*
X52875Y-35850D02*
X52875Y-36125D01*
X67650Y-41150D02*
X68670Y-41150D01*
X53370Y-36870D02*
X52920Y-37320D01*
X53300Y-37500D02*
X53120Y-37320D01*
X50250Y-38250D02*
X51200Y-39200D01*
X46800Y-31500D02*
X47350Y-32050D01*
X59375Y-45750D02*
X60500Y-45750D01*
X66800Y-44300D02*
X66400Y-44300D01*
X54000Y-32400D02*
X54000Y-32550D01*
X61650Y-46200D02*
X61650Y-46250D01*
X59800Y-38840D02*
X59200Y-38840D01*
G54D37*
X36200Y-38500D02*
X34550Y-38500D01*
G54D36*
X57500Y-32700D02*
X57500Y-32500D01*
X74023Y-37477D02*
X74040Y-37460D01*
X76299Y-32599D02*
X76300Y-32600D01*
X68670Y-41150D02*
X68680Y-41160D01*
X47350Y-32050D02*
X47550Y-32050D01*
X61850Y-40250D02*
X61900Y-40200D01*
X53750Y-32800D02*
X52950Y-32800D01*
X74023Y-38378D02*
X74023Y-37477D01*
X61650Y-46200D02*
X60850Y-45400D01*
X48500Y-46000D02*
X48000Y-45500D01*
X53120Y-37320D02*
X52920Y-37320D01*
X56850Y-34700D02*
X57350Y-34200D01*
X56750Y-34700D02*
X56850Y-34700D01*
X59950Y-33350D02*
X60600Y-33350D01*
X59500Y-33500D02*
X59800Y-33500D01*
X52700Y-33200D02*
X52150Y-33750D01*
X52150Y-33750D02*
X52150Y-33850D01*
X59800Y-33500D02*
X59950Y-33350D01*
X56750Y-35200D02*
X56750Y-34700D01*
X69850Y-35350D02*
X70750Y-35350D01*
X54280Y-40420D02*
X54400Y-40300D01*
X69800Y-35300D02*
X69850Y-35350D01*
X53700Y-40420D02*
X54280Y-40420D01*
X56950Y-41300D02*
X56950Y-44200D01*
X57000Y-44250D02*
X57250Y-44500D01*
X57000Y-44250D02*
X57000Y-45500D01*
X56950Y-44200D02*
X57000Y-44250D01*
X57000Y-45500D02*
X57250Y-45750D01*
X57250Y-44500D02*
X57866Y-44500D01*
X57250Y-45750D02*
X57650Y-45750D01*
X58625Y-45750D02*
X57650Y-45750D01*
X73351Y-35350D02*
X73600Y-35599D01*
X72050Y-35350D02*
X73351Y-35350D01*
X74732Y-40418D02*
X74732Y-38378D01*
X74400Y-40750D02*
X74732Y-40418D01*
X72050Y-40750D02*
X72050Y-38750D01*
X72050Y-40750D02*
X74400Y-40750D01*
X70700Y-32550D02*
X70750Y-32550D01*
X66300Y-35300D02*
X67350Y-34250D01*
X56360Y-41300D02*
X56360Y-40860D01*
X56360Y-40860D02*
X56200Y-40700D01*
X67350Y-34250D02*
X69000Y-34250D01*
X69000Y-34250D02*
X70700Y-32550D01*
X56200Y-40700D02*
X56200Y-40000D01*
X72050Y-32550D02*
X73551Y-32550D01*
X73551Y-32550D02*
X73600Y-32599D01*
X73000Y-33750D02*
X73600Y-33150D01*
X72050Y-33750D02*
X73000Y-33750D01*
X72050Y-36550D02*
X73200Y-36550D01*
X73200Y-36550D02*
X73600Y-36150D01*
X64075Y-36425D02*
X64500Y-36425D01*
X59800Y-37660D02*
X61590Y-37660D01*
X63750Y-36750D02*
X64075Y-36425D01*
X62500Y-36750D02*
X63750Y-36750D01*
X61590Y-37660D02*
X62500Y-36750D01*
X65250Y-33750D02*
X65800Y-33750D01*
X65050Y-33550D02*
X65250Y-33750D01*
X65050Y-33150D02*
X65050Y-33550D01*
G54D37*
X64625Y-33000D02*
X64625Y-32725D01*
G54D36*
X64900Y-33000D02*
X65050Y-33150D01*
X64625Y-33000D02*
X64900Y-33000D01*
X54690Y-40610D02*
X54800Y-40500D01*
X53700Y-40610D02*
X54690Y-40610D01*
X70050Y-36550D02*
X70750Y-36550D01*
X70000Y-36500D02*
X70050Y-36550D01*
X61650Y-37850D02*
X62250Y-37250D01*
X59800Y-37850D02*
X61650Y-37850D01*
X62250Y-37250D02*
X64463Y-37250D01*
X64463Y-37250D02*
X64500Y-37213D01*
X62500Y-37750D02*
X62000Y-37750D01*
X62000Y-37750D02*
X61700Y-38050D01*
X61700Y-38050D02*
X59800Y-38050D01*
X57340Y-41640D02*
X57500Y-41800D01*
X69300Y-36300D02*
X69300Y-34400D01*
X69300Y-34400D02*
X69600Y-34400D01*
X57340Y-41300D02*
X57340Y-41640D01*
X69800Y-34100D02*
X70150Y-33750D01*
X69600Y-34400D02*
X69800Y-34100D01*
X70150Y-33750D02*
X70750Y-33750D01*
X69200Y-36400D02*
X69300Y-36300D01*
X60600Y-32050D02*
X60150Y-32050D01*
X60150Y-32050D02*
X59500Y-32700D01*
X64450Y-31850D02*
X63350Y-31850D01*
X65000Y-32000D02*
X64600Y-32000D01*
X66550Y-32000D02*
X65000Y-32000D01*
X67050Y-32500D02*
X66550Y-32000D01*
X67500Y-32500D02*
X67050Y-32500D01*
X64600Y-32000D02*
X64450Y-31850D01*
X63350Y-31850D02*
X62950Y-32250D01*
X50050Y-35500D02*
X49450Y-36100D01*
X51550Y-34850D02*
X51300Y-34850D01*
X50650Y-35500D02*
X50050Y-35500D01*
X51300Y-34850D02*
X50650Y-35500D01*
X50850Y-33850D02*
X50850Y-34150D01*
X50850Y-34150D02*
X51550Y-34850D01*
X59800Y-39230D02*
X62480Y-39230D01*
X63500Y-40750D02*
X63900Y-41150D01*
X62480Y-39230D02*
X63500Y-40250D01*
X63900Y-41150D02*
X64500Y-41150D01*
X63500Y-40250D02*
X63500Y-40750D01*
X63638Y-36500D02*
X64500Y-35638D01*
X62500Y-36500D02*
X63638Y-36500D01*
X61540Y-37460D02*
X62500Y-36500D01*
X59800Y-37460D02*
X61540Y-37460D01*
X56500Y-44500D02*
X56750Y-44250D01*
X55375Y-45750D02*
X56350Y-45750D01*
X56094Y-44500D02*
X56500Y-44500D01*
X56750Y-44250D02*
X56750Y-41300D01*
X56750Y-44250D02*
X56750Y-45350D01*
X56750Y-45350D02*
X56350Y-45750D01*
X49650Y-33000D02*
X49950Y-33300D01*
X48591Y-33000D02*
X49650Y-33000D01*
G54D37*
X45000Y-34850D02*
X45000Y-32500D01*
X38800Y-32900D02*
X40000Y-34100D01*
X40000Y-34100D02*
X40000Y-35400D01*
X40000Y-35400D02*
X41100Y-36500D01*
X41100Y-36500D02*
X43350Y-36500D01*
X43350Y-36500D02*
X45000Y-34850D01*
X31600Y-42550D02*
X31600Y-43550D01*
X33050Y-41100D02*
X31600Y-42550D01*
G54D36*
X48950Y-38100D02*
X48950Y-36359D01*
X48950Y-36359D02*
X48591Y-36000D01*
X48850Y-32050D02*
X49900Y-32050D01*
X49400Y-31400D02*
X49400Y-32000D01*
X49200Y-31200D02*
X49400Y-31400D01*
X49400Y-32000D02*
X48900Y-32000D01*
X49900Y-32050D02*
X49950Y-32000D01*
X48900Y-32000D02*
X48850Y-32050D01*
X48900Y-31200D02*
X49200Y-31200D01*
X74450Y-46900D02*
X77680Y-46900D01*
X77680Y-46900D02*
X78400Y-46180D01*
X62700Y-46000D02*
X62950Y-46250D01*
X62700Y-44250D02*
X62700Y-46000D01*
X63600Y-45600D02*
X62950Y-46250D01*
X63850Y-45600D02*
X63600Y-45600D01*
X54060Y-37660D02*
X54300Y-37900D01*
X54060Y-37660D02*
X53700Y-37660D01*
X54300Y-37900D02*
X54300Y-38200D01*
X53700Y-37460D02*
X54160Y-37460D01*
X72400Y-46900D02*
X73150Y-46900D01*
X54160Y-37460D02*
X54600Y-37900D01*
X72300Y-46800D02*
X72400Y-46900D01*
X57730Y-35200D02*
X57730Y-34070D01*
X63700Y-33750D02*
X64500Y-33750D01*
X63650Y-33800D02*
X63700Y-33750D01*
X57730Y-34070D02*
X57800Y-34000D01*
X67288Y-40362D02*
X67650Y-40362D01*
X65600Y-42050D02*
X67288Y-40362D01*
X58130Y-35830D02*
X58550Y-36250D01*
X58550Y-36250D02*
X59100Y-36250D01*
X58130Y-35200D02*
X58130Y-35830D01*
X61450Y-41600D02*
X61900Y-42050D01*
X61900Y-42050D02*
X65600Y-42050D01*
X58300Y-34000D02*
X61600Y-34000D01*
X62000Y-34400D02*
X65150Y-34400D01*
X65500Y-37500D02*
X65500Y-38700D01*
X61600Y-34000D02*
X62000Y-34400D01*
X57930Y-35200D02*
X57930Y-34370D01*
X57930Y-34370D02*
X58300Y-34000D01*
X58300Y-36950D02*
X59050Y-36950D01*
X54850Y-39300D02*
X56000Y-39300D01*
X53930Y-40220D02*
X54850Y-39300D01*
X62350Y-34850D02*
X65600Y-34850D01*
X56000Y-39300D02*
X56400Y-38900D01*
X65600Y-34850D02*
X65950Y-35200D01*
X65950Y-35200D02*
X65950Y-38300D01*
X53700Y-40220D02*
X53930Y-40220D01*
X60450Y-36750D02*
X62350Y-34850D01*
X57740Y-39490D02*
X55750Y-37500D01*
X57740Y-41300D02*
X57740Y-39490D01*
X65250Y-40850D02*
X65450Y-40650D01*
X60470Y-39820D02*
X60842Y-40192D01*
X64800Y-41800D02*
X65250Y-41350D01*
X61050Y-41000D02*
X63400Y-41000D01*
X60842Y-40792D02*
X61050Y-41000D01*
X60842Y-40192D02*
X60842Y-40792D01*
X59800Y-39820D02*
X60470Y-39820D01*
X63400Y-41000D02*
X64200Y-41800D01*
X65250Y-41350D02*
X65250Y-40850D01*
X64200Y-41800D02*
X64800Y-41800D01*
X77400Y-45558D02*
X77400Y-45100D01*
X77400Y-45100D02*
X77400Y-44900D01*
X67376Y-43876D02*
X67900Y-44400D01*
X76858Y-46100D02*
X77400Y-45558D01*
X77400Y-44900D02*
X78560Y-43740D01*
X68800Y-46100D02*
X75400Y-46100D01*
X67056Y-43876D02*
X67376Y-43876D01*
X67900Y-45200D02*
X68800Y-46100D01*
X78560Y-43740D02*
X79370Y-43740D01*
X67900Y-44400D02*
X67900Y-45200D01*
X75400Y-46100D02*
X76858Y-46100D01*
X77600Y-45600D02*
X77600Y-45000D01*
X68742Y-46242D02*
X75400Y-46242D01*
X65244Y-44624D02*
X65244Y-45544D01*
X76958Y-46242D02*
X77600Y-45600D01*
X78060Y-44540D02*
X79370Y-44540D01*
X75400Y-46242D02*
X76958Y-46242D01*
X68400Y-45900D02*
X68742Y-46242D01*
X77600Y-45000D02*
X78060Y-44540D01*
X75442Y-46242D02*
X75442Y-46242D01*
X65600Y-45900D02*
X68400Y-45900D01*
X65244Y-45544D02*
X65600Y-45900D01*
X75400Y-46242D02*
X75442Y-46242D01*
X58400Y-42100D02*
X58330Y-42030D01*
X66200Y-45300D02*
X65756Y-44856D01*
X58400Y-42700D02*
X58400Y-42100D01*
X58800Y-43100D02*
X58400Y-42700D01*
X65756Y-44856D02*
X65756Y-44624D01*
X59600Y-44500D02*
X58800Y-43700D01*
X58800Y-43700D02*
X58800Y-43100D01*
X66544Y-43876D02*
X66544Y-43844D01*
X66544Y-43844D02*
X66200Y-43500D01*
X58330Y-42030D02*
X58330Y-41300D01*
X60800Y-44900D02*
X60400Y-44500D01*
X60400Y-44500D02*
X59600Y-44500D01*
X54250Y-42750D02*
X54980Y-42020D01*
X54980Y-42020D02*
X54980Y-41300D01*
X51550Y-42750D02*
X51900Y-42400D01*
X51000Y-45200D02*
X51000Y-45575D01*
X50550Y-42750D02*
X52000Y-42750D01*
X52000Y-42750D02*
X54250Y-42750D01*
X50550Y-42750D02*
X51550Y-42750D01*
X52500Y-43700D02*
X51000Y-45200D01*
X51000Y-45575D02*
X50075Y-46500D01*
X63540Y-39040D02*
X64075Y-39575D01*
X66250Y-39300D02*
X66250Y-37600D01*
X64500Y-39575D02*
X65975Y-39575D01*
X59800Y-39040D02*
X63540Y-39040D01*
X64075Y-39575D02*
X64500Y-39575D01*
X66250Y-37600D02*
X67425Y-36425D01*
X65975Y-39575D02*
X66250Y-39300D01*
X67425Y-36425D02*
X67650Y-36425D01*
X49250Y-42250D02*
X48450Y-42250D01*
X54250Y-43000D02*
X50000Y-43000D01*
X55180Y-42070D02*
X54250Y-43000D01*
X46500Y-43000D02*
X47250Y-42250D01*
X55180Y-41300D02*
X55180Y-42070D01*
X50000Y-43000D02*
X49250Y-42250D01*
X47250Y-42250D02*
X48450Y-42250D01*
X66700Y-37700D02*
X67187Y-37213D01*
X64500Y-40362D02*
X65888Y-40362D01*
X59800Y-38440D02*
X62690Y-38440D01*
X65888Y-40362D02*
X66700Y-39550D01*
X66700Y-39550D02*
X66700Y-37700D01*
X62690Y-38440D02*
X63000Y-38750D01*
X64112Y-40362D02*
X64500Y-40362D01*
X67187Y-37213D02*
X67650Y-37213D01*
X63250Y-39500D02*
X64112Y-40362D01*
X49287Y-45913D02*
X50800Y-44400D01*
X54250Y-43250D02*
X55370Y-42130D01*
X50550Y-43250D02*
X54250Y-43250D01*
X49287Y-46500D02*
X49287Y-45913D01*
X50800Y-43500D02*
X50550Y-43250D01*
X55370Y-42130D02*
X55370Y-41300D01*
X50800Y-44400D02*
X50800Y-43500D01*
X62750Y-38250D02*
X63000Y-38000D01*
X63000Y-38000D02*
X64500Y-38000D01*
X59800Y-38250D02*
X62750Y-38250D01*
X63050Y-43500D02*
X65500Y-43500D01*
X65756Y-43876D02*
X65756Y-43756D01*
X66050Y-44100D02*
X66850Y-44100D01*
X65756Y-43756D02*
X65500Y-43500D01*
X67056Y-44306D02*
X67056Y-44624D01*
X62700Y-42950D02*
X62700Y-43150D01*
X58920Y-41970D02*
X60450Y-43500D01*
X65756Y-43876D02*
X65756Y-43956D01*
X62700Y-43150D02*
X63050Y-43500D01*
X66850Y-44100D02*
X67056Y-44306D01*
X65826Y-43876D02*
X66050Y-44100D01*
X60450Y-43500D02*
X63050Y-43500D01*
X58920Y-41300D02*
X58920Y-41970D01*
X65756Y-43876D02*
X65826Y-43876D01*
X65900Y-44400D02*
X65950Y-44450D01*
X60500Y-43750D02*
X64050Y-43750D01*
X64750Y-43750D02*
X64800Y-43800D01*
X64050Y-43750D02*
X64750Y-43750D01*
X63850Y-44300D02*
X63850Y-43950D01*
X58720Y-41300D02*
X58720Y-41970D01*
X65118Y-43750D02*
X65244Y-43876D01*
X65950Y-44450D02*
X65950Y-44600D01*
X65500Y-44400D02*
X65900Y-44400D01*
X65244Y-43876D02*
X65244Y-44144D01*
X58720Y-41970D02*
X60500Y-43750D01*
X65950Y-44600D02*
X66150Y-44800D01*
X65244Y-44144D02*
X65500Y-44400D01*
X66368Y-44800D02*
X66544Y-44624D01*
X66150Y-44800D02*
X66368Y-44800D01*
X64750Y-43750D02*
X65118Y-43750D01*
X63850Y-43950D02*
X64050Y-43750D01*
X60700Y-40900D02*
X60700Y-40500D01*
X71625Y-43100D02*
X68800Y-43100D01*
X67900Y-42200D02*
X66700Y-42200D01*
X68800Y-43100D02*
X67900Y-42200D01*
X60420Y-40220D02*
X59800Y-40220D01*
X61100Y-42100D02*
X60800Y-41800D01*
X60800Y-41800D02*
X60800Y-41000D01*
X60800Y-41000D02*
X60700Y-40900D01*
X60700Y-40500D02*
X60420Y-40220D01*
X66701Y-42642D02*
X66859Y-42484D01*
X59800Y-40410D02*
X60410Y-40410D01*
X67970Y-42484D02*
X69286Y-43800D01*
X66859Y-42484D02*
X67970Y-42484D01*
X60410Y-40410D02*
X60559Y-40559D01*
X69286Y-43800D02*
X71625Y-43800D01*
X60559Y-40959D02*
X60648Y-41048D01*
X60559Y-40559D02*
X60559Y-40959D01*
X60648Y-41048D02*
X60648Y-42120D01*
X74100Y-44800D02*
X74800Y-45500D01*
X78360Y-42140D02*
X79370Y-42140D01*
X73950Y-43650D02*
X73950Y-44800D01*
X76600Y-44900D02*
X76600Y-43900D01*
X73950Y-43650D02*
X73950Y-44800D01*
X73950Y-44800D02*
X74100Y-44800D01*
X76000Y-45500D02*
X76600Y-44900D01*
X76600Y-43900D02*
X78360Y-42140D01*
X72375Y-43100D02*
X73400Y-43100D01*
X74800Y-45500D02*
X76000Y-45500D01*
X73400Y-43100D02*
X73950Y-43650D01*
X76800Y-44900D02*
X76800Y-43900D01*
X76000Y-45700D02*
X76800Y-44900D01*
X72850Y-45200D02*
X73300Y-45200D01*
X77800Y-42900D02*
X79330Y-42900D01*
X76800Y-43900D02*
X77800Y-42900D01*
X79330Y-42900D02*
X79370Y-42940D01*
X73300Y-45200D02*
X73800Y-45700D01*
X73000Y-44000D02*
X73000Y-45050D01*
X73800Y-45700D02*
X76000Y-45700D01*
X73000Y-45050D02*
X72850Y-45200D01*
X72375Y-43800D02*
X72800Y-43800D01*
X72800Y-43800D02*
X73000Y-44000D01*
X55960Y-35200D02*
X55960Y-34210D01*
X58475Y-40400D02*
X58500Y-40425D01*
X65500Y-44624D02*
X65500Y-45200D01*
X52150Y-35850D02*
X52300Y-35700D01*
X52300Y-34800D02*
X52900Y-34200D01*
X56800Y-40325D02*
X56800Y-40250D01*
X52800Y-38300D02*
X52300Y-38800D01*
X75250Y-44450D02*
X74700Y-43900D01*
X53700Y-38060D02*
X52810Y-38060D01*
X68500Y-32500D02*
X69150Y-32500D01*
X56550Y-40575D02*
X56800Y-40325D01*
X59275Y-41725D02*
X59500Y-41725D01*
X51100Y-41750D02*
X50550Y-41750D01*
X52810Y-38060D02*
X52800Y-38050D01*
X56050Y-43000D02*
X56050Y-41850D01*
X49950Y-34850D02*
X49600Y-35200D01*
X59500Y-41725D02*
X59575Y-41650D01*
X61825Y-42575D02*
X60400Y-42575D01*
X72275Y-44425D02*
X71775Y-44425D01*
X58500Y-40625D02*
X58550Y-40675D01*
X55960Y-34210D02*
X55900Y-34150D01*
X61650Y-32300D02*
X62250Y-32900D01*
X72300Y-44400D02*
X72275Y-44425D01*
X59110Y-41560D02*
X59275Y-41725D01*
X59110Y-41300D02*
X59110Y-41560D01*
X62320Y-39630D02*
X62575Y-39885D01*
X55100Y-43300D02*
X55750Y-43300D01*
X52800Y-38050D02*
X52800Y-38300D01*
X60400Y-42575D02*
X60325Y-42500D01*
X53700Y-36480D02*
X53700Y-36680D01*
X52300Y-35700D02*
X52300Y-34800D01*
X53450Y-33800D02*
X56400Y-33800D01*
X51575Y-35850D02*
X51575Y-36350D01*
X53850Y-31850D02*
X58300Y-31850D01*
X51575Y-35850D02*
X52150Y-35850D01*
X65500Y-45200D02*
X65800Y-45500D01*
X53400Y-33750D02*
X53450Y-33800D01*
X62575Y-40250D02*
X62950Y-40250D01*
X52900Y-34200D02*
X52900Y-33800D01*
X62950Y-40250D02*
X63200Y-40500D01*
X52225Y-37000D02*
X53025Y-37000D01*
X53650Y-32050D02*
X53850Y-31850D01*
X56800Y-40250D02*
X56700Y-40150D01*
X50550Y-42250D02*
X51100Y-42250D01*
X69150Y-32500D02*
X69450Y-32200D01*
X62575Y-39885D02*
X62575Y-40250D01*
X70750Y-40150D02*
X71000Y-39900D01*
X56625Y-40150D02*
X56560Y-40215D01*
X55050Y-43250D02*
X55100Y-43300D01*
X75250Y-44800D02*
X75250Y-44450D01*
X59800Y-39630D02*
X62320Y-39630D01*
X53025Y-37000D02*
X53345Y-36680D01*
X59735Y-40675D02*
X59800Y-40610D01*
X58300Y-31850D02*
X58500Y-32050D01*
X56560Y-40215D02*
X56560Y-41300D01*
X61800Y-42575D02*
X61825Y-42575D01*
X61825Y-42575D02*
X62000Y-42400D01*
X56700Y-40150D02*
X56625Y-40150D01*
X59575Y-41650D02*
X60200Y-41650D01*
X58440Y-38640D02*
X59800Y-38640D01*
X58440Y-38640D02*
X58300Y-38500D01*
X50250Y-34850D02*
X49950Y-34850D01*
X47850Y-42750D02*
X47700Y-42600D01*
X56160Y-35640D02*
X56160Y-35200D01*
X61650Y-32250D02*
X61650Y-32300D01*
X56150Y-35650D02*
X56160Y-35640D01*
X55900Y-34150D02*
X55200Y-34150D01*
X71550Y-44650D02*
X71775Y-44425D01*
X61800Y-42575D02*
X60725Y-42575D01*
X66800Y-43500D02*
X66600Y-43300D01*
X47713Y-45213D02*
X47500Y-45000D01*
X60325Y-41775D02*
X60200Y-41650D01*
X47713Y-46500D02*
X47713Y-45213D01*
X71775Y-44425D02*
X71800Y-44400D01*
X70750Y-40750D02*
X70750Y-40150D01*
X60325Y-42500D02*
X60325Y-41775D01*
X55960Y-41760D02*
X55960Y-41300D01*
X58500Y-40425D02*
X58500Y-40625D01*
X58500Y-32050D02*
X58500Y-32700D01*
X47850Y-42750D02*
X48450Y-42750D01*
X58550Y-40675D02*
X59735Y-40675D01*
X66800Y-43876D02*
X66800Y-43500D01*
X53500Y-32050D02*
X53650Y-32050D01*
X60725Y-42575D02*
X60400Y-42900D01*
X53345Y-36680D02*
X53700Y-36680D01*
X51100Y-42250D02*
X51350Y-42000D01*
X56050Y-41850D02*
X55960Y-41760D01*
X74700Y-43900D02*
X74350Y-43900D01*
X51100Y-41750D02*
X51350Y-42000D01*
X51575Y-36350D02*
X52225Y-37000D01*
X71550Y-45200D02*
X71550Y-44650D01*
X55750Y-43300D02*
X56050Y-43000D01*
G54D10*
G36*
X60100Y-46700D02*
X59800Y-46700D01*
X59800Y-45862D01*
X59738Y-45800D01*
X59425Y-45800D01*
X59425Y-46213D01*
X59487Y-46275D01*
X59599Y-46274D01*
X59691Y-46236D01*
X59761Y-46166D01*
X59799Y-46075D01*
X59799Y-45976D01*
X59800Y-45862D01*
X59800Y-46700D01*
X59050Y-46700D01*
X55950Y-46700D01*
X54575Y-46700D01*
X54575Y-46213D01*
X54575Y-45800D01*
X54575Y-45700D01*
X54575Y-45287D01*
X54513Y-45225D01*
X54401Y-45226D01*
X54309Y-45264D01*
X54239Y-45334D01*
X54201Y-45425D01*
X54201Y-45524D01*
X54200Y-45638D01*
X54262Y-45700D01*
X54575Y-45700D01*
X54575Y-45800D01*
X54262Y-45800D01*
X54200Y-45862D01*
X54201Y-45976D01*
X54201Y-46075D01*
X54239Y-46166D01*
X54309Y-46236D01*
X54401Y-46274D01*
X54513Y-46275D01*
X54575Y-46213D01*
X54575Y-46700D01*
X53800Y-46700D01*
X53800Y-45530D01*
X55250Y-44730D01*
X55250Y-43730D01*
X55516Y-43590D01*
X55515Y-43600D01*
X55537Y-43709D01*
X55543Y-43719D01*
X55350Y-43820D01*
X55350Y-44827D01*
X55000Y-45127D01*
X55000Y-45323D01*
X54941Y-45264D01*
X54849Y-45226D01*
X54737Y-45225D01*
X54675Y-45287D01*
X54675Y-45650D01*
X54675Y-45700D01*
X54675Y-45800D01*
X54675Y-45850D01*
X54675Y-46213D01*
X54737Y-46275D01*
X54849Y-46274D01*
X54941Y-46236D01*
X55000Y-46177D01*
X55000Y-46200D01*
X55023Y-46200D01*
X55059Y-46236D01*
X55150Y-46274D01*
X55249Y-46274D01*
X55599Y-46274D01*
X55691Y-46236D01*
X55727Y-46200D01*
X55785Y-46200D01*
X55807Y-46215D01*
X55839Y-46291D01*
X55909Y-46361D01*
X56000Y-46399D01*
X56099Y-46399D01*
X56699Y-46399D01*
X56791Y-46361D01*
X56852Y-46300D01*
X57148Y-46300D01*
X57209Y-46361D01*
X57300Y-46399D01*
X57399Y-46399D01*
X57999Y-46399D01*
X58091Y-46361D01*
X58161Y-46291D01*
X58186Y-46229D01*
X58260Y-46200D01*
X58273Y-46200D01*
X58309Y-46236D01*
X58400Y-46274D01*
X58499Y-46274D01*
X58849Y-46274D01*
X58941Y-46236D01*
X58977Y-46200D01*
X59023Y-46200D01*
X59050Y-46227D01*
X59059Y-46236D01*
X59151Y-46274D01*
X59263Y-46275D01*
X59325Y-46213D01*
X59325Y-45850D01*
X59325Y-45800D01*
X59325Y-45700D01*
X59325Y-45650D01*
X59325Y-45287D01*
X59263Y-45225D01*
X59151Y-45226D01*
X59059Y-45264D01*
X59048Y-45274D01*
X58500Y-44875D01*
X58500Y-43919D01*
X58454Y-43896D01*
X58451Y-43887D01*
X58381Y-43817D01*
X58290Y-43779D01*
X58220Y-43779D01*
X57235Y-43286D01*
X57235Y-42143D01*
X57256Y-42164D01*
X57300Y-42182D01*
X57300Y-43130D01*
X58540Y-43814D01*
X58598Y-43902D01*
X58750Y-44053D01*
X58750Y-44728D01*
X59590Y-45225D01*
X59487Y-45225D01*
X59425Y-45287D01*
X59425Y-45700D01*
X59738Y-45700D01*
X59800Y-45638D01*
X59799Y-45524D01*
X59799Y-45425D01*
X59761Y-45334D01*
X59744Y-45317D01*
X60100Y-45528D01*
X60100Y-46700D01*
X60100Y-46700D01*
G37*
G54D38*
X60100Y-46700D02*
X59800Y-46700D01*
X59800Y-45862D01*
X59738Y-45800D01*
X59425Y-45800D01*
X59425Y-46213D01*
X59487Y-46275D01*
X59599Y-46274D01*
X59691Y-46236D01*
X59761Y-46166D01*
X59799Y-46075D01*
X59799Y-45976D01*
X59800Y-45862D01*
X59800Y-46700D01*
X59050Y-46700D01*
X55950Y-46700D01*
X54575Y-46700D01*
X54575Y-46213D01*
X54575Y-45800D01*
X54575Y-45700D01*
X54575Y-45287D01*
X54513Y-45225D01*
X54401Y-45226D01*
X54309Y-45264D01*
X54239Y-45334D01*
X54201Y-45425D01*
X54201Y-45524D01*
X54200Y-45638D01*
X54262Y-45700D01*
X54575Y-45700D01*
X54575Y-45800D01*
X54262Y-45800D01*
X54200Y-45862D01*
X54201Y-45976D01*
X54201Y-46075D01*
X54239Y-46166D01*
X54309Y-46236D01*
X54401Y-46274D01*
X54513Y-46275D01*
X54575Y-46213D01*
X54575Y-46700D01*
X53800Y-46700D01*
X53800Y-45530D01*
X55250Y-44730D01*
X55250Y-43730D01*
X55516Y-43590D01*
X55515Y-43600D01*
X55537Y-43709D01*
X55543Y-43719D01*
X55350Y-43820D01*
X55350Y-44827D01*
X55000Y-45127D01*
X55000Y-45323D01*
X54941Y-45264D01*
X54849Y-45226D01*
X54737Y-45225D01*
X54675Y-45287D01*
X54675Y-45650D01*
X54675Y-45700D01*
X54675Y-45800D01*
X54675Y-45850D01*
X54675Y-46213D01*
X54737Y-46275D01*
X54849Y-46274D01*
X54941Y-46236D01*
X55000Y-46177D01*
X55000Y-46200D01*
X55023Y-46200D01*
X55059Y-46236D01*
X55150Y-46274D01*
X55249Y-46274D01*
X55599Y-46274D01*
X55691Y-46236D01*
X55727Y-46200D01*
X55785Y-46200D01*
X55807Y-46215D01*
X55839Y-46291D01*
X55909Y-46361D01*
X56000Y-46399D01*
X56099Y-46399D01*
X56699Y-46399D01*
X56791Y-46361D01*
X56852Y-46300D01*
X57148Y-46300D01*
X57209Y-46361D01*
X57300Y-46399D01*
X57399Y-46399D01*
X57999Y-46399D01*
X58091Y-46361D01*
X58161Y-46291D01*
X58186Y-46229D01*
X58260Y-46200D01*
X58273Y-46200D01*
X58309Y-46236D01*
X58400Y-46274D01*
X58499Y-46274D01*
X58849Y-46274D01*
X58941Y-46236D01*
X58977Y-46200D01*
X59023Y-46200D01*
X59050Y-46227D01*
X59059Y-46236D01*
X59151Y-46274D01*
X59263Y-46275D01*
X59325Y-46213D01*
X59325Y-45850D01*
X59325Y-45800D01*
X59325Y-45700D01*
X59325Y-45650D01*
X59325Y-45287D01*
X59263Y-45225D01*
X59151Y-45226D01*
X59059Y-45264D01*
X59048Y-45274D01*
X58500Y-44875D01*
X58500Y-43919D01*
X58454Y-43896D01*
X58451Y-43887D01*
X58381Y-43817D01*
X58290Y-43779D01*
X58220Y-43779D01*
X57235Y-43286D01*
X57235Y-42143D01*
X57256Y-42164D01*
X57300Y-42182D01*
X57300Y-43130D01*
X58540Y-43814D01*
X58598Y-43902D01*
X58750Y-44053D01*
X58750Y-44728D01*
X59590Y-45225D01*
X59487Y-45225D01*
X59425Y-45287D01*
X59425Y-45700D01*
X59738Y-45700D01*
X59800Y-45638D01*
X59799Y-45524D01*
X59799Y-45425D01*
X59761Y-45334D01*
X59744Y-45317D01*
X60100Y-45528D01*
X60100Y-46700D01*
M02*
