G04 (created by PCBNEW (2012-01-19 BZR 3256)-stable) date 10/27/2012 11:37:31 AM*
G01*
G70*
G90*
%MOIN*%
G04 Gerber Fmt 3.4, Leading zero omitted, Abs format*
%FSLAX34Y34*%
G04 APERTURE LIST*
%ADD10C,0.001000*%
%ADD11C,0.015000*%
%ADD12C,0.008000*%
G04 APERTURE END LIST*
G54D10*
G54D11*
X30600Y-47700D02*
X30600Y-30500D01*
X87100Y-47600D02*
X30600Y-47600D01*
X87100Y-30500D02*
X87100Y-47700D01*
X30700Y-30500D02*
X87100Y-30500D01*
G54D10*
X75687Y-39973D02*
X76041Y-40327D01*
X76041Y-39973D02*
X75687Y-40327D01*
X73836Y-40150D02*
X73831Y-40195D01*
X73818Y-40239D01*
X73796Y-40280D01*
X73767Y-40316D01*
X73731Y-40345D01*
X73691Y-40367D01*
X73647Y-40381D01*
X73601Y-40385D01*
X73556Y-40381D01*
X73512Y-40368D01*
X73471Y-40347D01*
X73435Y-40318D01*
X73406Y-40283D01*
X73384Y-40242D01*
X73370Y-40199D01*
X73365Y-40153D01*
X73368Y-40108D01*
X73381Y-40064D01*
X73402Y-40023D01*
X73431Y-39987D01*
X73466Y-39957D01*
X73506Y-39934D01*
X73550Y-39920D01*
X73596Y-39915D01*
X73640Y-39918D01*
X73685Y-39930D01*
X73726Y-39951D01*
X73762Y-39980D01*
X73792Y-40014D01*
X73815Y-40055D01*
X73830Y-40098D01*
X73835Y-40144D01*
X73836Y-40150D01*
X85020Y-39855D02*
X85020Y-40475D01*
X85330Y-40165D02*
X84710Y-40165D01*
X85020Y-46205D02*
X85020Y-46825D01*
X85330Y-46515D02*
X84710Y-46515D01*
X84410Y-40840D02*
X84397Y-40964D01*
X84361Y-41083D01*
X84303Y-41194D01*
X84224Y-41290D01*
X84127Y-41370D01*
X84018Y-41429D01*
X83898Y-41466D01*
X83774Y-41479D01*
X83651Y-41468D01*
X83531Y-41433D01*
X83420Y-41375D01*
X83323Y-41297D01*
X83242Y-41201D01*
X83182Y-41092D01*
X83144Y-40973D01*
X83131Y-40848D01*
X83141Y-40725D01*
X83175Y-40605D01*
X83233Y-40494D01*
X83310Y-40396D01*
X83405Y-40315D01*
X83514Y-40254D01*
X83633Y-40215D01*
X83757Y-40201D01*
X83881Y-40210D01*
X84001Y-40244D01*
X84112Y-40300D01*
X84211Y-40377D01*
X84292Y-40472D01*
X84354Y-40580D01*
X84394Y-40699D01*
X84409Y-40823D01*
X84410Y-40840D01*
X83130Y-40200D02*
X84410Y-41480D01*
X84410Y-40200D02*
X83130Y-41480D01*
X84410Y-45840D02*
X84397Y-45964D01*
X84361Y-46083D01*
X84303Y-46194D01*
X84224Y-46290D01*
X84127Y-46370D01*
X84018Y-46429D01*
X83898Y-46466D01*
X83774Y-46479D01*
X83651Y-46468D01*
X83531Y-46433D01*
X83420Y-46375D01*
X83323Y-46297D01*
X83242Y-46201D01*
X83182Y-46092D01*
X83144Y-45973D01*
X83131Y-45848D01*
X83141Y-45725D01*
X83175Y-45605D01*
X83233Y-45494D01*
X83310Y-45396D01*
X83405Y-45315D01*
X83514Y-45254D01*
X83633Y-45215D01*
X83757Y-45201D01*
X83881Y-45210D01*
X84001Y-45244D01*
X84112Y-45300D01*
X84211Y-45377D01*
X84292Y-45472D01*
X84354Y-45580D01*
X84394Y-45699D01*
X84409Y-45823D01*
X84410Y-45840D01*
X83130Y-45200D02*
X84410Y-46480D01*
X84410Y-45200D02*
X83130Y-46480D01*
G54D12*
X29500Y-49801D02*
X29500Y-49001D01*
X29691Y-49001D01*
X29805Y-49039D01*
X29881Y-49115D01*
X29920Y-49191D01*
X29958Y-49344D01*
X29958Y-49458D01*
X29920Y-49610D01*
X29881Y-49687D01*
X29805Y-49763D01*
X29691Y-49801D01*
X29500Y-49801D01*
X30300Y-49801D02*
X30300Y-49267D01*
X30300Y-49420D02*
X30339Y-49344D01*
X30377Y-49306D01*
X30453Y-49267D01*
X30529Y-49267D01*
X30795Y-49801D02*
X30795Y-49267D01*
X30795Y-49001D02*
X30757Y-49039D01*
X30795Y-49077D01*
X30834Y-49039D01*
X30795Y-49001D01*
X30795Y-49077D01*
X31291Y-49801D02*
X31215Y-49763D01*
X31176Y-49687D01*
X31176Y-49001D01*
X31710Y-49801D02*
X31634Y-49763D01*
X31595Y-49687D01*
X31595Y-49001D01*
X32624Y-49801D02*
X32624Y-49001D01*
X32891Y-49572D01*
X33158Y-49001D01*
X33158Y-49801D01*
X33881Y-49801D02*
X33881Y-49382D01*
X33843Y-49306D01*
X33767Y-49267D01*
X33615Y-49267D01*
X33538Y-49306D01*
X33881Y-49763D02*
X33805Y-49801D01*
X33615Y-49801D01*
X33538Y-49763D01*
X33500Y-49687D01*
X33500Y-49610D01*
X33538Y-49534D01*
X33615Y-49496D01*
X33805Y-49496D01*
X33881Y-49458D01*
X34262Y-49267D02*
X34262Y-50067D01*
X34262Y-49306D02*
X34339Y-49267D01*
X34491Y-49267D01*
X34567Y-49306D01*
X34605Y-49344D01*
X34643Y-49420D01*
X34643Y-49648D01*
X34605Y-49725D01*
X34567Y-49763D01*
X34491Y-49801D01*
X34339Y-49801D01*
X34262Y-49763D01*
X34986Y-49725D02*
X35025Y-49763D01*
X34986Y-49801D01*
X34948Y-49763D01*
X34986Y-49725D01*
X34986Y-49801D01*
X34986Y-49306D02*
X35025Y-49344D01*
X34986Y-49382D01*
X34948Y-49344D01*
X34986Y-49306D01*
X34986Y-49382D01*
X28756Y-50980D02*
X29110Y-51334D01*
X29110Y-50980D02*
X28756Y-51334D01*
X29653Y-50681D02*
X29729Y-50681D01*
X29805Y-50719D01*
X29843Y-50757D01*
X29881Y-50833D01*
X29920Y-50986D01*
X29920Y-51176D01*
X29881Y-51328D01*
X29843Y-51405D01*
X29805Y-51443D01*
X29729Y-51481D01*
X29653Y-51481D01*
X29577Y-51443D01*
X29539Y-51405D01*
X29500Y-51328D01*
X29462Y-51176D01*
X29462Y-50986D01*
X29500Y-50833D01*
X29539Y-50757D01*
X29577Y-50719D01*
X29653Y-50681D01*
X30262Y-51405D02*
X30301Y-51443D01*
X30262Y-51481D01*
X30224Y-51443D01*
X30262Y-51405D01*
X30262Y-51481D01*
X30682Y-51481D02*
X30834Y-51481D01*
X30910Y-51443D01*
X30948Y-51405D01*
X31024Y-51290D01*
X31063Y-51138D01*
X31063Y-50833D01*
X31024Y-50757D01*
X30986Y-50719D01*
X30910Y-50681D01*
X30758Y-50681D01*
X30682Y-50719D01*
X30643Y-50757D01*
X30605Y-50833D01*
X30605Y-51024D01*
X30643Y-51100D01*
X30682Y-51138D01*
X30758Y-51176D01*
X30910Y-51176D01*
X30986Y-51138D01*
X31024Y-51100D01*
X31063Y-51024D01*
X31558Y-50681D02*
X31634Y-50681D01*
X31710Y-50719D01*
X31748Y-50757D01*
X31786Y-50833D01*
X31825Y-50986D01*
X31825Y-51176D01*
X31786Y-51328D01*
X31748Y-51405D01*
X31710Y-51443D01*
X31634Y-51481D01*
X31558Y-51481D01*
X31482Y-51443D01*
X31444Y-51405D01*
X31405Y-51328D01*
X31367Y-51176D01*
X31367Y-50986D01*
X31405Y-50833D01*
X31444Y-50757D01*
X31482Y-50719D01*
X31558Y-50681D01*
X32167Y-51481D02*
X32167Y-50947D01*
X32167Y-51024D02*
X32206Y-50986D01*
X32282Y-50947D01*
X32396Y-50947D01*
X32472Y-50986D01*
X32510Y-51062D01*
X32510Y-51481D01*
X32510Y-51062D02*
X32548Y-50986D01*
X32625Y-50947D01*
X32739Y-50947D01*
X32815Y-50986D01*
X32853Y-51062D01*
X32853Y-51481D01*
X33234Y-51481D02*
X33234Y-50947D01*
X33234Y-51024D02*
X33273Y-50986D01*
X33349Y-50947D01*
X33463Y-50947D01*
X33539Y-50986D01*
X33577Y-51062D01*
X33577Y-51481D01*
X33577Y-51062D02*
X33615Y-50986D01*
X33692Y-50947D01*
X33806Y-50947D01*
X33882Y-50986D01*
X33920Y-51062D01*
X33920Y-51481D01*
X35483Y-50643D02*
X34797Y-51671D01*
X36512Y-50681D02*
X36588Y-50681D01*
X36664Y-50719D01*
X36702Y-50757D01*
X36740Y-50833D01*
X36779Y-50986D01*
X36779Y-51176D01*
X36740Y-51328D01*
X36702Y-51405D01*
X36664Y-51443D01*
X36588Y-51481D01*
X36512Y-51481D01*
X36436Y-51443D01*
X36398Y-51405D01*
X36359Y-51328D01*
X36321Y-51176D01*
X36321Y-50986D01*
X36359Y-50833D01*
X36398Y-50757D01*
X36436Y-50719D01*
X36512Y-50681D01*
X37121Y-51405D02*
X37160Y-51443D01*
X37121Y-51481D01*
X37083Y-51443D01*
X37121Y-51405D01*
X37121Y-51481D01*
X37655Y-50681D02*
X37731Y-50681D01*
X37807Y-50719D01*
X37845Y-50757D01*
X37883Y-50833D01*
X37922Y-50986D01*
X37922Y-51176D01*
X37883Y-51328D01*
X37845Y-51405D01*
X37807Y-51443D01*
X37731Y-51481D01*
X37655Y-51481D01*
X37579Y-51443D01*
X37541Y-51405D01*
X37502Y-51328D01*
X37464Y-51176D01*
X37464Y-50986D01*
X37502Y-50833D01*
X37541Y-50757D01*
X37579Y-50719D01*
X37655Y-50681D01*
X38188Y-50681D02*
X38684Y-50681D01*
X38417Y-50986D01*
X38531Y-50986D01*
X38607Y-51024D01*
X38645Y-51062D01*
X38684Y-51138D01*
X38684Y-51328D01*
X38645Y-51405D01*
X38607Y-51443D01*
X38531Y-51481D01*
X38303Y-51481D01*
X38226Y-51443D01*
X38188Y-51405D01*
X39407Y-50681D02*
X39026Y-50681D01*
X38988Y-51062D01*
X39026Y-51024D01*
X39103Y-50986D01*
X39293Y-50986D01*
X39369Y-51024D01*
X39407Y-51062D01*
X39446Y-51138D01*
X39446Y-51328D01*
X39407Y-51405D01*
X39369Y-51443D01*
X39293Y-51481D01*
X39103Y-51481D01*
X39026Y-51443D01*
X38988Y-51405D01*
X39750Y-50681D02*
X39750Y-50833D01*
X40055Y-50681D02*
X40055Y-50833D01*
X41237Y-51786D02*
X41199Y-51747D01*
X41123Y-51633D01*
X41085Y-51557D01*
X41047Y-51443D01*
X41008Y-51252D01*
X41008Y-51100D01*
X41047Y-50909D01*
X41085Y-50795D01*
X41123Y-50719D01*
X41199Y-50605D01*
X41237Y-50567D01*
X41961Y-51481D02*
X41503Y-51481D01*
X41732Y-51481D02*
X41732Y-50681D01*
X41656Y-50795D01*
X41580Y-50871D01*
X41503Y-50909D01*
X42913Y-51481D02*
X42913Y-50681D01*
X43256Y-51481D02*
X43256Y-51062D01*
X43218Y-50986D01*
X43142Y-50947D01*
X43028Y-50947D01*
X42952Y-50986D01*
X42913Y-51024D01*
X43752Y-51481D02*
X43676Y-51443D01*
X43637Y-51405D01*
X43599Y-51328D01*
X43599Y-51100D01*
X43637Y-51024D01*
X43676Y-50986D01*
X43752Y-50947D01*
X43866Y-50947D01*
X43942Y-50986D01*
X43980Y-51024D01*
X44018Y-51100D01*
X44018Y-51328D01*
X43980Y-51405D01*
X43942Y-51443D01*
X43866Y-51481D01*
X43752Y-51481D01*
X44476Y-51481D02*
X44400Y-51443D01*
X44361Y-51367D01*
X44361Y-50681D01*
X45085Y-51443D02*
X45009Y-51481D01*
X44857Y-51481D01*
X44780Y-51443D01*
X44742Y-51367D01*
X44742Y-51062D01*
X44780Y-50986D01*
X44857Y-50947D01*
X45009Y-50947D01*
X45085Y-50986D01*
X45123Y-51062D01*
X45123Y-51138D01*
X44742Y-51214D01*
X45390Y-51786D02*
X45428Y-51747D01*
X45505Y-51633D01*
X45543Y-51557D01*
X45581Y-51443D01*
X45619Y-51252D01*
X45619Y-51100D01*
X45581Y-50909D01*
X45543Y-50795D01*
X45505Y-50719D01*
X45428Y-50605D01*
X45390Y-50567D01*
G54D10*
X29110Y-52212D02*
X29105Y-52257D01*
X29092Y-52301D01*
X29070Y-52342D01*
X29041Y-52378D01*
X29005Y-52407D01*
X28965Y-52429D01*
X28921Y-52443D01*
X28875Y-52447D01*
X28830Y-52443D01*
X28786Y-52430D01*
X28745Y-52409D01*
X28709Y-52380D01*
X28680Y-52345D01*
X28658Y-52304D01*
X28644Y-52261D01*
X28639Y-52215D01*
X28642Y-52170D01*
X28655Y-52126D01*
X28676Y-52085D01*
X28705Y-52049D01*
X28740Y-52019D01*
X28780Y-51996D01*
X28824Y-51982D01*
X28870Y-51977D01*
X28914Y-51980D01*
X28959Y-51992D01*
X29000Y-52013D01*
X29036Y-52042D01*
X29066Y-52076D01*
X29089Y-52117D01*
X29104Y-52160D01*
X29109Y-52206D01*
X29110Y-52212D01*
G54D12*
X29920Y-52536D02*
X29462Y-52536D01*
X29691Y-52536D02*
X29691Y-51736D01*
X29615Y-51850D01*
X29539Y-51926D01*
X29462Y-51964D01*
X30262Y-52460D02*
X30301Y-52498D01*
X30262Y-52536D01*
X30224Y-52498D01*
X30262Y-52460D01*
X30262Y-52536D01*
X30605Y-51812D02*
X30643Y-51774D01*
X30720Y-51736D01*
X30910Y-51736D01*
X30986Y-51774D01*
X31024Y-51812D01*
X31063Y-51888D01*
X31063Y-51964D01*
X31024Y-52079D01*
X30567Y-52536D01*
X31063Y-52536D01*
X31558Y-51736D02*
X31634Y-51736D01*
X31710Y-51774D01*
X31748Y-51812D01*
X31786Y-51888D01*
X31825Y-52041D01*
X31825Y-52231D01*
X31786Y-52383D01*
X31748Y-52460D01*
X31710Y-52498D01*
X31634Y-52536D01*
X31558Y-52536D01*
X31482Y-52498D01*
X31444Y-52460D01*
X31405Y-52383D01*
X31367Y-52231D01*
X31367Y-52041D01*
X31405Y-51888D01*
X31444Y-51812D01*
X31482Y-51774D01*
X31558Y-51736D01*
X32167Y-52536D02*
X32167Y-52002D01*
X32167Y-52079D02*
X32206Y-52041D01*
X32282Y-52002D01*
X32396Y-52002D01*
X32472Y-52041D01*
X32510Y-52117D01*
X32510Y-52536D01*
X32510Y-52117D02*
X32548Y-52041D01*
X32625Y-52002D01*
X32739Y-52002D01*
X32815Y-52041D01*
X32853Y-52117D01*
X32853Y-52536D01*
X33234Y-52536D02*
X33234Y-52002D01*
X33234Y-52079D02*
X33273Y-52041D01*
X33349Y-52002D01*
X33463Y-52002D01*
X33539Y-52041D01*
X33577Y-52117D01*
X33577Y-52536D01*
X33577Y-52117D02*
X33615Y-52041D01*
X33692Y-52002D01*
X33806Y-52002D01*
X33882Y-52041D01*
X33920Y-52117D01*
X33920Y-52536D01*
X35483Y-51698D02*
X34797Y-52726D01*
X36512Y-51736D02*
X36588Y-51736D01*
X36664Y-51774D01*
X36702Y-51812D01*
X36740Y-51888D01*
X36779Y-52041D01*
X36779Y-52231D01*
X36740Y-52383D01*
X36702Y-52460D01*
X36664Y-52498D01*
X36588Y-52536D01*
X36512Y-52536D01*
X36436Y-52498D01*
X36398Y-52460D01*
X36359Y-52383D01*
X36321Y-52231D01*
X36321Y-52041D01*
X36359Y-51888D01*
X36398Y-51812D01*
X36436Y-51774D01*
X36512Y-51736D01*
X37121Y-52460D02*
X37160Y-52498D01*
X37121Y-52536D01*
X37083Y-52498D01*
X37121Y-52460D01*
X37121Y-52536D01*
X37655Y-51736D02*
X37731Y-51736D01*
X37807Y-51774D01*
X37845Y-51812D01*
X37883Y-51888D01*
X37922Y-52041D01*
X37922Y-52231D01*
X37883Y-52383D01*
X37845Y-52460D01*
X37807Y-52498D01*
X37731Y-52536D01*
X37655Y-52536D01*
X37579Y-52498D01*
X37541Y-52460D01*
X37502Y-52383D01*
X37464Y-52231D01*
X37464Y-52041D01*
X37502Y-51888D01*
X37541Y-51812D01*
X37579Y-51774D01*
X37655Y-51736D01*
X38607Y-52002D02*
X38607Y-52536D01*
X38417Y-51698D02*
X38226Y-52269D01*
X38722Y-52269D01*
X38950Y-51736D02*
X39484Y-51736D01*
X39141Y-52536D01*
X39750Y-51736D02*
X39750Y-51888D01*
X40055Y-51736D02*
X40055Y-51888D01*
X41237Y-52841D02*
X41199Y-52802D01*
X41123Y-52688D01*
X41085Y-52612D01*
X41047Y-52498D01*
X41008Y-52307D01*
X41008Y-52155D01*
X41047Y-51964D01*
X41085Y-51850D01*
X41123Y-51774D01*
X41199Y-51660D01*
X41237Y-51622D01*
X41961Y-52536D02*
X41503Y-52536D01*
X41732Y-52536D02*
X41732Y-51736D01*
X41656Y-51850D01*
X41580Y-51926D01*
X41503Y-51964D01*
X42913Y-52536D02*
X42913Y-51736D01*
X43256Y-52536D02*
X43256Y-52117D01*
X43218Y-52041D01*
X43142Y-52002D01*
X43028Y-52002D01*
X42952Y-52041D01*
X42913Y-52079D01*
X43752Y-52536D02*
X43676Y-52498D01*
X43637Y-52460D01*
X43599Y-52383D01*
X43599Y-52155D01*
X43637Y-52079D01*
X43676Y-52041D01*
X43752Y-52002D01*
X43866Y-52002D01*
X43942Y-52041D01*
X43980Y-52079D01*
X44018Y-52155D01*
X44018Y-52383D01*
X43980Y-52460D01*
X43942Y-52498D01*
X43866Y-52536D01*
X43752Y-52536D01*
X44476Y-52536D02*
X44400Y-52498D01*
X44361Y-52422D01*
X44361Y-51736D01*
X45085Y-52498D02*
X45009Y-52536D01*
X44857Y-52536D01*
X44780Y-52498D01*
X44742Y-52422D01*
X44742Y-52117D01*
X44780Y-52041D01*
X44857Y-52002D01*
X45009Y-52002D01*
X45085Y-52041D01*
X45123Y-52117D01*
X45123Y-52193D01*
X44742Y-52269D01*
X45390Y-52841D02*
X45428Y-52802D01*
X45505Y-52688D01*
X45543Y-52612D01*
X45581Y-52498D01*
X45619Y-52307D01*
X45619Y-52155D01*
X45581Y-51964D01*
X45543Y-51850D01*
X45505Y-51774D01*
X45428Y-51660D01*
X45390Y-51622D01*
X28800Y-52957D02*
X28800Y-53577D01*
X29110Y-53267D02*
X28490Y-53267D01*
X29920Y-53591D02*
X29462Y-53591D01*
X29691Y-53591D02*
X29691Y-52791D01*
X29615Y-52905D01*
X29539Y-52981D01*
X29462Y-53019D01*
X30262Y-53515D02*
X30301Y-53553D01*
X30262Y-53591D01*
X30224Y-53553D01*
X30262Y-53515D01*
X30262Y-53591D01*
X31024Y-52791D02*
X30643Y-52791D01*
X30605Y-53172D01*
X30643Y-53134D01*
X30720Y-53096D01*
X30910Y-53096D01*
X30986Y-53134D01*
X31024Y-53172D01*
X31063Y-53248D01*
X31063Y-53438D01*
X31024Y-53515D01*
X30986Y-53553D01*
X30910Y-53591D01*
X30720Y-53591D01*
X30643Y-53553D01*
X30605Y-53515D01*
X31329Y-52791D02*
X31863Y-52791D01*
X31520Y-53591D01*
X32167Y-53591D02*
X32167Y-53057D01*
X32167Y-53134D02*
X32206Y-53096D01*
X32282Y-53057D01*
X32396Y-53057D01*
X32472Y-53096D01*
X32510Y-53172D01*
X32510Y-53591D01*
X32510Y-53172D02*
X32548Y-53096D01*
X32625Y-53057D01*
X32739Y-53057D01*
X32815Y-53096D01*
X32853Y-53172D01*
X32853Y-53591D01*
X33234Y-53591D02*
X33234Y-53057D01*
X33234Y-53134D02*
X33273Y-53096D01*
X33349Y-53057D01*
X33463Y-53057D01*
X33539Y-53096D01*
X33577Y-53172D01*
X33577Y-53591D01*
X33577Y-53172D02*
X33615Y-53096D01*
X33692Y-53057D01*
X33806Y-53057D01*
X33882Y-53096D01*
X33920Y-53172D01*
X33920Y-53591D01*
X35483Y-52753D02*
X34797Y-53781D01*
X36512Y-52791D02*
X36588Y-52791D01*
X36664Y-52829D01*
X36702Y-52867D01*
X36740Y-52943D01*
X36779Y-53096D01*
X36779Y-53286D01*
X36740Y-53438D01*
X36702Y-53515D01*
X36664Y-53553D01*
X36588Y-53591D01*
X36512Y-53591D01*
X36436Y-53553D01*
X36398Y-53515D01*
X36359Y-53438D01*
X36321Y-53286D01*
X36321Y-53096D01*
X36359Y-52943D01*
X36398Y-52867D01*
X36436Y-52829D01*
X36512Y-52791D01*
X37121Y-53515D02*
X37160Y-53553D01*
X37121Y-53591D01*
X37083Y-53553D01*
X37121Y-53515D01*
X37121Y-53591D01*
X37655Y-52791D02*
X37731Y-52791D01*
X37807Y-52829D01*
X37845Y-52867D01*
X37883Y-52943D01*
X37922Y-53096D01*
X37922Y-53286D01*
X37883Y-53438D01*
X37845Y-53515D01*
X37807Y-53553D01*
X37731Y-53591D01*
X37655Y-53591D01*
X37579Y-53553D01*
X37541Y-53515D01*
X37502Y-53438D01*
X37464Y-53286D01*
X37464Y-53096D01*
X37502Y-52943D01*
X37541Y-52867D01*
X37579Y-52829D01*
X37655Y-52791D01*
X38607Y-52791D02*
X38455Y-52791D01*
X38379Y-52829D01*
X38341Y-52867D01*
X38264Y-52981D01*
X38226Y-53134D01*
X38226Y-53438D01*
X38264Y-53515D01*
X38303Y-53553D01*
X38379Y-53591D01*
X38531Y-53591D01*
X38607Y-53553D01*
X38645Y-53515D01*
X38684Y-53438D01*
X38684Y-53248D01*
X38645Y-53172D01*
X38607Y-53134D01*
X38531Y-53096D01*
X38379Y-53096D01*
X38303Y-53134D01*
X38264Y-53172D01*
X38226Y-53248D01*
X38988Y-52867D02*
X39026Y-52829D01*
X39103Y-52791D01*
X39293Y-52791D01*
X39369Y-52829D01*
X39407Y-52867D01*
X39446Y-52943D01*
X39446Y-53019D01*
X39407Y-53134D01*
X38950Y-53591D01*
X39446Y-53591D01*
X39750Y-52791D02*
X39750Y-52943D01*
X40055Y-52791D02*
X40055Y-52943D01*
X41237Y-53896D02*
X41199Y-53857D01*
X41123Y-53743D01*
X41085Y-53667D01*
X41047Y-53553D01*
X41008Y-53362D01*
X41008Y-53210D01*
X41047Y-53019D01*
X41085Y-52905D01*
X41123Y-52829D01*
X41199Y-52715D01*
X41237Y-52677D01*
X41503Y-52867D02*
X41541Y-52829D01*
X41618Y-52791D01*
X41808Y-52791D01*
X41884Y-52829D01*
X41922Y-52867D01*
X41961Y-52943D01*
X41961Y-53019D01*
X41922Y-53134D01*
X41465Y-53591D01*
X41961Y-53591D01*
X42913Y-53591D02*
X42913Y-52791D01*
X43256Y-53591D02*
X43256Y-53172D01*
X43218Y-53096D01*
X43142Y-53057D01*
X43028Y-53057D01*
X42952Y-53096D01*
X42913Y-53134D01*
X43752Y-53591D02*
X43676Y-53553D01*
X43637Y-53515D01*
X43599Y-53438D01*
X43599Y-53210D01*
X43637Y-53134D01*
X43676Y-53096D01*
X43752Y-53057D01*
X43866Y-53057D01*
X43942Y-53096D01*
X43980Y-53134D01*
X44018Y-53210D01*
X44018Y-53438D01*
X43980Y-53515D01*
X43942Y-53553D01*
X43866Y-53591D01*
X43752Y-53591D01*
X44476Y-53591D02*
X44400Y-53553D01*
X44361Y-53477D01*
X44361Y-52791D01*
X45085Y-53553D02*
X45009Y-53591D01*
X44857Y-53591D01*
X44780Y-53553D01*
X44742Y-53477D01*
X44742Y-53172D01*
X44780Y-53096D01*
X44857Y-53057D01*
X45009Y-53057D01*
X45085Y-53096D01*
X45123Y-53172D01*
X45123Y-53248D01*
X44742Y-53324D01*
X45428Y-53553D02*
X45505Y-53591D01*
X45657Y-53591D01*
X45733Y-53553D01*
X45771Y-53477D01*
X45771Y-53438D01*
X45733Y-53362D01*
X45657Y-53324D01*
X45543Y-53324D01*
X45466Y-53286D01*
X45428Y-53210D01*
X45428Y-53172D01*
X45466Y-53096D01*
X45543Y-53057D01*
X45657Y-53057D01*
X45733Y-53096D01*
X46038Y-53896D02*
X46076Y-53857D01*
X46153Y-53743D01*
X46191Y-53667D01*
X46229Y-53553D01*
X46267Y-53362D01*
X46267Y-53210D01*
X46229Y-53019D01*
X46191Y-52905D01*
X46153Y-52829D01*
X46076Y-52715D01*
X46038Y-52677D01*
G54D10*
X29110Y-54322D02*
X29097Y-54446D01*
X29061Y-54565D01*
X29003Y-54676D01*
X28924Y-54772D01*
X28827Y-54852D01*
X28718Y-54911D01*
X28598Y-54948D01*
X28474Y-54961D01*
X28351Y-54950D01*
X28231Y-54915D01*
X28120Y-54857D01*
X28023Y-54779D01*
X27942Y-54683D01*
X27882Y-54574D01*
X27844Y-54455D01*
X27831Y-54330D01*
X27841Y-54207D01*
X27875Y-54087D01*
X27933Y-53976D01*
X28010Y-53878D01*
X28105Y-53797D01*
X28214Y-53736D01*
X28333Y-53697D01*
X28457Y-53683D01*
X28581Y-53692D01*
X28701Y-53726D01*
X28812Y-53782D01*
X28911Y-53859D01*
X28992Y-53954D01*
X29054Y-54062D01*
X29094Y-54181D01*
X29109Y-54305D01*
X29110Y-54322D01*
X27830Y-53682D02*
X29110Y-54962D01*
X29110Y-53682D02*
X27830Y-54962D01*
G54D12*
X29424Y-53846D02*
X29920Y-53846D01*
X29653Y-54151D01*
X29767Y-54151D01*
X29843Y-54189D01*
X29881Y-54227D01*
X29920Y-54303D01*
X29920Y-54493D01*
X29881Y-54570D01*
X29843Y-54608D01*
X29767Y-54646D01*
X29539Y-54646D01*
X29462Y-54608D01*
X29424Y-54570D01*
X30262Y-54570D02*
X30301Y-54608D01*
X30262Y-54646D01*
X30224Y-54608D01*
X30262Y-54570D01*
X30262Y-54646D01*
X30605Y-53922D02*
X30643Y-53884D01*
X30720Y-53846D01*
X30910Y-53846D01*
X30986Y-53884D01*
X31024Y-53922D01*
X31063Y-53998D01*
X31063Y-54074D01*
X31024Y-54189D01*
X30567Y-54646D01*
X31063Y-54646D01*
X31786Y-53846D02*
X31405Y-53846D01*
X31367Y-54227D01*
X31405Y-54189D01*
X31482Y-54151D01*
X31672Y-54151D01*
X31748Y-54189D01*
X31786Y-54227D01*
X31825Y-54303D01*
X31825Y-54493D01*
X31786Y-54570D01*
X31748Y-54608D01*
X31672Y-54646D01*
X31482Y-54646D01*
X31405Y-54608D01*
X31367Y-54570D01*
X32167Y-54646D02*
X32167Y-54112D01*
X32167Y-54189D02*
X32206Y-54151D01*
X32282Y-54112D01*
X32396Y-54112D01*
X32472Y-54151D01*
X32510Y-54227D01*
X32510Y-54646D01*
X32510Y-54227D02*
X32548Y-54151D01*
X32625Y-54112D01*
X32739Y-54112D01*
X32815Y-54151D01*
X32853Y-54227D01*
X32853Y-54646D01*
X33234Y-54646D02*
X33234Y-54112D01*
X33234Y-54189D02*
X33273Y-54151D01*
X33349Y-54112D01*
X33463Y-54112D01*
X33539Y-54151D01*
X33577Y-54227D01*
X33577Y-54646D01*
X33577Y-54227D02*
X33615Y-54151D01*
X33692Y-54112D01*
X33806Y-54112D01*
X33882Y-54151D01*
X33920Y-54227D01*
X33920Y-54646D01*
X35483Y-53808D02*
X34797Y-54836D01*
X36512Y-53846D02*
X36588Y-53846D01*
X36664Y-53884D01*
X36702Y-53922D01*
X36740Y-53998D01*
X36779Y-54151D01*
X36779Y-54341D01*
X36740Y-54493D01*
X36702Y-54570D01*
X36664Y-54608D01*
X36588Y-54646D01*
X36512Y-54646D01*
X36436Y-54608D01*
X36398Y-54570D01*
X36359Y-54493D01*
X36321Y-54341D01*
X36321Y-54151D01*
X36359Y-53998D01*
X36398Y-53922D01*
X36436Y-53884D01*
X36512Y-53846D01*
X37121Y-54570D02*
X37160Y-54608D01*
X37121Y-54646D01*
X37083Y-54608D01*
X37121Y-54570D01*
X37121Y-54646D01*
X37922Y-54646D02*
X37464Y-54646D01*
X37693Y-54646D02*
X37693Y-53846D01*
X37617Y-53960D01*
X37541Y-54036D01*
X37464Y-54074D01*
X38226Y-53922D02*
X38264Y-53884D01*
X38341Y-53846D01*
X38531Y-53846D01*
X38607Y-53884D01*
X38645Y-53922D01*
X38684Y-53998D01*
X38684Y-54074D01*
X38645Y-54189D01*
X38188Y-54646D01*
X38684Y-54646D01*
X39141Y-54189D02*
X39065Y-54151D01*
X39026Y-54112D01*
X38988Y-54036D01*
X38988Y-53998D01*
X39026Y-53922D01*
X39065Y-53884D01*
X39141Y-53846D01*
X39293Y-53846D01*
X39369Y-53884D01*
X39407Y-53922D01*
X39446Y-53998D01*
X39446Y-54036D01*
X39407Y-54112D01*
X39369Y-54151D01*
X39293Y-54189D01*
X39141Y-54189D01*
X39065Y-54227D01*
X39026Y-54265D01*
X38988Y-54341D01*
X38988Y-54493D01*
X39026Y-54570D01*
X39065Y-54608D01*
X39141Y-54646D01*
X39293Y-54646D01*
X39369Y-54608D01*
X39407Y-54570D01*
X39446Y-54493D01*
X39446Y-54341D01*
X39407Y-54265D01*
X39369Y-54227D01*
X39293Y-54189D01*
X39750Y-53846D02*
X39750Y-53998D01*
X40055Y-53846D02*
X40055Y-53998D01*
X41237Y-54951D02*
X41199Y-54912D01*
X41123Y-54798D01*
X41085Y-54722D01*
X41047Y-54608D01*
X41008Y-54417D01*
X41008Y-54265D01*
X41047Y-54074D01*
X41085Y-53960D01*
X41123Y-53884D01*
X41199Y-53770D01*
X41237Y-53732D01*
X41503Y-53922D02*
X41541Y-53884D01*
X41618Y-53846D01*
X41808Y-53846D01*
X41884Y-53884D01*
X41922Y-53922D01*
X41961Y-53998D01*
X41961Y-54074D01*
X41922Y-54189D01*
X41465Y-54646D01*
X41961Y-54646D01*
X42913Y-54646D02*
X42913Y-53846D01*
X43256Y-54646D02*
X43256Y-54227D01*
X43218Y-54151D01*
X43142Y-54112D01*
X43028Y-54112D01*
X42952Y-54151D01*
X42913Y-54189D01*
X43752Y-54646D02*
X43676Y-54608D01*
X43637Y-54570D01*
X43599Y-54493D01*
X43599Y-54265D01*
X43637Y-54189D01*
X43676Y-54151D01*
X43752Y-54112D01*
X43866Y-54112D01*
X43942Y-54151D01*
X43980Y-54189D01*
X44018Y-54265D01*
X44018Y-54493D01*
X43980Y-54570D01*
X43942Y-54608D01*
X43866Y-54646D01*
X43752Y-54646D01*
X44476Y-54646D02*
X44400Y-54608D01*
X44361Y-54532D01*
X44361Y-53846D01*
X45085Y-54608D02*
X45009Y-54646D01*
X44857Y-54646D01*
X44780Y-54608D01*
X44742Y-54532D01*
X44742Y-54227D01*
X44780Y-54151D01*
X44857Y-54112D01*
X45009Y-54112D01*
X45085Y-54151D01*
X45123Y-54227D01*
X45123Y-54303D01*
X44742Y-54379D01*
X45428Y-54608D02*
X45505Y-54646D01*
X45657Y-54646D01*
X45733Y-54608D01*
X45771Y-54532D01*
X45771Y-54493D01*
X45733Y-54417D01*
X45657Y-54379D01*
X45543Y-54379D01*
X45466Y-54341D01*
X45428Y-54265D01*
X45428Y-54227D01*
X45466Y-54151D01*
X45543Y-54112D01*
X45657Y-54112D01*
X45733Y-54151D01*
X46038Y-54951D02*
X46076Y-54912D01*
X46153Y-54798D01*
X46191Y-54722D01*
X46229Y-54608D01*
X46267Y-54417D01*
X46267Y-54265D01*
X46229Y-54074D01*
X46191Y-53960D01*
X46153Y-53884D01*
X46076Y-53770D01*
X46038Y-53732D01*
M02*
