M48
;DRILL file {Pcbnew (2012-01-19 BZR 3256)-stable} date 10/27/2012 4:18:39 PM
;FORMAT={-:-/ absolute / inch / decimal}
FMAT,2
INCH,TZ
T1C0.025
T2C0.032
T3C0.035
T4C0.040
T5C0.045
T6C0.051
T7C0.120
%
G90
G05
M72
T1
X3.305Y-4.110
X3.430Y-4.220
X3.880Y-3.290
X3.890Y-4.190
X4.500Y-4.050
X4.650Y-4.300
X4.680Y-3.150
X4.750Y-4.500
X4.770Y-4.260
X4.780Y-4.340
X4.800Y-4.550
X4.830Y-4.390
X4.890Y-3.120
X4.960Y-3.520
X5.045Y-4.400
X5.120Y-3.730
X5.120Y-3.920
X5.135Y-4.200
X5.140Y-3.665
X5.190Y-4.240
X5.220Y-3.804
X5.230Y-3.880
X5.240Y-3.660
X5.250Y-4.370
X5.270Y-3.320
X5.280Y-3.510
X5.290Y-3.380
X5.292Y-3.732
X5.340Y-3.375
X5.345Y-4.220
X5.360Y-3.510
X5.430Y-3.820
X5.440Y-4.030
X5.460Y-3.790
X5.474Y-3.866
X5.480Y-4.050
X5.505Y-4.325
X5.520Y-3.415
X5.520Y-3.570
X5.520Y-3.750
X5.560Y-4.010
X5.575Y-3.750
X5.588Y-4.066
X5.615Y-3.565
X5.620Y-4.000
X5.640Y-3.380
X5.640Y-3.890
X5.655Y-4.058
X5.675Y-3.470
X5.702Y-3.384
X5.710Y-4.070
X5.735Y-3.420
X5.740Y-3.970
X5.750Y-4.180
X5.780Y-3.400
X5.812Y-4.066
X5.830Y-3.695
X5.830Y-3.850
X5.848Y-4.040
X5.860Y-3.370
X5.870Y-4.240
X5.900Y-3.952
X5.902Y-3.902
X5.905Y-3.695
X5.910Y-3.625
X5.950Y-3.350
X5.980Y-4.110
X6.040Y-4.290
X6.045Y-3.675
X6.055Y-3.435
X6.065Y-4.212
X6.080Y-3.875
X6.080Y-4.490
X6.085Y-4.540
X6.100Y-3.710
X6.110Y-4.210
X6.145Y-4.160
X6.190Y-4.020
X6.200Y-4.240
X6.225Y-3.290
X6.250Y-3.775
X6.280Y-4.130
X6.300Y-3.875
X6.320Y-4.050
X6.325Y-3.950
X6.365Y-3.380
X6.390Y-4.645
X6.410Y-3.220
X6.475Y-4.235
X6.515Y-3.440
X6.545Y-4.065
X6.550Y-3.750
X6.550Y-3.870
X6.580Y-4.550
X6.595Y-3.830
X6.620Y-4.350
X6.620Y-4.530
X6.624Y-4.440
X6.625Y-3.105
X6.630Y-3.530
X6.660Y-3.260
X6.660Y-4.330
X6.670Y-4.220
X6.670Y-4.264
X6.675Y-3.385
X6.855Y-3.625
X6.868Y-4.116
X6.920Y-3.640
X6.945Y-3.220
X6.945Y-3.285
X6.975Y-3.730
X6.980Y-3.530
X7.000Y-3.650
X7.100Y-3.990
X7.140Y-3.800
X7.230Y-4.440
X7.230Y-4.680
X7.404Y-3.746
X7.435Y-4.390
X7.510Y-4.090
X7.620Y-3.620
X7.630Y-3.260
X7.630Y-3.320
X7.630Y-3.560
T2
X4.614Y-4.650
X4.692Y-4.650
X4.741Y-3.300
X4.741Y-3.600
X4.771Y-4.650
X4.850Y-4.650
X4.859Y-3.300
X4.859Y-3.600
X4.929Y-4.650
X5.008Y-4.650
X5.086Y-4.650
X5.165Y-4.650
X6.450Y-3.564
X6.450Y-3.643
X6.450Y-3.721
X6.450Y-3.800
X6.450Y-3.879
X6.450Y-3.958
X6.450Y-4.036
X6.450Y-4.115
X6.765Y-3.564
X6.765Y-3.643
X6.765Y-3.721
X6.765Y-3.800
X6.765Y-3.879
X6.765Y-3.958
X6.765Y-4.036
X6.765Y-4.115
T3
X7.937Y-4.134
X7.937Y-4.214
X7.937Y-4.294
X7.937Y-4.374
X7.937Y-4.454
X7.937Y-4.534
T4
X5.450Y-3.270
X5.550Y-3.270
X5.650Y-3.270
X5.750Y-3.270
X5.850Y-3.270
X5.950Y-3.270
X6.750Y-3.250
X6.850Y-3.250
X7.840Y-4.050
X7.840Y-4.150
X7.840Y-4.518
X7.840Y-4.618
T5
X3.600Y-3.250
X3.600Y-3.350
X3.600Y-3.450
X3.620Y-3.850
X3.620Y-3.950
X3.620Y-4.050
X3.620Y-4.370
X3.620Y-4.470
X3.620Y-4.570
T6
X3.155Y-3.790
X3.155Y-3.990
X3.160Y-4.355
X3.160Y-4.555
X3.165Y-3.240
X3.165Y-3.440
T7
X4.250Y-3.350
X4.270Y-3.950
X4.270Y-4.470
T0
M30
