G04 (created by PCBNEW (2012-01-19 BZR 3256)-stable) date 10/27/2012 11:37:29 AM*
G01*
G70*
G90*
%MOIN*%
G04 Gerber Fmt 3.4, Leading zero omitted, Abs format*
%FSLAX34Y34*%
G04 APERTURE LIST*
%ADD10C,0.001000*%
%ADD11C,0.015000*%
%ADD12C,0.008000*%
G04 APERTURE END LIST*
G54D10*
G54D11*
X30600Y-47700D02*
X30600Y-30500D01*
X87100Y-47600D02*
X30600Y-47600D01*
X87100Y-30500D02*
X87100Y-47700D01*
X30700Y-30500D02*
X87100Y-30500D01*
G54D10*
X32925Y-40975D02*
X33175Y-41225D01*
X33175Y-40975D02*
X32925Y-41225D01*
X34175Y-42075D02*
X34425Y-42325D01*
X34425Y-42075D02*
X34175Y-42325D01*
X38675Y-32775D02*
X38925Y-33025D01*
X38925Y-32775D02*
X38675Y-33025D01*
X38775Y-41775D02*
X39025Y-42025D01*
X39025Y-41775D02*
X38775Y-42025D01*
X44875Y-40375D02*
X45125Y-40625D01*
X45125Y-40375D02*
X44875Y-40625D01*
X46375Y-42875D02*
X46625Y-43125D01*
X46625Y-42875D02*
X46375Y-43125D01*
X46675Y-31375D02*
X46925Y-31625D01*
X46925Y-31375D02*
X46675Y-31625D01*
X47375Y-44875D02*
X47625Y-45125D01*
X47625Y-44875D02*
X47375Y-45125D01*
X47575Y-42475D02*
X47825Y-42725D01*
X47825Y-42475D02*
X47575Y-42725D01*
X47675Y-43275D02*
X47925Y-43525D01*
X47925Y-43275D02*
X47675Y-43525D01*
X47875Y-45375D02*
X48125Y-45625D01*
X48125Y-45375D02*
X47875Y-45625D01*
X48175Y-43775D02*
X48425Y-44025D01*
X48425Y-43775D02*
X48175Y-44025D01*
X48775Y-31075D02*
X49025Y-31325D01*
X49025Y-31075D02*
X48775Y-31325D01*
X49475Y-35075D02*
X49725Y-35325D01*
X49725Y-35075D02*
X49475Y-35325D01*
X50325Y-43875D02*
X50575Y-44125D01*
X50575Y-43875D02*
X50325Y-44125D01*
X51075Y-37175D02*
X51325Y-37425D01*
X51325Y-37175D02*
X51075Y-37425D01*
X51075Y-39075D02*
X51325Y-39325D01*
X51325Y-39075D02*
X51075Y-39325D01*
X51225Y-41875D02*
X51475Y-42125D01*
X51475Y-41875D02*
X51225Y-42125D01*
X51275Y-36525D02*
X51525Y-36775D01*
X51525Y-36525D02*
X51275Y-36775D01*
X51775Y-42275D02*
X52025Y-42525D01*
X52025Y-42275D02*
X51775Y-42525D01*
X52075Y-37915D02*
X52325Y-38165D01*
X52325Y-37915D02*
X52075Y-38165D01*
X52175Y-38675D02*
X52425Y-38925D01*
X52425Y-38675D02*
X52175Y-38925D01*
X52275Y-36475D02*
X52525Y-36725D01*
X52525Y-36475D02*
X52275Y-36725D01*
X52375Y-43575D02*
X52625Y-43825D01*
X52625Y-43575D02*
X52375Y-43825D01*
X52575Y-33075D02*
X52825Y-33325D01*
X52825Y-33075D02*
X52575Y-33325D01*
X52675Y-34975D02*
X52925Y-35225D01*
X52925Y-34975D02*
X52675Y-35225D01*
X52775Y-33675D02*
X53025Y-33925D01*
X53025Y-33675D02*
X52775Y-33925D01*
X52795Y-37195D02*
X53045Y-37445D01*
X53045Y-37195D02*
X52795Y-37445D01*
X53275Y-33625D02*
X53525Y-33875D01*
X53525Y-33625D02*
X53275Y-33875D01*
X53325Y-42075D02*
X53575Y-42325D01*
X53575Y-42075D02*
X53325Y-42325D01*
X53475Y-34975D02*
X53725Y-35225D01*
X53725Y-34975D02*
X53475Y-35225D01*
X54175Y-38075D02*
X54425Y-38325D01*
X54425Y-38075D02*
X54175Y-38325D01*
X54275Y-40175D02*
X54525Y-40425D01*
X54525Y-40175D02*
X54275Y-40425D01*
X54475Y-37775D02*
X54725Y-38025D01*
X54725Y-37775D02*
X54475Y-38025D01*
X54615Y-38535D02*
X54865Y-38785D01*
X54865Y-38535D02*
X54615Y-38785D01*
X54675Y-40375D02*
X54925Y-40625D01*
X54925Y-40375D02*
X54675Y-40625D01*
X54925Y-43125D02*
X55175Y-43375D01*
X55175Y-43125D02*
X54925Y-43375D01*
X55075Y-34025D02*
X55325Y-34275D01*
X55325Y-34025D02*
X55075Y-34275D01*
X55075Y-35575D02*
X55325Y-35825D01*
X55325Y-35575D02*
X55075Y-35825D01*
X55075Y-37375D02*
X55325Y-37625D01*
X55325Y-37375D02*
X55075Y-37625D01*
X55475Y-39975D02*
X55725Y-40225D01*
X55725Y-39975D02*
X55475Y-40225D01*
X55625Y-37375D02*
X55875Y-37625D01*
X55875Y-37375D02*
X55625Y-37625D01*
X55755Y-40535D02*
X56005Y-40785D01*
X56005Y-40535D02*
X55755Y-40785D01*
X56025Y-35525D02*
X56275Y-35775D01*
X56275Y-35525D02*
X56025Y-35775D01*
X56075Y-39875D02*
X56325Y-40125D01*
X56325Y-39875D02*
X56075Y-40125D01*
X56275Y-33675D02*
X56525Y-33925D01*
X56525Y-33675D02*
X56275Y-33925D01*
X56275Y-38775D02*
X56525Y-39025D01*
X56525Y-38775D02*
X56275Y-39025D01*
X56425Y-40450D02*
X56675Y-40700D01*
X56675Y-40450D02*
X56425Y-40700D01*
X56625Y-34575D02*
X56875Y-34825D01*
X56875Y-34575D02*
X56625Y-34825D01*
X56895Y-33715D02*
X57145Y-33965D01*
X57145Y-33715D02*
X56895Y-33965D01*
X56975Y-40575D02*
X57225Y-40825D01*
X57225Y-40575D02*
X56975Y-40825D01*
X57225Y-34075D02*
X57475Y-34325D01*
X57475Y-34075D02*
X57225Y-34325D01*
X57275Y-39575D02*
X57525Y-39825D01*
X57525Y-39575D02*
X57275Y-39825D01*
X57375Y-41675D02*
X57625Y-41925D01*
X57625Y-41675D02*
X57375Y-41925D01*
X57675Y-33875D02*
X57925Y-34125D01*
X57925Y-33875D02*
X57675Y-34125D01*
X57995Y-40535D02*
X58245Y-40785D01*
X58245Y-40535D02*
X57995Y-40785D01*
X58175Y-36825D02*
X58425Y-37075D01*
X58425Y-36825D02*
X58175Y-37075D01*
X58350Y-40275D02*
X58600Y-40525D01*
X58600Y-40275D02*
X58350Y-40525D01*
X58475Y-33575D02*
X58725Y-33825D01*
X58725Y-33575D02*
X58475Y-33825D01*
X58575Y-42275D02*
X58825Y-42525D01*
X58825Y-42275D02*
X58575Y-42525D01*
X58875Y-39395D02*
X59125Y-39645D01*
X59125Y-39395D02*
X58875Y-39645D01*
X58895Y-38895D02*
X59145Y-39145D01*
X59145Y-38895D02*
X58895Y-39145D01*
X58925Y-36825D02*
X59175Y-37075D01*
X59175Y-36825D02*
X58925Y-37075D01*
X58975Y-36125D02*
X59225Y-36375D01*
X59225Y-36125D02*
X58975Y-36375D01*
X58975Y-38450D02*
X59225Y-38700D01*
X59225Y-38450D02*
X58975Y-38700D01*
X59375Y-33375D02*
X59625Y-33625D01*
X59625Y-33375D02*
X59375Y-33625D01*
X59675Y-40975D02*
X59925Y-41225D01*
X59925Y-40975D02*
X59675Y-41225D01*
X60275Y-42775D02*
X60525Y-43025D01*
X60525Y-42775D02*
X60275Y-43025D01*
X60325Y-36625D02*
X60575Y-36875D01*
X60575Y-36625D02*
X60325Y-36875D01*
X60425Y-34225D02*
X60675Y-34475D01*
X60675Y-34225D02*
X60425Y-34475D01*
X60523Y-41995D02*
X60773Y-42245D01*
X60773Y-41995D02*
X60523Y-42245D01*
X60675Y-38625D02*
X60925Y-38875D01*
X60925Y-38625D02*
X60675Y-38875D01*
X60675Y-44775D02*
X60925Y-45025D01*
X60925Y-44775D02*
X60675Y-45025D01*
X60725Y-45275D02*
X60975Y-45525D01*
X60975Y-45275D02*
X60725Y-45525D01*
X60875Y-36975D02*
X61125Y-37225D01*
X61125Y-36975D02*
X60875Y-37225D01*
X60975Y-41975D02*
X61225Y-42225D01*
X61225Y-41975D02*
X60975Y-42225D01*
X61325Y-41475D02*
X61575Y-41725D01*
X61575Y-41475D02*
X61325Y-41725D01*
X61700Y-42450D02*
X61950Y-42700D01*
X61950Y-42450D02*
X61700Y-42700D01*
X61775Y-40075D02*
X62025Y-40325D01*
X62025Y-40075D02*
X61775Y-40325D01*
X62125Y-32775D02*
X62375Y-33025D01*
X62375Y-32775D02*
X62125Y-33025D01*
X62375Y-37625D02*
X62625Y-37875D01*
X62625Y-37625D02*
X62375Y-37875D01*
X62675Y-41175D02*
X62925Y-41425D01*
X62925Y-41175D02*
X62675Y-41425D01*
X62875Y-38625D02*
X63125Y-38875D01*
X63125Y-38625D02*
X62875Y-38875D01*
X63075Y-40375D02*
X63325Y-40625D01*
X63325Y-40375D02*
X63075Y-40625D01*
X63125Y-39375D02*
X63375Y-39625D01*
X63375Y-39375D02*
X63125Y-39625D01*
X63525Y-33675D02*
X63775Y-33925D01*
X63775Y-33675D02*
X63525Y-33925D01*
X63775Y-46325D02*
X64025Y-46575D01*
X64025Y-46325D02*
X63775Y-46575D01*
X63975Y-32075D02*
X64225Y-32325D01*
X64225Y-32075D02*
X63975Y-32325D01*
X64625Y-42225D02*
X64875Y-42475D01*
X64875Y-42225D02*
X64625Y-42475D01*
X65025Y-34275D02*
X65275Y-34525D01*
X65275Y-34275D02*
X65025Y-34525D01*
X65325Y-40525D02*
X65575Y-40775D01*
X65575Y-40525D02*
X65325Y-40775D01*
X65375Y-37375D02*
X65625Y-37625D01*
X65625Y-37375D02*
X65375Y-37625D01*
X65375Y-38575D02*
X65625Y-38825D01*
X65625Y-38575D02*
X65375Y-38825D01*
X65675Y-45375D02*
X65925Y-45625D01*
X65925Y-45375D02*
X65675Y-45625D01*
X65825Y-38175D02*
X66075Y-38425D01*
X66075Y-38175D02*
X65825Y-38425D01*
X66075Y-43375D02*
X66325Y-43625D01*
X66325Y-43375D02*
X66075Y-43625D01*
X66075Y-45175D02*
X66325Y-45425D01*
X66325Y-45175D02*
X66075Y-45425D01*
X66115Y-44275D02*
X66365Y-44525D01*
X66365Y-44275D02*
X66115Y-44525D01*
X66125Y-30925D02*
X66375Y-31175D01*
X66375Y-30925D02*
X66125Y-31175D01*
X66175Y-35175D02*
X66425Y-35425D01*
X66425Y-35175D02*
X66175Y-35425D01*
X66475Y-32475D02*
X66725Y-32725D01*
X66725Y-32475D02*
X66475Y-32725D01*
X66475Y-43175D02*
X66725Y-43425D01*
X66725Y-43175D02*
X66475Y-43425D01*
X66575Y-42075D02*
X66825Y-42325D01*
X66825Y-42075D02*
X66575Y-42325D01*
X66576Y-42517D02*
X66826Y-42767D01*
X66826Y-42517D02*
X66576Y-42767D01*
X66625Y-33725D02*
X66875Y-33975D01*
X66875Y-33725D02*
X66625Y-33975D01*
X68425Y-36125D02*
X68675Y-36375D01*
X68675Y-36125D02*
X68425Y-36375D01*
X68555Y-41035D02*
X68805Y-41285D01*
X68805Y-41035D02*
X68555Y-41285D01*
X69075Y-36275D02*
X69325Y-36525D01*
X69325Y-36275D02*
X69075Y-36525D01*
X69325Y-32075D02*
X69575Y-32325D01*
X69575Y-32075D02*
X69325Y-32325D01*
X69325Y-32725D02*
X69575Y-32975D01*
X69575Y-32725D02*
X69325Y-32975D01*
X69625Y-37175D02*
X69875Y-37425D01*
X69875Y-37175D02*
X69625Y-37425D01*
X69675Y-35175D02*
X69925Y-35425D01*
X69925Y-35175D02*
X69675Y-35425D01*
X69875Y-36375D02*
X70125Y-36625D01*
X70125Y-36375D02*
X69875Y-36625D01*
X70875Y-39775D02*
X71125Y-40025D01*
X71125Y-39775D02*
X70875Y-40025D01*
X71275Y-37875D02*
X71525Y-38125D01*
X71525Y-37875D02*
X71275Y-38125D01*
X72175Y-44275D02*
X72425Y-44525D01*
X72425Y-44275D02*
X72175Y-44525D01*
X72175Y-46675D02*
X72425Y-46925D01*
X72425Y-46675D02*
X72175Y-46925D01*
X73915Y-37335D02*
X74165Y-37585D01*
X74165Y-37335D02*
X73915Y-37585D01*
X74225Y-43775D02*
X74475Y-44025D01*
X74475Y-43775D02*
X74225Y-44025D01*
X74975Y-40775D02*
X75225Y-41025D01*
X75225Y-40775D02*
X74975Y-41025D01*
X76075Y-36075D02*
X76325Y-36325D01*
X76325Y-36075D02*
X76075Y-36325D01*
X76175Y-32475D02*
X76425Y-32725D01*
X76425Y-32475D02*
X76175Y-32725D01*
X76175Y-33075D02*
X76425Y-33325D01*
X76425Y-33075D02*
X76175Y-33325D01*
X76175Y-35475D02*
X76425Y-35725D01*
X76425Y-35475D02*
X76175Y-35725D01*
X46298Y-46500D02*
X46294Y-46531D01*
X46285Y-46560D01*
X46271Y-46588D01*
X46251Y-46612D01*
X46227Y-46632D01*
X46200Y-46647D01*
X46170Y-46656D01*
X46139Y-46659D01*
X46109Y-46657D01*
X46079Y-46648D01*
X46051Y-46633D01*
X46027Y-46614D01*
X46006Y-46590D01*
X45991Y-46563D01*
X45982Y-46533D01*
X45979Y-46502D01*
X45981Y-46472D01*
X45990Y-46442D01*
X46004Y-46414D01*
X46023Y-46389D01*
X46047Y-46369D01*
X46074Y-46354D01*
X46104Y-46344D01*
X46135Y-46341D01*
X46165Y-46343D01*
X46195Y-46351D01*
X46223Y-46365D01*
X46248Y-46385D01*
X46268Y-46408D01*
X46284Y-46435D01*
X46294Y-46465D01*
X46297Y-46496D01*
X46298Y-46500D01*
X47085Y-46500D02*
X47081Y-46531D01*
X47072Y-46560D01*
X47058Y-46588D01*
X47038Y-46612D01*
X47014Y-46632D01*
X46987Y-46647D01*
X46957Y-46656D01*
X46926Y-46659D01*
X46896Y-46657D01*
X46866Y-46648D01*
X46838Y-46633D01*
X46814Y-46614D01*
X46793Y-46590D01*
X46778Y-46563D01*
X46769Y-46533D01*
X46766Y-46502D01*
X46768Y-46472D01*
X46777Y-46442D01*
X46791Y-46414D01*
X46810Y-46389D01*
X46834Y-46369D01*
X46861Y-46354D01*
X46891Y-46344D01*
X46922Y-46341D01*
X46952Y-46343D01*
X46982Y-46351D01*
X47010Y-46365D01*
X47035Y-46385D01*
X47055Y-46408D01*
X47071Y-46435D01*
X47081Y-46465D01*
X47084Y-46496D01*
X47085Y-46500D01*
X47569Y-33000D02*
X47565Y-33031D01*
X47556Y-33060D01*
X47542Y-33088D01*
X47522Y-33112D01*
X47498Y-33132D01*
X47471Y-33147D01*
X47441Y-33156D01*
X47410Y-33159D01*
X47380Y-33157D01*
X47350Y-33148D01*
X47322Y-33133D01*
X47298Y-33114D01*
X47277Y-33090D01*
X47262Y-33063D01*
X47253Y-33033D01*
X47250Y-33002D01*
X47252Y-32972D01*
X47261Y-32942D01*
X47275Y-32914D01*
X47294Y-32889D01*
X47318Y-32869D01*
X47345Y-32854D01*
X47375Y-32844D01*
X47406Y-32841D01*
X47436Y-32843D01*
X47466Y-32851D01*
X47494Y-32865D01*
X47519Y-32885D01*
X47539Y-32908D01*
X47555Y-32935D01*
X47565Y-32965D01*
X47568Y-32996D01*
X47569Y-33000D01*
X47569Y-36000D02*
X47565Y-36031D01*
X47556Y-36060D01*
X47542Y-36088D01*
X47522Y-36112D01*
X47498Y-36132D01*
X47471Y-36147D01*
X47441Y-36156D01*
X47410Y-36159D01*
X47380Y-36157D01*
X47350Y-36148D01*
X47322Y-36133D01*
X47298Y-36114D01*
X47277Y-36090D01*
X47262Y-36063D01*
X47253Y-36033D01*
X47250Y-36002D01*
X47252Y-35972D01*
X47261Y-35942D01*
X47275Y-35914D01*
X47294Y-35889D01*
X47318Y-35869D01*
X47345Y-35854D01*
X47375Y-35844D01*
X47406Y-35841D01*
X47436Y-35843D01*
X47466Y-35851D01*
X47494Y-35865D01*
X47519Y-35885D01*
X47539Y-35908D01*
X47555Y-35935D01*
X47565Y-35965D01*
X47568Y-35996D01*
X47569Y-36000D01*
X47873Y-46500D02*
X47869Y-46531D01*
X47860Y-46560D01*
X47846Y-46588D01*
X47826Y-46612D01*
X47802Y-46632D01*
X47775Y-46647D01*
X47745Y-46656D01*
X47714Y-46659D01*
X47684Y-46657D01*
X47654Y-46648D01*
X47626Y-46633D01*
X47602Y-46614D01*
X47581Y-46590D01*
X47566Y-46563D01*
X47557Y-46533D01*
X47554Y-46502D01*
X47556Y-46472D01*
X47565Y-46442D01*
X47579Y-46414D01*
X47598Y-46389D01*
X47622Y-46369D01*
X47649Y-46354D01*
X47679Y-46344D01*
X47710Y-46341D01*
X47740Y-46343D01*
X47770Y-46351D01*
X47798Y-46365D01*
X47823Y-46385D01*
X47843Y-46408D01*
X47859Y-46435D01*
X47869Y-46465D01*
X47872Y-46496D01*
X47873Y-46500D01*
X48660Y-46500D02*
X48656Y-46531D01*
X48647Y-46560D01*
X48633Y-46588D01*
X48613Y-46612D01*
X48589Y-46632D01*
X48562Y-46647D01*
X48532Y-46656D01*
X48501Y-46659D01*
X48471Y-46657D01*
X48441Y-46648D01*
X48413Y-46633D01*
X48389Y-46614D01*
X48368Y-46590D01*
X48353Y-46563D01*
X48344Y-46533D01*
X48341Y-46502D01*
X48343Y-46472D01*
X48352Y-46442D01*
X48366Y-46414D01*
X48385Y-46389D01*
X48409Y-46369D01*
X48436Y-46354D01*
X48466Y-46344D01*
X48497Y-46341D01*
X48527Y-46343D01*
X48557Y-46351D01*
X48585Y-46365D01*
X48610Y-46385D01*
X48630Y-46408D01*
X48646Y-46435D01*
X48656Y-46465D01*
X48659Y-46496D01*
X48660Y-46500D01*
X48751Y-33000D02*
X48747Y-33031D01*
X48738Y-33060D01*
X48724Y-33088D01*
X48704Y-33112D01*
X48680Y-33132D01*
X48653Y-33147D01*
X48623Y-33156D01*
X48592Y-33159D01*
X48562Y-33157D01*
X48532Y-33148D01*
X48504Y-33133D01*
X48480Y-33114D01*
X48459Y-33090D01*
X48444Y-33063D01*
X48435Y-33033D01*
X48432Y-33002D01*
X48434Y-32972D01*
X48443Y-32942D01*
X48457Y-32914D01*
X48476Y-32889D01*
X48500Y-32869D01*
X48527Y-32854D01*
X48557Y-32844D01*
X48588Y-32841D01*
X48618Y-32843D01*
X48648Y-32851D01*
X48676Y-32865D01*
X48701Y-32885D01*
X48721Y-32908D01*
X48737Y-32935D01*
X48747Y-32965D01*
X48750Y-32996D01*
X48751Y-33000D01*
X48751Y-36000D02*
X48747Y-36031D01*
X48738Y-36060D01*
X48724Y-36088D01*
X48704Y-36112D01*
X48680Y-36132D01*
X48653Y-36147D01*
X48623Y-36156D01*
X48592Y-36159D01*
X48562Y-36157D01*
X48532Y-36148D01*
X48504Y-36133D01*
X48480Y-36114D01*
X48459Y-36090D01*
X48444Y-36063D01*
X48435Y-36033D01*
X48432Y-36002D01*
X48434Y-35972D01*
X48443Y-35942D01*
X48457Y-35914D01*
X48476Y-35889D01*
X48500Y-35869D01*
X48527Y-35854D01*
X48557Y-35844D01*
X48588Y-35841D01*
X48618Y-35843D01*
X48648Y-35851D01*
X48676Y-35865D01*
X48701Y-35885D01*
X48721Y-35908D01*
X48737Y-35935D01*
X48747Y-35965D01*
X48750Y-35996D01*
X48751Y-36000D01*
X49447Y-46500D02*
X49443Y-46531D01*
X49434Y-46560D01*
X49420Y-46588D01*
X49400Y-46612D01*
X49376Y-46632D01*
X49349Y-46647D01*
X49319Y-46656D01*
X49288Y-46659D01*
X49258Y-46657D01*
X49228Y-46648D01*
X49200Y-46633D01*
X49176Y-46614D01*
X49155Y-46590D01*
X49140Y-46563D01*
X49131Y-46533D01*
X49128Y-46502D01*
X49130Y-46472D01*
X49139Y-46442D01*
X49153Y-46414D01*
X49172Y-46389D01*
X49196Y-46369D01*
X49223Y-46354D01*
X49253Y-46344D01*
X49284Y-46341D01*
X49314Y-46343D01*
X49344Y-46351D01*
X49372Y-46365D01*
X49397Y-46385D01*
X49417Y-46408D01*
X49433Y-46435D01*
X49443Y-46465D01*
X49446Y-46496D01*
X49447Y-46500D01*
X50235Y-46500D02*
X50231Y-46531D01*
X50222Y-46560D01*
X50208Y-46588D01*
X50188Y-46612D01*
X50164Y-46632D01*
X50137Y-46647D01*
X50107Y-46656D01*
X50076Y-46659D01*
X50046Y-46657D01*
X50016Y-46648D01*
X49988Y-46633D01*
X49964Y-46614D01*
X49943Y-46590D01*
X49928Y-46563D01*
X49919Y-46533D01*
X49916Y-46502D01*
X49918Y-46472D01*
X49927Y-46442D01*
X49941Y-46414D01*
X49960Y-46389D01*
X49984Y-46369D01*
X50011Y-46354D01*
X50041Y-46344D01*
X50072Y-46341D01*
X50102Y-46343D01*
X50132Y-46351D01*
X50160Y-46365D01*
X50185Y-46385D01*
X50205Y-46408D01*
X50221Y-46435D01*
X50231Y-46465D01*
X50234Y-46496D01*
X50235Y-46500D01*
X51022Y-46500D02*
X51018Y-46531D01*
X51009Y-46560D01*
X50995Y-46588D01*
X50975Y-46612D01*
X50951Y-46632D01*
X50924Y-46647D01*
X50894Y-46656D01*
X50863Y-46659D01*
X50833Y-46657D01*
X50803Y-46648D01*
X50775Y-46633D01*
X50751Y-46614D01*
X50730Y-46590D01*
X50715Y-46563D01*
X50706Y-46533D01*
X50703Y-46502D01*
X50705Y-46472D01*
X50714Y-46442D01*
X50728Y-46414D01*
X50747Y-46389D01*
X50771Y-46369D01*
X50798Y-46354D01*
X50828Y-46344D01*
X50859Y-46341D01*
X50889Y-46343D01*
X50919Y-46351D01*
X50947Y-46365D01*
X50972Y-46385D01*
X50992Y-46408D01*
X51008Y-46435D01*
X51018Y-46465D01*
X51021Y-46496D01*
X51022Y-46500D01*
X51810Y-46500D02*
X51806Y-46531D01*
X51797Y-46560D01*
X51783Y-46588D01*
X51763Y-46612D01*
X51739Y-46632D01*
X51712Y-46647D01*
X51682Y-46656D01*
X51651Y-46659D01*
X51621Y-46657D01*
X51591Y-46648D01*
X51563Y-46633D01*
X51539Y-46614D01*
X51518Y-46590D01*
X51503Y-46563D01*
X51494Y-46533D01*
X51491Y-46502D01*
X51493Y-46472D01*
X51502Y-46442D01*
X51516Y-46414D01*
X51535Y-46389D01*
X51559Y-46369D01*
X51586Y-46354D01*
X51616Y-46344D01*
X51647Y-46341D01*
X51677Y-46343D01*
X51707Y-46351D01*
X51735Y-46365D01*
X51760Y-46385D01*
X51780Y-46408D01*
X51796Y-46435D01*
X51806Y-46465D01*
X51809Y-46496D01*
X51810Y-46500D01*
X64660Y-35638D02*
X64656Y-35669D01*
X64647Y-35698D01*
X64633Y-35726D01*
X64613Y-35750D01*
X64589Y-35770D01*
X64562Y-35785D01*
X64532Y-35794D01*
X64501Y-35797D01*
X64471Y-35795D01*
X64441Y-35786D01*
X64413Y-35771D01*
X64389Y-35752D01*
X64368Y-35728D01*
X64353Y-35701D01*
X64344Y-35671D01*
X64341Y-35640D01*
X64343Y-35610D01*
X64352Y-35580D01*
X64366Y-35552D01*
X64385Y-35527D01*
X64409Y-35507D01*
X64436Y-35492D01*
X64466Y-35482D01*
X64497Y-35479D01*
X64527Y-35481D01*
X64557Y-35489D01*
X64585Y-35503D01*
X64610Y-35523D01*
X64630Y-35546D01*
X64646Y-35573D01*
X64656Y-35603D01*
X64659Y-35634D01*
X64660Y-35638D01*
X64660Y-36425D02*
X64656Y-36456D01*
X64647Y-36485D01*
X64633Y-36513D01*
X64613Y-36537D01*
X64589Y-36557D01*
X64562Y-36572D01*
X64532Y-36581D01*
X64501Y-36584D01*
X64471Y-36582D01*
X64441Y-36573D01*
X64413Y-36558D01*
X64389Y-36539D01*
X64368Y-36515D01*
X64353Y-36488D01*
X64344Y-36458D01*
X64341Y-36427D01*
X64343Y-36397D01*
X64352Y-36367D01*
X64366Y-36339D01*
X64385Y-36314D01*
X64409Y-36294D01*
X64436Y-36279D01*
X64466Y-36269D01*
X64497Y-36266D01*
X64527Y-36268D01*
X64557Y-36276D01*
X64585Y-36290D01*
X64610Y-36310D01*
X64630Y-36333D01*
X64646Y-36360D01*
X64656Y-36390D01*
X64659Y-36421D01*
X64660Y-36425D01*
X64660Y-37213D02*
X64656Y-37244D01*
X64647Y-37273D01*
X64633Y-37301D01*
X64613Y-37325D01*
X64589Y-37345D01*
X64562Y-37360D01*
X64532Y-37369D01*
X64501Y-37372D01*
X64471Y-37370D01*
X64441Y-37361D01*
X64413Y-37346D01*
X64389Y-37327D01*
X64368Y-37303D01*
X64353Y-37276D01*
X64344Y-37246D01*
X64341Y-37215D01*
X64343Y-37185D01*
X64352Y-37155D01*
X64366Y-37127D01*
X64385Y-37102D01*
X64409Y-37082D01*
X64436Y-37067D01*
X64466Y-37057D01*
X64497Y-37054D01*
X64527Y-37056D01*
X64557Y-37064D01*
X64585Y-37078D01*
X64610Y-37098D01*
X64630Y-37121D01*
X64646Y-37148D01*
X64656Y-37178D01*
X64659Y-37209D01*
X64660Y-37213D01*
X64660Y-38000D02*
X64656Y-38031D01*
X64647Y-38060D01*
X64633Y-38088D01*
X64613Y-38112D01*
X64589Y-38132D01*
X64562Y-38147D01*
X64532Y-38156D01*
X64501Y-38159D01*
X64471Y-38157D01*
X64441Y-38148D01*
X64413Y-38133D01*
X64389Y-38114D01*
X64368Y-38090D01*
X64353Y-38063D01*
X64344Y-38033D01*
X64341Y-38002D01*
X64343Y-37972D01*
X64352Y-37942D01*
X64366Y-37914D01*
X64385Y-37889D01*
X64409Y-37869D01*
X64436Y-37854D01*
X64466Y-37844D01*
X64497Y-37841D01*
X64527Y-37843D01*
X64557Y-37851D01*
X64585Y-37865D01*
X64610Y-37885D01*
X64630Y-37908D01*
X64646Y-37935D01*
X64656Y-37965D01*
X64659Y-37996D01*
X64660Y-38000D01*
X64660Y-38787D02*
X64656Y-38818D01*
X64647Y-38847D01*
X64633Y-38875D01*
X64613Y-38899D01*
X64589Y-38919D01*
X64562Y-38934D01*
X64532Y-38943D01*
X64501Y-38946D01*
X64471Y-38944D01*
X64441Y-38935D01*
X64413Y-38920D01*
X64389Y-38901D01*
X64368Y-38877D01*
X64353Y-38850D01*
X64344Y-38820D01*
X64341Y-38789D01*
X64343Y-38759D01*
X64352Y-38729D01*
X64366Y-38701D01*
X64385Y-38676D01*
X64409Y-38656D01*
X64436Y-38641D01*
X64466Y-38631D01*
X64497Y-38628D01*
X64527Y-38630D01*
X64557Y-38638D01*
X64585Y-38652D01*
X64610Y-38672D01*
X64630Y-38695D01*
X64646Y-38722D01*
X64656Y-38752D01*
X64659Y-38783D01*
X64660Y-38787D01*
X64660Y-39575D02*
X64656Y-39606D01*
X64647Y-39635D01*
X64633Y-39663D01*
X64613Y-39687D01*
X64589Y-39707D01*
X64562Y-39722D01*
X64532Y-39731D01*
X64501Y-39734D01*
X64471Y-39732D01*
X64441Y-39723D01*
X64413Y-39708D01*
X64389Y-39689D01*
X64368Y-39665D01*
X64353Y-39638D01*
X64344Y-39608D01*
X64341Y-39577D01*
X64343Y-39547D01*
X64352Y-39517D01*
X64366Y-39489D01*
X64385Y-39464D01*
X64409Y-39444D01*
X64436Y-39429D01*
X64466Y-39419D01*
X64497Y-39416D01*
X64527Y-39418D01*
X64557Y-39426D01*
X64585Y-39440D01*
X64610Y-39460D01*
X64630Y-39483D01*
X64646Y-39510D01*
X64656Y-39540D01*
X64659Y-39571D01*
X64660Y-39575D01*
X64660Y-40362D02*
X64656Y-40393D01*
X64647Y-40422D01*
X64633Y-40450D01*
X64613Y-40474D01*
X64589Y-40494D01*
X64562Y-40509D01*
X64532Y-40518D01*
X64501Y-40521D01*
X64471Y-40519D01*
X64441Y-40510D01*
X64413Y-40495D01*
X64389Y-40476D01*
X64368Y-40452D01*
X64353Y-40425D01*
X64344Y-40395D01*
X64341Y-40364D01*
X64343Y-40334D01*
X64352Y-40304D01*
X64366Y-40276D01*
X64385Y-40251D01*
X64409Y-40231D01*
X64436Y-40216D01*
X64466Y-40206D01*
X64497Y-40203D01*
X64527Y-40205D01*
X64557Y-40213D01*
X64585Y-40227D01*
X64610Y-40247D01*
X64630Y-40270D01*
X64646Y-40297D01*
X64656Y-40327D01*
X64659Y-40358D01*
X64660Y-40362D01*
X64660Y-41150D02*
X64656Y-41181D01*
X64647Y-41210D01*
X64633Y-41238D01*
X64613Y-41262D01*
X64589Y-41282D01*
X64562Y-41297D01*
X64532Y-41306D01*
X64501Y-41309D01*
X64471Y-41307D01*
X64441Y-41298D01*
X64413Y-41283D01*
X64389Y-41264D01*
X64368Y-41240D01*
X64353Y-41213D01*
X64344Y-41183D01*
X64341Y-41152D01*
X64343Y-41122D01*
X64352Y-41092D01*
X64366Y-41064D01*
X64385Y-41039D01*
X64409Y-41019D01*
X64436Y-41004D01*
X64466Y-40994D01*
X64497Y-40991D01*
X64527Y-40993D01*
X64557Y-41001D01*
X64585Y-41015D01*
X64610Y-41035D01*
X64630Y-41058D01*
X64646Y-41085D01*
X64656Y-41115D01*
X64659Y-41146D01*
X64660Y-41150D01*
X67810Y-35638D02*
X67806Y-35669D01*
X67797Y-35698D01*
X67783Y-35726D01*
X67763Y-35750D01*
X67739Y-35770D01*
X67712Y-35785D01*
X67682Y-35794D01*
X67651Y-35797D01*
X67621Y-35795D01*
X67591Y-35786D01*
X67563Y-35771D01*
X67539Y-35752D01*
X67518Y-35728D01*
X67503Y-35701D01*
X67494Y-35671D01*
X67491Y-35640D01*
X67493Y-35610D01*
X67502Y-35580D01*
X67516Y-35552D01*
X67535Y-35527D01*
X67559Y-35507D01*
X67586Y-35492D01*
X67616Y-35482D01*
X67647Y-35479D01*
X67677Y-35481D01*
X67707Y-35489D01*
X67735Y-35503D01*
X67760Y-35523D01*
X67780Y-35546D01*
X67796Y-35573D01*
X67806Y-35603D01*
X67809Y-35634D01*
X67810Y-35638D01*
X67810Y-36425D02*
X67806Y-36456D01*
X67797Y-36485D01*
X67783Y-36513D01*
X67763Y-36537D01*
X67739Y-36557D01*
X67712Y-36572D01*
X67682Y-36581D01*
X67651Y-36584D01*
X67621Y-36582D01*
X67591Y-36573D01*
X67563Y-36558D01*
X67539Y-36539D01*
X67518Y-36515D01*
X67503Y-36488D01*
X67494Y-36458D01*
X67491Y-36427D01*
X67493Y-36397D01*
X67502Y-36367D01*
X67516Y-36339D01*
X67535Y-36314D01*
X67559Y-36294D01*
X67586Y-36279D01*
X67616Y-36269D01*
X67647Y-36266D01*
X67677Y-36268D01*
X67707Y-36276D01*
X67735Y-36290D01*
X67760Y-36310D01*
X67780Y-36333D01*
X67796Y-36360D01*
X67806Y-36390D01*
X67809Y-36421D01*
X67810Y-36425D01*
X67810Y-37213D02*
X67806Y-37244D01*
X67797Y-37273D01*
X67783Y-37301D01*
X67763Y-37325D01*
X67739Y-37345D01*
X67712Y-37360D01*
X67682Y-37369D01*
X67651Y-37372D01*
X67621Y-37370D01*
X67591Y-37361D01*
X67563Y-37346D01*
X67539Y-37327D01*
X67518Y-37303D01*
X67503Y-37276D01*
X67494Y-37246D01*
X67491Y-37215D01*
X67493Y-37185D01*
X67502Y-37155D01*
X67516Y-37127D01*
X67535Y-37102D01*
X67559Y-37082D01*
X67586Y-37067D01*
X67616Y-37057D01*
X67647Y-37054D01*
X67677Y-37056D01*
X67707Y-37064D01*
X67735Y-37078D01*
X67760Y-37098D01*
X67780Y-37121D01*
X67796Y-37148D01*
X67806Y-37178D01*
X67809Y-37209D01*
X67810Y-37213D01*
X67810Y-38000D02*
X67806Y-38031D01*
X67797Y-38060D01*
X67783Y-38088D01*
X67763Y-38112D01*
X67739Y-38132D01*
X67712Y-38147D01*
X67682Y-38156D01*
X67651Y-38159D01*
X67621Y-38157D01*
X67591Y-38148D01*
X67563Y-38133D01*
X67539Y-38114D01*
X67518Y-38090D01*
X67503Y-38063D01*
X67494Y-38033D01*
X67491Y-38002D01*
X67493Y-37972D01*
X67502Y-37942D01*
X67516Y-37914D01*
X67535Y-37889D01*
X67559Y-37869D01*
X67586Y-37854D01*
X67616Y-37844D01*
X67647Y-37841D01*
X67677Y-37843D01*
X67707Y-37851D01*
X67735Y-37865D01*
X67760Y-37885D01*
X67780Y-37908D01*
X67796Y-37935D01*
X67806Y-37965D01*
X67809Y-37996D01*
X67810Y-38000D01*
X67810Y-38787D02*
X67806Y-38818D01*
X67797Y-38847D01*
X67783Y-38875D01*
X67763Y-38899D01*
X67739Y-38919D01*
X67712Y-38934D01*
X67682Y-38943D01*
X67651Y-38946D01*
X67621Y-38944D01*
X67591Y-38935D01*
X67563Y-38920D01*
X67539Y-38901D01*
X67518Y-38877D01*
X67503Y-38850D01*
X67494Y-38820D01*
X67491Y-38789D01*
X67493Y-38759D01*
X67502Y-38729D01*
X67516Y-38701D01*
X67535Y-38676D01*
X67559Y-38656D01*
X67586Y-38641D01*
X67616Y-38631D01*
X67647Y-38628D01*
X67677Y-38630D01*
X67707Y-38638D01*
X67735Y-38652D01*
X67760Y-38672D01*
X67780Y-38695D01*
X67796Y-38722D01*
X67806Y-38752D01*
X67809Y-38783D01*
X67810Y-38787D01*
X67810Y-39575D02*
X67806Y-39606D01*
X67797Y-39635D01*
X67783Y-39663D01*
X67763Y-39687D01*
X67739Y-39707D01*
X67712Y-39722D01*
X67682Y-39731D01*
X67651Y-39734D01*
X67621Y-39732D01*
X67591Y-39723D01*
X67563Y-39708D01*
X67539Y-39689D01*
X67518Y-39665D01*
X67503Y-39638D01*
X67494Y-39608D01*
X67491Y-39577D01*
X67493Y-39547D01*
X67502Y-39517D01*
X67516Y-39489D01*
X67535Y-39464D01*
X67559Y-39444D01*
X67586Y-39429D01*
X67616Y-39419D01*
X67647Y-39416D01*
X67677Y-39418D01*
X67707Y-39426D01*
X67735Y-39440D01*
X67760Y-39460D01*
X67780Y-39483D01*
X67796Y-39510D01*
X67806Y-39540D01*
X67809Y-39571D01*
X67810Y-39575D01*
X67810Y-40362D02*
X67806Y-40393D01*
X67797Y-40422D01*
X67783Y-40450D01*
X67763Y-40474D01*
X67739Y-40494D01*
X67712Y-40509D01*
X67682Y-40518D01*
X67651Y-40521D01*
X67621Y-40519D01*
X67591Y-40510D01*
X67563Y-40495D01*
X67539Y-40476D01*
X67518Y-40452D01*
X67503Y-40425D01*
X67494Y-40395D01*
X67491Y-40364D01*
X67493Y-40334D01*
X67502Y-40304D01*
X67516Y-40276D01*
X67535Y-40251D01*
X67559Y-40231D01*
X67586Y-40216D01*
X67616Y-40206D01*
X67647Y-40203D01*
X67677Y-40205D01*
X67707Y-40213D01*
X67735Y-40227D01*
X67760Y-40247D01*
X67780Y-40270D01*
X67796Y-40297D01*
X67806Y-40327D01*
X67809Y-40358D01*
X67810Y-40362D01*
X67810Y-41150D02*
X67806Y-41181D01*
X67797Y-41210D01*
X67783Y-41238D01*
X67763Y-41262D01*
X67739Y-41282D01*
X67712Y-41297D01*
X67682Y-41306D01*
X67651Y-41309D01*
X67621Y-41307D01*
X67591Y-41298D01*
X67563Y-41283D01*
X67539Y-41264D01*
X67518Y-41240D01*
X67503Y-41213D01*
X67494Y-41183D01*
X67491Y-41152D01*
X67493Y-41122D01*
X67502Y-41092D01*
X67516Y-41064D01*
X67535Y-41039D01*
X67559Y-41019D01*
X67586Y-41004D01*
X67616Y-40994D01*
X67647Y-40991D01*
X67677Y-40993D01*
X67707Y-41001D01*
X67735Y-41015D01*
X67760Y-41035D01*
X67780Y-41058D01*
X67796Y-41085D01*
X67806Y-41115D01*
X67809Y-41146D01*
X67810Y-41150D01*
X79370Y-41165D02*
X79370Y-41515D01*
X79545Y-41340D02*
X79195Y-41340D01*
X79370Y-41965D02*
X79370Y-42315D01*
X79545Y-42140D02*
X79195Y-42140D01*
X79370Y-42765D02*
X79370Y-43115D01*
X79545Y-42940D02*
X79195Y-42940D01*
X79370Y-43565D02*
X79370Y-43915D01*
X79545Y-43740D02*
X79195Y-43740D01*
X79370Y-44365D02*
X79370Y-44715D01*
X79545Y-44540D02*
X79195Y-44540D01*
X79370Y-45165D02*
X79370Y-45515D01*
X79545Y-45340D02*
X79195Y-45340D01*
X54700Y-32700D02*
X54696Y-32738D01*
X54684Y-32776D01*
X54666Y-32810D01*
X54641Y-32840D01*
X54611Y-32865D01*
X54577Y-32884D01*
X54540Y-32895D01*
X54501Y-32899D01*
X54463Y-32896D01*
X54426Y-32885D01*
X54391Y-32867D01*
X54361Y-32842D01*
X54335Y-32812D01*
X54317Y-32778D01*
X54305Y-32741D01*
X54301Y-32702D01*
X54304Y-32664D01*
X54315Y-32627D01*
X54332Y-32592D01*
X54357Y-32562D01*
X54386Y-32536D01*
X54420Y-32517D01*
X54458Y-32505D01*
X54496Y-32501D01*
X54534Y-32504D01*
X54572Y-32514D01*
X54607Y-32532D01*
X54637Y-32556D01*
X54663Y-32585D01*
X54682Y-32619D01*
X54695Y-32656D01*
X54699Y-32695D01*
X54700Y-32700D01*
X54300Y-32500D02*
X54700Y-32900D01*
X54700Y-32500D02*
X54300Y-32900D01*
X55700Y-32700D02*
X55696Y-32738D01*
X55684Y-32776D01*
X55666Y-32810D01*
X55641Y-32840D01*
X55611Y-32865D01*
X55577Y-32884D01*
X55540Y-32895D01*
X55501Y-32899D01*
X55463Y-32896D01*
X55426Y-32885D01*
X55391Y-32867D01*
X55361Y-32842D01*
X55335Y-32812D01*
X55317Y-32778D01*
X55305Y-32741D01*
X55301Y-32702D01*
X55304Y-32664D01*
X55315Y-32627D01*
X55332Y-32592D01*
X55357Y-32562D01*
X55386Y-32536D01*
X55420Y-32517D01*
X55458Y-32505D01*
X55496Y-32501D01*
X55534Y-32504D01*
X55572Y-32514D01*
X55607Y-32532D01*
X55637Y-32556D01*
X55663Y-32585D01*
X55682Y-32619D01*
X55695Y-32656D01*
X55699Y-32695D01*
X55700Y-32700D01*
X55300Y-32500D02*
X55700Y-32900D01*
X55700Y-32500D02*
X55300Y-32900D01*
X56700Y-32700D02*
X56696Y-32738D01*
X56684Y-32776D01*
X56666Y-32810D01*
X56641Y-32840D01*
X56611Y-32865D01*
X56577Y-32884D01*
X56540Y-32895D01*
X56501Y-32899D01*
X56463Y-32896D01*
X56426Y-32885D01*
X56391Y-32867D01*
X56361Y-32842D01*
X56335Y-32812D01*
X56317Y-32778D01*
X56305Y-32741D01*
X56301Y-32702D01*
X56304Y-32664D01*
X56315Y-32627D01*
X56332Y-32592D01*
X56357Y-32562D01*
X56386Y-32536D01*
X56420Y-32517D01*
X56458Y-32505D01*
X56496Y-32501D01*
X56534Y-32504D01*
X56572Y-32514D01*
X56607Y-32532D01*
X56637Y-32556D01*
X56663Y-32585D01*
X56682Y-32619D01*
X56695Y-32656D01*
X56699Y-32695D01*
X56700Y-32700D01*
X56300Y-32500D02*
X56700Y-32900D01*
X56700Y-32500D02*
X56300Y-32900D01*
X57700Y-32700D02*
X57696Y-32738D01*
X57684Y-32776D01*
X57666Y-32810D01*
X57641Y-32840D01*
X57611Y-32865D01*
X57577Y-32884D01*
X57540Y-32895D01*
X57501Y-32899D01*
X57463Y-32896D01*
X57426Y-32885D01*
X57391Y-32867D01*
X57361Y-32842D01*
X57335Y-32812D01*
X57317Y-32778D01*
X57305Y-32741D01*
X57301Y-32702D01*
X57304Y-32664D01*
X57315Y-32627D01*
X57332Y-32592D01*
X57357Y-32562D01*
X57386Y-32536D01*
X57420Y-32517D01*
X57458Y-32505D01*
X57496Y-32501D01*
X57534Y-32504D01*
X57572Y-32514D01*
X57607Y-32532D01*
X57637Y-32556D01*
X57663Y-32585D01*
X57682Y-32619D01*
X57695Y-32656D01*
X57699Y-32695D01*
X57700Y-32700D01*
X57300Y-32500D02*
X57700Y-32900D01*
X57700Y-32500D02*
X57300Y-32900D01*
X58700Y-32700D02*
X58696Y-32738D01*
X58684Y-32776D01*
X58666Y-32810D01*
X58641Y-32840D01*
X58611Y-32865D01*
X58577Y-32884D01*
X58540Y-32895D01*
X58501Y-32899D01*
X58463Y-32896D01*
X58426Y-32885D01*
X58391Y-32867D01*
X58361Y-32842D01*
X58335Y-32812D01*
X58317Y-32778D01*
X58305Y-32741D01*
X58301Y-32702D01*
X58304Y-32664D01*
X58315Y-32627D01*
X58332Y-32592D01*
X58357Y-32562D01*
X58386Y-32536D01*
X58420Y-32517D01*
X58458Y-32505D01*
X58496Y-32501D01*
X58534Y-32504D01*
X58572Y-32514D01*
X58607Y-32532D01*
X58637Y-32556D01*
X58663Y-32585D01*
X58682Y-32619D01*
X58695Y-32656D01*
X58699Y-32695D01*
X58700Y-32700D01*
X58300Y-32500D02*
X58700Y-32900D01*
X58700Y-32500D02*
X58300Y-32900D01*
X59700Y-32700D02*
X59696Y-32738D01*
X59684Y-32776D01*
X59666Y-32810D01*
X59641Y-32840D01*
X59611Y-32865D01*
X59577Y-32884D01*
X59540Y-32895D01*
X59501Y-32899D01*
X59463Y-32896D01*
X59426Y-32885D01*
X59391Y-32867D01*
X59361Y-32842D01*
X59335Y-32812D01*
X59317Y-32778D01*
X59305Y-32741D01*
X59301Y-32702D01*
X59304Y-32664D01*
X59315Y-32627D01*
X59332Y-32592D01*
X59357Y-32562D01*
X59386Y-32536D01*
X59420Y-32517D01*
X59458Y-32505D01*
X59496Y-32501D01*
X59534Y-32504D01*
X59572Y-32514D01*
X59607Y-32532D01*
X59637Y-32556D01*
X59663Y-32585D01*
X59682Y-32619D01*
X59695Y-32656D01*
X59699Y-32695D01*
X59700Y-32700D01*
X59300Y-32500D02*
X59700Y-32900D01*
X59700Y-32500D02*
X59300Y-32900D01*
X67700Y-32500D02*
X67696Y-32538D01*
X67684Y-32576D01*
X67666Y-32610D01*
X67641Y-32640D01*
X67611Y-32665D01*
X67577Y-32684D01*
X67540Y-32695D01*
X67501Y-32699D01*
X67463Y-32696D01*
X67426Y-32685D01*
X67391Y-32667D01*
X67361Y-32642D01*
X67335Y-32612D01*
X67317Y-32578D01*
X67305Y-32541D01*
X67301Y-32502D01*
X67304Y-32464D01*
X67315Y-32427D01*
X67332Y-32392D01*
X67357Y-32362D01*
X67386Y-32336D01*
X67420Y-32317D01*
X67458Y-32305D01*
X67496Y-32301D01*
X67534Y-32304D01*
X67572Y-32314D01*
X67607Y-32332D01*
X67637Y-32356D01*
X67663Y-32385D01*
X67682Y-32419D01*
X67695Y-32456D01*
X67699Y-32495D01*
X67700Y-32500D01*
X67300Y-32300D02*
X67700Y-32700D01*
X67700Y-32300D02*
X67300Y-32700D01*
X68700Y-32500D02*
X68696Y-32538D01*
X68684Y-32576D01*
X68666Y-32610D01*
X68641Y-32640D01*
X68611Y-32665D01*
X68577Y-32684D01*
X68540Y-32695D01*
X68501Y-32699D01*
X68463Y-32696D01*
X68426Y-32685D01*
X68391Y-32667D01*
X68361Y-32642D01*
X68335Y-32612D01*
X68317Y-32578D01*
X68305Y-32541D01*
X68301Y-32502D01*
X68304Y-32464D01*
X68315Y-32427D01*
X68332Y-32392D01*
X68357Y-32362D01*
X68386Y-32336D01*
X68420Y-32317D01*
X68458Y-32305D01*
X68496Y-32301D01*
X68534Y-32304D01*
X68572Y-32314D01*
X68607Y-32332D01*
X68637Y-32356D01*
X68663Y-32385D01*
X68682Y-32419D01*
X68695Y-32456D01*
X68699Y-32495D01*
X68700Y-32500D01*
X68300Y-32300D02*
X68700Y-32700D01*
X68700Y-32300D02*
X68300Y-32700D01*
X78600Y-40500D02*
X78596Y-40538D01*
X78584Y-40576D01*
X78566Y-40610D01*
X78541Y-40640D01*
X78511Y-40665D01*
X78477Y-40684D01*
X78440Y-40695D01*
X78401Y-40699D01*
X78363Y-40696D01*
X78326Y-40685D01*
X78291Y-40667D01*
X78261Y-40642D01*
X78235Y-40612D01*
X78217Y-40578D01*
X78205Y-40541D01*
X78201Y-40502D01*
X78204Y-40464D01*
X78215Y-40427D01*
X78232Y-40392D01*
X78257Y-40362D01*
X78286Y-40336D01*
X78320Y-40317D01*
X78358Y-40305D01*
X78396Y-40301D01*
X78434Y-40304D01*
X78472Y-40314D01*
X78507Y-40332D01*
X78537Y-40356D01*
X78563Y-40385D01*
X78582Y-40419D01*
X78595Y-40456D01*
X78599Y-40495D01*
X78600Y-40500D01*
X78200Y-40300D02*
X78600Y-40700D01*
X78600Y-40300D02*
X78200Y-40700D01*
X78600Y-41500D02*
X78596Y-41538D01*
X78584Y-41576D01*
X78566Y-41610D01*
X78541Y-41640D01*
X78511Y-41665D01*
X78477Y-41684D01*
X78440Y-41695D01*
X78401Y-41699D01*
X78363Y-41696D01*
X78326Y-41685D01*
X78291Y-41667D01*
X78261Y-41642D01*
X78235Y-41612D01*
X78217Y-41578D01*
X78205Y-41541D01*
X78201Y-41502D01*
X78204Y-41464D01*
X78215Y-41427D01*
X78232Y-41392D01*
X78257Y-41362D01*
X78286Y-41336D01*
X78320Y-41317D01*
X78358Y-41305D01*
X78396Y-41301D01*
X78434Y-41304D01*
X78472Y-41314D01*
X78507Y-41332D01*
X78537Y-41356D01*
X78563Y-41385D01*
X78582Y-41419D01*
X78595Y-41456D01*
X78599Y-41495D01*
X78600Y-41500D01*
X78200Y-41300D02*
X78600Y-41700D01*
X78600Y-41300D02*
X78200Y-41700D01*
X78600Y-45180D02*
X78596Y-45218D01*
X78584Y-45256D01*
X78566Y-45290D01*
X78541Y-45320D01*
X78511Y-45345D01*
X78477Y-45364D01*
X78440Y-45375D01*
X78401Y-45379D01*
X78363Y-45376D01*
X78326Y-45365D01*
X78291Y-45347D01*
X78261Y-45322D01*
X78235Y-45292D01*
X78217Y-45258D01*
X78205Y-45221D01*
X78201Y-45182D01*
X78204Y-45144D01*
X78215Y-45107D01*
X78232Y-45072D01*
X78257Y-45042D01*
X78286Y-45016D01*
X78320Y-44997D01*
X78358Y-44985D01*
X78396Y-44981D01*
X78434Y-44984D01*
X78472Y-44994D01*
X78507Y-45012D01*
X78537Y-45036D01*
X78563Y-45065D01*
X78582Y-45099D01*
X78595Y-45136D01*
X78599Y-45175D01*
X78600Y-45180D01*
X78200Y-44980D02*
X78600Y-45380D01*
X78600Y-44980D02*
X78200Y-45380D01*
X78600Y-46180D02*
X78596Y-46218D01*
X78584Y-46256D01*
X78566Y-46290D01*
X78541Y-46320D01*
X78511Y-46345D01*
X78477Y-46364D01*
X78440Y-46375D01*
X78401Y-46379D01*
X78363Y-46376D01*
X78326Y-46365D01*
X78291Y-46347D01*
X78261Y-46322D01*
X78235Y-46292D01*
X78217Y-46258D01*
X78205Y-46221D01*
X78201Y-46182D01*
X78204Y-46144D01*
X78215Y-46107D01*
X78232Y-46072D01*
X78257Y-46042D01*
X78286Y-46016D01*
X78320Y-45997D01*
X78358Y-45985D01*
X78396Y-45981D01*
X78434Y-45984D01*
X78472Y-45994D01*
X78507Y-46012D01*
X78537Y-46036D01*
X78563Y-46065D01*
X78582Y-46099D01*
X78595Y-46136D01*
X78599Y-46175D01*
X78600Y-46180D01*
X78200Y-45980D02*
X78600Y-46380D01*
X78600Y-45980D02*
X78200Y-46380D01*
X36225Y-32500D02*
X36220Y-32543D01*
X36208Y-32585D01*
X36187Y-32624D01*
X36159Y-32658D01*
X36125Y-32686D01*
X36087Y-32707D01*
X36045Y-32720D01*
X36001Y-32724D01*
X35958Y-32721D01*
X35916Y-32708D01*
X35877Y-32688D01*
X35843Y-32660D01*
X35815Y-32627D01*
X35794Y-32588D01*
X35780Y-32546D01*
X35776Y-32503D01*
X35779Y-32460D01*
X35791Y-32418D01*
X35811Y-32379D01*
X35839Y-32344D01*
X35872Y-32316D01*
X35910Y-32294D01*
X35952Y-32281D01*
X35996Y-32276D01*
X36039Y-32279D01*
X36081Y-32291D01*
X36120Y-32311D01*
X36155Y-32338D01*
X36183Y-32371D01*
X36205Y-32409D01*
X36219Y-32451D01*
X36224Y-32494D01*
X36225Y-32500D01*
X35775Y-32500D02*
X36225Y-32500D01*
X36225Y-33500D02*
X36220Y-33543D01*
X36208Y-33585D01*
X36187Y-33624D01*
X36159Y-33658D01*
X36125Y-33686D01*
X36087Y-33707D01*
X36045Y-33720D01*
X36001Y-33724D01*
X35958Y-33721D01*
X35916Y-33708D01*
X35877Y-33688D01*
X35843Y-33660D01*
X35815Y-33627D01*
X35794Y-33588D01*
X35780Y-33546D01*
X35776Y-33503D01*
X35779Y-33460D01*
X35791Y-33418D01*
X35811Y-33379D01*
X35839Y-33344D01*
X35872Y-33316D01*
X35910Y-33294D01*
X35952Y-33281D01*
X35996Y-33276D01*
X36039Y-33279D01*
X36081Y-33291D01*
X36120Y-33311D01*
X36155Y-33338D01*
X36183Y-33371D01*
X36205Y-33409D01*
X36219Y-33451D01*
X36224Y-33494D01*
X36225Y-33500D01*
X35775Y-33500D02*
X36225Y-33500D01*
X36225Y-34500D02*
X36220Y-34543D01*
X36208Y-34585D01*
X36187Y-34624D01*
X36159Y-34658D01*
X36125Y-34686D01*
X36087Y-34707D01*
X36045Y-34720D01*
X36001Y-34724D01*
X35958Y-34721D01*
X35916Y-34708D01*
X35877Y-34688D01*
X35843Y-34660D01*
X35815Y-34627D01*
X35794Y-34588D01*
X35780Y-34546D01*
X35776Y-34503D01*
X35779Y-34460D01*
X35791Y-34418D01*
X35811Y-34379D01*
X35839Y-34344D01*
X35872Y-34316D01*
X35910Y-34294D01*
X35952Y-34281D01*
X35996Y-34276D01*
X36039Y-34279D01*
X36081Y-34291D01*
X36120Y-34311D01*
X36155Y-34338D01*
X36183Y-34371D01*
X36205Y-34409D01*
X36219Y-34451D01*
X36224Y-34494D01*
X36225Y-34500D01*
X35775Y-34500D02*
X36225Y-34500D01*
X36425Y-38500D02*
X36420Y-38543D01*
X36408Y-38585D01*
X36387Y-38624D01*
X36359Y-38658D01*
X36325Y-38686D01*
X36287Y-38707D01*
X36245Y-38720D01*
X36201Y-38724D01*
X36158Y-38721D01*
X36116Y-38708D01*
X36077Y-38688D01*
X36043Y-38660D01*
X36015Y-38627D01*
X35994Y-38588D01*
X35980Y-38546D01*
X35976Y-38503D01*
X35979Y-38460D01*
X35991Y-38418D01*
X36011Y-38379D01*
X36039Y-38344D01*
X36072Y-38316D01*
X36110Y-38294D01*
X36152Y-38281D01*
X36196Y-38276D01*
X36239Y-38279D01*
X36281Y-38291D01*
X36320Y-38311D01*
X36355Y-38338D01*
X36383Y-38371D01*
X36405Y-38409D01*
X36419Y-38451D01*
X36424Y-38494D01*
X36425Y-38500D01*
X35975Y-38500D02*
X36425Y-38500D01*
X36425Y-39500D02*
X36420Y-39543D01*
X36408Y-39585D01*
X36387Y-39624D01*
X36359Y-39658D01*
X36325Y-39686D01*
X36287Y-39707D01*
X36245Y-39720D01*
X36201Y-39724D01*
X36158Y-39721D01*
X36116Y-39708D01*
X36077Y-39688D01*
X36043Y-39660D01*
X36015Y-39627D01*
X35994Y-39588D01*
X35980Y-39546D01*
X35976Y-39503D01*
X35979Y-39460D01*
X35991Y-39418D01*
X36011Y-39379D01*
X36039Y-39344D01*
X36072Y-39316D01*
X36110Y-39294D01*
X36152Y-39281D01*
X36196Y-39276D01*
X36239Y-39279D01*
X36281Y-39291D01*
X36320Y-39311D01*
X36355Y-39338D01*
X36383Y-39371D01*
X36405Y-39409D01*
X36419Y-39451D01*
X36424Y-39494D01*
X36425Y-39500D01*
X35975Y-39500D02*
X36425Y-39500D01*
X36425Y-40500D02*
X36420Y-40543D01*
X36408Y-40585D01*
X36387Y-40624D01*
X36359Y-40658D01*
X36325Y-40686D01*
X36287Y-40707D01*
X36245Y-40720D01*
X36201Y-40724D01*
X36158Y-40721D01*
X36116Y-40708D01*
X36077Y-40688D01*
X36043Y-40660D01*
X36015Y-40627D01*
X35994Y-40588D01*
X35980Y-40546D01*
X35976Y-40503D01*
X35979Y-40460D01*
X35991Y-40418D01*
X36011Y-40379D01*
X36039Y-40344D01*
X36072Y-40316D01*
X36110Y-40294D01*
X36152Y-40281D01*
X36196Y-40276D01*
X36239Y-40279D01*
X36281Y-40291D01*
X36320Y-40311D01*
X36355Y-40338D01*
X36383Y-40371D01*
X36405Y-40409D01*
X36419Y-40451D01*
X36424Y-40494D01*
X36425Y-40500D01*
X35975Y-40500D02*
X36425Y-40500D01*
X36425Y-43700D02*
X36420Y-43743D01*
X36408Y-43785D01*
X36387Y-43824D01*
X36359Y-43858D01*
X36325Y-43886D01*
X36287Y-43907D01*
X36245Y-43920D01*
X36201Y-43924D01*
X36158Y-43921D01*
X36116Y-43908D01*
X36077Y-43888D01*
X36043Y-43860D01*
X36015Y-43827D01*
X35994Y-43788D01*
X35980Y-43746D01*
X35976Y-43703D01*
X35979Y-43660D01*
X35991Y-43618D01*
X36011Y-43579D01*
X36039Y-43544D01*
X36072Y-43516D01*
X36110Y-43494D01*
X36152Y-43481D01*
X36196Y-43476D01*
X36239Y-43479D01*
X36281Y-43491D01*
X36320Y-43511D01*
X36355Y-43538D01*
X36383Y-43571D01*
X36405Y-43609D01*
X36419Y-43651D01*
X36424Y-43694D01*
X36425Y-43700D01*
X35975Y-43700D02*
X36425Y-43700D01*
X36425Y-44700D02*
X36420Y-44743D01*
X36408Y-44785D01*
X36387Y-44824D01*
X36359Y-44858D01*
X36325Y-44886D01*
X36287Y-44907D01*
X36245Y-44920D01*
X36201Y-44924D01*
X36158Y-44921D01*
X36116Y-44908D01*
X36077Y-44888D01*
X36043Y-44860D01*
X36015Y-44827D01*
X35994Y-44788D01*
X35980Y-44746D01*
X35976Y-44703D01*
X35979Y-44660D01*
X35991Y-44618D01*
X36011Y-44579D01*
X36039Y-44544D01*
X36072Y-44516D01*
X36110Y-44494D01*
X36152Y-44481D01*
X36196Y-44476D01*
X36239Y-44479D01*
X36281Y-44491D01*
X36320Y-44511D01*
X36355Y-44538D01*
X36383Y-44571D01*
X36405Y-44609D01*
X36419Y-44651D01*
X36424Y-44694D01*
X36425Y-44700D01*
X35975Y-44700D02*
X36425Y-44700D01*
X36425Y-45700D02*
X36420Y-45743D01*
X36408Y-45785D01*
X36387Y-45824D01*
X36359Y-45858D01*
X36325Y-45886D01*
X36287Y-45907D01*
X36245Y-45920D01*
X36201Y-45924D01*
X36158Y-45921D01*
X36116Y-45908D01*
X36077Y-45888D01*
X36043Y-45860D01*
X36015Y-45827D01*
X35994Y-45788D01*
X35980Y-45746D01*
X35976Y-45703D01*
X35979Y-45660D01*
X35991Y-45618D01*
X36011Y-45579D01*
X36039Y-45544D01*
X36072Y-45516D01*
X36110Y-45494D01*
X36152Y-45481D01*
X36196Y-45476D01*
X36239Y-45479D01*
X36281Y-45491D01*
X36320Y-45511D01*
X36355Y-45538D01*
X36383Y-45571D01*
X36405Y-45609D01*
X36419Y-45651D01*
X36424Y-45694D01*
X36425Y-45700D01*
X35975Y-45700D02*
X36425Y-45700D01*
X31806Y-37900D02*
X31801Y-37949D01*
X31786Y-37997D01*
X31763Y-38041D01*
X31731Y-38080D01*
X31693Y-38112D01*
X31649Y-38135D01*
X31601Y-38150D01*
X31551Y-38155D01*
X31503Y-38151D01*
X31455Y-38137D01*
X31410Y-38114D01*
X31371Y-38082D01*
X31339Y-38044D01*
X31315Y-38000D01*
X31300Y-37953D01*
X31295Y-37903D01*
X31299Y-37854D01*
X31312Y-37806D01*
X31335Y-37762D01*
X31366Y-37723D01*
X31404Y-37690D01*
X31448Y-37666D01*
X31496Y-37650D01*
X31545Y-37645D01*
X31594Y-37648D01*
X31642Y-37662D01*
X31687Y-37684D01*
X31726Y-37715D01*
X31759Y-37753D01*
X31783Y-37796D01*
X31799Y-37844D01*
X31805Y-37893D01*
X31806Y-37900D01*
X31550Y-37644D02*
X31550Y-38156D01*
X31806Y-39900D02*
X31801Y-39949D01*
X31786Y-39997D01*
X31763Y-40041D01*
X31731Y-40080D01*
X31693Y-40112D01*
X31649Y-40135D01*
X31601Y-40150D01*
X31551Y-40155D01*
X31503Y-40151D01*
X31455Y-40137D01*
X31410Y-40114D01*
X31371Y-40082D01*
X31339Y-40044D01*
X31315Y-40000D01*
X31300Y-39953D01*
X31295Y-39903D01*
X31299Y-39854D01*
X31312Y-39806D01*
X31335Y-39762D01*
X31366Y-39723D01*
X31404Y-39690D01*
X31448Y-39666D01*
X31496Y-39650D01*
X31545Y-39645D01*
X31594Y-39648D01*
X31642Y-39662D01*
X31687Y-39684D01*
X31726Y-39715D01*
X31759Y-39753D01*
X31783Y-39796D01*
X31799Y-39844D01*
X31805Y-39893D01*
X31806Y-39900D01*
X31550Y-39644D02*
X31550Y-40156D01*
X31856Y-43550D02*
X31851Y-43599D01*
X31836Y-43647D01*
X31813Y-43691D01*
X31781Y-43730D01*
X31743Y-43762D01*
X31699Y-43785D01*
X31651Y-43800D01*
X31601Y-43805D01*
X31553Y-43801D01*
X31505Y-43787D01*
X31460Y-43764D01*
X31421Y-43732D01*
X31389Y-43694D01*
X31365Y-43650D01*
X31350Y-43603D01*
X31345Y-43553D01*
X31349Y-43504D01*
X31362Y-43456D01*
X31385Y-43412D01*
X31416Y-43373D01*
X31454Y-43340D01*
X31498Y-43316D01*
X31546Y-43300D01*
X31595Y-43295D01*
X31644Y-43298D01*
X31692Y-43312D01*
X31737Y-43334D01*
X31776Y-43365D01*
X31809Y-43403D01*
X31833Y-43446D01*
X31849Y-43494D01*
X31855Y-43543D01*
X31856Y-43550D01*
X31600Y-43294D02*
X31600Y-43806D01*
X31856Y-45550D02*
X31851Y-45599D01*
X31836Y-45647D01*
X31813Y-45691D01*
X31781Y-45730D01*
X31743Y-45762D01*
X31699Y-45785D01*
X31651Y-45800D01*
X31601Y-45805D01*
X31553Y-45801D01*
X31505Y-45787D01*
X31460Y-45764D01*
X31421Y-45732D01*
X31389Y-45694D01*
X31365Y-45650D01*
X31350Y-45603D01*
X31345Y-45553D01*
X31349Y-45504D01*
X31362Y-45456D01*
X31385Y-45412D01*
X31416Y-45373D01*
X31454Y-45340D01*
X31498Y-45316D01*
X31546Y-45300D01*
X31595Y-45295D01*
X31644Y-45298D01*
X31692Y-45312D01*
X31737Y-45334D01*
X31776Y-45365D01*
X31809Y-45403D01*
X31833Y-45446D01*
X31849Y-45494D01*
X31855Y-45543D01*
X31856Y-45550D01*
X31600Y-45294D02*
X31600Y-45806D01*
X31906Y-32400D02*
X31901Y-32449D01*
X31886Y-32497D01*
X31863Y-32541D01*
X31831Y-32580D01*
X31793Y-32612D01*
X31749Y-32635D01*
X31701Y-32650D01*
X31651Y-32655D01*
X31603Y-32651D01*
X31555Y-32637D01*
X31510Y-32614D01*
X31471Y-32582D01*
X31439Y-32544D01*
X31415Y-32500D01*
X31400Y-32453D01*
X31395Y-32403D01*
X31399Y-32354D01*
X31412Y-32306D01*
X31435Y-32262D01*
X31466Y-32223D01*
X31504Y-32190D01*
X31548Y-32166D01*
X31596Y-32150D01*
X31645Y-32145D01*
X31694Y-32148D01*
X31742Y-32162D01*
X31787Y-32184D01*
X31826Y-32215D01*
X31859Y-32253D01*
X31883Y-32296D01*
X31899Y-32344D01*
X31905Y-32393D01*
X31906Y-32400D01*
X31650Y-32144D02*
X31650Y-32656D01*
X31906Y-34400D02*
X31901Y-34449D01*
X31886Y-34497D01*
X31863Y-34541D01*
X31831Y-34580D01*
X31793Y-34612D01*
X31749Y-34635D01*
X31701Y-34650D01*
X31651Y-34655D01*
X31603Y-34651D01*
X31555Y-34637D01*
X31510Y-34614D01*
X31471Y-34582D01*
X31439Y-34544D01*
X31415Y-34500D01*
X31400Y-34453D01*
X31395Y-34403D01*
X31399Y-34354D01*
X31412Y-34306D01*
X31435Y-34262D01*
X31466Y-34223D01*
X31504Y-34190D01*
X31548Y-34166D01*
X31596Y-34150D01*
X31645Y-34145D01*
X31694Y-34148D01*
X31742Y-34162D01*
X31787Y-34184D01*
X31826Y-34215D01*
X31859Y-34253D01*
X31883Y-34296D01*
X31899Y-34344D01*
X31905Y-34393D01*
X31906Y-34400D01*
X31650Y-34144D02*
X31650Y-34656D01*
X42924Y-33924D02*
X42924Y-33076D01*
X42076Y-33076D01*
X42076Y-33924D01*
X42924Y-33924D01*
X43124Y-39924D02*
X43124Y-39076D01*
X42276Y-39076D01*
X42276Y-39924D01*
X43124Y-39924D01*
X43124Y-45124D02*
X43124Y-44276D01*
X42276Y-44276D01*
X42276Y-45124D01*
X43124Y-45124D01*
G54D12*
X29500Y-49801D02*
X29500Y-49001D01*
X29691Y-49001D01*
X29805Y-49039D01*
X29881Y-49115D01*
X29920Y-49191D01*
X29958Y-49344D01*
X29958Y-49458D01*
X29920Y-49610D01*
X29881Y-49687D01*
X29805Y-49763D01*
X29691Y-49801D01*
X29500Y-49801D01*
X30300Y-49801D02*
X30300Y-49267D01*
X30300Y-49420D02*
X30339Y-49344D01*
X30377Y-49306D01*
X30453Y-49267D01*
X30529Y-49267D01*
X30795Y-49801D02*
X30795Y-49267D01*
X30795Y-49001D02*
X30757Y-49039D01*
X30795Y-49077D01*
X30834Y-49039D01*
X30795Y-49001D01*
X30795Y-49077D01*
X31291Y-49801D02*
X31215Y-49763D01*
X31176Y-49687D01*
X31176Y-49001D01*
X31710Y-49801D02*
X31634Y-49763D01*
X31595Y-49687D01*
X31595Y-49001D01*
X32624Y-49801D02*
X32624Y-49001D01*
X32891Y-49572D01*
X33158Y-49001D01*
X33158Y-49801D01*
X33881Y-49801D02*
X33881Y-49382D01*
X33843Y-49306D01*
X33767Y-49267D01*
X33615Y-49267D01*
X33538Y-49306D01*
X33881Y-49763D02*
X33805Y-49801D01*
X33615Y-49801D01*
X33538Y-49763D01*
X33500Y-49687D01*
X33500Y-49610D01*
X33538Y-49534D01*
X33615Y-49496D01*
X33805Y-49496D01*
X33881Y-49458D01*
X34262Y-49267D02*
X34262Y-50067D01*
X34262Y-49306D02*
X34339Y-49267D01*
X34491Y-49267D01*
X34567Y-49306D01*
X34605Y-49344D01*
X34643Y-49420D01*
X34643Y-49648D01*
X34605Y-49725D01*
X34567Y-49763D01*
X34491Y-49801D01*
X34339Y-49801D01*
X34262Y-49763D01*
X34986Y-49725D02*
X35025Y-49763D01*
X34986Y-49801D01*
X34948Y-49763D01*
X34986Y-49725D01*
X34986Y-49801D01*
X34986Y-49306D02*
X35025Y-49344D01*
X34986Y-49382D01*
X34948Y-49344D01*
X34986Y-49306D01*
X34986Y-49382D01*
X28860Y-51032D02*
X29110Y-51282D01*
X29110Y-51032D02*
X28860Y-51282D01*
X29653Y-50681D02*
X29729Y-50681D01*
X29805Y-50719D01*
X29843Y-50757D01*
X29881Y-50833D01*
X29920Y-50986D01*
X29920Y-51176D01*
X29881Y-51328D01*
X29843Y-51405D01*
X29805Y-51443D01*
X29729Y-51481D01*
X29653Y-51481D01*
X29577Y-51443D01*
X29539Y-51405D01*
X29500Y-51328D01*
X29462Y-51176D01*
X29462Y-50986D01*
X29500Y-50833D01*
X29539Y-50757D01*
X29577Y-50719D01*
X29653Y-50681D01*
X30262Y-51405D02*
X30301Y-51443D01*
X30262Y-51481D01*
X30224Y-51443D01*
X30262Y-51405D01*
X30262Y-51481D01*
X30986Y-50681D02*
X30834Y-50681D01*
X30758Y-50719D01*
X30720Y-50757D01*
X30643Y-50871D01*
X30605Y-51024D01*
X30605Y-51328D01*
X30643Y-51405D01*
X30682Y-51443D01*
X30758Y-51481D01*
X30910Y-51481D01*
X30986Y-51443D01*
X31024Y-51405D01*
X31063Y-51328D01*
X31063Y-51138D01*
X31024Y-51062D01*
X30986Y-51024D01*
X30910Y-50986D01*
X30758Y-50986D01*
X30682Y-51024D01*
X30643Y-51062D01*
X30605Y-51138D01*
X31748Y-50947D02*
X31748Y-51481D01*
X31558Y-50643D02*
X31367Y-51214D01*
X31863Y-51214D01*
X32167Y-51481D02*
X32167Y-50947D01*
X32167Y-51024D02*
X32206Y-50986D01*
X32282Y-50947D01*
X32396Y-50947D01*
X32472Y-50986D01*
X32510Y-51062D01*
X32510Y-51481D01*
X32510Y-51062D02*
X32548Y-50986D01*
X32625Y-50947D01*
X32739Y-50947D01*
X32815Y-50986D01*
X32853Y-51062D01*
X32853Y-51481D01*
X33234Y-51481D02*
X33234Y-50947D01*
X33234Y-51024D02*
X33273Y-50986D01*
X33349Y-50947D01*
X33463Y-50947D01*
X33539Y-50986D01*
X33577Y-51062D01*
X33577Y-51481D01*
X33577Y-51062D02*
X33615Y-50986D01*
X33692Y-50947D01*
X33806Y-50947D01*
X33882Y-50986D01*
X33920Y-51062D01*
X33920Y-51481D01*
X35483Y-50643D02*
X34797Y-51671D01*
X36512Y-50681D02*
X36588Y-50681D01*
X36664Y-50719D01*
X36702Y-50757D01*
X36740Y-50833D01*
X36779Y-50986D01*
X36779Y-51176D01*
X36740Y-51328D01*
X36702Y-51405D01*
X36664Y-51443D01*
X36588Y-51481D01*
X36512Y-51481D01*
X36436Y-51443D01*
X36398Y-51405D01*
X36359Y-51328D01*
X36321Y-51176D01*
X36321Y-50986D01*
X36359Y-50833D01*
X36398Y-50757D01*
X36436Y-50719D01*
X36512Y-50681D01*
X37121Y-51405D02*
X37160Y-51443D01*
X37121Y-51481D01*
X37083Y-51443D01*
X37121Y-51405D01*
X37121Y-51481D01*
X37655Y-50681D02*
X37731Y-50681D01*
X37807Y-50719D01*
X37845Y-50757D01*
X37883Y-50833D01*
X37922Y-50986D01*
X37922Y-51176D01*
X37883Y-51328D01*
X37845Y-51405D01*
X37807Y-51443D01*
X37731Y-51481D01*
X37655Y-51481D01*
X37579Y-51443D01*
X37541Y-51405D01*
X37502Y-51328D01*
X37464Y-51176D01*
X37464Y-50986D01*
X37502Y-50833D01*
X37541Y-50757D01*
X37579Y-50719D01*
X37655Y-50681D01*
X38226Y-50757D02*
X38264Y-50719D01*
X38341Y-50681D01*
X38531Y-50681D01*
X38607Y-50719D01*
X38645Y-50757D01*
X38684Y-50833D01*
X38684Y-50909D01*
X38645Y-51024D01*
X38188Y-51481D01*
X38684Y-51481D01*
X39407Y-50681D02*
X39026Y-50681D01*
X38988Y-51062D01*
X39026Y-51024D01*
X39103Y-50986D01*
X39293Y-50986D01*
X39369Y-51024D01*
X39407Y-51062D01*
X39446Y-51138D01*
X39446Y-51328D01*
X39407Y-51405D01*
X39369Y-51443D01*
X39293Y-51481D01*
X39103Y-51481D01*
X39026Y-51443D01*
X38988Y-51405D01*
X39750Y-50681D02*
X39750Y-50833D01*
X40055Y-50681D02*
X40055Y-50833D01*
X41237Y-51786D02*
X41199Y-51747D01*
X41123Y-51633D01*
X41085Y-51557D01*
X41047Y-51443D01*
X41008Y-51252D01*
X41008Y-51100D01*
X41047Y-50909D01*
X41085Y-50795D01*
X41123Y-50719D01*
X41199Y-50605D01*
X41237Y-50567D01*
X41961Y-51481D02*
X41503Y-51481D01*
X41732Y-51481D02*
X41732Y-50681D01*
X41656Y-50795D01*
X41580Y-50871D01*
X41503Y-50909D01*
X42265Y-50757D02*
X42303Y-50719D01*
X42380Y-50681D01*
X42570Y-50681D01*
X42646Y-50719D01*
X42684Y-50757D01*
X42723Y-50833D01*
X42723Y-50909D01*
X42684Y-51024D01*
X42227Y-51481D01*
X42723Y-51481D01*
X43408Y-50947D02*
X43408Y-51481D01*
X43218Y-50643D02*
X43027Y-51214D01*
X43523Y-51214D01*
X44437Y-51481D02*
X44437Y-50681D01*
X44780Y-51481D02*
X44780Y-51062D01*
X44742Y-50986D01*
X44666Y-50947D01*
X44552Y-50947D01*
X44476Y-50986D01*
X44437Y-51024D01*
X45276Y-51481D02*
X45200Y-51443D01*
X45161Y-51405D01*
X45123Y-51328D01*
X45123Y-51100D01*
X45161Y-51024D01*
X45200Y-50986D01*
X45276Y-50947D01*
X45390Y-50947D01*
X45466Y-50986D01*
X45504Y-51024D01*
X45542Y-51100D01*
X45542Y-51328D01*
X45504Y-51405D01*
X45466Y-51443D01*
X45390Y-51481D01*
X45276Y-51481D01*
X46000Y-51481D02*
X45924Y-51443D01*
X45885Y-51367D01*
X45885Y-50681D01*
X46609Y-51443D02*
X46533Y-51481D01*
X46381Y-51481D01*
X46304Y-51443D01*
X46266Y-51367D01*
X46266Y-51062D01*
X46304Y-50986D01*
X46381Y-50947D01*
X46533Y-50947D01*
X46609Y-50986D01*
X46647Y-51062D01*
X46647Y-51138D01*
X46266Y-51214D01*
X46952Y-51443D02*
X47029Y-51481D01*
X47181Y-51481D01*
X47257Y-51443D01*
X47295Y-51367D01*
X47295Y-51328D01*
X47257Y-51252D01*
X47181Y-51214D01*
X47067Y-51214D01*
X46990Y-51176D01*
X46952Y-51100D01*
X46952Y-51062D01*
X46990Y-50986D01*
X47067Y-50947D01*
X47181Y-50947D01*
X47257Y-50986D01*
X47562Y-51786D02*
X47600Y-51747D01*
X47677Y-51633D01*
X47715Y-51557D01*
X47753Y-51443D01*
X47791Y-51252D01*
X47791Y-51100D01*
X47753Y-50909D01*
X47715Y-50795D01*
X47677Y-50719D01*
X47600Y-50605D01*
X47562Y-50567D01*
G54D10*
X29110Y-52212D02*
X29106Y-52243D01*
X29097Y-52272D01*
X29083Y-52300D01*
X29063Y-52324D01*
X29039Y-52344D01*
X29012Y-52359D01*
X28982Y-52368D01*
X28951Y-52371D01*
X28921Y-52369D01*
X28891Y-52360D01*
X28863Y-52345D01*
X28839Y-52326D01*
X28818Y-52302D01*
X28803Y-52275D01*
X28794Y-52245D01*
X28791Y-52214D01*
X28793Y-52184D01*
X28802Y-52154D01*
X28816Y-52126D01*
X28835Y-52101D01*
X28859Y-52081D01*
X28886Y-52066D01*
X28916Y-52056D01*
X28947Y-52053D01*
X28977Y-52055D01*
X29007Y-52063D01*
X29035Y-52077D01*
X29060Y-52097D01*
X29080Y-52120D01*
X29096Y-52147D01*
X29106Y-52177D01*
X29109Y-52208D01*
X29110Y-52212D01*
G54D12*
X29653Y-51736D02*
X29729Y-51736D01*
X29805Y-51774D01*
X29843Y-51812D01*
X29881Y-51888D01*
X29920Y-52041D01*
X29920Y-52231D01*
X29881Y-52383D01*
X29843Y-52460D01*
X29805Y-52498D01*
X29729Y-52536D01*
X29653Y-52536D01*
X29577Y-52498D01*
X29539Y-52460D01*
X29500Y-52383D01*
X29462Y-52231D01*
X29462Y-52041D01*
X29500Y-51888D01*
X29539Y-51812D01*
X29577Y-51774D01*
X29653Y-51736D01*
X30262Y-52460D02*
X30301Y-52498D01*
X30262Y-52536D01*
X30224Y-52498D01*
X30262Y-52460D01*
X30262Y-52536D01*
X30758Y-52079D02*
X30682Y-52041D01*
X30643Y-52002D01*
X30605Y-51926D01*
X30605Y-51888D01*
X30643Y-51812D01*
X30682Y-51774D01*
X30758Y-51736D01*
X30910Y-51736D01*
X30986Y-51774D01*
X31024Y-51812D01*
X31063Y-51888D01*
X31063Y-51926D01*
X31024Y-52002D01*
X30986Y-52041D01*
X30910Y-52079D01*
X30758Y-52079D01*
X30682Y-52117D01*
X30643Y-52155D01*
X30605Y-52231D01*
X30605Y-52383D01*
X30643Y-52460D01*
X30682Y-52498D01*
X30758Y-52536D01*
X30910Y-52536D01*
X30986Y-52498D01*
X31024Y-52460D01*
X31063Y-52383D01*
X31063Y-52231D01*
X31024Y-52155D01*
X30986Y-52117D01*
X30910Y-52079D01*
X31825Y-52536D02*
X31367Y-52536D01*
X31596Y-52536D02*
X31596Y-51736D01*
X31520Y-51850D01*
X31444Y-51926D01*
X31367Y-51964D01*
X32167Y-52536D02*
X32167Y-52002D01*
X32167Y-52079D02*
X32206Y-52041D01*
X32282Y-52002D01*
X32396Y-52002D01*
X32472Y-52041D01*
X32510Y-52117D01*
X32510Y-52536D01*
X32510Y-52117D02*
X32548Y-52041D01*
X32625Y-52002D01*
X32739Y-52002D01*
X32815Y-52041D01*
X32853Y-52117D01*
X32853Y-52536D01*
X33234Y-52536D02*
X33234Y-52002D01*
X33234Y-52079D02*
X33273Y-52041D01*
X33349Y-52002D01*
X33463Y-52002D01*
X33539Y-52041D01*
X33577Y-52117D01*
X33577Y-52536D01*
X33577Y-52117D02*
X33615Y-52041D01*
X33692Y-52002D01*
X33806Y-52002D01*
X33882Y-52041D01*
X33920Y-52117D01*
X33920Y-52536D01*
X35483Y-51698D02*
X34797Y-52726D01*
X36512Y-51736D02*
X36588Y-51736D01*
X36664Y-51774D01*
X36702Y-51812D01*
X36740Y-51888D01*
X36779Y-52041D01*
X36779Y-52231D01*
X36740Y-52383D01*
X36702Y-52460D01*
X36664Y-52498D01*
X36588Y-52536D01*
X36512Y-52536D01*
X36436Y-52498D01*
X36398Y-52460D01*
X36359Y-52383D01*
X36321Y-52231D01*
X36321Y-52041D01*
X36359Y-51888D01*
X36398Y-51812D01*
X36436Y-51774D01*
X36512Y-51736D01*
X37121Y-52460D02*
X37160Y-52498D01*
X37121Y-52536D01*
X37083Y-52498D01*
X37121Y-52460D01*
X37121Y-52536D01*
X37655Y-51736D02*
X37731Y-51736D01*
X37807Y-51774D01*
X37845Y-51812D01*
X37883Y-51888D01*
X37922Y-52041D01*
X37922Y-52231D01*
X37883Y-52383D01*
X37845Y-52460D01*
X37807Y-52498D01*
X37731Y-52536D01*
X37655Y-52536D01*
X37579Y-52498D01*
X37541Y-52460D01*
X37502Y-52383D01*
X37464Y-52231D01*
X37464Y-52041D01*
X37502Y-51888D01*
X37541Y-51812D01*
X37579Y-51774D01*
X37655Y-51736D01*
X38188Y-51736D02*
X38684Y-51736D01*
X38417Y-52041D01*
X38531Y-52041D01*
X38607Y-52079D01*
X38645Y-52117D01*
X38684Y-52193D01*
X38684Y-52383D01*
X38645Y-52460D01*
X38607Y-52498D01*
X38531Y-52536D01*
X38303Y-52536D01*
X38226Y-52498D01*
X38188Y-52460D01*
X38988Y-51812D02*
X39026Y-51774D01*
X39103Y-51736D01*
X39293Y-51736D01*
X39369Y-51774D01*
X39407Y-51812D01*
X39446Y-51888D01*
X39446Y-51964D01*
X39407Y-52079D01*
X38950Y-52536D01*
X39446Y-52536D01*
X39750Y-51736D02*
X39750Y-51888D01*
X40055Y-51736D02*
X40055Y-51888D01*
X41237Y-52841D02*
X41199Y-52802D01*
X41123Y-52688D01*
X41085Y-52612D01*
X41047Y-52498D01*
X41008Y-52307D01*
X41008Y-52155D01*
X41047Y-51964D01*
X41085Y-51850D01*
X41123Y-51774D01*
X41199Y-51660D01*
X41237Y-51622D01*
X41503Y-51812D02*
X41541Y-51774D01*
X41618Y-51736D01*
X41808Y-51736D01*
X41884Y-51774D01*
X41922Y-51812D01*
X41961Y-51888D01*
X41961Y-51964D01*
X41922Y-52079D01*
X41465Y-52536D01*
X41961Y-52536D01*
X42418Y-52079D02*
X42342Y-52041D01*
X42303Y-52002D01*
X42265Y-51926D01*
X42265Y-51888D01*
X42303Y-51812D01*
X42342Y-51774D01*
X42418Y-51736D01*
X42570Y-51736D01*
X42646Y-51774D01*
X42684Y-51812D01*
X42723Y-51888D01*
X42723Y-51926D01*
X42684Y-52002D01*
X42646Y-52041D01*
X42570Y-52079D01*
X42418Y-52079D01*
X42342Y-52117D01*
X42303Y-52155D01*
X42265Y-52231D01*
X42265Y-52383D01*
X42303Y-52460D01*
X42342Y-52498D01*
X42418Y-52536D01*
X42570Y-52536D01*
X42646Y-52498D01*
X42684Y-52460D01*
X42723Y-52383D01*
X42723Y-52231D01*
X42684Y-52155D01*
X42646Y-52117D01*
X42570Y-52079D01*
X43675Y-52536D02*
X43675Y-51736D01*
X44018Y-52536D02*
X44018Y-52117D01*
X43980Y-52041D01*
X43904Y-52002D01*
X43790Y-52002D01*
X43714Y-52041D01*
X43675Y-52079D01*
X44514Y-52536D02*
X44438Y-52498D01*
X44399Y-52460D01*
X44361Y-52383D01*
X44361Y-52155D01*
X44399Y-52079D01*
X44438Y-52041D01*
X44514Y-52002D01*
X44628Y-52002D01*
X44704Y-52041D01*
X44742Y-52079D01*
X44780Y-52155D01*
X44780Y-52383D01*
X44742Y-52460D01*
X44704Y-52498D01*
X44628Y-52536D01*
X44514Y-52536D01*
X45238Y-52536D02*
X45162Y-52498D01*
X45123Y-52422D01*
X45123Y-51736D01*
X45847Y-52498D02*
X45771Y-52536D01*
X45619Y-52536D01*
X45542Y-52498D01*
X45504Y-52422D01*
X45504Y-52117D01*
X45542Y-52041D01*
X45619Y-52002D01*
X45771Y-52002D01*
X45847Y-52041D01*
X45885Y-52117D01*
X45885Y-52193D01*
X45504Y-52269D01*
X46190Y-52498D02*
X46267Y-52536D01*
X46419Y-52536D01*
X46495Y-52498D01*
X46533Y-52422D01*
X46533Y-52383D01*
X46495Y-52307D01*
X46419Y-52269D01*
X46305Y-52269D01*
X46228Y-52231D01*
X46190Y-52155D01*
X46190Y-52117D01*
X46228Y-52041D01*
X46305Y-52002D01*
X46419Y-52002D01*
X46495Y-52041D01*
X46800Y-52841D02*
X46838Y-52802D01*
X46915Y-52688D01*
X46953Y-52612D01*
X46991Y-52498D01*
X47029Y-52307D01*
X47029Y-52155D01*
X46991Y-51964D01*
X46953Y-51850D01*
X46915Y-51774D01*
X46838Y-51660D01*
X46800Y-51622D01*
X28935Y-53092D02*
X28935Y-53442D01*
X29110Y-53267D02*
X28760Y-53267D01*
X29653Y-52791D02*
X29729Y-52791D01*
X29805Y-52829D01*
X29843Y-52867D01*
X29881Y-52943D01*
X29920Y-53096D01*
X29920Y-53286D01*
X29881Y-53438D01*
X29843Y-53515D01*
X29805Y-53553D01*
X29729Y-53591D01*
X29653Y-53591D01*
X29577Y-53553D01*
X29539Y-53515D01*
X29500Y-53438D01*
X29462Y-53286D01*
X29462Y-53096D01*
X29500Y-52943D01*
X29539Y-52867D01*
X29577Y-52829D01*
X29653Y-52791D01*
X30262Y-53515D02*
X30301Y-53553D01*
X30262Y-53591D01*
X30224Y-53553D01*
X30262Y-53515D01*
X30262Y-53591D01*
X30758Y-53134D02*
X30682Y-53096D01*
X30643Y-53057D01*
X30605Y-52981D01*
X30605Y-52943D01*
X30643Y-52867D01*
X30682Y-52829D01*
X30758Y-52791D01*
X30910Y-52791D01*
X30986Y-52829D01*
X31024Y-52867D01*
X31063Y-52943D01*
X31063Y-52981D01*
X31024Y-53057D01*
X30986Y-53096D01*
X30910Y-53134D01*
X30758Y-53134D01*
X30682Y-53172D01*
X30643Y-53210D01*
X30605Y-53286D01*
X30605Y-53438D01*
X30643Y-53515D01*
X30682Y-53553D01*
X30758Y-53591D01*
X30910Y-53591D01*
X30986Y-53553D01*
X31024Y-53515D01*
X31063Y-53438D01*
X31063Y-53286D01*
X31024Y-53210D01*
X30986Y-53172D01*
X30910Y-53134D01*
X31444Y-53591D02*
X31596Y-53591D01*
X31672Y-53553D01*
X31710Y-53515D01*
X31786Y-53400D01*
X31825Y-53248D01*
X31825Y-52943D01*
X31786Y-52867D01*
X31748Y-52829D01*
X31672Y-52791D01*
X31520Y-52791D01*
X31444Y-52829D01*
X31405Y-52867D01*
X31367Y-52943D01*
X31367Y-53134D01*
X31405Y-53210D01*
X31444Y-53248D01*
X31520Y-53286D01*
X31672Y-53286D01*
X31748Y-53248D01*
X31786Y-53210D01*
X31825Y-53134D01*
X32167Y-53591D02*
X32167Y-53057D01*
X32167Y-53134D02*
X32206Y-53096D01*
X32282Y-53057D01*
X32396Y-53057D01*
X32472Y-53096D01*
X32510Y-53172D01*
X32510Y-53591D01*
X32510Y-53172D02*
X32548Y-53096D01*
X32625Y-53057D01*
X32739Y-53057D01*
X32815Y-53096D01*
X32853Y-53172D01*
X32853Y-53591D01*
X33234Y-53591D02*
X33234Y-53057D01*
X33234Y-53134D02*
X33273Y-53096D01*
X33349Y-53057D01*
X33463Y-53057D01*
X33539Y-53096D01*
X33577Y-53172D01*
X33577Y-53591D01*
X33577Y-53172D02*
X33615Y-53096D01*
X33692Y-53057D01*
X33806Y-53057D01*
X33882Y-53096D01*
X33920Y-53172D01*
X33920Y-53591D01*
X35483Y-52753D02*
X34797Y-53781D01*
X36512Y-52791D02*
X36588Y-52791D01*
X36664Y-52829D01*
X36702Y-52867D01*
X36740Y-52943D01*
X36779Y-53096D01*
X36779Y-53286D01*
X36740Y-53438D01*
X36702Y-53515D01*
X36664Y-53553D01*
X36588Y-53591D01*
X36512Y-53591D01*
X36436Y-53553D01*
X36398Y-53515D01*
X36359Y-53438D01*
X36321Y-53286D01*
X36321Y-53096D01*
X36359Y-52943D01*
X36398Y-52867D01*
X36436Y-52829D01*
X36512Y-52791D01*
X37121Y-53515D02*
X37160Y-53553D01*
X37121Y-53591D01*
X37083Y-53553D01*
X37121Y-53515D01*
X37121Y-53591D01*
X37655Y-52791D02*
X37731Y-52791D01*
X37807Y-52829D01*
X37845Y-52867D01*
X37883Y-52943D01*
X37922Y-53096D01*
X37922Y-53286D01*
X37883Y-53438D01*
X37845Y-53515D01*
X37807Y-53553D01*
X37731Y-53591D01*
X37655Y-53591D01*
X37579Y-53553D01*
X37541Y-53515D01*
X37502Y-53438D01*
X37464Y-53286D01*
X37464Y-53096D01*
X37502Y-52943D01*
X37541Y-52867D01*
X37579Y-52829D01*
X37655Y-52791D01*
X38188Y-52791D02*
X38684Y-52791D01*
X38417Y-53096D01*
X38531Y-53096D01*
X38607Y-53134D01*
X38645Y-53172D01*
X38684Y-53248D01*
X38684Y-53438D01*
X38645Y-53515D01*
X38607Y-53553D01*
X38531Y-53591D01*
X38303Y-53591D01*
X38226Y-53553D01*
X38188Y-53515D01*
X39407Y-52791D02*
X39026Y-52791D01*
X38988Y-53172D01*
X39026Y-53134D01*
X39103Y-53096D01*
X39293Y-53096D01*
X39369Y-53134D01*
X39407Y-53172D01*
X39446Y-53248D01*
X39446Y-53438D01*
X39407Y-53515D01*
X39369Y-53553D01*
X39293Y-53591D01*
X39103Y-53591D01*
X39026Y-53553D01*
X38988Y-53515D01*
X39750Y-52791D02*
X39750Y-52943D01*
X40055Y-52791D02*
X40055Y-52943D01*
X41237Y-53896D02*
X41199Y-53857D01*
X41123Y-53743D01*
X41085Y-53667D01*
X41047Y-53553D01*
X41008Y-53362D01*
X41008Y-53210D01*
X41047Y-53019D01*
X41085Y-52905D01*
X41123Y-52829D01*
X41199Y-52715D01*
X41237Y-52677D01*
X41884Y-52791D02*
X41732Y-52791D01*
X41656Y-52829D01*
X41618Y-52867D01*
X41541Y-52981D01*
X41503Y-53134D01*
X41503Y-53438D01*
X41541Y-53515D01*
X41580Y-53553D01*
X41656Y-53591D01*
X41808Y-53591D01*
X41884Y-53553D01*
X41922Y-53515D01*
X41961Y-53438D01*
X41961Y-53248D01*
X41922Y-53172D01*
X41884Y-53134D01*
X41808Y-53096D01*
X41656Y-53096D01*
X41580Y-53134D01*
X41541Y-53172D01*
X41503Y-53248D01*
X42913Y-53591D02*
X42913Y-52791D01*
X43256Y-53591D02*
X43256Y-53172D01*
X43218Y-53096D01*
X43142Y-53057D01*
X43028Y-53057D01*
X42952Y-53096D01*
X42913Y-53134D01*
X43752Y-53591D02*
X43676Y-53553D01*
X43637Y-53515D01*
X43599Y-53438D01*
X43599Y-53210D01*
X43637Y-53134D01*
X43676Y-53096D01*
X43752Y-53057D01*
X43866Y-53057D01*
X43942Y-53096D01*
X43980Y-53134D01*
X44018Y-53210D01*
X44018Y-53438D01*
X43980Y-53515D01*
X43942Y-53553D01*
X43866Y-53591D01*
X43752Y-53591D01*
X44476Y-53591D02*
X44400Y-53553D01*
X44361Y-53477D01*
X44361Y-52791D01*
X45085Y-53553D02*
X45009Y-53591D01*
X44857Y-53591D01*
X44780Y-53553D01*
X44742Y-53477D01*
X44742Y-53172D01*
X44780Y-53096D01*
X44857Y-53057D01*
X45009Y-53057D01*
X45085Y-53096D01*
X45123Y-53172D01*
X45123Y-53248D01*
X44742Y-53324D01*
X45428Y-53553D02*
X45505Y-53591D01*
X45657Y-53591D01*
X45733Y-53553D01*
X45771Y-53477D01*
X45771Y-53438D01*
X45733Y-53362D01*
X45657Y-53324D01*
X45543Y-53324D01*
X45466Y-53286D01*
X45428Y-53210D01*
X45428Y-53172D01*
X45466Y-53096D01*
X45543Y-53057D01*
X45657Y-53057D01*
X45733Y-53096D01*
X46038Y-53896D02*
X46076Y-53857D01*
X46153Y-53743D01*
X46191Y-53667D01*
X46229Y-53553D01*
X46267Y-53362D01*
X46267Y-53210D01*
X46229Y-53019D01*
X46191Y-52905D01*
X46153Y-52829D01*
X46076Y-52715D01*
X46038Y-52677D01*
G54D10*
X29110Y-54322D02*
X29106Y-54360D01*
X29094Y-54398D01*
X29076Y-54432D01*
X29051Y-54462D01*
X29021Y-54487D01*
X28987Y-54506D01*
X28950Y-54517D01*
X28911Y-54521D01*
X28873Y-54518D01*
X28836Y-54507D01*
X28801Y-54489D01*
X28771Y-54464D01*
X28745Y-54434D01*
X28727Y-54400D01*
X28715Y-54363D01*
X28711Y-54324D01*
X28714Y-54286D01*
X28725Y-54249D01*
X28742Y-54214D01*
X28767Y-54184D01*
X28796Y-54158D01*
X28830Y-54139D01*
X28868Y-54127D01*
X28906Y-54123D01*
X28944Y-54126D01*
X28982Y-54136D01*
X29017Y-54154D01*
X29047Y-54178D01*
X29073Y-54207D01*
X29092Y-54241D01*
X29105Y-54278D01*
X29109Y-54317D01*
X29110Y-54322D01*
X28710Y-54122D02*
X29110Y-54522D01*
X29110Y-54122D02*
X28710Y-54522D01*
G54D12*
X29920Y-54646D02*
X29462Y-54646D01*
X29691Y-54646D02*
X29691Y-53846D01*
X29615Y-53960D01*
X29539Y-54036D01*
X29462Y-54074D01*
X30262Y-54570D02*
X30301Y-54608D01*
X30262Y-54646D01*
X30224Y-54608D01*
X30262Y-54570D01*
X30262Y-54646D01*
X30796Y-53846D02*
X30872Y-53846D01*
X30948Y-53884D01*
X30986Y-53922D01*
X31024Y-53998D01*
X31063Y-54151D01*
X31063Y-54341D01*
X31024Y-54493D01*
X30986Y-54570D01*
X30948Y-54608D01*
X30872Y-54646D01*
X30796Y-54646D01*
X30720Y-54608D01*
X30682Y-54570D01*
X30643Y-54493D01*
X30605Y-54341D01*
X30605Y-54151D01*
X30643Y-53998D01*
X30682Y-53922D01*
X30720Y-53884D01*
X30796Y-53846D01*
X31367Y-53922D02*
X31405Y-53884D01*
X31482Y-53846D01*
X31672Y-53846D01*
X31748Y-53884D01*
X31786Y-53922D01*
X31825Y-53998D01*
X31825Y-54074D01*
X31786Y-54189D01*
X31329Y-54646D01*
X31825Y-54646D01*
X32167Y-54646D02*
X32167Y-54112D01*
X32167Y-54189D02*
X32206Y-54151D01*
X32282Y-54112D01*
X32396Y-54112D01*
X32472Y-54151D01*
X32510Y-54227D01*
X32510Y-54646D01*
X32510Y-54227D02*
X32548Y-54151D01*
X32625Y-54112D01*
X32739Y-54112D01*
X32815Y-54151D01*
X32853Y-54227D01*
X32853Y-54646D01*
X33234Y-54646D02*
X33234Y-54112D01*
X33234Y-54189D02*
X33273Y-54151D01*
X33349Y-54112D01*
X33463Y-54112D01*
X33539Y-54151D01*
X33577Y-54227D01*
X33577Y-54646D01*
X33577Y-54227D02*
X33615Y-54151D01*
X33692Y-54112D01*
X33806Y-54112D01*
X33882Y-54151D01*
X33920Y-54227D01*
X33920Y-54646D01*
X35483Y-53808D02*
X34797Y-54836D01*
X36512Y-53846D02*
X36588Y-53846D01*
X36664Y-53884D01*
X36702Y-53922D01*
X36740Y-53998D01*
X36779Y-54151D01*
X36779Y-54341D01*
X36740Y-54493D01*
X36702Y-54570D01*
X36664Y-54608D01*
X36588Y-54646D01*
X36512Y-54646D01*
X36436Y-54608D01*
X36398Y-54570D01*
X36359Y-54493D01*
X36321Y-54341D01*
X36321Y-54151D01*
X36359Y-53998D01*
X36398Y-53922D01*
X36436Y-53884D01*
X36512Y-53846D01*
X37121Y-54570D02*
X37160Y-54608D01*
X37121Y-54646D01*
X37083Y-54608D01*
X37121Y-54570D01*
X37121Y-54646D01*
X37655Y-53846D02*
X37731Y-53846D01*
X37807Y-53884D01*
X37845Y-53922D01*
X37883Y-53998D01*
X37922Y-54151D01*
X37922Y-54341D01*
X37883Y-54493D01*
X37845Y-54570D01*
X37807Y-54608D01*
X37731Y-54646D01*
X37655Y-54646D01*
X37579Y-54608D01*
X37541Y-54570D01*
X37502Y-54493D01*
X37464Y-54341D01*
X37464Y-54151D01*
X37502Y-53998D01*
X37541Y-53922D01*
X37579Y-53884D01*
X37655Y-53846D01*
X38607Y-54112D02*
X38607Y-54646D01*
X38417Y-53808D02*
X38226Y-54379D01*
X38722Y-54379D01*
X39179Y-53846D02*
X39255Y-53846D01*
X39331Y-53884D01*
X39369Y-53922D01*
X39407Y-53998D01*
X39446Y-54151D01*
X39446Y-54341D01*
X39407Y-54493D01*
X39369Y-54570D01*
X39331Y-54608D01*
X39255Y-54646D01*
X39179Y-54646D01*
X39103Y-54608D01*
X39065Y-54570D01*
X39026Y-54493D01*
X38988Y-54341D01*
X38988Y-54151D01*
X39026Y-53998D01*
X39065Y-53922D01*
X39103Y-53884D01*
X39179Y-53846D01*
X39750Y-53846D02*
X39750Y-53998D01*
X40055Y-53846D02*
X40055Y-53998D01*
X41237Y-54951D02*
X41199Y-54912D01*
X41123Y-54798D01*
X41085Y-54722D01*
X41047Y-54608D01*
X41008Y-54417D01*
X41008Y-54265D01*
X41047Y-54074D01*
X41085Y-53960D01*
X41123Y-53884D01*
X41199Y-53770D01*
X41237Y-53732D01*
X41961Y-54646D02*
X41503Y-54646D01*
X41732Y-54646D02*
X41732Y-53846D01*
X41656Y-53960D01*
X41580Y-54036D01*
X41503Y-54074D01*
X42265Y-53922D02*
X42303Y-53884D01*
X42380Y-53846D01*
X42570Y-53846D01*
X42646Y-53884D01*
X42684Y-53922D01*
X42723Y-53998D01*
X42723Y-54074D01*
X42684Y-54189D01*
X42227Y-54646D01*
X42723Y-54646D01*
X43675Y-54646D02*
X43675Y-53846D01*
X44018Y-54646D02*
X44018Y-54227D01*
X43980Y-54151D01*
X43904Y-54112D01*
X43790Y-54112D01*
X43714Y-54151D01*
X43675Y-54189D01*
X44514Y-54646D02*
X44438Y-54608D01*
X44399Y-54570D01*
X44361Y-54493D01*
X44361Y-54265D01*
X44399Y-54189D01*
X44438Y-54151D01*
X44514Y-54112D01*
X44628Y-54112D01*
X44704Y-54151D01*
X44742Y-54189D01*
X44780Y-54265D01*
X44780Y-54493D01*
X44742Y-54570D01*
X44704Y-54608D01*
X44628Y-54646D01*
X44514Y-54646D01*
X45238Y-54646D02*
X45162Y-54608D01*
X45123Y-54532D01*
X45123Y-53846D01*
X45847Y-54608D02*
X45771Y-54646D01*
X45619Y-54646D01*
X45542Y-54608D01*
X45504Y-54532D01*
X45504Y-54227D01*
X45542Y-54151D01*
X45619Y-54112D01*
X45771Y-54112D01*
X45847Y-54151D01*
X45885Y-54227D01*
X45885Y-54303D01*
X45504Y-54379D01*
X46190Y-54608D02*
X46267Y-54646D01*
X46419Y-54646D01*
X46495Y-54608D01*
X46533Y-54532D01*
X46533Y-54493D01*
X46495Y-54417D01*
X46419Y-54379D01*
X46305Y-54379D01*
X46228Y-54341D01*
X46190Y-54265D01*
X46190Y-54227D01*
X46228Y-54151D01*
X46305Y-54112D01*
X46419Y-54112D01*
X46495Y-54151D01*
X46800Y-54951D02*
X46838Y-54912D01*
X46915Y-54798D01*
X46953Y-54722D01*
X46991Y-54608D01*
X47029Y-54417D01*
X47029Y-54265D01*
X46991Y-54074D01*
X46953Y-53960D01*
X46915Y-53884D01*
X46838Y-53770D01*
X46800Y-53732D01*
G54D10*
X29110Y-55377D02*
X29105Y-55420D01*
X29093Y-55462D01*
X29072Y-55501D01*
X29044Y-55535D01*
X29010Y-55563D01*
X28972Y-55584D01*
X28930Y-55597D01*
X28886Y-55601D01*
X28843Y-55598D01*
X28801Y-55585D01*
X28762Y-55565D01*
X28728Y-55537D01*
X28700Y-55504D01*
X28679Y-55465D01*
X28665Y-55423D01*
X28661Y-55380D01*
X28664Y-55337D01*
X28676Y-55295D01*
X28696Y-55256D01*
X28724Y-55221D01*
X28757Y-55193D01*
X28795Y-55171D01*
X28837Y-55158D01*
X28881Y-55153D01*
X28924Y-55156D01*
X28966Y-55168D01*
X29005Y-55188D01*
X29040Y-55215D01*
X29068Y-55248D01*
X29090Y-55286D01*
X29104Y-55328D01*
X29109Y-55371D01*
X29110Y-55377D01*
X28660Y-55377D02*
X29110Y-55377D01*
G54D12*
X29920Y-55701D02*
X29462Y-55701D01*
X29691Y-55701D02*
X29691Y-54901D01*
X29615Y-55015D01*
X29539Y-55091D01*
X29462Y-55129D01*
X30262Y-55625D02*
X30301Y-55663D01*
X30262Y-55701D01*
X30224Y-55663D01*
X30262Y-55625D01*
X30262Y-55701D01*
X31063Y-55701D02*
X30605Y-55701D01*
X30834Y-55701D02*
X30834Y-54901D01*
X30758Y-55015D01*
X30682Y-55091D01*
X30605Y-55129D01*
X31748Y-55167D02*
X31748Y-55701D01*
X31558Y-54863D02*
X31367Y-55434D01*
X31863Y-55434D01*
X32167Y-55701D02*
X32167Y-55167D01*
X32167Y-55244D02*
X32206Y-55206D01*
X32282Y-55167D01*
X32396Y-55167D01*
X32472Y-55206D01*
X32510Y-55282D01*
X32510Y-55701D01*
X32510Y-55282D02*
X32548Y-55206D01*
X32625Y-55167D01*
X32739Y-55167D01*
X32815Y-55206D01*
X32853Y-55282D01*
X32853Y-55701D01*
X33234Y-55701D02*
X33234Y-55167D01*
X33234Y-55244D02*
X33273Y-55206D01*
X33349Y-55167D01*
X33463Y-55167D01*
X33539Y-55206D01*
X33577Y-55282D01*
X33577Y-55701D01*
X33577Y-55282D02*
X33615Y-55206D01*
X33692Y-55167D01*
X33806Y-55167D01*
X33882Y-55206D01*
X33920Y-55282D01*
X33920Y-55701D01*
X35483Y-54863D02*
X34797Y-55891D01*
X36512Y-54901D02*
X36588Y-54901D01*
X36664Y-54939D01*
X36702Y-54977D01*
X36740Y-55053D01*
X36779Y-55206D01*
X36779Y-55396D01*
X36740Y-55548D01*
X36702Y-55625D01*
X36664Y-55663D01*
X36588Y-55701D01*
X36512Y-55701D01*
X36436Y-55663D01*
X36398Y-55625D01*
X36359Y-55548D01*
X36321Y-55396D01*
X36321Y-55206D01*
X36359Y-55053D01*
X36398Y-54977D01*
X36436Y-54939D01*
X36512Y-54901D01*
X37121Y-55625D02*
X37160Y-55663D01*
X37121Y-55701D01*
X37083Y-55663D01*
X37121Y-55625D01*
X37121Y-55701D01*
X37655Y-54901D02*
X37731Y-54901D01*
X37807Y-54939D01*
X37845Y-54977D01*
X37883Y-55053D01*
X37922Y-55206D01*
X37922Y-55396D01*
X37883Y-55548D01*
X37845Y-55625D01*
X37807Y-55663D01*
X37731Y-55701D01*
X37655Y-55701D01*
X37579Y-55663D01*
X37541Y-55625D01*
X37502Y-55548D01*
X37464Y-55396D01*
X37464Y-55206D01*
X37502Y-55053D01*
X37541Y-54977D01*
X37579Y-54939D01*
X37655Y-54901D01*
X38607Y-55167D02*
X38607Y-55701D01*
X38417Y-54863D02*
X38226Y-55434D01*
X38722Y-55434D01*
X39407Y-54901D02*
X39026Y-54901D01*
X38988Y-55282D01*
X39026Y-55244D01*
X39103Y-55206D01*
X39293Y-55206D01*
X39369Y-55244D01*
X39407Y-55282D01*
X39446Y-55358D01*
X39446Y-55548D01*
X39407Y-55625D01*
X39369Y-55663D01*
X39293Y-55701D01*
X39103Y-55701D01*
X39026Y-55663D01*
X38988Y-55625D01*
X39750Y-54901D02*
X39750Y-55053D01*
X40055Y-54901D02*
X40055Y-55053D01*
X41237Y-56006D02*
X41199Y-55967D01*
X41123Y-55853D01*
X41085Y-55777D01*
X41047Y-55663D01*
X41008Y-55472D01*
X41008Y-55320D01*
X41047Y-55129D01*
X41085Y-55015D01*
X41123Y-54939D01*
X41199Y-54825D01*
X41237Y-54787D01*
X41580Y-55701D02*
X41732Y-55701D01*
X41808Y-55663D01*
X41846Y-55625D01*
X41922Y-55510D01*
X41961Y-55358D01*
X41961Y-55053D01*
X41922Y-54977D01*
X41884Y-54939D01*
X41808Y-54901D01*
X41656Y-54901D01*
X41580Y-54939D01*
X41541Y-54977D01*
X41503Y-55053D01*
X41503Y-55244D01*
X41541Y-55320D01*
X41580Y-55358D01*
X41656Y-55396D01*
X41808Y-55396D01*
X41884Y-55358D01*
X41922Y-55320D01*
X41961Y-55244D01*
X42913Y-55701D02*
X42913Y-54901D01*
X43256Y-55701D02*
X43256Y-55282D01*
X43218Y-55206D01*
X43142Y-55167D01*
X43028Y-55167D01*
X42952Y-55206D01*
X42913Y-55244D01*
X43752Y-55701D02*
X43676Y-55663D01*
X43637Y-55625D01*
X43599Y-55548D01*
X43599Y-55320D01*
X43637Y-55244D01*
X43676Y-55206D01*
X43752Y-55167D01*
X43866Y-55167D01*
X43942Y-55206D01*
X43980Y-55244D01*
X44018Y-55320D01*
X44018Y-55548D01*
X43980Y-55625D01*
X43942Y-55663D01*
X43866Y-55701D01*
X43752Y-55701D01*
X44476Y-55701D02*
X44400Y-55663D01*
X44361Y-55587D01*
X44361Y-54901D01*
X45085Y-55663D02*
X45009Y-55701D01*
X44857Y-55701D01*
X44780Y-55663D01*
X44742Y-55587D01*
X44742Y-55282D01*
X44780Y-55206D01*
X44857Y-55167D01*
X45009Y-55167D01*
X45085Y-55206D01*
X45123Y-55282D01*
X45123Y-55358D01*
X44742Y-55434D01*
X45428Y-55663D02*
X45505Y-55701D01*
X45657Y-55701D01*
X45733Y-55663D01*
X45771Y-55587D01*
X45771Y-55548D01*
X45733Y-55472D01*
X45657Y-55434D01*
X45543Y-55434D01*
X45466Y-55396D01*
X45428Y-55320D01*
X45428Y-55282D01*
X45466Y-55206D01*
X45543Y-55167D01*
X45657Y-55167D01*
X45733Y-55206D01*
X46038Y-56006D02*
X46076Y-55967D01*
X46153Y-55853D01*
X46191Y-55777D01*
X46229Y-55663D01*
X46267Y-55472D01*
X46267Y-55320D01*
X46229Y-55129D01*
X46191Y-55015D01*
X46153Y-54939D01*
X46076Y-54825D01*
X46038Y-54787D01*
G54D10*
X29110Y-56432D02*
X29105Y-56481D01*
X29090Y-56529D01*
X29067Y-56573D01*
X29035Y-56612D01*
X28997Y-56644D01*
X28953Y-56667D01*
X28905Y-56682D01*
X28855Y-56687D01*
X28807Y-56683D01*
X28759Y-56669D01*
X28714Y-56646D01*
X28675Y-56614D01*
X28643Y-56576D01*
X28619Y-56532D01*
X28604Y-56485D01*
X28599Y-56435D01*
X28603Y-56386D01*
X28616Y-56338D01*
X28639Y-56294D01*
X28670Y-56255D01*
X28708Y-56222D01*
X28752Y-56198D01*
X28800Y-56182D01*
X28849Y-56177D01*
X28898Y-56180D01*
X28946Y-56194D01*
X28991Y-56216D01*
X29030Y-56247D01*
X29063Y-56285D01*
X29087Y-56328D01*
X29103Y-56376D01*
X29109Y-56425D01*
X29110Y-56432D01*
X28854Y-56176D02*
X28854Y-56688D01*
G54D12*
X29920Y-56756D02*
X29462Y-56756D01*
X29691Y-56756D02*
X29691Y-55956D01*
X29615Y-56070D01*
X29539Y-56146D01*
X29462Y-56184D01*
X30262Y-56680D02*
X30301Y-56718D01*
X30262Y-56756D01*
X30224Y-56718D01*
X30262Y-56680D01*
X30262Y-56756D01*
X30567Y-55956D02*
X31063Y-55956D01*
X30796Y-56261D01*
X30910Y-56261D01*
X30986Y-56299D01*
X31024Y-56337D01*
X31063Y-56413D01*
X31063Y-56603D01*
X31024Y-56680D01*
X30986Y-56718D01*
X30910Y-56756D01*
X30682Y-56756D01*
X30605Y-56718D01*
X30567Y-56680D01*
X31558Y-55956D02*
X31634Y-55956D01*
X31710Y-55994D01*
X31748Y-56032D01*
X31786Y-56108D01*
X31825Y-56261D01*
X31825Y-56451D01*
X31786Y-56603D01*
X31748Y-56680D01*
X31710Y-56718D01*
X31634Y-56756D01*
X31558Y-56756D01*
X31482Y-56718D01*
X31444Y-56680D01*
X31405Y-56603D01*
X31367Y-56451D01*
X31367Y-56261D01*
X31405Y-56108D01*
X31444Y-56032D01*
X31482Y-55994D01*
X31558Y-55956D01*
X32167Y-56756D02*
X32167Y-56222D01*
X32167Y-56299D02*
X32206Y-56261D01*
X32282Y-56222D01*
X32396Y-56222D01*
X32472Y-56261D01*
X32510Y-56337D01*
X32510Y-56756D01*
X32510Y-56337D02*
X32548Y-56261D01*
X32625Y-56222D01*
X32739Y-56222D01*
X32815Y-56261D01*
X32853Y-56337D01*
X32853Y-56756D01*
X33234Y-56756D02*
X33234Y-56222D01*
X33234Y-56299D02*
X33273Y-56261D01*
X33349Y-56222D01*
X33463Y-56222D01*
X33539Y-56261D01*
X33577Y-56337D01*
X33577Y-56756D01*
X33577Y-56337D02*
X33615Y-56261D01*
X33692Y-56222D01*
X33806Y-56222D01*
X33882Y-56261D01*
X33920Y-56337D01*
X33920Y-56756D01*
X35483Y-55918D02*
X34797Y-56946D01*
X36512Y-55956D02*
X36588Y-55956D01*
X36664Y-55994D01*
X36702Y-56032D01*
X36740Y-56108D01*
X36779Y-56261D01*
X36779Y-56451D01*
X36740Y-56603D01*
X36702Y-56680D01*
X36664Y-56718D01*
X36588Y-56756D01*
X36512Y-56756D01*
X36436Y-56718D01*
X36398Y-56680D01*
X36359Y-56603D01*
X36321Y-56451D01*
X36321Y-56261D01*
X36359Y-56108D01*
X36398Y-56032D01*
X36436Y-55994D01*
X36512Y-55956D01*
X37121Y-56680D02*
X37160Y-56718D01*
X37121Y-56756D01*
X37083Y-56718D01*
X37121Y-56680D01*
X37121Y-56756D01*
X37655Y-55956D02*
X37731Y-55956D01*
X37807Y-55994D01*
X37845Y-56032D01*
X37883Y-56108D01*
X37922Y-56261D01*
X37922Y-56451D01*
X37883Y-56603D01*
X37845Y-56680D01*
X37807Y-56718D01*
X37731Y-56756D01*
X37655Y-56756D01*
X37579Y-56718D01*
X37541Y-56680D01*
X37502Y-56603D01*
X37464Y-56451D01*
X37464Y-56261D01*
X37502Y-56108D01*
X37541Y-56032D01*
X37579Y-55994D01*
X37655Y-55956D01*
X38645Y-55956D02*
X38264Y-55956D01*
X38226Y-56337D01*
X38264Y-56299D01*
X38341Y-56261D01*
X38531Y-56261D01*
X38607Y-56299D01*
X38645Y-56337D01*
X38684Y-56413D01*
X38684Y-56603D01*
X38645Y-56680D01*
X38607Y-56718D01*
X38531Y-56756D01*
X38341Y-56756D01*
X38264Y-56718D01*
X38226Y-56680D01*
X39446Y-56756D02*
X38988Y-56756D01*
X39217Y-56756D02*
X39217Y-55956D01*
X39141Y-56070D01*
X39065Y-56146D01*
X38988Y-56184D01*
X39750Y-55956D02*
X39750Y-56108D01*
X40055Y-55956D02*
X40055Y-56108D01*
X41237Y-57061D02*
X41199Y-57022D01*
X41123Y-56908D01*
X41085Y-56832D01*
X41047Y-56718D01*
X41008Y-56527D01*
X41008Y-56375D01*
X41047Y-56184D01*
X41085Y-56070D01*
X41123Y-55994D01*
X41199Y-55880D01*
X41237Y-55842D01*
X41884Y-55956D02*
X41732Y-55956D01*
X41656Y-55994D01*
X41618Y-56032D01*
X41541Y-56146D01*
X41503Y-56299D01*
X41503Y-56603D01*
X41541Y-56680D01*
X41580Y-56718D01*
X41656Y-56756D01*
X41808Y-56756D01*
X41884Y-56718D01*
X41922Y-56680D01*
X41961Y-56603D01*
X41961Y-56413D01*
X41922Y-56337D01*
X41884Y-56299D01*
X41808Y-56261D01*
X41656Y-56261D01*
X41580Y-56299D01*
X41541Y-56337D01*
X41503Y-56413D01*
X42913Y-56756D02*
X42913Y-55956D01*
X43256Y-56756D02*
X43256Y-56337D01*
X43218Y-56261D01*
X43142Y-56222D01*
X43028Y-56222D01*
X42952Y-56261D01*
X42913Y-56299D01*
X43752Y-56756D02*
X43676Y-56718D01*
X43637Y-56680D01*
X43599Y-56603D01*
X43599Y-56375D01*
X43637Y-56299D01*
X43676Y-56261D01*
X43752Y-56222D01*
X43866Y-56222D01*
X43942Y-56261D01*
X43980Y-56299D01*
X44018Y-56375D01*
X44018Y-56603D01*
X43980Y-56680D01*
X43942Y-56718D01*
X43866Y-56756D01*
X43752Y-56756D01*
X44476Y-56756D02*
X44400Y-56718D01*
X44361Y-56642D01*
X44361Y-55956D01*
X45085Y-56718D02*
X45009Y-56756D01*
X44857Y-56756D01*
X44780Y-56718D01*
X44742Y-56642D01*
X44742Y-56337D01*
X44780Y-56261D01*
X44857Y-56222D01*
X45009Y-56222D01*
X45085Y-56261D01*
X45123Y-56337D01*
X45123Y-56413D01*
X44742Y-56489D01*
X45428Y-56718D02*
X45505Y-56756D01*
X45657Y-56756D01*
X45733Y-56718D01*
X45771Y-56642D01*
X45771Y-56603D01*
X45733Y-56527D01*
X45657Y-56489D01*
X45543Y-56489D01*
X45466Y-56451D01*
X45428Y-56375D01*
X45428Y-56337D01*
X45466Y-56261D01*
X45543Y-56222D01*
X45657Y-56222D01*
X45733Y-56261D01*
X46038Y-57061D02*
X46076Y-57022D01*
X46153Y-56908D01*
X46191Y-56832D01*
X46229Y-56718D01*
X46267Y-56527D01*
X46267Y-56375D01*
X46229Y-56184D01*
X46191Y-56070D01*
X46153Y-55994D01*
X46076Y-55880D01*
X46038Y-55842D01*
G54D10*
X28934Y-57911D02*
X28934Y-57063D01*
X28086Y-57063D01*
X28086Y-57911D01*
X28934Y-57911D01*
G54D12*
X29424Y-57011D02*
X29920Y-57011D01*
X29653Y-57316D01*
X29767Y-57316D01*
X29843Y-57354D01*
X29881Y-57392D01*
X29920Y-57468D01*
X29920Y-57658D01*
X29881Y-57735D01*
X29843Y-57773D01*
X29767Y-57811D01*
X29539Y-57811D01*
X29462Y-57773D01*
X29424Y-57735D01*
X30262Y-57735D02*
X30301Y-57773D01*
X30262Y-57811D01*
X30224Y-57773D01*
X30262Y-57735D01*
X30262Y-57811D01*
X30796Y-57011D02*
X30872Y-57011D01*
X30948Y-57049D01*
X30986Y-57087D01*
X31024Y-57163D01*
X31063Y-57316D01*
X31063Y-57506D01*
X31024Y-57658D01*
X30986Y-57735D01*
X30948Y-57773D01*
X30872Y-57811D01*
X30796Y-57811D01*
X30720Y-57773D01*
X30682Y-57735D01*
X30643Y-57658D01*
X30605Y-57506D01*
X30605Y-57316D01*
X30643Y-57163D01*
X30682Y-57087D01*
X30720Y-57049D01*
X30796Y-57011D01*
X31786Y-57011D02*
X31405Y-57011D01*
X31367Y-57392D01*
X31405Y-57354D01*
X31482Y-57316D01*
X31672Y-57316D01*
X31748Y-57354D01*
X31786Y-57392D01*
X31825Y-57468D01*
X31825Y-57658D01*
X31786Y-57735D01*
X31748Y-57773D01*
X31672Y-57811D01*
X31482Y-57811D01*
X31405Y-57773D01*
X31367Y-57735D01*
X32167Y-57811D02*
X32167Y-57277D01*
X32167Y-57354D02*
X32206Y-57316D01*
X32282Y-57277D01*
X32396Y-57277D01*
X32472Y-57316D01*
X32510Y-57392D01*
X32510Y-57811D01*
X32510Y-57392D02*
X32548Y-57316D01*
X32625Y-57277D01*
X32739Y-57277D01*
X32815Y-57316D01*
X32853Y-57392D01*
X32853Y-57811D01*
X33234Y-57811D02*
X33234Y-57277D01*
X33234Y-57354D02*
X33273Y-57316D01*
X33349Y-57277D01*
X33463Y-57277D01*
X33539Y-57316D01*
X33577Y-57392D01*
X33577Y-57811D01*
X33577Y-57392D02*
X33615Y-57316D01*
X33692Y-57277D01*
X33806Y-57277D01*
X33882Y-57316D01*
X33920Y-57392D01*
X33920Y-57811D01*
X35483Y-56973D02*
X34797Y-58001D01*
X36512Y-57011D02*
X36588Y-57011D01*
X36664Y-57049D01*
X36702Y-57087D01*
X36740Y-57163D01*
X36779Y-57316D01*
X36779Y-57506D01*
X36740Y-57658D01*
X36702Y-57735D01*
X36664Y-57773D01*
X36588Y-57811D01*
X36512Y-57811D01*
X36436Y-57773D01*
X36398Y-57735D01*
X36359Y-57658D01*
X36321Y-57506D01*
X36321Y-57316D01*
X36359Y-57163D01*
X36398Y-57087D01*
X36436Y-57049D01*
X36512Y-57011D01*
X37121Y-57735D02*
X37160Y-57773D01*
X37121Y-57811D01*
X37083Y-57773D01*
X37121Y-57735D01*
X37121Y-57811D01*
X37922Y-57811D02*
X37464Y-57811D01*
X37693Y-57811D02*
X37693Y-57011D01*
X37617Y-57125D01*
X37541Y-57201D01*
X37464Y-57239D01*
X38226Y-57087D02*
X38264Y-57049D01*
X38341Y-57011D01*
X38531Y-57011D01*
X38607Y-57049D01*
X38645Y-57087D01*
X38684Y-57163D01*
X38684Y-57239D01*
X38645Y-57354D01*
X38188Y-57811D01*
X38684Y-57811D01*
X39179Y-57011D02*
X39255Y-57011D01*
X39331Y-57049D01*
X39369Y-57087D01*
X39407Y-57163D01*
X39446Y-57316D01*
X39446Y-57506D01*
X39407Y-57658D01*
X39369Y-57735D01*
X39331Y-57773D01*
X39255Y-57811D01*
X39179Y-57811D01*
X39103Y-57773D01*
X39065Y-57735D01*
X39026Y-57658D01*
X38988Y-57506D01*
X38988Y-57316D01*
X39026Y-57163D01*
X39065Y-57087D01*
X39103Y-57049D01*
X39179Y-57011D01*
X39750Y-57011D02*
X39750Y-57163D01*
X40055Y-57011D02*
X40055Y-57163D01*
X41237Y-58116D02*
X41199Y-58077D01*
X41123Y-57963D01*
X41085Y-57887D01*
X41047Y-57773D01*
X41008Y-57582D01*
X41008Y-57430D01*
X41047Y-57239D01*
X41085Y-57125D01*
X41123Y-57049D01*
X41199Y-56935D01*
X41237Y-56897D01*
X41465Y-57011D02*
X41961Y-57011D01*
X41694Y-57316D01*
X41808Y-57316D01*
X41884Y-57354D01*
X41922Y-57392D01*
X41961Y-57468D01*
X41961Y-57658D01*
X41922Y-57735D01*
X41884Y-57773D01*
X41808Y-57811D01*
X41580Y-57811D01*
X41503Y-57773D01*
X41465Y-57735D01*
X42913Y-57811D02*
X42913Y-57011D01*
X43256Y-57811D02*
X43256Y-57392D01*
X43218Y-57316D01*
X43142Y-57277D01*
X43028Y-57277D01*
X42952Y-57316D01*
X42913Y-57354D01*
X43752Y-57811D02*
X43676Y-57773D01*
X43637Y-57735D01*
X43599Y-57658D01*
X43599Y-57430D01*
X43637Y-57354D01*
X43676Y-57316D01*
X43752Y-57277D01*
X43866Y-57277D01*
X43942Y-57316D01*
X43980Y-57354D01*
X44018Y-57430D01*
X44018Y-57658D01*
X43980Y-57735D01*
X43942Y-57773D01*
X43866Y-57811D01*
X43752Y-57811D01*
X44476Y-57811D02*
X44400Y-57773D01*
X44361Y-57697D01*
X44361Y-57011D01*
X45085Y-57773D02*
X45009Y-57811D01*
X44857Y-57811D01*
X44780Y-57773D01*
X44742Y-57697D01*
X44742Y-57392D01*
X44780Y-57316D01*
X44857Y-57277D01*
X45009Y-57277D01*
X45085Y-57316D01*
X45123Y-57392D01*
X45123Y-57468D01*
X44742Y-57544D01*
X45428Y-57773D02*
X45505Y-57811D01*
X45657Y-57811D01*
X45733Y-57773D01*
X45771Y-57697D01*
X45771Y-57658D01*
X45733Y-57582D01*
X45657Y-57544D01*
X45543Y-57544D01*
X45466Y-57506D01*
X45428Y-57430D01*
X45428Y-57392D01*
X45466Y-57316D01*
X45543Y-57277D01*
X45657Y-57277D01*
X45733Y-57316D01*
X46038Y-58116D02*
X46076Y-58077D01*
X46153Y-57963D01*
X46191Y-57887D01*
X46229Y-57773D01*
X46267Y-57582D01*
X46267Y-57430D01*
X46229Y-57239D01*
X46191Y-57125D01*
X46153Y-57049D01*
X46076Y-56935D01*
X46038Y-56897D01*
M02*
