M48
;DRILL file {Pcbnew (2012-01-19 BZR 3256)-stable} date 10/22/2012 3:01:48 PM
;FORMAT={-:-/ absolute / inch / decimal}
FMAT,2
INCH,TZ
T1C0.025
T2C0.032
T3C0.035
T4C0.040
T5C0.045
T6C0.120
%
G90
G05
M72
T1
X3.890Y4.190
X4.500Y4.050
X4.650Y4.300
X4.680Y3.150
X4.750Y4.500
X4.770Y4.260
X4.780Y4.340
X4.800Y4.550
X4.830Y4.390
X4.890Y3.120
X4.960Y3.520
X5.045Y4.400
X5.120Y3.730
X5.120Y3.920
X5.135Y4.200
X5.140Y3.665
X5.190Y4.240
X5.220Y3.804
X5.230Y3.880
X5.240Y3.660
X5.250Y4.370
X5.270Y3.320
X5.280Y3.510
X5.290Y3.380
X5.292Y3.732
X5.340Y3.375
X5.345Y4.220
X5.360Y3.510
X5.430Y3.820
X5.440Y4.030
X5.460Y3.790
X5.474Y3.866
X5.480Y4.050
X5.505Y4.325
X5.520Y3.415
X5.520Y3.570
X5.520Y3.750
X5.560Y4.010
X5.575Y3.750
X5.588Y4.066
X5.615Y3.565
X5.620Y4.000
X5.640Y3.380
X5.640Y3.890
X5.655Y4.058
X5.675Y3.470
X5.702Y3.384
X5.710Y4.070
X5.735Y3.420
X5.740Y3.970
X5.750Y4.180
X5.780Y3.400
X5.812Y4.066
X5.830Y3.695
X5.848Y4.040
X5.860Y3.370
X5.870Y4.240
X5.900Y3.952
X5.902Y3.902
X5.905Y3.695
X5.910Y3.625
X5.910Y3.858
X5.950Y3.350
X5.980Y4.110
X6.040Y4.290
X6.045Y3.675
X6.055Y3.435
X6.065Y4.212
X6.080Y3.875
X6.080Y4.490
X6.085Y4.540
X6.100Y3.710
X6.110Y4.210
X6.145Y4.160
X6.183Y4.258
X6.190Y4.020
X6.225Y3.290
X6.250Y3.775
X6.280Y4.130
X6.300Y3.875
X6.320Y4.050
X6.325Y3.950
X6.365Y3.380
X6.390Y4.645
X6.410Y3.220
X6.475Y4.235
X6.515Y3.440
X6.545Y4.065
X6.550Y3.750
X6.550Y3.870
X6.580Y4.550
X6.595Y3.830
X6.620Y4.350
X6.620Y4.530
X6.624Y4.440
X6.630Y3.530
X6.660Y4.330
X6.670Y4.220
X6.670Y4.264
X6.855Y3.625
X6.868Y4.116
X6.875Y3.585
X6.920Y3.640
X6.945Y3.220
X6.945Y3.285
X6.975Y3.730
X6.980Y3.530
X7.000Y3.650
X7.100Y3.990
X7.140Y3.800
X7.230Y4.440
X7.230Y4.680
X7.404Y3.746
X7.435Y4.390
X7.510Y4.090
X7.620Y3.620
X7.630Y3.260
X7.630Y3.320
X7.630Y3.560
T2
X4.614Y4.650
X4.692Y4.650
X4.741Y3.300
X4.741Y3.600
X4.771Y4.650
X4.850Y4.650
X4.859Y3.300
X4.859Y3.600
X4.929Y4.650
X5.008Y4.650
X5.086Y4.650
X5.165Y4.650
X6.450Y3.564
X6.450Y3.643
X6.450Y3.721
X6.450Y3.800
X6.450Y3.879
X6.450Y3.958
X6.450Y4.036
X6.450Y4.115
X6.765Y3.564
X6.765Y3.643
X6.765Y3.721
X6.765Y3.800
X6.765Y3.879
X6.765Y3.958
X6.765Y4.036
X6.765Y4.115
T3
X7.937Y4.134
X7.937Y4.214
X7.937Y4.294
X7.937Y4.374
X7.937Y4.454
X7.937Y4.534
T4
X3.430Y4.220
X3.530Y4.220
X4.540Y3.790
X4.640Y3.790
X5.450Y3.270
X5.550Y3.270
X5.650Y3.270
X5.750Y3.270
X5.850Y3.270
X5.950Y3.270
X6.750Y3.250
X6.850Y3.250
X7.840Y4.050
X7.840Y4.150
X7.840Y4.518
X7.840Y4.618
T5
X3.600Y3.250
X3.600Y3.350
X3.600Y3.450
X3.620Y3.850
X3.620Y3.950
X3.620Y4.050
X3.620Y4.370
X3.620Y4.470
X3.620Y4.570
T6
X4.250Y3.350
X4.270Y3.950
X4.270Y4.470
T0
M30
