M48
;DRILL file {Pcbnew (2012-01-19 BZR 3256)-stable} date 10/27/2012 11:43:33 AM
;FORMAT={-:-/ absolute / metric / decimal}
FMAT,2
METRIC,TZ
T1C0.635
T2C0.813
T3C0.889
T4C1.016
T5C1.143
T6C1.300
T7C3.048
%
G90
G05
M71
T1
X83.947Y104.394
X87.122Y107.188
X98.552Y83.566
X98.806Y106.426
X114.300Y102.870
X118.110Y109.220
X118.872Y80.010
X120.650Y114.300
X121.158Y108.204
X121.412Y110.236
X121.920Y115.570
X122.682Y111.506
X124.206Y79.248
X125.984Y89.408
X128.143Y111.760
X130.048Y94.742
X130.048Y99.568
X130.429Y106.680
X130.556Y93.091
X131.826Y107.696
X132.588Y96.622
X132.842Y98.552
X133.096Y92.964
X133.350Y110.998
X133.858Y84.328
X134.112Y89.154
X134.366Y85.852
X134.417Y94.793
X135.636Y85.725
X135.763Y107.188
X136.144Y89.154
X137.922Y97.028
X138.176Y102.362
X138.684Y96.266
X139.040Y98.196
X139.192Y102.870
X139.827Y109.855
X140.208Y86.741
X140.208Y90.678
X140.208Y95.250
X141.224Y101.854
X141.605Y95.250
X141.935Y103.276
X142.621Y90.551
X142.748Y101.600
X143.256Y85.852
X143.256Y98.806
X143.637Y103.061
X144.145Y88.138
X144.831Y85.954
X145.034Y103.378
X145.669Y86.868
X145.796Y100.838
X146.050Y106.172
X146.812Y86.360
X147.625Y103.276
X148.082Y93.853
X148.527Y102.616
X148.844Y85.598
X149.098Y107.696
X149.860Y100.381
X149.911Y99.111
X149.987Y93.853
X150.114Y92.075
X150.114Y97.981
X151.130Y85.090
X151.892Y104.394
X153.416Y108.966
X153.543Y93.345
X153.797Y87.249
X154.046Y106.985
X154.432Y98.425
X154.432Y114.046
X154.559Y115.316
X154.940Y94.234
X155.194Y106.934
X156.083Y105.664
X157.036Y108.141
X157.226Y102.108
X158.115Y83.566
X158.750Y95.885
X159.512Y104.902
X160.020Y98.425
X160.528Y102.870
X160.655Y100.330
X161.671Y85.852
X162.306Y117.983
X162.814Y81.788
X164.465Y107.569
X165.481Y87.376
X166.243Y103.251
X166.370Y95.250
X166.370Y98.298
X167.132Y115.570
X167.513Y97.282
X168.148Y110.490
X168.148Y115.062
X168.250Y112.776
X168.275Y78.867
X168.402Y89.662
X169.164Y82.804
X169.164Y109.982
X169.418Y107.188
X169.421Y108.311
X169.545Y85.979
X174.117Y92.075
X174.447Y104.546
X175.768Y92.456
X176.403Y81.788
X176.403Y83.439
X177.165Y94.742
X177.292Y89.662
X177.800Y92.710
X180.340Y101.346
X181.356Y96.520
X183.642Y112.776
X183.642Y118.872
X188.062Y95.148
X188.849Y111.506
X190.754Y103.886
X193.548Y91.948
X193.802Y82.804
X193.802Y84.328
X193.802Y90.424
T2
X117.191Y118.110
X119.190Y118.110
X120.419Y83.820
X120.419Y91.440
X121.191Y118.110
X123.190Y118.110
X123.421Y83.820
X123.421Y91.440
X125.189Y118.110
X127.191Y118.110
X129.189Y118.110
X131.191Y118.110
X163.830Y90.521
X163.830Y92.520
X163.830Y94.521
X163.830Y96.520
X163.830Y98.519
X163.830Y100.521
X163.830Y102.519
X163.830Y104.521
X171.831Y90.521
X171.831Y92.520
X171.831Y94.521
X171.831Y96.520
X171.831Y98.519
X171.831Y100.521
X171.831Y102.519
X171.831Y104.521
T3
X201.600Y105.004
X201.600Y107.036
X201.600Y109.068
X201.600Y111.100
X201.600Y113.132
X201.600Y115.164
T4
X138.430Y83.058
X140.970Y83.058
X143.510Y83.058
X146.050Y83.058
X148.590Y83.058
X151.130Y83.058
X171.450Y82.550
X173.990Y82.550
X199.136Y102.870
X199.136Y105.410
X199.136Y114.757
X199.136Y117.297
T5
X91.440Y82.550
X91.440Y85.090
X91.440Y87.630
X91.948Y97.790
X91.948Y100.330
X91.948Y102.870
X91.948Y110.998
X91.948Y113.538
X91.948Y116.078
T6
X80.137Y96.266
X80.137Y101.346
X80.264Y110.617
X80.264Y115.697
X80.391Y82.296
X80.391Y87.376
T7
X107.950Y85.090
X108.458Y100.330
X108.458Y113.538
T0
M30
